<?xml version="1.0" encoding="UTF-8" standalone="no"?>
<!-- Created with Keyshape -->
<svg xmlns="http://www.w3.org/2000/svg" id="Layer_1" viewBox="0 0 73.6 92.8" style="white-space: preserve-spaces;">
    <style>
@keyframes a0_d { 0% { d: path('M8.75,65.25C7.65,65.25,6.55,64.75,5.75,63.95L2.4,60.4C0.9,58.8,0.9,56.2,2.6,54.6C4.2,53.1,6.8,53.1,8.4,54.8L8.45,54.85L8.45,54.85C10.95,57.05,9.35,55.7,11.35,57.7C13.35,59.9,13.35,61.85,11.95,63.65L11.95,63.65C11.25,64.65,10.15,65.15,8.95,65.25C8.85,65.25,8.75,65.25,8.75,65.25Z'); } 25% { d: path('M24.3,81.7C23.2,81.7,22.1,81.2,21.3,80.4L2.4,60.4C0.9,58.8,0.9,56.2,2.6,54.6C4.2,53.1,6.8,53.1,8.4,54.8L24,71.3L24,71.3C26.5,73.5,24.9,72.15,26.9,74.15C28.9,76.35,28.9,78.3,27.5,80.1L27.5,80.1C26.8,81.1,25.7,81.6,24.5,81.7C24.4,81.7,24.3,81.7,24.3,81.7Z'); } 37.5% { d: path('M24.3,81.7C23.2,81.7,22.1,81.2,21.3,80.4L2.4,60.4C0.9,58.8,0.9,56.2,2.6,54.6C4.2,53.1,6.8,53.1,8.4,54.8L24,71.3L24,71.3C25.4,69.5,27.9,69.1,29.7,70.5C31.5,71.9,31.9,74.4,30.5,76.2L27.5,80.1C26.8,81.1,25.7,81.6,24.5,81.7C24.4,81.7,24.3,81.7,24.3,81.7Z'); } 100% { d: path('M24.3,81.7C23.2,81.7,22.1,81.2,21.3,80.4L2.4,60.4C0.9,58.8,0.9,56.2,2.6,54.6C4.2,53.1,6.8,53.1,8.4,54.8L24,71.3L66.3,15.4C67.7,13.6,70.2,13.2,72,14.6C73.8,16,74.2,18.5,72.8,20.3L27.5,80.1C26.8,81.1,25.7,81.6,24.5,81.7C24.4,81.7,24.3,81.7,24.3,81.7Z'); } }
    </style>
    <path class="st0" d="M64.3,92.8L0,92.8L0,20.2L64.3,20.2L64.3,92.8ZM3.3,89.5L61.1,89.5L61.1,23.5L3.3,23.5L3.3,89.5Z" fill="#FFFFFF"/>
    <path class="st1" d="M8.75,65.25C7.65,65.25,6.55,64.75,5.75,63.95L2.4,60.4C0.9,58.8,0.9,56.2,2.6,54.6C4.2,53.1,6.8,53.1,8.4,54.8L8.45,54.85L8.45,54.85C10.95,57.05,9.35,55.7,11.35,57.7C13.35,59.9,13.35,61.85,11.95,63.65L11.95,63.65C11.25,64.65,10.15,65.15,8.95,65.25C8.85,65.25,8.75,65.25,8.75,65.25Z" fill="#EFBB50" style="animation: 0.8s linear both a0_d;"/>
</svg>
