<svg xmlns="http://www.w3.org/2000/svg" xmlns:xlink="http://www.w3.org/1999/xlink" viewBox="0 0 117.94 80.21"><defs><style>.cls-1{fill:none;}.cls-2{clip-path:url(#clip-path);}.cls-3{fill:#efbb50;}</style><clipPath id="clip-path"><rect class="cls-1" width="117.94" height="80.21"/></clipPath></defs><g id="Layer_3" data-name="Layer 3"><g class="cls-2"><path class="cls-3" d="M113.13,75.41H39.28V58.64c1.28.09,2.65.15,4.11.15.9,0,1.84,0,3-.07,1.83-.07,3.69-.14,5.6-.14a44.24,44.24,0,0,1,12.37,1.54,20.37,20.37,0,0,0,5.46.74c4.64,0,8.48-1.56,10.53-4.28,1.18-1.57,2.33-4.27,1.17-8.3-2.38-8.23-15-9.62-18.75-9.85-2.37-.14-5.49-.74-6.89-2.77a5.48,5.48,0,0,1-.63-4.29,1.31,1.31,0,0,1,.25-.22h57.61Zm-88-26c-.28-.19-.51-.35-.71-.47L22,47.42C15.19,43.14,10,39.89,4.8,39.1V11.21c6.37,1.64,11.2,2.85,15.94,3.68l1.16-.08c3-1,6.51-2.37,10.18-3.82C39.42,8.09,47.74,4.8,52.39,4.8A5.73,5.73,0,0,1,54,5C59.1,6.57,75.05,17.83,79.41,21.28a23.13,23.13,0,0,1,4.34,5.07H54.84l-1.14.29a5.79,5.79,0,0,0-3,3.22A10.24,10.24,0,0,0,52,38.39c2,2.91,5.55,4.53,10.55,4.83,6.37.39,13.3,2.51,14.42,6.4a4.39,4.39,0,0,1-.39,4.07c-1.1,1.46-3.66,2.37-6.69,2.37a15.52,15.52,0,0,1-4.16-.56A49,49,0,0,0,52,53.78c-2,0-3.9.07-6,.15-13.49.53-18.77-3.06-20.91-4.54m90.43-23H89.4c-1.24-2.14-3.93-6.39-7-8.83S61.8,2.37,55.38.4a10.11,10.11,0,0,0-3-.4c-5.57,0-14,3.32-22.08,6.53C26.94,7.86,23.75,9.12,21,10.06c-4.84-.88-9.94-2.2-16.9-4L3,5.79,0,8.11V41.32l2.4,2.4c4.68,0,9.87,3.26,17.06,7.77l2.4,1.5c.15.09.32.22.53.36a27.83,27.83,0,0,0,12.09,4.74V77.81l2.4,2.4h78.66l2.4-2.4V28.75Z"/></g></g></svg>