<svg xmlns="http://www.w3.org/2000/svg" xmlns:xlink="http://www.w3.org/1999/xlink" viewBox="0 0 121.26 89.04"><defs><style>.cls-1{fill:none;}.cls-2{fill:#efbb50;}.cls-3{clip-path:url(#clip-path);}</style><clipPath id="clip-path"><rect class="cls-1" width="121.26" height="89.04"/></clipPath></defs><g id="Layer_6" data-name="Layer 6"><polygon class="cls-2" points="0 0.21 0 89.04 97.13 89.04 97.13 84.82 4.22 84.82 4.22 0.21 0 0.21"/><polygon class="cls-2" points="13.53 68.39 11.84 64.53 20.8 60.6 26.47 35.82 39.03 50.48 47.44 43.58 52.02 49.45 63.32 26.28 75.99 21.71 77.48 25.66 66.38 29.64 52.84 57.38 46.77 49.59 38.51 56.36 28.71 44.93 24.44 63.62 13.53 68.39"/><g class="cls-3"><path class="cls-2" d="M89.22,17.24a19.62,19.62,0,1,0-3.4,19.35,19.66,19.66,0,0,0,3.4-19.35m-41,15h0A24,24,0,1,1,72.87,47.87,24,24,0,0,1,48.25,32.2"/><path class="cls-2" d="M98.34,41.4a24.62,24.62,0,0,1-2.5,3.6,25.13,25.13,0,0,1-3.11,3.08l17,14.27a4.36,4.36,0,0,0,6.14-.53,4.48,4.48,0,0,0-.54-6.15ZM85.52,47.72,88,46.13a19.79,19.79,0,0,0,4.48-3.94,19.31,19.31,0,0,0,3.09-5.08l1.14-2.75,21.42,18A8.87,8.87,0,0,1,120.74,56a8.73,8.73,0,0,1-13.81,9.68Z"/></g></g></svg>