<svg xmlns="http://www.w3.org/2000/svg" xmlns:xlink="http://www.w3.org/1999/xlink" viewBox="0 0 106.5 106.5"><defs><style>.cls-1{fill:none;}.cls-2{clip-path:url(#clip-path);}.cls-3{fill:#efbb50;}</style><clipPath id="clip-path"><rect class="cls-1" width="106.5" height="106.5"/></clipPath></defs><g id="Layer_5" data-name="Layer 5"><g class="cls-2"><path class="cls-3" d="M53.25,39.33A13.92,13.92,0,1,0,67.17,53.25,13.94,13.94,0,0,0,53.25,39.33m0,31.35A17.44,17.44,0,1,1,70.69,53.25,17.45,17.45,0,0,1,53.25,70.68"/><path class="cls-3" d="M53.25,18.31a6,6,0,1,0,4.24,1.75,6,6,0,0,0-4.24-1.75m0,15.5A9.51,9.51,0,1,1,60,31a9.49,9.49,0,0,1-6.73,2.78"/><path class="cls-3" d="M32.78,26.78a6,6,0,1,0,6,6,6,6,0,0,0-6-6m0,15.51a9.51,9.51,0,1,1,9.52-9.51,9.52,9.52,0,0,1-9.52,9.51"/><path class="cls-3" d="M18.82,47.76Zm5.49-.51A6,6,0,1,0,28.55,49a6,6,0,0,0-4.24-1.76m0,15.51A9.51,9.51,0,1,1,31,60a9.45,9.45,0,0,1-6.72,2.78"/><path class="cls-3" d="M32.78,67.72a6,6,0,1,0,6,6,6,6,0,0,0-6-6m0,15.51a9.52,9.52,0,1,1,9.52-9.51,9.53,9.53,0,0,1-9.52,9.51"/><path class="cls-3" d="M53.25,76.2A6,6,0,1,0,57.49,78a6,6,0,0,0-4.24-1.75m0,15.51A9.53,9.53,0,1,1,60,88.92a9.46,9.46,0,0,1-6.73,2.79"/><path class="cls-3" d="M73.72,67.72a6,6,0,1,0,6,6,6,6,0,0,0-6-6m0,15.51a9.52,9.52,0,1,1,9.51-9.51,9.52,9.52,0,0,1-9.51,9.51"/><path class="cls-3" d="M82.2,47.25A6,6,0,1,0,86.44,49a6,6,0,0,0-4.24-1.76m0,15.51A9.49,9.49,0,1,1,88.93,60a9.49,9.49,0,0,1-6.73,2.78"/><path class="cls-3" d="M73.72,26.78a6,6,0,1,0,6,6,6,6,0,0,0-6-6m0,15.51a9.51,9.51,0,1,1,9.51-9.51,9.51,9.51,0,0,1-9.51,9.51"/><path class="cls-3" d="M53.25,3.52a2.88,2.88,0,0,0,0,5.75,2.88,2.88,0,1,0,0-5.75m0,9.27A6.4,6.4,0,0,1,48.73,1.87a6.4,6.4,0,0,1,9,9.05,6.32,6.32,0,0,1-4.52,1.87"/><path class="cls-3" d="M20.12,17.24A2.88,2.88,0,1,0,23,20.12a2.88,2.88,0,0,0-2.88-2.88m0,9.27a6.4,6.4,0,1,1,6.4-6.39,6.4,6.4,0,0,1-6.4,6.39"/><path class="cls-3" d="M4.36,51.21a2.88,2.88,0,1,0,4.07,4.08,2.88,2.88,0,0,0-4.07-4.08Zm2,8.43a6.39,6.39,0,1,1,4.52-10.91A6.39,6.39,0,0,1,6.4,59.64"/><path class="cls-3" d="M20.12,83.5A2.88,2.88,0,1,0,23,86.38a2.88,2.88,0,0,0-2.88-2.88m0,9.28a6.4,6.4,0,1,1,6.4-6.4,6.41,6.41,0,0,1-6.4,6.4"/><path class="cls-3" d="M51.22,102.14a2.88,2.88,0,1,0,2-4.92,2.82,2.82,0,0,0-2,.85A2.87,2.87,0,0,0,51.22,102.14Zm2,4.36a6.4,6.4,0,1,1,0-12.79,6.32,6.32,0,0,1,4.52,1.87,6.4,6.4,0,0,1-4.52,10.92"/><path class="cls-3" d="M86.38,83.5a2.88,2.88,0,1,0,2.88,2.88,2.88,2.88,0,0,0-2.88-2.88m0,9.28a6.4,6.4,0,1,1,6.4-6.4,6.4,6.4,0,0,1-6.4,6.4"/><path class="cls-3" d="M100.11,50.37a2.88,2.88,0,1,0,2,.84,2.88,2.88,0,0,0-2-.84m3.28,6.16Zm-3.28,3.11a6.38,6.38,0,1,1,4.52-1.87,6.38,6.38,0,0,1-4.52,1.87"/><path class="cls-3" d="M86.38,17.24a2.88,2.88,0,1,0,2.88,2.88,2.88,2.88,0,0,0-2.88-2.88m0,9.27a6.4,6.4,0,1,1,6.4-6.39,6.4,6.4,0,0,1-6.4,6.39"/></g></g></svg>