<svg xmlns="http://www.w3.org/2000/svg" xmlns:xlink="http://www.w3.org/1999/xlink" viewBox="0 0 91.1 91.1"><defs><style>.cls-1,.cls-4,.cls-5{fill:none;}.cls-2{clip-path:url(#clip-path);}.cls-3{fill:#003e6a;}.cls-4,.cls-5{stroke:#efbb50;}.cls-4{stroke-miterlimit:10;stroke-width:1.5px;}.cls-5{stroke-width:2.4px;}</style><clipPath id="clip-path"><rect class="cls-1" x="0.42" y="-0.11" width="91.1" height="91.1"/></clipPath></defs><g id="Layer_7" data-name="Layer 7"><g class="cls-2"><path class="cls-3" d="M1.17,45.44h0A44.8,44.8,0,1,0,46,.64a44.8,44.8,0,0,0-44.8,44.8m88,0A43.21,43.21,0,1,1,76.52,14.9,43.06,43.06,0,0,1,89.17,45.44"/><path class="cls-4" d="M1.17,45.44h0A44.8,44.8,0,1,0,46,.64a44.8,44.8,0,0,0-44.8,44.8m88,0A43.21,43.21,0,1,1,76.52,14.9,43.06,43.06,0,0,1,89.17,45.44"/></g><polyline class="cls-5" points="42.55 35.15 52.91 45.52 42.55 55.88"/></g></svg>