<?xml version="1.0" encoding="utf-8"?>
<!-- Generator: Adobe Illustrator 24.1.0, SVG Export Plug-In . SVG Version: 6.00 Build 0)  -->
<svg version="1.1" id="Layer_1" xmlns="http://www.w3.org/2000/svg" xmlns:xlink="http://www.w3.org/1999/xlink" x="0px" y="0px"
	 viewBox="0 0 823.67 77.97" style="enable-background:new 0 0 823.67 77.97;" xml:space="preserve">
<style type="text/css">
	.st0{fill:#EFBB50;}
	.st1{fill:#003E6A;}
	.st2{font-family:'Lato-Medium';}
	.st3{font-size:19.9622px;}
</style>
<rect class="st0" width="823.67" height="77.97"/>
<path class="st1" d="M31.82,27.97c0.11-0.14,0.22-0.28,0.32-0.41c0.1-0.13,0.2-0.27,0.29-0.4c-0.33,0.21-0.7,0.37-1.1,0.48
	c-0.4,0.11-0.82,0.16-1.26,0.16c-0.5,0-0.99-0.09-1.47-0.26c-0.48-0.17-0.91-0.43-1.28-0.78c-0.37-0.35-0.67-0.78-0.9-1.3
	c-0.23-0.52-0.34-1.12-0.34-1.81c0-0.65,0.12-1.25,0.36-1.82c0.24-0.57,0.58-1.06,1.01-1.49c0.43-0.43,0.95-0.76,1.56-1.01
	c0.61-0.25,1.27-0.37,2.01-0.37c0.74,0,1.4,0.12,1.99,0.35c0.59,0.23,1.09,0.56,1.51,0.98c0.42,0.42,0.74,0.92,0.96,1.51
	c0.22,0.59,0.33,1.23,0.33,1.93c0,0.45-0.04,0.87-0.11,1.27c-0.08,0.4-0.18,0.78-0.32,1.15c-0.14,0.37-0.31,0.73-0.51,1.08
	c-0.2,0.35-0.42,0.7-0.67,1.05L30.88,33c-0.11,0.16-0.28,0.29-0.51,0.4c-0.23,0.11-0.48,0.16-0.77,0.16h-2.27L31.82,27.97z
	 M28.54,23.47c0,0.81,0.21,1.42,0.62,1.84c0.42,0.42,1.01,0.63,1.77,0.63c0.4,0,0.76-0.06,1.07-0.19c0.31-0.13,0.58-0.3,0.79-0.52
	c0.21-0.22,0.37-0.48,0.48-0.78c0.11-0.3,0.16-0.62,0.16-0.97c0-0.39-0.06-0.74-0.18-1.05c-0.12-0.31-0.29-0.57-0.51-0.78
	c-0.22-0.21-0.48-0.38-0.78-0.49c-0.3-0.11-0.63-0.17-0.99-0.17c-0.37,0-0.71,0.06-1.01,0.18c-0.3,0.12-0.56,0.29-0.77,0.51
	c-0.21,0.22-0.38,0.48-0.49,0.78C28.6,22.78,28.54,23.11,28.54,23.47z M46.63,23.17c0.76,0,1.45,0.12,2.07,0.37
	c0.62,0.25,1.15,0.6,1.6,1.05c0.44,0.45,0.78,1,1.02,1.66c0.24,0.65,0.36,1.38,0.36,2.19c0,0.81-0.12,1.54-0.36,2.2
	c-0.24,0.65-0.58,1.21-1.02,1.67c-0.44,0.46-0.97,0.81-1.6,1.06c-0.62,0.25-1.31,0.37-2.07,0.37c-0.77,0-1.46-0.12-2.09-0.37
	c-0.63-0.25-1.16-0.6-1.6-1.06c-0.44-0.46-0.79-1.01-1.03-1.67c-0.24-0.65-0.36-1.38-0.36-2.2c0-0.81,0.12-1.53,0.36-2.19
	c0.24-0.65,0.59-1.2,1.03-1.66c0.44-0.45,0.98-0.8,1.6-1.05C45.17,23.29,45.86,23.17,46.63,23.17z M46.63,31.82
	c0.85,0,1.48-0.29,1.89-0.86c0.41-0.57,0.61-1.41,0.61-2.52c0-1.1-0.2-1.95-0.61-2.53c-0.41-0.58-1.04-0.87-1.89-0.87
	c-0.87,0-1.51,0.29-1.92,0.87c-0.42,0.58-0.62,1.42-0.62,2.52c0,1.1,0.21,1.93,0.62,2.51C45.12,31.53,45.76,31.82,46.63,31.82z
	 M61.98,23.33v10.24h-1.51c-0.33,0-0.53-0.15-0.62-0.45l-0.17-0.82c-0.42,0.43-0.88,0.77-1.39,1.03c-0.51,0.26-1.1,0.39-1.79,0.39
	c-0.56,0-1.05-0.09-1.48-0.28c-0.43-0.19-0.79-0.46-1.08-0.8c-0.29-0.35-0.51-0.76-0.66-1.23c-0.15-0.48-0.22-1-0.22-1.57v-6.51
	h2.47v6.51c0,0.63,0.14,1.11,0.43,1.45c0.29,0.34,0.72,0.51,1.3,0.51c0.43,0,0.82-0.09,1.2-0.28c0.37-0.19,0.73-0.45,1.06-0.78
	v-7.41H61.98z M67.43,33.73c-0.89,0-1.58-0.25-2.05-0.75c-0.48-0.5-0.71-1.2-0.71-2.08v-5.72h-1.05c-0.13,0-0.25-0.04-0.34-0.13
	c-0.09-0.09-0.14-0.22-0.14-0.39v-0.98l1.65-0.27l0.52-2.79c0.03-0.13,0.1-0.24,0.19-0.31c0.09-0.07,0.21-0.11,0.36-0.11h1.28v3.22
	h2.73v1.76h-2.73v5.55c0,0.32,0.08,0.57,0.23,0.75c0.16,0.18,0.37,0.27,0.64,0.27c0.15,0,0.28-0.02,0.38-0.05
	c0.1-0.04,0.19-0.07,0.27-0.11c0.08-0.04,0.14-0.08,0.2-0.11c0.06-0.04,0.12-0.05,0.18-0.05c0.07,0,0.13,0.02,0.18,0.05
	c0.05,0.04,0.1,0.09,0.15,0.16l0.74,1.2c-0.36,0.3-0.77,0.53-1.24,0.68C68.41,33.65,67.93,33.73,67.43,33.73z M80.03,23.17
	c0.76,0,1.45,0.12,2.07,0.37c0.62,0.25,1.15,0.6,1.6,1.05c0.44,0.45,0.78,1,1.02,1.66c0.24,0.65,0.36,1.38,0.36,2.19
	c0,0.81-0.12,1.54-0.36,2.2c-0.24,0.65-0.58,1.21-1.02,1.67c-0.44,0.46-0.97,0.81-1.6,1.06c-0.62,0.25-1.31,0.37-2.07,0.37
	c-0.77,0-1.46-0.12-2.09-0.37c-0.63-0.25-1.16-0.6-1.6-1.06c-0.44-0.46-0.79-1.01-1.03-1.67c-0.24-0.65-0.36-1.38-0.36-2.2
	c0-0.81,0.12-1.53,0.36-2.19c0.24-0.65,0.59-1.2,1.03-1.66c0.44-0.45,0.98-0.8,1.6-1.05C78.57,23.29,79.26,23.17,80.03,23.17z
	 M80.03,31.82c0.85,0,1.48-0.29,1.89-0.86c0.41-0.57,0.61-1.41,0.61-2.52c0-1.1-0.2-1.95-0.61-2.53c-0.41-0.58-1.04-0.87-1.89-0.87
	c-0.87,0-1.51,0.29-1.92,0.87c-0.42,0.58-0.62,1.42-0.62,2.52c0,1.1,0.21,1.93,0.62,2.51C78.52,31.53,79.16,31.82,80.03,31.82z
	 M87.03,33.57v-8.38l-0.89-0.14c-0.19-0.04-0.35-0.11-0.46-0.2c-0.12-0.1-0.17-0.23-0.17-0.41v-1.01h1.53v-0.76
	c0-0.59,0.09-1.11,0.26-1.58c0.18-0.47,0.43-0.86,0.76-1.19c0.33-0.33,0.73-0.58,1.2-0.75c0.47-0.17,1-0.26,1.6-0.26
	c0.47,0,0.91,0.06,1.32,0.19l-0.05,1.24c-0.01,0.09-0.03,0.17-0.08,0.22c-0.05,0.06-0.11,0.1-0.18,0.13
	c-0.08,0.03-0.16,0.05-0.26,0.06c-0.1,0.01-0.21,0.01-0.32,0.01c-0.29,0-0.55,0.03-0.78,0.09c-0.23,0.06-0.42,0.17-0.58,0.33
	c-0.16,0.16-0.28,0.36-0.36,0.62c-0.08,0.26-0.12,0.57-0.12,0.95v0.68h2.66v1.76H89.5v8.39H87.03z M106.26,31.72v1.85h-7.98v-1.85
	h2.92v-8.41c0-0.33,0.01-0.68,0.03-1.03l-2.08,1.74c-0.12,0.09-0.24,0.15-0.35,0.17c-0.12,0.02-0.23,0.02-0.33,0.01
	c-0.1-0.02-0.19-0.05-0.27-0.1c-0.08-0.05-0.14-0.1-0.18-0.16l-0.78-1.07l4.4-3.74h2.03v12.61H106.26z M118.18,26.35
	c0,1.26-0.13,2.35-0.4,3.28c-0.27,0.93-0.64,1.7-1.12,2.3c-0.48,0.61-1.04,1.06-1.69,1.35c-0.65,0.3-1.35,0.44-2.1,0.44
	c-0.75,0-1.45-0.15-2.09-0.44c-0.64-0.3-1.2-0.75-1.67-1.35c-0.47-0.61-0.84-1.37-1.11-2.3c-0.27-0.93-0.4-2.02-0.4-3.28
	c0-1.26,0.13-2.36,0.4-3.28c0.27-0.92,0.64-1.69,1.11-2.3c0.47-0.61,1.03-1.06,1.67-1.35c0.64-0.3,1.34-0.44,2.09-0.44
	c0.75,0,1.45,0.15,2.1,0.44c0.65,0.3,1.21,0.75,1.69,1.35c0.48,0.61,0.85,1.37,1.12,2.3C118.05,23.99,118.18,25.09,118.18,26.35z
	 M115.64,26.35c0-1.04-0.08-1.91-0.23-2.6c-0.15-0.69-0.36-1.23-0.61-1.64c-0.26-0.41-0.55-0.69-0.88-0.85
	c-0.33-0.16-0.68-0.24-1.04-0.24c-0.35,0-0.69,0.08-1.02,0.24c-0.33,0.16-0.62,0.45-0.87,0.85c-0.25,0.41-0.45,0.95-0.6,1.64
	c-0.15,0.69-0.22,1.55-0.22,2.6c0,1.04,0.07,1.91,0.22,2.6c0.15,0.69,0.35,1.23,0.6,1.64c0.25,0.41,0.54,0.69,0.87,0.85
	c0.33,0.16,0.67,0.24,1.02,0.24c0.36,0,0.71-0.08,1.04-0.24c0.33-0.16,0.63-0.45,0.88-0.85c0.26-0.41,0.46-0.95,0.61-1.64
	C115.56,28.26,115.64,27.4,115.64,26.35z M126.29,24.72c0.42-0.47,0.89-0.85,1.43-1.15c0.53-0.29,1.16-0.44,1.88-0.44
	c0.56,0,1.07,0.12,1.53,0.35c0.46,0.23,0.86,0.57,1.2,1.01c0.34,0.44,0.6,0.99,0.78,1.64c0.18,0.65,0.27,1.39,0.27,2.23
	c0,0.77-0.1,1.47-0.31,2.13c-0.21,0.65-0.5,1.22-0.88,1.7c-0.38,0.48-0.85,0.85-1.39,1.12c-0.54,0.27-1.15,0.4-1.82,0.4
	c-0.57,0-1.06-0.09-1.47-0.26c-0.41-0.18-0.77-0.42-1.09-0.73v4.19h-2.47V23.33h1.51c0.32,0,0.53,0.15,0.63,0.45L126.29,24.72z
	 M126.42,30.91c0.28,0.34,0.58,0.58,0.91,0.72c0.33,0.14,0.69,0.21,1.07,0.21c0.37,0,0.71-0.07,1.01-0.21
	c0.3-0.14,0.55-0.35,0.76-0.64c0.21-0.29,0.37-0.65,0.48-1.08c0.11-0.44,0.17-0.95,0.17-1.54c0-0.6-0.05-1.11-0.14-1.52
	c-0.1-0.42-0.23-0.75-0.41-1.01c-0.18-0.26-0.4-0.45-0.65-0.57c-0.26-0.12-0.55-0.18-0.87-0.18c-0.51,0-0.95,0.11-1.31,0.32
	c-0.36,0.22-0.7,0.52-1.02,0.91V30.91z M134.65,24.75c1.18-1.08,2.6-1.62,4.25-1.62c0.6,0,1.13,0.1,1.61,0.29
	c0.47,0.2,0.87,0.47,1.2,0.82c0.33,0.35,0.57,0.77,0.74,1.25c0.17,0.49,0.25,1.02,0.25,1.6v6.47h-1.12c-0.23,0-0.41-0.03-0.54-0.1
	c-0.13-0.07-0.23-0.21-0.3-0.42l-0.22-0.74c-0.26,0.23-0.51,0.44-0.76,0.61c-0.25,0.18-0.5,0.32-0.77,0.44
	c-0.27,0.12-0.55,0.21-0.85,0.27c-0.3,0.06-0.64,0.09-1,0.09c-0.43,0-0.83-0.06-1.2-0.17c-0.37-0.12-0.68-0.29-0.95-0.52
	c-0.27-0.23-0.47-0.52-0.62-0.87c-0.15-0.35-0.22-0.75-0.22-1.21c0-0.26,0.04-0.52,0.13-0.77c0.09-0.26,0.23-0.5,0.42-0.73
	c0.2-0.23,0.45-0.45,0.76-0.66c0.31-0.21,0.7-0.39,1.15-0.54c0.46-0.15,0.99-0.28,1.59-0.37c0.61-0.1,1.3-0.15,2.08-0.17v-0.6
	c0-0.69-0.15-1.19-0.44-1.52c-0.29-0.33-0.72-0.49-1.27-0.49c-0.4,0-0.73,0.05-0.99,0.14c-0.26,0.09-0.49,0.2-0.69,0.31
	c-0.2,0.12-0.38,0.22-0.54,0.31c-0.16,0.09-0.34,0.14-0.54,0.14c-0.17,0-0.32-0.04-0.44-0.13c-0.12-0.09-0.22-0.19-0.29-0.31
	L134.65,24.75z M140.3,29.2c-0.71,0.03-1.31,0.09-1.8,0.18c-0.49,0.09-0.88,0.2-1.17,0.34c-0.29,0.14-0.5,0.3-0.63,0.49
	c-0.13,0.19-0.19,0.39-0.19,0.61c0,0.43,0.13,0.74,0.38,0.93c0.26,0.19,0.59,0.28,1,0.28c0.51,0,0.94-0.09,1.31-0.27
	c0.37-0.18,0.73-0.46,1.08-0.83V29.2z M154.81,33.57h-2.47v-8.39h-4.75v5.55c0,0.32,0.08,0.57,0.23,0.75
	c0.16,0.18,0.37,0.27,0.64,0.27c0.15,0,0.28-0.02,0.38-0.05c0.1-0.04,0.19-0.07,0.27-0.11c0.08-0.04,0.14-0.08,0.2-0.11
	c0.06-0.04,0.12-0.05,0.18-0.05c0.07,0,0.13,0.02,0.18,0.05c0.05,0.04,0.1,0.09,0.15,0.16l0.74,1.2c-0.36,0.3-0.77,0.53-1.24,0.68
	c-0.47,0.15-0.95,0.23-1.45,0.23c-0.89,0-1.58-0.25-2.05-0.75c-0.48-0.5-0.71-1.2-0.71-2.08v-5.72h-1.05
	c-0.13,0-0.25-0.04-0.34-0.13c-0.09-0.09-0.14-0.22-0.14-0.39v-0.98l1.65-0.28l0.52-2.78c0.03-0.13,0.1-0.24,0.19-0.31
	c0.09-0.07,0.21-0.11,0.36-0.11h1.28v3.22h7.22V33.57z M155.24,20.3c0,0.21-0.04,0.41-0.13,0.6c-0.09,0.19-0.2,0.35-0.34,0.49
	c-0.14,0.14-0.31,0.25-0.51,0.33c-0.2,0.08-0.4,0.12-0.62,0.12c-0.21,0-0.41-0.04-0.6-0.12c-0.19-0.08-0.35-0.19-0.49-0.33
	c-0.14-0.14-0.25-0.3-0.33-0.49c-0.08-0.19-0.12-0.39-0.12-0.6c0-0.22,0.04-0.42,0.12-0.61c0.08-0.19,0.19-0.36,0.33-0.5
	c0.14-0.14,0.3-0.26,0.49-0.34c0.19-0.08,0.39-0.12,0.6-0.12c0.22,0,0.43,0.04,0.62,0.12c0.2,0.08,0.37,0.2,0.51,0.34
	c0.14,0.14,0.26,0.31,0.34,0.5C155.2,19.88,155.24,20.08,155.24,20.3z M158.82,28.76c0.04,0.53,0.13,0.98,0.28,1.36
	c0.15,0.38,0.34,0.7,0.58,0.95c0.24,0.25,0.52,0.44,0.85,0.56c0.33,0.12,0.69,0.18,1.09,0.18c0.4,0,0.74-0.05,1.03-0.14
	c0.29-0.09,0.54-0.2,0.76-0.31c0.22-0.11,0.41-0.22,0.57-0.31c0.16-0.09,0.32-0.14,0.47-0.14c0.21,0,0.36,0.08,0.46,0.23l0.71,0.9
	c-0.27,0.32-0.58,0.59-0.92,0.8c-0.34,0.22-0.69,0.39-1.06,0.52c-0.37,0.13-0.75,0.22-1.13,0.27c-0.38,0.05-0.75,0.08-1.11,0.08
	c-0.71,0-1.37-0.12-1.99-0.35c-0.61-0.24-1.14-0.59-1.6-1.05c-0.45-0.46-0.81-1.03-1.07-1.72c-0.26-0.68-0.39-1.47-0.39-2.37
	c0-0.7,0.11-1.36,0.34-1.97c0.23-0.62,0.55-1.15,0.97-1.61c0.42-0.46,0.94-0.82,1.55-1.08c0.61-0.27,1.3-0.4,2.06-0.4
	c0.65,0,1.24,0.1,1.79,0.31c0.55,0.21,1.01,0.51,1.41,0.9c0.39,0.4,0.7,0.88,0.92,1.46c0.22,0.58,0.33,1.23,0.33,1.97
	c0,0.37-0.04,0.62-0.12,0.75c-0.08,0.13-0.23,0.19-0.46,0.19H158.82z M163.52,27.27c0-0.32-0.04-0.62-0.13-0.9
	c-0.09-0.28-0.22-0.53-0.4-0.74c-0.18-0.21-0.41-0.38-0.68-0.5c-0.28-0.12-0.6-0.18-0.96-0.18c-0.71,0-1.27,0.2-1.68,0.61
	c-0.41,0.41-0.67,0.98-0.78,1.73H163.52z M169.49,24.58c0.21-0.21,0.42-0.4,0.65-0.57c0.23-0.18,0.47-0.33,0.73-0.45
	c0.26-0.12,0.53-0.22,0.82-0.29c0.29-0.07,0.61-0.1,0.96-0.1c0.56,0,1.05,0.09,1.49,0.28c0.43,0.19,0.79,0.46,1.08,0.8
	c0.29,0.34,0.51,0.75,0.66,1.23c0.15,0.48,0.22,1,0.22,1.57v6.52h-2.47v-6.52c0-0.63-0.14-1.11-0.43-1.45
	c-0.29-0.34-0.72-0.51-1.31-0.51c-0.43,0-0.83,0.1-1.2,0.29c-0.37,0.19-0.73,0.46-1.06,0.79v7.41h-2.47V23.33h1.51
	c0.32,0,0.53,0.15,0.63,0.45L169.49,24.58z M181.31,33.73c-0.89,0-1.58-0.25-2.05-0.75c-0.48-0.5-0.71-1.2-0.71-2.08v-5.72h-1.05
	c-0.13,0-0.25-0.04-0.34-0.13c-0.09-0.09-0.14-0.22-0.14-0.39v-0.98l1.65-0.27l0.52-2.79c0.03-0.13,0.1-0.24,0.19-0.31
	c0.09-0.07,0.21-0.11,0.36-0.11h1.28v3.22h2.73v1.76h-2.73v5.55c0,0.32,0.08,0.57,0.23,0.75c0.16,0.18,0.37,0.27,0.64,0.27
	c0.15,0,0.28-0.02,0.38-0.05c0.1-0.04,0.19-0.07,0.27-0.11c0.08-0.04,0.14-0.08,0.2-0.11c0.06-0.04,0.12-0.05,0.18-0.05
	c0.07,0,0.13,0.02,0.18,0.05c0.05,0.04,0.1,0.09,0.15,0.16l0.74,1.2c-0.36,0.3-0.77,0.53-1.24,0.68
	C182.29,33.65,181.81,33.73,181.31,33.73z M191.17,25.32c-0.07,0.11-0.14,0.18-0.21,0.22c-0.07,0.04-0.17,0.06-0.28,0.06
	c-0.12,0-0.25-0.03-0.38-0.1c-0.14-0.07-0.29-0.14-0.47-0.22c-0.18-0.08-0.38-0.16-0.61-0.22c-0.23-0.07-0.5-0.1-0.81-0.1
	c-0.49,0-0.87,0.1-1.14,0.31c-0.28,0.21-0.41,0.48-0.41,0.81c0,0.22,0.07,0.4,0.21,0.55c0.14,0.15,0.33,0.28,0.57,0.39
	c0.24,0.11,0.5,0.21,0.8,0.3c0.3,0.09,0.6,0.19,0.91,0.29c0.31,0.11,0.61,0.23,0.91,0.36c0.3,0.14,0.57,0.31,0.8,0.52
	c0.24,0.21,0.43,0.46,0.57,0.75c0.14,0.29,0.21,0.65,0.21,1.06c0,0.49-0.09,0.95-0.26,1.36c-0.18,0.42-0.44,0.78-0.78,1.08
	c-0.35,0.3-0.77,0.54-1.28,0.71c-0.51,0.17-1.1,0.25-1.76,0.25c-0.35,0-0.7-0.03-1.03-0.09c-0.34-0.06-0.66-0.15-0.97-0.26
	c-0.31-0.11-0.6-0.25-0.86-0.4c-0.26-0.15-0.49-0.32-0.69-0.5l0.57-0.94c0.07-0.11,0.16-0.2,0.26-0.26c0.1-0.06,0.23-0.09,0.38-0.09
	c0.15,0,0.3,0.04,0.43,0.13c0.14,0.09,0.29,0.18,0.47,0.28c0.18,0.1,0.39,0.19,0.63,0.28c0.24,0.09,0.55,0.13,0.92,0.13
	c0.29,0,0.54-0.03,0.75-0.1c0.21-0.07,0.38-0.16,0.52-0.27c0.14-0.11,0.24-0.24,0.3-0.39c0.06-0.15,0.09-0.3,0.09-0.46
	c0-0.24-0.07-0.44-0.21-0.59c-0.14-0.15-0.33-0.29-0.57-0.4c-0.24-0.11-0.51-0.21-0.81-0.3c-0.3-0.09-0.61-0.19-0.93-0.29
	c-0.32-0.11-0.63-0.23-0.93-0.37c-0.3-0.14-0.57-0.32-0.81-0.54c-0.24-0.22-0.43-0.49-0.57-0.81c-0.14-0.32-0.21-0.71-0.21-1.16
	c0-0.42,0.08-0.82,0.25-1.2c0.17-0.38,0.41-0.71,0.73-0.99c0.32-0.28,0.73-0.51,1.21-0.68c0.48-0.17,1.04-0.25,1.67-0.25
	c0.71,0,1.35,0.12,1.93,0.35c0.58,0.23,1.06,0.54,1.45,0.92L191.17,25.32z"/>
<g>
	<path class="st1" d="M211.79,23.43l-3.26,10.14h-1.56c-0.19,0-0.31-0.12-0.38-0.37l-2.14-6.61c-0.05-0.17-0.1-0.33-0.14-0.49
		s-0.08-0.33-0.11-0.49c-0.06,0.35-0.14,0.68-0.25,1.01l-2.17,6.59c-0.07,0.25-0.21,0.37-0.43,0.37h-1.48l-3.27-10.14h1.54
		c0.15,0,0.28,0.04,0.38,0.11c0.1,0.07,0.17,0.17,0.2,0.28l1.83,6.23c0.06,0.25,0.11,0.5,0.16,0.74c0.05,0.24,0.09,0.48,0.13,0.72
		c0.06-0.24,0.12-0.48,0.19-0.72c0.07-0.24,0.14-0.49,0.21-0.74l2.03-6.27c0.03-0.11,0.1-0.2,0.19-0.27c0.09-0.07,0.21-0.1,0.34-0.1
		h0.85c0.15,0,0.27,0.04,0.36,0.1c0.1,0.07,0.16,0.16,0.2,0.27l1.98,6.27c0.07,0.25,0.14,0.5,0.21,0.74
		c0.07,0.24,0.13,0.49,0.18,0.73c0.04-0.24,0.09-0.48,0.14-0.72c0.05-0.24,0.11-0.49,0.18-0.75l1.86-6.23
		c0.03-0.11,0.1-0.21,0.21-0.28c0.1-0.07,0.22-0.11,0.35-0.11H211.79z"/>
	<path class="st1" d="M214.99,24.71c0.43-0.43,0.9-0.78,1.41-1.05s1.11-0.4,1.78-0.4c0.56,0,1.05,0.09,1.47,0.28
		c0.42,0.19,0.78,0.45,1.06,0.78s0.5,0.74,0.65,1.21c0.15,0.47,0.22,1,0.22,1.57v6.46h-1.96v-6.46c0-0.73-0.17-1.29-0.5-1.69
		c-0.33-0.4-0.84-0.6-1.53-0.6c-0.5,0-0.97,0.12-1.4,0.35s-0.84,0.56-1.21,0.96v7.44h-1.95V18.84h1.95V24.71z"/>
	<path class="st1" d="M228.14,23.27c0.75,0,1.42,0.12,2.02,0.36c0.6,0.24,1.12,0.59,1.54,1.05c0.42,0.46,0.75,1,0.97,1.65
		c0.23,0.64,0.34,1.36,0.34,2.16c0,0.8-0.11,1.52-0.34,2.17c-0.23,0.65-0.55,1.19-0.97,1.65c-0.42,0.45-0.93,0.8-1.54,1.04
		c-0.6,0.24-1.28,0.36-2.02,0.36c-0.75,0-1.43-0.12-2.03-0.36c-0.6-0.24-1.12-0.59-1.54-1.04s-0.75-1-0.98-1.65
		s-0.34-1.37-0.34-2.17c0-0.8,0.12-1.52,0.34-2.16s0.56-1.19,0.98-1.65c0.43-0.46,0.94-0.81,1.54-1.05
		C226.71,23.39,227.38,23.27,228.14,23.27z M228.14,32.19c0.96,0,1.67-0.32,2.15-0.97c0.47-0.65,0.71-1.55,0.71-2.72
		s-0.24-2.08-0.71-2.73s-1.19-0.97-2.15-0.97c-0.97,0-1.7,0.32-2.17,0.97s-0.71,1.56-0.71,2.73s0.24,2.08,0.71,2.72
		C226.44,31.87,227.16,32.19,228.14,32.19z"/>
	<path class="st1" d="M241.27,25.37c0.33-0.67,0.72-1.19,1.18-1.57c0.46-0.38,1.01-0.57,1.66-0.57c0.22,0,0.43,0.02,0.62,0.08
		c0.2,0.05,0.37,0.12,0.51,0.22L245.11,25c-0.05,0.18-0.16,0.27-0.33,0.27c-0.09,0-0.23-0.02-0.42-0.05s-0.39-0.06-0.6-0.06
		c-0.31,0-0.59,0.04-0.83,0.13c-0.24,0.09-0.45,0.22-0.64,0.4c-0.19,0.18-0.36,0.39-0.5,0.65s-0.28,0.55-0.41,0.87v6.35h-1.95V23.43
		h1.12c0.21,0,0.36,0.04,0.43,0.11c0.08,0.08,0.13,0.21,0.16,0.4L241.27,25.37z"/>
	<path class="st1" d="M254.31,32.12c-0.24,0.28-0.52,0.52-0.83,0.72s-0.65,0.37-1,0.49s-0.72,0.22-1.09,0.28
		c-0.38,0.06-0.75,0.09-1.11,0.09c-0.7,0-1.35-0.12-1.94-0.35c-0.6-0.24-1.11-0.58-1.55-1.04c-0.44-0.46-0.78-1.02-1.02-1.7
		c-0.24-0.68-0.36-1.45-0.36-2.33c0-0.71,0.11-1.36,0.33-1.97c0.22-0.61,0.53-1.14,0.94-1.59s0.91-0.81,1.5-1.07
		c0.59-0.26,1.26-0.39,2-0.39c0.62,0,1.19,0.1,1.71,0.3c0.52,0.2,0.97,0.5,1.35,0.88c0.38,0.39,0.68,0.86,0.89,1.43
		c0.22,0.57,0.33,1.21,0.33,1.94c0,0.3-0.03,0.5-0.1,0.6c-0.07,0.1-0.19,0.15-0.37,0.15h-6.65c0.02,0.61,0.11,1.13,0.26,1.58
		s0.36,0.82,0.63,1.12s0.59,0.52,0.96,0.67c0.37,0.15,0.79,0.22,1.25,0.22c0.43,0,0.81-0.05,1.12-0.15c0.32-0.1,0.59-0.21,0.82-0.32
		c0.23-0.12,0.42-0.22,0.58-0.32c0.16-0.1,0.29-0.15,0.41-0.15c0.16,0,0.28,0.06,0.37,0.18L254.31,32.12z M252.71,27.37
		c0-0.39-0.06-0.74-0.17-1.07s-0.27-0.61-0.48-0.85c-0.21-0.24-0.47-0.43-0.78-0.56c-0.31-0.13-0.66-0.2-1.06-0.2
		c-0.82,0-1.46,0.24-1.93,0.71c-0.47,0.47-0.77,1.13-0.89,1.97H252.71z"/>
	<path class="st1" d="M262.14,25.17c-0.05,0.09-0.11,0.15-0.17,0.18c-0.06,0.04-0.14,0.05-0.23,0.05c-0.11,0-0.22-0.04-0.35-0.11
		s-0.29-0.15-0.47-0.24c-0.18-0.09-0.4-0.17-0.64-0.24c-0.25-0.07-0.54-0.11-0.88-0.11c-0.28,0-0.53,0.03-0.76,0.1
		s-0.42,0.17-0.58,0.29c-0.16,0.12-0.28,0.27-0.37,0.44c-0.09,0.17-0.13,0.35-0.13,0.54c0,0.25,0.08,0.46,0.22,0.63
		c0.15,0.17,0.35,0.31,0.59,0.43c0.24,0.12,0.52,0.23,0.83,0.32c0.31,0.1,0.63,0.2,0.95,0.3c0.32,0.11,0.64,0.23,0.95,0.36
		c0.31,0.14,0.59,0.31,0.83,0.51c0.24,0.2,0.44,0.45,0.59,0.73c0.15,0.29,0.22,0.64,0.22,1.05c0,0.47-0.08,0.91-0.25,1.31
		c-0.17,0.4-0.42,0.75-0.75,1.04c-0.33,0.29-0.74,0.52-1.22,0.69c-0.49,0.17-1.04,0.25-1.67,0.25c-0.7,0-1.34-0.12-1.94-0.35
		c-0.59-0.23-1.09-0.53-1.49-0.89l0.46-0.75c0.05-0.09,0.12-0.16,0.2-0.21c0.08-0.05,0.19-0.08,0.32-0.08
		c0.13,0,0.26,0.05,0.39,0.14s0.29,0.19,0.48,0.3c0.19,0.11,0.41,0.21,0.68,0.3c0.27,0.09,0.6,0.13,1,0.13
		c0.33,0,0.62-0.04,0.87-0.12s0.45-0.2,0.61-0.34s0.29-0.31,0.36-0.49c0.08-0.19,0.12-0.38,0.12-0.59c0-0.27-0.08-0.49-0.22-0.66
		s-0.35-0.33-0.59-0.45c-0.24-0.13-0.52-0.24-0.83-0.33c-0.31-0.09-0.63-0.19-0.96-0.3c-0.33-0.11-0.65-0.23-0.96-0.37
		c-0.31-0.14-0.59-0.32-0.83-0.53c-0.24-0.21-0.44-0.47-0.59-0.78c-0.15-0.31-0.22-0.68-0.22-1.12c0-0.39,0.08-0.77,0.24-1.13
		c0.16-0.36,0.4-0.68,0.71-0.95c0.31-0.27,0.69-0.49,1.15-0.65c0.46-0.16,0.98-0.24,1.56-0.24c0.67,0,1.28,0.11,1.82,0.32
		s1.01,0.51,1.39,0.88L262.14,25.17z"/>
	<path class="st1" d="M266.3,24.94c0.21-0.25,0.44-0.48,0.68-0.69s0.5-0.39,0.78-0.54c0.28-0.15,0.58-0.27,0.89-0.35
		c0.32-0.08,0.65-0.12,1.01-0.12c0.58,0,1.1,0.11,1.57,0.34c0.47,0.23,0.87,0.56,1.2,1c0.33,0.44,0.59,0.98,0.77,1.63
		c0.18,0.65,0.27,1.39,0.27,2.23c0,0.75-0.1,1.45-0.3,2.09s-0.49,1.2-0.87,1.67c-0.38,0.47-0.83,0.84-1.38,1.11
		c-0.54,0.27-1.15,0.4-1.83,0.4c-0.61,0-1.12-0.1-1.56-0.3s-0.82-0.48-1.16-0.84v4.4h-1.95V23.43h1.17c0.27,0,0.44,0.13,0.51,0.39
		L266.3,24.94z M266.4,31.07c0.32,0.42,0.66,0.71,1.03,0.88c0.37,0.17,0.78,0.25,1.24,0.25c0.89,0,1.58-0.32,2.07-0.96
		c0.49-0.64,0.73-1.58,0.73-2.81c0-0.65-0.06-1.2-0.17-1.65c-0.11-0.46-0.27-0.83-0.48-1.12c-0.21-0.29-0.47-0.5-0.77-0.64
		c-0.31-0.14-0.65-0.2-1.04-0.2c-0.57,0-1.06,0.13-1.47,0.38c-0.42,0.25-0.8,0.61-1.15,1.08V31.07z"/>
	<path class="st1" d="M279.61,23.27c0.75,0,1.42,0.12,2.02,0.36c0.6,0.24,1.12,0.59,1.54,1.05c0.42,0.46,0.75,1,0.97,1.65
		c0.23,0.64,0.34,1.36,0.34,2.16c0,0.8-0.11,1.52-0.34,2.17c-0.23,0.65-0.55,1.19-0.97,1.65c-0.42,0.45-0.93,0.8-1.54,1.04
		c-0.6,0.24-1.28,0.36-2.02,0.36c-0.75,0-1.43-0.12-2.03-0.36c-0.6-0.24-1.12-0.59-1.54-1.04s-0.75-1-0.98-1.65
		s-0.34-1.37-0.34-2.17c0-0.8,0.12-1.52,0.34-2.16s0.56-1.19,0.98-1.65c0.43-0.46,0.94-0.81,1.54-1.05
		C278.18,23.39,278.85,23.27,279.61,23.27z M279.61,32.19c0.96,0,1.67-0.32,2.15-0.97c0.47-0.65,0.71-1.55,0.71-2.72
		s-0.24-2.08-0.71-2.73s-1.19-0.97-2.15-0.97c-0.97,0-1.7,0.32-2.17,0.97s-0.71,1.56-0.71,2.73s0.24,2.08,0.71,2.72
		C277.91,31.87,278.63,32.19,279.61,32.19z"/>
	<path class="st1" d="M288.09,24.83c0.22-0.23,0.45-0.45,0.69-0.64s0.49-0.36,0.76-0.49s0.56-0.24,0.87-0.32s0.64-0.11,0.99-0.11
		c0.56,0,1.05,0.09,1.47,0.28c0.42,0.19,0.78,0.45,1.06,0.78s0.5,0.74,0.65,1.21c0.15,0.47,0.22,1,0.22,1.57v6.46h-1.96v-6.46
		c0-0.73-0.17-1.29-0.5-1.69c-0.33-0.4-0.84-0.6-1.53-0.6c-0.5,0-0.97,0.12-1.4,0.35s-0.84,0.56-1.21,0.96v7.44h-1.95V23.43h1.17
		c0.27,0,0.44,0.13,0.51,0.39L288.09,24.83z"/>
	<path class="st1" d="M305.53,18.84v14.73h-1.18c-0.27,0-0.44-0.13-0.51-0.39l-0.17-1.17c-0.43,0.51-0.92,0.92-1.47,1.23
		c-0.55,0.31-1.18,0.46-1.9,0.46c-0.58,0-1.1-0.11-1.57-0.34c-0.47-0.23-0.87-0.56-1.2-0.99c-0.33-0.44-0.59-0.98-0.77-1.62
		s-0.27-1.39-0.27-2.23c0-0.75,0.1-1.45,0.3-2.1c0.2-0.65,0.49-1.2,0.87-1.68c0.38-0.47,0.84-0.84,1.38-1.11s1.15-0.4,1.83-0.4
		c0.61,0,1.13,0.1,1.56,0.3c0.43,0.2,0.81,0.48,1.15,0.85v-5.55H305.53z M303.57,25.88c-0.32-0.42-0.66-0.71-1.03-0.88
		c-0.37-0.17-0.78-0.25-1.24-0.25c-0.89,0-1.58,0.32-2.07,0.96c-0.49,0.64-0.73,1.58-0.73,2.81c0,0.65,0.06,1.2,0.17,1.65
		c0.11,0.46,0.27,0.83,0.48,1.12c0.21,0.29,0.47,0.5,0.77,0.64c0.31,0.14,0.65,0.2,1.04,0.2c0.57,0,1.05-0.13,1.47-0.38
		c0.41-0.25,0.8-0.61,1.16-1.07V25.88z"/>
	<path class="st1" d="M316.18,32.12c-0.24,0.28-0.52,0.52-0.83,0.72s-0.65,0.37-1,0.49s-0.72,0.22-1.09,0.28
		c-0.38,0.06-0.75,0.09-1.11,0.09c-0.7,0-1.35-0.12-1.94-0.35c-0.6-0.24-1.11-0.58-1.55-1.04c-0.44-0.46-0.78-1.02-1.02-1.7
		c-0.24-0.68-0.36-1.45-0.36-2.33c0-0.71,0.11-1.36,0.33-1.97c0.22-0.61,0.53-1.14,0.94-1.59s0.91-0.81,1.5-1.07
		c0.59-0.26,1.26-0.39,2-0.39c0.62,0,1.19,0.1,1.71,0.3c0.52,0.2,0.97,0.5,1.35,0.88c0.38,0.39,0.68,0.86,0.89,1.43
		c0.22,0.57,0.33,1.21,0.33,1.94c0,0.3-0.03,0.5-0.1,0.6c-0.07,0.1-0.19,0.15-0.37,0.15h-6.65c0.02,0.61,0.11,1.13,0.26,1.58
		s0.36,0.82,0.63,1.12s0.59,0.52,0.96,0.67c0.37,0.15,0.79,0.22,1.25,0.22c0.43,0,0.81-0.05,1.12-0.15c0.32-0.1,0.59-0.21,0.82-0.32
		c0.23-0.12,0.42-0.22,0.58-0.32c0.16-0.1,0.29-0.15,0.41-0.15c0.16,0,0.28,0.06,0.37,0.18L316.18,32.12z M314.57,27.37
		c0-0.39-0.06-0.74-0.17-1.07s-0.27-0.61-0.48-0.85c-0.21-0.24-0.47-0.43-0.78-0.56c-0.31-0.13-0.66-0.2-1.06-0.2
		c-0.82,0-1.46,0.24-1.93,0.71c-0.47,0.47-0.77,1.13-0.89,1.97H314.57z"/>
	<path class="st1" d="M326.52,18.84v14.73h-1.18c-0.27,0-0.44-0.13-0.51-0.39l-0.17-1.17c-0.43,0.51-0.92,0.92-1.47,1.23
		c-0.55,0.31-1.18,0.46-1.9,0.46c-0.58,0-1.1-0.11-1.57-0.34c-0.47-0.23-0.87-0.56-1.2-0.99c-0.33-0.44-0.59-0.98-0.77-1.62
		s-0.27-1.39-0.27-2.23c0-0.75,0.1-1.45,0.3-2.1c0.2-0.65,0.49-1.2,0.87-1.68c0.38-0.47,0.84-0.84,1.38-1.11s1.15-0.4,1.83-0.4
		c0.61,0,1.13,0.1,1.56,0.3c0.43,0.2,0.81,0.48,1.15,0.85v-5.55H326.52z M324.56,25.88c-0.32-0.42-0.66-0.71-1.03-0.88
		c-0.37-0.17-0.78-0.25-1.24-0.25c-0.89,0-1.58,0.32-2.07,0.96c-0.49,0.64-0.73,1.58-0.73,2.81c0,0.65,0.06,1.2,0.17,1.65
		c0.11,0.46,0.27,0.83,0.48,1.12c0.21,0.29,0.47,0.5,0.77,0.64c0.31,0.14,0.65,0.2,1.04,0.2c0.57,0,1.05-0.13,1.47-0.38
		c0.41-0.25,0.8-0.61,1.16-1.07V25.88z"/>
	<path class="st1" d="M336.66,33.73c-0.82,0-1.45-0.23-1.89-0.69c-0.44-0.46-0.66-1.11-0.66-1.97V25h-1.18
		c-0.11,0-0.21-0.03-0.28-0.1c-0.08-0.07-0.12-0.17-0.12-0.31V23.8l1.65-0.23l0.44-3.02c0.03-0.11,0.08-0.2,0.16-0.26
		c0.08-0.06,0.17-0.09,0.29-0.09h0.99v3.4h2.87V25h-2.87v5.94c0,0.4,0.1,0.7,0.29,0.89c0.2,0.2,0.45,0.29,0.75,0.29
		c0.18,0,0.33-0.02,0.46-0.07c0.13-0.05,0.24-0.1,0.33-0.15c0.09-0.06,0.17-0.11,0.24-0.15s0.13-0.07,0.18-0.07
		c0.07,0,0.12,0.01,0.15,0.04c0.04,0.03,0.08,0.08,0.12,0.14l0.58,0.94c-0.32,0.29-0.7,0.52-1.14,0.68
		C337.59,33.65,337.13,33.73,336.66,33.73z"/>
	<path class="st1" d="M344.59,23.27c0.75,0,1.42,0.12,2.02,0.36c0.6,0.24,1.12,0.59,1.54,1.05c0.42,0.46,0.75,1,0.97,1.65
		c0.23,0.64,0.34,1.36,0.34,2.16c0,0.8-0.11,1.52-0.34,2.17c-0.23,0.65-0.55,1.19-0.97,1.65c-0.42,0.45-0.93,0.8-1.54,1.04
		c-0.6,0.24-1.28,0.36-2.02,0.36c-0.75,0-1.43-0.12-2.03-0.36c-0.6-0.24-1.12-0.59-1.54-1.04s-0.75-1-0.98-1.65
		s-0.34-1.37-0.34-2.17c0-0.8,0.12-1.52,0.34-2.16s0.56-1.19,0.98-1.65c0.43-0.46,0.94-0.81,1.54-1.05
		C343.16,23.39,343.84,23.27,344.59,23.27z M344.59,32.19c0.96,0,1.67-0.32,2.15-0.97c0.47-0.65,0.71-1.55,0.71-2.72
		s-0.24-2.08-0.71-2.73s-1.19-0.97-2.15-0.97c-0.97,0-1.7,0.32-2.17,0.97s-0.71,1.56-0.71,2.73s0.24,2.08,0.71,2.72
		C342.9,31.87,343.62,32.19,344.59,32.19z"/>
	<path class="st1" d="M355.63,24.84c0.57-0.54,1.18-0.94,1.84-1.21s1.39-0.4,2.18-0.4c0.58,0,1.09,0.09,1.54,0.28
		c0.45,0.19,0.82,0.45,1.13,0.79c0.31,0.34,0.54,0.75,0.69,1.22c0.16,0.47,0.23,0.99,0.23,1.57v6.47h-0.87
		c-0.19,0-0.34-0.03-0.44-0.09c-0.1-0.06-0.18-0.18-0.24-0.35l-0.21-0.89c-0.26,0.24-0.52,0.45-0.77,0.63s-0.52,0.34-0.79,0.47
		c-0.28,0.13-0.57,0.23-0.88,0.29s-0.66,0.1-1.04,0.1c-0.4,0-0.77-0.05-1.12-0.16s-0.65-0.28-0.91-0.5
		c-0.26-0.23-0.46-0.51-0.61-0.85c-0.15-0.34-0.22-0.74-0.22-1.19c0-0.4,0.11-0.78,0.33-1.15c0.22-0.37,0.57-0.7,1.06-0.99
		c0.49-0.29,1.13-0.53,1.92-0.72c0.79-0.19,1.76-0.29,2.91-0.32V27.1c0-0.77-0.16-1.34-0.49-1.72s-0.81-0.57-1.44-0.57
		c-0.43,0-0.78,0.05-1.07,0.16c-0.29,0.11-0.54,0.22-0.75,0.35c-0.21,0.13-0.39,0.25-0.55,0.35c-0.16,0.11-0.32,0.16-0.48,0.16
		c-0.13,0-0.25-0.04-0.34-0.11c-0.1-0.07-0.17-0.16-0.23-0.26L355.63,24.84z M361.34,29.07c-0.79,0.03-1.46,0.09-2.02,0.18
		c-0.55,0.1-1,0.22-1.35,0.38c-0.35,0.16-0.6,0.35-0.75,0.56c-0.15,0.22-0.23,0.46-0.23,0.72c0,0.25,0.04,0.47,0.12,0.65
		c0.08,0.18,0.2,0.33,0.34,0.45c0.14,0.12,0.31,0.2,0.5,0.25s0.4,0.08,0.63,0.08c0.3,0,0.57-0.03,0.82-0.09
		c0.25-0.06,0.48-0.15,0.7-0.25c0.22-0.11,0.43-0.24,0.63-0.4c0.2-0.16,0.4-0.34,0.59-0.55V29.07z"/>
	<path class="st1" d="M371.94,25.37c0.33-0.67,0.72-1.19,1.18-1.57c0.46-0.38,1.01-0.57,1.66-0.57c0.22,0,0.43,0.02,0.62,0.08
		c0.2,0.05,0.37,0.12,0.51,0.22L375.78,25c-0.05,0.18-0.16,0.27-0.33,0.27c-0.09,0-0.23-0.02-0.42-0.05s-0.39-0.06-0.6-0.06
		c-0.31,0-0.59,0.04-0.83,0.13c-0.24,0.09-0.45,0.22-0.64,0.4c-0.19,0.18-0.36,0.39-0.5,0.65s-0.28,0.55-0.41,0.87v6.35h-1.95V23.43
		h1.12c0.21,0,0.36,0.04,0.43,0.11c0.08,0.08,0.13,0.21,0.16,0.4L371.94,25.37z"/>
	<path class="st1" d="M384.98,32.12c-0.24,0.28-0.52,0.52-0.83,0.72s-0.65,0.37-1,0.49s-0.72,0.22-1.09,0.28
		c-0.38,0.06-0.75,0.09-1.11,0.09c-0.7,0-1.35-0.12-1.94-0.35c-0.6-0.24-1.11-0.58-1.55-1.04c-0.44-0.46-0.78-1.02-1.02-1.7
		c-0.24-0.68-0.36-1.45-0.36-2.33c0-0.71,0.11-1.36,0.33-1.97c0.22-0.61,0.53-1.14,0.94-1.59s0.91-0.81,1.5-1.07
		c0.59-0.26,1.26-0.39,2-0.39c0.62,0,1.19,0.1,1.71,0.3c0.52,0.2,0.97,0.5,1.35,0.88c0.38,0.39,0.68,0.86,0.89,1.43
		c0.22,0.57,0.33,1.21,0.33,1.94c0,0.3-0.03,0.5-0.1,0.6c-0.07,0.1-0.19,0.15-0.37,0.15h-6.65c0.02,0.61,0.11,1.13,0.26,1.58
		s0.36,0.82,0.63,1.12s0.59,0.52,0.96,0.67c0.37,0.15,0.79,0.22,1.25,0.22c0.43,0,0.81-0.05,1.12-0.15c0.32-0.1,0.59-0.21,0.82-0.32
		c0.23-0.12,0.42-0.22,0.58-0.32c0.16-0.1,0.29-0.15,0.41-0.15c0.16,0,0.28,0.06,0.37,0.18L384.98,32.12z M383.38,27.37
		c0-0.39-0.06-0.74-0.17-1.07s-0.27-0.61-0.48-0.85c-0.21-0.24-0.47-0.43-0.78-0.56c-0.31-0.13-0.66-0.2-1.06-0.2
		c-0.82,0-1.46,0.24-1.93,0.71c-0.47,0.47-0.77,1.13-0.89,1.97H383.38z"/>
	<path class="st1" d="M393.94,25.32c-0.06,0.07-0.12,0.13-0.17,0.17c-0.06,0.04-0.14,0.06-0.24,0.06s-0.22-0.04-0.33-0.12
		c-0.12-0.08-0.26-0.17-0.44-0.27c-0.18-0.1-0.39-0.19-0.64-0.27c-0.25-0.08-0.56-0.12-0.92-0.12c-0.48,0-0.9,0.09-1.27,0.26
		c-0.37,0.17-0.67,0.42-0.91,0.74c-0.24,0.32-0.43,0.71-0.55,1.17c-0.13,0.46-0.19,0.98-0.19,1.55c0,0.59,0.07,1.12,0.2,1.58
		c0.13,0.46,0.32,0.85,0.57,1.17s0.54,0.56,0.9,0.72c0.35,0.16,0.75,0.24,1.18,0.24c0.42,0,0.76-0.05,1.04-0.15
		c0.27-0.1,0.5-0.21,0.68-0.33s0.33-0.23,0.45-0.33c0.12-0.1,0.24-0.15,0.37-0.15c0.16,0,0.28,0.06,0.37,0.18l0.56,0.72
		c-0.23,0.29-0.49,0.53-0.78,0.73c-0.29,0.2-0.6,0.36-0.92,0.49c-0.33,0.13-0.67,0.22-1.02,0.28c-0.36,0.06-0.72,0.09-1.08,0.09
		c-0.63,0-1.22-0.12-1.77-0.35s-1.03-0.57-1.43-1.02s-0.72-0.99-0.95-1.64c-0.23-0.65-0.35-1.39-0.35-2.21
		c0-0.75,0.11-1.45,0.31-2.09c0.21-0.64,0.52-1.19,0.93-1.65s0.91-0.82,1.51-1.09c0.6-0.26,1.28-0.39,2.06-0.39
		c0.72,0,1.36,0.12,1.92,0.35s1.04,0.56,1.48,0.99L393.94,25.32z"/>
	<path class="st1" d="M404.15,32.12c-0.24,0.28-0.52,0.52-0.83,0.72s-0.65,0.37-1,0.49s-0.72,0.22-1.09,0.28
		c-0.38,0.06-0.75,0.09-1.11,0.09c-0.7,0-1.35-0.12-1.94-0.35c-0.6-0.24-1.11-0.58-1.55-1.04c-0.44-0.46-0.78-1.02-1.02-1.7
		c-0.24-0.68-0.36-1.45-0.36-2.33c0-0.71,0.11-1.36,0.33-1.97c0.22-0.61,0.53-1.14,0.94-1.59s0.91-0.81,1.5-1.07
		c0.59-0.26,1.26-0.39,2-0.39c0.62,0,1.19,0.1,1.71,0.3c0.52,0.2,0.97,0.5,1.35,0.88c0.38,0.39,0.68,0.86,0.89,1.43
		c0.22,0.57,0.33,1.21,0.33,1.94c0,0.3-0.03,0.5-0.1,0.6c-0.07,0.1-0.19,0.15-0.37,0.15h-6.65c0.02,0.61,0.11,1.13,0.26,1.58
		s0.36,0.82,0.63,1.12s0.59,0.52,0.96,0.67c0.37,0.15,0.79,0.22,1.25,0.22c0.43,0,0.81-0.05,1.12-0.15c0.32-0.1,0.59-0.21,0.82-0.32
		c0.23-0.12,0.42-0.22,0.58-0.32c0.16-0.1,0.29-0.15,0.41-0.15c0.16,0,0.28,0.06,0.37,0.18L404.15,32.12z M402.54,27.37
		c0-0.39-0.06-0.74-0.17-1.07s-0.27-0.61-0.48-0.85c-0.21-0.24-0.47-0.43-0.78-0.56c-0.31-0.13-0.66-0.2-1.06-0.2
		c-0.82,0-1.46,0.24-1.93,0.71c-0.47,0.47-0.77,1.13-0.89,1.97H402.54z"/>
	<path class="st1" d="M407.82,24.83c0.22-0.23,0.45-0.45,0.69-0.64s0.49-0.36,0.76-0.49s0.56-0.24,0.87-0.32s0.64-0.11,0.99-0.11
		c0.56,0,1.05,0.09,1.47,0.28c0.42,0.19,0.78,0.45,1.06,0.78s0.5,0.74,0.65,1.21c0.15,0.47,0.22,1,0.22,1.57v6.46h-1.96v-6.46
		c0-0.73-0.17-1.29-0.5-1.69c-0.33-0.4-0.84-0.6-1.53-0.6c-0.5,0-0.97,0.12-1.4,0.35s-0.84,0.56-1.21,0.96v7.44h-1.95V23.43h1.17
		c0.27,0,0.44,0.13,0.51,0.39L407.82,24.83z"/>
	<path class="st1" d="M419.82,33.73c-0.82,0-1.45-0.23-1.89-0.69c-0.44-0.46-0.66-1.11-0.66-1.97V25h-1.18
		c-0.11,0-0.21-0.03-0.28-0.1c-0.08-0.07-0.12-0.17-0.12-0.31V23.8l1.65-0.23l0.44-3.02c0.03-0.11,0.08-0.2,0.16-0.26
		c0.08-0.06,0.17-0.09,0.29-0.09h0.99v3.4h2.87V25h-2.87v5.94c0,0.4,0.1,0.7,0.29,0.89c0.2,0.2,0.45,0.29,0.75,0.29
		c0.18,0,0.33-0.02,0.46-0.07c0.13-0.05,0.24-0.1,0.33-0.15c0.09-0.06,0.17-0.11,0.24-0.15s0.13-0.07,0.18-0.07
		c0.07,0,0.12,0.01,0.15,0.04c0.04,0.03,0.08,0.08,0.12,0.14l0.58,0.94c-0.32,0.29-0.7,0.52-1.14,0.68
		C420.75,33.65,420.29,33.73,419.82,33.73z"/>
	<path class="st1" d="M434.09,25.17c-0.05,0.09-0.11,0.15-0.17,0.18c-0.06,0.04-0.14,0.05-0.23,0.05c-0.11,0-0.22-0.04-0.35-0.11
		s-0.29-0.15-0.47-0.24c-0.18-0.09-0.4-0.17-0.64-0.24c-0.25-0.07-0.54-0.11-0.88-0.11c-0.28,0-0.53,0.03-0.76,0.1
		s-0.42,0.17-0.58,0.29c-0.16,0.12-0.28,0.27-0.37,0.44c-0.09,0.17-0.13,0.35-0.13,0.54c0,0.25,0.08,0.46,0.22,0.63
		c0.15,0.17,0.35,0.31,0.59,0.43c0.24,0.12,0.52,0.23,0.83,0.32c0.31,0.1,0.63,0.2,0.95,0.3c0.32,0.11,0.64,0.23,0.95,0.36
		c0.31,0.14,0.59,0.31,0.83,0.51c0.24,0.2,0.44,0.45,0.59,0.73c0.15,0.29,0.22,0.64,0.22,1.05c0,0.47-0.08,0.91-0.25,1.31
		c-0.17,0.4-0.42,0.75-0.75,1.04c-0.33,0.29-0.74,0.52-1.22,0.69c-0.49,0.17-1.04,0.25-1.67,0.25c-0.7,0-1.34-0.12-1.94-0.35
		c-0.59-0.23-1.09-0.53-1.49-0.89l0.46-0.75c0.05-0.09,0.12-0.16,0.2-0.21s0.19-0.08,0.32-0.08c0.13,0,0.26,0.05,0.39,0.14
		s0.29,0.19,0.48,0.3c0.19,0.11,0.41,0.21,0.68,0.3c0.27,0.09,0.6,0.13,1,0.13c0.33,0,0.62-0.04,0.87-0.12s0.45-0.2,0.61-0.34
		s0.29-0.31,0.36-0.49c0.08-0.19,0.12-0.38,0.12-0.59c0-0.27-0.08-0.49-0.22-0.66s-0.35-0.33-0.59-0.45
		c-0.24-0.13-0.52-0.24-0.83-0.33c-0.31-0.09-0.63-0.19-0.96-0.3c-0.33-0.11-0.65-0.23-0.96-0.37c-0.31-0.14-0.59-0.32-0.83-0.53
		c-0.24-0.21-0.44-0.47-0.59-0.78s-0.22-0.68-0.22-1.12c0-0.39,0.08-0.77,0.24-1.13s0.4-0.68,0.71-0.95
		c0.31-0.27,0.69-0.49,1.15-0.65c0.46-0.16,0.98-0.24,1.56-0.24c0.67,0,1.28,0.11,1.82,0.32s1.01,0.51,1.39,0.88L434.09,25.17z"/>
	<path class="st1" d="M444.82,23.43v10.14h-1.17c-0.27,0-0.44-0.13-0.52-0.39l-0.14-1.02c-0.22,0.23-0.45,0.45-0.69,0.64
		s-0.5,0.36-0.77,0.49s-0.56,0.24-0.87,0.32c-0.31,0.08-0.64,0.11-0.99,0.11c-0.56,0-1.05-0.09-1.47-0.28
		c-0.42-0.19-0.78-0.45-1.06-0.78s-0.5-0.74-0.65-1.21c-0.15-0.47-0.22-0.99-0.22-1.57v-6.46h1.96v6.46c0,0.73,0.17,1.29,0.5,1.69
		c0.33,0.4,0.84,0.6,1.53,0.6c0.5,0,0.96-0.12,1.4-0.35s0.84-0.56,1.22-0.97v-7.43H444.82z"/>
	<path class="st1" d="M449,25.37c0.33-0.67,0.72-1.19,1.18-1.57c0.46-0.38,1.01-0.57,1.66-0.57c0.22,0,0.43,0.02,0.62,0.08
		c0.2,0.05,0.37,0.12,0.51,0.22L452.84,25c-0.05,0.18-0.16,0.27-0.33,0.27c-0.09,0-0.23-0.02-0.42-0.05s-0.39-0.06-0.6-0.06
		c-0.31,0-0.59,0.04-0.83,0.13c-0.24,0.09-0.45,0.22-0.64,0.4c-0.19,0.18-0.36,0.39-0.5,0.65s-0.28,0.55-0.41,0.87v6.35h-1.95V23.43
		h1.12c0.21,0,0.36,0.04,0.43,0.11c0.08,0.08,0.13,0.21,0.16,0.4L449,25.37z"/>
	<path class="st1" d="M462.89,23.43l-4.11,10.14h-1.76l-4.11-10.14h1.61c0.15,0,0.28,0.04,0.38,0.11s0.17,0.17,0.2,0.28l2.42,6.23
		c0.09,0.26,0.16,0.52,0.22,0.77c0.06,0.26,0.12,0.51,0.17,0.76c0.05-0.25,0.11-0.51,0.18-0.76s0.15-0.51,0.24-0.78l2.46-6.23
		c0.04-0.11,0.11-0.21,0.21-0.28s0.22-0.11,0.36-0.11H462.89z"/>
	<path class="st1" d="M472.09,32.12c-0.24,0.28-0.52,0.52-0.83,0.72s-0.65,0.37-1,0.49s-0.72,0.22-1.09,0.28
		c-0.38,0.06-0.75,0.09-1.11,0.09c-0.7,0-1.35-0.12-1.94-0.35c-0.6-0.24-1.11-0.58-1.55-1.04c-0.44-0.46-0.78-1.02-1.02-1.7
		c-0.24-0.68-0.36-1.45-0.36-2.33c0-0.71,0.11-1.36,0.33-1.97c0.22-0.61,0.53-1.14,0.94-1.59s0.91-0.81,1.5-1.07
		c0.59-0.26,1.26-0.39,2-0.39c0.62,0,1.19,0.1,1.71,0.3c0.52,0.2,0.97,0.5,1.35,0.88c0.38,0.39,0.68,0.86,0.89,1.43
		c0.22,0.57,0.33,1.21,0.33,1.94c0,0.3-0.03,0.5-0.1,0.6c-0.07,0.1-0.19,0.15-0.37,0.15h-6.65c0.02,0.61,0.11,1.13,0.26,1.58
		s0.36,0.82,0.63,1.12s0.59,0.52,0.96,0.67c0.37,0.15,0.79,0.22,1.25,0.22c0.43,0,0.81-0.05,1.12-0.15c0.32-0.1,0.59-0.21,0.82-0.32
		c0.23-0.12,0.42-0.22,0.58-0.32c0.16-0.1,0.29-0.15,0.41-0.15c0.16,0,0.28,0.06,0.37,0.18L472.09,32.12z M470.48,27.37
		c0-0.39-0.06-0.74-0.17-1.07s-0.27-0.61-0.48-0.85c-0.21-0.24-0.47-0.43-0.78-0.56c-0.31-0.13-0.66-0.2-1.06-0.2
		c-0.82,0-1.46,0.24-1.93,0.71c-0.47,0.47-0.77,1.13-0.89,1.97H470.48z"/>
	<path class="st1" d="M482.54,23.43l-5.63,13.08c-0.06,0.15-0.14,0.26-0.24,0.34c-0.1,0.08-0.25,0.12-0.44,0.12h-1.45l1.86-4.04
		l-4.16-9.5h1.7c0.17,0,0.3,0.04,0.39,0.12c0.09,0.08,0.16,0.17,0.2,0.27l2.58,6.09c0.05,0.15,0.11,0.31,0.16,0.46
		s0.09,0.31,0.12,0.46c0.05-0.16,0.1-0.32,0.15-0.47c0.05-0.16,0.11-0.31,0.17-0.46l2.49-6.08c0.05-0.11,0.12-0.21,0.22-0.28
		s0.21-0.11,0.34-0.11H482.54z"/>
</g>
<path class="st1" d="M501.87,23.33l-3.25,10.24h-1.98c-0.23,0-0.38-0.15-0.47-0.44l-1.84-5.92c-0.06-0.2-0.11-0.4-0.16-0.59
	c-0.05-0.2-0.09-0.39-0.12-0.59c-0.04,0.2-0.08,0.4-0.13,0.6c-0.05,0.2-0.1,0.4-0.16,0.6l-1.87,5.9c-0.08,0.29-0.26,0.44-0.53,0.44
	h-1.9l-3.24-10.24h1.97c0.18,0,0.33,0.04,0.46,0.13c0.13,0.09,0.21,0.2,0.25,0.33l1.47,5.47c0.07,0.3,0.14,0.59,0.19,0.88
	c0.06,0.29,0.1,0.57,0.14,0.86c0.07-0.29,0.15-0.57,0.23-0.86c0.08-0.29,0.17-0.58,0.26-0.88l1.7-5.49
	c0.04-0.13,0.12-0.24,0.23-0.33c0.12-0.09,0.26-0.13,0.42-0.13h1.09c0.17,0,0.32,0.04,0.44,0.13c0.12,0.09,0.2,0.2,0.24,0.33
	l1.65,5.49c0.09,0.3,0.17,0.59,0.24,0.88c0.08,0.29,0.15,0.58,0.22,0.86c0.09-0.57,0.21-1.15,0.37-1.75l1.51-5.47
	c0.05-0.13,0.13-0.24,0.25-0.33c0.12-0.09,0.26-0.13,0.43-0.13H501.87z M504.59,28.76c0.04,0.53,0.13,0.98,0.28,1.36
	c0.15,0.38,0.34,0.7,0.58,0.95c0.24,0.25,0.52,0.44,0.85,0.56c0.33,0.12,0.69,0.18,1.09,0.18c0.4,0,0.74-0.05,1.03-0.14
	c0.29-0.09,0.54-0.2,0.76-0.31c0.22-0.11,0.41-0.22,0.57-0.31c0.16-0.09,0.32-0.14,0.47-0.14c0.21,0,0.36,0.08,0.46,0.23l0.71,0.9
	c-0.27,0.32-0.58,0.59-0.92,0.8c-0.34,0.22-0.69,0.39-1.06,0.52c-0.37,0.13-0.75,0.22-1.13,0.27c-0.38,0.05-0.75,0.08-1.11,0.08
	c-0.71,0-1.37-0.12-1.99-0.35c-0.61-0.24-1.14-0.59-1.6-1.05c-0.45-0.46-0.81-1.03-1.07-1.72c-0.26-0.68-0.39-1.47-0.39-2.37
	c0-0.7,0.11-1.36,0.34-1.97c0.23-0.62,0.55-1.15,0.97-1.61c0.42-0.46,0.94-0.82,1.55-1.08c0.61-0.27,1.3-0.4,2.06-0.4
	c0.65,0,1.24,0.1,1.79,0.31c0.55,0.21,1.01,0.51,1.41,0.9c0.39,0.4,0.7,0.88,0.92,1.46c0.22,0.58,0.33,1.23,0.33,1.97
	c0,0.37-0.04,0.62-0.12,0.75c-0.08,0.13-0.23,0.19-0.46,0.19H504.59z M509.29,27.27c0-0.32-0.04-0.62-0.13-0.9
	c-0.09-0.28-0.22-0.53-0.4-0.74c-0.18-0.21-0.41-0.38-0.68-0.5c-0.28-0.12-0.6-0.18-0.96-0.18c-0.71,0-1.27,0.2-1.68,0.61
	c-0.41,0.41-0.67,0.98-0.78,1.73H509.29z M515.28,25.1c0.32-0.61,0.7-1.09,1.14-1.44c0.44-0.35,0.96-0.52,1.56-0.52
	c0.47,0,0.85,0.1,1.14,0.31l-0.16,1.85c-0.03,0.12-0.08,0.2-0.14,0.25c-0.06,0.05-0.15,0.07-0.25,0.07c-0.1,0-0.25-0.02-0.44-0.05
	c-0.2-0.03-0.39-0.05-0.57-0.05c-0.27,0-0.52,0.04-0.73,0.12c-0.21,0.08-0.4,0.19-0.57,0.34c-0.17,0.15-0.32,0.33-0.45,0.54
	c-0.13,0.21-0.25,0.46-0.36,0.73v6.31h-2.47V23.33h1.45c0.25,0,0.43,0.04,0.53,0.13c0.1,0.09,0.17,0.25,0.2,0.48L515.28,25.1z
	 M521.61,28.76c0.04,0.53,0.13,0.98,0.28,1.36c0.15,0.38,0.34,0.7,0.58,0.95c0.24,0.25,0.52,0.44,0.85,0.56
	c0.33,0.12,0.69,0.18,1.09,0.18s0.74-0.05,1.03-0.14c0.29-0.09,0.54-0.2,0.76-0.31c0.22-0.11,0.41-0.22,0.57-0.31
	c0.16-0.09,0.32-0.14,0.47-0.14c0.21,0,0.36,0.08,0.46,0.23l0.71,0.9c-0.27,0.32-0.58,0.59-0.92,0.8c-0.34,0.22-0.69,0.39-1.06,0.52
	c-0.37,0.13-0.75,0.22-1.13,0.27c-0.38,0.05-0.75,0.08-1.11,0.08c-0.71,0-1.37-0.12-1.99-0.35c-0.61-0.24-1.14-0.59-1.6-1.05
	c-0.45-0.46-0.81-1.03-1.07-1.72c-0.26-0.68-0.39-1.47-0.39-2.37c0-0.7,0.11-1.36,0.34-1.97c0.23-0.62,0.55-1.15,0.97-1.61
	c0.42-0.46,0.94-0.82,1.55-1.08c0.61-0.27,1.3-0.4,2.06-0.4c0.65,0,1.24,0.1,1.79,0.31c0.55,0.21,1.01,0.51,1.41,0.9
	c0.39,0.4,0.7,0.88,0.92,1.46c0.22,0.58,0.33,1.23,0.33,1.97c0,0.37-0.04,0.62-0.12,0.75c-0.08,0.13-0.23,0.19-0.46,0.19H521.61z
	 M526.31,27.27c0-0.32-0.04-0.62-0.13-0.9c-0.09-0.28-0.22-0.53-0.4-0.74c-0.18-0.21-0.41-0.38-0.68-0.5
	c-0.28-0.12-0.6-0.18-0.96-0.18c-0.71,0-1.27,0.2-1.68,0.61c-0.41,0.41-0.67,0.98-0.78,1.73H526.31z M540.67,25.32
	c-0.07,0.11-0.14,0.18-0.21,0.22c-0.07,0.04-0.17,0.06-0.28,0.06c-0.12,0-0.25-0.03-0.38-0.1c-0.14-0.07-0.29-0.14-0.47-0.22
	c-0.18-0.08-0.38-0.16-0.61-0.22c-0.23-0.07-0.5-0.1-0.81-0.1c-0.49,0-0.87,0.1-1.14,0.31c-0.28,0.21-0.41,0.48-0.41,0.81
	c0,0.22,0.07,0.4,0.21,0.55c0.14,0.15,0.33,0.28,0.57,0.39c0.24,0.11,0.5,0.21,0.8,0.3s0.6,0.19,0.91,0.29
	c0.31,0.11,0.61,0.23,0.91,0.36c0.3,0.14,0.57,0.31,0.8,0.52c0.24,0.21,0.43,0.46,0.57,0.75c0.14,0.29,0.21,0.65,0.21,1.06
	c0,0.49-0.09,0.95-0.26,1.36c-0.18,0.42-0.44,0.78-0.78,1.08c-0.35,0.3-0.77,0.54-1.28,0.71c-0.51,0.17-1.1,0.25-1.76,0.25
	c-0.35,0-0.7-0.03-1.03-0.09c-0.34-0.06-0.66-0.15-0.97-0.26c-0.31-0.11-0.6-0.25-0.86-0.4c-0.26-0.15-0.49-0.32-0.69-0.5l0.57-0.94
	c0.07-0.11,0.16-0.2,0.26-0.26c0.1-0.06,0.23-0.09,0.38-0.09c0.15,0,0.3,0.04,0.43,0.13c0.14,0.09,0.29,0.18,0.47,0.28
	c0.18,0.1,0.39,0.19,0.63,0.28c0.24,0.09,0.55,0.13,0.92,0.13c0.29,0,0.54-0.03,0.75-0.1c0.21-0.07,0.38-0.16,0.52-0.27
	c0.14-0.11,0.24-0.24,0.3-0.39c0.06-0.15,0.09-0.3,0.09-0.46c0-0.24-0.07-0.44-0.21-0.59c-0.14-0.15-0.33-0.29-0.57-0.4
	c-0.24-0.11-0.51-0.21-0.81-0.3c-0.3-0.09-0.61-0.19-0.93-0.29c-0.32-0.11-0.63-0.23-0.93-0.37c-0.3-0.14-0.57-0.32-0.81-0.54
	c-0.24-0.22-0.43-0.49-0.57-0.81c-0.14-0.32-0.21-0.71-0.21-1.16c0-0.42,0.08-0.82,0.25-1.2c0.17-0.38,0.41-0.71,0.73-0.99
	c0.32-0.28,0.73-0.51,1.21-0.68c0.48-0.17,1.04-0.25,1.67-0.25c0.71,0,1.35,0.12,1.93,0.35c0.58,0.23,1.06,0.54,1.45,0.92
	L540.67,25.32z M542.55,24.75c1.18-1.08,2.6-1.62,4.25-1.62c0.6,0,1.13,0.1,1.61,0.29c0.47,0.2,0.87,0.47,1.2,0.82
	c0.33,0.35,0.57,0.77,0.74,1.25c0.17,0.49,0.25,1.02,0.25,1.6v6.47h-1.12c-0.23,0-0.41-0.03-0.54-0.1c-0.13-0.07-0.23-0.21-0.3-0.42
	l-0.22-0.74c-0.26,0.23-0.51,0.44-0.76,0.61c-0.25,0.18-0.5,0.32-0.77,0.44c-0.27,0.12-0.55,0.21-0.85,0.27
	c-0.3,0.06-0.64,0.09-1,0.09c-0.43,0-0.83-0.06-1.2-0.17c-0.37-0.12-0.68-0.29-0.95-0.52c-0.27-0.23-0.47-0.52-0.62-0.87
	c-0.15-0.35-0.22-0.75-0.22-1.21c0-0.26,0.04-0.52,0.13-0.77c0.09-0.26,0.23-0.5,0.42-0.73c0.2-0.23,0.45-0.45,0.76-0.66
	c0.31-0.21,0.7-0.39,1.15-0.54c0.46-0.15,0.99-0.28,1.59-0.37c0.61-0.1,1.3-0.15,2.08-0.17v-0.6c0-0.69-0.15-1.19-0.44-1.52
	c-0.29-0.33-0.72-0.49-1.27-0.49c-0.4,0-0.73,0.05-0.99,0.14c-0.26,0.09-0.49,0.2-0.69,0.31c-0.2,0.12-0.38,0.22-0.54,0.31
	c-0.16,0.09-0.34,0.14-0.54,0.14c-0.17,0-0.32-0.04-0.44-0.13c-0.12-0.09-0.22-0.19-0.29-0.31L542.55,24.75z M548.2,29.2
	c-0.71,0.03-1.31,0.09-1.8,0.18c-0.49,0.09-0.88,0.2-1.17,0.34c-0.29,0.14-0.5,0.3-0.63,0.49c-0.13,0.19-0.19,0.39-0.19,0.61
	c0,0.43,0.13,0.74,0.38,0.93c0.26,0.19,0.59,0.28,1,0.28c0.51,0,0.94-0.09,1.31-0.27c0.37-0.18,0.73-0.46,1.08-0.83V29.2z
	 M562.71,33.57h-2.47v-8.39h-4.75v5.55c0,0.32,0.08,0.57,0.23,0.75c0.16,0.18,0.37,0.27,0.64,0.27c0.15,0,0.28-0.02,0.38-0.05
	c0.1-0.04,0.19-0.07,0.27-0.11c0.08-0.04,0.14-0.08,0.2-0.11c0.06-0.04,0.12-0.05,0.18-0.05c0.07,0,0.13,0.02,0.18,0.05
	c0.05,0.04,0.1,0.09,0.15,0.16l0.74,1.2c-0.36,0.3-0.77,0.53-1.24,0.68c-0.47,0.15-0.95,0.23-1.45,0.23c-0.89,0-1.58-0.25-2.05-0.75
	c-0.48-0.5-0.71-1.2-0.71-2.08v-5.72h-1.05c-0.13,0-0.25-0.04-0.34-0.13c-0.09-0.09-0.14-0.22-0.14-0.39v-0.98l1.65-0.28l0.52-2.78
	c0.03-0.13,0.1-0.24,0.19-0.31c0.09-0.07,0.21-0.11,0.36-0.11h1.28v3.22h7.22V33.57z M563.14,20.3c0,0.21-0.04,0.41-0.13,0.6
	c-0.09,0.19-0.2,0.35-0.34,0.49c-0.14,0.14-0.31,0.25-0.51,0.33c-0.2,0.08-0.4,0.12-0.62,0.12c-0.21,0-0.41-0.04-0.6-0.12
	c-0.19-0.08-0.35-0.19-0.49-0.33c-0.14-0.14-0.25-0.3-0.33-0.49c-0.08-0.19-0.12-0.39-0.12-0.6c0-0.22,0.04-0.42,0.12-0.61
	c0.08-0.19,0.19-0.36,0.33-0.5c0.14-0.14,0.3-0.26,0.49-0.34c0.19-0.08,0.39-0.12,0.6-0.12c0.22,0,0.43,0.04,0.62,0.12
	c0.2,0.08,0.37,0.2,0.51,0.34c0.14,0.14,0.26,0.31,0.34,0.5C563.1,19.88,563.14,20.08,563.14,20.3z M571.07,25.32
	c-0.07,0.11-0.14,0.18-0.21,0.22c-0.07,0.04-0.17,0.06-0.28,0.06c-0.12,0-0.25-0.03-0.38-0.1c-0.14-0.07-0.29-0.14-0.47-0.22
	c-0.18-0.08-0.38-0.16-0.61-0.22c-0.23-0.07-0.5-0.1-0.81-0.1c-0.49,0-0.87,0.1-1.14,0.31c-0.28,0.21-0.41,0.48-0.41,0.81
	c0,0.22,0.07,0.4,0.21,0.55c0.14,0.15,0.33,0.28,0.57,0.39c0.24,0.11,0.5,0.21,0.8,0.3s0.6,0.19,0.91,0.29
	c0.31,0.11,0.61,0.23,0.91,0.36c0.3,0.14,0.57,0.31,0.8,0.52c0.24,0.21,0.43,0.46,0.57,0.75c0.14,0.29,0.21,0.65,0.21,1.06
	c0,0.49-0.09,0.95-0.26,1.36c-0.18,0.42-0.44,0.78-0.78,1.08c-0.35,0.3-0.77,0.54-1.28,0.71c-0.51,0.17-1.1,0.25-1.76,0.25
	c-0.35,0-0.7-0.03-1.03-0.09c-0.34-0.06-0.66-0.15-0.97-0.26c-0.31-0.11-0.6-0.25-0.86-0.4c-0.26-0.15-0.49-0.32-0.69-0.5l0.57-0.94
	c0.07-0.11,0.16-0.2,0.26-0.26c0.1-0.06,0.23-0.09,0.38-0.09c0.15,0,0.3,0.04,0.43,0.13c0.14,0.09,0.29,0.18,0.47,0.28
	c0.18,0.1,0.39,0.19,0.63,0.28c0.24,0.09,0.55,0.13,0.92,0.13c0.29,0,0.54-0.03,0.75-0.1c0.21-0.07,0.38-0.16,0.52-0.27
	c0.14-0.11,0.24-0.24,0.3-0.39c0.06-0.15,0.09-0.3,0.09-0.46c0-0.24-0.07-0.44-0.21-0.59c-0.14-0.15-0.33-0.29-0.57-0.4
	c-0.24-0.11-0.51-0.21-0.81-0.3c-0.3-0.09-0.61-0.19-0.93-0.29c-0.32-0.11-0.63-0.23-0.93-0.37c-0.3-0.14-0.57-0.32-0.81-0.54
	c-0.24-0.22-0.43-0.49-0.57-0.81c-0.14-0.32-0.21-0.71-0.21-1.16c0-0.42,0.08-0.82,0.25-1.2c0.17-0.38,0.41-0.71,0.73-0.99
	c0.32-0.28,0.73-0.51,1.21-0.68c0.48-0.17,1.04-0.25,1.67-0.25c0.71,0,1.35,0.12,1.93,0.35c0.58,0.23,1.06,0.54,1.45,0.92
	L571.07,25.32z M573.91,33.57v-8.38l-0.89-0.14c-0.19-0.04-0.35-0.11-0.46-0.2c-0.12-0.1-0.17-0.23-0.17-0.41v-1.01h1.53v-0.33
	c0-0.63,0.1-1.21,0.31-1.74c0.21-0.54,0.52-1,0.94-1.39c0.42-0.39,0.95-0.7,1.59-0.92c0.64-0.22,1.4-0.33,2.27-0.33
	c0.28,0,0.56,0.01,0.85,0.04c0.29,0.03,0.54,0.08,0.75,0.14l-0.08,1.28c-0.01,0.15-0.1,0.24-0.25,0.27
	c-0.15,0.03-0.34,0.04-0.57,0.04c-0.65,0-1.19,0.06-1.62,0.17c-0.44,0.11-0.79,0.28-1.06,0.5c-0.27,0.22-0.46,0.5-0.58,0.84
	c-0.12,0.34-0.17,0.73-0.17,1.17v0.25h6.35v10.15h-2.47v-8.39h-3.8v8.39H573.91z M586.66,28.76c0.04,0.53,0.13,0.98,0.28,1.36
	c0.15,0.38,0.34,0.7,0.58,0.95c0.24,0.25,0.52,0.44,0.85,0.56c0.33,0.12,0.69,0.18,1.09,0.18c0.4,0,0.74-0.05,1.03-0.14
	c0.29-0.09,0.54-0.2,0.76-0.31c0.22-0.11,0.41-0.22,0.57-0.31c0.16-0.09,0.32-0.14,0.47-0.14c0.21,0,0.36,0.08,0.46,0.23l0.71,0.9
	c-0.27,0.32-0.58,0.59-0.92,0.8c-0.34,0.22-0.69,0.39-1.06,0.52c-0.37,0.13-0.75,0.22-1.13,0.27c-0.38,0.05-0.75,0.08-1.11,0.08
	c-0.71,0-1.37-0.12-1.99-0.35c-0.61-0.24-1.14-0.59-1.6-1.05c-0.45-0.46-0.81-1.03-1.07-1.72c-0.26-0.68-0.39-1.47-0.39-2.37
	c0-0.7,0.11-1.36,0.34-1.97c0.23-0.62,0.55-1.15,0.97-1.61c0.42-0.46,0.94-0.82,1.55-1.08c0.61-0.27,1.3-0.4,2.06-0.4
	c0.65,0,1.24,0.1,1.79,0.31c0.55,0.21,1.01,0.51,1.41,0.9c0.39,0.4,0.7,0.88,0.92,1.46c0.22,0.58,0.33,1.23,0.33,1.97
	c0,0.37-0.04,0.62-0.12,0.75c-0.08,0.13-0.23,0.19-0.46,0.19H586.66z M591.36,27.27c0-0.32-0.04-0.62-0.13-0.9
	c-0.09-0.28-0.22-0.53-0.4-0.74c-0.18-0.21-0.41-0.38-0.68-0.5c-0.28-0.12-0.6-0.18-0.96-0.18c-0.71,0-1.27,0.2-1.68,0.61
	c-0.41,0.41-0.67,0.98-0.78,1.73H591.36z M603.91,18.74v14.83h-1.51c-0.33,0-0.53-0.15-0.62-0.45l-0.21-0.99
	c-0.41,0.47-0.89,0.86-1.42,1.15c-0.54,0.29-1.16,0.44-1.87,0.44c-0.56,0-1.07-0.12-1.54-0.35c-0.47-0.23-0.87-0.57-1.2-1.01
	c-0.34-0.44-0.6-0.99-0.78-1.64c-0.18-0.65-0.27-1.4-0.27-2.24c0-0.76,0.1-1.46,0.31-2.12c0.21-0.65,0.5-1.22,0.89-1.7
	c0.39-0.48,0.85-0.85,1.39-1.12c0.54-0.27,1.14-0.4,1.82-0.4c0.57,0,1.06,0.09,1.47,0.27c0.41,0.18,0.77,0.42,1.09,0.73v-5.4H603.91
	z M601.45,25.94c-0.28-0.34-0.58-0.58-0.91-0.72c-0.33-0.14-0.68-0.21-1.06-0.21c-0.37,0-0.71,0.07-1.01,0.21
	c-0.3,0.14-0.56,0.35-0.77,0.63c-0.21,0.28-0.38,0.64-0.49,1.08c-0.11,0.44-0.17,0.95-0.17,1.54c0,0.6,0.05,1.11,0.14,1.52
	c0.1,0.42,0.23,0.76,0.41,1.02c0.18,0.26,0.4,0.45,0.66,0.57c0.26,0.12,0.55,0.17,0.87,0.17c0.51,0,0.95-0.11,1.31-0.32
	c0.36-0.21,0.7-0.52,1.02-0.91V25.94z M605.9,36.01c-0.12-0.1-0.18-0.22-0.18-0.37c0-0.05,0.02-0.11,0.05-0.18
	c0.04-0.07,0.08-0.13,0.13-0.18c0.07-0.08,0.16-0.18,0.27-0.29c0.11-0.12,0.21-0.25,0.32-0.4c0.11-0.15,0.2-0.31,0.29-0.49
	c0.09-0.18,0.16-0.36,0.2-0.56c-0.21,0-0.41-0.04-0.58-0.11c-0.17-0.08-0.32-0.18-0.44-0.31c-0.12-0.13-0.22-0.29-0.29-0.47
	c-0.07-0.18-0.1-0.38-0.1-0.59c0-0.19,0.03-0.36,0.1-0.52c0.07-0.16,0.17-0.31,0.29-0.43c0.13-0.12,0.28-0.22,0.46-0.29
	c0.18-0.07,0.38-0.1,0.59-0.1c0.25,0,0.47,0.04,0.66,0.13c0.19,0.09,0.35,0.21,0.47,0.37c0.12,0.16,0.22,0.34,0.28,0.54
	c0.06,0.2,0.09,0.42,0.09,0.64c0,0.32-0.05,0.66-0.14,1.01c-0.1,0.35-0.24,0.71-0.42,1.06c-0.19,0.35-0.42,0.7-0.69,1.03
	c-0.28,0.33-0.59,0.64-0.94,0.92L605.9,36.01z M623.42,23.33l-4.06,10.24h-2.24l-4.06-10.24h2.04c0.19,0,0.34,0.04,0.46,0.13
	c0.12,0.09,0.2,0.2,0.24,0.33l1.98,5.47c0.11,0.32,0.2,0.63,0.28,0.94c0.08,0.31,0.15,0.61,0.21,0.92c0.07-0.31,0.14-0.61,0.22-0.92
	c0.08-0.31,0.18-0.62,0.29-0.94l2.02-5.47c0.05-0.13,0.13-0.24,0.25-0.33c0.12-0.09,0.26-0.13,0.43-0.13H623.42z M625.9,28.76
	c0.04,0.53,0.13,0.98,0.28,1.36c0.15,0.38,0.34,0.7,0.58,0.95c0.24,0.25,0.52,0.44,0.85,0.56c0.33,0.12,0.69,0.18,1.09,0.18
	s0.74-0.05,1.03-0.14c0.29-0.09,0.54-0.2,0.76-0.31c0.22-0.11,0.41-0.22,0.57-0.31c0.16-0.09,0.32-0.14,0.47-0.14
	c0.21,0,0.36,0.08,0.46,0.23l0.71,0.9c-0.27,0.32-0.58,0.59-0.92,0.8c-0.34,0.22-0.69,0.39-1.06,0.52
	c-0.37,0.13-0.75,0.22-1.13,0.27c-0.38,0.05-0.75,0.08-1.11,0.08c-0.71,0-1.37-0.12-1.99-0.35c-0.61-0.24-1.14-0.59-1.6-1.05
	c-0.45-0.46-0.81-1.03-1.07-1.72c-0.26-0.68-0.39-1.47-0.39-2.37c0-0.7,0.11-1.36,0.34-1.97c0.23-0.62,0.55-1.15,0.97-1.61
	c0.42-0.46,0.94-0.82,1.55-1.08c0.61-0.27,1.3-0.4,2.06-0.4c0.65,0,1.24,0.1,1.79,0.31c0.55,0.21,1.01,0.51,1.41,0.9
	c0.39,0.4,0.7,0.88,0.92,1.46c0.22,0.58,0.33,1.23,0.33,1.97c0,0.37-0.04,0.62-0.12,0.75c-0.08,0.13-0.23,0.19-0.46,0.19H625.9z
	 M630.6,27.27c0-0.32-0.04-0.62-0.13-0.9c-0.09-0.28-0.22-0.53-0.4-0.74c-0.18-0.21-0.41-0.38-0.68-0.5
	c-0.28-0.12-0.6-0.18-0.96-0.18c-0.71,0-1.27,0.2-1.68,0.61c-0.41,0.41-0.67,0.98-0.78,1.73H630.6z M636.59,25.1
	c0.32-0.61,0.7-1.09,1.14-1.44c0.44-0.35,0.96-0.52,1.56-0.52c0.47,0,0.85,0.1,1.14,0.31l-0.16,1.85c-0.03,0.12-0.08,0.2-0.14,0.25
	c-0.06,0.05-0.15,0.07-0.25,0.07c-0.1,0-0.25-0.02-0.44-0.05c-0.2-0.03-0.39-0.05-0.57-0.05c-0.27,0-0.52,0.04-0.73,0.12
	c-0.21,0.08-0.4,0.19-0.57,0.34c-0.17,0.15-0.32,0.33-0.45,0.54c-0.13,0.21-0.25,0.46-0.36,0.73v6.31h-2.47V23.33h1.45
	c0.25,0,0.43,0.04,0.53,0.13c0.1,0.09,0.17,0.25,0.2,0.48L636.59,25.1z M650.61,23.33l-5.58,13.06c-0.07,0.17-0.17,0.3-0.28,0.39
	c-0.12,0.09-0.29,0.13-0.53,0.13h-1.84l1.92-4.11l-4.14-9.47h2.17c0.19,0,0.34,0.05,0.45,0.14c0.11,0.09,0.19,0.2,0.24,0.32
	l2.18,5.31c0.07,0.18,0.13,0.36,0.18,0.54c0.05,0.18,0.1,0.36,0.14,0.55c0.06-0.19,0.12-0.37,0.18-0.55
	c0.06-0.18,0.13-0.36,0.2-0.54l2.06-5.3c0.05-0.13,0.14-0.24,0.26-0.33c0.12-0.09,0.26-0.13,0.41-0.13H650.61z M661.64,25.32
	c-0.07,0.11-0.14,0.18-0.21,0.22c-0.07,0.04-0.17,0.06-0.28,0.06c-0.12,0-0.25-0.03-0.38-0.1c-0.14-0.07-0.29-0.14-0.47-0.22
	c-0.18-0.08-0.38-0.16-0.61-0.22c-0.23-0.07-0.5-0.1-0.81-0.1c-0.49,0-0.87,0.1-1.14,0.31c-0.28,0.21-0.41,0.48-0.41,0.81
	c0,0.22,0.07,0.4,0.21,0.55c0.14,0.15,0.33,0.28,0.57,0.39c0.24,0.11,0.5,0.21,0.8,0.3s0.6,0.19,0.91,0.29
	c0.31,0.11,0.61,0.23,0.91,0.36c0.3,0.14,0.57,0.31,0.8,0.52c0.24,0.21,0.43,0.46,0.57,0.75c0.14,0.29,0.21,0.65,0.21,1.06
	c0,0.49-0.09,0.95-0.26,1.36c-0.18,0.42-0.44,0.78-0.78,1.08c-0.35,0.3-0.77,0.54-1.28,0.71c-0.51,0.17-1.1,0.25-1.76,0.25
	c-0.35,0-0.7-0.03-1.03-0.09c-0.34-0.06-0.66-0.15-0.97-0.26c-0.31-0.11-0.6-0.25-0.86-0.4c-0.26-0.15-0.49-0.32-0.69-0.5l0.57-0.94
	c0.07-0.11,0.16-0.2,0.26-0.26c0.1-0.06,0.23-0.09,0.38-0.09c0.15,0,0.3,0.04,0.43,0.13c0.14,0.09,0.29,0.18,0.47,0.28
	c0.18,0.1,0.39,0.19,0.63,0.28c0.24,0.09,0.55,0.13,0.92,0.13c0.29,0,0.54-0.03,0.75-0.1c0.21-0.07,0.38-0.16,0.52-0.27
	c0.14-0.11,0.24-0.24,0.3-0.39c0.06-0.15,0.09-0.3,0.09-0.46c0-0.24-0.07-0.44-0.21-0.59c-0.14-0.15-0.33-0.29-0.57-0.4
	c-0.24-0.11-0.51-0.21-0.81-0.3c-0.3-0.09-0.61-0.19-0.93-0.29c-0.32-0.11-0.63-0.23-0.93-0.37c-0.3-0.14-0.57-0.32-0.81-0.54
	c-0.24-0.22-0.43-0.49-0.57-0.81c-0.14-0.32-0.21-0.71-0.21-1.16c0-0.42,0.08-0.82,0.25-1.2c0.17-0.38,0.41-0.71,0.73-0.99
	c0.32-0.28,0.73-0.51,1.21-0.68c0.48-0.17,1.04-0.25,1.67-0.25c0.71,0,1.35,0.12,1.93,0.35c0.58,0.23,1.06,0.54,1.45,0.92
	L661.64,25.32z M663.52,24.75c1.18-1.08,2.6-1.62,4.25-1.62c0.6,0,1.13,0.1,1.61,0.29c0.47,0.2,0.87,0.47,1.2,0.82
	c0.33,0.35,0.57,0.77,0.74,1.25c0.17,0.49,0.25,1.02,0.25,1.6v6.47h-1.12c-0.23,0-0.41-0.03-0.54-0.1c-0.13-0.07-0.23-0.21-0.3-0.42
	l-0.22-0.74c-0.26,0.23-0.51,0.44-0.76,0.61c-0.25,0.18-0.5,0.32-0.77,0.44c-0.27,0.12-0.55,0.21-0.85,0.27
	c-0.3,0.06-0.64,0.09-1,0.09c-0.43,0-0.83-0.06-1.2-0.17c-0.37-0.12-0.68-0.29-0.95-0.52c-0.27-0.23-0.47-0.52-0.62-0.87
	c-0.15-0.35-0.22-0.75-0.22-1.21c0-0.26,0.04-0.52,0.13-0.77c0.09-0.26,0.23-0.5,0.42-0.73c0.2-0.23,0.45-0.45,0.76-0.66
	c0.31-0.21,0.7-0.39,1.15-0.54c0.46-0.15,0.99-0.28,1.59-0.37c0.61-0.1,1.3-0.15,2.08-0.17v-0.6c0-0.69-0.15-1.19-0.44-1.52
	c-0.29-0.33-0.72-0.49-1.27-0.49c-0.4,0-0.73,0.05-0.99,0.14c-0.26,0.09-0.49,0.2-0.69,0.31c-0.2,0.12-0.38,0.22-0.54,0.31
	c-0.16,0.09-0.34,0.14-0.54,0.14c-0.17,0-0.32-0.04-0.44-0.13c-0.12-0.09-0.22-0.19-0.29-0.31L663.52,24.75z M669.17,29.2
	c-0.71,0.03-1.31,0.09-1.8,0.18c-0.49,0.09-0.88,0.2-1.17,0.34c-0.29,0.14-0.5,0.3-0.63,0.49c-0.13,0.19-0.19,0.39-0.19,0.61
	c0,0.43,0.13,0.74,0.38,0.93c0.26,0.19,0.59,0.28,1,0.28c0.51,0,0.94-0.09,1.31-0.27c0.37-0.18,0.73-0.46,1.08-0.83V29.2z
	 M683.68,33.57h-2.47v-8.39h-4.75v5.55c0,0.32,0.08,0.57,0.23,0.75c0.16,0.18,0.37,0.27,0.64,0.27c0.15,0,0.28-0.02,0.38-0.05
	c0.1-0.04,0.19-0.07,0.27-0.11c0.08-0.04,0.14-0.08,0.2-0.11c0.06-0.04,0.12-0.05,0.18-0.05c0.07,0,0.13,0.02,0.18,0.05
	c0.05,0.04,0.1,0.09,0.15,0.16l0.74,1.2c-0.36,0.3-0.77,0.53-1.24,0.68c-0.47,0.15-0.95,0.23-1.45,0.23c-0.89,0-1.58-0.25-2.05-0.75
	c-0.48-0.5-0.71-1.2-0.71-2.08v-5.72h-1.05c-0.13,0-0.25-0.04-0.34-0.13c-0.09-0.09-0.14-0.22-0.14-0.39v-0.98l1.65-0.28l0.52-2.78
	c0.03-0.13,0.1-0.24,0.19-0.31c0.09-0.07,0.21-0.11,0.36-0.11h1.28v3.22h7.22V33.57z M684.11,20.3c0,0.21-0.04,0.41-0.13,0.6
	c-0.09,0.19-0.2,0.35-0.34,0.49c-0.14,0.14-0.31,0.25-0.51,0.33c-0.2,0.08-0.4,0.12-0.62,0.12c-0.21,0-0.41-0.04-0.6-0.12
	c-0.19-0.08-0.35-0.19-0.49-0.33c-0.14-0.14-0.25-0.3-0.33-0.49c-0.08-0.19-0.12-0.39-0.12-0.6c0-0.22,0.04-0.42,0.12-0.61
	c0.08-0.19,0.19-0.36,0.33-0.5c0.14-0.14,0.3-0.26,0.49-0.34c0.19-0.08,0.39-0.12,0.6-0.12c0.22,0,0.43,0.04,0.62,0.12
	c0.2,0.08,0.37,0.2,0.51,0.34c0.14,0.14,0.26,0.31,0.34,0.5C684.07,19.88,684.11,20.08,684.11,20.3z M692.03,25.32
	c-0.07,0.11-0.14,0.18-0.21,0.22c-0.07,0.04-0.17,0.06-0.28,0.06c-0.12,0-0.25-0.03-0.38-0.1c-0.14-0.07-0.29-0.14-0.47-0.22
	c-0.18-0.08-0.38-0.16-0.61-0.22c-0.23-0.07-0.5-0.1-0.81-0.1c-0.49,0-0.87,0.1-1.14,0.31c-0.28,0.21-0.41,0.48-0.41,0.81
	c0,0.22,0.07,0.4,0.21,0.55c0.14,0.15,0.33,0.28,0.57,0.39c0.24,0.11,0.5,0.21,0.8,0.3s0.6,0.19,0.91,0.29
	c0.31,0.11,0.61,0.23,0.91,0.36c0.3,0.14,0.57,0.31,0.8,0.52c0.24,0.21,0.43,0.46,0.57,0.75c0.14,0.29,0.21,0.65,0.21,1.06
	c0,0.49-0.09,0.95-0.26,1.36c-0.18,0.42-0.44,0.78-0.78,1.08c-0.35,0.3-0.77,0.54-1.28,0.71c-0.51,0.17-1.1,0.25-1.76,0.25
	c-0.35,0-0.7-0.03-1.03-0.09c-0.34-0.06-0.66-0.15-0.97-0.26c-0.31-0.11-0.6-0.25-0.86-0.4c-0.26-0.15-0.49-0.32-0.69-0.5l0.57-0.94
	c0.07-0.11,0.16-0.2,0.26-0.26c0.1-0.06,0.23-0.09,0.38-0.09c0.15,0,0.3,0.04,0.43,0.13c0.14,0.09,0.29,0.18,0.47,0.28
	c0.18,0.1,0.39,0.19,0.63,0.28c0.24,0.09,0.55,0.13,0.92,0.13c0.29,0,0.54-0.03,0.75-0.1c0.21-0.07,0.38-0.16,0.52-0.27
	c0.14-0.11,0.24-0.24,0.3-0.39c0.06-0.15,0.09-0.3,0.09-0.46c0-0.24-0.07-0.44-0.21-0.59c-0.14-0.15-0.33-0.29-0.57-0.4
	c-0.24-0.11-0.51-0.21-0.81-0.3c-0.3-0.09-0.61-0.19-0.93-0.29c-0.32-0.11-0.63-0.23-0.93-0.37c-0.3-0.14-0.57-0.32-0.81-0.54
	c-0.24-0.22-0.43-0.49-0.57-0.81c-0.14-0.32-0.21-0.71-0.21-1.16c0-0.42,0.08-0.82,0.25-1.2c0.17-0.38,0.41-0.71,0.73-0.99
	c0.32-0.28,0.73-0.51,1.21-0.68c0.48-0.17,1.04-0.25,1.67-0.25c0.71,0,1.35,0.12,1.93,0.35c0.58,0.23,1.06,0.54,1.45,0.92
	L692.03,25.32z M694.88,33.57v-8.38l-0.89-0.14c-0.19-0.04-0.35-0.11-0.46-0.2c-0.12-0.1-0.17-0.23-0.17-0.41v-1.01h1.53v-0.33
	c0-0.63,0.1-1.21,0.31-1.74c0.21-0.54,0.52-1,0.94-1.39c0.42-0.39,0.95-0.7,1.59-0.92c0.64-0.22,1.4-0.33,2.27-0.33
	c0.28,0,0.56,0.01,0.85,0.04c0.29,0.03,0.54,0.08,0.75,0.14l-0.08,1.28c-0.01,0.15-0.1,0.24-0.25,0.27
	c-0.15,0.03-0.34,0.04-0.57,0.04c-0.65,0-1.19,0.06-1.62,0.17c-0.44,0.11-0.79,0.28-1.06,0.5c-0.27,0.22-0.46,0.5-0.58,0.84
	c-0.12,0.34-0.17,0.73-0.17,1.17v0.25h6.35v10.15h-2.47v-8.39h-3.8v8.39H694.88z M707.63,28.76c0.04,0.53,0.13,0.98,0.28,1.36
	c0.15,0.38,0.34,0.7,0.58,0.95c0.24,0.25,0.52,0.44,0.85,0.56c0.33,0.12,0.69,0.18,1.09,0.18s0.74-0.05,1.03-0.14
	c0.29-0.09,0.54-0.2,0.76-0.31c0.22-0.11,0.41-0.22,0.57-0.31c0.16-0.09,0.32-0.14,0.47-0.14c0.21,0,0.36,0.08,0.46,0.23l0.71,0.9
	c-0.27,0.32-0.58,0.59-0.92,0.8c-0.34,0.22-0.69,0.39-1.06,0.52c-0.37,0.13-0.75,0.22-1.13,0.27c-0.38,0.05-0.75,0.08-1.11,0.08
	c-0.71,0-1.37-0.12-1.99-0.35c-0.61-0.24-1.14-0.59-1.6-1.05c-0.45-0.46-0.81-1.03-1.07-1.72c-0.26-0.68-0.39-1.47-0.39-2.37
	c0-0.7,0.11-1.36,0.34-1.97c0.23-0.62,0.55-1.15,0.97-1.61c0.42-0.46,0.94-0.82,1.55-1.08c0.61-0.27,1.3-0.4,2.06-0.4
	c0.65,0,1.24,0.1,1.79,0.31c0.55,0.21,1.01,0.51,1.41,0.9c0.39,0.4,0.7,0.88,0.92,1.46c0.22,0.58,0.33,1.23,0.33,1.97
	c0,0.37-0.04,0.62-0.12,0.75c-0.08,0.13-0.23,0.19-0.46,0.19H707.63z M712.33,27.27c0-0.32-0.04-0.62-0.13-0.9
	c-0.09-0.28-0.22-0.53-0.4-0.74c-0.18-0.21-0.41-0.38-0.68-0.5c-0.28-0.12-0.6-0.18-0.96-0.18c-0.71,0-1.27,0.2-1.68,0.61
	c-0.41,0.41-0.67,0.98-0.78,1.73H712.33z M724.88,18.74v14.83h-1.51c-0.33,0-0.53-0.15-0.62-0.45l-0.21-0.99
	c-0.41,0.47-0.89,0.86-1.42,1.15c-0.54,0.29-1.16,0.44-1.87,0.44c-0.56,0-1.07-0.12-1.54-0.35c-0.47-0.23-0.87-0.57-1.2-1.01
	c-0.34-0.44-0.6-0.99-0.78-1.64c-0.18-0.65-0.27-1.4-0.27-2.24c0-0.76,0.1-1.46,0.31-2.12c0.21-0.65,0.5-1.22,0.89-1.7
	c0.39-0.48,0.85-0.85,1.39-1.12c0.54-0.27,1.14-0.4,1.82-0.4c0.57,0,1.06,0.09,1.47,0.27c0.41,0.18,0.77,0.42,1.09,0.73v-5.4H724.88
	z M722.42,25.94c-0.28-0.34-0.58-0.58-0.91-0.72c-0.33-0.14-0.68-0.21-1.06-0.21c-0.37,0-0.71,0.07-1.01,0.21
	c-0.3,0.14-0.56,0.35-0.77,0.63c-0.21,0.28-0.38,0.64-0.49,1.08c-0.11,0.44-0.17,0.95-0.17,1.54c0,0.6,0.05,1.11,0.14,1.52
	c0.1,0.42,0.23,0.76,0.41,1.02c0.18,0.26,0.4,0.45,0.66,0.57c0.26,0.12,0.55,0.17,0.87,0.17c0.51,0,0.95-0.11,1.31-0.32
	c0.36-0.21,0.7-0.52,1.02-0.91V25.94z M726.87,36.01c-0.12-0.1-0.18-0.22-0.18-0.37c0-0.05,0.02-0.11,0.05-0.18
	c0.04-0.07,0.08-0.13,0.13-0.18c0.07-0.08,0.16-0.18,0.27-0.29c0.11-0.12,0.21-0.25,0.32-0.4c0.11-0.15,0.2-0.31,0.29-0.49
	c0.09-0.18,0.16-0.36,0.2-0.56c-0.21,0-0.41-0.04-0.58-0.11c-0.17-0.08-0.32-0.18-0.44-0.31c-0.12-0.13-0.22-0.29-0.29-0.47
	c-0.07-0.18-0.1-0.38-0.1-0.59c0-0.19,0.03-0.36,0.1-0.52c0.07-0.16,0.17-0.31,0.29-0.43c0.13-0.12,0.28-0.22,0.46-0.29
	c0.18-0.07,0.38-0.1,0.59-0.1c0.25,0,0.47,0.04,0.66,0.13c0.19,0.09,0.35,0.21,0.47,0.37c0.12,0.16,0.22,0.34,0.28,0.54
	c0.06,0.2,0.09,0.42,0.09,0.64c0,0.32-0.05,0.66-0.14,1.01c-0.1,0.35-0.24,0.71-0.42,1.06c-0.19,0.35-0.42,0.7-0.69,1.03
	c-0.28,0.33-0.59,0.64-0.94,0.92L726.87,36.01z"/>
<path class="st1" d="M31,47.14c0.76,0,1.45,0.12,2.07,0.37c0.62,0.25,1.15,0.6,1.6,1.05c0.44,0.45,0.78,1,1.02,1.66
	c0.24,0.65,0.36,1.38,0.36,2.19c0,0.81-0.12,1.54-0.36,2.2c-0.24,0.65-0.58,1.21-1.02,1.67c-0.44,0.46-0.97,0.81-1.6,1.06
	c-0.62,0.25-1.31,0.37-2.07,0.37c-0.77,0-1.46-0.12-2.09-0.37c-0.63-0.25-1.16-0.6-1.6-1.06c-0.44-0.46-0.79-1.01-1.03-1.67
	c-0.24-0.65-0.36-1.38-0.36-2.2c0-0.81,0.12-1.53,0.36-2.19c0.24-0.65,0.59-1.2,1.03-1.66c0.44-0.45,0.98-0.8,1.6-1.05
	C29.54,47.27,30.23,47.14,31,47.14z M31,55.8c0.85,0,1.48-0.29,1.89-0.86c0.41-0.57,0.61-1.41,0.61-2.52c0-1.1-0.2-1.95-0.61-2.53
	c-0.41-0.58-1.04-0.87-1.89-0.87c-0.87,0-1.51,0.29-1.92,0.87c-0.42,0.58-0.62,1.42-0.62,2.52c0,1.1,0.21,1.93,0.62,2.51
	C29.49,55.51,30.13,55.8,31,55.8z M39.85,49.08c0.32-0.61,0.7-1.09,1.14-1.44c0.44-0.35,0.96-0.52,1.56-0.52
	c0.47,0,0.85,0.1,1.14,0.31l-0.16,1.85c-0.03,0.12-0.08,0.2-0.14,0.25c-0.06,0.05-0.15,0.07-0.25,0.07c-0.1,0-0.25-0.02-0.44-0.05
	c-0.2-0.03-0.39-0.05-0.57-0.05c-0.27,0-0.52,0.04-0.73,0.12c-0.21,0.08-0.4,0.19-0.57,0.34c-0.17,0.15-0.32,0.33-0.45,0.54
	c-0.13,0.21-0.25,0.46-0.36,0.73v6.31h-2.47V47.3h1.45c0.25,0,0.43,0.04,0.53,0.13c0.1,0.09,0.17,0.25,0.2,0.48L39.85,49.08z
	 M50.5,52.73c0.04,0.53,0.13,0.98,0.28,1.36c0.15,0.38,0.34,0.7,0.58,0.95c0.24,0.25,0.52,0.44,0.85,0.56
	c0.33,0.12,0.69,0.18,1.09,0.18c0.4,0,0.74-0.05,1.03-0.14c0.29-0.09,0.54-0.2,0.76-0.31c0.22-0.11,0.41-0.22,0.57-0.31
	c0.16-0.09,0.32-0.14,0.47-0.14c0.21,0,0.36,0.08,0.46,0.23l0.71,0.9c-0.27,0.32-0.58,0.59-0.92,0.8c-0.34,0.22-0.69,0.39-1.06,0.52
	c-0.37,0.13-0.75,0.22-1.13,0.27c-0.38,0.05-0.75,0.08-1.11,0.08c-0.71,0-1.37-0.12-1.99-0.35c-0.61-0.24-1.14-0.59-1.6-1.05
	c-0.45-0.46-0.81-1.03-1.07-1.72c-0.26-0.68-0.39-1.47-0.39-2.37c0-0.7,0.11-1.36,0.34-1.97c0.23-0.62,0.55-1.15,0.97-1.61
	c0.42-0.46,0.94-0.82,1.55-1.08c0.61-0.27,1.3-0.4,2.06-0.4c0.65,0,1.24,0.1,1.79,0.31c0.55,0.21,1.01,0.51,1.41,0.9
	c0.39,0.4,0.7,0.88,0.92,1.46c0.22,0.58,0.33,1.23,0.33,1.97c0,0.37-0.04,0.62-0.12,0.75c-0.08,0.13-0.23,0.19-0.46,0.19H50.5z
	 M55.2,51.24c0-0.32-0.04-0.62-0.13-0.9c-0.09-0.28-0.22-0.53-0.4-0.74c-0.18-0.21-0.41-0.38-0.68-0.5
	c-0.28-0.12-0.6-0.18-0.96-0.18c-0.71,0-1.27,0.2-1.68,0.61c-0.41,0.41-0.67,0.98-0.78,1.73H55.2z M67.86,57.54h-2.38
	c-0.18,0-0.32-0.05-0.43-0.14c-0.11-0.09-0.2-0.2-0.27-0.32l-2.17-3.56c-0.03,0.11-0.07,0.22-0.11,0.32
	c-0.04,0.1-0.09,0.19-0.14,0.28l-1.92,2.96c-0.07,0.11-0.16,0.22-0.27,0.31c-0.11,0.1-0.24,0.14-0.4,0.14h-2.21l3.51-5.28L57.7,47.3
	h2.38c0.18,0,0.31,0.02,0.4,0.07c0.09,0.05,0.16,0.13,0.23,0.24l2.15,3.41c0.07-0.23,0.18-0.45,0.31-0.67l1.73-2.69
	c0.15-0.25,0.34-0.37,0.57-0.37h2.27l-3.36,4.85L67.86,57.54z M72.15,57.7c-0.89,0-1.58-0.25-2.05-0.75
	c-0.48-0.5-0.71-1.2-0.71-2.08v-5.72h-1.05c-0.13,0-0.25-0.04-0.34-0.13c-0.09-0.09-0.14-0.22-0.14-0.39v-0.98l1.65-0.27l0.52-2.79
	c0.03-0.13,0.1-0.24,0.19-0.31c0.09-0.07,0.21-0.11,0.36-0.11h1.28v3.22h2.73v1.76h-2.73v5.55c0,0.32,0.08,0.57,0.23,0.75
	c0.16,0.18,0.37,0.27,0.64,0.27c0.15,0,0.28-0.02,0.38-0.05c0.1-0.04,0.19-0.07,0.27-0.11c0.08-0.04,0.14-0.08,0.2-0.11
	c0.06-0.04,0.12-0.05,0.18-0.05c0.07,0,0.13,0.02,0.18,0.05c0.05,0.04,0.1,0.09,0.15,0.16l0.74,1.2c-0.36,0.3-0.77,0.53-1.24,0.68
	C73.13,57.63,72.65,57.7,72.15,57.7z M78.09,49.08c0.32-0.61,0.7-1.09,1.14-1.44c0.44-0.35,0.96-0.52,1.56-0.52
	c0.47,0,0.85,0.1,1.14,0.31l-0.16,1.85c-0.03,0.12-0.08,0.2-0.14,0.25c-0.06,0.05-0.15,0.07-0.25,0.07c-0.1,0-0.25-0.02-0.44-0.05
	c-0.2-0.03-0.39-0.05-0.57-0.05c-0.27,0-0.52,0.04-0.73,0.12c-0.21,0.08-0.4,0.19-0.57,0.34c-0.17,0.15-0.32,0.33-0.45,0.54
	c-0.13,0.21-0.25,0.46-0.36,0.73v6.31h-2.47V47.3h1.45c0.25,0,0.43,0.04,0.53,0.13c0.1,0.09,0.17,0.25,0.2,0.48L78.09,49.08z
	 M84.42,52.73c0.04,0.53,0.13,0.98,0.28,1.36c0.15,0.38,0.34,0.7,0.58,0.95c0.24,0.25,0.52,0.44,0.85,0.56
	c0.33,0.12,0.69,0.18,1.09,0.18c0.4,0,0.74-0.05,1.03-0.14c0.29-0.09,0.54-0.2,0.76-0.31c0.22-0.11,0.41-0.22,0.57-0.31
	c0.16-0.09,0.32-0.14,0.47-0.14c0.21,0,0.36,0.08,0.46,0.23l0.71,0.9c-0.27,0.32-0.58,0.59-0.92,0.8c-0.34,0.22-0.69,0.39-1.06,0.52
	c-0.37,0.13-0.75,0.22-1.13,0.27c-0.38,0.05-0.75,0.08-1.11,0.08c-0.71,0-1.37-0.12-1.99-0.35c-0.61-0.24-1.14-0.59-1.6-1.05
	c-0.45-0.46-0.81-1.03-1.07-1.72c-0.26-0.68-0.39-1.47-0.39-2.37c0-0.7,0.11-1.36,0.34-1.97c0.23-0.62,0.55-1.15,0.97-1.61
	c0.42-0.46,0.94-0.82,1.55-1.08c0.61-0.27,1.3-0.4,2.06-0.4c0.65,0,1.24,0.1,1.79,0.31c0.55,0.21,1.01,0.51,1.41,0.9
	c0.39,0.4,0.7,0.88,0.92,1.46c0.22,0.58,0.33,1.23,0.33,1.97c0,0.37-0.04,0.62-0.12,0.75c-0.08,0.13-0.23,0.19-0.46,0.19H84.42z
	 M89.12,51.24c0-0.32-0.04-0.62-0.13-0.9c-0.09-0.28-0.22-0.53-0.4-0.74c-0.18-0.21-0.41-0.38-0.68-0.5
	c-0.28-0.12-0.6-0.18-0.96-0.18c-0.71,0-1.27,0.2-1.68,0.61c-0.41,0.41-0.67,0.98-0.78,1.73H89.12z M92.78,57.54V47.3h1.51
	c0.32,0,0.53,0.15,0.63,0.45l0.16,0.76c0.18-0.2,0.37-0.38,0.56-0.55c0.2-0.17,0.41-0.31,0.63-0.43c0.22-0.12,0.46-0.21,0.72-0.28
	c0.26-0.07,0.54-0.1,0.84-0.1c0.65,0,1.18,0.17,1.59,0.52c0.42,0.35,0.73,0.81,0.93,1.39c0.16-0.34,0.36-0.63,0.6-0.87
	c0.24-0.24,0.5-0.44,0.79-0.59c0.29-0.15,0.59-0.27,0.91-0.34c0.32-0.07,0.65-0.11,0.97-0.11c0.57,0,1.07,0.09,1.51,0.26
	c0.44,0.17,0.81,0.43,1.11,0.76c0.3,0.33,0.53,0.74,0.68,1.22c0.16,0.48,0.23,1.03,0.23,1.65v6.52h-2.47v-6.52
	c0-0.65-0.14-1.14-0.43-1.47c-0.29-0.33-0.71-0.49-1.26-0.49c-0.25,0-0.49,0.04-0.7,0.13c-0.22,0.09-0.41,0.21-0.57,0.37
	c-0.16,0.16-0.29,0.37-0.38,0.61c-0.09,0.25-0.14,0.53-0.14,0.85v6.52h-2.48v-6.52c0-0.69-0.14-1.18-0.41-1.5
	c-0.28-0.31-0.68-0.47-1.21-0.47c-0.36,0-0.69,0.09-1,0.26c-0.31,0.18-0.6,0.42-0.86,0.72v7.5H92.78z M110.99,52.73
	c0.04,0.53,0.13,0.98,0.28,1.36c0.15,0.38,0.34,0.7,0.58,0.95c0.24,0.25,0.52,0.44,0.85,0.56c0.33,0.12,0.69,0.18,1.09,0.18
	c0.4,0,0.74-0.05,1.03-0.14c0.29-0.09,0.54-0.2,0.76-0.31c0.22-0.11,0.41-0.22,0.57-0.31c0.16-0.09,0.32-0.14,0.47-0.14
	c0.21,0,0.36,0.08,0.46,0.23l0.71,0.9c-0.27,0.32-0.58,0.59-0.92,0.8c-0.34,0.22-0.69,0.39-1.06,0.52
	c-0.37,0.13-0.75,0.22-1.13,0.27c-0.38,0.05-0.75,0.08-1.11,0.08c-0.71,0-1.37-0.12-1.99-0.35c-0.61-0.24-1.14-0.59-1.6-1.05
	c-0.45-0.46-0.81-1.03-1.07-1.72c-0.26-0.68-0.39-1.47-0.39-2.37c0-0.7,0.11-1.36,0.34-1.97c0.23-0.62,0.55-1.15,0.97-1.61
	c0.42-0.46,0.94-0.82,1.55-1.08c0.61-0.27,1.3-0.4,2.06-0.4c0.65,0,1.24,0.1,1.79,0.31c0.55,0.21,1.01,0.51,1.41,0.9
	c0.39,0.4,0.7,0.88,0.92,1.46c0.22,0.58,0.33,1.23,0.33,1.97c0,0.37-0.04,0.62-0.12,0.75c-0.08,0.13-0.23,0.19-0.46,0.19H110.99z
	 M115.69,51.24c0-0.32-0.04-0.62-0.13-0.9c-0.09-0.28-0.22-0.53-0.4-0.74c-0.18-0.21-0.41-0.38-0.68-0.5
	c-0.28-0.12-0.6-0.18-0.96-0.18c-0.71,0-1.27,0.2-1.68,0.61c-0.41,0.41-0.67,0.98-0.78,1.73H115.69z M121.85,42.71v14.83h-2.47
	V42.71H121.85z M133.21,47.3l-5.58,13.06c-0.07,0.17-0.17,0.3-0.28,0.39c-0.12,0.09-0.29,0.13-0.53,0.13h-1.84l1.92-4.11l-4.14-9.47
	h2.17c0.19,0,0.34,0.05,0.45,0.14c0.11,0.09,0.19,0.2,0.24,0.32l2.18,5.31c0.07,0.18,0.13,0.36,0.18,0.54
	c0.05,0.18,0.1,0.36,0.14,0.55c0.06-0.19,0.12-0.37,0.18-0.55c0.06-0.18,0.13-0.36,0.2-0.54l2.06-5.3c0.05-0.13,0.14-0.24,0.26-0.33
	c0.12-0.09,0.26-0.13,0.41-0.13H133.21z M144.23,49.3c-0.07,0.11-0.14,0.18-0.21,0.22c-0.07,0.04-0.17,0.06-0.28,0.06
	c-0.12,0-0.25-0.03-0.38-0.1c-0.14-0.07-0.29-0.14-0.47-0.22c-0.18-0.08-0.38-0.16-0.61-0.22c-0.23-0.07-0.5-0.1-0.81-0.1
	c-0.49,0-0.87,0.1-1.14,0.31c-0.28,0.21-0.41,0.48-0.41,0.81c0,0.22,0.07,0.4,0.21,0.55c0.14,0.15,0.33,0.28,0.57,0.39
	c0.24,0.11,0.5,0.21,0.8,0.3c0.3,0.09,0.6,0.19,0.91,0.29c0.31,0.11,0.61,0.23,0.91,0.36c0.3,0.14,0.57,0.31,0.8,0.52
	c0.24,0.21,0.43,0.46,0.57,0.75c0.14,0.29,0.21,0.65,0.21,1.06c0,0.49-0.09,0.95-0.26,1.36c-0.18,0.42-0.44,0.78-0.78,1.08
	c-0.35,0.3-0.77,0.54-1.28,0.71c-0.51,0.17-1.1,0.25-1.76,0.25c-0.35,0-0.7-0.03-1.03-0.09c-0.34-0.06-0.66-0.15-0.97-0.26
	c-0.31-0.11-0.6-0.25-0.86-0.4c-0.26-0.15-0.49-0.32-0.69-0.5l0.57-0.94c0.07-0.11,0.16-0.2,0.26-0.26c0.1-0.06,0.23-0.09,0.38-0.09
	c0.15,0,0.3,0.04,0.43,0.13c0.14,0.09,0.29,0.18,0.47,0.28c0.18,0.1,0.39,0.19,0.63,0.28c0.24,0.09,0.55,0.13,0.92,0.13
	c0.29,0,0.54-0.03,0.75-0.1c0.21-0.07,0.38-0.16,0.52-0.27c0.14-0.11,0.24-0.24,0.3-0.39c0.06-0.15,0.09-0.3,0.09-0.46
	c0-0.24-0.07-0.44-0.21-0.59c-0.14-0.15-0.33-0.29-0.57-0.4c-0.24-0.11-0.51-0.21-0.81-0.3c-0.3-0.09-0.61-0.19-0.93-0.29
	c-0.32-0.11-0.63-0.23-0.93-0.37c-0.3-0.14-0.57-0.32-0.81-0.54c-0.24-0.22-0.43-0.49-0.57-0.81c-0.14-0.32-0.21-0.71-0.21-1.16
	c0-0.42,0.08-0.82,0.25-1.2c0.17-0.38,0.41-0.71,0.73-0.99c0.32-0.28,0.73-0.51,1.21-0.68c0.48-0.17,1.04-0.25,1.67-0.25
	c0.71,0,1.35,0.12,1.93,0.35c0.58,0.23,1.06,0.54,1.45,0.92L144.23,49.3z M146.11,48.73c1.18-1.08,2.6-1.62,4.25-1.62
	c0.6,0,1.13,0.1,1.61,0.29c0.47,0.2,0.87,0.47,1.2,0.82c0.33,0.35,0.57,0.77,0.74,1.25c0.17,0.49,0.25,1.02,0.25,1.6v6.47h-1.12
	c-0.23,0-0.41-0.03-0.54-0.1c-0.13-0.07-0.23-0.21-0.3-0.42l-0.22-0.74c-0.26,0.23-0.51,0.44-0.76,0.61
	c-0.25,0.18-0.5,0.32-0.77,0.44c-0.27,0.12-0.55,0.21-0.85,0.27c-0.3,0.06-0.64,0.09-1,0.09c-0.43,0-0.83-0.06-1.2-0.17
	c-0.37-0.12-0.68-0.29-0.95-0.52c-0.27-0.23-0.47-0.52-0.62-0.87c-0.15-0.35-0.22-0.75-0.22-1.21c0-0.26,0.04-0.52,0.13-0.77
	c0.09-0.26,0.23-0.5,0.42-0.73c0.2-0.23,0.45-0.45,0.76-0.66c0.31-0.21,0.7-0.39,1.15-0.54c0.46-0.15,0.99-0.28,1.59-0.37
	c0.61-0.1,1.3-0.15,2.08-0.17v-0.6c0-0.69-0.15-1.19-0.44-1.52c-0.29-0.33-0.72-0.49-1.27-0.49c-0.4,0-0.73,0.05-0.99,0.14
	c-0.26,0.09-0.49,0.2-0.69,0.31c-0.2,0.12-0.38,0.22-0.54,0.31c-0.16,0.09-0.34,0.14-0.54,0.14c-0.17,0-0.32-0.04-0.44-0.13
	c-0.12-0.09-0.22-0.19-0.29-0.31L146.11,48.73z M151.76,53.17c-0.71,0.03-1.31,0.09-1.8,0.18c-0.49,0.09-0.88,0.2-1.17,0.34
	c-0.29,0.14-0.5,0.3-0.63,0.49c-0.13,0.19-0.19,0.39-0.19,0.61c0,0.43,0.13,0.74,0.38,0.93c0.26,0.19,0.59,0.28,1,0.28
	c0.51,0,0.94-0.09,1.31-0.27c0.37-0.18,0.73-0.46,1.08-0.83V53.17z M166.27,57.54h-2.47v-8.39h-4.75v5.55
	c0,0.32,0.08,0.57,0.23,0.75c0.16,0.18,0.37,0.27,0.64,0.27c0.15,0,0.28-0.02,0.38-0.05c0.1-0.04,0.19-0.07,0.27-0.11
	c0.08-0.04,0.14-0.08,0.2-0.11c0.06-0.04,0.12-0.05,0.18-0.05c0.07,0,0.13,0.02,0.18,0.05c0.05,0.04,0.1,0.09,0.15,0.16l0.74,1.2
	c-0.36,0.3-0.77,0.53-1.24,0.68c-0.47,0.15-0.95,0.23-1.45,0.23c-0.89,0-1.58-0.25-2.05-0.75c-0.48-0.5-0.71-1.2-0.71-2.08v-5.72
	h-1.05c-0.13,0-0.25-0.04-0.34-0.13c-0.09-0.09-0.14-0.22-0.14-0.39v-0.98l1.65-0.28l0.52-2.78c0.03-0.13,0.1-0.24,0.19-0.31
	c0.09-0.07,0.21-0.11,0.36-0.11h1.28v3.22h7.22V57.54z M166.7,44.28c0,0.21-0.04,0.41-0.13,0.6c-0.09,0.19-0.2,0.35-0.34,0.49
	c-0.14,0.14-0.31,0.25-0.51,0.33c-0.2,0.08-0.4,0.12-0.62,0.12c-0.21,0-0.41-0.04-0.6-0.12c-0.19-0.08-0.35-0.19-0.49-0.33
	c-0.14-0.14-0.25-0.3-0.33-0.49c-0.08-0.19-0.12-0.39-0.12-0.6c0-0.22,0.04-0.42,0.12-0.61c0.08-0.19,0.19-0.36,0.33-0.5
	c0.14-0.14,0.3-0.26,0.49-0.34c0.19-0.08,0.39-0.12,0.6-0.12c0.22,0,0.43,0.04,0.62,0.12c0.2,0.08,0.37,0.2,0.51,0.34
	c0.14,0.14,0.26,0.31,0.34,0.5C166.66,43.85,166.7,44.06,166.7,44.28z M174.63,49.3c-0.07,0.11-0.14,0.18-0.21,0.22
	c-0.07,0.04-0.17,0.06-0.28,0.06c-0.12,0-0.25-0.03-0.38-0.1c-0.14-0.07-0.29-0.14-0.47-0.22c-0.18-0.08-0.38-0.16-0.61-0.22
	c-0.23-0.07-0.5-0.1-0.81-0.1c-0.49,0-0.87,0.1-1.14,0.31c-0.28,0.21-0.41,0.48-0.41,0.81c0,0.22,0.07,0.4,0.21,0.55
	c0.14,0.15,0.33,0.28,0.57,0.39c0.24,0.11,0.5,0.21,0.8,0.3c0.3,0.09,0.6,0.19,0.91,0.29c0.31,0.11,0.61,0.23,0.91,0.36
	c0.3,0.14,0.57,0.31,0.8,0.52c0.24,0.21,0.43,0.46,0.57,0.75c0.14,0.29,0.21,0.65,0.21,1.06c0,0.49-0.09,0.95-0.26,1.36
	c-0.18,0.42-0.44,0.78-0.78,1.08c-0.35,0.3-0.77,0.54-1.28,0.71c-0.51,0.17-1.1,0.25-1.76,0.25c-0.35,0-0.7-0.03-1.03-0.09
	c-0.34-0.06-0.66-0.15-0.97-0.26c-0.31-0.11-0.6-0.25-0.86-0.4c-0.26-0.15-0.49-0.32-0.69-0.5l0.57-0.94
	c0.07-0.11,0.16-0.2,0.26-0.26c0.1-0.06,0.23-0.09,0.38-0.09c0.15,0,0.3,0.04,0.43,0.13c0.14,0.09,0.29,0.18,0.47,0.28
	c0.18,0.1,0.39,0.19,0.63,0.28c0.24,0.09,0.55,0.13,0.92,0.13c0.29,0,0.54-0.03,0.75-0.1c0.21-0.07,0.38-0.16,0.52-0.27
	c0.14-0.11,0.24-0.24,0.3-0.39c0.06-0.15,0.09-0.3,0.09-0.46c0-0.24-0.07-0.44-0.21-0.59c-0.14-0.15-0.33-0.29-0.57-0.4
	c-0.24-0.11-0.51-0.21-0.81-0.3c-0.3-0.09-0.61-0.19-0.93-0.29c-0.32-0.11-0.63-0.23-0.93-0.37c-0.3-0.14-0.57-0.32-0.81-0.54
	c-0.24-0.22-0.43-0.49-0.57-0.81c-0.14-0.32-0.21-0.71-0.21-1.16c0-0.42,0.08-0.82,0.25-1.2c0.17-0.38,0.41-0.71,0.73-0.99
	c0.32-0.28,0.73-0.51,1.21-0.68c0.48-0.17,1.04-0.25,1.67-0.25c0.71,0,1.35,0.12,1.93,0.35c0.58,0.23,1.06,0.54,1.45,0.92
	L174.63,49.3z M177.47,57.54v-8.38l-0.89-0.14c-0.19-0.04-0.35-0.11-0.46-0.2c-0.12-0.1-0.17-0.23-0.17-0.41v-1.01h1.53v-0.33
	c0-0.63,0.1-1.21,0.31-1.74c0.21-0.54,0.52-1,0.94-1.39c0.42-0.39,0.95-0.7,1.59-0.92c0.64-0.22,1.4-0.33,2.27-0.33
	c0.28,0,0.56,0.01,0.85,0.04c0.29,0.03,0.54,0.08,0.75,0.14l-0.08,1.28c-0.01,0.15-0.1,0.24-0.25,0.27
	c-0.15,0.03-0.34,0.04-0.57,0.04c-0.65,0-1.19,0.06-1.62,0.17c-0.44,0.11-0.79,0.28-1.06,0.5c-0.27,0.22-0.46,0.5-0.58,0.84
	c-0.12,0.34-0.17,0.73-0.17,1.17v0.25h6.35v10.15h-2.47v-8.39h-3.8v8.39H177.47z M190.22,52.73c0.04,0.53,0.13,0.98,0.28,1.36
	c0.15,0.38,0.34,0.7,0.58,0.95c0.24,0.25,0.52,0.44,0.85,0.56c0.33,0.12,0.69,0.18,1.09,0.18s0.74-0.05,1.03-0.14
	c0.29-0.09,0.54-0.2,0.76-0.31c0.22-0.11,0.41-0.22,0.57-0.31c0.16-0.09,0.32-0.14,0.47-0.14c0.21,0,0.36,0.08,0.46,0.23l0.71,0.9
	c-0.27,0.32-0.58,0.59-0.92,0.8c-0.34,0.22-0.69,0.39-1.06,0.52c-0.37,0.13-0.75,0.22-1.13,0.27c-0.38,0.05-0.75,0.08-1.11,0.08
	c-0.71,0-1.37-0.12-1.99-0.35c-0.61-0.24-1.14-0.59-1.6-1.05c-0.45-0.46-0.81-1.03-1.07-1.72c-0.26-0.68-0.39-1.47-0.39-2.37
	c0-0.7,0.11-1.36,0.34-1.97c0.23-0.62,0.55-1.15,0.97-1.61c0.42-0.46,0.94-0.82,1.55-1.08c0.61-0.27,1.3-0.4,2.06-0.4
	c0.65,0,1.24,0.1,1.79,0.31c0.55,0.21,1.01,0.51,1.41,0.9c0.39,0.4,0.7,0.88,0.92,1.46c0.22,0.58,0.33,1.23,0.33,1.97
	c0,0.37-0.04,0.62-0.12,0.75c-0.08,0.13-0.23,0.19-0.46,0.19H190.22z M194.92,51.24c0-0.32-0.04-0.62-0.13-0.9
	c-0.09-0.28-0.22-0.53-0.4-0.74c-0.18-0.21-0.41-0.38-0.68-0.5c-0.28-0.12-0.6-0.18-0.96-0.18c-0.71,0-1.27,0.2-1.68,0.61
	c-0.41,0.41-0.67,0.98-0.78,1.73H194.92z M207.47,42.71v14.83h-1.51c-0.33,0-0.53-0.15-0.62-0.45l-0.21-0.99
	c-0.41,0.47-0.89,0.86-1.42,1.15c-0.54,0.29-1.16,0.44-1.87,0.44c-0.56,0-1.07-0.12-1.54-0.35c-0.47-0.23-0.87-0.57-1.2-1.01
	c-0.34-0.44-0.6-0.99-0.78-1.64c-0.18-0.65-0.27-1.4-0.27-2.24c0-0.76,0.1-1.46,0.31-2.12c0.21-0.65,0.5-1.22,0.89-1.7
	c0.39-0.48,0.85-0.85,1.39-1.12c0.54-0.27,1.14-0.4,1.82-0.4c0.57,0,1.06,0.09,1.47,0.27c0.41,0.18,0.77,0.42,1.09,0.73v-5.4H207.47
	z M205.01,49.92c-0.28-0.34-0.58-0.58-0.91-0.72c-0.33-0.14-0.68-0.21-1.06-0.21c-0.37,0-0.71,0.07-1.01,0.21
	c-0.3,0.14-0.56,0.35-0.77,0.63c-0.21,0.28-0.38,0.64-0.49,1.08c-0.11,0.44-0.17,0.95-0.17,1.54c0,0.6,0.05,1.11,0.14,1.52
	c0.1,0.42,0.23,0.76,0.41,1.02c0.18,0.26,0.4,0.45,0.66,0.57c0.26,0.12,0.55,0.17,0.87,0.17c0.51,0,0.95-0.11,1.31-0.32
	c0.36-0.21,0.7-0.52,1.02-0.91V49.92z"/>
<g>
	<path class="st1" d="M228,47.4l-3.26,10.14h-1.56c-0.19,0-0.31-0.12-0.38-0.37l-2.14-6.61c-0.05-0.17-0.1-0.33-0.14-0.49
		s-0.08-0.33-0.11-0.49c-0.06,0.35-0.14,0.68-0.25,1.01l-2.17,6.59c-0.07,0.25-0.21,0.37-0.43,0.37h-1.48l-3.27-10.14h1.54
		c0.15,0,0.28,0.04,0.38,0.11c0.1,0.07,0.17,0.17,0.2,0.28l1.83,6.23c0.06,0.25,0.11,0.5,0.16,0.74c0.05,0.24,0.09,0.48,0.13,0.72
		c0.06-0.24,0.12-0.48,0.19-0.72c0.07-0.24,0.14-0.49,0.21-0.74l2.03-6.27c0.03-0.11,0.1-0.2,0.19-0.27c0.09-0.07,0.21-0.1,0.34-0.1
		h0.85c0.15,0,0.27,0.04,0.36,0.1c0.1,0.07,0.16,0.16,0.2,0.27l1.98,6.27c0.07,0.25,0.14,0.5,0.21,0.74
		c0.07,0.24,0.13,0.49,0.18,0.73c0.04-0.24,0.09-0.48,0.14-0.72c0.05-0.24,0.11-0.49,0.18-0.75l1.86-6.23
		c0.03-0.11,0.1-0.21,0.21-0.28c0.1-0.07,0.22-0.11,0.35-0.11H228z"/>
	<path class="st1" d="M231.66,44.27c0,0.18-0.04,0.35-0.11,0.51s-0.17,0.31-0.29,0.43s-0.27,0.22-0.43,0.29
		c-0.17,0.07-0.34,0.1-0.52,0.1s-0.35-0.03-0.51-0.1c-0.16-0.07-0.3-0.17-0.42-0.29s-0.22-0.27-0.29-0.43
		c-0.07-0.16-0.1-0.33-0.1-0.51c0-0.19,0.04-0.36,0.1-0.52c0.07-0.16,0.17-0.31,0.29-0.43s0.26-0.22,0.42-0.29
		c0.16-0.07,0.33-0.1,0.51-0.1s0.35,0.03,0.52,0.1c0.17,0.07,0.31,0.17,0.43,0.29s0.22,0.27,0.29,0.43S231.66,44.08,231.66,44.27z
		 M231.29,47.4v10.14h-1.95V47.4H231.29z"/>
	<path class="st1" d="M236.89,57.7c-0.82,0-1.45-0.23-1.89-0.69c-0.44-0.46-0.66-1.11-0.66-1.97v-6.07h-1.18
		c-0.11,0-0.21-0.03-0.28-0.1c-0.08-0.07-0.12-0.17-0.12-0.31v-0.79l1.65-0.23l0.44-3.02c0.03-0.11,0.08-0.2,0.16-0.26
		c0.08-0.06,0.17-0.09,0.29-0.09h0.99v3.4h2.87v1.42h-2.87v5.94c0,0.4,0.1,0.7,0.29,0.89c0.2,0.2,0.45,0.29,0.75,0.29
		c0.18,0,0.33-0.02,0.46-0.07c0.13-0.05,0.24-0.1,0.33-0.15c0.09-0.06,0.17-0.11,0.24-0.15s0.13-0.07,0.18-0.07
		c0.07,0,0.12,0.01,0.15,0.04c0.04,0.03,0.08,0.08,0.12,0.14l0.58,0.94c-0.32,0.29-0.7,0.52-1.14,0.68
		C237.82,57.62,237.36,57.7,236.89,57.7z"/>
	<path class="st1" d="M242.49,48.69c0.43-0.43,0.9-0.78,1.41-1.05s1.11-0.4,1.78-0.4c0.56,0,1.05,0.09,1.47,0.28
		c0.42,0.19,0.78,0.45,1.06,0.78s0.5,0.74,0.65,1.21c0.15,0.47,0.22,1,0.22,1.57v6.46h-1.96v-6.46c0-0.73-0.17-1.29-0.5-1.69
		c-0.33-0.4-0.84-0.6-1.53-0.6c-0.5,0-0.97,0.12-1.4,0.35s-0.84,0.56-1.21,0.96v7.44h-1.95V42.81h1.95V48.69z"/>
	<path class="st1" d="M259.13,57.7c-0.82,0-1.45-0.23-1.89-0.69c-0.44-0.46-0.66-1.11-0.66-1.97v-6.07h-1.18
		c-0.11,0-0.21-0.03-0.28-0.1c-0.08-0.07-0.12-0.17-0.12-0.31v-0.79l1.65-0.23l0.44-3.02c0.03-0.11,0.08-0.2,0.16-0.26
		c0.08-0.06,0.17-0.09,0.29-0.09h0.99v3.4h2.87v1.42h-2.87v5.94c0,0.4,0.1,0.7,0.29,0.89c0.2,0.2,0.45,0.29,0.75,0.29
		c0.18,0,0.33-0.02,0.46-0.07c0.13-0.05,0.24-0.1,0.33-0.15c0.09-0.06,0.17-0.11,0.24-0.15s0.13-0.07,0.18-0.07
		c0.07,0,0.12,0.01,0.15,0.04c0.04,0.03,0.08,0.08,0.12,0.14l0.58,0.94c-0.32,0.29-0.7,0.52-1.14,0.68
		C260.06,57.62,259.6,57.7,259.13,57.7z"/>
	<path class="st1" d="M264.73,48.69c0.43-0.43,0.9-0.78,1.41-1.05s1.11-0.4,1.78-0.4c0.56,0,1.05,0.09,1.47,0.28
		c0.42,0.19,0.78,0.45,1.06,0.78s0.5,0.74,0.65,1.21c0.15,0.47,0.22,1,0.22,1.57v6.46h-1.96v-6.46c0-0.73-0.17-1.29-0.5-1.69
		c-0.33-0.4-0.84-0.6-1.53-0.6c-0.5,0-0.97,0.12-1.4,0.35s-0.84,0.56-1.21,0.96v7.44h-1.95V42.81h1.95V48.69z"/>
	<path class="st1" d="M281.87,56.1c-0.24,0.28-0.52,0.52-0.83,0.72s-0.65,0.37-1,0.49s-0.72,0.22-1.09,0.28
		c-0.38,0.06-0.75,0.09-1.11,0.09c-0.7,0-1.35-0.12-1.94-0.35c-0.6-0.24-1.11-0.58-1.55-1.04c-0.44-0.46-0.78-1.02-1.02-1.7
		c-0.24-0.68-0.36-1.45-0.36-2.33c0-0.71,0.11-1.36,0.33-1.97c0.22-0.61,0.53-1.14,0.94-1.59s0.91-0.81,1.5-1.07
		c0.59-0.26,1.26-0.39,2-0.39c0.62,0,1.19,0.1,1.71,0.3c0.52,0.2,0.97,0.5,1.35,0.88c0.38,0.39,0.68,0.86,0.89,1.43
		c0.22,0.57,0.33,1.21,0.33,1.94c0,0.3-0.03,0.5-0.1,0.6c-0.07,0.1-0.19,0.15-0.37,0.15h-6.65c0.02,0.61,0.11,1.13,0.26,1.58
		s0.36,0.82,0.63,1.12s0.59,0.52,0.96,0.67c0.37,0.15,0.79,0.22,1.25,0.22c0.43,0,0.81-0.05,1.12-0.15c0.32-0.1,0.59-0.21,0.82-0.32
		c0.23-0.12,0.42-0.22,0.58-0.32c0.16-0.1,0.29-0.15,0.41-0.15c0.16,0,0.28,0.06,0.37,0.18L281.87,56.1z M280.27,51.34
		c0-0.39-0.06-0.74-0.17-1.07s-0.27-0.61-0.48-0.85c-0.21-0.24-0.47-0.43-0.78-0.56c-0.31-0.13-0.66-0.2-1.06-0.2
		c-0.82,0-1.46,0.24-1.93,0.71c-0.47,0.47-0.77,1.13-0.89,1.97H280.27z"/>
	<path class="st1" d="M290.2,49.35c0.33-0.67,0.72-1.19,1.18-1.57c0.46-0.38,1.01-0.57,1.66-0.57c0.22,0,0.43,0.02,0.62,0.08
		c0.2,0.05,0.37,0.12,0.51,0.22l-0.13,1.47c-0.05,0.18-0.16,0.27-0.33,0.27c-0.09,0-0.23-0.02-0.42-0.05s-0.39-0.06-0.6-0.06
		c-0.31,0-0.59,0.04-0.83,0.13c-0.24,0.09-0.45,0.22-0.64,0.4c-0.19,0.18-0.36,0.39-0.5,0.65s-0.28,0.55-0.41,0.87v6.35h-1.95V47.4
		h1.12c0.21,0,0.36,0.04,0.43,0.11c0.08,0.08,0.13,0.21,0.16,0.4L290.2,49.35z"/>
	<path class="st1" d="M303.24,56.1c-0.24,0.28-0.52,0.52-0.83,0.72s-0.65,0.37-1,0.49s-0.72,0.22-1.09,0.28
		c-0.38,0.06-0.75,0.09-1.11,0.09c-0.7,0-1.35-0.12-1.94-0.35c-0.6-0.24-1.11-0.58-1.55-1.04c-0.44-0.46-0.78-1.02-1.02-1.7
		c-0.24-0.68-0.36-1.45-0.36-2.33c0-0.71,0.11-1.36,0.33-1.97c0.22-0.61,0.53-1.14,0.94-1.59s0.91-0.81,1.5-1.07
		c0.59-0.26,1.26-0.39,2-0.39c0.62,0,1.19,0.1,1.71,0.3c0.52,0.2,0.97,0.5,1.35,0.88c0.38,0.39,0.68,0.86,0.89,1.43
		c0.22,0.57,0.33,1.21,0.33,1.94c0,0.3-0.03,0.5-0.1,0.6c-0.07,0.1-0.19,0.15-0.37,0.15h-6.65c0.02,0.61,0.11,1.13,0.26,1.58
		s0.36,0.82,0.63,1.12s0.59,0.52,0.96,0.67c0.37,0.15,0.79,0.22,1.25,0.22c0.43,0,0.81-0.05,1.12-0.15c0.32-0.1,0.59-0.21,0.82-0.32
		c0.23-0.12,0.42-0.22,0.58-0.32c0.16-0.1,0.29-0.15,0.41-0.15c0.16,0,0.28,0.06,0.37,0.18L303.24,56.1z M301.64,51.34
		c0-0.39-0.06-0.74-0.17-1.07s-0.27-0.61-0.48-0.85c-0.21-0.24-0.47-0.43-0.78-0.56c-0.31-0.13-0.66-0.2-1.06-0.2
		c-0.82,0-1.46,0.24-1.93,0.71c-0.47,0.47-0.77,1.13-0.89,1.97H301.64z"/>
	<path class="st1" d="M311.07,49.15c-0.05,0.09-0.11,0.15-0.17,0.18c-0.06,0.04-0.14,0.05-0.23,0.05c-0.11,0-0.22-0.04-0.35-0.11
		s-0.29-0.15-0.47-0.24c-0.18-0.09-0.4-0.17-0.64-0.24c-0.25-0.07-0.54-0.11-0.88-0.11c-0.28,0-0.53,0.03-0.76,0.1
		s-0.42,0.17-0.58,0.29c-0.16,0.12-0.28,0.27-0.37,0.44c-0.09,0.17-0.13,0.35-0.13,0.54c0,0.25,0.08,0.46,0.22,0.63
		c0.15,0.17,0.35,0.31,0.59,0.43c0.24,0.12,0.52,0.23,0.83,0.32c0.31,0.1,0.63,0.2,0.95,0.3c0.32,0.11,0.64,0.23,0.95,0.36
		c0.31,0.14,0.59,0.31,0.83,0.51c0.24,0.2,0.44,0.45,0.59,0.73c0.15,0.29,0.22,0.64,0.22,1.05c0,0.47-0.08,0.91-0.25,1.31
		c-0.17,0.4-0.42,0.75-0.75,1.04c-0.33,0.29-0.74,0.52-1.22,0.69c-0.49,0.17-1.04,0.25-1.67,0.25c-0.7,0-1.34-0.12-1.94-0.35
		c-0.59-0.23-1.09-0.53-1.49-0.89l0.46-0.75c0.05-0.09,0.12-0.16,0.2-0.21s0.19-0.08,0.32-0.08c0.13,0,0.26,0.05,0.39,0.14
		s0.29,0.19,0.48,0.3c0.19,0.11,0.41,0.21,0.68,0.3c0.27,0.09,0.6,0.13,1,0.13c0.33,0,0.62-0.04,0.87-0.12s0.45-0.2,0.61-0.34
		s0.29-0.31,0.36-0.49c0.08-0.19,0.12-0.38,0.12-0.59c0-0.27-0.08-0.49-0.22-0.66s-0.35-0.33-0.59-0.45
		c-0.24-0.13-0.52-0.24-0.83-0.33c-0.31-0.09-0.63-0.19-0.96-0.3c-0.33-0.11-0.65-0.23-0.96-0.37c-0.31-0.14-0.59-0.32-0.83-0.53
		c-0.24-0.21-0.44-0.47-0.59-0.78s-0.22-0.68-0.22-1.12c0-0.39,0.08-0.77,0.24-1.13s0.4-0.68,0.71-0.95
		c0.31-0.27,0.69-0.49,1.15-0.65c0.46-0.16,0.98-0.24,1.56-0.24c0.67,0,1.28,0.11,1.82,0.32s1.01,0.51,1.39,0.88L311.07,49.15z"/>
	<path class="st1" d="M321.8,47.4v10.14h-1.17c-0.27,0-0.44-0.13-0.52-0.39l-0.14-1.02c-0.22,0.23-0.45,0.45-0.69,0.64
		s-0.5,0.36-0.77,0.49s-0.56,0.24-0.87,0.32c-0.31,0.08-0.64,0.11-0.99,0.11c-0.56,0-1.05-0.09-1.47-0.28
		c-0.42-0.19-0.78-0.45-1.06-0.78s-0.5-0.74-0.65-1.21c-0.15-0.47-0.22-0.99-0.22-1.57V47.4h1.96v6.46c0,0.73,0.17,1.29,0.5,1.69
		c0.33,0.4,0.84,0.6,1.53,0.6c0.5,0,0.96-0.12,1.4-0.35s0.84-0.56,1.22-0.97V47.4H321.8z"/>
	<path class="st1" d="M326.14,42.81v14.73h-1.96V42.81H326.14z"/>
	<path class="st1" d="M331.69,57.7c-0.82,0-1.45-0.23-1.89-0.69c-0.44-0.46-0.66-1.11-0.66-1.97v-6.07h-1.18
		c-0.11,0-0.21-0.03-0.28-0.1c-0.08-0.07-0.12-0.17-0.12-0.31v-0.79l1.65-0.23l0.44-3.02c0.03-0.11,0.08-0.2,0.16-0.26
		c0.08-0.06,0.17-0.09,0.29-0.09h0.99v3.4h2.87v1.42h-2.87v5.94c0,0.4,0.1,0.7,0.29,0.89c0.2,0.2,0.45,0.29,0.75,0.29
		c0.18,0,0.33-0.02,0.46-0.07c0.13-0.05,0.24-0.1,0.33-0.15c0.09-0.06,0.17-0.11,0.24-0.15s0.13-0.07,0.18-0.07
		c0.07,0,0.12,0.01,0.15,0.04c0.04,0.03,0.08,0.08,0.12,0.14l0.58,0.94c-0.32,0.29-0.7,0.52-1.14,0.68
		C332.62,57.62,332.16,57.7,331.69,57.7z"/>
	<path class="st1" d="M344.3,47.24c0.75,0,1.42,0.12,2.02,0.36c0.6,0.24,1.12,0.59,1.54,1.05c0.42,0.46,0.75,1,0.97,1.65
		c0.23,0.64,0.34,1.36,0.34,2.16c0,0.8-0.11,1.52-0.34,2.17c-0.23,0.65-0.55,1.19-0.97,1.65c-0.42,0.45-0.93,0.8-1.54,1.04
		c-0.6,0.24-1.28,0.36-2.02,0.36c-0.75,0-1.43-0.12-2.03-0.36c-0.6-0.24-1.12-0.59-1.54-1.04s-0.75-1-0.98-1.65
		s-0.34-1.37-0.34-2.17c0-0.8,0.12-1.52,0.34-2.16s0.56-1.19,0.98-1.65c0.43-0.46,0.94-0.81,1.54-1.05
		C342.87,47.36,343.55,47.24,344.3,47.24z M344.3,56.17c0.96,0,1.67-0.32,2.15-0.97c0.47-0.65,0.71-1.55,0.71-2.72
		s-0.24-2.08-0.71-2.73s-1.19-0.97-2.15-0.97c-0.97,0-1.7,0.32-2.17,0.97s-0.71,1.56-0.71,2.73s0.24,2.08,0.71,2.72
		C342.61,55.84,343.33,56.17,344.3,56.17z"/>
	<path class="st1" d="M351.39,57.54V49l-1.06-0.13c-0.15-0.03-0.28-0.09-0.38-0.17c-0.1-0.08-0.14-0.19-0.14-0.33v-0.81h1.58v-0.92
		c0-0.58,0.08-1.09,0.25-1.55c0.17-0.45,0.4-0.84,0.71-1.15s0.68-0.56,1.12-0.72s0.93-0.24,1.47-0.24c0.46,0,0.88,0.07,1.27,0.2
		l-0.04,0.98c-0.01,0.09-0.03,0.15-0.08,0.19s-0.11,0.07-0.18,0.09c-0.08,0.02-0.17,0.03-0.28,0.04c-0.11,0-0.23,0-0.35,0
		c-0.3,0-0.57,0.04-0.82,0.11s-0.46,0.2-0.63,0.37c-0.17,0.17-0.31,0.4-0.4,0.68c-0.09,0.28-0.14,0.63-0.14,1.05v0.86h2.84v1.42
		h-2.79v8.56H351.39z"/>
	<path class="st1" d="M364.81,57.7c-0.82,0-1.45-0.23-1.89-0.69c-0.44-0.46-0.66-1.11-0.66-1.97v-6.07h-1.18
		c-0.11,0-0.21-0.03-0.28-0.1c-0.08-0.07-0.12-0.17-0.12-0.31v-0.79l1.65-0.23l0.44-3.02c0.03-0.11,0.08-0.2,0.16-0.26
		c0.08-0.06,0.17-0.09,0.29-0.09h0.99v3.4h2.87v1.42h-2.87v5.94c0,0.4,0.1,0.7,0.29,0.89c0.2,0.2,0.45,0.29,0.75,0.29
		c0.18,0,0.33-0.02,0.46-0.07c0.13-0.05,0.24-0.1,0.33-0.15c0.09-0.06,0.17-0.11,0.24-0.15s0.13-0.07,0.18-0.07
		c0.07,0,0.12,0.01,0.15,0.04c0.04,0.03,0.08,0.08,0.12,0.14l0.58,0.94c-0.32,0.29-0.7,0.52-1.14,0.68
		C365.74,57.62,365.29,57.7,364.81,57.7z"/>
	<path class="st1" d="M370.41,48.69c0.43-0.43,0.9-0.78,1.41-1.05s1.11-0.4,1.78-0.4c0.56,0,1.05,0.09,1.47,0.28
		c0.42,0.19,0.78,0.45,1.06,0.78s0.5,0.74,0.65,1.21c0.15,0.47,0.22,1,0.22,1.57v6.46h-1.96v-6.46c0-0.73-0.17-1.29-0.5-1.69
		c-0.33-0.4-0.84-0.6-1.53-0.6c-0.5,0-0.97,0.12-1.4,0.35s-0.84,0.56-1.21,0.96v7.44h-1.95V42.81h1.95V48.69z"/>
	<path class="st1" d="M387.56,56.1c-0.24,0.28-0.52,0.52-0.83,0.72s-0.65,0.37-1,0.49s-0.72,0.22-1.09,0.28
		c-0.38,0.06-0.75,0.09-1.11,0.09c-0.7,0-1.35-0.12-1.94-0.35c-0.6-0.24-1.11-0.58-1.55-1.04c-0.44-0.46-0.78-1.02-1.02-1.7
		c-0.24-0.68-0.36-1.45-0.36-2.33c0-0.71,0.11-1.36,0.33-1.97c0.22-0.61,0.53-1.14,0.94-1.59s0.91-0.81,1.5-1.07
		c0.59-0.26,1.26-0.39,2-0.39c0.62,0,1.19,0.1,1.71,0.3c0.52,0.2,0.97,0.5,1.35,0.88c0.38,0.39,0.68,0.86,0.89,1.43
		c0.22,0.57,0.33,1.21,0.33,1.94c0,0.3-0.03,0.5-0.1,0.6c-0.07,0.1-0.19,0.15-0.37,0.15h-6.65c0.02,0.61,0.11,1.13,0.26,1.58
		s0.36,0.82,0.63,1.12s0.59,0.52,0.96,0.67c0.37,0.15,0.79,0.22,1.25,0.22c0.43,0,0.81-0.05,1.12-0.15c0.32-0.1,0.59-0.21,0.82-0.32
		c0.23-0.12,0.42-0.22,0.58-0.32c0.16-0.1,0.29-0.15,0.41-0.15c0.16,0,0.28,0.06,0.37,0.18L387.56,56.1z M385.95,51.34
		c0-0.39-0.06-0.74-0.17-1.07s-0.27-0.61-0.48-0.85c-0.21-0.24-0.47-0.43-0.78-0.56c-0.31-0.13-0.66-0.2-1.06-0.2
		c-0.82,0-1.46,0.24-1.93,0.71c-0.47,0.47-0.77,1.13-0.89,1.97H385.95z"/>
	<path class="st1" d="M391.81,44.27c0,0.18-0.04,0.35-0.11,0.51s-0.17,0.31-0.29,0.43s-0.27,0.22-0.43,0.29
		c-0.17,0.07-0.34,0.1-0.52,0.1s-0.35-0.03-0.51-0.1c-0.16-0.07-0.3-0.17-0.42-0.29s-0.22-0.27-0.29-0.43
		c-0.07-0.16-0.1-0.33-0.1-0.51c0-0.19,0.04-0.36,0.1-0.52c0.07-0.16,0.17-0.31,0.29-0.43s0.26-0.22,0.42-0.29
		c0.16-0.07,0.33-0.1,0.51-0.1s0.35,0.03,0.52,0.1c0.17,0.07,0.31,0.17,0.43,0.29s0.22,0.27,0.29,0.43S391.81,44.08,391.81,44.27z
		 M391.44,47.4v10.14h-1.95V47.4H391.44z"/>
	<path class="st1" d="M395.71,49.35c0.33-0.67,0.72-1.19,1.18-1.57c0.46-0.38,1.01-0.57,1.66-0.57c0.22,0,0.43,0.02,0.62,0.08
		c0.2,0.05,0.37,0.12,0.51,0.22l-0.13,1.47c-0.05,0.18-0.16,0.27-0.33,0.27c-0.09,0-0.23-0.02-0.42-0.05s-0.39-0.06-0.6-0.06
		c-0.31,0-0.59,0.04-0.83,0.13c-0.24,0.09-0.45,0.22-0.64,0.4c-0.19,0.18-0.36,0.39-0.5,0.65s-0.28,0.55-0.41,0.87v6.35h-1.95V47.4
		h1.12c0.21,0,0.36,0.04,0.43,0.11c0.08,0.08,0.13,0.21,0.16,0.4L395.71,49.35z"/>
	<path class="st1" d="M412.82,45.55c-0.07,0.11-0.14,0.2-0.21,0.25s-0.17,0.08-0.28,0.08c-0.12,0-0.26-0.05-0.41-0.16
		s-0.34-0.23-0.57-0.37c-0.23-0.14-0.5-0.26-0.82-0.37s-0.7-0.16-1.15-0.16c-0.42,0-0.79,0.05-1.1,0.16
		c-0.32,0.11-0.58,0.26-0.79,0.45s-0.37,0.41-0.48,0.67c-0.11,0.26-0.16,0.53-0.16,0.83c0,0.39,0.1,0.71,0.29,0.96
		s0.45,0.47,0.77,0.65c0.32,0.18,0.68,0.34,1.09,0.47c0.41,0.13,0.82,0.27,1.25,0.41s0.84,0.31,1.25,0.49
		c0.41,0.19,0.77,0.42,1.09,0.7c0.32,0.28,0.58,0.63,0.77,1.04c0.2,0.41,0.29,0.91,0.29,1.5c0,0.63-0.11,1.22-0.32,1.78
		c-0.22,0.55-0.53,1.04-0.94,1.45c-0.41,0.41-0.92,0.74-1.52,0.97c-0.6,0.24-1.29,0.35-2.05,0.35c-0.46,0-0.91-0.04-1.34-0.13
		s-0.84-0.22-1.23-0.38c-0.39-0.16-0.75-0.36-1.08-0.59s-0.64-0.49-0.9-0.77l0.61-1.02c0.06-0.08,0.13-0.15,0.21-0.2
		c0.08-0.05,0.18-0.08,0.28-0.08c0.14,0,0.3,0.07,0.48,0.22c0.18,0.15,0.41,0.31,0.68,0.48s0.59,0.34,0.97,0.48
		c0.38,0.15,0.83,0.22,1.37,0.22c0.44,0,0.83-0.06,1.18-0.17c0.35-0.12,0.64-0.28,0.87-0.5s0.42-0.48,0.54-0.78
		c0.13-0.31,0.19-0.65,0.19-1.02c0-0.42-0.1-0.76-0.29-1.03c-0.19-0.27-0.45-0.49-0.77-0.67c-0.32-0.18-0.68-0.33-1.09-0.46
		c-0.41-0.13-0.82-0.26-1.25-0.39s-0.84-0.29-1.25-0.47c-0.41-0.18-0.77-0.41-1.09-0.7s-0.58-0.65-0.77-1.09
		c-0.19-0.44-0.29-0.97-0.29-1.61c0-0.51,0.1-1.01,0.3-1.49c0.2-0.48,0.49-0.9,0.87-1.27c0.38-0.37,0.85-0.67,1.41-0.89
		c0.56-0.22,1.2-0.33,1.92-0.33c0.81,0,1.55,0.13,2.22,0.38c0.67,0.26,1.26,0.62,1.76,1.1L412.82,45.55z"/>
	<path class="st1" d="M419.75,47.24c0.75,0,1.42,0.12,2.02,0.36c0.6,0.24,1.12,0.59,1.54,1.05c0.42,0.46,0.75,1,0.97,1.65
		c0.23,0.64,0.34,1.36,0.34,2.16c0,0.8-0.11,1.52-0.34,2.17c-0.23,0.65-0.55,1.19-0.97,1.65c-0.42,0.45-0.93,0.8-1.54,1.04
		c-0.6,0.24-1.28,0.36-2.02,0.36c-0.75,0-1.43-0.12-2.03-0.36c-0.6-0.24-1.12-0.59-1.54-1.04s-0.75-1-0.98-1.65
		s-0.34-1.37-0.34-2.17c0-0.8,0.12-1.52,0.34-2.16s0.56-1.19,0.98-1.65c0.43-0.46,0.94-0.81,1.54-1.05
		C418.32,47.36,419,47.24,419.75,47.24z M419.75,56.17c0.96,0,1.67-0.32,2.15-0.97c0.47-0.65,0.71-1.55,0.71-2.72
		s-0.24-2.08-0.71-2.73s-1.19-0.97-2.15-0.97c-0.97,0-1.7,0.32-2.17,0.97s-0.71,1.56-0.71,2.73s0.24,2.08,0.71,2.72
		C418.05,55.84,418.78,56.17,419.75,56.17z"/>
	<path class="st1" d="M428.4,42.81v14.73h-1.96V42.81H428.4z"/>
	<path class="st1" d="M435.1,47.24c0.75,0,1.42,0.12,2.02,0.36c0.6,0.24,1.12,0.59,1.54,1.05c0.42,0.46,0.75,1,0.97,1.65
		c0.23,0.64,0.34,1.36,0.34,2.16c0,0.8-0.11,1.52-0.34,2.17c-0.23,0.65-0.55,1.19-0.97,1.65c-0.42,0.45-0.93,0.8-1.54,1.04
		c-0.6,0.24-1.28,0.36-2.02,0.36c-0.75,0-1.43-0.12-2.03-0.36c-0.6-0.24-1.12-0.59-1.54-1.04s-0.75-1-0.98-1.65
		s-0.34-1.37-0.34-2.17c0-0.8,0.12-1.52,0.34-2.16s0.56-1.19,0.98-1.65c0.43-0.46,0.94-0.81,1.54-1.05
		C433.67,47.36,434.35,47.24,435.1,47.24z M435.1,56.17c0.96,0,1.67-0.32,2.15-0.97c0.47-0.65,0.71-1.55,0.71-2.72
		s-0.24-2.08-0.71-2.73s-1.19-0.97-2.15-0.97c-0.97,0-1.7,0.32-2.17,0.97s-0.71,1.56-0.71,2.73s0.24,2.08,0.71,2.72
		C433.4,55.84,434.13,56.17,435.1,56.17z"/>
	<path class="st1" d="M447.74,49.15c-0.05,0.09-0.11,0.15-0.17,0.18c-0.06,0.04-0.14,0.05-0.23,0.05c-0.11,0-0.22-0.04-0.35-0.11
		s-0.29-0.15-0.47-0.24c-0.18-0.09-0.4-0.17-0.64-0.24c-0.25-0.07-0.54-0.11-0.88-0.11c-0.28,0-0.53,0.03-0.76,0.1
		s-0.42,0.17-0.58,0.29c-0.16,0.12-0.28,0.27-0.37,0.44c-0.09,0.17-0.13,0.35-0.13,0.54c0,0.25,0.08,0.46,0.22,0.63
		c0.15,0.17,0.35,0.31,0.59,0.43c0.24,0.12,0.52,0.23,0.83,0.32c0.31,0.1,0.63,0.2,0.95,0.3c0.32,0.11,0.64,0.23,0.95,0.36
		c0.31,0.14,0.59,0.31,0.83,0.51c0.24,0.2,0.44,0.45,0.59,0.73c0.15,0.29,0.22,0.64,0.22,1.05c0,0.47-0.08,0.91-0.25,1.31
		c-0.17,0.4-0.42,0.75-0.75,1.04c-0.33,0.29-0.74,0.52-1.22,0.69c-0.49,0.17-1.04,0.25-1.67,0.25c-0.7,0-1.34-0.12-1.94-0.35
		c-0.59-0.23-1.09-0.53-1.49-0.89l0.46-0.75c0.05-0.09,0.12-0.16,0.2-0.21s0.19-0.08,0.32-0.08c0.13,0,0.26,0.05,0.39,0.14
		s0.29,0.19,0.48,0.3c0.19,0.11,0.41,0.21,0.68,0.3c0.27,0.09,0.6,0.13,1,0.13c0.33,0,0.62-0.04,0.87-0.12s0.45-0.2,0.61-0.34
		s0.29-0.31,0.36-0.49c0.08-0.19,0.12-0.38,0.12-0.59c0-0.27-0.08-0.49-0.22-0.66s-0.35-0.33-0.59-0.45
		c-0.24-0.13-0.52-0.24-0.83-0.33c-0.31-0.09-0.63-0.19-0.96-0.3c-0.33-0.11-0.65-0.23-0.96-0.37c-0.31-0.14-0.59-0.32-0.83-0.53
		c-0.24-0.21-0.44-0.47-0.59-0.78s-0.22-0.68-0.22-1.12c0-0.39,0.08-0.77,0.24-1.13s0.4-0.68,0.71-0.95
		c0.31-0.27,0.69-0.49,1.15-0.65c0.46-0.16,0.98-0.24,1.56-0.24c0.67,0,1.28,0.11,1.82,0.32s1.01,0.51,1.39,0.88L447.74,49.15z"/>
	<path class="st1" d="M458.35,56.1c-0.24,0.28-0.52,0.52-0.83,0.72s-0.65,0.37-1,0.49s-0.72,0.22-1.09,0.28
		c-0.38,0.06-0.75,0.09-1.11,0.09c-0.7,0-1.35-0.12-1.94-0.35c-0.6-0.24-1.11-0.58-1.55-1.04c-0.44-0.46-0.78-1.02-1.02-1.7
		c-0.24-0.68-0.36-1.45-0.36-2.33c0-0.71,0.11-1.36,0.33-1.97c0.22-0.61,0.53-1.14,0.94-1.59s0.91-0.81,1.5-1.07
		c0.59-0.26,1.26-0.39,2-0.39c0.62,0,1.19,0.1,1.71,0.3c0.52,0.2,0.97,0.5,1.35,0.88c0.38,0.39,0.68,0.86,0.89,1.43
		c0.22,0.57,0.33,1.21,0.33,1.94c0,0.3-0.03,0.5-0.1,0.6c-0.07,0.1-0.19,0.15-0.37,0.15h-6.65c0.02,0.61,0.11,1.13,0.26,1.58
		s0.36,0.82,0.63,1.12s0.59,0.52,0.96,0.67c0.37,0.15,0.79,0.22,1.25,0.22c0.43,0,0.81-0.05,1.12-0.15c0.32-0.1,0.59-0.21,0.82-0.32
		c0.23-0.12,0.42-0.22,0.58-0.32c0.16-0.1,0.29-0.15,0.41-0.15c0.16,0,0.28,0.06,0.37,0.18L458.35,56.1z M456.75,51.34
		c0-0.39-0.06-0.74-0.17-1.07s-0.27-0.61-0.48-0.85c-0.21-0.24-0.47-0.43-0.78-0.56c-0.31-0.13-0.66-0.2-1.06-0.2
		c-0.82,0-1.46,0.24-1.93,0.71c-0.47,0.47-0.77,1.13-0.89,1.97H456.75z"/>
	<path class="st1" d="M467.31,49.3c-0.06,0.07-0.12,0.13-0.17,0.17c-0.06,0.04-0.14,0.06-0.24,0.06s-0.22-0.04-0.33-0.12
		c-0.12-0.08-0.26-0.17-0.44-0.27c-0.18-0.1-0.39-0.19-0.64-0.27c-0.25-0.08-0.56-0.12-0.92-0.12c-0.48,0-0.9,0.09-1.27,0.26
		c-0.37,0.17-0.67,0.42-0.91,0.74c-0.24,0.32-0.43,0.71-0.55,1.17c-0.13,0.46-0.19,0.98-0.19,1.55c0,0.59,0.07,1.12,0.2,1.58
		c0.13,0.46,0.32,0.85,0.57,1.17s0.54,0.56,0.9,0.72c0.35,0.16,0.75,0.24,1.18,0.24c0.42,0,0.76-0.05,1.04-0.15
		c0.27-0.1,0.5-0.21,0.68-0.33s0.33-0.23,0.45-0.33c0.12-0.1,0.24-0.15,0.37-0.15c0.16,0,0.28,0.06,0.37,0.18l0.56,0.72
		c-0.23,0.29-0.49,0.53-0.78,0.73c-0.29,0.2-0.6,0.36-0.92,0.49c-0.33,0.13-0.67,0.22-1.02,0.28c-0.36,0.06-0.72,0.09-1.08,0.09
		c-0.63,0-1.22-0.12-1.77-0.35s-1.03-0.57-1.43-1.02s-0.72-0.99-0.95-1.64c-0.23-0.65-0.35-1.39-0.35-2.21
		c0-0.75,0.11-1.45,0.31-2.09c0.21-0.64,0.52-1.19,0.93-1.65s0.91-0.82,1.51-1.09c0.6-0.26,1.28-0.39,2.06-0.39
		c0.72,0,1.36,0.12,1.92,0.35s1.04,0.56,1.48,0.99L467.31,49.3z"/>
	<path class="st1" d="M477.17,57.7c-0.82,0-1.45-0.23-1.89-0.69c-0.44-0.46-0.66-1.11-0.66-1.97v-6.07h-1.18
		c-0.11,0-0.21-0.03-0.28-0.1c-0.08-0.07-0.12-0.17-0.12-0.31v-0.79l1.65-0.23l0.44-3.02c0.03-0.11,0.08-0.2,0.16-0.26
		c0.08-0.06,0.17-0.09,0.29-0.09h0.99v3.4h2.87v1.42h-2.87v5.94c0,0.4,0.1,0.7,0.29,0.89c0.2,0.2,0.45,0.29,0.75,0.29
		c0.18,0,0.33-0.02,0.46-0.07c0.13-0.05,0.24-0.1,0.33-0.15c0.09-0.06,0.17-0.11,0.24-0.15s0.13-0.07,0.18-0.07
		c0.07,0,0.12,0.01,0.15,0.04c0.04,0.03,0.08,0.08,0.12,0.14l0.58,0.94c-0.32,0.29-0.7,0.52-1.14,0.68
		C478.1,57.62,477.64,57.7,477.17,57.7z"/>
	<path class="st1" d="M482.66,49.35c0.33-0.67,0.72-1.19,1.18-1.57c0.46-0.38,1.01-0.57,1.66-0.57c0.22,0,0.43,0.02,0.62,0.08
		c0.2,0.05,0.37,0.12,0.51,0.22l-0.13,1.47c-0.05,0.18-0.16,0.27-0.33,0.27c-0.09,0-0.23-0.02-0.42-0.05s-0.39-0.06-0.6-0.06
		c-0.31,0-0.59,0.04-0.83,0.13c-0.24,0.09-0.45,0.22-0.64,0.4c-0.19,0.18-0.36,0.39-0.5,0.65s-0.28,0.55-0.41,0.87v6.35h-1.95V47.4
		h1.12c0.21,0,0.36,0.04,0.43,0.11c0.08,0.08,0.13,0.21,0.16,0.4L482.66,49.35z"/>
	<path class="st1" d="M495.7,56.1c-0.24,0.28-0.52,0.52-0.83,0.72s-0.65,0.37-1,0.49s-0.72,0.22-1.09,0.28
		c-0.38,0.06-0.75,0.09-1.11,0.09c-0.7,0-1.35-0.12-1.94-0.35c-0.6-0.24-1.11-0.58-1.55-1.04c-0.44-0.46-0.78-1.02-1.02-1.7
		c-0.24-0.68-0.36-1.45-0.36-2.33c0-0.71,0.11-1.36,0.33-1.97c0.22-0.61,0.53-1.14,0.94-1.59s0.91-0.81,1.5-1.07
		c0.59-0.26,1.26-0.39,2-0.39c0.62,0,1.19,0.1,1.71,0.3c0.52,0.2,0.97,0.5,1.35,0.88c0.38,0.39,0.68,0.86,0.89,1.43
		c0.22,0.57,0.33,1.21,0.33,1.94c0,0.3-0.03,0.5-0.1,0.6c-0.07,0.1-0.19,0.15-0.37,0.15h-6.65c0.02,0.61,0.11,1.13,0.26,1.58
		s0.36,0.82,0.63,1.12s0.59,0.52,0.96,0.67c0.37,0.15,0.79,0.22,1.25,0.22c0.43,0,0.81-0.05,1.12-0.15c0.32-0.1,0.59-0.21,0.82-0.32
		c0.23-0.12,0.42-0.22,0.58-0.32c0.16-0.1,0.29-0.15,0.41-0.15c0.16,0,0.28,0.06,0.37,0.18L495.7,56.1z M494.1,51.34
		c0-0.39-0.06-0.74-0.17-1.07s-0.27-0.61-0.48-0.85c-0.21-0.24-0.47-0.43-0.78-0.56c-0.31-0.13-0.66-0.2-1.06-0.2
		c-0.82,0-1.46,0.24-1.93,0.71c-0.47,0.47-0.77,1.13-0.89,1.97H494.1z"/>
	<path class="st1" d="M497.29,48.82c0.57-0.54,1.18-0.94,1.84-1.21s1.39-0.4,2.18-0.4c0.58,0,1.09,0.09,1.54,0.28
		c0.45,0.19,0.82,0.45,1.13,0.79c0.31,0.34,0.54,0.75,0.69,1.22c0.16,0.47,0.23,0.99,0.23,1.57v6.47h-0.87
		c-0.19,0-0.34-0.03-0.44-0.09c-0.1-0.06-0.18-0.18-0.24-0.35l-0.21-0.89c-0.26,0.24-0.52,0.45-0.77,0.63s-0.52,0.34-0.79,0.47
		c-0.28,0.13-0.57,0.23-0.88,0.29s-0.66,0.1-1.04,0.1c-0.4,0-0.77-0.05-1.12-0.16s-0.65-0.28-0.91-0.5
		c-0.26-0.23-0.46-0.51-0.61-0.85c-0.15-0.34-0.22-0.74-0.22-1.19c0-0.4,0.11-0.78,0.33-1.15c0.22-0.37,0.57-0.7,1.06-0.99
		c0.49-0.29,1.13-0.53,1.92-0.72c0.79-0.19,1.76-0.29,2.91-0.32v-0.74c0-0.77-0.16-1.34-0.49-1.72s-0.81-0.57-1.44-0.57
		c-0.43,0-0.78,0.05-1.07,0.16c-0.29,0.11-0.54,0.22-0.75,0.35c-0.21,0.13-0.39,0.25-0.55,0.35c-0.16,0.11-0.32,0.16-0.48,0.16
		c-0.13,0-0.25-0.04-0.34-0.11c-0.1-0.07-0.17-0.16-0.23-0.26L497.29,48.82z M503,53.04c-0.79,0.03-1.46,0.09-2.02,0.18
		c-0.55,0.1-1,0.22-1.35,0.38c-0.35,0.16-0.6,0.35-0.75,0.56c-0.15,0.22-0.23,0.46-0.23,0.72c0,0.25,0.04,0.47,0.12,0.65
		c0.08,0.18,0.2,0.33,0.34,0.45c0.14,0.12,0.31,0.2,0.5,0.25s0.4,0.08,0.63,0.08c0.3,0,0.57-0.03,0.82-0.09
		c0.25-0.06,0.48-0.15,0.7-0.25c0.22-0.11,0.43-0.24,0.63-0.4c0.2-0.16,0.4-0.34,0.59-0.55V53.04z"/>
	<path class="st1" d="M510.18,57.7c-0.82,0-1.45-0.23-1.89-0.69c-0.44-0.46-0.66-1.11-0.66-1.97v-6.07h-1.18
		c-0.11,0-0.21-0.03-0.28-0.1c-0.08-0.07-0.12-0.17-0.12-0.31v-0.79l1.65-0.23l0.44-3.02c0.03-0.11,0.08-0.2,0.16-0.26
		c0.08-0.06,0.17-0.09,0.29-0.09h0.99v3.4h2.87v1.42h-2.87v5.94c0,0.4,0.1,0.7,0.29,0.89c0.2,0.2,0.45,0.29,0.75,0.29
		c0.18,0,0.33-0.02,0.46-0.07c0.13-0.05,0.24-0.1,0.33-0.15c0.09-0.06,0.17-0.11,0.24-0.15s0.13-0.07,0.18-0.07
		c0.07,0,0.12,0.01,0.15,0.04c0.04,0.03,0.08,0.08,0.12,0.14l0.58,0.94c-0.32,0.29-0.7,0.52-1.14,0.68
		C511.1,57.62,510.65,57.7,510.18,57.7z"/>
	<path class="st1" d="M513.83,57.54V47.4H515c0.27,0,0.44,0.13,0.51,0.39l0.14,0.97c0.37-0.45,0.79-0.81,1.24-1.09
		c0.46-0.28,0.99-0.42,1.6-0.42c0.67,0,1.22,0.18,1.64,0.55c0.42,0.37,0.73,0.87,0.92,1.5c0.15-0.36,0.34-0.67,0.57-0.93
		c0.23-0.26,0.49-0.47,0.78-0.64c0.29-0.17,0.59-0.29,0.91-0.37c0.32-0.08,0.65-0.12,0.98-0.12c0.54,0,1.02,0.08,1.44,0.25
		c0.42,0.17,0.78,0.42,1.07,0.74s0.52,0.73,0.67,1.21c0.15,0.48,0.23,1.02,0.23,1.64v6.46h-1.96v-6.46c0-0.76-0.17-1.33-0.49-1.72
		c-0.33-0.39-0.81-0.58-1.44-0.58c-0.28,0-0.55,0.05-0.8,0.14c-0.25,0.1-0.47,0.24-0.66,0.43c-0.19,0.19-0.34,0.43-0.45,0.72
		c-0.11,0.29-0.17,0.62-0.17,1v6.46h-1.96v-6.46c0-0.79-0.16-1.36-0.47-1.74c-0.31-0.37-0.77-0.56-1.38-0.56
		c-0.42,0-0.81,0.11-1.17,0.33c-0.36,0.22-0.69,0.52-0.99,0.9v7.53H513.83z"/>
	<path class="st1" d="M538.25,56.1c-0.24,0.28-0.52,0.52-0.83,0.72s-0.65,0.37-1,0.49s-0.72,0.22-1.09,0.28
		c-0.38,0.06-0.75,0.09-1.11,0.09c-0.7,0-1.35-0.12-1.94-0.35c-0.6-0.24-1.11-0.58-1.55-1.04c-0.44-0.46-0.78-1.02-1.02-1.7
		c-0.24-0.68-0.36-1.45-0.36-2.33c0-0.71,0.11-1.36,0.33-1.97c0.22-0.61,0.53-1.14,0.94-1.59s0.91-0.81,1.5-1.07
		c0.59-0.26,1.26-0.39,2-0.39c0.62,0,1.19,0.1,1.71,0.3c0.52,0.2,0.97,0.5,1.35,0.88c0.38,0.39,0.68,0.86,0.89,1.43
		c0.22,0.57,0.33,1.21,0.33,1.94c0,0.3-0.03,0.5-0.1,0.6c-0.07,0.1-0.19,0.15-0.37,0.15h-6.65c0.02,0.61,0.11,1.13,0.26,1.58
		s0.36,0.82,0.63,1.12s0.59,0.52,0.96,0.67c0.37,0.15,0.79,0.22,1.25,0.22c0.43,0,0.81-0.05,1.12-0.15c0.32-0.1,0.59-0.21,0.82-0.32
		c0.23-0.12,0.42-0.22,0.58-0.32c0.16-0.1,0.29-0.15,0.41-0.15c0.16,0,0.28,0.06,0.37,0.18L538.25,56.1z M536.65,51.34
		c0-0.39-0.06-0.74-0.17-1.07s-0.27-0.61-0.48-0.85c-0.21-0.24-0.47-0.43-0.78-0.56c-0.31-0.13-0.66-0.2-1.06-0.2
		c-0.82,0-1.46,0.24-1.93,0.71c-0.47,0.47-0.77,1.13-0.89,1.97H536.65z"/>
	<path class="st1" d="M541.93,48.81c0.22-0.23,0.45-0.45,0.69-0.64s0.49-0.36,0.76-0.49s0.56-0.24,0.87-0.32s0.64-0.11,0.99-0.11
		c0.56,0,1.05,0.09,1.47,0.28c0.42,0.19,0.78,0.45,1.06,0.78s0.5,0.74,0.65,1.21c0.15,0.47,0.22,1,0.22,1.57v6.46h-1.96v-6.46
		c0-0.73-0.17-1.29-0.5-1.69c-0.33-0.4-0.84-0.6-1.53-0.6c-0.5,0-0.97,0.12-1.4,0.35s-0.84,0.56-1.21,0.96v7.44h-1.95V47.4h1.17
		c0.27,0,0.44,0.13,0.51,0.39L541.93,48.81z"/>
	<path class="st1" d="M553.92,57.7c-0.82,0-1.45-0.23-1.89-0.69c-0.44-0.46-0.66-1.11-0.66-1.97v-6.07h-1.18
		c-0.11,0-0.21-0.03-0.28-0.1c-0.08-0.07-0.12-0.17-0.12-0.31v-0.79l1.65-0.23l0.44-3.02c0.03-0.11,0.08-0.2,0.16-0.26
		c0.08-0.06,0.17-0.09,0.29-0.09h0.99v3.4h2.87v1.42h-2.87v5.94c0,0.4,0.1,0.7,0.29,0.89c0.2,0.2,0.45,0.29,0.75,0.29
		c0.18,0,0.33-0.02,0.46-0.07c0.13-0.05,0.24-0.1,0.33-0.15c0.09-0.06,0.17-0.11,0.24-0.15s0.13-0.07,0.18-0.07
		c0.07,0,0.12,0.01,0.15,0.04c0.04,0.03,0.08,0.08,0.12,0.14l0.58,0.94c-0.32,0.29-0.7,0.52-1.14,0.68
		C554.85,57.62,554.39,57.7,553.92,57.7z"/>
</g>
<g>
	<path class="st1" d="M561.86,49.83c0.12,0,0.22,0.04,0.29,0.11c0.07,0.07,0.1,0.17,0.1,0.28v0.69h-5.61v-0.39
		c0-0.08,0.02-0.16,0.05-0.25s0.08-0.17,0.16-0.24l2.64-2.65c0.22-0.22,0.42-0.43,0.6-0.64c0.18-0.21,0.33-0.41,0.45-0.61
		c0.12-0.2,0.22-0.41,0.29-0.63c0.07-0.21,0.1-0.44,0.1-0.68c0-0.23-0.04-0.44-0.11-0.61c-0.07-0.18-0.17-0.32-0.3-0.44
		c-0.13-0.12-0.28-0.2-0.45-0.26s-0.36-0.09-0.56-0.09c-0.2,0-0.39,0.03-0.56,0.09s-0.32,0.14-0.45,0.24
		c-0.13,0.1-0.24,0.23-0.33,0.37c-0.09,0.14-0.15,0.3-0.19,0.47c-0.05,0.15-0.12,0.25-0.21,0.3c-0.08,0.05-0.2,0.06-0.36,0.04
		l-0.59-0.1c0.05-0.39,0.16-0.73,0.32-1.02s0.36-0.54,0.6-0.74c0.24-0.2,0.52-0.35,0.83-0.45c0.31-0.1,0.65-0.15,1.01-0.15
		c0.36,0,0.7,0.05,1.01,0.16c0.31,0.11,0.58,0.26,0.8,0.46c0.22,0.2,0.4,0.45,0.53,0.74s0.19,0.62,0.19,0.98
		c0,0.31-0.04,0.6-0.14,0.86c-0.09,0.27-0.21,0.52-0.37,0.76s-0.34,0.47-0.55,0.7c-0.21,0.23-0.43,0.46-0.66,0.69l-2.12,2.16
		c0.16-0.04,0.33-0.08,0.49-0.1c0.17-0.03,0.32-0.04,0.47-0.04H561.86z"/>
	<path class="st1" d="M566.46,49.32h2.3v0.38c0,0.13-0.04,0.25-0.13,0.35c-0.09,0.1-0.22,0.15-0.4,0.15c-0.13,0-0.26-0.01-0.41-0.02
		c-0.14-0.02-0.29-0.03-0.44-0.06s-0.3-0.05-0.46-0.07c-0.15-0.02-0.31-0.05-0.46-0.06l0.15,2.85c-0.08,0.05-0.17,0.08-0.27,0.11
		c-0.1,0.03-0.21,0.04-0.32,0.04s-0.22-0.01-0.32-0.04c-0.1-0.03-0.19-0.06-0.27-0.11l0.15-2.85c-0.15,0.02-0.3,0.04-0.46,0.06
		c-0.15,0.03-0.3,0.05-0.46,0.07s-0.3,0.04-0.44,0.06c-0.14,0.02-0.28,0.02-0.41,0.02c-0.18,0-0.32-0.05-0.4-0.15
		c-0.09-0.1-0.13-0.22-0.13-0.35v-0.38h2.3v-3.37h-2.3v-0.38c0-0.13,0.04-0.24,0.13-0.35c0.09-0.1,0.22-0.15,0.4-0.15
		c0.13,0,0.26,0.01,0.41,0.03c0.14,0.02,0.29,0.04,0.44,0.06c0.15,0.02,0.3,0.05,0.46,0.07c0.15,0.02,0.31,0.04,0.46,0.06
		l-0.15-2.85c0.17-0.1,0.37-0.15,0.59-0.15s0.42,0.05,0.59,0.15l-0.15,2.85c0.15-0.02,0.3-0.04,0.46-0.06
		c0.15-0.02,0.3-0.05,0.46-0.07c0.15-0.02,0.3-0.04,0.44-0.06c0.14-0.02,0.28-0.03,0.41-0.03c0.18,0,0.32,0.05,0.4,0.15
		c0.09,0.1,0.13,0.22,0.13,0.35v0.38h-2.3V49.32z"/>
</g>
<text transform="matrix(1 0 0 1 569.3845 57.5514)" class="st1 st2 st3"> </text>
<polygon class="st1" points="794.74,53.26 792.07,50.59 801.6,41.06 792.07,31.52 794.74,28.85 806.94,41.06 "/>
</svg>
