<?xml version="1.0" encoding="utf-8"?>
<!-- Generator: Adobe Illustrator 24.1.0, SVG Export Plug-In . SVG Version: 6.00 Build 0)  -->
<svg version="1.1" id="Layer_1" xmlns="http://www.w3.org/2000/svg" xmlns:xlink="http://www.w3.org/1999/xlink" x="0px" y="0px"
	 viewBox="0 0 823.67 77.97" style="enable-background:new 0 0 823.67 77.97;" xml:space="preserve">
<style type="text/css">
	.st0{fill:#EFBB50;}
	.st1{fill:#003E6A;}
</style>
<rect class="st0" width="823.67" height="77.97"/>
<g>
	<path class="st1" d="M34.43,22.26c-0.07,0.11-0.14,0.2-0.21,0.25c-0.07,0.05-0.17,0.08-0.28,0.08c-0.12,0-0.26-0.05-0.41-0.17
		c-0.15-0.11-0.34-0.23-0.57-0.37c-0.23-0.14-0.5-0.26-0.82-0.37c-0.32-0.11-0.7-0.17-1.15-0.17c-0.42,0-0.79,0.06-1.1,0.17
		c-0.32,0.11-0.58,0.26-0.79,0.45s-0.37,0.41-0.48,0.67c-0.11,0.26-0.16,0.53-0.16,0.83c0,0.39,0.1,0.71,0.29,0.96
		c0.2,0.25,0.45,0.47,0.77,0.65c0.32,0.18,0.68,0.34,1.09,0.47c0.41,0.13,0.82,0.27,1.25,0.41c0.43,0.14,0.84,0.31,1.25,0.49
		c0.41,0.19,0.77,0.42,1.09,0.7c0.32,0.28,0.58,0.63,0.77,1.04s0.29,0.91,0.29,1.5c0,0.63-0.11,1.22-0.32,1.78
		c-0.22,0.55-0.53,1.04-0.94,1.45c-0.41,0.41-0.92,0.74-1.52,0.97c-0.6,0.24-1.29,0.35-2.05,0.35c-0.46,0-0.9-0.04-1.34-0.13
		s-0.84-0.22-1.23-0.38c-0.39-0.16-0.75-0.36-1.08-0.59s-0.64-0.49-0.9-0.77l0.61-1.02c0.06-0.08,0.13-0.15,0.21-0.2
		c0.08-0.05,0.18-0.08,0.28-0.08c0.14,0,0.3,0.07,0.48,0.22s0.41,0.31,0.68,0.48c0.27,0.18,0.59,0.34,0.97,0.48s0.83,0.22,1.37,0.22
		c0.44,0,0.83-0.06,1.18-0.17c0.35-0.12,0.64-0.28,0.87-0.5c0.24-0.22,0.42-0.48,0.54-0.78c0.13-0.31,0.19-0.65,0.19-1.02
		c0-0.42-0.1-0.76-0.29-1.03c-0.19-0.27-0.45-0.49-0.77-0.67c-0.32-0.18-0.68-0.33-1.09-0.46c-0.41-0.13-0.82-0.26-1.25-0.39
		c-0.43-0.14-0.84-0.29-1.25-0.47c-0.41-0.18-0.77-0.41-1.09-0.7c-0.32-0.29-0.58-0.65-0.77-1.09c-0.19-0.44-0.29-0.97-0.29-1.61
		c0-0.51,0.1-1.01,0.3-1.49c0.2-0.48,0.49-0.9,0.87-1.27c0.38-0.37,0.85-0.67,1.41-0.89s1.2-0.33,1.92-0.33
		c0.81,0,1.55,0.13,2.22,0.38c0.68,0.26,1.26,0.62,1.76,1.1L34.43,22.26z"/>
	<path class="st1" d="M41.56,23.96c0.75,0,1.42,0.12,2.02,0.36c0.6,0.24,1.11,0.59,1.54,1.05c0.42,0.46,0.75,1,0.97,1.65
		c0.23,0.64,0.34,1.36,0.34,2.16c0,0.8-0.11,1.52-0.34,2.17c-0.23,0.65-0.55,1.19-0.97,1.65c-0.42,0.45-0.94,0.8-1.54,1.04
		c-0.6,0.24-1.28,0.36-2.02,0.36c-0.75,0-1.43-0.12-2.03-0.36c-0.6-0.24-1.12-0.59-1.54-1.04c-0.43-0.45-0.75-1-0.98-1.65
		s-0.34-1.37-0.34-2.17c0-0.8,0.11-1.52,0.34-2.16s0.56-1.19,0.98-1.65c0.43-0.46,0.94-0.81,1.54-1.05
		C40.13,24.08,40.81,23.96,41.56,23.96z M41.56,32.88c0.96,0,1.67-0.32,2.15-0.97c0.47-0.65,0.71-1.55,0.71-2.72
		s-0.24-2.08-0.71-2.73c-0.47-0.65-1.19-0.97-2.15-0.97c-0.97,0-1.7,0.32-2.17,0.97c-0.48,0.65-0.71,1.56-0.71,2.73
		s0.24,2.08,0.71,2.72C39.86,32.56,40.59,32.88,41.56,32.88z"/>
	<path class="st1" d="M50.41,19.53v14.73h-1.96V19.53H50.41z"/>
	<path class="st1" d="M57.33,23.96c0.75,0,1.42,0.12,2.02,0.36c0.6,0.24,1.11,0.59,1.54,1.05c0.42,0.46,0.75,1,0.97,1.65
		c0.23,0.64,0.34,1.36,0.34,2.16c0,0.8-0.11,1.52-0.34,2.17c-0.23,0.65-0.55,1.19-0.97,1.65c-0.42,0.45-0.94,0.8-1.54,1.04
		c-0.6,0.24-1.28,0.36-2.02,0.36c-0.75,0-1.43-0.12-2.03-0.36c-0.6-0.24-1.12-0.59-1.54-1.04c-0.43-0.45-0.75-1-0.98-1.65
		s-0.34-1.37-0.34-2.17c0-0.8,0.11-1.52,0.34-2.16s0.56-1.19,0.98-1.65c0.43-0.46,0.94-0.81,1.54-1.05
		C55.9,24.08,56.58,23.96,57.33,23.96z M57.33,32.88c0.96,0,1.67-0.32,2.15-0.97c0.47-0.65,0.71-1.55,0.71-2.72
		s-0.24-2.08-0.71-2.73c-0.47-0.65-1.19-0.97-2.15-0.97c-0.97,0-1.7,0.32-2.17,0.97c-0.48,0.65-0.71,1.56-0.71,2.73
		s0.24,2.08,0.71,2.72C55.63,32.56,56.36,32.88,57.33,32.88z"/>
	<path class="st1" d="M70.16,25.86c-0.05,0.09-0.11,0.15-0.17,0.19c-0.06,0.04-0.14,0.05-0.23,0.05c-0.11,0-0.22-0.04-0.35-0.11
		c-0.13-0.07-0.29-0.15-0.47-0.24c-0.18-0.09-0.4-0.17-0.64-0.24s-0.54-0.11-0.88-0.11c-0.28,0-0.53,0.04-0.76,0.11
		c-0.23,0.07-0.42,0.17-0.58,0.29s-0.28,0.27-0.37,0.44c-0.09,0.17-0.13,0.35-0.13,0.54c0,0.25,0.07,0.46,0.22,0.63
		c0.15,0.17,0.35,0.31,0.59,0.43c0.24,0.12,0.52,0.23,0.83,0.32c0.31,0.1,0.63,0.2,0.95,0.3s0.64,0.23,0.95,0.36
		c0.31,0.14,0.59,0.31,0.83,0.51c0.24,0.2,0.44,0.45,0.59,0.73c0.15,0.29,0.22,0.63,0.22,1.05c0,0.47-0.08,0.91-0.25,1.31
		c-0.17,0.4-0.42,0.75-0.75,1.04c-0.33,0.29-0.74,0.52-1.22,0.69s-1.04,0.25-1.67,0.25c-0.7,0-1.34-0.12-1.94-0.35
		c-0.59-0.23-1.09-0.53-1.49-0.89l0.46-0.75c0.05-0.09,0.12-0.17,0.2-0.21c0.08-0.05,0.19-0.08,0.32-0.08
		c0.13,0,0.26,0.05,0.39,0.14c0.13,0.09,0.29,0.2,0.48,0.3c0.19,0.11,0.41,0.21,0.68,0.3s0.6,0.13,1,0.13
		c0.33,0,0.62-0.04,0.87-0.12c0.25-0.08,0.45-0.2,0.61-0.34c0.16-0.14,0.28-0.31,0.36-0.49c0.08-0.19,0.12-0.38,0.12-0.59
		c0-0.27-0.07-0.49-0.22-0.66c-0.15-0.18-0.35-0.33-0.59-0.45c-0.24-0.13-0.52-0.24-0.83-0.33c-0.31-0.09-0.63-0.19-0.96-0.3
		c-0.33-0.11-0.65-0.23-0.96-0.37c-0.31-0.14-0.59-0.32-0.83-0.53c-0.24-0.21-0.44-0.47-0.59-0.78c-0.15-0.31-0.22-0.68-0.22-1.12
		c0-0.39,0.08-0.77,0.24-1.13c0.16-0.36,0.4-0.67,0.71-0.95c0.31-0.27,0.69-0.49,1.15-0.65c0.46-0.16,0.98-0.25,1.56-0.25
		c0.67,0,1.28,0.11,1.82,0.32c0.54,0.21,1.01,0.51,1.39,0.88L70.16,25.86z"/>
	<path class="st1" d="M80.98,32.81c-0.24,0.28-0.52,0.52-0.83,0.72c-0.31,0.2-0.65,0.37-1,0.49c-0.35,0.13-0.72,0.22-1.09,0.28
		s-0.75,0.09-1.11,0.09c-0.7,0-1.35-0.12-1.94-0.35c-0.6-0.24-1.11-0.58-1.55-1.04c-0.44-0.46-0.78-1.02-1.02-1.7
		c-0.24-0.68-0.36-1.45-0.36-2.33c0-0.71,0.11-1.36,0.33-1.97c0.22-0.61,0.53-1.14,0.94-1.59c0.41-0.45,0.91-0.81,1.5-1.07
		c0.59-0.26,1.26-0.39,2-0.39c0.62,0,1.19,0.1,1.71,0.3s0.97,0.5,1.35,0.88c0.38,0.39,0.68,0.86,0.89,1.43
		c0.22,0.57,0.32,1.21,0.32,1.94c0,0.3-0.03,0.5-0.1,0.6c-0.07,0.1-0.19,0.16-0.37,0.16h-6.65c0.02,0.61,0.11,1.13,0.26,1.58
		c0.15,0.45,0.36,0.82,0.63,1.12c0.27,0.3,0.59,0.52,0.96,0.67c0.37,0.15,0.79,0.22,1.25,0.22c0.43,0,0.81-0.05,1.12-0.15
		s0.59-0.21,0.82-0.32c0.23-0.12,0.42-0.22,0.58-0.33c0.16-0.1,0.29-0.15,0.41-0.15c0.16,0,0.28,0.06,0.37,0.18L80.98,32.81z
		 M79.38,28.06c0-0.39-0.05-0.74-0.16-1.07c-0.11-0.33-0.27-0.61-0.48-0.85c-0.21-0.24-0.47-0.43-0.78-0.56
		c-0.31-0.13-0.66-0.2-1.06-0.2c-0.82,0-1.46,0.24-1.93,0.71c-0.47,0.47-0.77,1.13-0.89,1.97H79.38z"/>
	<path class="st1" d="M90.14,26.01c-0.06,0.07-0.12,0.13-0.17,0.17c-0.06,0.04-0.14,0.06-0.24,0.06s-0.22-0.04-0.33-0.12
		c-0.12-0.08-0.26-0.17-0.44-0.27c-0.18-0.1-0.39-0.19-0.64-0.27c-0.25-0.08-0.56-0.12-0.92-0.12c-0.48,0-0.9,0.09-1.27,0.26
		c-0.37,0.17-0.67,0.42-0.91,0.74c-0.24,0.32-0.43,0.71-0.55,1.17c-0.13,0.46-0.19,0.97-0.19,1.55c0,0.59,0.07,1.12,0.2,1.58
		c0.13,0.46,0.32,0.85,0.57,1.17c0.25,0.32,0.55,0.56,0.9,0.72s0.75,0.25,1.18,0.25c0.42,0,0.77-0.05,1.04-0.16
		c0.27-0.1,0.5-0.21,0.68-0.33s0.33-0.23,0.45-0.33c0.12-0.1,0.24-0.16,0.37-0.16c0.16,0,0.28,0.06,0.37,0.18l0.56,0.72
		c-0.23,0.29-0.49,0.53-0.78,0.73c-0.29,0.2-0.6,0.36-0.92,0.49s-0.67,0.22-1.02,0.28s-0.72,0.09-1.08,0.09
		c-0.63,0-1.22-0.12-1.77-0.35c-0.55-0.23-1.02-0.57-1.43-1.02c-0.4-0.45-0.72-0.99-0.95-1.64c-0.23-0.65-0.35-1.39-0.35-2.21
		c0-0.75,0.1-1.45,0.31-2.09c0.21-0.64,0.52-1.19,0.93-1.65c0.41-0.46,0.91-0.83,1.51-1.09c0.6-0.26,1.28-0.39,2.06-0.39
		c0.73,0,1.36,0.12,1.92,0.35c0.55,0.23,1.04,0.56,1.48,0.99L90.14,26.01z"/>
	<path class="st1" d="M99.63,20.98c0,0.18-0.04,0.35-0.11,0.51s-0.17,0.31-0.29,0.43c-0.12,0.12-0.27,0.22-0.43,0.29
		c-0.17,0.07-0.34,0.1-0.52,0.1s-0.35-0.04-0.51-0.1c-0.16-0.07-0.3-0.17-0.42-0.29c-0.12-0.12-0.22-0.27-0.29-0.43
		s-0.1-0.33-0.1-0.51c0-0.19,0.04-0.36,0.1-0.52s0.17-0.31,0.29-0.43c0.12-0.12,0.26-0.22,0.42-0.29c0.16-0.07,0.33-0.1,0.51-0.1
		s0.35,0.04,0.52,0.1c0.17,0.07,0.31,0.17,0.43,0.29c0.12,0.12,0.22,0.27,0.29,0.43S99.63,20.8,99.63,20.98z M99.26,24.12v10.14
		h-1.95V24.12H99.26z"/>
	<path class="st1" d="M107.86,25.86c-0.05,0.09-0.11,0.15-0.17,0.19c-0.06,0.04-0.14,0.05-0.23,0.05c-0.11,0-0.22-0.04-0.35-0.11
		c-0.13-0.07-0.29-0.15-0.47-0.24c-0.18-0.09-0.4-0.17-0.64-0.24s-0.54-0.11-0.88-0.11c-0.28,0-0.53,0.04-0.76,0.11
		c-0.23,0.07-0.42,0.17-0.58,0.29s-0.28,0.27-0.37,0.44c-0.09,0.17-0.13,0.35-0.13,0.54c0,0.25,0.07,0.46,0.22,0.63
		c0.15,0.17,0.35,0.31,0.59,0.43c0.24,0.12,0.52,0.23,0.83,0.32c0.31,0.1,0.63,0.2,0.95,0.3s0.64,0.23,0.95,0.36
		c0.31,0.14,0.59,0.31,0.83,0.51c0.24,0.2,0.44,0.45,0.59,0.73c0.15,0.29,0.22,0.63,0.22,1.05c0,0.47-0.08,0.91-0.25,1.31
		c-0.17,0.4-0.42,0.75-0.75,1.04c-0.33,0.29-0.74,0.52-1.22,0.69s-1.04,0.25-1.67,0.25c-0.7,0-1.34-0.12-1.94-0.35
		c-0.59-0.23-1.09-0.53-1.49-0.89l0.46-0.75c0.05-0.09,0.12-0.17,0.2-0.21c0.08-0.05,0.19-0.08,0.32-0.08
		c0.13,0,0.26,0.05,0.39,0.14c0.13,0.09,0.29,0.2,0.48,0.3c0.19,0.11,0.41,0.21,0.68,0.3s0.6,0.13,1,0.13
		c0.33,0,0.62-0.04,0.87-0.12c0.25-0.08,0.45-0.2,0.61-0.34c0.16-0.14,0.28-0.31,0.36-0.49c0.08-0.19,0.12-0.38,0.12-0.59
		c0-0.27-0.07-0.49-0.22-0.66c-0.15-0.18-0.35-0.33-0.59-0.45c-0.24-0.13-0.52-0.24-0.83-0.33c-0.31-0.09-0.63-0.19-0.96-0.3
		c-0.33-0.11-0.65-0.23-0.96-0.37c-0.31-0.14-0.59-0.32-0.83-0.53c-0.24-0.21-0.44-0.47-0.59-0.78c-0.15-0.31-0.22-0.68-0.22-1.12
		c0-0.39,0.08-0.77,0.24-1.13c0.16-0.36,0.4-0.67,0.71-0.95c0.31-0.27,0.69-0.49,1.15-0.65c0.46-0.16,0.98-0.25,1.56-0.25
		c0.67,0,1.28,0.11,1.82,0.32c0.54,0.21,1.01,0.51,1.39,0.88L107.86,25.86z"/>
	<path class="st1" d="M114.94,25.53c0.57-0.54,1.18-0.94,1.84-1.21c0.66-0.27,1.39-0.4,2.18-0.4c0.58,0,1.09,0.09,1.54,0.28
		s0.82,0.45,1.13,0.79c0.31,0.34,0.54,0.75,0.69,1.22c0.16,0.47,0.23,1,0.23,1.57v6.47h-0.87c-0.19,0-0.34-0.03-0.44-0.09
		c-0.1-0.06-0.18-0.18-0.24-0.35l-0.21-0.89c-0.26,0.24-0.52,0.45-0.77,0.63c-0.25,0.18-0.52,0.34-0.79,0.47
		c-0.28,0.13-0.57,0.23-0.88,0.29c-0.31,0.07-0.66,0.1-1.04,0.1c-0.4,0-0.77-0.06-1.12-0.17c-0.35-0.11-0.65-0.28-0.91-0.5
		c-0.26-0.23-0.46-0.51-0.61-0.85c-0.15-0.34-0.22-0.74-0.22-1.19c0-0.4,0.11-0.78,0.32-1.15s0.57-0.7,1.06-0.99
		c0.49-0.29,1.13-0.53,1.92-0.72c0.79-0.19,1.76-0.29,2.91-0.32v-0.74c0-0.76-0.16-1.34-0.49-1.72c-0.33-0.38-0.81-0.57-1.44-0.57
		c-0.43,0-0.78,0.05-1.07,0.16s-0.54,0.22-0.75,0.35c-0.21,0.13-0.39,0.25-0.55,0.35s-0.32,0.16-0.48,0.16
		c-0.13,0-0.25-0.04-0.34-0.11c-0.1-0.07-0.17-0.16-0.23-0.26L114.94,25.53z M120.65,29.76c-0.79,0.03-1.46,0.09-2.02,0.19
		c-0.55,0.1-1,0.22-1.35,0.38c-0.35,0.16-0.6,0.35-0.75,0.56c-0.15,0.22-0.23,0.46-0.23,0.72c0,0.25,0.04,0.47,0.12,0.65
		c0.08,0.18,0.2,0.33,0.34,0.45s0.31,0.2,0.5,0.25c0.19,0.05,0.4,0.08,0.63,0.08c0.3,0,0.57-0.03,0.82-0.09
		c0.25-0.06,0.48-0.14,0.7-0.25c0.22-0.11,0.43-0.25,0.63-0.4c0.2-0.16,0.4-0.34,0.59-0.55V29.76z"/>
	<path class="st1" d="M135.79,25.86c-0.05,0.09-0.11,0.15-0.17,0.19c-0.06,0.04-0.14,0.05-0.23,0.05c-0.11,0-0.22-0.04-0.35-0.11
		c-0.13-0.07-0.29-0.15-0.47-0.24c-0.18-0.09-0.4-0.17-0.64-0.24s-0.54-0.11-0.88-0.11c-0.28,0-0.53,0.04-0.76,0.11
		c-0.23,0.07-0.42,0.17-0.58,0.29s-0.28,0.27-0.37,0.44c-0.09,0.17-0.13,0.35-0.13,0.54c0,0.25,0.07,0.46,0.22,0.63
		c0.15,0.17,0.35,0.31,0.59,0.43c0.24,0.12,0.52,0.23,0.83,0.32c0.31,0.1,0.63,0.2,0.95,0.3s0.64,0.23,0.95,0.36
		c0.31,0.14,0.59,0.31,0.83,0.51c0.24,0.2,0.44,0.45,0.59,0.73c0.15,0.29,0.22,0.63,0.22,1.05c0,0.47-0.08,0.91-0.25,1.31
		c-0.17,0.4-0.42,0.75-0.75,1.04c-0.33,0.29-0.74,0.52-1.22,0.69s-1.04,0.25-1.67,0.25c-0.7,0-1.34-0.12-1.94-0.35
		c-0.59-0.23-1.09-0.53-1.49-0.89l0.46-0.75c0.05-0.09,0.12-0.17,0.2-0.21c0.08-0.05,0.19-0.08,0.32-0.08
		c0.13,0,0.26,0.05,0.39,0.14c0.13,0.09,0.29,0.2,0.48,0.3c0.19,0.11,0.41,0.21,0.68,0.3s0.6,0.13,1,0.13
		c0.33,0,0.62-0.04,0.87-0.12c0.25-0.08,0.45-0.2,0.61-0.34c0.16-0.14,0.28-0.31,0.36-0.49c0.08-0.19,0.12-0.38,0.12-0.59
		c0-0.27-0.07-0.49-0.22-0.66c-0.15-0.18-0.35-0.33-0.59-0.45c-0.24-0.13-0.52-0.24-0.83-0.33c-0.31-0.09-0.63-0.19-0.96-0.3
		c-0.33-0.11-0.65-0.23-0.96-0.37c-0.31-0.14-0.59-0.32-0.83-0.53c-0.24-0.21-0.44-0.47-0.59-0.78c-0.15-0.31-0.22-0.68-0.22-1.12
		c0-0.39,0.08-0.77,0.24-1.13c0.16-0.36,0.4-0.67,0.71-0.95c0.31-0.27,0.69-0.49,1.15-0.65c0.46-0.16,0.98-0.25,1.56-0.25
		c0.67,0,1.28,0.11,1.82,0.32c0.54,0.21,1.01,0.51,1.39,0.88L135.79,25.86z"/>
	<path class="st1" d="M140.69,20.98c0,0.18-0.04,0.35-0.11,0.51s-0.17,0.31-0.29,0.43c-0.12,0.12-0.27,0.22-0.43,0.29
		c-0.17,0.07-0.34,0.1-0.52,0.1s-0.35-0.04-0.51-0.1c-0.16-0.07-0.3-0.17-0.42-0.29c-0.12-0.12-0.22-0.27-0.29-0.43
		s-0.1-0.33-0.1-0.51c0-0.19,0.04-0.36,0.1-0.52s0.17-0.31,0.29-0.43c0.12-0.12,0.26-0.22,0.42-0.29c0.16-0.07,0.33-0.1,0.51-0.1
		s0.35,0.04,0.52,0.1c0.17,0.07,0.31,0.17,0.43,0.29c0.12,0.12,0.22,0.27,0.29,0.43S140.69,20.8,140.69,20.98z M140.32,24.12v10.14
		h-1.95V24.12H140.32z"/>
	<path class="st1" d="M144.77,25.52c0.22-0.23,0.45-0.45,0.69-0.64c0.24-0.19,0.49-0.36,0.76-0.49s0.56-0.24,0.87-0.32
		c0.31-0.08,0.64-0.12,0.99-0.12c0.56,0,1.05,0.09,1.47,0.28c0.42,0.19,0.78,0.45,1.06,0.78s0.5,0.74,0.65,1.21
		c0.15,0.47,0.22,0.99,0.22,1.57v6.46h-1.96V27.8c0-0.72-0.17-1.29-0.5-1.69c-0.33-0.4-0.84-0.6-1.53-0.6c-0.5,0-0.97,0.12-1.4,0.35
		c-0.44,0.24-0.84,0.56-1.21,0.96v7.44h-1.95V24.12h1.17c0.27,0,0.44,0.13,0.51,0.39L144.77,25.52z"/>
	<path class="st1" d="M162.56,24.5v0.73c0,0.24-0.15,0.39-0.45,0.45l-1.09,0.16c0.09,0.21,0.17,0.42,0.22,0.65s0.08,0.47,0.08,0.72
		c0,0.5-0.1,0.95-0.29,1.35s-0.46,0.75-0.8,1.03s-0.74,0.51-1.21,0.66c-0.47,0.15-0.98,0.23-1.54,0.23c-0.46,0-0.89-0.05-1.29-0.15
		c-0.2,0.12-0.35,0.25-0.45,0.39c-0.1,0.14-0.15,0.28-0.15,0.42c0,0.23,0.1,0.41,0.29,0.52s0.45,0.19,0.77,0.24s0.68,0.08,1.09,0.09
		c0.41,0.01,0.83,0.04,1.25,0.07c0.42,0.03,0.84,0.08,1.25,0.16c0.41,0.08,0.77,0.2,1.09,0.37c0.32,0.17,0.57,0.4,0.77,0.7
		c0.2,0.3,0.29,0.68,0.29,1.15c0,0.44-0.11,0.87-0.32,1.28c-0.22,0.41-0.53,0.78-0.94,1.1c-0.41,0.32-0.92,0.58-1.51,0.77
		c-0.59,0.19-1.26,0.29-2.02,0.29s-1.41-0.07-1.96-0.22s-1.02-0.34-1.39-0.59c-0.37-0.25-0.65-0.53-0.83-0.86
		c-0.18-0.33-0.27-0.67-0.27-1.02c0-0.49,0.15-0.91,0.46-1.25s0.73-0.61,1.27-0.8c-0.29-0.13-0.53-0.31-0.7-0.54
		c-0.17-0.23-0.26-0.53-0.26-0.91c0-0.15,0.03-0.3,0.08-0.45c0.05-0.16,0.13-0.31,0.24-0.47s0.25-0.3,0.41-0.44s0.35-0.27,0.56-0.38
		c-0.5-0.28-0.89-0.65-1.18-1.11c-0.29-0.46-0.43-1-0.43-1.62c0-0.5,0.1-0.95,0.29-1.35c0.19-0.4,0.46-0.74,0.8-1.03
		c0.34-0.29,0.75-0.51,1.23-0.66c0.48-0.15,1-0.23,1.56-0.23c0.88,0,1.63,0.18,2.27,0.55H162.56z M160.58,34.79
		c0-0.24-0.07-0.43-0.2-0.57c-0.13-0.14-0.31-0.26-0.54-0.34c-0.23-0.08-0.5-0.14-0.8-0.18c-0.31-0.04-0.63-0.07-0.96-0.08
		c-0.34-0.02-0.68-0.04-1.03-0.06c-0.35-0.02-0.69-0.05-1.02-0.09c-0.35,0.17-0.63,0.38-0.85,0.63c-0.22,0.25-0.33,0.54-0.33,0.87
		c0,0.21,0.05,0.41,0.16,0.6c0.11,0.19,0.28,0.35,0.51,0.48c0.23,0.14,0.52,0.24,0.87,0.32c0.35,0.08,0.77,0.12,1.25,0.12
		c0.48,0,0.9-0.04,1.27-0.12c0.37-0.08,0.67-0.2,0.92-0.35c0.25-0.15,0.44-0.33,0.57-0.53C160.52,35.26,160.58,35.03,160.58,34.79z
		 M157.48,29.2c0.35,0,0.65-0.05,0.91-0.14c0.26-0.09,0.48-0.22,0.66-0.39c0.18-0.17,0.31-0.37,0.4-0.61
		c0.09-0.24,0.13-0.5,0.13-0.79c0-0.58-0.18-1.05-0.53-1.4c-0.36-0.35-0.88-0.52-1.57-0.52c-0.69,0-1.21,0.17-1.56,0.52
		c-0.36,0.35-0.53,0.82-0.53,1.4c0,0.29,0.04,0.55,0.13,0.78s0.22,0.44,0.4,0.61s0.4,0.3,0.66,0.4S157.14,29.2,157.48,29.2z"/>
	<path class="st1" d="M166.15,19.53v14.73h-1.96V19.53H166.15z"/>
	<path class="st1" d="M177.07,32.81c-0.24,0.28-0.52,0.52-0.83,0.72c-0.31,0.2-0.65,0.37-1,0.49c-0.35,0.13-0.72,0.22-1.09,0.28
		s-0.75,0.09-1.11,0.09c-0.7,0-1.35-0.12-1.94-0.35c-0.6-0.24-1.11-0.58-1.55-1.04c-0.44-0.46-0.78-1.02-1.02-1.7
		c-0.24-0.68-0.36-1.45-0.36-2.33c0-0.71,0.11-1.36,0.33-1.97c0.22-0.61,0.53-1.14,0.94-1.59c0.41-0.45,0.91-0.81,1.5-1.07
		c0.59-0.26,1.26-0.39,2-0.39c0.62,0,1.19,0.1,1.71,0.3s0.97,0.5,1.35,0.88c0.38,0.39,0.68,0.86,0.89,1.43
		c0.22,0.57,0.32,1.21,0.32,1.94c0,0.3-0.03,0.5-0.1,0.6c-0.07,0.1-0.19,0.16-0.37,0.16h-6.65c0.02,0.61,0.11,1.13,0.26,1.58
		c0.15,0.45,0.36,0.82,0.63,1.12c0.27,0.3,0.59,0.52,0.96,0.67c0.37,0.15,0.79,0.22,1.25,0.22c0.43,0,0.81-0.05,1.12-0.15
		s0.59-0.21,0.82-0.32c0.23-0.12,0.42-0.22,0.58-0.33c0.16-0.1,0.29-0.15,0.41-0.15c0.16,0,0.28,0.06,0.37,0.18L177.07,32.81z
		 M175.46,28.06c0-0.39-0.05-0.74-0.16-1.07c-0.11-0.33-0.27-0.61-0.48-0.85c-0.21-0.24-0.47-0.43-0.78-0.56
		c-0.31-0.13-0.66-0.2-1.06-0.2c-0.82,0-1.46,0.24-1.93,0.71c-0.47,0.47-0.77,1.13-0.89,1.97H175.46z"/>
	<path class="st1" d="M188.28,23.96c0.75,0,1.42,0.12,2.02,0.36c0.6,0.24,1.12,0.59,1.54,1.05c0.42,0.46,0.75,1,0.97,1.65
		c0.23,0.64,0.34,1.36,0.34,2.16c0,0.8-0.11,1.52-0.34,2.17c-0.23,0.65-0.55,1.19-0.97,1.65c-0.42,0.45-0.93,0.8-1.54,1.04
		c-0.6,0.24-1.28,0.36-2.02,0.36c-0.75,0-1.43-0.12-2.03-0.36c-0.6-0.24-1.12-0.59-1.54-1.04s-0.75-1-0.98-1.65
		s-0.34-1.37-0.34-2.17c0-0.8,0.12-1.52,0.34-2.16s0.56-1.19,0.98-1.65c0.43-0.46,0.94-0.81,1.54-1.05
		C186.85,24.08,187.53,23.96,188.28,23.96z M188.28,32.88c0.96,0,1.67-0.32,2.15-0.97c0.47-0.65,0.71-1.55,0.71-2.72
		s-0.24-2.08-0.71-2.73c-0.47-0.65-1.19-0.97-2.15-0.97c-0.97,0-1.7,0.32-2.17,0.97c-0.48,0.65-0.71,1.56-0.71,2.73
		s0.24,2.08,0.71,2.72C186.58,32.56,187.31,32.88,188.28,32.88z"/>
	<path class="st1" d="M196.97,26.06c0.33-0.67,0.72-1.19,1.18-1.57c0.46-0.38,1.01-0.57,1.66-0.57c0.22,0,0.43,0.02,0.62,0.07
		s0.37,0.12,0.51,0.22l-0.13,1.47c-0.05,0.18-0.16,0.27-0.33,0.27c-0.09,0-0.23-0.02-0.42-0.06c-0.19-0.04-0.39-0.05-0.6-0.05
		c-0.31,0-0.59,0.04-0.83,0.13c-0.24,0.09-0.45,0.22-0.64,0.4c-0.19,0.18-0.36,0.39-0.5,0.65c-0.15,0.26-0.28,0.55-0.41,0.87v6.35
		h-1.95V24.12h1.12c0.21,0,0.36,0.04,0.43,0.11c0.08,0.08,0.13,0.21,0.16,0.4L196.97,26.06z"/>
	<path class="st1" d="M201.85,25.53c0.57-0.54,1.18-0.94,1.84-1.21c0.66-0.27,1.39-0.4,2.18-0.4c0.58,0,1.09,0.09,1.54,0.28
		c0.45,0.19,0.82,0.45,1.13,0.79c0.31,0.34,0.54,0.75,0.69,1.22c0.16,0.47,0.23,1,0.23,1.57v6.47h-0.87c-0.19,0-0.34-0.03-0.44-0.09
		s-0.18-0.18-0.24-0.35l-0.21-0.89c-0.26,0.24-0.52,0.45-0.77,0.63c-0.25,0.18-0.52,0.34-0.79,0.47c-0.28,0.13-0.57,0.23-0.88,0.29
		s-0.66,0.1-1.04,0.1c-0.4,0-0.77-0.06-1.12-0.17c-0.35-0.11-0.65-0.28-0.91-0.5c-0.26-0.23-0.46-0.51-0.61-0.85
		c-0.15-0.34-0.22-0.74-0.22-1.19c0-0.4,0.11-0.78,0.33-1.15c0.22-0.37,0.57-0.7,1.06-0.99c0.49-0.29,1.13-0.53,1.92-0.72
		c0.79-0.19,1.76-0.29,2.91-0.32v-0.74c0-0.76-0.16-1.34-0.49-1.72s-0.81-0.57-1.44-0.57c-0.43,0-0.78,0.05-1.07,0.16
		c-0.29,0.11-0.54,0.22-0.75,0.35c-0.21,0.13-0.39,0.25-0.55,0.35s-0.32,0.16-0.48,0.16c-0.13,0-0.25-0.04-0.34-0.11
		c-0.1-0.07-0.17-0.16-0.23-0.26L201.85,25.53z M207.56,29.76c-0.79,0.03-1.46,0.09-2.02,0.19c-0.55,0.1-1,0.22-1.35,0.38
		c-0.35,0.16-0.6,0.35-0.75,0.56c-0.15,0.22-0.23,0.46-0.23,0.72c0,0.25,0.04,0.47,0.12,0.65c0.08,0.18,0.2,0.33,0.34,0.45
		c0.14,0.12,0.31,0.2,0.5,0.25c0.19,0.05,0.4,0.08,0.63,0.08c0.3,0,0.57-0.03,0.82-0.09c0.25-0.06,0.48-0.14,0.7-0.25
		c0.22-0.11,0.43-0.25,0.63-0.4c0.2-0.16,0.4-0.34,0.59-0.55V29.76z"/>
	<path class="st1" d="M213.88,19.53v14.73h-1.96V19.53H213.88z"/>
	<path class="st1" d="M229.81,19.53v14.73h-1.18c-0.27,0-0.44-0.13-0.51-0.39l-0.17-1.17c-0.43,0.51-0.92,0.92-1.47,1.23
		c-0.55,0.31-1.18,0.46-1.9,0.46c-0.58,0-1.1-0.11-1.57-0.34c-0.47-0.23-0.87-0.56-1.2-0.99c-0.33-0.44-0.59-0.98-0.77-1.62
		c-0.18-0.65-0.27-1.39-0.27-2.23c0-0.75,0.1-1.45,0.3-2.1c0.2-0.65,0.49-1.2,0.87-1.68s0.84-0.84,1.38-1.11s1.15-0.4,1.83-0.4
		c0.61,0,1.13,0.1,1.56,0.3c0.43,0.2,0.81,0.48,1.15,0.85v-5.55H229.81z M227.85,26.57c-0.32-0.42-0.66-0.71-1.03-0.88
		c-0.37-0.17-0.78-0.25-1.24-0.25c-0.89,0-1.58,0.32-2.07,0.96c-0.49,0.64-0.73,1.58-0.73,2.81c0,0.65,0.06,1.2,0.17,1.65
		c0.11,0.46,0.27,0.83,0.48,1.12c0.21,0.29,0.47,0.5,0.77,0.64c0.31,0.14,0.65,0.2,1.04,0.2c0.57,0,1.05-0.13,1.47-0.38
		c0.41-0.25,0.8-0.61,1.16-1.07V26.57z"/>
	<path class="st1" d="M236.67,23.96c0.75,0,1.42,0.12,2.02,0.36c0.6,0.24,1.12,0.59,1.54,1.05c0.42,0.46,0.75,1,0.97,1.65
		c0.23,0.64,0.34,1.36,0.34,2.16c0,0.8-0.11,1.52-0.34,2.17c-0.23,0.65-0.55,1.19-0.97,1.65c-0.42,0.45-0.93,0.8-1.54,1.04
		c-0.6,0.24-1.28,0.36-2.02,0.36c-0.75,0-1.43-0.12-2.03-0.36c-0.6-0.24-1.12-0.59-1.54-1.04s-0.75-1-0.98-1.65
		s-0.34-1.37-0.34-2.17c0-0.8,0.12-1.52,0.34-2.16s0.56-1.19,0.98-1.65c0.43-0.46,0.94-0.81,1.54-1.05
		C235.24,24.08,235.92,23.96,236.67,23.96z M236.67,32.88c0.96,0,1.67-0.32,2.15-0.97c0.47-0.65,0.71-1.55,0.71-2.72
		s-0.24-2.08-0.71-2.73c-0.47-0.65-1.19-0.97-2.15-0.97c-0.97,0-1.7,0.32-2.17,0.97c-0.48,0.65-0.71,1.56-0.71,2.73
		s0.24,2.08,0.71,2.72C234.98,32.56,235.7,32.88,236.67,32.88z"/>
	<path class="st1" d="M249.51,25.86c-0.05,0.09-0.11,0.15-0.17,0.19c-0.06,0.04-0.14,0.05-0.23,0.05c-0.11,0-0.22-0.04-0.35-0.11
		s-0.29-0.15-0.47-0.24c-0.18-0.09-0.4-0.17-0.64-0.24s-0.54-0.11-0.88-0.11c-0.28,0-0.53,0.04-0.76,0.11
		c-0.23,0.07-0.42,0.17-0.58,0.29c-0.16,0.12-0.28,0.27-0.37,0.44c-0.09,0.17-0.13,0.35-0.13,0.54c0,0.25,0.08,0.46,0.22,0.63
		c0.15,0.17,0.35,0.31,0.59,0.43s0.52,0.23,0.83,0.32c0.31,0.1,0.63,0.2,0.95,0.3c0.32,0.11,0.64,0.23,0.95,0.36
		c0.31,0.14,0.59,0.31,0.83,0.51c0.24,0.2,0.44,0.45,0.59,0.73c0.15,0.29,0.22,0.63,0.22,1.05c0,0.47-0.08,0.91-0.25,1.31
		s-0.42,0.75-0.75,1.04c-0.33,0.29-0.74,0.52-1.22,0.69s-1.04,0.25-1.67,0.25c-0.7,0-1.34-0.12-1.94-0.35
		c-0.59-0.23-1.09-0.53-1.49-0.89l0.46-0.75c0.05-0.09,0.12-0.17,0.2-0.21s0.19-0.08,0.32-0.08c0.13,0,0.26,0.05,0.39,0.14
		c0.13,0.09,0.29,0.2,0.48,0.3c0.19,0.11,0.41,0.21,0.68,0.3c0.27,0.09,0.6,0.13,1,0.13c0.33,0,0.62-0.04,0.87-0.12
		s0.45-0.2,0.61-0.34c0.16-0.14,0.29-0.31,0.36-0.49c0.08-0.19,0.12-0.38,0.12-0.59c0-0.27-0.08-0.49-0.22-0.66
		c-0.15-0.18-0.35-0.33-0.59-0.45c-0.24-0.13-0.52-0.24-0.83-0.33c-0.31-0.09-0.63-0.19-0.96-0.3c-0.33-0.11-0.65-0.23-0.96-0.37
		s-0.59-0.32-0.83-0.53c-0.24-0.21-0.44-0.47-0.59-0.78c-0.15-0.31-0.22-0.68-0.22-1.12c0-0.39,0.08-0.77,0.24-1.13
		s0.4-0.67,0.71-0.95c0.31-0.27,0.69-0.49,1.15-0.65c0.46-0.16,0.98-0.25,1.56-0.25c0.67,0,1.28,0.11,1.82,0.32
		c0.54,0.21,1.01,0.51,1.39,0.88L249.51,25.86z"/>
	<path class="st1" d="M260.33,32.81c-0.24,0.28-0.52,0.52-0.83,0.72s-0.65,0.37-1,0.49s-0.72,0.22-1.09,0.28s-0.75,0.09-1.11,0.09
		c-0.7,0-1.35-0.12-1.94-0.35s-1.11-0.58-1.55-1.04c-0.44-0.46-0.78-1.02-1.02-1.7c-0.24-0.68-0.36-1.45-0.36-2.33
		c0-0.71,0.11-1.36,0.33-1.97c0.22-0.61,0.53-1.14,0.94-1.59c0.41-0.45,0.91-0.81,1.5-1.07c0.59-0.26,1.26-0.39,2-0.39
		c0.62,0,1.19,0.1,1.71,0.3s0.97,0.5,1.35,0.88c0.38,0.39,0.68,0.86,0.89,1.43c0.22,0.57,0.33,1.21,0.33,1.94
		c0,0.3-0.03,0.5-0.1,0.6c-0.07,0.1-0.19,0.16-0.37,0.16h-6.65c0.02,0.61,0.11,1.13,0.26,1.58s0.36,0.82,0.63,1.12
		c0.27,0.3,0.59,0.52,0.96,0.67c0.37,0.15,0.79,0.22,1.25,0.22c0.43,0,0.81-0.05,1.12-0.15c0.32-0.1,0.59-0.21,0.82-0.32
		c0.23-0.12,0.42-0.22,0.58-0.33c0.16-0.1,0.29-0.15,0.41-0.15c0.16,0,0.28,0.06,0.37,0.18L260.33,32.81z M258.72,28.06
		c0-0.39-0.06-0.74-0.17-1.07c-0.11-0.33-0.27-0.61-0.48-0.85c-0.21-0.24-0.47-0.43-0.78-0.56c-0.31-0.13-0.66-0.2-1.06-0.2
		c-0.82,0-1.46,0.24-1.93,0.71c-0.47,0.47-0.77,1.13-0.89,1.97H258.72z"/>
	<path class="st1" d="M270.39,34.42c-0.82,0-1.45-0.23-1.89-0.69c-0.44-0.46-0.66-1.11-0.66-1.97v-6.07h-1.18
		c-0.11,0-0.21-0.04-0.28-0.11c-0.08-0.07-0.12-0.17-0.12-0.31v-0.79l1.65-0.23l0.44-3.02c0.03-0.11,0.08-0.2,0.16-0.26
		c0.08-0.06,0.17-0.09,0.29-0.09h0.99v3.4h2.87v1.42h-2.87v5.94c0,0.4,0.1,0.7,0.29,0.89s0.45,0.29,0.75,0.29
		c0.18,0,0.33-0.02,0.46-0.07c0.13-0.05,0.24-0.1,0.33-0.16c0.09-0.06,0.17-0.11,0.24-0.15s0.13-0.07,0.18-0.07
		c0.07,0,0.12,0.02,0.15,0.04c0.04,0.03,0.08,0.08,0.12,0.14l0.58,0.94c-0.32,0.29-0.7,0.52-1.14,0.68
		C271.32,34.34,270.86,34.42,270.39,34.42z"/>
	<path class="st1" d="M274,25.53c0.57-0.54,1.18-0.94,1.84-1.21c0.66-0.27,1.39-0.4,2.18-0.4c0.58,0,1.09,0.09,1.54,0.28
		c0.45,0.19,0.82,0.45,1.13,0.79c0.31,0.34,0.54,0.75,0.69,1.22c0.16,0.47,0.23,1,0.23,1.57v6.47h-0.87c-0.19,0-0.34-0.03-0.44-0.09
		s-0.18-0.18-0.24-0.35l-0.21-0.89c-0.26,0.24-0.52,0.45-0.77,0.63c-0.25,0.18-0.52,0.34-0.79,0.47c-0.28,0.13-0.57,0.23-0.88,0.29
		s-0.66,0.1-1.04,0.1c-0.4,0-0.77-0.06-1.12-0.17c-0.35-0.11-0.65-0.28-0.91-0.5c-0.26-0.23-0.46-0.51-0.61-0.85
		c-0.15-0.34-0.22-0.74-0.22-1.19c0-0.4,0.11-0.78,0.33-1.15c0.22-0.37,0.57-0.7,1.06-0.99c0.49-0.29,1.13-0.53,1.92-0.72
		c0.79-0.19,1.76-0.29,2.91-0.32v-0.74c0-0.76-0.16-1.34-0.49-1.72s-0.81-0.57-1.44-0.57c-0.43,0-0.78,0.05-1.07,0.16
		c-0.29,0.11-0.54,0.22-0.75,0.35c-0.21,0.13-0.39,0.25-0.55,0.35s-0.32,0.16-0.48,0.16c-0.13,0-0.25-0.04-0.34-0.11
		c-0.1-0.07-0.17-0.16-0.23-0.26L274,25.53z M279.71,29.76c-0.79,0.03-1.46,0.09-2.02,0.19c-0.55,0.1-1,0.22-1.35,0.38
		c-0.35,0.16-0.6,0.35-0.75,0.56c-0.15,0.22-0.23,0.46-0.23,0.72c0,0.25,0.04,0.47,0.12,0.65c0.08,0.18,0.2,0.33,0.34,0.45
		c0.14,0.12,0.31,0.2,0.5,0.25c0.19,0.05,0.4,0.08,0.63,0.08c0.3,0,0.57-0.03,0.82-0.09c0.25-0.06,0.48-0.14,0.7-0.25
		c0.22-0.11,0.43-0.25,0.63-0.4c0.2-0.16,0.4-0.34,0.59-0.55V29.76z"/>
	<path class="st1" d="M285.98,19.53v8.61h0.46c0.14,0,0.26-0.02,0.35-0.06c0.09-0.04,0.19-0.12,0.29-0.24l3.03-3.34
		c0.09-0.13,0.2-0.22,0.31-0.28s0.26-0.09,0.43-0.09h1.78l-3.58,3.92c-0.19,0.25-0.4,0.44-0.62,0.57c0.13,0.09,0.24,0.19,0.33,0.3
		c0.1,0.11,0.19,0.24,0.28,0.37l3.81,4.98h-1.75c-0.16,0-0.3-0.03-0.42-0.08c-0.12-0.05-0.22-0.15-0.31-0.29l-3.13-4.07
		c-0.1-0.15-0.2-0.25-0.3-0.29c-0.1-0.04-0.25-0.06-0.45-0.06h-0.52v4.8h-1.95V19.53H285.98z"/>
	<path class="st1" d="M301.89,32.81c-0.24,0.28-0.52,0.52-0.83,0.72s-0.65,0.37-1,0.49s-0.72,0.22-1.09,0.28s-0.75,0.09-1.11,0.09
		c-0.7,0-1.35-0.12-1.94-0.35s-1.11-0.58-1.55-1.04c-0.44-0.46-0.78-1.02-1.02-1.7c-0.24-0.68-0.36-1.45-0.36-2.33
		c0-0.71,0.11-1.36,0.33-1.97c0.22-0.61,0.53-1.14,0.94-1.59c0.41-0.45,0.91-0.81,1.5-1.07c0.59-0.26,1.26-0.39,2-0.39
		c0.62,0,1.19,0.1,1.71,0.3s0.97,0.5,1.35,0.88c0.38,0.39,0.68,0.86,0.89,1.43c0.22,0.57,0.33,1.21,0.33,1.94
		c0,0.3-0.03,0.5-0.1,0.6c-0.07,0.1-0.19,0.16-0.37,0.16h-6.65c0.02,0.61,0.11,1.13,0.26,1.58s0.36,0.82,0.63,1.12
		c0.27,0.3,0.59,0.52,0.96,0.67c0.37,0.15,0.79,0.22,1.25,0.22c0.43,0,0.81-0.05,1.12-0.15c0.32-0.1,0.59-0.21,0.82-0.32
		c0.23-0.12,0.42-0.22,0.58-0.33c0.16-0.1,0.29-0.15,0.41-0.15c0.16,0,0.28,0.06,0.37,0.18L301.89,32.81z M300.28,28.06
		c0-0.39-0.06-0.74-0.17-1.07c-0.11-0.33-0.27-0.61-0.48-0.85c-0.21-0.24-0.47-0.43-0.78-0.56c-0.31-0.13-0.66-0.2-1.06-0.2
		c-0.82,0-1.46,0.24-1.93,0.71c-0.47,0.47-0.77,1.13-0.89,1.97H300.28z"/>
	<path class="st1" d="M305.76,25.52c0.22-0.23,0.45-0.45,0.69-0.64s0.49-0.36,0.76-0.49s0.56-0.24,0.87-0.32s0.64-0.12,0.99-0.12
		c0.56,0,1.05,0.09,1.47,0.28c0.42,0.19,0.78,0.45,1.06,0.78s0.5,0.74,0.65,1.21c0.15,0.47,0.22,0.99,0.22,1.57v6.46h-1.96V27.8
		c0-0.72-0.17-1.29-0.5-1.69c-0.33-0.4-0.84-0.6-1.53-0.6c-0.5,0-0.97,0.12-1.4,0.35c-0.44,0.24-0.84,0.56-1.21,0.96v7.44h-1.95
		V24.12h1.17c0.27,0,0.44,0.13,0.51,0.39L305.76,25.52z"/>
	<path class="st1" d="M319.75,34.26V24.12h1.17c0.27,0,0.44,0.13,0.51,0.39l0.14,0.97c0.37-0.45,0.79-0.81,1.24-1.09
		c0.46-0.28,0.99-0.42,1.6-0.42c0.67,0,1.22,0.18,1.64,0.55c0.42,0.37,0.73,0.87,0.92,1.5c0.15-0.36,0.34-0.67,0.57-0.93
		c0.23-0.26,0.49-0.47,0.78-0.64c0.29-0.17,0.59-0.29,0.91-0.37c0.32-0.08,0.65-0.12,0.98-0.12c0.54,0,1.02,0.08,1.44,0.25
		c0.42,0.17,0.78,0.42,1.07,0.74c0.29,0.33,0.52,0.73,0.67,1.21c0.15,0.48,0.23,1.02,0.23,1.64v6.46h-1.96V27.8
		c0-0.76-0.17-1.33-0.49-1.72c-0.33-0.39-0.81-0.58-1.44-0.58c-0.28,0-0.55,0.05-0.8,0.14s-0.47,0.24-0.66,0.43
		c-0.19,0.19-0.34,0.43-0.45,0.72c-0.11,0.29-0.17,0.62-0.17,1v6.46h-1.96V27.8c0-0.79-0.16-1.36-0.47-1.74
		c-0.31-0.37-0.77-0.56-1.38-0.56c-0.42,0-0.81,0.11-1.17,0.33s-0.69,0.52-0.99,0.9v7.53H319.75z"/>
	<path class="st1" d="M338.45,20.98c0,0.18-0.04,0.35-0.11,0.51s-0.17,0.31-0.29,0.43c-0.12,0.12-0.27,0.22-0.43,0.29
		c-0.17,0.07-0.34,0.1-0.52,0.1s-0.35-0.04-0.51-0.1c-0.16-0.07-0.3-0.17-0.42-0.29c-0.12-0.12-0.22-0.27-0.29-0.43
		c-0.07-0.16-0.1-0.33-0.1-0.51c0-0.19,0.04-0.36,0.1-0.52c0.07-0.16,0.17-0.31,0.29-0.43c0.12-0.12,0.26-0.22,0.42-0.29
		c0.16-0.07,0.33-0.1,0.51-0.1s0.35,0.04,0.52,0.1c0.17,0.07,0.31,0.17,0.43,0.29c0.12,0.12,0.22,0.27,0.29,0.43
		S338.45,20.8,338.45,20.98z M338.08,24.12v10.14h-1.95V24.12H338.08z"/>
	<path class="st1" d="M349.21,34.26h-1.88c-0.15,0-0.27-0.04-0.36-0.12c-0.09-0.08-0.16-0.17-0.21-0.26l-2.45-3.86
		c-0.03,0.1-0.07,0.2-0.1,0.29c-0.03,0.09-0.08,0.18-0.13,0.26l-2.25,3.31c-0.07,0.09-0.14,0.18-0.23,0.26
		c-0.09,0.08-0.2,0.12-0.34,0.12h-1.74l3.53-5.22l-3.39-4.92h1.88c0.15,0,0.26,0.02,0.33,0.07c0.07,0.05,0.13,0.12,0.18,0.21
		l2.41,3.7c0.03-0.1,0.07-0.2,0.11-0.29c0.04-0.1,0.09-0.2,0.16-0.3l2.07-3.06c0.12-0.21,0.28-0.32,0.48-0.32h1.79l-3.39,4.83
		L349.21,34.26z"/>
	<path class="st1" d="M358.45,32.81c-0.24,0.28-0.52,0.52-0.83,0.72s-0.65,0.37-1,0.49s-0.72,0.22-1.09,0.28s-0.75,0.09-1.11,0.09
		c-0.7,0-1.35-0.12-1.94-0.35s-1.11-0.58-1.55-1.04c-0.44-0.46-0.78-1.02-1.02-1.7c-0.24-0.68-0.36-1.45-0.36-2.33
		c0-0.71,0.11-1.36,0.33-1.97c0.22-0.61,0.53-1.14,0.94-1.59c0.41-0.45,0.91-0.81,1.5-1.07c0.59-0.26,1.26-0.39,2-0.39
		c0.62,0,1.19,0.1,1.71,0.3s0.97,0.5,1.35,0.88c0.38,0.39,0.68,0.86,0.89,1.43c0.22,0.57,0.33,1.21,0.33,1.94
		c0,0.3-0.03,0.5-0.1,0.6c-0.07,0.1-0.19,0.16-0.37,0.16h-6.65c0.02,0.61,0.11,1.13,0.26,1.58s0.36,0.82,0.63,1.12
		c0.27,0.3,0.59,0.52,0.96,0.67c0.37,0.15,0.79,0.22,1.25,0.22c0.43,0,0.81-0.05,1.12-0.15c0.32-0.1,0.59-0.21,0.82-0.32
		c0.23-0.12,0.42-0.22,0.58-0.33c0.16-0.1,0.29-0.15,0.41-0.15c0.16,0,0.28,0.06,0.37,0.18L358.45,32.81z M356.85,28.06
		c0-0.39-0.06-0.74-0.17-1.07c-0.11-0.33-0.27-0.61-0.48-0.85c-0.21-0.24-0.47-0.43-0.78-0.56c-0.31-0.13-0.66-0.2-1.06-0.2
		c-0.82,0-1.46,0.24-1.93,0.71c-0.47,0.47-0.77,1.13-0.89,1.97H356.85z"/>
	<path class="st1" d="M368.99,19.53v14.73h-1.18c-0.27,0-0.44-0.13-0.51-0.39l-0.17-1.17c-0.43,0.51-0.92,0.92-1.47,1.23
		c-0.55,0.31-1.18,0.46-1.9,0.46c-0.58,0-1.1-0.11-1.57-0.34c-0.47-0.23-0.87-0.56-1.2-0.99c-0.33-0.44-0.59-0.98-0.77-1.62
		c-0.18-0.65-0.27-1.39-0.27-2.23c0-0.75,0.1-1.45,0.3-2.1c0.2-0.65,0.49-1.2,0.87-1.68s0.84-0.84,1.38-1.11s1.15-0.4,1.83-0.4
		c0.61,0,1.13,0.1,1.56,0.3c0.43,0.2,0.81,0.48,1.15,0.85v-5.55H368.99z M367.04,26.57c-0.32-0.42-0.66-0.71-1.03-0.88
		c-0.37-0.17-0.78-0.25-1.24-0.25c-0.89,0-1.58,0.32-2.07,0.96c-0.49,0.64-0.73,1.58-0.73,2.81c0,0.65,0.06,1.2,0.17,1.65
		c0.11,0.46,0.27,0.83,0.48,1.12c0.21,0.29,0.47,0.5,0.77,0.64c0.31,0.14,0.65,0.2,1.04,0.2c0.57,0,1.05-0.13,1.47-0.38
		c0.41-0.25,0.8-0.61,1.16-1.07V26.57z"/>
	<path class="st1" d="M390.08,24.12l-3.26,10.14h-1.56c-0.19,0-0.31-0.12-0.38-0.37l-2.14-6.61c-0.05-0.17-0.1-0.33-0.14-0.49
		s-0.08-0.33-0.11-0.49c-0.06,0.35-0.14,0.68-0.25,1.01l-2.17,6.59c-0.07,0.25-0.21,0.37-0.43,0.37h-1.48l-3.27-10.14h1.54
		c0.15,0,0.28,0.04,0.38,0.11c0.1,0.07,0.17,0.17,0.2,0.28l1.83,6.23c0.06,0.25,0.11,0.5,0.16,0.74c0.05,0.24,0.09,0.48,0.13,0.72
		c0.06-0.24,0.12-0.48,0.19-0.72c0.07-0.24,0.14-0.49,0.21-0.74l2.03-6.27c0.03-0.11,0.1-0.21,0.19-0.28
		c0.09-0.07,0.21-0.1,0.34-0.1h0.85c0.15,0,0.27,0.04,0.36,0.1c0.1,0.07,0.16,0.16,0.2,0.28l1.98,6.27c0.07,0.25,0.14,0.5,0.21,0.74
		c0.07,0.24,0.13,0.49,0.18,0.73c0.04-0.24,0.09-0.48,0.14-0.72c0.05-0.24,0.11-0.49,0.18-0.75l1.86-6.23
		c0.03-0.11,0.1-0.21,0.21-0.28c0.1-0.07,0.22-0.11,0.35-0.11H390.08z"/>
	<path class="st1" d="M393.94,20.98c0,0.18-0.04,0.35-0.11,0.51s-0.17,0.31-0.29,0.43c-0.12,0.12-0.27,0.22-0.43,0.29
		c-0.17,0.07-0.34,0.1-0.52,0.1s-0.35-0.04-0.51-0.1c-0.16-0.07-0.3-0.17-0.42-0.29c-0.12-0.12-0.22-0.27-0.29-0.43
		c-0.07-0.16-0.1-0.33-0.1-0.51c0-0.19,0.04-0.36,0.1-0.52c0.07-0.16,0.17-0.31,0.29-0.43c0.12-0.12,0.26-0.22,0.42-0.29
		c0.16-0.07,0.33-0.1,0.51-0.1s0.35,0.04,0.52,0.1c0.17,0.07,0.31,0.17,0.43,0.29c0.12,0.12,0.22,0.27,0.29,0.43
		S393.94,20.8,393.94,20.98z M393.57,24.12v10.14h-1.95V24.12H393.57z"/>
	<path class="st1" d="M399.37,34.42c-0.82,0-1.45-0.23-1.89-0.69c-0.44-0.46-0.66-1.11-0.66-1.97v-6.07h-1.18
		c-0.11,0-0.21-0.04-0.28-0.11c-0.08-0.07-0.12-0.17-0.12-0.31v-0.79l1.65-0.23l0.44-3.02c0.03-0.11,0.08-0.2,0.16-0.26
		c0.08-0.06,0.17-0.09,0.29-0.09h0.99v3.4h2.87v1.42h-2.87v5.94c0,0.4,0.1,0.7,0.29,0.89s0.45,0.29,0.75,0.29
		c0.18,0,0.33-0.02,0.46-0.07c0.13-0.05,0.24-0.1,0.33-0.16c0.09-0.06,0.17-0.11,0.24-0.15s0.13-0.07,0.18-0.07
		c0.07,0,0.12,0.02,0.15,0.04c0.04,0.03,0.08,0.08,0.12,0.14l0.58,0.94c-0.32,0.29-0.7,0.52-1.14,0.68
		C400.3,34.34,399.85,34.42,399.37,34.42z"/>
	<path class="st1" d="M405.19,25.4c0.43-0.43,0.9-0.78,1.41-1.05c0.52-0.27,1.11-0.4,1.78-0.4c0.56,0,1.05,0.09,1.47,0.28
		c0.42,0.19,0.78,0.45,1.06,0.78s0.5,0.74,0.65,1.21c0.15,0.47,0.22,0.99,0.22,1.57v6.46h-1.96V27.8c0-0.72-0.17-1.29-0.5-1.69
		c-0.33-0.4-0.84-0.6-1.53-0.6c-0.5,0-0.97,0.12-1.4,0.35c-0.44,0.24-0.84,0.56-1.21,0.96v7.44h-1.95V19.53h1.95V25.4z"/>
	<path class="st1" d="M418.8,25.53c0.57-0.54,1.18-0.94,1.84-1.21c0.66-0.27,1.39-0.4,2.18-0.4c0.58,0,1.09,0.09,1.54,0.28
		c0.45,0.19,0.82,0.45,1.13,0.79c0.31,0.34,0.54,0.75,0.69,1.22c0.16,0.47,0.23,1,0.23,1.57v6.47h-0.87c-0.19,0-0.34-0.03-0.44-0.09
		s-0.18-0.18-0.24-0.35l-0.21-0.89c-0.26,0.24-0.52,0.45-0.77,0.63c-0.25,0.18-0.52,0.34-0.79,0.47c-0.28,0.13-0.57,0.23-0.88,0.29
		s-0.66,0.1-1.04,0.1c-0.4,0-0.77-0.06-1.12-0.17c-0.35-0.11-0.65-0.28-0.91-0.5c-0.26-0.23-0.46-0.51-0.61-0.85
		c-0.15-0.34-0.22-0.74-0.22-1.19c0-0.4,0.11-0.78,0.33-1.15c0.22-0.37,0.57-0.7,1.06-0.99c0.49-0.29,1.13-0.53,1.92-0.72
		c0.79-0.19,1.76-0.29,2.91-0.32v-0.74c0-0.76-0.16-1.34-0.49-1.72s-0.81-0.57-1.44-0.57c-0.43,0-0.78,0.05-1.07,0.16
		c-0.29,0.11-0.54,0.22-0.75,0.35c-0.21,0.13-0.39,0.25-0.55,0.35s-0.32,0.16-0.48,0.16c-0.13,0-0.25-0.04-0.34-0.11
		c-0.1-0.07-0.17-0.16-0.23-0.26L418.8,25.53z M424.51,29.76c-0.79,0.03-1.46,0.09-2.02,0.19c-0.55,0.1-1,0.22-1.35,0.38
		c-0.35,0.16-0.6,0.35-0.75,0.56c-0.15,0.22-0.23,0.46-0.23,0.72c0,0.25,0.04,0.47,0.12,0.65c0.08,0.18,0.2,0.33,0.34,0.45
		c0.14,0.12,0.31,0.2,0.5,0.25c0.19,0.05,0.4,0.08,0.63,0.08c0.3,0,0.57-0.03,0.82-0.09c0.25-0.06,0.48-0.14,0.7-0.25
		c0.22-0.11,0.43-0.25,0.63-0.4c0.2-0.16,0.4-0.34,0.59-0.55V29.76z"/>
	<path class="st1" d="M430.67,25.63c0.21-0.25,0.44-0.48,0.68-0.69s0.5-0.39,0.78-0.54c0.28-0.15,0.58-0.27,0.89-0.35
		c0.32-0.08,0.65-0.12,1.01-0.12c0.58,0,1.1,0.11,1.57,0.34c0.47,0.23,0.87,0.56,1.2,1c0.33,0.44,0.59,0.98,0.77,1.63
		s0.27,1.39,0.27,2.23c0,0.75-0.1,1.45-0.3,2.09c-0.2,0.64-0.49,1.2-0.87,1.67c-0.38,0.47-0.83,0.84-1.38,1.11
		c-0.54,0.27-1.15,0.4-1.83,0.4c-0.61,0-1.12-0.1-1.56-0.3c-0.43-0.2-0.82-0.48-1.16-0.84v4.4h-1.95V24.12h1.17
		c0.27,0,0.44,0.13,0.51,0.39L430.67,25.63z M430.77,31.76c0.32,0.42,0.66,0.71,1.03,0.88c0.37,0.17,0.78,0.25,1.24,0.25
		c0.89,0,1.58-0.32,2.07-0.96c0.49-0.64,0.73-1.58,0.73-2.81c0-0.64-0.06-1.2-0.17-1.65c-0.11-0.46-0.27-0.83-0.48-1.12
		c-0.21-0.29-0.47-0.5-0.77-0.64c-0.31-0.14-0.65-0.2-1.04-0.2c-0.57,0-1.06,0.13-1.47,0.38c-0.42,0.25-0.8,0.61-1.15,1.08V31.76z"
		/>
	<path class="st1" d="M441.72,25.63c0.21-0.25,0.44-0.48,0.68-0.69s0.5-0.39,0.78-0.54c0.28-0.15,0.58-0.27,0.89-0.35
		c0.32-0.08,0.65-0.12,1.01-0.12c0.58,0,1.1,0.11,1.57,0.34c0.47,0.23,0.87,0.56,1.2,1c0.33,0.44,0.59,0.98,0.77,1.63
		s0.27,1.39,0.27,2.23c0,0.75-0.1,1.45-0.3,2.09c-0.2,0.64-0.49,1.2-0.87,1.67c-0.38,0.47-0.83,0.84-1.38,1.11
		c-0.54,0.27-1.15,0.4-1.83,0.4c-0.61,0-1.12-0.1-1.56-0.3c-0.43-0.2-0.82-0.48-1.16-0.84v4.4h-1.95V24.12h1.17
		c0.27,0,0.44,0.13,0.51,0.39L441.72,25.63z M441.82,31.76c0.32,0.42,0.66,0.71,1.03,0.88c0.37,0.17,0.78,0.25,1.24,0.25
		c0.89,0,1.58-0.32,2.07-0.96c0.49-0.64,0.73-1.58,0.73-2.81c0-0.64-0.06-1.2-0.17-1.65c-0.11-0.46-0.27-0.83-0.48-1.12
		c-0.21-0.29-0.47-0.5-0.77-0.64c-0.31-0.14-0.65-0.2-1.04-0.2c-0.57,0-1.06,0.13-1.47,0.38c-0.42,0.25-0.8,0.61-1.15,1.08V31.76z"
		/>
	<path class="st1" d="M452.92,19.53v14.73h-1.96V19.53H452.92z"/>
	<path class="st1" d="M463.84,32.81c-0.24,0.28-0.52,0.52-0.83,0.72s-0.65,0.37-1,0.49s-0.72,0.22-1.09,0.28s-0.75,0.09-1.11,0.09
		c-0.7,0-1.35-0.12-1.94-0.35s-1.11-0.58-1.55-1.04c-0.44-0.46-0.78-1.02-1.02-1.7c-0.24-0.68-0.36-1.45-0.36-2.33
		c0-0.71,0.11-1.36,0.33-1.97c0.22-0.61,0.53-1.14,0.94-1.59c0.41-0.45,0.91-0.81,1.5-1.07c0.59-0.26,1.26-0.39,2-0.39
		c0.62,0,1.19,0.1,1.71,0.3s0.97,0.5,1.35,0.88c0.38,0.39,0.68,0.86,0.89,1.43c0.22,0.57,0.33,1.21,0.33,1.94
		c0,0.3-0.03,0.5-0.1,0.6c-0.07,0.1-0.19,0.16-0.37,0.16h-6.65c0.02,0.61,0.11,1.13,0.26,1.58s0.36,0.82,0.63,1.12
		c0.27,0.3,0.59,0.52,0.96,0.67c0.37,0.15,0.79,0.22,1.25,0.22c0.43,0,0.81-0.05,1.12-0.15c0.32-0.1,0.59-0.21,0.82-0.32
		c0.23-0.12,0.42-0.22,0.58-0.33c0.16-0.1,0.29-0.15,0.41-0.15c0.16,0,0.28,0.06,0.37,0.18L463.84,32.81z M462.23,28.06
		c0-0.39-0.06-0.74-0.17-1.07c-0.11-0.33-0.27-0.61-0.48-0.85c-0.21-0.24-0.47-0.43-0.78-0.56c-0.31-0.13-0.66-0.2-1.06-0.2
		c-0.82,0-1.46,0.24-1.93,0.71c-0.47,0.47-0.77,1.13-0.89,1.97H462.23z"/>
	<path class="st1" d="M471.86,25.86c-0.05,0.09-0.11,0.15-0.17,0.19c-0.06,0.04-0.14,0.05-0.23,0.05c-0.11,0-0.22-0.04-0.35-0.11
		s-0.29-0.15-0.47-0.24c-0.18-0.09-0.4-0.17-0.64-0.24s-0.54-0.11-0.88-0.11c-0.28,0-0.53,0.04-0.76,0.11
		c-0.23,0.07-0.42,0.17-0.58,0.29c-0.16,0.12-0.28,0.27-0.37,0.44c-0.09,0.17-0.13,0.35-0.13,0.54c0,0.25,0.08,0.46,0.22,0.63
		c0.15,0.17,0.35,0.31,0.59,0.43s0.52,0.23,0.83,0.32c0.31,0.1,0.63,0.2,0.95,0.3c0.32,0.11,0.64,0.23,0.95,0.36
		c0.31,0.14,0.59,0.31,0.83,0.51c0.24,0.2,0.44,0.45,0.59,0.73c0.15,0.29,0.22,0.63,0.22,1.05c0,0.47-0.08,0.91-0.25,1.31
		s-0.42,0.75-0.75,1.04c-0.33,0.29-0.74,0.52-1.22,0.69s-1.04,0.25-1.67,0.25c-0.7,0-1.34-0.12-1.94-0.35
		c-0.59-0.23-1.09-0.53-1.49-0.89l0.46-0.75c0.05-0.09,0.12-0.17,0.2-0.21s0.19-0.08,0.32-0.08c0.13,0,0.26,0.05,0.39,0.14
		c0.13,0.09,0.29,0.2,0.48,0.3c0.19,0.11,0.41,0.21,0.68,0.3c0.27,0.09,0.6,0.13,1,0.13c0.33,0,0.62-0.04,0.87-0.12
		s0.45-0.2,0.61-0.34c0.16-0.14,0.29-0.31,0.36-0.49c0.08-0.19,0.12-0.38,0.12-0.59c0-0.27-0.08-0.49-0.22-0.66
		c-0.15-0.18-0.35-0.33-0.59-0.45c-0.24-0.13-0.52-0.24-0.83-0.33c-0.31-0.09-0.63-0.19-0.96-0.3c-0.33-0.11-0.65-0.23-0.96-0.37
		s-0.59-0.32-0.83-0.53c-0.24-0.21-0.44-0.47-0.59-0.78c-0.15-0.31-0.22-0.68-0.22-1.12c0-0.39,0.08-0.77,0.24-1.13
		s0.4-0.67,0.71-0.95c0.31-0.27,0.69-0.49,1.15-0.65c0.46-0.16,0.98-0.25,1.56-0.25c0.67,0,1.28,0.11,1.82,0.32
		c0.54,0.21,1.01,0.51,1.39,0.88L471.86,25.86z"/>
	<path class="st1" d="M474.1,25.53c0.57-0.54,1.18-0.94,1.84-1.21c0.66-0.27,1.39-0.4,2.18-0.4c0.58,0,1.09,0.09,1.54,0.28
		c0.45,0.19,0.82,0.45,1.13,0.79c0.31,0.34,0.54,0.75,0.69,1.22c0.16,0.47,0.23,1,0.23,1.57v6.47h-0.87c-0.19,0-0.34-0.03-0.44-0.09
		s-0.18-0.18-0.24-0.35l-0.21-0.89c-0.26,0.24-0.52,0.45-0.77,0.63c-0.25,0.18-0.52,0.34-0.79,0.47c-0.28,0.13-0.57,0.23-0.88,0.29
		s-0.66,0.1-1.04,0.1c-0.4,0-0.77-0.06-1.12-0.17c-0.35-0.11-0.65-0.28-0.91-0.5c-0.26-0.23-0.46-0.51-0.61-0.85
		c-0.15-0.34-0.22-0.74-0.22-1.19c0-0.4,0.11-0.78,0.33-1.15c0.22-0.37,0.57-0.7,1.06-0.99c0.49-0.29,1.13-0.53,1.92-0.72
		c0.79-0.19,1.76-0.29,2.91-0.32v-0.74c0-0.76-0.16-1.34-0.49-1.72s-0.81-0.57-1.44-0.57c-0.43,0-0.78,0.05-1.07,0.16
		c-0.29,0.11-0.54,0.22-0.75,0.35c-0.21,0.13-0.39,0.25-0.55,0.35s-0.32,0.16-0.48,0.16c-0.13,0-0.25-0.04-0.34-0.11
		c-0.1-0.07-0.17-0.16-0.23-0.26L474.1,25.53z M479.81,29.76c-0.79,0.03-1.46,0.09-2.02,0.19c-0.55,0.1-1,0.22-1.35,0.38
		c-0.35,0.16-0.6,0.35-0.75,0.56c-0.15,0.22-0.23,0.46-0.23,0.72c0,0.25,0.04,0.47,0.12,0.65c0.08,0.18,0.2,0.33,0.34,0.45
		c0.14,0.12,0.31,0.2,0.5,0.25c0.19,0.05,0.4,0.08,0.63,0.08c0.3,0,0.57-0.03,0.82-0.09c0.25-0.06,0.48-0.14,0.7-0.25
		c0.22-0.11,0.43-0.25,0.63-0.4c0.2-0.16,0.4-0.34,0.59-0.55V29.76z"/>
	<path class="st1" d="M492.57,24.12v10.14h-1.17c-0.27,0-0.44-0.13-0.52-0.39l-0.14-1.02c-0.22,0.23-0.45,0.45-0.69,0.64
		s-0.5,0.36-0.77,0.49s-0.56,0.24-0.87,0.32c-0.31,0.08-0.64,0.12-0.99,0.12c-0.56,0-1.05-0.09-1.47-0.28
		c-0.42-0.19-0.78-0.45-1.06-0.78s-0.5-0.74-0.65-1.21c-0.15-0.47-0.22-0.99-0.22-1.57v-6.46h1.96v6.46c0,0.72,0.17,1.29,0.5,1.69
		c0.33,0.4,0.84,0.6,1.53,0.6c0.5,0,0.96-0.12,1.4-0.35c0.43-0.24,0.84-0.56,1.22-0.97v-7.43H492.57z"/>
	<path class="st1" d="M502.22,26.01c-0.06,0.07-0.12,0.13-0.17,0.17c-0.06,0.04-0.14,0.06-0.24,0.06s-0.22-0.04-0.33-0.12
		c-0.12-0.08-0.26-0.17-0.44-0.27c-0.18-0.1-0.39-0.19-0.64-0.27c-0.25-0.08-0.56-0.12-0.92-0.12c-0.48,0-0.9,0.09-1.27,0.26
		c-0.37,0.17-0.67,0.42-0.91,0.74s-0.43,0.71-0.55,1.17c-0.13,0.46-0.19,0.97-0.19,1.55c0,0.59,0.07,1.12,0.2,1.58
		c0.13,0.46,0.32,0.85,0.57,1.17c0.25,0.32,0.54,0.56,0.9,0.72c0.35,0.16,0.75,0.25,1.18,0.25c0.42,0,0.76-0.05,1.04-0.16
		c0.27-0.1,0.5-0.21,0.68-0.33s0.33-0.23,0.45-0.33c0.12-0.1,0.24-0.16,0.37-0.16c0.16,0,0.28,0.06,0.37,0.18l0.56,0.72
		c-0.23,0.29-0.49,0.53-0.78,0.73c-0.29,0.2-0.6,0.36-0.92,0.49c-0.33,0.13-0.67,0.22-1.02,0.28c-0.36,0.06-0.72,0.09-1.08,0.09
		c-0.63,0-1.22-0.12-1.77-0.35c-0.55-0.23-1.03-0.57-1.43-1.02c-0.4-0.45-0.72-0.99-0.95-1.64c-0.23-0.65-0.35-1.39-0.35-2.21
		c0-0.75,0.11-1.45,0.31-2.09c0.21-0.64,0.52-1.19,0.93-1.65c0.41-0.46,0.91-0.83,1.51-1.09c0.6-0.26,1.28-0.39,2.06-0.39
		c0.72,0,1.36,0.12,1.92,0.35c0.55,0.23,1.04,0.56,1.48,0.99L502.22,26.01z"/>
	<path class="st1" d="M512.63,32.81c-0.24,0.28-0.52,0.52-0.83,0.72s-0.65,0.37-1,0.49s-0.72,0.22-1.09,0.28s-0.75,0.09-1.11,0.09
		c-0.7,0-1.35-0.12-1.94-0.35s-1.11-0.58-1.55-1.04c-0.44-0.46-0.78-1.02-1.02-1.7c-0.24-0.68-0.36-1.45-0.36-2.33
		c0-0.71,0.11-1.36,0.33-1.97c0.22-0.61,0.53-1.14,0.94-1.59c0.41-0.45,0.91-0.81,1.5-1.07c0.59-0.26,1.26-0.39,2-0.39
		c0.62,0,1.19,0.1,1.71,0.3s0.97,0.5,1.35,0.88c0.38,0.39,0.68,0.86,0.89,1.43c0.22,0.57,0.33,1.21,0.33,1.94
		c0,0.3-0.03,0.5-0.1,0.6c-0.07,0.1-0.19,0.16-0.37,0.16h-6.65c0.02,0.61,0.11,1.13,0.26,1.58s0.36,0.82,0.63,1.12
		c0.27,0.3,0.59,0.52,0.96,0.67c0.37,0.15,0.79,0.22,1.25,0.22c0.43,0,0.81-0.05,1.12-0.15c0.32-0.1,0.59-0.21,0.82-0.32
		c0.23-0.12,0.42-0.22,0.58-0.33c0.16-0.1,0.29-0.15,0.41-0.15c0.16,0,0.28,0.06,0.37,0.18L512.63,32.81z M511.02,28.06
		c0-0.39-0.06-0.74-0.17-1.07c-0.11-0.33-0.27-0.61-0.48-0.85c-0.21-0.24-0.47-0.43-0.78-0.56c-0.31-0.13-0.66-0.2-1.06-0.2
		c-0.82,0-1.46,0.24-1.93,0.71c-0.47,0.47-0.77,1.13-0.89,1.97H511.02z"/>
	<path class="st1" d="M515.55,34.26c-0.18,0-0.34-0.03-0.49-0.1c-0.15-0.07-0.28-0.16-0.39-0.27c-0.11-0.12-0.19-0.25-0.25-0.41
		c-0.06-0.16-0.09-0.33-0.09-0.52c0-0.16,0.03-0.31,0.09-0.45c0.06-0.14,0.15-0.27,0.25-0.37c0.11-0.11,0.24-0.19,0.39-0.25
		c0.15-0.06,0.32-0.09,0.51-0.09c0.21,0,0.4,0.04,0.56,0.12c0.16,0.08,0.3,0.18,0.41,0.32c0.11,0.14,0.19,0.29,0.24,0.47
		c0.05,0.18,0.08,0.37,0.08,0.58c0,0.3-0.04,0.62-0.13,0.95c-0.09,0.33-0.21,0.66-0.38,0.99c-0.17,0.33-0.37,0.64-0.62,0.95
		c-0.25,0.31-0.53,0.59-0.84,0.85l-0.33-0.31c-0.1-0.09-0.15-0.2-0.15-0.31c0-0.05,0.01-0.09,0.04-0.14
		c0.03-0.05,0.07-0.1,0.11-0.15c0.07-0.07,0.15-0.17,0.26-0.29s0.21-0.26,0.31-0.41c0.1-0.16,0.2-0.33,0.29-0.52
		c0.09-0.19,0.16-0.39,0.2-0.6H515.55z"/>
	<path class="st1" d="M532.29,24.12l-5.63,13.08c-0.06,0.15-0.14,0.26-0.24,0.34c-0.1,0.08-0.25,0.12-0.44,0.12h-1.45l1.86-4.04
		l-4.16-9.5h1.7c0.17,0,0.3,0.04,0.39,0.12c0.09,0.08,0.16,0.17,0.2,0.27l2.58,6.09c0.05,0.15,0.11,0.31,0.16,0.46
		s0.09,0.31,0.12,0.46c0.05-0.16,0.1-0.32,0.15-0.47c0.05-0.16,0.11-0.31,0.17-0.46l2.49-6.08c0.05-0.11,0.12-0.21,0.22-0.28
		s0.21-0.11,0.34-0.11H532.29z"/>
	<path class="st1" d="M537.62,23.96c0.75,0,1.42,0.12,2.02,0.36c0.6,0.24,1.12,0.59,1.54,1.05c0.42,0.46,0.75,1,0.97,1.65
		c0.23,0.64,0.34,1.36,0.34,2.16c0,0.8-0.11,1.52-0.34,2.17c-0.23,0.65-0.55,1.19-0.97,1.65c-0.42,0.45-0.93,0.8-1.54,1.04
		c-0.6,0.24-1.28,0.36-2.02,0.36c-0.75,0-1.43-0.12-2.03-0.36c-0.6-0.24-1.12-0.59-1.54-1.04s-0.75-1-0.98-1.65
		s-0.34-1.37-0.34-2.17c0-0.8,0.12-1.52,0.34-2.16s0.56-1.19,0.98-1.65c0.43-0.46,0.94-0.81,1.54-1.05
		C536.19,24.08,536.87,23.96,537.62,23.96z M537.62,32.88c0.96,0,1.67-0.32,2.15-0.97c0.47-0.65,0.71-1.55,0.71-2.72
		s-0.24-2.08-0.71-2.73c-0.47-0.65-1.19-0.97-2.15-0.97c-0.97,0-1.7,0.32-2.17,0.97c-0.48,0.65-0.71,1.56-0.71,2.73
		s0.24,2.08,0.71,2.72C535.92,32.56,536.65,32.88,537.62,32.88z"/>
	<path class="st1" d="M553.06,24.5v0.73c0,0.24-0.15,0.39-0.45,0.45l-1.09,0.16c0.09,0.21,0.17,0.42,0.22,0.65
		c0.05,0.23,0.08,0.47,0.08,0.72c0,0.5-0.1,0.95-0.29,1.35c-0.19,0.4-0.46,0.75-0.8,1.03c-0.34,0.29-0.74,0.51-1.21,0.66
		c-0.47,0.15-0.98,0.23-1.54,0.23c-0.46,0-0.89-0.05-1.29-0.15c-0.2,0.12-0.35,0.25-0.46,0.39c-0.1,0.14-0.15,0.28-0.15,0.42
		c0,0.23,0.1,0.41,0.29,0.52c0.2,0.11,0.45,0.19,0.77,0.24c0.32,0.05,0.68,0.08,1.09,0.09c0.41,0.01,0.82,0.04,1.25,0.07
		c0.42,0.03,0.84,0.08,1.25,0.16c0.41,0.08,0.77,0.2,1.09,0.37c0.32,0.17,0.57,0.4,0.77,0.7s0.29,0.68,0.29,1.15
		c0,0.44-0.11,0.87-0.32,1.28c-0.22,0.41-0.53,0.78-0.94,1.1c-0.41,0.32-0.92,0.58-1.51,0.77c-0.59,0.19-1.26,0.29-2.02,0.29
		s-1.41-0.07-1.96-0.22s-1.02-0.34-1.39-0.59c-0.37-0.25-0.65-0.53-0.83-0.86c-0.18-0.33-0.27-0.67-0.27-1.02
		c0-0.49,0.15-0.91,0.46-1.25s0.73-0.61,1.27-0.8c-0.29-0.13-0.53-0.31-0.7-0.54c-0.17-0.23-0.26-0.53-0.26-0.91
		c0-0.15,0.03-0.3,0.08-0.45c0.05-0.16,0.13-0.31,0.24-0.47c0.11-0.16,0.25-0.3,0.41-0.44s0.35-0.27,0.56-0.38
		c-0.5-0.28-0.89-0.65-1.18-1.11c-0.29-0.46-0.43-1-0.43-1.62c0-0.5,0.1-0.95,0.29-1.35c0.19-0.4,0.46-0.74,0.8-1.03
		s0.75-0.51,1.23-0.66c0.48-0.15,1-0.23,1.56-0.23c0.88,0,1.63,0.18,2.27,0.55H553.06z M551.08,34.79c0-0.24-0.07-0.43-0.2-0.57
		s-0.31-0.26-0.54-0.34c-0.23-0.08-0.5-0.14-0.8-0.18c-0.31-0.04-0.63-0.07-0.96-0.08c-0.34-0.02-0.68-0.04-1.03-0.06
		c-0.35-0.02-0.69-0.05-1.02-0.09c-0.35,0.17-0.63,0.38-0.85,0.63s-0.33,0.54-0.33,0.87c0,0.21,0.05,0.41,0.16,0.6
		c0.11,0.19,0.28,0.35,0.51,0.48c0.23,0.14,0.52,0.24,0.87,0.32c0.35,0.08,0.77,0.12,1.25,0.12c0.48,0,0.9-0.04,1.27-0.12
		c0.37-0.08,0.67-0.2,0.92-0.35c0.25-0.15,0.44-0.33,0.57-0.53C551.02,35.26,551.08,35.03,551.08,34.79z M547.98,29.2
		c0.35,0,0.65-0.05,0.91-0.14c0.26-0.09,0.48-0.22,0.66-0.39c0.18-0.17,0.31-0.37,0.4-0.61c0.09-0.24,0.13-0.5,0.13-0.79
		c0-0.58-0.18-1.05-0.53-1.4c-0.36-0.35-0.88-0.52-1.57-0.52c-0.69,0-1.21,0.17-1.56,0.52c-0.36,0.35-0.53,0.82-0.53,1.4
		c0,0.29,0.04,0.55,0.13,0.78s0.22,0.44,0.4,0.61c0.18,0.17,0.4,0.3,0.66,0.4S547.64,29.2,547.98,29.2z"/>
	<path class="st1" d="M563.09,24.12v10.14h-1.17c-0.27,0-0.44-0.13-0.52-0.39l-0.14-1.02c-0.22,0.23-0.45,0.45-0.69,0.64
		s-0.5,0.36-0.77,0.49s-0.56,0.24-0.87,0.32c-0.31,0.08-0.64,0.12-0.99,0.12c-0.56,0-1.05-0.09-1.47-0.28
		c-0.42-0.19-0.78-0.45-1.06-0.78s-0.5-0.74-0.65-1.21c-0.15-0.47-0.22-0.99-0.22-1.57v-6.46h1.96v6.46c0,0.72,0.17,1.29,0.5,1.69
		c0.33,0.4,0.84,0.6,1.53,0.6c0.5,0,0.96-0.12,1.4-0.35c0.43-0.24,0.84-0.56,1.22-0.97v-7.43H563.09z"/>
	<path class="st1" d="M567.47,26.06c0.33-0.67,0.72-1.19,1.18-1.57c0.46-0.38,1.01-0.57,1.66-0.57c0.22,0,0.43,0.02,0.62,0.07
		s0.37,0.12,0.51,0.22l-0.13,1.47c-0.05,0.18-0.16,0.27-0.33,0.27c-0.09,0-0.23-0.02-0.42-0.06c-0.19-0.04-0.39-0.05-0.6-0.05
		c-0.31,0-0.59,0.04-0.83,0.13c-0.24,0.09-0.45,0.22-0.64,0.4c-0.19,0.18-0.36,0.39-0.5,0.65c-0.15,0.26-0.28,0.55-0.41,0.87v6.35
		h-1.95V24.12h1.12c0.21,0,0.36,0.04,0.43,0.11c0.08,0.08,0.13,0.21,0.16,0.4L567.47,26.06z"/>
	<path class="st1" d="M575.93,34.42c-0.82,0-1.45-0.23-1.89-0.69c-0.44-0.46-0.66-1.11-0.66-1.97v-6.07h-1.18
		c-0.11,0-0.21-0.04-0.28-0.11c-0.08-0.07-0.12-0.17-0.12-0.31v-0.79l1.65-0.23l0.44-3.02c0.03-0.11,0.08-0.2,0.16-0.26
		c0.08-0.06,0.17-0.09,0.29-0.09h0.99v3.4h2.87v1.42h-2.87v5.94c0,0.4,0.1,0.7,0.29,0.89s0.45,0.29,0.75,0.29
		c0.18,0,0.33-0.02,0.46-0.07c0.13-0.05,0.24-0.1,0.33-0.16c0.09-0.06,0.17-0.11,0.24-0.15s0.13-0.07,0.18-0.07
		c0.07,0,0.12,0.02,0.15,0.04c0.04,0.03,0.08,0.08,0.12,0.14l0.58,0.94c-0.32,0.29-0.7,0.52-1.14,0.68
		C576.85,34.34,576.4,34.42,575.93,34.42z"/>
	<path class="st1" d="M580.68,34.26c-0.18,0-0.34-0.03-0.49-0.1c-0.15-0.07-0.28-0.16-0.39-0.27c-0.11-0.12-0.19-0.25-0.25-0.41
		c-0.06-0.16-0.09-0.33-0.09-0.52c0-0.16,0.03-0.31,0.09-0.45c0.06-0.14,0.15-0.27,0.25-0.37c0.11-0.11,0.24-0.19,0.39-0.25
		c0.15-0.06,0.32-0.09,0.51-0.09c0.21,0,0.4,0.04,0.56,0.12c0.16,0.08,0.3,0.18,0.41,0.32c0.11,0.14,0.19,0.29,0.24,0.47
		c0.05,0.18,0.08,0.37,0.08,0.58c0,0.3-0.04,0.62-0.13,0.95c-0.09,0.33-0.21,0.66-0.38,0.99c-0.17,0.33-0.37,0.64-0.62,0.95
		c-0.25,0.31-0.53,0.59-0.84,0.85l-0.33-0.31c-0.1-0.09-0.15-0.2-0.15-0.31c0-0.05,0.01-0.09,0.04-0.14
		c0.03-0.05,0.07-0.1,0.11-0.15c0.07-0.07,0.15-0.17,0.26-0.29s0.21-0.26,0.31-0.41c0.1-0.16,0.2-0.33,0.29-0.52
		c0.09-0.19,0.16-0.39,0.2-0.6H580.68z"/>
	<path class="st1" d="M593.35,23.96c0.75,0,1.42,0.12,2.02,0.36c0.6,0.24,1.12,0.59,1.54,1.05c0.42,0.46,0.75,1,0.97,1.65
		c0.23,0.64,0.34,1.36,0.34,2.16c0,0.8-0.11,1.52-0.34,2.17c-0.23,0.65-0.55,1.19-0.97,1.65c-0.42,0.45-0.93,0.8-1.54,1.04
		c-0.6,0.24-1.28,0.36-2.02,0.36c-0.75,0-1.43-0.12-2.03-0.36c-0.6-0.24-1.12-0.59-1.54-1.04s-0.75-1-0.98-1.65
		s-0.34-1.37-0.34-2.17c0-0.8,0.12-1.52,0.34-2.16s0.56-1.19,0.98-1.65c0.43-0.46,0.94-0.81,1.54-1.05
		C591.92,24.08,592.6,23.96,593.35,23.96z M593.35,32.88c0.96,0,1.67-0.32,2.15-0.97c0.47-0.65,0.71-1.55,0.71-2.72
		s-0.24-2.08-0.71-2.73c-0.47-0.65-1.19-0.97-2.15-0.97c-0.97,0-1.7,0.32-2.17,0.97c-0.48,0.65-0.71,1.56-0.71,2.73
		s0.24,2.08,0.71,2.72C591.66,32.56,592.38,32.88,593.35,32.88z"/>
	<path class="st1" d="M602.05,26.06c0.33-0.67,0.72-1.19,1.18-1.57c0.46-0.38,1.01-0.57,1.66-0.57c0.22,0,0.43,0.02,0.62,0.07
		s0.37,0.12,0.51,0.22l-0.13,1.47c-0.05,0.18-0.16,0.27-0.33,0.27c-0.09,0-0.23-0.02-0.42-0.06c-0.19-0.04-0.39-0.05-0.6-0.05
		c-0.31,0-0.59,0.04-0.83,0.13c-0.24,0.09-0.45,0.22-0.64,0.4c-0.19,0.18-0.36,0.39-0.5,0.65c-0.15,0.26-0.28,0.55-0.41,0.87v6.35
		h-1.95V24.12h1.12c0.21,0,0.36,0.04,0.43,0.11c0.08,0.08,0.13,0.21,0.16,0.4L602.05,26.06z"/>
	<path class="st1" d="M613.59,25.63c0.21-0.25,0.44-0.48,0.68-0.69s0.5-0.39,0.78-0.54c0.28-0.15,0.58-0.27,0.89-0.35
		c0.32-0.08,0.65-0.12,1.01-0.12c0.58,0,1.1,0.11,1.57,0.34c0.47,0.23,0.87,0.56,1.2,1c0.33,0.44,0.59,0.98,0.77,1.63
		s0.27,1.39,0.27,2.23c0,0.75-0.1,1.45-0.3,2.09c-0.2,0.64-0.49,1.2-0.87,1.67c-0.38,0.47-0.83,0.84-1.38,1.11
		c-0.54,0.27-1.15,0.4-1.83,0.4c-0.61,0-1.12-0.1-1.56-0.3c-0.43-0.2-0.82-0.48-1.16-0.84v4.4h-1.95V24.12h1.17
		c0.27,0,0.44,0.13,0.51,0.39L613.59,25.63z M613.69,31.76c0.32,0.42,0.66,0.71,1.03,0.88c0.37,0.17,0.78,0.25,1.24,0.25
		c0.89,0,1.58-0.32,2.07-0.96c0.49-0.64,0.73-1.58,0.73-2.81c0-0.64-0.06-1.2-0.17-1.65c-0.11-0.46-0.27-0.83-0.48-1.12
		c-0.21-0.29-0.47-0.5-0.77-0.64c-0.31-0.14-0.65-0.2-1.04-0.2c-0.57,0-1.06,0.13-1.47,0.38c-0.42,0.25-0.8,0.61-1.15,1.08V31.76z"
		/>
	<path class="st1" d="M631.23,24.12v10.14h-1.17c-0.27,0-0.44-0.13-0.52-0.39l-0.14-1.02c-0.22,0.23-0.45,0.45-0.69,0.64
		s-0.5,0.36-0.77,0.49s-0.56,0.24-0.87,0.32c-0.31,0.08-0.64,0.12-0.99,0.12c-0.56,0-1.05-0.09-1.47-0.28
		c-0.42-0.19-0.78-0.45-1.06-0.78s-0.5-0.74-0.65-1.21c-0.15-0.47-0.22-0.99-0.22-1.57v-6.46h1.96v6.46c0,0.72,0.17,1.29,0.5,1.69
		c0.33,0.4,0.84,0.6,1.53,0.6c0.5,0,0.96-0.12,1.4-0.35c0.43-0.24,0.84-0.56,1.22-0.97v-7.43H631.23z"/>
	<path class="st1" d="M642.27,19.53v14.73h-1.18c-0.27,0-0.44-0.13-0.51-0.39l-0.17-1.17c-0.43,0.51-0.92,0.92-1.47,1.23
		c-0.55,0.31-1.18,0.46-1.9,0.46c-0.58,0-1.1-0.11-1.57-0.34c-0.47-0.23-0.87-0.56-1.2-0.99c-0.33-0.44-0.59-0.98-0.77-1.62
		c-0.18-0.65-0.27-1.39-0.27-2.23c0-0.75,0.1-1.45,0.3-2.1c0.2-0.65,0.49-1.2,0.87-1.68s0.84-0.84,1.38-1.11s1.15-0.4,1.83-0.4
		c0.61,0,1.13,0.1,1.56,0.3c0.43,0.2,0.81,0.48,1.15,0.85v-5.55H642.27z M640.31,26.57c-0.32-0.42-0.66-0.71-1.03-0.88
		c-0.37-0.17-0.78-0.25-1.24-0.25c-0.89,0-1.58,0.32-2.07,0.96c-0.49,0.64-0.73,1.58-0.73,2.81c0,0.65,0.06,1.2,0.17,1.65
		c0.11,0.46,0.27,0.83,0.48,1.12c0.21,0.29,0.47,0.5,0.77,0.64c0.31,0.14,0.65,0.2,1.04,0.2c0.57,0,1.05-0.13,1.47-0.38
		c0.41-0.25,0.8-0.61,1.16-1.07V26.57z"/>
	<path class="st1" d="M653.31,19.53v14.73h-1.18c-0.27,0-0.44-0.13-0.51-0.39l-0.17-1.17c-0.43,0.51-0.92,0.92-1.47,1.23
		c-0.55,0.31-1.18,0.46-1.9,0.46c-0.58,0-1.1-0.11-1.57-0.34c-0.47-0.23-0.87-0.56-1.2-0.99c-0.33-0.44-0.59-0.98-0.77-1.62
		c-0.18-0.65-0.27-1.39-0.27-2.23c0-0.75,0.1-1.45,0.3-2.1c0.2-0.65,0.49-1.2,0.87-1.68s0.84-0.84,1.38-1.11s1.15-0.4,1.83-0.4
		c0.61,0,1.13,0.1,1.56,0.3c0.43,0.2,0.81,0.48,1.15,0.85v-5.55H653.31z M651.35,26.57c-0.32-0.42-0.66-0.71-1.03-0.88
		c-0.37-0.17-0.78-0.25-1.24-0.25c-0.89,0-1.58,0.32-2.07,0.96c-0.49,0.64-0.73,1.58-0.73,2.81c0,0.65,0.06,1.2,0.17,1.65
		c0.11,0.46,0.27,0.83,0.48,1.12c0.21,0.29,0.47,0.5,0.77,0.64c0.31,0.14,0.65,0.2,1.04,0.2c0.57,0,1.05-0.13,1.47-0.38
		c0.41-0.25,0.8-0.61,1.16-1.07V26.57z"/>
	<path class="st1" d="M658.26,20.98c0,0.18-0.04,0.35-0.11,0.51s-0.17,0.31-0.29,0.43c-0.12,0.12-0.27,0.22-0.43,0.29
		c-0.17,0.07-0.34,0.1-0.52,0.1s-0.35-0.04-0.51-0.1c-0.16-0.07-0.3-0.17-0.42-0.29c-0.12-0.12-0.22-0.27-0.29-0.43
		c-0.07-0.16-0.1-0.33-0.1-0.51c0-0.19,0.04-0.36,0.1-0.52c0.07-0.16,0.17-0.31,0.29-0.43c0.12-0.12,0.26-0.22,0.42-0.29
		c0.16-0.07,0.33-0.1,0.51-0.1s0.35,0.04,0.52,0.1c0.17,0.07,0.31,0.17,0.43,0.29c0.12,0.12,0.22,0.27,0.29,0.43
		S658.26,20.8,658.26,20.98z M657.89,24.12v10.14h-1.95V24.12H657.89z"/>
	<path class="st1" d="M662.34,25.52c0.22-0.23,0.45-0.45,0.69-0.64s0.49-0.36,0.76-0.49s0.56-0.24,0.87-0.32s0.64-0.12,0.99-0.12
		c0.56,0,1.05,0.09,1.47,0.28c0.42,0.19,0.78,0.45,1.06,0.78s0.5,0.74,0.65,1.21c0.15,0.47,0.22,0.99,0.22,1.57v6.46h-1.96V27.8
		c0-0.72-0.17-1.29-0.5-1.69c-0.33-0.4-0.84-0.6-1.53-0.6c-0.5,0-0.97,0.12-1.4,0.35c-0.44,0.24-0.84,0.56-1.21,0.96v7.44h-1.95
		V24.12h1.17c0.27,0,0.44,0.13,0.51,0.39L662.34,25.52z"/>
	<path class="st1" d="M680.13,24.5v0.73c0,0.24-0.15,0.39-0.45,0.45l-1.09,0.16c0.09,0.21,0.17,0.42,0.22,0.65
		c0.05,0.23,0.08,0.47,0.08,0.72c0,0.5-0.1,0.95-0.29,1.35c-0.19,0.4-0.46,0.75-0.8,1.03c-0.34,0.29-0.74,0.51-1.21,0.66
		c-0.47,0.15-0.98,0.23-1.54,0.23c-0.46,0-0.89-0.05-1.29-0.15c-0.2,0.12-0.35,0.25-0.46,0.39c-0.1,0.14-0.15,0.28-0.15,0.42
		c0,0.23,0.1,0.41,0.29,0.52c0.2,0.11,0.45,0.19,0.77,0.24c0.32,0.05,0.68,0.08,1.09,0.09c0.41,0.01,0.82,0.04,1.25,0.07
		c0.42,0.03,0.84,0.08,1.25,0.16c0.41,0.08,0.77,0.2,1.09,0.37c0.32,0.17,0.57,0.4,0.77,0.7s0.29,0.68,0.29,1.15
		c0,0.44-0.11,0.87-0.32,1.28c-0.22,0.41-0.53,0.78-0.94,1.1c-0.41,0.32-0.92,0.58-1.51,0.77c-0.59,0.19-1.26,0.29-2.02,0.29
		s-1.41-0.07-1.96-0.22s-1.02-0.34-1.39-0.59c-0.37-0.25-0.65-0.53-0.83-0.86c-0.18-0.33-0.27-0.67-0.27-1.02
		c0-0.49,0.15-0.91,0.46-1.25s0.73-0.61,1.27-0.8c-0.29-0.13-0.53-0.31-0.7-0.54c-0.17-0.23-0.26-0.53-0.26-0.91
		c0-0.15,0.03-0.3,0.08-0.45c0.05-0.16,0.13-0.31,0.24-0.47c0.11-0.16,0.25-0.3,0.41-0.44s0.35-0.27,0.56-0.38
		c-0.5-0.28-0.89-0.65-1.18-1.11c-0.29-0.46-0.43-1-0.43-1.62c0-0.5,0.1-0.95,0.29-1.35c0.19-0.4,0.46-0.74,0.8-1.03
		s0.75-0.51,1.23-0.66c0.48-0.15,1-0.23,1.56-0.23c0.88,0,1.63,0.18,2.27,0.55H680.13z M678.15,34.79c0-0.24-0.07-0.43-0.2-0.57
		s-0.31-0.26-0.54-0.34c-0.23-0.08-0.5-0.14-0.8-0.18c-0.31-0.04-0.63-0.07-0.96-0.08c-0.34-0.02-0.68-0.04-1.03-0.06
		c-0.35-0.02-0.69-0.05-1.02-0.09c-0.35,0.17-0.63,0.38-0.85,0.63s-0.33,0.54-0.33,0.87c0,0.21,0.05,0.41,0.16,0.6
		c0.11,0.19,0.28,0.35,0.51,0.48c0.23,0.14,0.52,0.24,0.87,0.32c0.35,0.08,0.77,0.12,1.25,0.12c0.48,0,0.9-0.04,1.27-0.12
		c0.37-0.08,0.67-0.2,0.92-0.35c0.25-0.15,0.44-0.33,0.57-0.53C678.08,35.26,678.15,35.03,678.15,34.79z M675.05,29.2
		c0.35,0,0.65-0.05,0.91-0.14c0.26-0.09,0.48-0.22,0.66-0.39c0.18-0.17,0.31-0.37,0.4-0.61c0.09-0.24,0.13-0.5,0.13-0.79
		c0-0.58-0.18-1.05-0.53-1.4c-0.36-0.35-0.88-0.52-1.57-0.52c-0.69,0-1.21,0.17-1.56,0.52c-0.36,0.35-0.53,0.82-0.53,1.4
		c0,0.29,0.04,0.55,0.13,0.78s0.22,0.44,0.4,0.61c0.18,0.17,0.4,0.3,0.66,0.4S674.71,29.2,675.05,29.2z"/>
	<path class="st1" d="M681.61,27.63h13.34v1.42h-13.34V27.63z"/>
</g>
<g>
	<path class="st1" d="M698.46,25.27c0.21-0.21,0.42-0.4,0.65-0.57c0.23-0.18,0.47-0.33,0.73-0.45c0.26-0.12,0.53-0.22,0.82-0.29
		c0.29-0.07,0.61-0.1,0.96-0.1c0.56,0,1.05,0.09,1.49,0.28c0.43,0.19,0.79,0.46,1.08,0.8c0.29,0.34,0.51,0.75,0.66,1.23
		c0.15,0.48,0.22,1,0.22,1.57v6.52h-2.46v-6.52c0-0.62-0.14-1.11-0.43-1.45s-0.72-0.51-1.31-0.51c-0.43,0-0.83,0.1-1.2,0.29
		c-0.37,0.19-0.73,0.46-1.06,0.79v7.41h-2.46V24.02h1.51c0.32,0,0.53,0.15,0.63,0.45L698.46,25.27z"/>
	<path class="st1" d="M711.57,23.86c0.76,0,1.45,0.12,2.07,0.37s1.15,0.6,1.6,1.05c0.44,0.45,0.78,1,1.02,1.66
		c0.24,0.65,0.36,1.38,0.36,2.19c0,0.81-0.12,1.54-0.36,2.2c-0.24,0.65-0.58,1.21-1.02,1.67s-0.97,0.81-1.6,1.06
		s-1.31,0.37-2.07,0.37c-0.77,0-1.46-0.12-2.09-0.37c-0.63-0.25-1.16-0.6-1.6-1.06c-0.44-0.46-0.79-1.01-1.03-1.67
		c-0.24-0.65-0.36-1.38-0.36-2.2c0-0.8,0.12-1.53,0.36-2.19c0.24-0.65,0.58-1.2,1.03-1.66c0.44-0.45,0.98-0.8,1.6-1.05
		C710.11,23.98,710.8,23.86,711.57,23.86z M711.57,32.51c0.85,0,1.48-0.29,1.89-0.86c0.41-0.57,0.61-1.41,0.61-2.51
		s-0.2-1.95-0.61-2.53s-1.04-0.87-1.89-0.87c-0.87,0-1.51,0.29-1.92,0.87c-0.42,0.58-0.62,1.42-0.62,2.52s0.21,1.93,0.62,2.51
		C710.06,32.22,710.7,32.51,711.57,32.51z"/>
</g>
<path class="st1" d="M33.8,48.16c-0.07,0.09-0.14,0.17-0.21,0.22c-0.07,0.05-0.17,0.08-0.3,0.08c-0.13,0-0.25-0.04-0.37-0.11
	c-0.12-0.08-0.26-0.16-0.43-0.26c-0.17-0.1-0.36-0.18-0.59-0.26c-0.23-0.08-0.51-0.11-0.85-0.11c-0.43,0-0.81,0.08-1.14,0.23
	c-0.33,0.16-0.6,0.38-0.81,0.67c-0.22,0.29-0.38,0.65-0.48,1.06c-0.11,0.42-0.16,0.89-0.16,1.41c0,0.55,0.06,1.03,0.17,1.46
	c0.12,0.43,0.28,0.78,0.5,1.07c0.22,0.29,0.49,0.51,0.8,0.66c0.31,0.15,0.67,0.22,1.06,0.22c0.39,0,0.71-0.05,0.95-0.14
	c0.24-0.1,0.45-0.2,0.61-0.32c0.17-0.12,0.31-0.22,0.43-0.32c0.12-0.1,0.26-0.14,0.41-0.14c0.2,0,0.35,0.08,0.45,0.23l0.71,0.9
	c-0.27,0.32-0.57,0.59-0.89,0.8c-0.32,0.22-0.65,0.39-0.99,0.52c-0.34,0.13-0.7,0.22-1.06,0.27c-0.36,0.05-0.72,0.08-1.08,0.08
	c-0.63,0-1.23-0.12-1.79-0.35S27.7,55.45,27.28,55c-0.42-0.45-0.75-1.01-0.99-1.66c-0.24-0.66-0.36-1.4-0.36-2.24
	c0-0.75,0.11-1.45,0.32-2.09c0.22-0.64,0.53-1.2,0.95-1.67s0.94-0.84,1.56-1.1c0.62-0.27,1.33-0.4,2.14-0.4
	c0.77,0,1.44,0.12,2.01,0.37c0.58,0.25,1.09,0.6,1.55,1.06L33.8,48.16z M38.02,47.77c0.32-0.61,0.7-1.09,1.14-1.44
	c0.44-0.35,0.96-0.52,1.56-0.52c0.47,0,0.85,0.1,1.14,0.31l-0.16,1.85c-0.03,0.12-0.08,0.2-0.14,0.25
	c-0.06,0.05-0.15,0.07-0.25,0.07c-0.1,0-0.25-0.02-0.44-0.05c-0.2-0.03-0.39-0.05-0.57-0.05c-0.27,0-0.52,0.04-0.73,0.12
	c-0.21,0.08-0.4,0.19-0.57,0.34c-0.17,0.15-0.32,0.33-0.45,0.54c-0.13,0.21-0.25,0.46-0.36,0.73v6.31h-2.47V46h1.45
	c0.25,0,0.43,0.04,0.53,0.13c0.1,0.09,0.17,0.25,0.2,0.48L38.02,47.77z M44.34,51.43c0.04,0.53,0.13,0.98,0.28,1.36
	c0.15,0.38,0.34,0.7,0.58,0.95c0.24,0.25,0.52,0.44,0.85,0.56c0.33,0.12,0.69,0.18,1.09,0.18c0.4,0,0.74-0.05,1.03-0.14
	c0.29-0.09,0.54-0.2,0.76-0.31c0.22-0.11,0.41-0.22,0.57-0.31c0.16-0.09,0.32-0.14,0.47-0.14c0.21,0,0.36,0.08,0.46,0.23l0.71,0.9
	c-0.27,0.32-0.58,0.59-0.92,0.8c-0.34,0.22-0.69,0.39-1.06,0.52c-0.37,0.13-0.75,0.22-1.13,0.27c-0.38,0.05-0.75,0.08-1.11,0.08
	c-0.71,0-1.37-0.12-1.99-0.35c-0.61-0.24-1.14-0.59-1.6-1.05c-0.45-0.46-0.81-1.03-1.07-1.72c-0.26-0.68-0.39-1.47-0.39-2.37
	c0-0.7,0.11-1.36,0.34-1.97c0.23-0.62,0.55-1.15,0.97-1.61c0.42-0.46,0.94-0.82,1.55-1.08c0.61-0.27,1.3-0.4,2.06-0.4
	c0.65,0,1.24,0.1,1.79,0.31c0.55,0.21,1.01,0.51,1.41,0.9c0.39,0.4,0.7,0.88,0.92,1.46c0.22,0.58,0.33,1.23,0.33,1.97
	c0,0.37-0.04,0.62-0.12,0.75c-0.08,0.13-0.23,0.19-0.46,0.19H44.34z M49.05,49.94c0-0.32-0.04-0.62-0.13-0.9
	c-0.09-0.28-0.22-0.53-0.4-0.74c-0.18-0.21-0.41-0.38-0.68-0.5c-0.28-0.12-0.6-0.18-0.96-0.18c-0.71,0-1.27,0.2-1.68,0.61
	c-0.41,0.41-0.67,0.98-0.78,1.73H49.05z M52.47,47.42c1.18-1.08,2.6-1.62,4.25-1.62c0.6,0,1.13,0.1,1.61,0.29
	c0.47,0.2,0.87,0.47,1.2,0.82c0.33,0.35,0.57,0.77,0.74,1.25c0.17,0.49,0.25,1.02,0.25,1.6v6.47h-1.12c-0.23,0-0.41-0.03-0.54-0.1
	c-0.13-0.07-0.23-0.21-0.3-0.42l-0.22-0.74c-0.26,0.23-0.51,0.44-0.76,0.61c-0.25,0.18-0.5,0.32-0.77,0.44
	c-0.27,0.12-0.55,0.21-0.85,0.27c-0.3,0.06-0.64,0.09-1,0.09c-0.43,0-0.83-0.06-1.2-0.17c-0.37-0.12-0.68-0.29-0.95-0.52
	c-0.27-0.23-0.47-0.52-0.62-0.87c-0.15-0.35-0.22-0.75-0.22-1.21c0-0.26,0.04-0.52,0.13-0.77c0.09-0.26,0.23-0.5,0.42-0.73
	c0.2-0.23,0.45-0.45,0.76-0.66c0.31-0.21,0.7-0.39,1.15-0.54c0.46-0.15,0.99-0.28,1.59-0.37c0.61-0.1,1.3-0.15,2.08-0.17v-0.6
	c0-0.69-0.15-1.19-0.44-1.52c-0.29-0.33-0.72-0.49-1.27-0.49c-0.4,0-0.73,0.05-0.99,0.14c-0.26,0.09-0.49,0.2-0.69,0.31
	c-0.2,0.12-0.38,0.22-0.54,0.31c-0.16,0.09-0.34,0.14-0.54,0.14c-0.17,0-0.32-0.04-0.44-0.13c-0.12-0.09-0.22-0.19-0.29-0.31
	L52.47,47.42z M58.12,51.86c-0.71,0.03-1.31,0.09-1.8,0.18c-0.49,0.09-0.88,0.2-1.17,0.34c-0.29,0.14-0.5,0.3-0.63,0.49
	c-0.13,0.19-0.19,0.39-0.19,0.61c0,0.43,0.13,0.74,0.38,0.93c0.26,0.19,0.59,0.28,1,0.28c0.51,0,0.94-0.09,1.31-0.27
	c0.37-0.18,0.73-0.46,1.08-0.83V51.86z M62.43,56.24V46h1.51c0.32,0,0.53,0.15,0.63,0.45l0.16,0.76c0.18-0.2,0.37-0.38,0.56-0.55
	c0.2-0.17,0.41-0.31,0.63-0.43c0.22-0.12,0.46-0.21,0.72-0.28c0.26-0.07,0.54-0.1,0.84-0.1c0.65,0,1.18,0.17,1.59,0.52
	c0.42,0.35,0.73,0.81,0.93,1.39c0.16-0.34,0.36-0.63,0.6-0.87c0.24-0.24,0.5-0.44,0.79-0.59c0.29-0.15,0.59-0.27,0.91-0.34
	c0.32-0.07,0.65-0.11,0.97-0.11c0.57,0,1.07,0.09,1.51,0.26c0.44,0.17,0.81,0.43,1.11,0.76c0.3,0.33,0.53,0.74,0.68,1.22
	c0.16,0.48,0.23,1.03,0.23,1.65v6.52h-2.47v-6.52c0-0.65-0.14-1.14-0.43-1.47c-0.29-0.33-0.71-0.49-1.26-0.49
	c-0.25,0-0.49,0.04-0.7,0.13c-0.22,0.09-0.41,0.21-0.57,0.37c-0.16,0.16-0.29,0.37-0.38,0.61c-0.09,0.25-0.14,0.53-0.14,0.85v6.52
	h-2.48v-6.52c0-0.69-0.14-1.18-0.41-1.5c-0.28-0.31-0.68-0.47-1.21-0.47c-0.36,0-0.69,0.09-1,0.26c-0.31,0.18-0.6,0.42-0.86,0.72
	v7.5H62.43z M84.99,47.99c-0.07,0.11-0.14,0.18-0.21,0.22c-0.07,0.04-0.17,0.06-0.28,0.06c-0.12,0-0.25-0.03-0.38-0.1
	c-0.14-0.07-0.29-0.14-0.47-0.22c-0.18-0.08-0.38-0.16-0.61-0.22c-0.23-0.07-0.5-0.1-0.81-0.1c-0.49,0-0.87,0.1-1.14,0.31
	c-0.28,0.21-0.41,0.48-0.41,0.81c0,0.22,0.07,0.4,0.21,0.55c0.14,0.15,0.33,0.28,0.57,0.39c0.24,0.11,0.5,0.21,0.8,0.3
	c0.3,0.09,0.6,0.19,0.91,0.29c0.31,0.11,0.61,0.23,0.91,0.36c0.3,0.14,0.57,0.31,0.8,0.52c0.24,0.21,0.43,0.46,0.57,0.75
	c0.14,0.29,0.21,0.65,0.21,1.06c0,0.49-0.09,0.95-0.26,1.36c-0.18,0.42-0.44,0.78-0.78,1.08c-0.35,0.3-0.77,0.54-1.28,0.71
	c-0.51,0.17-1.1,0.25-1.76,0.25c-0.35,0-0.7-0.03-1.03-0.09c-0.34-0.06-0.66-0.15-0.97-0.26c-0.31-0.11-0.6-0.25-0.86-0.4
	c-0.26-0.15-0.49-0.32-0.69-0.5l0.57-0.94c0.07-0.11,0.16-0.2,0.26-0.26c0.1-0.06,0.23-0.09,0.38-0.09c0.15,0,0.3,0.04,0.43,0.13
	c0.14,0.09,0.29,0.18,0.47,0.28c0.18,0.1,0.39,0.19,0.63,0.28c0.24,0.09,0.55,0.13,0.92,0.13c0.29,0,0.54-0.03,0.75-0.1
	c0.21-0.07,0.38-0.16,0.52-0.27c0.14-0.11,0.24-0.24,0.3-0.39c0.06-0.15,0.09-0.3,0.09-0.46c0-0.24-0.07-0.44-0.21-0.59
	c-0.14-0.15-0.33-0.29-0.57-0.4c-0.24-0.11-0.51-0.21-0.81-0.3c-0.3-0.09-0.61-0.19-0.93-0.29c-0.32-0.11-0.63-0.23-0.93-0.37
	c-0.3-0.14-0.57-0.32-0.81-0.54c-0.24-0.22-0.43-0.49-0.57-0.81c-0.14-0.32-0.21-0.71-0.21-1.16c0-0.42,0.08-0.82,0.25-1.2
	c0.17-0.38,0.41-0.71,0.73-0.99c0.32-0.28,0.73-0.51,1.21-0.68c0.48-0.17,1.04-0.25,1.67-0.25c0.71,0,1.35,0.12,1.93,0.35
	c0.58,0.23,1.06,0.54,1.45,0.92L84.99,47.99z M96.09,45.84c0.76,0,1.45,0.12,2.07,0.37c0.62,0.25,1.15,0.6,1.6,1.05
	c0.44,0.45,0.78,1,1.02,1.66c0.24,0.65,0.36,1.38,0.36,2.19c0,0.81-0.12,1.54-0.36,2.2c-0.24,0.65-0.58,1.21-1.02,1.67
	c-0.44,0.46-0.97,0.81-1.6,1.06c-0.62,0.25-1.31,0.37-2.07,0.37c-0.77,0-1.46-0.12-2.09-0.37c-0.63-0.25-1.16-0.6-1.6-1.06
	c-0.44-0.46-0.79-1.01-1.03-1.67C91.13,52.64,91,51.91,91,51.1c0-0.81,0.12-1.53,0.36-2.19c0.24-0.65,0.59-1.2,1.03-1.66
	c0.44-0.45,0.98-0.8,1.6-1.05C94.62,45.96,95.32,45.84,96.09,45.84z M96.09,54.49c0.85,0,1.48-0.29,1.89-0.86
	c0.41-0.57,0.61-1.41,0.61-2.52c0-1.1-0.2-1.95-0.61-2.53s-1.04-0.87-1.89-0.87c-0.87,0-1.51,0.29-1.92,0.87
	c-0.42,0.58-0.62,1.42-0.62,2.52c0,1.1,0.21,1.93,0.62,2.51C94.58,54.2,95.22,54.49,96.09,54.49z M104.94,47.77
	c0.32-0.61,0.7-1.09,1.14-1.44c0.44-0.35,0.96-0.52,1.56-0.52c0.47,0,0.85,0.1,1.14,0.31l-0.16,1.85c-0.03,0.12-0.08,0.2-0.14,0.25
	c-0.06,0.05-0.15,0.07-0.25,0.07c-0.1,0-0.25-0.02-0.44-0.05c-0.2-0.03-0.39-0.05-0.57-0.05c-0.27,0-0.52,0.04-0.73,0.12
	c-0.21,0.08-0.4,0.19-0.57,0.34c-0.17,0.15-0.32,0.33-0.45,0.54c-0.13,0.21-0.25,0.46-0.36,0.73v6.31h-2.47V46h1.45
	c0.25,0,0.43,0.04,0.53,0.13c0.1,0.09,0.17,0.25,0.2,0.48L104.94,47.77z M113.69,56.24V46h1.51c0.32,0,0.53,0.15,0.63,0.45
	l0.16,0.76c0.18-0.2,0.37-0.38,0.56-0.55c0.2-0.17,0.41-0.31,0.63-0.43c0.22-0.12,0.46-0.21,0.72-0.28c0.26-0.07,0.54-0.1,0.84-0.1
	c0.65,0,1.18,0.17,1.59,0.52c0.42,0.35,0.73,0.81,0.93,1.39c0.16-0.34,0.36-0.63,0.6-0.87c0.24-0.24,0.5-0.44,0.79-0.59
	c0.29-0.15,0.59-0.27,0.91-0.34c0.32-0.07,0.65-0.11,0.97-0.11c0.57,0,1.07,0.09,1.51,0.26c0.44,0.17,0.81,0.43,1.11,0.76
	c0.3,0.33,0.53,0.74,0.68,1.22c0.16,0.48,0.23,1.03,0.23,1.65v6.52h-2.47v-6.52c0-0.65-0.14-1.14-0.43-1.47
	c-0.29-0.33-0.71-0.49-1.26-0.49c-0.25,0-0.49,0.04-0.7,0.13c-0.22,0.09-0.41,0.21-0.57,0.37c-0.16,0.16-0.29,0.37-0.38,0.61
	c-0.09,0.25-0.14,0.53-0.14,0.85v6.52h-2.48v-6.52c0-0.69-0.14-1.18-0.41-1.5c-0.28-0.31-0.68-0.47-1.21-0.47
	c-0.36,0-0.69,0.09-1,0.26c-0.31,0.18-0.6,0.42-0.86,0.72v7.5H113.69z M138.82,46v10.24h-1.51c-0.33,0-0.53-0.15-0.62-0.45
	l-0.17-0.82c-0.42,0.43-0.88,0.77-1.39,1.03c-0.51,0.26-1.1,0.39-1.79,0.39c-0.56,0-1.05-0.09-1.48-0.28
	c-0.43-0.19-0.79-0.46-1.08-0.8c-0.29-0.35-0.51-0.76-0.66-1.23c-0.15-0.48-0.22-1-0.22-1.57V46h2.47v6.51
	c0,0.63,0.14,1.11,0.43,1.45c0.29,0.34,0.72,0.51,1.3,0.51c0.43,0,0.82-0.09,1.2-0.28c0.37-0.19,0.73-0.45,1.06-0.78V46H138.82z
	 M143.36,41.4v14.83h-2.47V41.4H143.36z M155.74,56.24h-2.47v-8.39h-4.75v5.55c0,0.32,0.08,0.57,0.23,0.75
	c0.16,0.18,0.37,0.27,0.64,0.27c0.15,0,0.28-0.02,0.38-0.05c0.1-0.04,0.19-0.07,0.27-0.11c0.08-0.04,0.14-0.08,0.2-0.11
	c0.06-0.04,0.12-0.05,0.18-0.05c0.07,0,0.13,0.02,0.18,0.05c0.05,0.04,0.1,0.09,0.15,0.16l0.74,1.2c-0.36,0.3-0.77,0.53-1.24,0.68
	c-0.47,0.15-0.95,0.23-1.45,0.23c-0.89,0-1.58-0.25-2.05-0.75c-0.48-0.5-0.71-1.2-0.71-2.08v-5.72h-1.05
	c-0.13,0-0.25-0.04-0.34-0.13c-0.09-0.09-0.14-0.22-0.14-0.39v-0.98l1.65-0.28l0.52-2.78c0.03-0.13,0.1-0.24,0.19-0.31
	c0.09-0.07,0.21-0.11,0.36-0.11h1.28v3.22h7.22V56.24z M156.17,42.97c0,0.21-0.04,0.41-0.13,0.6c-0.09,0.19-0.2,0.35-0.34,0.49
	c-0.14,0.14-0.31,0.25-0.51,0.33c-0.2,0.08-0.4,0.12-0.62,0.12c-0.21,0-0.41-0.04-0.6-0.12c-0.19-0.08-0.35-0.19-0.49-0.33
	c-0.14-0.14-0.25-0.3-0.33-0.49c-0.08-0.19-0.12-0.39-0.12-0.6c0-0.22,0.04-0.42,0.12-0.61c0.08-0.19,0.19-0.36,0.33-0.5
	c0.14-0.14,0.3-0.26,0.49-0.34c0.19-0.08,0.39-0.12,0.6-0.12c0.22,0,0.43,0.04,0.62,0.12c0.2,0.08,0.37,0.2,0.51,0.34
	c0.14,0.14,0.26,0.31,0.34,0.5C156.13,42.55,156.17,42.75,156.17,42.97z M160.18,47.39c0.42-0.47,0.89-0.85,1.43-1.15
	c0.53-0.29,1.16-0.44,1.88-0.44c0.56,0,1.07,0.12,1.53,0.35c0.46,0.23,0.86,0.57,1.2,1.01c0.34,0.44,0.6,0.99,0.78,1.64
	c0.18,0.65,0.27,1.39,0.27,2.23c0,0.77-0.1,1.47-0.31,2.13c-0.21,0.65-0.5,1.22-0.88,1.7c-0.38,0.48-0.85,0.85-1.39,1.12
	c-0.54,0.27-1.15,0.4-1.82,0.4c-0.57,0-1.06-0.09-1.47-0.26c-0.41-0.18-0.77-0.42-1.09-0.73v4.19h-2.47V46h1.51
	c0.32,0,0.53,0.15,0.63,0.45L160.18,47.39z M160.31,53.58c0.28,0.34,0.58,0.58,0.91,0.72c0.33,0.14,0.69,0.21,1.07,0.21
	c0.37,0,0.71-0.07,1.01-0.21s0.55-0.35,0.76-0.64c0.21-0.29,0.37-0.65,0.48-1.08c0.11-0.44,0.17-0.95,0.17-1.54
	c0-0.6-0.05-1.11-0.14-1.52c-0.1-0.42-0.23-0.75-0.41-1.01c-0.18-0.26-0.4-0.45-0.65-0.57c-0.26-0.12-0.55-0.18-0.87-0.18
	c-0.51,0-0.95,0.11-1.31,0.32c-0.36,0.22-0.7,0.52-1.02,0.91V53.58z M171.28,41.4v14.83h-2.47V41.4H171.28z M175.23,51.43
	c0.04,0.53,0.13,0.98,0.28,1.36c0.15,0.38,0.34,0.7,0.58,0.95c0.24,0.25,0.52,0.44,0.85,0.56c0.33,0.12,0.69,0.18,1.09,0.18
	s0.74-0.05,1.03-0.14c0.29-0.09,0.54-0.2,0.76-0.31c0.22-0.11,0.41-0.22,0.57-0.31c0.16-0.09,0.32-0.14,0.47-0.14
	c0.21,0,0.36,0.08,0.46,0.23l0.71,0.9c-0.27,0.32-0.58,0.59-0.92,0.8c-0.34,0.22-0.69,0.39-1.06,0.52
	c-0.37,0.13-0.75,0.22-1.13,0.27c-0.38,0.05-0.75,0.08-1.11,0.08c-0.71,0-1.37-0.12-1.99-0.35c-0.61-0.24-1.14-0.59-1.6-1.05
	c-0.45-0.46-0.81-1.03-1.07-1.72c-0.26-0.68-0.39-1.47-0.39-2.37c0-0.7,0.11-1.36,0.34-1.97c0.23-0.62,0.55-1.15,0.97-1.61
	c0.42-0.46,0.94-0.82,1.55-1.08c0.61-0.27,1.3-0.4,2.06-0.4c0.65,0,1.24,0.1,1.79,0.31c0.55,0.21,1.01,0.51,1.41,0.9
	c0.39,0.4,0.7,0.88,0.92,1.46c0.22,0.58,0.33,1.23,0.33,1.97c0,0.37-0.04,0.62-0.12,0.75c-0.08,0.13-0.23,0.19-0.46,0.19H175.23z
	 M179.94,49.94c0-0.32-0.04-0.62-0.13-0.9c-0.09-0.28-0.22-0.53-0.4-0.74c-0.18-0.21-0.41-0.38-0.68-0.5
	c-0.28-0.12-0.6-0.18-0.96-0.18c-0.71,0-1.27,0.2-1.68,0.61c-0.41,0.41-0.67,0.98-0.78,1.73H179.94z M196.94,41.4v14.83h-1.51
	c-0.33,0-0.53-0.15-0.62-0.45l-0.21-0.99c-0.41,0.47-0.89,0.86-1.42,1.15c-0.54,0.29-1.16,0.44-1.87,0.44
	c-0.56,0-1.07-0.12-1.54-0.35c-0.47-0.23-0.87-0.57-1.2-1.01c-0.34-0.44-0.6-0.99-0.78-1.64c-0.18-0.65-0.27-1.4-0.27-2.24
	c0-0.76,0.1-1.46,0.31-2.12c0.21-0.65,0.5-1.22,0.89-1.7c0.39-0.48,0.85-0.85,1.39-1.12c0.54-0.27,1.14-0.4,1.82-0.4
	c0.57,0,1.06,0.09,1.47,0.27c0.41,0.18,0.77,0.42,1.09,0.73v-5.4H196.94z M194.48,48.61c-0.28-0.34-0.58-0.58-0.91-0.72
	c-0.33-0.14-0.68-0.21-1.06-0.21c-0.37,0-0.71,0.07-1.01,0.21c-0.3,0.14-0.56,0.35-0.77,0.63c-0.21,0.28-0.38,0.64-0.49,1.08
	c-0.11,0.44-0.17,0.95-0.17,1.54c0,0.6,0.05,1.11,0.14,1.52c0.1,0.42,0.23,0.76,0.41,1.02c0.18,0.26,0.4,0.45,0.66,0.57
	c0.26,0.12,0.55,0.17,0.87,0.17c0.51,0,0.95-0.11,1.31-0.32c0.36-0.21,0.7-0.52,1.02-0.91V48.61z M198.73,47.42
	c1.18-1.08,2.6-1.62,4.25-1.62c0.6,0,1.13,0.1,1.61,0.29c0.47,0.2,0.87,0.47,1.2,0.82c0.33,0.35,0.57,0.77,0.74,1.25
	c0.17,0.49,0.25,1.02,0.25,1.6v6.47h-1.12c-0.23,0-0.41-0.03-0.54-0.1c-0.13-0.07-0.23-0.21-0.3-0.42l-0.22-0.74
	c-0.26,0.23-0.51,0.44-0.76,0.61c-0.25,0.18-0.5,0.32-0.77,0.44c-0.27,0.12-0.55,0.21-0.85,0.27c-0.3,0.06-0.64,0.09-1,0.09
	c-0.43,0-0.83-0.06-1.2-0.17c-0.37-0.12-0.68-0.29-0.95-0.52c-0.27-0.23-0.47-0.52-0.62-0.87c-0.15-0.35-0.22-0.75-0.22-1.21
	c0-0.26,0.04-0.52,0.13-0.77c0.09-0.26,0.23-0.5,0.42-0.73c0.2-0.23,0.45-0.45,0.76-0.66c0.31-0.21,0.7-0.39,1.15-0.54
	c0.46-0.15,0.99-0.28,1.59-0.37c0.61-0.1,1.3-0.15,2.08-0.17v-0.6c0-0.69-0.15-1.19-0.44-1.52c-0.29-0.33-0.72-0.49-1.27-0.49
	c-0.4,0-0.73,0.05-0.99,0.14c-0.26,0.09-0.49,0.2-0.69,0.31c-0.2,0.12-0.38,0.22-0.54,0.31c-0.16,0.09-0.34,0.14-0.54,0.14
	c-0.17,0-0.32-0.04-0.44-0.13c-0.12-0.09-0.22-0.19-0.29-0.31L198.73,47.42z M204.38,51.86c-0.71,0.03-1.31,0.09-1.8,0.18
	c-0.49,0.09-0.88,0.2-1.17,0.34c-0.29,0.14-0.5,0.3-0.63,0.49c-0.13,0.19-0.19,0.39-0.19,0.61c0,0.43,0.13,0.74,0.38,0.93
	c0.26,0.19,0.59,0.28,1,0.28c0.51,0,0.94-0.09,1.31-0.27c0.37-0.18,0.73-0.46,1.08-0.83V51.86z M217.71,46l-5.58,13.06
	c-0.07,0.17-0.17,0.3-0.28,0.39c-0.12,0.09-0.29,0.13-0.53,0.13h-1.84l1.92-4.11L207.25,46h2.17c0.19,0,0.34,0.05,0.45,0.14
	c0.11,0.09,0.19,0.2,0.24,0.32l2.18,5.31c0.07,0.18,0.13,0.36,0.18,0.54c0.05,0.18,0.1,0.36,0.14,0.55
	c0.06-0.19,0.12-0.37,0.18-0.55c0.06-0.18,0.13-0.36,0.2-0.54l2.06-5.3c0.05-0.13,0.14-0.24,0.26-0.33
	c0.12-0.09,0.26-0.13,0.41-0.13H217.71z M224.58,47.99c-0.07,0.11-0.14,0.18-0.21,0.22c-0.07,0.04-0.17,0.06-0.28,0.06
	c-0.12,0-0.25-0.03-0.38-0.1c-0.14-0.07-0.29-0.14-0.47-0.22c-0.18-0.08-0.38-0.16-0.61-0.22c-0.23-0.07-0.5-0.1-0.81-0.1
	c-0.49,0-0.87,0.1-1.14,0.31c-0.28,0.21-0.41,0.48-0.41,0.81c0,0.22,0.07,0.4,0.21,0.55c0.14,0.15,0.33,0.28,0.57,0.39
	c0.24,0.11,0.5,0.21,0.8,0.3c0.3,0.09,0.6,0.19,0.91,0.29c0.31,0.11,0.61,0.23,0.91,0.36c0.3,0.14,0.57,0.31,0.8,0.52
	c0.24,0.21,0.43,0.46,0.57,0.75c0.14,0.29,0.21,0.65,0.21,1.06c0,0.49-0.09,0.95-0.26,1.36c-0.18,0.42-0.44,0.78-0.78,1.08
	c-0.35,0.3-0.77,0.54-1.28,0.71c-0.51,0.17-1.1,0.25-1.76,0.25c-0.35,0-0.7-0.03-1.03-0.09c-0.34-0.06-0.66-0.15-0.97-0.26
	c-0.31-0.11-0.6-0.25-0.86-0.4c-0.26-0.15-0.49-0.32-0.69-0.5l0.57-0.94c0.07-0.11,0.16-0.2,0.26-0.26c0.1-0.06,0.23-0.09,0.38-0.09
	c0.15,0,0.3,0.04,0.43,0.13c0.14,0.09,0.29,0.18,0.47,0.28c0.18,0.1,0.39,0.19,0.63,0.28c0.24,0.09,0.55,0.13,0.92,0.13
	c0.29,0,0.54-0.03,0.75-0.1c0.21-0.07,0.38-0.16,0.52-0.27c0.14-0.11,0.24-0.24,0.3-0.39c0.06-0.15,0.09-0.3,0.09-0.46
	c0-0.24-0.07-0.44-0.21-0.59c-0.14-0.15-0.33-0.29-0.57-0.4c-0.24-0.11-0.51-0.21-0.81-0.3c-0.3-0.09-0.61-0.19-0.93-0.29
	c-0.32-0.11-0.63-0.23-0.93-0.37c-0.3-0.14-0.57-0.32-0.81-0.54c-0.24-0.22-0.43-0.49-0.57-0.81c-0.14-0.32-0.21-0.71-0.21-1.16
	c0-0.42,0.08-0.82,0.25-1.2c0.17-0.38,0.41-0.71,0.73-0.99c0.32-0.28,0.73-0.51,1.21-0.68c0.48-0.17,1.04-0.25,1.67-0.25
	c0.71,0,1.35,0.12,1.93,0.35c0.58,0.23,1.06,0.54,1.45,0.92L224.58,47.99z M235.68,45.84c0.76,0,1.45,0.12,2.07,0.37
	c0.62,0.25,1.15,0.6,1.6,1.05c0.44,0.45,0.78,1,1.02,1.66c0.24,0.65,0.36,1.38,0.36,2.19c0,0.81-0.12,1.54-0.36,2.2
	c-0.24,0.65-0.58,1.21-1.02,1.67c-0.44,0.46-0.97,0.81-1.6,1.06c-0.62,0.25-1.31,0.37-2.07,0.37c-0.77,0-1.46-0.12-2.09-0.37
	c-0.63-0.25-1.16-0.6-1.6-1.06c-0.44-0.46-0.79-1.01-1.03-1.67c-0.24-0.65-0.36-1.38-0.36-2.2c0-0.81,0.12-1.53,0.36-2.19
	c0.24-0.65,0.59-1.2,1.03-1.66c0.44-0.45,0.98-0.8,1.6-1.05C234.22,45.96,234.91,45.84,235.68,45.84z M235.68,54.49
	c0.85,0,1.48-0.29,1.89-0.86c0.41-0.57,0.61-1.41,0.61-2.52c0-1.1-0.2-1.95-0.61-2.53c-0.41-0.58-1.04-0.87-1.89-0.87
	c-0.87,0-1.51,0.29-1.92,0.87c-0.42,0.58-0.62,1.42-0.62,2.52c0,1.1,0.21,1.93,0.62,2.51C234.17,54.2,234.81,54.49,235.68,54.49z
	 M242.69,56.24v-8.38l-0.89-0.14c-0.19-0.04-0.35-0.11-0.46-0.2c-0.12-0.1-0.17-0.23-0.17-0.41v-1.01h1.53v-0.76
	c0-0.59,0.09-1.11,0.26-1.58c0.18-0.47,0.43-0.86,0.76-1.19c0.33-0.33,0.73-0.58,1.2-0.75c0.47-0.17,1-0.26,1.6-0.26
	c0.47,0,0.91,0.06,1.32,0.19l-0.05,1.24c-0.01,0.09-0.03,0.17-0.08,0.22c-0.05,0.06-0.11,0.1-0.18,0.13
	c-0.08,0.03-0.16,0.05-0.26,0.06c-0.1,0.01-0.21,0.01-0.32,0.01c-0.29,0-0.55,0.03-0.78,0.09c-0.23,0.06-0.42,0.17-0.58,0.33
	c-0.16,0.16-0.28,0.36-0.36,0.62c-0.08,0.26-0.12,0.57-0.12,0.95v0.68h2.66v1.76h-2.59v8.39H242.69z M255.13,47.39
	c0.42-0.47,0.89-0.85,1.43-1.15c0.53-0.29,1.16-0.44,1.88-0.44c0.56,0,1.07,0.12,1.53,0.35c0.46,0.23,0.86,0.57,1.2,1.01
	c0.34,0.44,0.6,0.99,0.78,1.64c0.18,0.65,0.27,1.39,0.27,2.23c0,0.77-0.1,1.47-0.31,2.13c-0.21,0.65-0.5,1.22-0.88,1.7
	c-0.38,0.48-0.85,0.85-1.39,1.12c-0.54,0.27-1.15,0.4-1.82,0.4c-0.57,0-1.06-0.09-1.47-0.26c-0.41-0.18-0.77-0.42-1.09-0.73v4.19
	h-2.47V46h1.51c0.32,0,0.53,0.15,0.63,0.45L255.13,47.39z M255.26,53.58c0.28,0.34,0.58,0.58,0.91,0.72
	c0.33,0.14,0.69,0.21,1.07,0.21c0.37,0,0.71-0.07,1.01-0.21s0.55-0.35,0.76-0.64c0.21-0.29,0.37-0.65,0.48-1.08
	c0.11-0.44,0.17-0.95,0.17-1.54c0-0.6-0.05-1.11-0.14-1.52c-0.1-0.42-0.23-0.75-0.41-1.01c-0.18-0.26-0.4-0.45-0.65-0.57
	c-0.26-0.12-0.55-0.18-0.87-0.18c-0.51,0-0.95,0.11-1.31,0.32c-0.36,0.22-0.7,0.52-1.02,0.91V53.58z M266.63,43.01
	c0,0.21-0.04,0.41-0.13,0.6c-0.09,0.19-0.2,0.35-0.34,0.49c-0.14,0.14-0.31,0.25-0.5,0.33c-0.19,0.08-0.4,0.12-0.62,0.12
	c-0.21,0-0.41-0.04-0.6-0.12c-0.19-0.08-0.35-0.19-0.49-0.33c-0.14-0.14-0.25-0.3-0.33-0.49c-0.08-0.19-0.12-0.39-0.12-0.6
	c0-0.22,0.04-0.43,0.12-0.62c0.08-0.19,0.19-0.36,0.33-0.5s0.3-0.25,0.49-0.33c0.19-0.08,0.39-0.12,0.6-0.12
	c0.22,0,0.43,0.04,0.62,0.12c0.19,0.08,0.36,0.19,0.5,0.33c0.14,0.14,0.26,0.31,0.34,0.5C266.59,42.59,266.63,42.79,266.63,43.01z
	 M266.29,46v10.24h-2.48V46H266.29z M270.9,41.4v14.83h-2.47V41.4H270.9z M275.45,41.4v14.83h-2.47V41.4H275.45z M283.77,47.99
	c-0.07,0.11-0.14,0.18-0.21,0.22c-0.07,0.04-0.17,0.06-0.28,0.06c-0.12,0-0.25-0.03-0.38-0.1c-0.14-0.07-0.29-0.14-0.47-0.22
	c-0.18-0.08-0.38-0.16-0.61-0.22c-0.23-0.07-0.5-0.1-0.81-0.1c-0.49,0-0.87,0.1-1.14,0.31c-0.28,0.21-0.41,0.48-0.41,0.81
	c0,0.22,0.07,0.4,0.21,0.55c0.14,0.15,0.33,0.28,0.57,0.39c0.24,0.11,0.5,0.21,0.8,0.3c0.3,0.09,0.6,0.19,0.91,0.29
	c0.31,0.11,0.61,0.23,0.91,0.36c0.3,0.14,0.57,0.31,0.8,0.52c0.24,0.21,0.43,0.46,0.57,0.75c0.14,0.29,0.21,0.65,0.21,1.06
	c0,0.49-0.09,0.95-0.26,1.36c-0.18,0.42-0.44,0.78-0.78,1.08c-0.35,0.3-0.77,0.54-1.28,0.71c-0.51,0.17-1.1,0.25-1.76,0.25
	c-0.35,0-0.7-0.03-1.03-0.09c-0.34-0.06-0.66-0.15-0.97-0.26c-0.31-0.11-0.6-0.25-0.86-0.4c-0.26-0.15-0.49-0.32-0.69-0.5l0.57-0.94
	c0.07-0.11,0.16-0.2,0.26-0.26c0.1-0.06,0.23-0.09,0.38-0.09c0.15,0,0.3,0.04,0.43,0.13c0.14,0.09,0.29,0.18,0.47,0.28
	c0.18,0.1,0.39,0.19,0.63,0.28c0.24,0.09,0.55,0.13,0.92,0.13c0.29,0,0.54-0.03,0.75-0.1c0.21-0.07,0.38-0.16,0.52-0.27
	c0.14-0.11,0.24-0.24,0.3-0.39c0.06-0.15,0.09-0.3,0.09-0.46c0-0.24-0.07-0.44-0.21-0.59c-0.14-0.15-0.33-0.29-0.57-0.4
	c-0.24-0.11-0.51-0.21-0.81-0.3c-0.3-0.09-0.61-0.19-0.93-0.29c-0.32-0.11-0.63-0.23-0.93-0.37c-0.3-0.14-0.57-0.32-0.81-0.54
	c-0.24-0.22-0.43-0.49-0.57-0.81c-0.14-0.32-0.21-0.71-0.21-1.16c0-0.42,0.08-0.82,0.25-1.2c0.17-0.38,0.41-0.71,0.73-0.99
	c0.32-0.28,0.73-0.51,1.21-0.68c0.48-0.17,1.04-0.25,1.67-0.25c0.71,0,1.35,0.12,1.93,0.35c0.58,0.23,1.06,0.54,1.45,0.92
	L283.77,47.99z"/>
<g>
	<path class="st1" d="M290.81,48.52v1.08h-4.66v-1.08h1.71v-4.91c0-0.19,0.01-0.39,0.02-0.6l-1.21,1.01
		c-0.07,0.05-0.14,0.09-0.21,0.1c-0.07,0.01-0.13,0.01-0.19,0c-0.06-0.01-0.11-0.03-0.16-0.06c-0.05-0.03-0.08-0.06-0.11-0.1
		l-0.45-0.62l2.57-2.18h1.18v7.35H290.81z"/>
	<path class="st1" d="M292,51.02c-0.07-0.06-0.1-0.13-0.1-0.22c0-0.03,0.01-0.07,0.03-0.1c0.02-0.04,0.05-0.07,0.08-0.1
		c0.04-0.05,0.09-0.1,0.16-0.17c0.06-0.07,0.12-0.15,0.19-0.23c0.06-0.09,0.12-0.18,0.17-0.29c0.05-0.1,0.09-0.21,0.12-0.33
		c-0.12,0-0.24-0.02-0.34-0.07c-0.1-0.04-0.19-0.11-0.26-0.18c-0.07-0.08-0.13-0.17-0.17-0.27s-0.06-0.22-0.06-0.34
		c0-0.11,0.02-0.21,0.06-0.31c0.04-0.09,0.1-0.18,0.17-0.25c0.07-0.07,0.16-0.13,0.27-0.17c0.1-0.04,0.22-0.06,0.34-0.06
		c0.15,0,0.28,0.03,0.39,0.08c0.11,0.05,0.2,0.12,0.27,0.22c0.07,0.09,0.13,0.2,0.16,0.31c0.04,0.12,0.05,0.24,0.05,0.38
		c0,0.19-0.03,0.38-0.08,0.59c-0.06,0.21-0.14,0.41-0.25,0.62c-0.11,0.21-0.24,0.41-0.41,0.6c-0.16,0.19-0.34,0.37-0.55,0.54
		L292,51.02z"/>
	<path class="st1" d="M294.43,43.53c0.06-0.4,0.17-0.76,0.34-1.06s0.38-0.56,0.63-0.76c0.25-0.2,0.54-0.36,0.86-0.46
		c0.32-0.1,0.67-0.15,1.04-0.15c0.39,0,0.74,0.05,1.05,0.17c0.31,0.11,0.58,0.26,0.8,0.46c0.22,0.2,0.39,0.43,0.51,0.69
		s0.18,0.55,0.18,0.86c0,0.27-0.03,0.5-0.09,0.71c-0.06,0.2-0.15,0.38-0.26,0.53c-0.11,0.15-0.25,0.28-0.42,0.38
		c-0.17,0.1-0.36,0.19-0.56,0.26c0.5,0.16,0.88,0.4,1.13,0.73c0.25,0.33,0.37,0.74,0.37,1.23c0,0.42-0.08,0.79-0.23,1.11
		c-0.16,0.32-0.37,0.59-0.63,0.81c-0.26,0.22-0.57,0.38-0.92,0.5c-0.35,0.11-0.71,0.17-1.1,0.17c-0.42,0-0.79-0.05-1.11-0.15
		c-0.31-0.1-0.59-0.24-0.82-0.43c-0.23-0.19-0.43-0.42-0.59-0.7c-0.16-0.28-0.3-0.59-0.42-0.95l0.63-0.26
		c0.17-0.07,0.32-0.09,0.47-0.06c0.15,0.03,0.25,0.11,0.32,0.24c0.07,0.14,0.15,0.27,0.23,0.4c0.08,0.13,0.18,0.25,0.3,0.35
		c0.12,0.1,0.25,0.19,0.41,0.25c0.16,0.06,0.34,0.1,0.56,0.1c0.25,0,0.46-0.04,0.64-0.12c0.18-0.08,0.33-0.18,0.46-0.31
		s0.21-0.27,0.27-0.43c0.06-0.16,0.09-0.32,0.09-0.47c0-0.2-0.02-0.38-0.06-0.55c-0.04-0.16-0.13-0.3-0.27-0.42
		c-0.14-0.12-0.33-0.21-0.58-0.27c-0.25-0.07-0.59-0.1-1.02-0.1v-1.02c0.35,0,0.65-0.04,0.88-0.1c0.23-0.06,0.42-0.15,0.56-0.26
		s0.23-0.24,0.29-0.4c0.05-0.16,0.08-0.33,0.08-0.51c0-0.4-0.11-0.7-0.33-0.9c-0.22-0.21-0.52-0.31-0.88-0.31
		c-0.17,0-0.33,0.02-0.47,0.07c-0.14,0.05-0.27,0.12-0.39,0.2s-0.21,0.19-0.29,0.31c-0.08,0.12-0.14,0.24-0.17,0.38
		c-0.07,0.18-0.15,0.3-0.26,0.36c-0.11,0.06-0.26,0.07-0.45,0.04L294.43,43.53z"/>
	<path class="st1" d="M301.02,51.02c-0.07-0.06-0.1-0.13-0.1-0.22c0-0.03,0.01-0.07,0.03-0.1c0.02-0.04,0.05-0.07,0.08-0.1
		c0.04-0.05,0.09-0.1,0.16-0.17c0.06-0.07,0.12-0.15,0.19-0.23c0.06-0.09,0.12-0.18,0.17-0.29c0.05-0.1,0.09-0.21,0.12-0.33
		c-0.12,0-0.24-0.02-0.34-0.07c-0.1-0.04-0.19-0.11-0.26-0.18c-0.07-0.08-0.13-0.17-0.17-0.27s-0.06-0.22-0.06-0.34
		c0-0.11,0.02-0.21,0.06-0.31c0.04-0.09,0.1-0.18,0.17-0.25c0.07-0.07,0.16-0.13,0.27-0.17c0.1-0.04,0.22-0.06,0.34-0.06
		c0.15,0,0.28,0.03,0.39,0.08c0.11,0.05,0.2,0.12,0.27,0.22c0.07,0.09,0.13,0.2,0.16,0.31c0.04,0.12,0.05,0.24,0.05,0.38
		c0,0.19-0.03,0.38-0.08,0.59c-0.06,0.21-0.14,0.41-0.25,0.62c-0.11,0.21-0.24,0.41-0.41,0.6c-0.16,0.19-0.34,0.37-0.55,0.54
		L301.02,51.02z"/>
	<path class="st1" d="M309.29,46.42v0.83c0,0.08-0.03,0.14-0.08,0.2c-0.05,0.06-0.12,0.08-0.22,0.08h-0.77v2.05h-1.25v-2.05h-3.55
		c-0.1,0-0.18-0.03-0.26-0.09c-0.07-0.06-0.12-0.13-0.14-0.22l-0.15-0.73l3.99-5.32h1.36v5.25H309.29z M306.98,46.42v-2.75
		c0-0.26,0.02-0.55,0.05-0.86l-2.61,3.61H306.98z"/>
</g>
<polygon class="st1" points="794.74,53.08 792.07,50.41 801.6,40.87 792.07,31.34 794.74,28.67 806.94,40.87 "/>
</svg>
