<?xml version="1.0" encoding="utf-8"?>
<!-- Generator: Adobe Illustrator 24.1.0, SVG Export Plug-In . SVG Version: 6.00 Build 0)  -->
<svg version="1.1" id="Layer_1" xmlns="http://www.w3.org/2000/svg" xmlns:xlink="http://www.w3.org/1999/xlink" x="0px" y="0px"
	 viewBox="0 0 823.7 78" style="enable-background:new 0 0 823.7 78;" xml:space="preserve">
<style type="text/css">
	.st0{fill:#EFBB50;}
	.st1{fill:#003E6A;}
</style>
<rect class="st0" width="823.7" height="78"/>
<path class="st1" d="M38.4,30.6c-0.1,0.1-0.1,0.2-0.2,0.2S38,31,37.9,31c-0.1,0-0.3,0-0.4-0.2c-0.2-0.1-0.3-0.2-0.6-0.4
	s-0.5-0.3-0.8-0.4s-0.7-0.2-1.2-0.2c-0.4,0-0.8,0-1.1,0.2c-0.3,0.1-0.6,0.3-0.8,0.5c-0.2,0.2-0.4,0.4-0.5,0.7s-0.2,0.5-0.2,0.8
	c0,0.4,0.1,0.7,0.3,1c0.2,0.2,0.5,0.5,0.8,0.7c0.3,0.2,0.7,0.3,1.1,0.5c0.4,0.1,0.8,0.3,1.2,0.4c0.4,0.1,0.8,0.3,1.2,0.5
	c0.4,0.2,0.8,0.4,1.1,0.7s0.6,0.6,0.8,1c0.2,0.4,0.3,0.9,0.3,1.5c0,0.6-0.1,1.2-0.3,1.8c-0.2,0.5-0.5,1-0.9,1.5
	c-0.4,0.4-0.9,0.7-1.5,1c-0.6,0.2-1.3,0.3-2,0.3c-0.5,0-0.9,0-1.3-0.1c-0.4-0.1-0.8-0.2-1.2-0.4c-0.4-0.2-0.8-0.4-1.1-0.6
	c-0.3-0.2-0.6-0.5-0.9-0.8l0.6-1c0.1-0.1,0.1-0.2,0.2-0.2s0.2-0.1,0.3-0.1c0.1,0,0.3,0.1,0.5,0.2c0.2,0.2,0.4,0.3,0.7,0.5
	c0.3,0.2,0.6,0.3,1,0.5c0.4,0.2,0.8,0.2,1.4,0.2c0.4,0,0.8-0.1,1.2-0.2c0.3-0.1,0.6-0.3,0.9-0.5c0.2-0.2,0.4-0.5,0.5-0.8
	c0.1-0.3,0.2-0.7,0.2-1c0-0.4-0.1-0.8-0.3-1s-0.5-0.5-0.8-0.7s-0.7-0.3-1.1-0.5c-0.4-0.1-0.8-0.3-1.2-0.4c-0.4-0.1-0.8-0.3-1.2-0.5
	s-0.8-0.4-1.1-0.7c-0.3-0.3-0.6-0.7-0.8-1.1s-0.3-1-0.3-1.6c0-0.5,0.1-1,0.3-1.5s0.5-0.9,0.9-1.3s0.8-0.7,1.4-0.9
	c0.6-0.2,1.2-0.3,1.9-0.3c0.8,0,1.5,0.1,2.2,0.4c0.7,0.3,1.3,0.6,1.8,1.1L38.4,30.6z M45.5,32.3c0.8,0,1.4,0.1,2,0.4
	c0.6,0.2,1.1,0.6,1.5,1c0.4,0.5,0.8,1,1,1.7c0.2,0.6,0.3,1.4,0.3,2.2s-0.1,1.5-0.3,2.2c-0.2,0.7-0.5,1.2-1,1.7
	c-0.4,0.5-0.9,0.8-1.5,1c-0.6,0.2-1.3,0.4-2,0.4c-0.8,0-1.4-0.1-2-0.4c-0.6-0.2-1.1-0.6-1.5-1c-0.4-0.5-0.8-1-1-1.7
	s-0.3-1.4-0.3-2.2s0.1-1.5,0.3-2.2c0.2-0.6,0.6-1.2,1-1.7c0.4-0.5,0.9-0.8,1.5-1C44,32.4,44.7,32.3,45.5,32.3z M45.5,41.3
	c1,0,1.7-0.3,2.2-1c0.5-0.7,0.7-1.5,0.7-2.7s-0.2-2.1-0.7-2.7c-0.5-0.7-1.2-1-2.2-1c-1,0-1.7,0.3-2.2,1c-0.5,0.7-0.7,1.6-0.7,2.7
	s0.2,2.1,0.7,2.7C43.8,40.9,44.5,41.3,45.5,41.3z M54.3,27.9v14.7h-2V27.9H54.3z M61.2,32.3c0.8,0,1.4,0.1,2,0.4
	c0.6,0.2,1.1,0.6,1.5,1c0.4,0.5,0.8,1,1,1.7c0.2,0.6,0.3,1.4,0.3,2.2s-0.1,1.5-0.3,2.2c-0.2,0.7-0.5,1.2-1,1.7
	c-0.4,0.5-0.9,0.8-1.5,1c-0.6,0.2-1.3,0.4-2,0.4c-0.8,0-1.4-0.1-2-0.4c-0.6-0.2-1.1-0.6-1.5-1c-0.4-0.5-0.8-1-1-1.7
	s-0.3-1.4-0.3-2.2s0.1-1.5,0.3-2.2c0.2-0.6,0.6-1.2,1-1.7c0.4-0.5,0.9-0.8,1.5-1C59.8,32.4,60.5,32.3,61.2,32.3z M61.2,41.3
	c1,0,1.7-0.3,2.2-1c0.5-0.7,0.7-1.5,0.7-2.7s-0.2-2.1-0.7-2.7c-0.5-0.7-1.2-1-2.2-1c-1,0-1.7,0.3-2.2,1c-0.5,0.7-0.7,1.6-0.7,2.7
	s0.2,2.1,0.7,2.7C59.5,40.9,60.2,41.3,61.2,41.3z M74,34.2c0,0.1-0.1,0.2-0.2,0.2c-0.1,0-0.1,0-0.2,0c-0.1,0-0.2,0-0.3-0.1
	s-0.3-0.2-0.5-0.2c-0.2-0.1-0.4-0.2-0.6-0.2c-0.2-0.1-0.5-0.1-0.9-0.1c-0.3,0-0.5,0-0.8,0.1c-0.2,0.1-0.4,0.2-0.6,0.3
	c-0.2,0.1-0.3,0.3-0.4,0.4c-0.1,0.2-0.1,0.3-0.1,0.5c0,0.2,0.1,0.5,0.2,0.6c0.2,0.2,0.3,0.3,0.6,0.4c0.2,0.1,0.5,0.2,0.8,0.3
	c0.3,0.1,0.6,0.2,1,0.3c0.3,0.1,0.6,0.2,1,0.4c0.3,0.1,0.6,0.3,0.8,0.5s0.4,0.5,0.6,0.7c0.2,0.3,0.2,0.6,0.2,1
	c0,0.5-0.1,0.9-0.2,1.3s-0.4,0.8-0.8,1s-0.7,0.5-1.2,0.7c-0.5,0.2-1,0.2-1.7,0.2c-0.7,0-1.3-0.1-1.9-0.3c-0.6-0.2-1.1-0.5-1.5-0.9
	l0.5-0.8c0-0.1,0.1-0.2,0.2-0.2c0.1,0,0.2-0.1,0.3-0.1s0.3,0,0.4,0.1s0.3,0.2,0.5,0.3s0.4,0.2,0.7,0.3c0.3,0.1,0.6,0.1,1,0.1
	c0.3,0,0.6,0,0.9-0.1s0.5-0.2,0.6-0.3s0.3-0.3,0.4-0.5c0.1-0.2,0.1-0.4,0.1-0.6c0-0.3-0.1-0.5-0.2-0.7c-0.2-0.2-0.3-0.3-0.6-0.5
	c-0.2-0.1-0.5-0.2-0.8-0.3s-0.6-0.2-1-0.3s-0.7-0.2-1-0.4s-0.6-0.3-0.8-0.5s-0.4-0.5-0.6-0.8c-0.2-0.3-0.2-0.7-0.2-1.1
	c0-0.4,0.1-0.8,0.2-1.1s0.4-0.7,0.7-1s0.7-0.5,1.2-0.7c0.5-0.2,1-0.2,1.6-0.2c0.7,0,1.3,0.1,1.8,0.3s1,0.5,1.4,0.9L74,34.2z
	 M84.8,41.2c-0.2,0.3-0.5,0.5-0.8,0.7c-0.3,0.2-0.7,0.4-1,0.5c-0.3,0.1-0.7,0.2-1.1,0.3c-0.4,0.1-0.8,0.1-1.1,0.1
	c-0.7,0-1.3-0.1-1.9-0.3c-0.6-0.2-1.1-0.6-1.5-1c-0.4-0.5-0.8-1-1-1.7s-0.4-1.5-0.4-2.3c0-0.7,0.1-1.4,0.3-2
	c0.2-0.6,0.5-1.1,0.9-1.6s0.9-0.8,1.5-1.1s1.3-0.4,2-0.4c0.6,0,1.2,0.1,1.7,0.3s1,0.5,1.3,0.9c0.4,0.4,0.7,0.9,0.9,1.4
	c0.2,0.6,0.3,1.2,0.3,1.9c0,0.3,0,0.5-0.1,0.6c-0.1,0.1-0.2,0.2-0.4,0.2h-6.7c0,0.6,0.1,1.1,0.3,1.6s0.4,0.8,0.6,1.1s0.6,0.5,1,0.7
	c0.4,0.2,0.8,0.2,1.2,0.2c0.4,0,0.8,0,1.1-0.2c0.3-0.1,0.6-0.2,0.8-0.3c0.2-0.1,0.4-0.2,0.6-0.3c0.2-0.1,0.3-0.2,0.4-0.2
	c0.2,0,0.3,0.1,0.4,0.2L84.8,41.2z M83.2,36.4c0-0.4,0-0.7-0.2-1.1s-0.3-0.6-0.5-0.8c-0.2-0.2-0.5-0.4-0.8-0.6
	c-0.3-0.1-0.7-0.2-1.1-0.2c-0.8,0-1.5,0.2-1.9,0.7c-0.5,0.5-0.8,1.1-0.9,2H83.2z M94,34.4c-0.1,0.1-0.1,0.1-0.2,0.2
	c-0.1,0-0.1,0.1-0.2,0.1c-0.1,0-0.2,0-0.3-0.1c-0.1-0.1-0.3-0.2-0.4-0.3c-0.2-0.1-0.4-0.2-0.6-0.3s-0.6-0.1-0.9-0.1
	c-0.5,0-0.9,0.1-1.3,0.3s-0.7,0.4-0.9,0.7s-0.4,0.7-0.5,1.2c-0.1,0.5-0.2,1-0.2,1.5c0,0.6,0.1,1.1,0.2,1.6s0.3,0.8,0.6,1.2
	s0.5,0.6,0.9,0.7c0.3,0.2,0.8,0.2,1.2,0.2c0.4,0,0.8,0,1-0.2c0.3-0.1,0.5-0.2,0.7-0.3s0.3-0.2,0.5-0.3c0.1-0.1,0.2-0.2,0.4-0.2
	c0.2,0,0.3,0.1,0.4,0.2l0.6,0.7c-0.2,0.3-0.5,0.5-0.8,0.7c-0.3,0.2-0.6,0.4-0.9,0.5c-0.3,0.1-0.7,0.2-1,0.3
	c-0.4,0.1-0.7,0.1-1.1,0.1c-0.6,0-1.2-0.1-1.8-0.3c-0.5-0.2-1-0.6-1.4-1c-0.4-0.5-0.7-1-1-1.6c-0.2-0.7-0.3-1.4-0.3-2.2
	c0-0.8,0.1-1.5,0.3-2.1s0.5-1.2,0.9-1.7s0.9-0.8,1.5-1.1c0.6-0.3,1.3-0.4,2.1-0.4c0.7,0,1.4,0.1,1.9,0.3c0.5,0.2,1,0.6,1.5,1
	L94,34.4z M109.5,27.9v14.7h-1.2c-0.3,0-0.4-0.1-0.5-0.4l-0.2-1.2c-0.4,0.5-0.9,0.9-1.5,1.2s-1.2,0.5-1.9,0.5
	c-0.6,0-1.1-0.1-1.6-0.3c-0.5-0.2-0.9-0.6-1.2-1c-0.3-0.4-0.6-1-0.8-1.6c-0.2-0.7-0.3-1.4-0.3-2.2c0-0.8,0.1-1.5,0.3-2.1
	c0.2-0.7,0.5-1.2,0.9-1.7c0.4-0.5,0.8-0.8,1.4-1.1c0.5-0.3,1.2-0.4,1.8-0.4c0.6,0,1.1,0.1,1.6,0.3s0.8,0.5,1.2,0.8v-5.5L109.5,27.9
	L109.5,27.9z M107.6,34.9c-0.3-0.4-0.7-0.7-1-0.9c-0.4-0.2-0.8-0.2-1.2-0.2c-0.9,0-1.6,0.3-2.1,1s-0.7,1.6-0.7,2.8
	c0,0.7,0,1.2,0.2,1.7c0.1,0.5,0.3,0.8,0.5,1.1c0.2,0.3,0.5,0.5,0.8,0.6c0.3,0.1,0.7,0.2,1,0.2c0.6,0,1-0.1,1.5-0.4
	c0.4-0.2,0.8-0.6,1.2-1.1L107.6,34.9L107.6,34.9z M120.4,41.2c-0.2,0.3-0.5,0.5-0.8,0.7c-0.3,0.2-0.7,0.4-1,0.5
	c-0.3,0.1-0.7,0.2-1.1,0.3c-0.4,0.1-0.8,0.1-1.1,0.1c-0.7,0-1.3-0.1-1.9-0.3c-0.6-0.2-1.1-0.6-1.5-1c-0.4-0.5-0.8-1-1-1.7
	s-0.4-1.5-0.4-2.3c0-0.7,0.1-1.4,0.3-2c0.2-0.6,0.5-1.1,0.9-1.6s0.9-0.8,1.5-1.1s1.3-0.4,2-0.4c0.6,0,1.2,0.1,1.7,0.3s1,0.5,1.3,0.9
	c0.4,0.4,0.7,0.9,0.9,1.4c0.2,0.6,0.3,1.2,0.3,1.9c0,0.3,0,0.5-0.1,0.6c-0.1,0.1-0.2,0.2-0.4,0.2h-6.7c0,0.6,0.1,1.1,0.3,1.6
	s0.4,0.8,0.6,1.1s0.6,0.5,1,0.7c0.4,0.2,0.8,0.2,1.2,0.2c0.4,0,0.8,0,1.1-0.2c0.3-0.1,0.6-0.2,0.8-0.3c0.2-0.1,0.4-0.2,0.6-0.3
	c0.2-0.1,0.3-0.2,0.4-0.2c0.2,0,0.3,0.1,0.4,0.2L120.4,41.2z M118.8,36.4c0-0.4,0-0.7-0.2-1.1s-0.3-0.6-0.5-0.8
	c-0.2-0.2-0.5-0.4-0.8-0.6c-0.3-0.1-0.7-0.2-1.1-0.2c-0.8,0-1.5,0.2-1.9,0.7c-0.5,0.5-0.8,1.1-0.9,2H118.8z M124.4,27.9v14.7h-2
	V27.9H124.4z M129.4,29.4c0,0.2,0,0.3-0.1,0.5c-0.1,0.2-0.2,0.3-0.3,0.4s-0.3,0.2-0.4,0.3c-0.2,0.1-0.3,0.1-0.5,0.1s-0.3,0-0.5-0.1
	c-0.2-0.1-0.3-0.2-0.4-0.3s-0.2-0.3-0.3-0.4s-0.1-0.3-0.1-0.5c0-0.2,0-0.4,0.1-0.5c0.1-0.2,0.2-0.3,0.3-0.4s0.3-0.2,0.4-0.3
	s0.3-0.1,0.5-0.1s0.3,0,0.5,0.1c0.2,0.1,0.3,0.2,0.4,0.3s0.2,0.3,0.3,0.4C129.4,29,129.4,29.2,129.4,29.4z M129,32.5v10.1h-2V32.5
	H129z M140.4,32.5l-4.1,10.1h-1.8l-4.1-10.1h1.6c0.2,0,0.3,0,0.4,0.1s0.2,0.2,0.2,0.3l2.4,6.2c0.1,0.3,0.2,0.5,0.2,0.8
	c0.1,0.3,0.1,0.5,0.2,0.8c0-0.2,0.1-0.5,0.2-0.8s0.2-0.5,0.2-0.8l2.5-6.2c0-0.1,0.1-0.2,0.2-0.3c0.1-0.1,0.2-0.1,0.4-0.1L140.4,32.5
	L140.4,32.5z M149.8,41.2c-0.2,0.3-0.5,0.5-0.8,0.7c-0.3,0.2-0.7,0.4-1,0.5c-0.3,0.1-0.7,0.2-1.1,0.3c-0.4,0.1-0.8,0.1-1.1,0.1
	c-0.7,0-1.3-0.1-1.9-0.3c-0.6-0.2-1.1-0.6-1.5-1c-0.4-0.5-0.8-1-1-1.7s-0.4-1.5-0.4-2.3c0-0.7,0.1-1.4,0.3-2
	c0.2-0.6,0.5-1.1,0.9-1.6s0.9-0.8,1.5-1.1s1.3-0.4,2-0.4c0.6,0,1.2,0.1,1.7,0.3s1,0.5,1.3,0.9c0.4,0.4,0.7,0.9,0.9,1.4
	c0.2,0.6,0.3,1.2,0.3,1.9c0,0.3,0,0.5-0.1,0.6c-0.1,0.1-0.2,0.2-0.4,0.2h-6.7c0,0.6,0.1,1.1,0.3,1.6s0.4,0.8,0.6,1.1s0.6,0.5,1,0.7
	c0.4,0.2,0.8,0.2,1.2,0.2c0.4,0,0.8,0,1.1-0.2c0.3-0.1,0.6-0.2,0.8-0.3c0.2-0.1,0.4-0.2,0.6-0.3c0.2-0.1,0.3-0.2,0.4-0.2
	c0.2,0,0.3,0.1,0.4,0.2L149.8,41.2z M148.2,36.4c0-0.4,0-0.7-0.2-1.1s-0.3-0.6-0.5-0.8c-0.2-0.2-0.5-0.4-0.8-0.6
	c-0.3-0.1-0.7-0.2-1.1-0.2c-0.8,0-1.5,0.2-1.9,0.7c-0.5,0.5-0.8,1.1-0.9,2H148.2z M153.7,34.4c0.3-0.7,0.7-1.2,1.2-1.6
	s1-0.6,1.7-0.6c0.2,0,0.4,0,0.6,0.1c0.2,0,0.4,0.1,0.5,0.2l-0.1,1.5c0,0.2-0.2,0.3-0.3,0.3c-0.1,0-0.2,0-0.4,0c-0.2,0-0.4,0-0.6,0
	c-0.3,0-0.6,0-0.8,0.1s-0.5,0.2-0.6,0.4c-0.2,0.2-0.4,0.4-0.5,0.7c-0.2,0.3-0.3,0.5-0.4,0.9v6.3h-2V32.5h1.1c0.2,0,0.4,0,0.4,0.1
	c0.1,0.1,0.1,0.2,0.2,0.4L153.7,34.4z M164.9,34.2c0,0.1-0.1,0.2-0.2,0.2c-0.1,0-0.1,0-0.2,0c-0.1,0-0.2,0-0.3-0.1s-0.3-0.2-0.5-0.2
	c-0.2-0.1-0.4-0.2-0.6-0.2c-0.2-0.1-0.5-0.1-0.9-0.1c-0.3,0-0.5,0-0.8,0.1c-0.2,0.1-0.4,0.2-0.6,0.3c-0.2,0.1-0.3,0.3-0.4,0.4
	c-0.1,0.2-0.1,0.3-0.1,0.5c0,0.2,0.1,0.5,0.2,0.6c0.2,0.2,0.3,0.3,0.6,0.4c0.2,0.1,0.5,0.2,0.8,0.3c0.3,0.1,0.6,0.2,1,0.3
	c0.3,0.1,0.6,0.2,1,0.4c0.3,0.1,0.6,0.3,0.8,0.5s0.4,0.5,0.6,0.7c0.2,0.3,0.2,0.6,0.2,1c0,0.5-0.1,0.9-0.2,1.3s-0.4,0.8-0.8,1
	s-0.7,0.5-1.2,0.7c-0.5,0.2-1,0.2-1.7,0.2c-0.7,0-1.3-0.1-1.9-0.3c-0.6-0.2-1.1-0.5-1.5-0.9l0.5-0.8c0-0.1,0.1-0.2,0.2-0.2
	c0.1,0,0.2-0.1,0.3-0.1s0.3,0,0.4,0.1s0.3,0.2,0.5,0.3s0.4,0.2,0.7,0.3c0.3,0.1,0.6,0.1,1,0.1c0.3,0,0.6,0,0.9-0.1s0.5-0.2,0.6-0.3
	s0.3-0.3,0.4-0.5c0.1-0.2,0.1-0.4,0.1-0.6c0-0.3-0.1-0.5-0.2-0.7c-0.2-0.2-0.3-0.3-0.6-0.5c-0.2-0.1-0.5-0.2-0.8-0.3s-0.6-0.2-1-0.3
	s-0.7-0.2-1-0.4s-0.6-0.3-0.8-0.5s-0.4-0.5-0.6-0.8c-0.2-0.3-0.2-0.7-0.2-1.1c0-0.4,0.1-0.8,0.2-1.1s0.4-0.7,0.7-1s0.7-0.5,1.2-0.7
	c0.5-0.2,1-0.2,1.6-0.2c0.7,0,1.3,0.1,1.8,0.3s1,0.5,1.4,0.9L164.9,34.2z M172,33.9c0.6-0.5,1.2-0.9,1.8-1.2
	c0.7-0.3,1.4-0.4,2.2-0.4c0.6,0,1.1,0.1,1.5,0.3c0.5,0.2,0.8,0.5,1.1,0.8c0.3,0.3,0.5,0.8,0.7,1.2c0.2,0.5,0.2,1,0.2,1.6v6.5h-0.9
	c-0.2,0-0.3,0-0.4-0.1s-0.2-0.2-0.2-0.3l-0.2-0.9c-0.3,0.2-0.5,0.5-0.8,0.6s-0.5,0.3-0.8,0.5c-0.3,0.1-0.6,0.2-0.9,0.3
	c-0.3,0.1-0.7,0.1-1,0.1c-0.4,0-0.8,0-1.1-0.2s-0.7-0.3-0.9-0.5c-0.3-0.2-0.5-0.5-0.6-0.8c-0.2-0.3-0.2-0.7-0.2-1.2
	c0-0.4,0.1-0.8,0.3-1.2c0.2-0.4,0.6-0.7,1.1-1s1.1-0.5,1.9-0.7c0.8-0.2,1.8-0.3,2.9-0.3v-0.7c0-0.8-0.2-1.3-0.5-1.7
	c-0.3-0.4-0.8-0.6-1.4-0.6c-0.4,0-0.8,0-1.1,0.2s-0.5,0.2-0.8,0.3s-0.4,0.2-0.5,0.3c-0.2,0.1-0.3,0.2-0.5,0.2c-0.1,0-0.2,0-0.3-0.1
	c-0.1-0.1-0.2-0.2-0.2-0.3L172,33.9z M177.7,38.1c-0.8,0-1.5,0.1-2,0.2c-0.5,0.1-1,0.2-1.3,0.4c-0.3,0.2-0.6,0.3-0.8,0.6
	c-0.2,0.2-0.2,0.5-0.2,0.7c0,0.2,0,0.5,0.1,0.7c0.1,0.2,0.2,0.3,0.3,0.5s0.3,0.2,0.5,0.2s0.4,0.1,0.6,0.1c0.3,0,0.6,0,0.8-0.1
	s0.5-0.1,0.7-0.2c0.2-0.1,0.4-0.2,0.6-0.4c0.2-0.2,0.4-0.3,0.6-0.5L177.7,38.1L177.7,38.1z M187.5,42.6v-8.5l-1.1-0.1
	c-0.2,0-0.3-0.1-0.4-0.2c-0.1-0.1-0.1-0.2-0.1-0.3v-0.8h1.6v-0.9c0-0.6,0.1-1.1,0.2-1.5c0.2-0.5,0.4-0.8,0.7-1.2
	c0.3-0.3,0.7-0.6,1.1-0.7s0.9-0.2,1.5-0.2c0.5,0,0.9,0.1,1.3,0.2l0,1c0,0.1,0,0.2-0.1,0.2s-0.1,0.1-0.2,0.1c-0.1,0-0.2,0-0.3,0
	c-0.1,0-0.2,0-0.3,0c-0.3,0-0.6,0-0.8,0.1s-0.5,0.2-0.6,0.4s-0.3,0.4-0.4,0.7c-0.1,0.3-0.1,0.6-0.1,1v0.9h2.8v1.4h-2.8v8.6
	L187.5,42.6L187.5,42.6z M202.1,32.5v10.1h-1.2c-0.3,0-0.4-0.1-0.5-0.4l-0.1-1c-0.2,0.2-0.5,0.5-0.7,0.6s-0.5,0.4-0.8,0.5
	c-0.3,0.1-0.6,0.2-0.9,0.3s-0.6,0.1-1,0.1c-0.6,0-1-0.1-1.5-0.3s-0.8-0.5-1.1-0.8c-0.3-0.3-0.5-0.7-0.7-1.2c-0.2-0.5-0.2-1-0.2-1.6
	v-6.5h2v6.5c0,0.7,0.2,1.3,0.5,1.7s0.8,0.6,1.5,0.6c0.5,0,1-0.1,1.4-0.3c0.4-0.2,0.8-0.6,1.2-1v-7.4L202.1,32.5L202.1,32.5z
	 M206.6,27.9v14.7h-2V27.9H206.6z M211.2,27.9v14.7h-2V27.9H211.2z M225.7,34.4c-0.1,0.1-0.1,0.1-0.2,0.2c-0.1,0-0.1,0.1-0.2,0.1
	c-0.1,0-0.2,0-0.3-0.1c-0.1-0.1-0.3-0.2-0.4-0.3c-0.2-0.1-0.4-0.2-0.6-0.3s-0.6-0.1-0.9-0.1c-0.5,0-0.9,0.1-1.3,0.3
	s-0.7,0.4-0.9,0.7s-0.4,0.7-0.5,1.2c-0.1,0.5-0.2,1-0.2,1.5c0,0.6,0.1,1.1,0.2,1.6s0.3,0.8,0.6,1.2s0.5,0.6,0.9,0.7
	c0.3,0.2,0.8,0.2,1.2,0.2c0.4,0,0.8,0,1-0.2c0.3-0.1,0.5-0.2,0.7-0.3s0.3-0.2,0.5-0.3c0.1-0.1,0.2-0.2,0.4-0.2
	c0.2,0,0.3,0.1,0.4,0.2l0.6,0.7c-0.2,0.3-0.5,0.5-0.8,0.7c-0.3,0.2-0.6,0.4-0.9,0.5c-0.3,0.1-0.7,0.2-1,0.3
	c-0.4,0.1-0.7,0.1-1.1,0.1c-0.6,0-1.2-0.1-1.8-0.3c-0.5-0.2-1-0.6-1.4-1c-0.4-0.5-0.7-1-1-1.6c-0.2-0.7-0.3-1.4-0.3-2.2
	c0-0.8,0.1-1.5,0.3-2.1s0.5-1.2,0.9-1.7s0.9-0.8,1.5-1.1c0.6-0.3,1.3-0.4,2.1-0.4c0.7,0,1.4,0.1,1.9,0.3c0.5,0.2,1,0.6,1.5,1
	L225.7,34.4z M232.1,32.3c0.8,0,1.4,0.1,2,0.4c0.6,0.2,1.1,0.6,1.5,1c0.4,0.5,0.8,1,1,1.7c0.2,0.6,0.3,1.4,0.3,2.2s-0.1,1.5-0.3,2.2
	c-0.2,0.7-0.5,1.2-1,1.7c-0.4,0.5-0.9,0.8-1.5,1c-0.6,0.2-1.3,0.4-2,0.4c-0.8,0-1.4-0.1-2-0.4c-0.6-0.2-1.1-0.6-1.5-1
	c-0.4-0.5-0.8-1-1-1.7s-0.3-1.4-0.3-2.2s0.1-1.5,0.3-2.2c0.2-0.6,0.6-1.2,1-1.7c0.4-0.5,0.9-0.8,1.5-1
	C230.6,32.4,231.3,32.3,232.1,32.3z M232.1,41.3c1,0,1.7-0.3,2.2-1c0.5-0.7,0.7-1.5,0.7-2.7s-0.2-2.1-0.7-2.7c-0.5-0.7-1.2-1-2.2-1
	c-1,0-1.7,0.3-2.2,1c-0.5,0.7-0.7,1.6-0.7,2.7s0.2,2.1,0.7,2.7C230.4,40.9,231.1,41.3,232.1,41.3z M247.3,32.5v10.1h-1.2
	c-0.3,0-0.4-0.1-0.5-0.4l-0.1-1c-0.2,0.2-0.5,0.5-0.7,0.6s-0.5,0.4-0.8,0.5c-0.3,0.1-0.6,0.2-0.9,0.3s-0.6,0.1-1,0.1
	c-0.6,0-1-0.1-1.5-0.3s-0.8-0.5-1.1-0.8c-0.3-0.3-0.5-0.7-0.7-1.2c-0.2-0.5-0.2-1-0.2-1.6v-6.5h2v6.5c0,0.7,0.2,1.3,0.5,1.7
	s0.8,0.6,1.5,0.6c0.5,0,1-0.1,1.4-0.3c0.4-0.2,0.8-0.6,1.2-1v-7.4L247.3,32.5L247.3,32.5z M251.7,34.4c0.3-0.7,0.7-1.2,1.2-1.6
	s1-0.6,1.7-0.6c0.2,0,0.4,0,0.6,0.1c0.2,0,0.4,0.1,0.5,0.2l-0.1,1.5c0,0.2-0.2,0.3-0.3,0.3c-0.1,0-0.2,0-0.4,0c-0.2,0-0.4,0-0.6,0
	c-0.3,0-0.6,0-0.8,0.1s-0.5,0.2-0.6,0.4c-0.2,0.2-0.4,0.4-0.5,0.7c-0.2,0.3-0.3,0.5-0.4,0.9v6.3h-2V32.5h1.1c0.2,0,0.4,0,0.4,0.1
	c0.1,0.1,0.1,0.2,0.2,0.4L251.7,34.4z M262.9,34.2c0,0.1-0.1,0.2-0.2,0.2c-0.1,0-0.1,0-0.2,0c-0.1,0-0.2,0-0.3-0.1s-0.3-0.2-0.5-0.2
	c-0.2-0.1-0.4-0.2-0.6-0.2c-0.2-0.1-0.5-0.1-0.9-0.1c-0.3,0-0.5,0-0.8,0.1c-0.2,0.1-0.4,0.2-0.6,0.3c-0.2,0.1-0.3,0.3-0.4,0.4
	c-0.1,0.2-0.1,0.3-0.1,0.5c0,0.2,0.1,0.5,0.2,0.6c0.2,0.2,0.3,0.3,0.6,0.4c0.2,0.1,0.5,0.2,0.8,0.3c0.3,0.1,0.6,0.2,1,0.3
	c0.3,0.1,0.6,0.2,1,0.4c0.3,0.1,0.6,0.3,0.8,0.5s0.4,0.5,0.6,0.7c0.2,0.3,0.2,0.6,0.2,1c0,0.5-0.1,0.9-0.2,1.3s-0.4,0.8-0.8,1
	s-0.7,0.5-1.2,0.7c-0.5,0.2-1,0.2-1.7,0.2c-0.7,0-1.3-0.1-1.9-0.3c-0.6-0.2-1.1-0.5-1.5-0.9l0.5-0.8c0-0.1,0.1-0.2,0.2-0.2
	c0.1,0,0.2-0.1,0.3-0.1s0.3,0,0.4,0.1s0.3,0.2,0.5,0.3s0.4,0.2,0.7,0.3c0.3,0.1,0.6,0.1,1,0.1c0.3,0,0.6,0,0.9-0.1s0.5-0.2,0.6-0.3
	s0.3-0.3,0.4-0.5c0.1-0.2,0.1-0.4,0.1-0.6c0-0.3-0.1-0.5-0.2-0.7c-0.2-0.2-0.3-0.3-0.6-0.5c-0.2-0.1-0.5-0.2-0.8-0.3s-0.6-0.2-1-0.3
	s-0.7-0.2-1-0.4s-0.6-0.3-0.8-0.5s-0.4-0.5-0.6-0.8c-0.2-0.3-0.2-0.7-0.2-1.1c0-0.4,0.1-0.8,0.2-1.1s0.4-0.7,0.7-1s0.7-0.5,1.2-0.7
	c0.5-0.2,1-0.2,1.6-0.2c0.7,0,1.3,0.1,1.8,0.3s1,0.5,1.4,0.9L262.9,34.2z M273.7,41.2c-0.2,0.3-0.5,0.5-0.8,0.7
	c-0.3,0.2-0.7,0.4-1,0.5c-0.3,0.1-0.7,0.2-1.1,0.3c-0.4,0.1-0.8,0.1-1.1,0.1c-0.7,0-1.3-0.1-1.9-0.3c-0.6-0.2-1.1-0.6-1.5-1
	c-0.4-0.5-0.8-1-1-1.7s-0.4-1.5-0.4-2.3c0-0.7,0.1-1.4,0.3-2c0.2-0.6,0.5-1.1,0.9-1.6s0.9-0.8,1.5-1.1s1.3-0.4,2-0.4
	c0.6,0,1.2,0.1,1.7,0.3s1,0.5,1.3,0.9c0.4,0.4,0.7,0.9,0.9,1.4c0.2,0.6,0.3,1.2,0.3,1.9c0,0.3,0,0.5-0.1,0.6
	c-0.1,0.1-0.2,0.2-0.4,0.2h-6.7c0,0.6,0.1,1.1,0.3,1.6s0.4,0.8,0.6,1.1s0.6,0.5,1,0.7c0.4,0.2,0.8,0.2,1.2,0.2c0.4,0,0.8,0,1.1-0.2
	c0.3-0.1,0.6-0.2,0.8-0.3c0.2-0.1,0.4-0.2,0.6-0.3c0.2-0.1,0.3-0.2,0.4-0.2c0.2,0,0.3,0.1,0.4,0.2L273.7,41.2z M272.1,36.4
	c0-0.4,0-0.7-0.2-1.1s-0.3-0.6-0.5-0.8c-0.2-0.2-0.5-0.4-0.8-0.6c-0.3-0.1-0.7-0.2-1.1-0.2c-0.8,0-1.5,0.2-1.9,0.7
	c-0.5,0.5-0.8,1.1-0.9,2H272.1z M284.9,32.3c0.8,0,1.4,0.1,2,0.4c0.6,0.2,1.1,0.6,1.5,1c0.4,0.5,0.8,1,1,1.7
	c0.2,0.6,0.3,1.4,0.3,2.2s-0.1,1.5-0.3,2.2c-0.2,0.7-0.5,1.2-1,1.7c-0.4,0.5-0.9,0.8-1.5,1c-0.6,0.2-1.3,0.4-2,0.4
	c-0.8,0-1.4-0.1-2-0.4c-0.6-0.2-1.1-0.6-1.5-1c-0.4-0.5-0.8-1-1-1.7s-0.3-1.4-0.3-2.2s0.1-1.5,0.3-2.2c0.2-0.6,0.6-1.2,1-1.7
	c0.4-0.5,0.9-0.8,1.5-1C283.5,32.4,284.2,32.3,284.9,32.3z M284.9,41.3c1,0,1.7-0.3,2.2-1c0.5-0.7,0.7-1.5,0.7-2.7s-0.2-2.1-0.7-2.7
	c-0.5-0.7-1.2-1-2.2-1c-1,0-1.7,0.3-2.2,1c-0.5,0.7-0.7,1.6-0.7,2.7s0.2,2.1,0.7,2.7C283.2,40.9,283.9,41.3,284.9,41.3z M292.2,42.6
	v-8.5l-1.1-0.1c-0.2,0-0.3-0.1-0.4-0.2c-0.1-0.1-0.1-0.2-0.1-0.3v-0.8h1.6v-0.9c0-0.6,0.1-1.1,0.2-1.5c0.2-0.5,0.4-0.8,0.7-1.2
	c0.3-0.3,0.7-0.6,1.1-0.7s0.9-0.2,1.5-0.2c0.5,0,0.9,0.1,1.3,0.2l0,1c0,0.1,0,0.2-0.1,0.2s-0.1,0.1-0.2,0.1c-0.1,0-0.2,0-0.3,0
	c-0.1,0-0.2,0-0.3,0c-0.3,0-0.6,0-0.8,0.1s-0.5,0.2-0.6,0.4s-0.3,0.4-0.4,0.7c-0.1,0.3-0.1,0.6-0.1,1v0.9h2.8v1.4h-2.8v8.6
	L292.2,42.6L292.2,42.6z M302.6,33.9c0.6-0.5,1.2-0.9,1.8-1.2c0.7-0.3,1.4-0.4,2.2-0.4c0.6,0,1.1,0.1,1.5,0.3
	c0.5,0.2,0.8,0.5,1.1,0.8c0.3,0.3,0.5,0.8,0.7,1.2c0.2,0.5,0.2,1,0.2,1.6v6.5h-0.9c-0.2,0-0.3,0-0.4-0.1s-0.2-0.2-0.2-0.3l-0.2-0.9
	c-0.3,0.2-0.5,0.5-0.8,0.6s-0.5,0.3-0.8,0.5c-0.3,0.1-0.6,0.2-0.9,0.3c-0.3,0.1-0.7,0.1-1,0.1c-0.4,0-0.8,0-1.1-0.2
	s-0.7-0.3-0.9-0.5c-0.3-0.2-0.5-0.5-0.6-0.8c-0.2-0.3-0.2-0.7-0.2-1.2c0-0.4,0.1-0.8,0.3-1.2c0.2-0.4,0.6-0.7,1.1-1s1.1-0.5,1.9-0.7
	c0.8-0.2,1.8-0.3,2.9-0.3v-0.7c0-0.8-0.2-1.3-0.5-1.7c-0.3-0.4-0.8-0.6-1.4-0.6c-0.4,0-0.8,0-1.1,0.2s-0.5,0.2-0.8,0.3
	s-0.4,0.2-0.5,0.3c-0.2,0.1-0.3,0.2-0.5,0.2c-0.1,0-0.2,0-0.3-0.1c-0.1-0.1-0.2-0.2-0.2-0.3L302.6,33.9z M308.3,38.1
	c-0.8,0-1.5,0.1-2,0.2c-0.5,0.1-1,0.2-1.3,0.4c-0.3,0.2-0.6,0.3-0.8,0.6c-0.2,0.2-0.2,0.5-0.2,0.7c0,0.2,0,0.5,0.1,0.7
	c0.1,0.2,0.2,0.3,0.3,0.5s0.3,0.2,0.5,0.2s0.4,0.1,0.6,0.1c0.3,0,0.6,0,0.8-0.1s0.5-0.1,0.7-0.2c0.2-0.1,0.4-0.2,0.6-0.4
	c0.2-0.2,0.4-0.3,0.6-0.5L308.3,38.1L308.3,38.1z M314.4,33.9c0.2-0.2,0.5-0.5,0.7-0.6s0.5-0.4,0.8-0.5c0.3-0.1,0.6-0.2,0.9-0.3
	s0.6-0.1,1-0.1c0.6,0,1,0.1,1.5,0.3s0.8,0.5,1.1,0.8c0.3,0.3,0.5,0.7,0.7,1.2c0.2,0.5,0.2,1,0.2,1.6v6.5h-2v-6.5
	c0-0.7-0.2-1.3-0.5-1.7s-0.8-0.6-1.5-0.6c-0.5,0-1,0.1-1.4,0.3c-0.4,0.2-0.8,0.6-1.2,1v7.4h-2V32.5h1.2c0.3,0,0.4,0.1,0.5,0.4
	L314.4,33.9z M333,42.6h-2v-8.6H326V40c0,0.4,0.1,0.7,0.3,0.9c0.2,0.2,0.5,0.3,0.8,0.3c0.2,0,0.3,0,0.5-0.1s0.2-0.1,0.3-0.2
	c0.1-0.1,0.2-0.1,0.2-0.2c0.1,0,0.1-0.1,0.2-0.1c0.1,0,0.1,0,0.2,0c0,0,0.1,0.1,0.1,0.1l0.6,0.9c-0.3,0.3-0.7,0.5-1.1,0.7
	s-0.9,0.2-1.4,0.2c-0.8,0-1.5-0.2-1.9-0.7s-0.7-1.1-0.7-2v-6.1h-1.2c-0.1,0-0.2,0-0.3-0.1c-0.1-0.1-0.1-0.2-0.1-0.3v-0.8l1.7-0.2
	l0.4-3c0-0.1,0.1-0.2,0.2-0.3c0.1-0.1,0.2-0.1,0.3-0.1h1v3.4h7L333,42.6L333,42.6z M333.5,29.3c0,0.2,0,0.3-0.1,0.5
	c-0.1,0.2-0.2,0.3-0.3,0.4s-0.3,0.2-0.4,0.3c-0.2,0.1-0.3,0.1-0.5,0.1s-0.3,0-0.5-0.1c-0.2-0.1-0.3-0.2-0.4-0.3s-0.2-0.3-0.3-0.4
	s-0.1-0.3-0.1-0.5c0-0.2,0-0.4,0.1-0.5c0.1-0.2,0.2-0.3,0.3-0.4s0.3-0.2,0.4-0.3s0.3-0.1,0.5-0.1s0.3,0,0.5,0.1
	c0.2,0.1,0.3,0.2,0.4,0.3s0.2,0.3,0.3,0.4C333.4,28.9,333.5,29.1,333.5,29.3z M337.6,33.9c0.4-0.5,0.9-0.8,1.4-1.1
	c0.5-0.3,1.1-0.4,1.8-0.4c0.6,0,1.1,0.1,1.6,0.3c0.5,0.2,0.9,0.6,1.2,1s0.6,1,0.8,1.6s0.3,1.3,0.3,2.1c0,0.8-0.1,1.6-0.3,2.2
	c-0.2,0.7-0.5,1.2-0.9,1.7s-0.8,0.8-1.4,1.1s-1.1,0.4-1.8,0.4c-0.3,0-0.6,0-0.9-0.1s-0.5-0.2-0.8-0.3s-0.4-0.3-0.6-0.4
	s-0.4-0.4-0.5-0.6l-0.1,0.8c0,0.3-0.2,0.4-0.5,0.4h-1.3V27.9h2L337.6,33.9L337.6,33.9z M337.6,40.1c0.3,0.4,0.7,0.7,1,0.9
	s0.8,0.2,1.2,0.2c0.9,0,1.6-0.3,2.1-1c0.5-0.7,0.7-1.6,0.7-2.9c0-1.2-0.2-2.1-0.7-2.7c-0.4-0.6-1-0.8-1.8-0.8c-0.6,0-1,0.1-1.5,0.4
	c-0.4,0.2-0.8,0.6-1.1,1.1L337.6,40.1L337.6,40.1z M349.1,29.4c0,0.2,0,0.3-0.1,0.5c-0.1,0.2-0.2,0.3-0.3,0.4s-0.3,0.2-0.4,0.3
	c-0.2,0.1-0.3,0.1-0.5,0.1s-0.3,0-0.5-0.1c-0.2-0.1-0.3-0.2-0.4-0.3s-0.2-0.3-0.3-0.4s-0.1-0.3-0.1-0.5c0-0.2,0-0.4,0.1-0.5
	c0.1-0.2,0.2-0.3,0.3-0.4s0.3-0.2,0.4-0.3s0.3-0.1,0.5-0.1s0.3,0,0.5,0.1c0.2,0.1,0.3,0.2,0.4,0.3s0.2,0.3,0.3,0.4
	C349,29,349.1,29.2,349.1,29.4z M348.7,32.5v10.1h-2V32.5H348.7z M355.6,32.3c0.8,0,1.4,0.1,2,0.4c0.6,0.2,1.1,0.6,1.5,1
	c0.4,0.5,0.8,1,1,1.7c0.2,0.6,0.3,1.4,0.3,2.2s-0.1,1.5-0.3,2.2c-0.2,0.7-0.5,1.2-1,1.7c-0.4,0.5-0.9,0.8-1.5,1
	c-0.6,0.2-1.3,0.4-2,0.4c-0.8,0-1.4-0.1-2-0.4c-0.6-0.2-1.1-0.6-1.5-1c-0.4-0.5-0.8-1-1-1.7s-0.3-1.4-0.3-2.2s0.1-1.5,0.3-2.2
	c0.2-0.6,0.6-1.2,1-1.7c0.4-0.5,0.9-0.8,1.5-1C354.2,32.4,354.9,32.3,355.6,32.3z M355.6,41.3c1,0,1.7-0.3,2.2-1
	c0.5-0.7,0.7-1.5,0.7-2.7s-0.2-2.1-0.7-2.7c-0.5-0.7-1.2-1-2.2-1c-1,0-1.7,0.3-2.2,1c-0.5,0.7-0.7,1.6-0.7,2.7s0.2,2.1,0.7,2.7
	C353.9,40.9,354.7,41.3,355.6,41.3z M371.9,42.6h-2v-8.6h-5.1V40c0,0.4,0.1,0.7,0.3,0.9c0.2,0.2,0.5,0.3,0.8,0.3
	c0.2,0,0.3,0,0.5-0.1s0.2-0.1,0.3-0.2c0.1-0.1,0.2-0.1,0.2-0.2c0.1,0,0.1-0.1,0.2-0.1c0.1,0,0.1,0,0.2,0c0,0,0.1,0.1,0.1,0.1
	l0.6,0.9c-0.3,0.3-0.7,0.5-1.1,0.7s-0.9,0.2-1.4,0.2c-0.8,0-1.5-0.2-1.9-0.7s-0.7-1.1-0.7-2v-6.1h-1.2c-0.1,0-0.2,0-0.3-0.1
	c-0.1-0.1-0.1-0.2-0.1-0.3v-0.8l1.7-0.2l0.4-3c0-0.1,0.1-0.2,0.2-0.3c0.1-0.1,0.2-0.1,0.3-0.1h1v3.4h7L371.9,42.6L371.9,42.6z
	 M372.3,29.3c0,0.2,0,0.3-0.1,0.5c-0.1,0.2-0.2,0.3-0.3,0.4s-0.3,0.2-0.4,0.3c-0.2,0.1-0.3,0.1-0.5,0.1s-0.3,0-0.5-0.1
	c-0.2-0.1-0.3-0.2-0.4-0.3s-0.2-0.3-0.3-0.4s-0.1-0.3-0.1-0.5c0-0.2,0-0.4,0.1-0.5c0.1-0.2,0.2-0.3,0.3-0.4s0.3-0.2,0.4-0.3
	s0.3-0.1,0.5-0.1s0.3,0,0.5,0.1c0.2,0.1,0.3,0.2,0.4,0.3s0.2,0.3,0.3,0.4C372.3,28.9,372.3,29.1,372.3,29.3z M381.6,34.4
	c-0.1,0.1-0.1,0.1-0.2,0.2c-0.1,0-0.1,0.1-0.2,0.1c-0.1,0-0.2,0-0.3-0.1c-0.1-0.1-0.3-0.2-0.4-0.3c-0.2-0.1-0.4-0.2-0.6-0.3
	s-0.6-0.1-0.9-0.1c-0.5,0-0.9,0.1-1.3,0.3s-0.7,0.4-0.9,0.7s-0.4,0.7-0.5,1.2c-0.1,0.5-0.2,1-0.2,1.5c0,0.6,0.1,1.1,0.2,1.6
	s0.3,0.8,0.6,1.2s0.5,0.6,0.9,0.7c0.3,0.2,0.8,0.2,1.2,0.2c0.4,0,0.8,0,1-0.2c0.3-0.1,0.5-0.2,0.7-0.3s0.3-0.2,0.5-0.3
	c0.1-0.1,0.2-0.2,0.4-0.2c0.2,0,0.3,0.1,0.4,0.2l0.6,0.7c-0.2,0.3-0.5,0.5-0.8,0.7c-0.3,0.2-0.6,0.4-0.9,0.5c-0.3,0.1-0.7,0.2-1,0.3
	c-0.4,0.1-0.7,0.1-1.1,0.1c-0.6,0-1.2-0.1-1.8-0.3c-0.5-0.2-1-0.6-1.4-1c-0.4-0.5-0.7-1-1-1.6c-0.2-0.7-0.3-1.4-0.3-2.2
	c0-0.8,0.1-1.5,0.3-2.1s0.5-1.2,0.9-1.7s0.9-0.8,1.5-1.1c0.6-0.3,1.3-0.4,2.1-0.4c0.7,0,1.4,0.1,1.9,0.3c0.5,0.2,1,0.6,1.5,1
	L381.6,34.4z M391.9,42.8c-0.8,0-1.5-0.2-1.9-0.7s-0.7-1.1-0.7-2v-6.1h-1.2c-0.1,0-0.2,0-0.3-0.1c-0.1-0.1-0.1-0.2-0.1-0.3v-0.8
	l1.7-0.2l0.4-3c0-0.1,0.1-0.2,0.2-0.3c0.1-0.1,0.2-0.1,0.3-0.1h1v3.4h2.9v1.4h-2.9V40c0,0.4,0.1,0.7,0.3,0.9
	c0.2,0.2,0.5,0.3,0.8,0.3c0.2,0,0.3,0,0.5-0.1s0.2-0.1,0.3-0.2c0.1-0.1,0.2-0.1,0.2-0.2c0.1,0,0.1-0.1,0.2-0.1c0.1,0,0.1,0,0.2,0
	c0,0,0.1,0.1,0.1,0.1l0.6,0.9c-0.3,0.3-0.7,0.5-1.1,0.7C392.8,42.7,392.3,42.8,391.9,42.8z M397.7,33.8c0.4-0.4,0.9-0.8,1.4-1
	c0.5-0.3,1.1-0.4,1.8-0.4c0.6,0,1,0.1,1.5,0.3s0.8,0.5,1.1,0.8c0.3,0.3,0.5,0.7,0.7,1.2c0.2,0.5,0.2,1,0.2,1.6v6.5h-2v-6.5
	c0-0.7-0.2-1.3-0.5-1.7s-0.8-0.6-1.5-0.6c-0.5,0-1,0.1-1.4,0.3c-0.4,0.2-0.8,0.6-1.2,1v7.4h-2V27.9h2L397.7,33.8L397.7,33.8z
	 M415,41.2c-0.2,0.3-0.5,0.5-0.8,0.7c-0.3,0.2-0.7,0.4-1,0.5c-0.3,0.1-0.7,0.2-1.1,0.3c-0.4,0.1-0.8,0.1-1.1,0.1
	c-0.7,0-1.3-0.1-1.9-0.3c-0.6-0.2-1.1-0.6-1.5-1c-0.4-0.5-0.8-1-1-1.7s-0.4-1.5-0.4-2.3c0-0.7,0.1-1.4,0.3-2
	c0.2-0.6,0.5-1.1,0.9-1.6s0.9-0.8,1.5-1.1s1.3-0.4,2-0.4c0.6,0,1.2,0.1,1.7,0.3s1,0.5,1.3,0.9c0.4,0.4,0.7,0.9,0.9,1.4
	c0.2,0.6,0.3,1.2,0.3,1.9c0,0.3,0,0.5-0.1,0.6c-0.1,0.1-0.2,0.2-0.4,0.2H408c0,0.6,0.1,1.1,0.3,1.6s0.4,0.8,0.6,1.1s0.6,0.5,1,0.7
	c0.4,0.2,0.8,0.2,1.2,0.2c0.4,0,0.8,0,1.1-0.2c0.3-0.1,0.6-0.2,0.8-0.3c0.2-0.1,0.4-0.2,0.6-0.3c0.2-0.1,0.3-0.2,0.4-0.2
	c0.2,0,0.3,0.1,0.4,0.2L415,41.2z M413.4,36.4c0-0.4,0-0.7-0.2-1.1s-0.3-0.6-0.5-0.8s-0.5-0.4-0.8-0.6c-0.3-0.1-0.7-0.2-1.1-0.2
	c-0.8,0-1.5,0.2-1.9,0.7c-0.5,0.5-0.8,1.1-0.9,2H413.4z M418.9,34.4c0.3-0.7,0.7-1.2,1.2-1.6s1-0.6,1.7-0.6c0.2,0,0.4,0,0.6,0.1
	c0.2,0,0.4,0.1,0.5,0.2l-0.1,1.5c0,0.2-0.2,0.3-0.3,0.3c-0.1,0-0.2,0-0.4,0c-0.2,0-0.4,0-0.6,0c-0.3,0-0.6,0-0.8,0.1
	s-0.5,0.2-0.6,0.4c-0.2,0.2-0.4,0.4-0.5,0.7c-0.2,0.3-0.3,0.5-0.4,0.9v6.3h-2V32.5h1.1c0.2,0,0.4,0,0.4,0.1c0.1,0.1,0.1,0.2,0.2,0.4
	L418.9,34.4z M423.7,33.9c0.6-0.5,1.2-0.9,1.8-1.2c0.7-0.3,1.4-0.4,2.2-0.4c0.6,0,1.1,0.1,1.5,0.3c0.5,0.2,0.8,0.5,1.1,0.8
	c0.3,0.3,0.5,0.8,0.7,1.2c0.2,0.5,0.2,1,0.2,1.6v6.5h-0.9c-0.2,0-0.3,0-0.4-0.1s-0.2-0.2-0.2-0.3l-0.2-0.9c-0.3,0.2-0.5,0.5-0.8,0.6
	s-0.5,0.3-0.8,0.5c-0.3,0.1-0.6,0.2-0.9,0.3c-0.3,0.1-0.7,0.1-1,0.1c-0.4,0-0.8,0-1.1-0.2s-0.7-0.3-0.9-0.5
	c-0.3-0.2-0.5-0.5-0.6-0.8c-0.2-0.3-0.2-0.7-0.2-1.2c0-0.4,0.1-0.8,0.3-1.2c0.2-0.4,0.6-0.7,1.1-1s1.1-0.5,1.9-0.7
	c0.8-0.2,1.8-0.3,2.9-0.3v-0.7c0-0.8-0.2-1.3-0.5-1.7c-0.3-0.4-0.8-0.6-1.4-0.6c-0.4,0-0.8,0-1.1,0.2s-0.5,0.2-0.8,0.3
	s-0.4,0.2-0.5,0.3c-0.2,0.1-0.3,0.2-0.5,0.2c-0.1,0-0.2,0-0.3-0.1c-0.1-0.1-0.2-0.2-0.2-0.3L423.7,33.9z M429.4,38.1
	c-0.8,0-1.5,0.1-2,0.2c-0.5,0.1-1,0.2-1.3,0.4c-0.3,0.2-0.6,0.3-0.8,0.6c-0.2,0.2-0.2,0.5-0.2,0.7c0,0.2,0,0.5,0.1,0.7
	c0.1,0.2,0.2,0.3,0.3,0.5s0.3,0.2,0.5,0.2s0.4,0.1,0.6,0.1c0.3,0,0.6,0,0.8-0.1s0.5-0.1,0.7-0.2c0.2-0.1,0.4-0.2,0.6-0.4
	c0.2-0.2,0.4-0.3,0.6-0.5L429.4,38.1L429.4,38.1z M435.6,34c0.2-0.2,0.4-0.5,0.7-0.7s0.5-0.4,0.8-0.5c0.3-0.2,0.6-0.3,0.9-0.3
	c0.3-0.1,0.7-0.1,1-0.1c0.6,0,1.1,0.1,1.6,0.3c0.5,0.2,0.9,0.6,1.2,1s0.6,1,0.8,1.6s0.3,1.4,0.3,2.2c0,0.8-0.1,1.5-0.3,2.1
	s-0.5,1.2-0.9,1.7s-0.8,0.8-1.4,1.1c-0.5,0.3-1.2,0.4-1.8,0.4c-0.6,0-1.1-0.1-1.6-0.3c-0.4-0.2-0.8-0.5-1.2-0.8V46h-2V32.5h1.2
	c0.3,0,0.4,0.1,0.5,0.4L435.6,34z M435.7,40.1c0.3,0.4,0.7,0.7,1,0.9c0.4,0.2,0.8,0.2,1.2,0.2c0.9,0,1.6-0.3,2.1-1s0.7-1.6,0.7-2.8
	c0-0.7,0-1.2-0.2-1.7c-0.1-0.5-0.3-0.8-0.5-1.1c-0.2-0.3-0.5-0.5-0.8-0.6c-0.3-0.1-0.7-0.2-1-0.2c-0.6,0-1.1,0.1-1.5,0.4
	c-0.4,0.2-0.8,0.6-1.2,1.1L435.7,40.1L435.7,40.1z M453.4,32.5l-5.6,13.1c-0.1,0.2-0.1,0.3-0.2,0.3s-0.2,0.1-0.4,0.1h-1.5l1.9-4
	l-4.2-9.5h1.7c0.2,0,0.3,0,0.4,0.1s0.2,0.2,0.2,0.3l2.6,6.1c0,0.2,0.1,0.3,0.2,0.5c0,0.2,0.1,0.3,0.1,0.5c0-0.2,0.1-0.3,0.2-0.5
	c0-0.2,0.1-0.3,0.2-0.5l2.5-6.1c0-0.1,0.1-0.2,0.2-0.3s0.2-0.1,0.3-0.1L453.4,32.5L453.4,32.5z M461.4,29.4c0,0.2,0,0.3-0.1,0.5
	c-0.1,0.2-0.2,0.3-0.3,0.4s-0.3,0.2-0.4,0.3c-0.2,0.1-0.3,0.1-0.5,0.1s-0.3,0-0.5-0.1s-0.3-0.2-0.4-0.3s-0.2-0.3-0.3-0.4
	s-0.1-0.3-0.1-0.5c0-0.2,0-0.4,0.1-0.5c0.1-0.2,0.2-0.3,0.3-0.4s0.3-0.2,0.4-0.3s0.3-0.1,0.5-0.1s0.3,0,0.5,0.1
	c0.2,0.1,0.3,0.2,0.4,0.3s0.2,0.3,0.3,0.4C461.4,29,461.4,29.2,461.4,29.4z M461,32.5v10.1h-2V32.5H461z M465.5,33.9
	c0.2-0.2,0.5-0.5,0.7-0.6s0.5-0.4,0.8-0.5c0.3-0.1,0.6-0.2,0.9-0.3s0.6-0.1,1-0.1c0.6,0,1,0.1,1.5,0.3s0.8,0.5,1.1,0.8
	c0.3,0.3,0.5,0.7,0.7,1.2c0.2,0.5,0.2,1,0.2,1.6v6.5h-2v-6.5c0-0.7-0.2-1.3-0.5-1.7s-0.8-0.6-1.5-0.6c-0.5,0-1,0.1-1.4,0.3
	c-0.4,0.2-0.8,0.6-1.2,1v7.4h-2V32.5h1.2c0.3,0,0.4,0.1,0.5,0.4L465.5,33.9z"/>
<g>
	<path class="st1" d="M481.9,32.4V43c0,0.5-0.1,0.9-0.2,1.3c-0.1,0.4-0.3,0.7-0.6,1s-0.6,0.5-1,0.7s-0.9,0.2-1.5,0.2
		c-0.2,0-0.4,0-0.7,0c-0.2,0-0.4-0.1-0.6-0.1l0.1-1.3c0-0.1,0.1-0.2,0.2-0.2c0.1,0,0.2,0,0.5,0s0.4,0,0.6-0.1s0.3-0.1,0.4-0.2
		s0.2-0.2,0.2-0.4c0-0.2,0.1-0.4,0.1-0.7V32.4L481.9,32.4L481.9,32.4z M482.2,29.4c0,0.2,0,0.4-0.1,0.6s-0.2,0.3-0.3,0.5
		s-0.3,0.2-0.5,0.3s-0.4,0.1-0.6,0.1c-0.2,0-0.4,0-0.6-0.1s-0.3-0.2-0.5-0.3s-0.2-0.3-0.3-0.5s-0.1-0.4-0.1-0.6c0-0.2,0-0.4,0.1-0.6
		s0.2-0.4,0.3-0.5s0.3-0.2,0.5-0.3s0.4-0.1,0.6-0.1c0.2,0,0.4,0,0.6,0.1c0.2,0.1,0.4,0.2,0.5,0.3s0.3,0.3,0.3,0.5
		S482.2,29.2,482.2,29.4z"/>
	<path class="st1" d="M492.8,32.4v10.2h-1.5c-0.3,0-0.5-0.2-0.6-0.5l-0.2-0.8c-0.4,0.4-0.9,0.8-1.4,1s-1.1,0.4-1.8,0.4
		c-0.6,0-1.1-0.1-1.5-0.3c-0.4-0.2-0.8-0.5-1.1-0.8c-0.3-0.3-0.5-0.8-0.7-1.2c-0.2-0.5-0.2-1-0.2-1.6v-6.5h2.5v6.5
		c0,0.6,0.1,1.1,0.4,1.5s0.7,0.5,1.3,0.5c0.4,0,0.8-0.1,1.2-0.3c0.4-0.2,0.7-0.5,1.1-0.8v-7.4L492.8,32.4L492.8,32.4z"/>
	<path class="st1" d="M501.1,34.4c-0.1,0.1-0.1,0.2-0.2,0.2s-0.2,0.1-0.3,0.1c-0.1,0-0.2,0-0.4-0.1c-0.1-0.1-0.3-0.1-0.5-0.2
		s-0.4-0.2-0.6-0.2s-0.5-0.1-0.8-0.1c-0.5,0-0.9,0.1-1.1,0.3c-0.3,0.2-0.4,0.5-0.4,0.8c0,0.2,0.1,0.4,0.2,0.5
		c0.1,0.2,0.3,0.3,0.6,0.4s0.5,0.2,0.8,0.3c0.3,0.1,0.6,0.2,0.9,0.3c0.3,0.1,0.6,0.2,0.9,0.4c0.3,0.1,0.6,0.3,0.8,0.5
		c0.2,0.2,0.4,0.5,0.6,0.8s0.2,0.7,0.2,1.1c0,0.5-0.1,1-0.3,1.4c-0.2,0.4-0.4,0.8-0.8,1.1c-0.3,0.3-0.8,0.5-1.3,0.7
		c-0.5,0.2-1.1,0.2-1.8,0.2c-0.3,0-0.7,0-1-0.1c-0.3-0.1-0.7-0.2-1-0.3s-0.6-0.2-0.9-0.4s-0.5-0.3-0.7-0.5l0.6-0.9
		c0.1-0.1,0.2-0.2,0.3-0.3s0.2-0.1,0.4-0.1s0.3,0,0.4,0.1c0.1,0.1,0.3,0.2,0.5,0.3c0.2,0.1,0.4,0.2,0.6,0.3s0.6,0.1,0.9,0.1
		c0.3,0,0.5,0,0.8-0.1c0.2-0.1,0.4-0.2,0.5-0.3s0.2-0.2,0.3-0.4s0.1-0.3,0.1-0.5c0-0.2-0.1-0.4-0.2-0.6s-0.3-0.3-0.6-0.4
		c-0.2-0.1-0.5-0.2-0.8-0.3s-0.6-0.2-0.9-0.3s-0.6-0.2-0.9-0.4c-0.3-0.1-0.6-0.3-0.8-0.5c-0.2-0.2-0.4-0.5-0.6-0.8
		c-0.1-0.3-0.2-0.7-0.2-1.2c0-0.4,0.1-0.8,0.2-1.2s0.4-0.7,0.7-1c0.3-0.3,0.7-0.5,1.2-0.7s1-0.2,1.7-0.2c0.7,0,1.3,0.1,1.9,0.3
		c0.6,0.2,1.1,0.5,1.4,0.9L501.1,34.4z"/>
	<path class="st1" d="M506.6,42.8c-0.9,0-1.6-0.2-2.1-0.8c-0.5-0.5-0.7-1.2-0.7-2.1v-5.7h-1.1c-0.1,0-0.2,0-0.3-0.1
		s-0.1-0.2-0.1-0.4v-1l1.7-0.3l0.5-2.8c0-0.1,0.1-0.2,0.2-0.3s0.2-0.1,0.4-0.1h1.3v3.2h2.7v1.8h-2.7v5.5c0,0.3,0.1,0.6,0.2,0.8
		s0.4,0.3,0.6,0.3c0.2,0,0.3,0,0.4-0.1s0.2-0.1,0.3-0.1c0.1,0,0.1-0.1,0.2-0.1c0.1,0,0.1,0,0.2,0c0.1,0,0.1,0,0.2,0
		c0.1,0,0.1,0.1,0.2,0.2l0.7,1.2c-0.4,0.3-0.8,0.5-1.2,0.7C507.6,42.7,507.1,42.8,506.6,42.8z"/>
	<path class="st1" d="M519.2,32.2c0.8,0,1.4,0.1,2.1,0.4s1.2,0.6,1.6,1c0.4,0.5,0.8,1,1,1.7c0.2,0.7,0.4,1.4,0.4,2.2
		s-0.1,1.5-0.4,2.2c-0.2,0.7-0.6,1.2-1,1.7s-1,0.8-1.6,1.1s-1.3,0.4-2.1,0.4c-0.8,0-1.5-0.1-2.1-0.4s-1.2-0.6-1.6-1.1s-0.8-1-1-1.7
		c-0.2-0.7-0.4-1.4-0.4-2.2c0-0.8,0.1-1.5,0.4-2.2c0.2-0.7,0.6-1.2,1-1.7c0.4-0.5,1-0.8,1.6-1C517.8,32.4,518.5,32.2,519.2,32.2z
		 M519.2,40.9c0.8,0,1.5-0.3,1.9-0.9s0.6-1.4,0.6-2.5s-0.2-2-0.6-2.5s-1-0.9-1.9-0.9c-0.9,0-1.5,0.3-1.9,0.9
		c-0.4,0.6-0.6,1.4-0.6,2.5s0.2,1.9,0.6,2.5C517.7,40.6,518.4,40.9,519.2,40.9z"/>
	<path class="st1" d="M528.1,33.6c0.2-0.2,0.4-0.4,0.7-0.6c0.2-0.2,0.5-0.3,0.7-0.5s0.5-0.2,0.8-0.3c0.3-0.1,0.6-0.1,1-0.1
		c0.6,0,1.1,0.1,1.5,0.3c0.4,0.2,0.8,0.5,1.1,0.8c0.3,0.3,0.5,0.8,0.7,1.2s0.2,1,0.2,1.6v6.5h-2.5v-6.5c0-0.6-0.1-1.1-0.4-1.5
		s-0.7-0.5-1.3-0.5c-0.4,0-0.8,0.1-1.2,0.3s-0.7,0.5-1.1,0.8v7.4h-2.5V32.4h1.5c0.3,0,0.5,0.2,0.6,0.5L528.1,33.6z"/>
	<path class="st1" d="M538.5,37.8c0,0.5,0.1,1,0.3,1.4s0.3,0.7,0.6,1s0.5,0.4,0.8,0.6s0.7,0.2,1.1,0.2s0.7,0,1-0.1s0.5-0.2,0.8-0.3
		s0.4-0.2,0.6-0.3c0.2-0.1,0.3-0.1,0.5-0.1c0.2,0,0.4,0.1,0.5,0.2l0.7,0.9c-0.3,0.3-0.6,0.6-0.9,0.8c-0.3,0.2-0.7,0.4-1.1,0.5
		c-0.4,0.1-0.8,0.2-1.1,0.3c-0.4,0-0.8,0.1-1.1,0.1c-0.7,0-1.4-0.1-2-0.3c-0.6-0.2-1.1-0.6-1.6-1c-0.4-0.5-0.8-1-1.1-1.7
		c-0.3-0.7-0.4-1.5-0.4-2.4c0-0.7,0.1-1.4,0.3-2c0.2-0.6,0.6-1.2,1-1.6c0.4-0.5,0.9-0.8,1.6-1.1c0.6-0.3,1.3-0.4,2.1-0.4
		c0.7,0,1.2,0.1,1.8,0.3c0.5,0.2,1,0.5,1.4,0.9s0.7,0.9,0.9,1.5c0.2,0.6,0.3,1.2,0.3,2c0,0.4,0,0.6-0.1,0.8s-0.2,0.2-0.5,0.2
		L538.5,37.8L538.5,37.8z M543.2,36.3c0-0.3,0-0.6-0.1-0.9s-0.2-0.5-0.4-0.7c-0.2-0.2-0.4-0.4-0.7-0.5c-0.3-0.1-0.6-0.2-1-0.2
		c-0.7,0-1.3,0.2-1.7,0.6s-0.7,1-0.8,1.7L543.2,36.3L543.2,36.3z"/>
	<path class="st1" d="M555.9,32.2c0.8,0,1.4,0.1,2.1,0.4s1.2,0.6,1.6,1c0.4,0.5,0.8,1,1,1.7c0.2,0.7,0.4,1.4,0.4,2.2
		s-0.1,1.5-0.4,2.2c-0.2,0.7-0.6,1.2-1,1.7s-1,0.8-1.6,1.1s-1.3,0.4-2.1,0.4c-0.8,0-1.5-0.1-2.1-0.4s-1.2-0.6-1.6-1.1s-0.8-1-1-1.7
		c-0.2-0.7-0.4-1.4-0.4-2.2c0-0.8,0.1-1.5,0.4-2.2c0.2-0.7,0.6-1.2,1-1.7c0.4-0.5,1-0.8,1.6-1C554.4,32.4,555.1,32.2,555.9,32.2z
		 M555.9,40.9c0.8,0,1.5-0.3,1.9-0.9s0.6-1.4,0.6-2.5s-0.2-2-0.6-2.5s-1-0.9-1.9-0.9c-0.9,0-1.5,0.3-1.9,0.9
		c-0.4,0.6-0.6,1.4-0.6,2.5s0.2,1.9,0.6,2.5C554.4,40.6,555,40.9,555.9,40.9z"/>
	<path class="st1" d="M564.8,34.2c0.3-0.6,0.7-1.1,1.1-1.4c0.4-0.3,1-0.5,1.6-0.5c0.5,0,0.8,0.1,1.1,0.3l-0.2,1.8
		c0,0.1-0.1,0.2-0.2,0.2s-0.2,0.1-0.2,0.1s-0.2,0-0.4,0s-0.4,0-0.6,0c-0.3,0-0.5,0-0.7,0.1s-0.4,0.2-0.6,0.3
		c-0.2,0.2-0.3,0.3-0.4,0.5c-0.1,0.2-0.2,0.5-0.4,0.7v6.3h-2.5V32.4h1.4c0.2,0,0.4,0,0.5,0.1s0.2,0.2,0.2,0.5L564.8,34.2z"/>
	<path class="st1" d="M569.1,33.8c1.2-1.1,2.6-1.6,4.2-1.6c0.6,0,1.1,0.1,1.6,0.3s0.9,0.5,1.2,0.8c0.3,0.3,0.6,0.8,0.7,1.2
		c0.2,0.5,0.2,1,0.2,1.6v6.5h-1.1c-0.2,0-0.4,0-0.5-0.1c-0.1-0.1-0.2-0.2-0.3-0.4l-0.2-0.7c-0.3,0.2-0.5,0.4-0.8,0.6
		c-0.2,0.2-0.5,0.3-0.8,0.4s-0.6,0.2-0.8,0.3c-0.3,0.1-0.6,0.1-1,0.1c-0.4,0-0.8-0.1-1.2-0.2s-0.7-0.3-0.9-0.5
		c-0.3-0.2-0.5-0.5-0.6-0.9s-0.2-0.8-0.2-1.2c0-0.3,0-0.5,0.1-0.8c0.1-0.3,0.2-0.5,0.4-0.7c0.2-0.2,0.4-0.5,0.8-0.7
		c0.3-0.2,0.7-0.4,1.2-0.5c0.5-0.2,1-0.3,1.6-0.4s1.3-0.2,2.1-0.2v-0.6c0-0.7-0.2-1.2-0.4-1.5c-0.3-0.3-0.7-0.5-1.3-0.5
		c-0.4,0-0.7,0-1,0.1s-0.5,0.2-0.7,0.3c-0.2,0.1-0.4,0.2-0.5,0.3s-0.3,0.1-0.5,0.1c-0.2,0-0.3,0-0.4-0.1s-0.2-0.2-0.3-0.3
		L569.1,33.8z M574.8,38.3c-0.7,0-1.3,0.1-1.8,0.2c-0.5,0.1-0.9,0.2-1.2,0.3s-0.5,0.3-0.6,0.5s-0.2,0.4-0.2,0.6
		c0,0.4,0.1,0.7,0.4,0.9c0.3,0.2,0.6,0.3,1,0.3c0.5,0,0.9-0.1,1.3-0.3c0.4-0.2,0.7-0.5,1.1-0.8L574.8,38.3L574.8,38.3z"/>
	<path class="st1" d="M581.6,27.8v14.8h-2.5V27.8H581.6z"/>
	<path class="st1" d="M597,27.8v14.8h-1.5c-0.3,0-0.5-0.2-0.6-0.5l-0.2-1c-0.4,0.5-0.9,0.9-1.4,1.2c-0.5,0.3-1.2,0.4-1.9,0.4
		c-0.6,0-1.1-0.1-1.5-0.3c-0.5-0.2-0.9-0.6-1.2-1s-0.6-1-0.8-1.6c-0.2-0.7-0.3-1.4-0.3-2.2c0-0.8,0.1-1.5,0.3-2.1s0.5-1.2,0.9-1.7
		c0.4-0.5,0.8-0.8,1.4-1.1s1.1-0.4,1.8-0.4c0.6,0,1.1,0.1,1.5,0.3c0.4,0.2,0.8,0.4,1.1,0.7v-5.4H597z M594.6,35
		c-0.3-0.3-0.6-0.6-0.9-0.7c-0.3-0.1-0.7-0.2-1.1-0.2c-0.4,0-0.7,0.1-1,0.2s-0.6,0.3-0.8,0.6s-0.4,0.6-0.5,1.1s-0.2,1-0.2,1.5
		c0,0.6,0.1,1.1,0.2,1.5c0.1,0.4,0.2,0.8,0.4,1s0.4,0.5,0.7,0.6s0.6,0.2,0.9,0.2c0.5,0,0.9-0.1,1.3-0.3c0.4-0.2,0.7-0.5,1-0.9
		L594.6,35L594.6,35z"/>
	<path class="st1" d="M603.6,32.2c0.8,0,1.4,0.1,2.1,0.4s1.2,0.6,1.6,1c0.4,0.5,0.8,1,1,1.7c0.2,0.7,0.4,1.4,0.4,2.2
		s-0.1,1.5-0.4,2.2c-0.2,0.7-0.6,1.2-1,1.7s-1,0.8-1.6,1.1s-1.3,0.4-2.1,0.4c-0.8,0-1.5-0.1-2.1-0.4s-1.2-0.6-1.6-1.1s-0.8-1-1-1.7
		c-0.2-0.7-0.4-1.4-0.4-2.2c0-0.8,0.1-1.5,0.4-2.2c0.2-0.7,0.6-1.2,1-1.7c0.4-0.5,1-0.8,1.6-1C602.1,32.4,602.8,32.2,603.6,32.2z
		 M603.6,40.9c0.8,0,1.5-0.3,1.9-0.9s0.6-1.4,0.6-2.5s-0.2-2-0.6-2.5s-1-0.9-1.9-0.9c-0.9,0-1.5,0.3-1.9,0.9
		c-0.4,0.6-0.6,1.4-0.6,2.5s0.2,1.9,0.6,2.5C602.1,40.6,602.7,40.9,603.6,40.9z"/>
	<path class="st1" d="M616.4,34.4c-0.1,0.1-0.1,0.2-0.2,0.2s-0.2,0.1-0.3,0.1c-0.1,0-0.2,0-0.4-0.1c-0.1-0.1-0.3-0.1-0.5-0.2
		s-0.4-0.2-0.6-0.2s-0.5-0.1-0.8-0.1c-0.5,0-0.9,0.1-1.1,0.3c-0.3,0.2-0.4,0.5-0.4,0.8c0,0.2,0.1,0.4,0.2,0.5
		c0.1,0.2,0.3,0.3,0.6,0.4s0.5,0.2,0.8,0.3c0.3,0.1,0.6,0.2,0.9,0.3c0.3,0.1,0.6,0.2,0.9,0.4c0.3,0.1,0.6,0.3,0.8,0.5
		c0.2,0.2,0.4,0.5,0.6,0.8s0.2,0.7,0.2,1.1c0,0.5-0.1,1-0.3,1.4c-0.2,0.4-0.4,0.8-0.8,1.1c-0.3,0.3-0.8,0.5-1.3,0.7
		c-0.5,0.2-1.1,0.2-1.8,0.2c-0.3,0-0.7,0-1-0.1c-0.3-0.1-0.7-0.2-1-0.3s-0.6-0.2-0.9-0.4s-0.5-0.3-0.7-0.5l0.6-0.9
		c0.1-0.1,0.2-0.2,0.3-0.3s0.2-0.1,0.4-0.1s0.3,0,0.4,0.1c0.1,0.1,0.3,0.2,0.5,0.3c0.2,0.1,0.4,0.2,0.6,0.3s0.6,0.1,0.9,0.1
		c0.3,0,0.5,0,0.8-0.1c0.2-0.1,0.4-0.2,0.5-0.3s0.2-0.2,0.3-0.4s0.1-0.3,0.1-0.5c0-0.2-0.1-0.4-0.2-0.6s-0.3-0.3-0.6-0.4
		c-0.2-0.1-0.5-0.2-0.8-0.3s-0.6-0.2-0.9-0.3s-0.6-0.2-0.9-0.4c-0.3-0.1-0.6-0.3-0.8-0.5c-0.2-0.2-0.4-0.5-0.6-0.8
		c-0.1-0.3-0.2-0.7-0.2-1.2c0-0.4,0.1-0.8,0.2-1.2s0.4-0.7,0.7-1c0.3-0.3,0.7-0.5,1.2-0.7s1-0.2,1.7-0.2c0.7,0,1.3,0.1,1.9,0.3
		c0.6,0.2,1.1,0.5,1.4,0.9L616.4,34.4z"/>
	<path class="st1" d="M620.4,37.8c0,0.5,0.1,1,0.3,1.4s0.3,0.7,0.6,1s0.5,0.4,0.8,0.6s0.7,0.2,1.1,0.2s0.7,0,1-0.1s0.5-0.2,0.8-0.3
		s0.4-0.2,0.6-0.3c0.2-0.1,0.3-0.1,0.5-0.1c0.2,0,0.4,0.1,0.5,0.2l0.7,0.9c-0.3,0.3-0.6,0.6-0.9,0.8c-0.3,0.2-0.7,0.4-1.1,0.5
		c-0.4,0.1-0.8,0.2-1.1,0.3c-0.4,0-0.8,0.1-1.1,0.1c-0.7,0-1.4-0.1-2-0.3c-0.6-0.2-1.1-0.6-1.6-1c-0.4-0.5-0.8-1-1.1-1.7
		c-0.3-0.7-0.4-1.5-0.4-2.4c0-0.7,0.1-1.4,0.3-2c0.2-0.6,0.6-1.2,1-1.6c0.4-0.5,0.9-0.8,1.6-1.1c0.6-0.3,1.3-0.4,2.1-0.4
		c0.7,0,1.2,0.1,1.8,0.3c0.5,0.2,1,0.5,1.4,0.9s0.7,0.9,0.9,1.5c0.2,0.6,0.3,1.2,0.3,2c0,0.4,0,0.6-0.1,0.8s-0.2,0.2-0.5,0.2
		L620.4,37.8L620.4,37.8z M625.1,36.3c0-0.3,0-0.6-0.1-0.9s-0.2-0.5-0.4-0.7c-0.2-0.2-0.4-0.4-0.7-0.5c-0.3-0.1-0.6-0.2-1-0.2
		c-0.7,0-1.3,0.2-1.7,0.6s-0.7,1-0.8,1.7L625.1,36.3L625.1,36.3z"/>
</g>
<g>
	<path class="st1" d="M628.4,29.9c0.1-0.4,0.2-0.8,0.3-1.1c0.2-0.3,0.4-0.6,0.6-0.8s0.5-0.4,0.9-0.5c0.3-0.1,0.7-0.2,1-0.2
		c0.4,0,0.7,0.1,1.1,0.2s0.6,0.3,0.8,0.5s0.4,0.4,0.5,0.7s0.2,0.5,0.2,0.9c0,0.3,0,0.5-0.1,0.7c-0.1,0.2-0.2,0.4-0.3,0.5
		s-0.2,0.3-0.4,0.4s-0.4,0.2-0.6,0.3c0.5,0.2,0.9,0.4,1.1,0.7c0.2,0.3,0.4,0.7,0.4,1.2c0,0.4-0.1,0.8-0.2,1.1
		c-0.2,0.3-0.4,0.6-0.6,0.8s-0.6,0.4-0.9,0.5c-0.3,0.1-0.7,0.2-1.1,0.2c-0.4,0-0.8,0-1.1-0.2c-0.3-0.1-0.6-0.2-0.8-0.4
		s-0.4-0.4-0.6-0.7c-0.2-0.3-0.3-0.6-0.4-1l0.6-0.3c0.2-0.1,0.3-0.1,0.5-0.1s0.2,0.1,0.3,0.2c0.1,0.1,0.2,0.3,0.2,0.4
		s0.2,0.2,0.3,0.3s0.2,0.2,0.4,0.2s0.3,0.1,0.6,0.1c0.2,0,0.5,0,0.6-0.1s0.3-0.2,0.5-0.3s0.2-0.3,0.3-0.4s0.1-0.3,0.1-0.5
		c0-0.2,0-0.4-0.1-0.5s-0.1-0.3-0.3-0.4c-0.1-0.1-0.3-0.2-0.6-0.3c-0.2-0.1-0.6-0.1-1-0.1v-1c0.3,0,0.7,0,0.9-0.1s0.4-0.2,0.6-0.3
		s0.2-0.2,0.3-0.4c0.1-0.2,0.1-0.3,0.1-0.5c0-0.4-0.1-0.7-0.3-0.9c-0.2-0.2-0.5-0.3-0.9-0.3c-0.2,0-0.3,0-0.5,0.1s-0.3,0.1-0.4,0.2
		s-0.2,0.2-0.3,0.3c-0.1,0.1-0.1,0.2-0.2,0.4c-0.1,0.2-0.2,0.3-0.3,0.3s-0.3,0.1-0.4,0L628.4,29.9z"/>
</g>
<polygon class="st1" points="794.7,53.2 792.1,50.6 801.6,41 792.1,31.5 794.7,28.8 806.9,41 "/>
</svg>
