<?xml version="1.0" encoding="utf-8"?>
<!-- Generator: Adobe Illustrator 24.1.2, SVG Export Plug-In . SVG Version: 6.00 Build 0)  -->
<svg version="1.1" id="Layer_1" xmlns="http://www.w3.org/2000/svg" xmlns:xlink="http://www.w3.org/1999/xlink" x="0px" y="0px"
	 viewBox="0 0 1364.3 743.8" style="enable-background:new 0 0 1364.3 743.8;" xml:space="preserve">
<style type="text/css">
	.st0{fill:none;stroke:#FFFFFF;stroke-width:2.464;}
	.st1{fill:none;stroke:#EFBB50;stroke-width:6.161;stroke-linecap:round;stroke-linejoin:round;}
	.st2{fill:#FFFFFF;}
</style>
<rect x="70.2" y="126" class="st0" width="30.7" height="34.8"/>
<polyline class="st1" points="72.1,144 81.6,154 104.3,124 "/>
<rect x="71.8" y="202.8" class="st0" width="30.7" height="34.8"/>
<polyline class="st1" points="73.6,220.7 83.1,230.8 105.8,200.8 "/>
<rect x="70.2" y="282.8" class="st0" width="30.7" height="34.8"/>
<polyline class="st1" points="72.1,300.7 81.6,310.8 104.3,280.8 "/>
<rect x="70.2" y="360" class="st0" width="30.7" height="34.8"/>
<polyline class="st1" points="72.1,378 81.6,388.1 104.3,358 "/>
<rect x="70.2" y="438.5" class="st0" width="30.7" height="34.8"/>
<polyline class="st1" points="72.1,456.4 81.6,466.5 104.3,436.5 "/>
<rect x="70.2" y="516.2" class="st0" width="30.7" height="34.8"/>
<polyline class="st1" points="72.1,534.1 81.6,544.2 104.3,514.2 "/>
<path class="st2" d="M1306.5,34.9h0.3c0.1,0,0.1,0,0.1,0c0.1,0,0.1,0,0.1,0s0.1,0,0.1-0.1s0-0.1,0-0.1v-0.1c0,0,0-0.1-0.1-0.1h-0.1
	h-0.1h-0.3V34.9L1306.5,34.9z M1306.4,34.3h0.5c0.1,0,0.2,0,0.3,0.1c0.1,0.1,0.1,0.2,0.1,0.3v0.1c0,0,0,0.1-0.1,0.1
	c0,0-0.1,0-0.1,0.1h-0.1l0.4,0.6h-0.1l-0.4-0.6h-0.3v0.6h-0.1L1306.4,34.3L1306.4,34.3z M1306.8,33.9c-0.1,0-0.3,0-0.4,0.1
	s-0.2,0.1-0.3,0.2c-0.1,0.1-0.2,0.2-0.2,0.3c-0.1,0.1-0.1,0.2-0.1,0.4c0,0.1,0,0.3,0.1,0.4c0.1,0.1,0.1,0.2,0.2,0.3s0.2,0.2,0.3,0.2
	c0.1,0,0.2,0.1,0.4,0.1s0.3,0,0.4-0.1c0.1,0,0.2-0.1,0.3-0.2c0.1-0.1,0.2-0.2,0.2-0.3c0.1-0.1,0.1-0.2,0.1-0.4c0-0.1,0-0.3-0.1-0.4
	c-0.1-0.1-0.1-0.2-0.2-0.3s-0.2-0.2-0.3-0.2C1307,34,1306.9,33.9,1306.8,33.9 M1306.8,33.8c0.2,0,0.3,0,0.4,0.1s0.2,0.1,0.3,0.2
	s0.2,0.2,0.2,0.3c0.1,0.1,0.1,0.3,0.1,0.4c0,0.2,0,0.3-0.1,0.4c-0.1,0.1-0.1,0.2-0.2,0.3s-0.2,0.2-0.3,0.2s-0.3,0.1-0.4,0.1
	s-0.3,0-0.4-0.1s-0.2-0.1-0.3-0.2s-0.2-0.2-0.2-0.3c-0.1-0.1-0.1-0.3-0.1-0.4c0-0.2,0-0.3,0.1-0.4c0.1-0.1,0.1-0.2,0.2-0.3
	s0.2-0.2,0.3-0.2C1306.5,33.9,1306.6,33.8,1306.8,33.8"/>
</svg>
