<?xml version="1.0" encoding="utf-8"?>
<!-- Generator: Adobe Illustrator 24.1.0, SVG Export Plug-In . SVG Version: 6.00 Build 0)  -->
<svg version="1.1" id="Layer_1" xmlns="http://www.w3.org/2000/svg" xmlns:xlink="http://www.w3.org/1999/xlink" x="0px" y="0px"
	 viewBox="0 0 823.67 77.97" style="enable-background:new 0 0 823.67 77.97;" xml:space="preserve">
<style type="text/css">
	.st0{fill:#EFBB50;}
	.st1{fill:#003E6A;}
</style>
<rect class="st0" width="823.67" height="77.97"/>
<path class="st1" d="M29.15,33.52h-2.14V19.19h2.14V33.52z M33.76,24.79c0.22-0.23,0.45-0.45,0.69-0.64
	c0.24-0.19,0.49-0.36,0.76-0.49c0.27-0.14,0.56-0.24,0.87-0.32c0.31-0.08,0.64-0.11,0.99-0.11c0.56,0,1.05,0.09,1.47,0.28
	c0.42,0.19,0.78,0.45,1.06,0.78c0.29,0.34,0.5,0.74,0.65,1.21c0.15,0.47,0.22,0.99,0.22,1.57v6.46h-1.96v-6.46
	c0-0.73-0.17-1.29-0.5-1.69c-0.33-0.4-0.84-0.6-1.53-0.6c-0.5,0-0.97,0.12-1.4,0.35c-0.44,0.24-0.84,0.56-1.21,0.96v7.44h-1.95
	V23.38h1.17c0.27,0,0.44,0.13,0.51,0.39L33.76,24.79z M49.57,24.9c0.21-0.25,0.44-0.48,0.68-0.69c0.24-0.21,0.5-0.39,0.78-0.54
	s0.58-0.27,0.89-0.35c0.32-0.08,0.65-0.12,1.01-0.12c0.58,0,1.1,0.11,1.57,0.34c0.47,0.23,0.87,0.56,1.2,1
	c0.33,0.44,0.59,0.98,0.77,1.63c0.18,0.65,0.27,1.39,0.27,2.23c0,0.75-0.1,1.45-0.3,2.09c-0.2,0.64-0.49,1.2-0.87,1.67
	c-0.38,0.47-0.84,0.84-1.38,1.11c-0.54,0.27-1.15,0.4-1.83,0.4c-0.61,0-1.12-0.1-1.56-0.3c-0.43-0.2-0.82-0.48-1.16-0.84v4.4h-1.95
	V23.38h1.17c0.27,0,0.44,0.13,0.51,0.39L49.57,24.9z M49.67,31.03c0.32,0.42,0.66,0.71,1.03,0.88c0.37,0.17,0.78,0.25,1.24,0.25
	c0.89,0,1.58-0.32,2.07-0.96c0.49-0.64,0.73-1.58,0.73-2.81c0-0.65-0.05-1.2-0.16-1.65c-0.11-0.46-0.27-0.83-0.48-1.12
	c-0.21-0.29-0.47-0.5-0.77-0.64c-0.31-0.14-0.65-0.2-1.04-0.2c-0.57,0-1.06,0.13-1.47,0.38c-0.42,0.25-0.8,0.61-1.15,1.08V31.03z
	 M61.16,20.25c0,0.18-0.04,0.35-0.11,0.51c-0.07,0.16-0.17,0.31-0.29,0.43c-0.12,0.12-0.27,0.22-0.43,0.29
	c-0.17,0.07-0.34,0.1-0.52,0.1s-0.35-0.03-0.51-0.1c-0.16-0.07-0.3-0.17-0.42-0.29c-0.12-0.12-0.22-0.27-0.29-0.43
	c-0.07-0.16-0.1-0.33-0.1-0.51c0-0.19,0.03-0.36,0.1-0.52c0.07-0.16,0.17-0.31,0.29-0.43c0.12-0.12,0.26-0.22,0.42-0.29
	c0.16-0.07,0.33-0.1,0.51-0.1s0.35,0.03,0.52,0.1c0.17,0.07,0.31,0.17,0.43,0.29c0.12,0.12,0.22,0.27,0.29,0.43
	C61.13,19.89,61.16,20.06,61.16,20.25z M60.79,23.38v10.14h-1.95V23.38H60.79z M72.21,23.38L68.1,33.52h-1.76l-4.11-10.14h1.61
	c0.15,0,0.28,0.04,0.38,0.11c0.1,0.07,0.17,0.17,0.2,0.28L66.84,30c0.09,0.26,0.16,0.52,0.22,0.77c0.06,0.26,0.12,0.51,0.17,0.76
	c0.05-0.25,0.11-0.51,0.18-0.76c0.07-0.25,0.15-0.51,0.24-0.78l2.46-6.23c0.04-0.11,0.11-0.21,0.21-0.28
	c0.1-0.07,0.22-0.11,0.36-0.11H72.21z M77.6,23.22c0.75,0,1.42,0.12,2.02,0.36c0.6,0.24,1.11,0.59,1.54,1.05
	c0.42,0.46,0.75,1,0.97,1.65c0.23,0.64,0.34,1.36,0.34,2.16c0,0.8-0.11,1.52-0.34,2.17c-0.23,0.65-0.55,1.19-0.97,1.65
	c-0.42,0.45-0.93,0.8-1.54,1.04c-0.6,0.24-1.28,0.36-2.02,0.36c-0.75,0-1.43-0.12-2.03-0.36c-0.6-0.24-1.12-0.59-1.54-1.04
	c-0.43-0.45-0.75-1-0.98-1.65c-0.23-0.65-0.34-1.37-0.34-2.17c0-0.8,0.11-1.52,0.34-2.16c0.23-0.64,0.56-1.19,0.98-1.65
	c0.43-0.46,0.94-0.81,1.54-1.05C76.17,23.34,76.85,23.22,77.6,23.22z M77.6,32.15c0.96,0,1.67-0.32,2.15-0.97
	c0.47-0.65,0.71-1.55,0.71-2.72c0-1.17-0.24-2.08-0.71-2.73c-0.47-0.65-1.19-0.97-2.15-0.97c-0.97,0-1.7,0.32-2.17,0.97
	c-0.48,0.65-0.71,1.56-0.71,2.73c0,1.17,0.24,2.08,0.71,2.72C75.91,31.82,76.63,32.15,77.6,32.15z M87.42,33.68
	c-0.82,0-1.45-0.23-1.89-0.69c-0.44-0.46-0.66-1.11-0.66-1.97v-6.07h-1.18c-0.11,0-0.21-0.03-0.28-0.1
	c-0.08-0.07-0.11-0.17-0.11-0.31v-0.79l1.65-0.23l0.44-3.02c0.03-0.11,0.08-0.2,0.15-0.26c0.08-0.06,0.17-0.09,0.29-0.09h0.99v3.4
	h2.87v1.42h-2.87v5.94c0,0.4,0.1,0.7,0.29,0.89c0.2,0.2,0.45,0.29,0.75,0.29c0.18,0,0.33-0.02,0.46-0.07
	c0.13-0.05,0.24-0.1,0.33-0.15c0.09-0.06,0.17-0.11,0.24-0.15c0.07-0.05,0.13-0.07,0.18-0.07c0.07,0,0.12,0.01,0.15,0.04
	c0.04,0.03,0.07,0.08,0.11,0.14l0.58,0.94c-0.32,0.29-0.7,0.52-1.14,0.68C88.35,33.6,87.9,33.68,87.42,33.68z M91.02,24.8
	c0.57-0.54,1.18-0.94,1.84-1.21c0.66-0.27,1.39-0.4,2.18-0.4c0.58,0,1.09,0.09,1.54,0.28c0.45,0.19,0.82,0.45,1.13,0.79
	c0.31,0.34,0.54,0.75,0.69,1.22c0.16,0.47,0.23,0.99,0.23,1.57v6.47h-0.87c-0.19,0-0.34-0.03-0.44-0.09
	c-0.1-0.06-0.18-0.18-0.24-0.35l-0.21-0.89c-0.26,0.24-0.52,0.45-0.77,0.63c-0.25,0.18-0.52,0.34-0.79,0.47
	c-0.28,0.13-0.57,0.23-0.88,0.29c-0.31,0.07-0.66,0.1-1.04,0.1c-0.4,0-0.77-0.05-1.12-0.16c-0.35-0.11-0.65-0.28-0.91-0.5
	c-0.26-0.23-0.46-0.51-0.61-0.85c-0.15-0.34-0.22-0.74-0.22-1.19c0-0.4,0.11-0.78,0.32-1.15c0.22-0.37,0.57-0.7,1.06-0.99
	c0.49-0.29,1.13-0.53,1.92-0.72c0.79-0.19,1.76-0.29,2.91-0.32v-0.74c0-0.77-0.16-1.34-0.49-1.72c-0.33-0.38-0.81-0.57-1.44-0.57
	c-0.43,0-0.78,0.05-1.07,0.16c-0.29,0.11-0.54,0.22-0.75,0.35c-0.21,0.13-0.39,0.25-0.55,0.35c-0.16,0.11-0.32,0.16-0.48,0.16
	c-0.13,0-0.25-0.04-0.34-0.11c-0.1-0.07-0.17-0.16-0.23-0.26L91.02,24.8z M96.73,29.02c-0.79,0.03-1.46,0.09-2.02,0.18
	c-0.55,0.1-1,0.22-1.35,0.38c-0.35,0.16-0.6,0.35-0.75,0.56c-0.15,0.22-0.23,0.46-0.23,0.72c0,0.25,0.04,0.47,0.12,0.65
	c0.08,0.18,0.2,0.33,0.34,0.45c0.14,0.12,0.31,0.2,0.5,0.25c0.19,0.05,0.4,0.08,0.63,0.08c0.3,0,0.57-0.03,0.82-0.09
	c0.25-0.06,0.48-0.14,0.7-0.25s0.43-0.24,0.63-0.4c0.2-0.16,0.4-0.34,0.59-0.55V29.02z M103.03,18.79v14.73h-1.96V18.79H103.03z
	 M116.42,25.13c-0.05,0.09-0.11,0.15-0.17,0.18c-0.06,0.04-0.14,0.05-0.23,0.05c-0.11,0-0.22-0.04-0.35-0.11
	c-0.13-0.07-0.29-0.15-0.47-0.24c-0.18-0.09-0.4-0.17-0.64-0.24c-0.25-0.07-0.54-0.11-0.88-0.11c-0.28,0-0.53,0.03-0.76,0.1
	c-0.23,0.07-0.42,0.17-0.58,0.29c-0.16,0.12-0.28,0.27-0.37,0.44c-0.09,0.17-0.13,0.35-0.13,0.54c0,0.25,0.07,0.46,0.22,0.63
	c0.15,0.17,0.35,0.31,0.59,0.43c0.24,0.12,0.52,0.23,0.83,0.32c0.31,0.1,0.63,0.2,0.95,0.3c0.32,0.11,0.64,0.23,0.95,0.36
	c0.31,0.14,0.59,0.31,0.83,0.51c0.24,0.2,0.44,0.45,0.59,0.73c0.15,0.29,0.22,0.64,0.22,1.05c0,0.47-0.08,0.91-0.25,1.31
	c-0.17,0.4-0.42,0.75-0.75,1.04c-0.33,0.29-0.74,0.52-1.22,0.69c-0.49,0.17-1.04,0.25-1.67,0.25c-0.7,0-1.34-0.12-1.94-0.35
	c-0.59-0.23-1.09-0.53-1.49-0.89l0.46-0.75c0.05-0.09,0.12-0.16,0.2-0.21c0.08-0.05,0.19-0.07,0.32-0.07c0.13,0,0.26,0.05,0.39,0.14
	c0.13,0.09,0.29,0.19,0.48,0.3c0.19,0.11,0.41,0.21,0.68,0.3c0.27,0.09,0.6,0.13,1,0.13c0.33,0,0.62-0.04,0.87-0.12
	c0.25-0.08,0.45-0.2,0.61-0.34c0.16-0.14,0.28-0.31,0.36-0.49c0.08-0.19,0.12-0.38,0.12-0.59c0-0.27-0.07-0.49-0.22-0.66
	c-0.15-0.18-0.35-0.33-0.59-0.45c-0.24-0.13-0.52-0.24-0.83-0.33c-0.31-0.09-0.63-0.19-0.96-0.3c-0.33-0.11-0.65-0.23-0.96-0.37
	c-0.31-0.14-0.59-0.32-0.83-0.53c-0.24-0.21-0.44-0.47-0.59-0.78c-0.15-0.31-0.22-0.68-0.22-1.12c0-0.39,0.08-0.77,0.24-1.13
	c0.16-0.36,0.4-0.68,0.71-0.95c0.31-0.27,0.69-0.49,1.15-0.65c0.46-0.16,0.98-0.24,1.56-0.24c0.67,0,1.28,0.11,1.82,0.32
	c0.54,0.21,1.01,0.51,1.39,0.88L116.42,25.13z M122.08,33.68c-0.82,0-1.45-0.23-1.89-0.69c-0.44-0.46-0.66-1.11-0.66-1.97v-6.07
	h-1.18c-0.11,0-0.21-0.03-0.28-0.1c-0.08-0.07-0.11-0.17-0.11-0.31v-0.79l1.65-0.23l0.44-3.02c0.03-0.11,0.08-0.2,0.15-0.26
	c0.08-0.06,0.17-0.09,0.29-0.09h0.99v3.4h2.87v1.42h-2.87v5.94c0,0.4,0.1,0.7,0.29,0.89c0.2,0.2,0.45,0.29,0.75,0.29
	c0.18,0,0.33-0.02,0.46-0.07c0.13-0.05,0.24-0.1,0.33-0.15c0.09-0.06,0.17-0.11,0.24-0.15c0.07-0.05,0.13-0.07,0.18-0.07
	c0.07,0,0.12,0.01,0.15,0.04c0.04,0.03,0.07,0.08,0.11,0.14l0.58,0.94c-0.32,0.29-0.7,0.52-1.14,0.68
	C123.01,33.6,122.55,33.68,122.08,33.68z M134.36,23.38v10.14h-1.17c-0.27,0-0.44-0.13-0.52-0.39l-0.14-1.02
	c-0.22,0.23-0.45,0.45-0.69,0.64c-0.24,0.19-0.5,0.36-0.77,0.49c-0.27,0.14-0.56,0.24-0.87,0.32c-0.31,0.08-0.64,0.11-0.99,0.11
	c-0.56,0-1.05-0.09-1.47-0.28c-0.42-0.19-0.78-0.45-1.06-0.78c-0.29-0.34-0.5-0.74-0.65-1.21c-0.15-0.47-0.22-0.99-0.22-1.57v-6.46
	h1.96v6.46c0,0.73,0.17,1.29,0.5,1.69c0.33,0.4,0.84,0.6,1.53,0.6c0.5,0,0.96-0.12,1.4-0.35c0.43-0.24,0.84-0.56,1.22-0.97v-7.43
	H134.36z M145.38,18.79v14.73h-1.18c-0.27,0-0.44-0.13-0.51-0.39l-0.17-1.17c-0.43,0.51-0.92,0.92-1.47,1.23
	c-0.55,0.31-1.18,0.46-1.9,0.46c-0.58,0-1.1-0.11-1.57-0.34c-0.47-0.23-0.87-0.56-1.2-0.99c-0.33-0.44-0.59-0.98-0.77-1.62
	c-0.18-0.65-0.27-1.39-0.27-2.23c0-0.75,0.1-1.45,0.3-2.1c0.2-0.65,0.49-1.2,0.87-1.68c0.38-0.47,0.84-0.84,1.38-1.11
	s1.15-0.4,1.83-0.4c0.61,0,1.13,0.1,1.56,0.3s0.81,0.48,1.15,0.85v-5.55H145.38z M143.43,25.84c-0.32-0.42-0.66-0.71-1.03-0.88
	c-0.37-0.17-0.78-0.25-1.24-0.25c-0.89,0-1.58,0.32-2.07,0.96c-0.49,0.64-0.73,1.58-0.73,2.81c0,0.65,0.05,1.2,0.16,1.65
	c0.11,0.46,0.27,0.83,0.48,1.12c0.21,0.29,0.47,0.5,0.77,0.64c0.31,0.14,0.65,0.2,1.04,0.2c0.57,0,1.05-0.13,1.47-0.38
	c0.41-0.25,0.8-0.61,1.16-1.07V25.84z M150.31,20.25c0,0.18-0.04,0.35-0.11,0.51c-0.07,0.16-0.17,0.31-0.29,0.43
	c-0.12,0.12-0.27,0.22-0.43,0.29c-0.17,0.07-0.34,0.1-0.52,0.1s-0.35-0.03-0.51-0.1c-0.16-0.07-0.3-0.17-0.42-0.29
	c-0.12-0.12-0.22-0.27-0.29-0.43c-0.07-0.16-0.1-0.33-0.1-0.51c0-0.19,0.03-0.36,0.1-0.52c0.07-0.16,0.17-0.31,0.29-0.43
	c0.12-0.12,0.26-0.22,0.42-0.29c0.16-0.07,0.33-0.1,0.51-0.1s0.35,0.03,0.52,0.1c0.17,0.07,0.31,0.17,0.43,0.29
	c0.12,0.12,0.22,0.27,0.29,0.43C150.28,19.89,150.31,20.06,150.31,20.25z M149.94,23.38v10.14H148V23.38H149.94z M160.88,32.08
	c-0.24,0.28-0.52,0.52-0.83,0.72c-0.31,0.2-0.65,0.37-1,0.49c-0.35,0.13-0.72,0.22-1.09,0.28c-0.38,0.06-0.75,0.09-1.11,0.09
	c-0.7,0-1.35-0.12-1.94-0.35c-0.6-0.24-1.11-0.58-1.55-1.04c-0.44-0.46-0.78-1.02-1.02-1.7c-0.24-0.68-0.36-1.45-0.36-2.33
	c0-0.71,0.11-1.36,0.33-1.97c0.22-0.61,0.53-1.14,0.94-1.59c0.41-0.45,0.91-0.81,1.5-1.07c0.59-0.26,1.26-0.39,2-0.39
	c0.62,0,1.19,0.1,1.71,0.3c0.52,0.2,0.97,0.5,1.35,0.88c0.38,0.39,0.68,0.86,0.89,1.43c0.22,0.57,0.32,1.21,0.32,1.94
	c0,0.3-0.03,0.5-0.1,0.6c-0.07,0.1-0.19,0.15-0.37,0.15h-6.65c0.02,0.61,0.11,1.13,0.26,1.58c0.15,0.45,0.36,0.82,0.63,1.12
	c0.27,0.3,0.59,0.52,0.96,0.67c0.37,0.15,0.79,0.22,1.25,0.22c0.43,0,0.81-0.05,1.12-0.15c0.32-0.1,0.59-0.21,0.82-0.32
	c0.23-0.12,0.42-0.22,0.58-0.32c0.16-0.1,0.29-0.15,0.41-0.15c0.16,0,0.28,0.06,0.37,0.18L160.88,32.08z M159.28,27.32
	c0-0.39-0.05-0.74-0.16-1.07c-0.11-0.33-0.27-0.61-0.48-0.85c-0.21-0.24-0.47-0.43-0.78-0.56c-0.31-0.13-0.66-0.2-1.06-0.2
	c-0.82,0-1.46,0.24-1.93,0.71c-0.47,0.47-0.77,1.13-0.89,1.97H159.28z M168.9,25.13c-0.05,0.09-0.11,0.15-0.17,0.18
	c-0.06,0.04-0.14,0.05-0.23,0.05c-0.11,0-0.22-0.04-0.35-0.11c-0.13-0.07-0.29-0.15-0.47-0.24c-0.18-0.09-0.4-0.17-0.64-0.24
	c-0.25-0.07-0.54-0.11-0.88-0.11c-0.28,0-0.53,0.03-0.76,0.1c-0.23,0.07-0.42,0.17-0.58,0.29c-0.16,0.12-0.28,0.27-0.37,0.44
	c-0.09,0.17-0.13,0.35-0.13,0.54c0,0.25,0.07,0.46,0.22,0.63c0.15,0.17,0.35,0.31,0.59,0.43c0.24,0.12,0.52,0.23,0.83,0.32
	c0.31,0.1,0.63,0.2,0.95,0.3c0.32,0.11,0.64,0.23,0.95,0.36c0.31,0.14,0.59,0.31,0.83,0.51c0.24,0.2,0.44,0.45,0.59,0.73
	c0.15,0.29,0.22,0.64,0.22,1.05c0,0.47-0.08,0.91-0.25,1.31c-0.17,0.4-0.42,0.75-0.75,1.04c-0.33,0.29-0.74,0.52-1.22,0.69
	c-0.49,0.17-1.04,0.25-1.67,0.25c-0.7,0-1.34-0.12-1.94-0.35c-0.59-0.23-1.09-0.53-1.49-0.89l0.46-0.75
	c0.05-0.09,0.12-0.16,0.2-0.21c0.08-0.05,0.19-0.07,0.32-0.07c0.13,0,0.26,0.05,0.39,0.14c0.13,0.09,0.29,0.19,0.48,0.3
	c0.19,0.11,0.41,0.21,0.68,0.3c0.27,0.09,0.6,0.13,1,0.13c0.33,0,0.62-0.04,0.87-0.12c0.25-0.08,0.45-0.2,0.61-0.34
	c0.16-0.14,0.28-0.31,0.36-0.49c0.08-0.19,0.12-0.38,0.12-0.59c0-0.27-0.07-0.49-0.22-0.66c-0.15-0.18-0.35-0.33-0.59-0.45
	c-0.24-0.13-0.52-0.24-0.83-0.33c-0.31-0.09-0.63-0.19-0.96-0.3c-0.33-0.11-0.65-0.23-0.96-0.37c-0.31-0.14-0.59-0.32-0.83-0.53
	c-0.24-0.21-0.44-0.47-0.59-0.78c-0.15-0.31-0.22-0.68-0.22-1.12c0-0.39,0.08-0.77,0.24-1.13c0.16-0.36,0.4-0.68,0.71-0.95
	c0.31-0.27,0.69-0.49,1.15-0.65c0.46-0.16,0.98-0.24,1.56-0.24c0.67,0,1.28,0.11,1.82,0.32c0.54,0.21,1.01,0.51,1.39,0.88
	L168.9,25.13z M172.26,33.52c-0.18,0-0.34-0.03-0.49-0.1c-0.15-0.07-0.28-0.16-0.39-0.27c-0.11-0.12-0.19-0.25-0.25-0.41
	c-0.06-0.16-0.09-0.33-0.09-0.52c0-0.16,0.03-0.31,0.09-0.45c0.06-0.14,0.14-0.27,0.25-0.37c0.11-0.11,0.24-0.19,0.39-0.25
	c0.15-0.06,0.32-0.09,0.51-0.09c0.21,0,0.4,0.04,0.56,0.11c0.16,0.08,0.3,0.18,0.41,0.32c0.11,0.14,0.19,0.29,0.24,0.47
	c0.05,0.18,0.08,0.37,0.08,0.58c0,0.3-0.04,0.62-0.13,0.95c-0.09,0.33-0.21,0.66-0.38,0.99c-0.17,0.33-0.37,0.64-0.62,0.95
	c-0.25,0.31-0.53,0.59-0.84,0.85l-0.33-0.31c-0.1-0.09-0.15-0.2-0.15-0.31c0-0.05,0.01-0.09,0.04-0.14c0.03-0.05,0.07-0.1,0.11-0.14
	c0.07-0.07,0.15-0.17,0.26-0.29c0.11-0.12,0.21-0.26,0.31-0.41c0.1-0.16,0.2-0.33,0.29-0.52c0.09-0.19,0.15-0.39,0.19-0.6H172.26z
	 M183.76,33.68c-0.82,0-1.45-0.23-1.89-0.69c-0.44-0.46-0.66-1.11-0.66-1.97v-6.07h-1.18c-0.11,0-0.21-0.03-0.28-0.1
	c-0.08-0.07-0.11-0.17-0.11-0.31v-0.79l1.65-0.23l0.44-3.02c0.03-0.11,0.08-0.2,0.15-0.26c0.08-0.06,0.17-0.09,0.29-0.09h0.99v3.4
	h2.87v1.42h-2.87v5.94c0,0.4,0.1,0.7,0.29,0.89c0.2,0.2,0.45,0.29,0.75,0.29c0.18,0,0.33-0.02,0.46-0.07
	c0.13-0.05,0.24-0.1,0.33-0.15c0.09-0.06,0.17-0.11,0.24-0.15c0.07-0.05,0.13-0.07,0.18-0.07c0.07,0,0.12,0.01,0.15,0.04
	c0.04,0.03,0.07,0.08,0.11,0.14l0.58,0.94c-0.32,0.29-0.7,0.52-1.14,0.68C184.69,33.6,184.23,33.68,183.76,33.68z M189.45,25.33
	c0.33-0.67,0.72-1.19,1.18-1.57c0.46-0.38,1.01-0.57,1.66-0.57c0.22,0,0.43,0.02,0.62,0.07c0.2,0.05,0.37,0.12,0.51,0.22l-0.13,1.47
	c-0.05,0.18-0.16,0.27-0.33,0.27c-0.09,0-0.23-0.02-0.42-0.05c-0.19-0.04-0.39-0.05-0.6-0.05c-0.31,0-0.59,0.04-0.83,0.13
	c-0.24,0.09-0.45,0.22-0.64,0.4c-0.19,0.18-0.36,0.39-0.5,0.65c-0.15,0.26-0.28,0.55-0.41,0.87v6.35h-1.95V23.38h1.12
	c0.21,0,0.36,0.04,0.43,0.11c0.08,0.08,0.13,0.21,0.16,0.4L189.45,25.33z M202.68,32.08c-0.24,0.28-0.52,0.52-0.83,0.72
	c-0.31,0.2-0.65,0.37-1,0.49c-0.35,0.13-0.72,0.22-1.09,0.28c-0.38,0.06-0.75,0.09-1.11,0.09c-0.7,0-1.35-0.12-1.94-0.35
	c-0.6-0.24-1.11-0.58-1.55-1.04c-0.44-0.46-0.78-1.02-1.02-1.7c-0.24-0.68-0.36-1.45-0.36-2.33c0-0.71,0.11-1.36,0.33-1.97
	s0.53-1.14,0.94-1.59c0.41-0.45,0.91-0.81,1.5-1.07c0.59-0.26,1.26-0.39,2-0.39c0.62,0,1.19,0.1,1.71,0.3
	c0.52,0.2,0.97,0.5,1.35,0.88c0.38,0.39,0.68,0.86,0.89,1.43c0.22,0.57,0.32,1.21,0.32,1.94c0,0.3-0.03,0.5-0.1,0.6
	c-0.07,0.1-0.19,0.15-0.37,0.15h-6.65c0.02,0.61,0.11,1.13,0.26,1.58c0.15,0.45,0.36,0.82,0.63,1.12s0.59,0.52,0.96,0.67
	c0.37,0.15,0.79,0.22,1.25,0.22c0.43,0,0.81-0.05,1.12-0.15c0.32-0.1,0.59-0.21,0.82-0.32c0.23-0.12,0.42-0.22,0.58-0.32
	c0.16-0.1,0.29-0.15,0.41-0.15c0.16,0,0.28,0.06,0.37,0.18L202.68,32.08z M201.07,27.32c0-0.39-0.05-0.74-0.16-1.07
	c-0.11-0.33-0.27-0.61-0.48-0.85c-0.21-0.24-0.47-0.43-0.78-0.56c-0.31-0.13-0.66-0.2-1.06-0.2c-0.82,0-1.46,0.24-1.93,0.71
	c-0.47,0.47-0.77,1.13-0.89,1.97H201.07z M204.45,24.8c0.57-0.54,1.18-0.94,1.84-1.21c0.66-0.27,1.39-0.4,2.18-0.4
	c0.58,0,1.09,0.09,1.54,0.28c0.45,0.19,0.82,0.45,1.13,0.79c0.31,0.34,0.54,0.75,0.69,1.22c0.16,0.47,0.23,0.99,0.23,1.57v6.47
	h-0.87c-0.19,0-0.34-0.03-0.44-0.09c-0.1-0.06-0.18-0.18-0.24-0.35l-0.21-0.89c-0.26,0.24-0.52,0.45-0.77,0.63
	c-0.25,0.18-0.52,0.34-0.79,0.47c-0.28,0.13-0.57,0.23-0.88,0.29c-0.31,0.07-0.66,0.1-1.04,0.1c-0.4,0-0.77-0.05-1.12-0.16
	c-0.35-0.11-0.65-0.28-0.91-0.5c-0.26-0.23-0.46-0.51-0.61-0.85c-0.15-0.34-0.22-0.74-0.22-1.19c0-0.4,0.11-0.78,0.32-1.15
	c0.22-0.37,0.57-0.7,1.06-0.99c0.49-0.29,1.13-0.53,1.92-0.72c0.79-0.19,1.76-0.29,2.91-0.32v-0.74c0-0.77-0.16-1.34-0.49-1.72
	c-0.33-0.38-0.81-0.57-1.44-0.57c-0.43,0-0.78,0.05-1.07,0.16c-0.29,0.11-0.54,0.22-0.75,0.35c-0.21,0.13-0.39,0.25-0.55,0.35
	c-0.16,0.11-0.32,0.16-0.48,0.16c-0.13,0-0.25-0.04-0.34-0.11c-0.1-0.07-0.17-0.16-0.23-0.26L204.45,24.8z M210.16,29.02
	c-0.79,0.03-1.46,0.09-2.02,0.18c-0.55,0.1-1,0.22-1.35,0.38c-0.35,0.16-0.6,0.35-0.75,0.56c-0.15,0.22-0.23,0.46-0.23,0.72
	c0,0.25,0.04,0.47,0.12,0.65c0.08,0.18,0.2,0.33,0.34,0.45c0.14,0.12,0.31,0.2,0.5,0.25c0.19,0.05,0.4,0.08,0.63,0.08
	c0.3,0,0.57-0.03,0.82-0.09c0.25-0.06,0.48-0.14,0.7-0.25c0.22-0.11,0.43-0.24,0.63-0.4c0.2-0.16,0.4-0.34,0.59-0.55V29.02z
	 M217.53,33.68c-0.82,0-1.45-0.23-1.89-0.69c-0.44-0.46-0.66-1.11-0.66-1.97v-6.07h-1.18c-0.11,0-0.21-0.03-0.28-0.1
	c-0.08-0.07-0.11-0.17-0.11-0.31v-0.79l1.65-0.23l0.44-3.02c0.03-0.11,0.08-0.2,0.15-0.26c0.08-0.06,0.17-0.09,0.29-0.09h0.99v3.4
	h2.87v1.42h-2.87v5.94c0,0.4,0.1,0.7,0.29,0.89c0.2,0.2,0.45,0.29,0.75,0.29c0.18,0,0.33-0.02,0.46-0.07
	c0.13-0.05,0.24-0.1,0.33-0.15c0.09-0.06,0.17-0.11,0.24-0.15c0.07-0.05,0.13-0.07,0.18-0.07c0.07,0,0.12,0.01,0.15,0.04
	c0.04,0.03,0.07,0.08,0.11,0.14l0.58,0.94c-0.32,0.29-0.7,0.52-1.14,0.68C218.46,33.6,218,33.68,217.53,33.68z M221.38,33.52V23.38
	h1.17c0.27,0,0.44,0.13,0.51,0.39l0.14,0.97c0.37-0.45,0.79-0.81,1.24-1.09c0.46-0.28,0.99-0.42,1.6-0.42
	c0.67,0,1.22,0.18,1.64,0.55c0.42,0.37,0.73,0.87,0.92,1.5c0.15-0.36,0.34-0.67,0.57-0.93c0.23-0.26,0.49-0.47,0.78-0.64
	c0.29-0.17,0.59-0.29,0.91-0.37c0.32-0.08,0.65-0.12,0.98-0.12c0.54,0,1.02,0.08,1.44,0.25c0.42,0.17,0.78,0.42,1.07,0.74
	c0.29,0.33,0.52,0.73,0.67,1.21c0.15,0.48,0.23,1.02,0.23,1.64v6.46h-1.96v-6.46c0-0.76-0.16-1.33-0.49-1.72
	c-0.33-0.39-0.81-0.58-1.44-0.58c-0.28,0-0.55,0.05-0.8,0.14c-0.25,0.1-0.47,0.24-0.66,0.43c-0.19,0.19-0.34,0.43-0.45,0.72
	c-0.11,0.29-0.16,0.62-0.16,1v6.46h-1.96v-6.46c0-0.79-0.16-1.36-0.47-1.74c-0.31-0.37-0.77-0.56-1.38-0.56
	c-0.42,0-0.81,0.11-1.17,0.33c-0.36,0.22-0.69,0.52-0.99,0.9v7.53H221.38z M245.99,32.08c-0.24,0.28-0.52,0.52-0.83,0.72
	c-0.31,0.2-0.65,0.37-1,0.49c-0.35,0.13-0.72,0.22-1.09,0.28c-0.38,0.06-0.75,0.09-1.11,0.09c-0.7,0-1.35-0.12-1.94-0.35
	c-0.6-0.24-1.11-0.58-1.55-1.04c-0.44-0.46-0.78-1.02-1.02-1.7c-0.24-0.68-0.36-1.45-0.36-2.33c0-0.71,0.11-1.36,0.33-1.97
	s0.53-1.14,0.94-1.59c0.41-0.45,0.91-0.81,1.5-1.07c0.59-0.26,1.26-0.39,2-0.39c0.62,0,1.19,0.1,1.71,0.3
	c0.52,0.2,0.97,0.5,1.35,0.88c0.38,0.39,0.68,0.86,0.89,1.43c0.22,0.57,0.32,1.21,0.32,1.94c0,0.3-0.03,0.5-0.1,0.6
	c-0.07,0.1-0.19,0.15-0.37,0.15h-6.65c0.02,0.61,0.11,1.13,0.26,1.58c0.15,0.45,0.36,0.82,0.63,1.12c0.27,0.3,0.59,0.52,0.96,0.67
	c0.37,0.15,0.79,0.22,1.25,0.22c0.43,0,0.81-0.05,1.12-0.15c0.32-0.1,0.59-0.21,0.82-0.32c0.23-0.12,0.42-0.22,0.58-0.32
	c0.16-0.1,0.29-0.15,0.41-0.15c0.16,0,0.28,0.06,0.37,0.18L245.99,32.08z M244.39,27.32c0-0.39-0.05-0.74-0.16-1.07
	c-0.11-0.33-0.27-0.61-0.48-0.85c-0.21-0.24-0.47-0.43-0.78-0.56c-0.31-0.13-0.66-0.2-1.06-0.2c-0.82,0-1.46,0.24-1.93,0.71
	c-0.47,0.47-0.77,1.13-0.89,1.97H244.39z M249.86,24.79c0.22-0.23,0.45-0.45,0.69-0.64c0.24-0.19,0.49-0.36,0.76-0.49
	c0.27-0.14,0.56-0.24,0.87-0.32c0.31-0.08,0.64-0.11,0.99-0.11c0.56,0,1.05,0.09,1.47,0.28c0.42,0.19,0.78,0.45,1.06,0.78
	c0.29,0.34,0.5,0.74,0.65,1.21c0.15,0.47,0.22,0.99,0.22,1.57v6.46h-1.96v-6.46c0-0.73-0.17-1.29-0.5-1.69
	c-0.33-0.4-0.84-0.6-1.53-0.6c-0.5,0-0.97,0.12-1.4,0.35c-0.44,0.24-0.84,0.56-1.21,0.96v7.44h-1.95V23.38h1.17
	c0.27,0,0.44,0.13,0.51,0.39L249.86,24.79z M262.03,33.68c-0.82,0-1.45-0.23-1.89-0.69c-0.44-0.46-0.66-1.11-0.66-1.97v-6.07h-1.18
	c-0.11,0-0.21-0.03-0.28-0.1c-0.08-0.07-0.11-0.17-0.11-0.31v-0.79l1.65-0.23l0.44-3.02c0.03-0.11,0.08-0.2,0.15-0.26
	c0.08-0.06,0.17-0.09,0.29-0.09h0.99v3.4h2.87v1.42h-2.87v5.94c0,0.4,0.1,0.7,0.29,0.89c0.2,0.2,0.45,0.29,0.75,0.29
	c0.18,0,0.33-0.02,0.46-0.07c0.13-0.05,0.24-0.1,0.33-0.15c0.09-0.06,0.17-0.11,0.24-0.15c0.07-0.05,0.13-0.07,0.18-0.07
	c0.07,0,0.12,0.01,0.15,0.04c0.04,0.03,0.07,0.08,0.11,0.14l0.58,0.94c-0.32,0.29-0.7,0.52-1.14,0.68
	C262.96,33.6,262.51,33.68,262.03,33.68z M284.42,23.38l-3.26,10.14h-1.56c-0.19,0-0.31-0.12-0.38-0.37l-2.14-6.61
	c-0.05-0.17-0.1-0.33-0.14-0.49c-0.04-0.16-0.08-0.33-0.11-0.49c-0.06,0.35-0.14,0.68-0.25,1.01l-2.17,6.59
	c-0.07,0.25-0.21,0.37-0.43,0.37h-1.48l-3.27-10.14h1.54c0.15,0,0.28,0.04,0.38,0.11c0.1,0.07,0.17,0.17,0.2,0.28l1.83,6.23
	c0.06,0.25,0.11,0.5,0.16,0.74c0.05,0.24,0.09,0.48,0.13,0.72c0.06-0.24,0.12-0.48,0.19-0.72c0.07-0.24,0.14-0.49,0.21-0.74
	l2.03-6.27c0.03-0.11,0.1-0.2,0.19-0.27c0.09-0.07,0.21-0.1,0.34-0.1h0.85c0.15,0,0.27,0.03,0.36,0.1c0.1,0.07,0.16,0.16,0.19,0.27
	l1.98,6.27c0.07,0.25,0.14,0.5,0.21,0.74c0.07,0.24,0.13,0.49,0.18,0.73c0.04-0.24,0.09-0.48,0.14-0.72
	c0.05-0.24,0.11-0.49,0.18-0.75l1.86-6.23c0.03-0.11,0.1-0.21,0.2-0.28c0.1-0.07,0.22-0.11,0.35-0.11H284.42z M288.27,20.25
	c0,0.18-0.04,0.35-0.11,0.51c-0.07,0.16-0.17,0.31-0.29,0.43c-0.12,0.12-0.27,0.22-0.43,0.29c-0.17,0.07-0.34,0.1-0.52,0.1
	c-0.18,0-0.35-0.03-0.51-0.1c-0.16-0.07-0.3-0.17-0.42-0.29c-0.12-0.12-0.22-0.27-0.29-0.43c-0.07-0.16-0.1-0.33-0.1-0.51
	c0-0.19,0.03-0.36,0.1-0.52c0.07-0.16,0.17-0.31,0.29-0.43c0.12-0.12,0.26-0.22,0.42-0.29c0.16-0.07,0.33-0.1,0.51-0.1
	c0.18,0,0.35,0.03,0.52,0.1c0.17,0.07,0.31,0.17,0.43,0.29c0.12,0.12,0.22,0.27,0.29,0.43C288.24,19.89,288.27,20.06,288.27,20.25z
	 M287.91,23.38v10.14h-1.95V23.38H287.91z M293.69,33.68c-0.82,0-1.45-0.23-1.89-0.69c-0.44-0.46-0.66-1.11-0.66-1.97v-6.07h-1.18
	c-0.11,0-0.21-0.03-0.28-0.1c-0.08-0.07-0.11-0.17-0.11-0.31v-0.79l1.65-0.23l0.44-3.02c0.03-0.11,0.08-0.2,0.15-0.26
	c0.08-0.06,0.17-0.09,0.29-0.09h0.99v3.4h2.87v1.42h-2.87v5.94c0,0.4,0.1,0.7,0.29,0.89c0.2,0.2,0.45,0.29,0.75,0.29
	c0.18,0,0.33-0.02,0.46-0.07c0.13-0.05,0.24-0.1,0.33-0.15c0.09-0.06,0.17-0.11,0.24-0.15c0.07-0.05,0.13-0.07,0.18-0.07
	c0.07,0,0.12,0.01,0.15,0.04c0.04,0.03,0.07,0.08,0.11,0.14l0.58,0.94c-0.32,0.29-0.7,0.52-1.14,0.68
	C294.62,33.6,294.17,33.68,293.69,33.68z M299.49,24.67c0.43-0.43,0.9-0.78,1.41-1.05c0.52-0.27,1.11-0.4,1.78-0.4
	c0.56,0,1.05,0.09,1.47,0.28c0.42,0.19,0.78,0.45,1.06,0.78c0.29,0.34,0.5,0.74,0.65,1.21c0.15,0.47,0.22,0.99,0.22,1.57v6.46h-1.96
	v-6.46c0-0.73-0.17-1.29-0.5-1.69c-0.33-0.4-0.84-0.6-1.53-0.6c-0.5,0-0.97,0.12-1.4,0.35c-0.44,0.24-0.84,0.56-1.21,0.96v7.44
	h-1.95V18.79h1.95V24.67z M321.15,21.53c-0.07,0.11-0.14,0.2-0.21,0.25c-0.07,0.05-0.17,0.08-0.28,0.08c-0.12,0-0.26-0.05-0.41-0.16
	c-0.15-0.11-0.34-0.23-0.57-0.37c-0.23-0.14-0.5-0.26-0.82-0.37c-0.32-0.11-0.7-0.16-1.15-0.16c-0.42,0-0.79,0.05-1.1,0.16
	c-0.32,0.11-0.58,0.26-0.79,0.45c-0.21,0.19-0.37,0.41-0.48,0.67c-0.11,0.26-0.16,0.53-0.16,0.83c0,0.39,0.1,0.71,0.29,0.96
	c0.2,0.25,0.45,0.47,0.77,0.65c0.32,0.18,0.68,0.34,1.09,0.47c0.41,0.13,0.82,0.27,1.25,0.41c0.43,0.14,0.84,0.31,1.25,0.49
	c0.41,0.19,0.77,0.42,1.09,0.7c0.32,0.28,0.58,0.63,0.77,1.04c0.2,0.41,0.29,0.91,0.29,1.5c0,0.63-0.11,1.22-0.32,1.78
	c-0.22,0.55-0.53,1.03-0.94,1.45c-0.41,0.41-0.92,0.74-1.52,0.97c-0.6,0.24-1.29,0.35-2.05,0.35c-0.46,0-0.9-0.04-1.34-0.13
	c-0.43-0.09-0.84-0.22-1.23-0.38c-0.39-0.16-0.75-0.36-1.08-0.59c-0.34-0.23-0.64-0.49-0.9-0.77l0.61-1.02
	c0.06-0.08,0.13-0.15,0.21-0.2c0.08-0.05,0.18-0.08,0.28-0.08c0.14,0,0.3,0.07,0.48,0.22c0.18,0.15,0.41,0.31,0.68,0.48
	c0.27,0.18,0.59,0.34,0.97,0.48c0.38,0.15,0.83,0.22,1.37,0.22c0.44,0,0.83-0.06,1.18-0.17c0.35-0.12,0.64-0.28,0.87-0.5
	c0.24-0.22,0.42-0.48,0.54-0.78c0.13-0.31,0.19-0.65,0.19-1.02c0-0.42-0.1-0.76-0.29-1.03c-0.19-0.27-0.45-0.49-0.77-0.67
	c-0.32-0.18-0.68-0.33-1.09-0.46c-0.41-0.13-0.82-0.26-1.25-0.39c-0.43-0.14-0.84-0.29-1.25-0.47c-0.41-0.18-0.77-0.41-1.09-0.7
	c-0.32-0.29-0.58-0.65-0.77-1.09c-0.19-0.44-0.29-0.97-0.29-1.61c0-0.51,0.1-1.01,0.3-1.49c0.2-0.48,0.49-0.9,0.87-1.27
	c0.38-0.37,0.85-0.67,1.41-0.89c0.56-0.22,1.2-0.33,1.92-0.33c0.81,0,1.55,0.13,2.22,0.38c0.68,0.26,1.26,0.62,1.76,1.1
	L321.15,21.53z M328.27,23.22c0.75,0,1.42,0.12,2.02,0.36c0.6,0.24,1.11,0.59,1.54,1.05c0.42,0.46,0.75,1,0.97,1.65
	c0.23,0.64,0.34,1.36,0.34,2.16c0,0.8-0.11,1.52-0.34,2.17c-0.23,0.65-0.55,1.19-0.97,1.65c-0.42,0.45-0.93,0.8-1.54,1.04
	c-0.6,0.24-1.28,0.36-2.02,0.36c-0.75,0-1.43-0.12-2.03-0.36c-0.6-0.24-1.12-0.59-1.54-1.04c-0.43-0.45-0.75-1-0.98-1.65
	c-0.23-0.65-0.34-1.37-0.34-2.17c0-0.8,0.11-1.52,0.34-2.16c0.23-0.64,0.56-1.19,0.98-1.65c0.43-0.46,0.94-0.81,1.54-1.05
	C326.84,23.34,327.52,23.22,328.27,23.22z M328.27,32.15c0.96,0,1.67-0.32,2.15-0.97c0.47-0.65,0.71-1.55,0.71-2.72
	c0-1.17-0.24-2.08-0.71-2.73c-0.47-0.65-1.19-0.97-2.15-0.97c-0.97,0-1.7,0.32-2.17,0.97c-0.48,0.65-0.71,1.56-0.71,2.73
	c0,1.17,0.24,2.08,0.71,2.72C326.57,31.82,327.3,32.15,328.27,32.15z M337.1,18.79v14.73h-1.96V18.79H337.1z M344,23.22
	c0.75,0,1.42,0.12,2.02,0.36c0.6,0.24,1.11,0.59,1.54,1.05c0.42,0.46,0.75,1,0.97,1.65c0.23,0.64,0.34,1.36,0.34,2.16
	c0,0.8-0.11,1.52-0.34,2.17c-0.23,0.65-0.55,1.19-0.97,1.65c-0.42,0.45-0.93,0.8-1.54,1.04c-0.6,0.24-1.28,0.36-2.02,0.36
	c-0.75,0-1.43-0.12-2.03-0.36c-0.6-0.24-1.12-0.59-1.54-1.04c-0.43-0.45-0.75-1-0.98-1.65c-0.23-0.65-0.34-1.37-0.34-2.17
	c0-0.8,0.11-1.52,0.34-2.16c0.23-0.64,0.56-1.19,0.98-1.65c0.43-0.46,0.94-0.81,1.54-1.05C342.57,23.34,343.25,23.22,344,23.22z
	 M344,32.15c0.96,0,1.67-0.32,2.15-0.97c0.47-0.65,0.71-1.55,0.71-2.72c0-1.17-0.24-2.08-0.71-2.73c-0.47-0.65-1.19-0.97-2.15-0.97
	c-0.97,0-1.7,0.32-2.17,0.97c-0.48,0.65-0.71,1.56-0.71,2.73c0,1.17,0.24,2.08,0.71,2.72C342.3,31.82,343.03,32.15,344,32.15z
	 M356.82,25.13c-0.05,0.09-0.11,0.15-0.17,0.18c-0.06,0.04-0.14,0.05-0.23,0.05c-0.11,0-0.22-0.04-0.35-0.11
	c-0.13-0.07-0.29-0.15-0.47-0.24c-0.18-0.09-0.4-0.17-0.64-0.24c-0.25-0.07-0.54-0.11-0.88-0.11c-0.28,0-0.53,0.03-0.76,0.1
	c-0.23,0.07-0.42,0.17-0.58,0.29c-0.16,0.12-0.28,0.27-0.37,0.44c-0.09,0.17-0.13,0.35-0.13,0.54c0,0.25,0.07,0.46,0.22,0.63
	c0.15,0.17,0.35,0.31,0.59,0.43c0.24,0.12,0.52,0.23,0.83,0.32c0.31,0.1,0.63,0.2,0.95,0.3c0.32,0.11,0.64,0.23,0.95,0.36
	c0.31,0.14,0.59,0.31,0.83,0.51c0.24,0.2,0.44,0.45,0.59,0.73c0.15,0.29,0.22,0.64,0.22,1.05c0,0.47-0.08,0.91-0.25,1.31
	c-0.17,0.4-0.42,0.75-0.75,1.04c-0.33,0.29-0.74,0.52-1.22,0.69c-0.49,0.17-1.04,0.25-1.67,0.25c-0.7,0-1.34-0.12-1.94-0.35
	c-0.59-0.23-1.09-0.53-1.49-0.89l0.46-0.75c0.05-0.09,0.12-0.16,0.2-0.21c0.08-0.05,0.19-0.07,0.32-0.07c0.13,0,0.26,0.05,0.39,0.14
	c0.13,0.09,0.29,0.19,0.48,0.3c0.19,0.11,0.41,0.21,0.68,0.3c0.27,0.09,0.6,0.13,1,0.13c0.33,0,0.62-0.04,0.87-0.12
	c0.25-0.08,0.45-0.2,0.61-0.34c0.16-0.14,0.28-0.31,0.36-0.49c0.08-0.19,0.12-0.38,0.12-0.59c0-0.27-0.07-0.49-0.22-0.66
	c-0.15-0.18-0.35-0.33-0.59-0.45c-0.24-0.13-0.52-0.24-0.83-0.33c-0.31-0.09-0.63-0.19-0.96-0.3c-0.33-0.11-0.65-0.23-0.96-0.37
	c-0.31-0.14-0.59-0.32-0.83-0.53c-0.24-0.21-0.44-0.47-0.59-0.78c-0.15-0.31-0.22-0.68-0.22-1.12c0-0.39,0.08-0.77,0.24-1.13
	c0.16-0.36,0.4-0.68,0.71-0.95c0.31-0.27,0.69-0.49,1.15-0.65c0.46-0.16,0.98-0.24,1.56-0.24c0.67,0,1.28,0.11,1.82,0.32
	c0.54,0.21,1.01,0.51,1.39,0.88L356.82,25.13z M367.63,32.08c-0.24,0.28-0.52,0.52-0.83,0.72c-0.31,0.2-0.65,0.37-1,0.49
	c-0.35,0.13-0.72,0.22-1.09,0.28c-0.38,0.06-0.75,0.09-1.11,0.09c-0.7,0-1.35-0.12-1.94-0.35c-0.6-0.24-1.11-0.58-1.55-1.04
	c-0.44-0.46-0.78-1.02-1.02-1.7c-0.24-0.68-0.36-1.45-0.36-2.33c0-0.71,0.11-1.36,0.33-1.97s0.53-1.14,0.94-1.59
	c0.41-0.45,0.91-0.81,1.5-1.07c0.59-0.26,1.26-0.39,2-0.39c0.62,0,1.19,0.1,1.71,0.3c0.52,0.2,0.97,0.5,1.35,0.88
	c0.38,0.39,0.68,0.86,0.89,1.43c0.22,0.57,0.32,1.21,0.32,1.94c0,0.3-0.03,0.5-0.1,0.6c-0.07,0.1-0.19,0.15-0.37,0.15h-6.65
	c0.02,0.61,0.11,1.13,0.26,1.58c0.15,0.45,0.36,0.82,0.63,1.12c0.27,0.3,0.59,0.52,0.96,0.67c0.37,0.15,0.79,0.22,1.25,0.22
	c0.43,0,0.81-0.05,1.12-0.15c0.32-0.1,0.59-0.21,0.82-0.32c0.23-0.12,0.42-0.22,0.58-0.32c0.16-0.1,0.29-0.15,0.41-0.15
	c0.16,0,0.28,0.06,0.37,0.18L367.63,32.08z M366.02,27.32c0-0.39-0.05-0.74-0.16-1.07c-0.11-0.33-0.27-0.61-0.48-0.85
	c-0.21-0.24-0.47-0.43-0.78-0.56c-0.31-0.13-0.66-0.2-1.06-0.2c-0.82,0-1.46,0.24-1.93,0.71c-0.47,0.47-0.77,1.13-0.89,1.97H366.02z
	 M376.77,25.28c-0.06,0.07-0.12,0.13-0.17,0.17c-0.06,0.04-0.14,0.06-0.24,0.06c-0.11,0-0.22-0.04-0.33-0.12
	c-0.12-0.08-0.26-0.17-0.44-0.27c-0.18-0.1-0.39-0.19-0.64-0.27c-0.25-0.08-0.56-0.12-0.92-0.12c-0.48,0-0.9,0.09-1.27,0.26
	c-0.37,0.17-0.67,0.42-0.91,0.74c-0.24,0.32-0.43,0.71-0.55,1.17c-0.13,0.46-0.19,0.97-0.19,1.55c0,0.59,0.07,1.12,0.2,1.58
	c0.13,0.46,0.32,0.85,0.57,1.17c0.25,0.32,0.55,0.56,0.9,0.72c0.35,0.16,0.75,0.24,1.18,0.24c0.42,0,0.77-0.05,1.04-0.15
	c0.27-0.1,0.5-0.21,0.68-0.33c0.18-0.12,0.33-0.23,0.45-0.33c0.12-0.1,0.24-0.15,0.37-0.15c0.16,0,0.28,0.06,0.37,0.18l0.56,0.72
	c-0.23,0.29-0.49,0.53-0.78,0.73c-0.29,0.2-0.6,0.36-0.92,0.49c-0.33,0.13-0.67,0.22-1.02,0.28c-0.36,0.06-0.72,0.09-1.08,0.09
	c-0.63,0-1.22-0.12-1.77-0.35c-0.55-0.23-1.02-0.57-1.43-1.02c-0.4-0.45-0.72-0.99-0.95-1.64c-0.23-0.65-0.35-1.39-0.35-2.21
	c0-0.75,0.1-1.45,0.31-2.09c0.21-0.64,0.52-1.19,0.93-1.65c0.41-0.46,0.91-0.82,1.51-1.09c0.6-0.26,1.28-0.39,2.06-0.39
	c0.73,0,1.36,0.12,1.92,0.35c0.55,0.23,1.04,0.56,1.48,0.99L376.77,25.28z M388.16,23.22c0.75,0,1.42,0.12,2.02,0.36
	c0.6,0.24,1.11,0.59,1.54,1.05c0.42,0.46,0.75,1,0.97,1.65c0.23,0.64,0.34,1.36,0.34,2.16c0,0.8-0.11,1.52-0.34,2.17
	c-0.23,0.65-0.55,1.19-0.97,1.65c-0.42,0.45-0.93,0.8-1.54,1.04c-0.6,0.24-1.28,0.36-2.02,0.36c-0.75,0-1.43-0.12-2.03-0.36
	c-0.6-0.24-1.12-0.59-1.54-1.04c-0.43-0.45-0.75-1-0.98-1.65c-0.23-0.65-0.34-1.37-0.34-2.17c0-0.8,0.11-1.52,0.34-2.16
	c0.23-0.64,0.56-1.19,0.98-1.65c0.43-0.46,0.94-0.81,1.54-1.05C386.73,23.34,387.4,23.22,388.16,23.22z M388.16,32.15
	c0.96,0,1.67-0.32,2.15-0.97c0.47-0.65,0.71-1.55,0.71-2.72c0-1.17-0.24-2.08-0.71-2.73c-0.47-0.65-1.19-0.97-2.15-0.97
	c-0.97,0-1.7,0.32-2.17,0.97c-0.48,0.65-0.71,1.56-0.71,2.73c0,1.17,0.24,2.08,0.71,2.72C386.46,31.82,387.19,32.15,388.16,32.15z
	 M395.43,33.52v-8.54l-1.06-0.13c-0.15-0.03-0.28-0.09-0.37-0.16c-0.1-0.08-0.14-0.19-0.14-0.33v-0.81h1.58v-0.92
	c0-0.58,0.08-1.09,0.25-1.55c0.17-0.45,0.4-0.84,0.71-1.15c0.31-0.32,0.68-0.56,1.12-0.72c0.44-0.16,0.93-0.24,1.47-0.24
	c0.46,0,0.88,0.07,1.27,0.2l-0.04,0.98c-0.01,0.09-0.03,0.15-0.08,0.19c-0.05,0.04-0.11,0.07-0.18,0.09
	c-0.08,0.02-0.17,0.03-0.28,0.03c-0.11,0-0.23,0-0.35,0c-0.3,0-0.57,0.04-0.82,0.11c-0.25,0.07-0.46,0.2-0.63,0.37
	c-0.17,0.17-0.31,0.4-0.4,0.68c-0.09,0.28-0.14,0.63-0.14,1.05v0.86h2.84v1.42h-2.78v8.56H395.43z M407.91,24.9
	c0.21-0.25,0.44-0.48,0.68-0.69c0.24-0.21,0.5-0.39,0.78-0.54c0.28-0.15,0.58-0.27,0.89-0.35c0.32-0.08,0.65-0.12,1.01-0.12
	c0.58,0,1.1,0.11,1.57,0.34c0.47,0.23,0.87,0.56,1.2,1c0.33,0.44,0.59,0.98,0.77,1.63c0.18,0.65,0.27,1.39,0.27,2.23
	c0,0.75-0.1,1.45-0.3,2.09c-0.2,0.64-0.49,1.2-0.87,1.67c-0.38,0.47-0.84,0.84-1.38,1.11c-0.54,0.27-1.15,0.4-1.83,0.4
	c-0.61,0-1.12-0.1-1.56-0.3c-0.43-0.2-0.82-0.48-1.16-0.84v4.4h-1.95V23.38h1.17c0.27,0,0.44,0.13,0.51,0.39L407.91,24.9z
	 M408.01,31.03c0.32,0.42,0.66,0.71,1.03,0.88c0.37,0.17,0.78,0.25,1.24,0.25c0.89,0,1.58-0.32,2.07-0.96
	c0.49-0.64,0.73-1.58,0.73-2.81c0-0.65-0.05-1.2-0.16-1.65c-0.11-0.46-0.27-0.83-0.48-1.12c-0.21-0.29-0.47-0.5-0.77-0.64
	c-0.31-0.14-0.65-0.2-1.04-0.2c-0.57,0-1.06,0.13-1.47,0.38c-0.42,0.25-0.8,0.61-1.15,1.08V31.03z M416.83,24.8
	c0.57-0.54,1.18-0.94,1.84-1.21c0.66-0.27,1.39-0.4,2.18-0.4c0.58,0,1.09,0.09,1.54,0.28c0.45,0.19,0.82,0.45,1.13,0.79
	c0.31,0.34,0.54,0.75,0.69,1.22c0.16,0.47,0.23,0.99,0.23,1.57v6.47h-0.87c-0.19,0-0.34-0.03-0.44-0.09
	c-0.1-0.06-0.18-0.18-0.24-0.35l-0.21-0.89c-0.26,0.24-0.52,0.45-0.77,0.63c-0.25,0.18-0.52,0.34-0.79,0.47
	c-0.28,0.13-0.57,0.23-0.88,0.29c-0.31,0.07-0.66,0.1-1.04,0.1c-0.4,0-0.77-0.05-1.12-0.16c-0.35-0.11-0.65-0.28-0.91-0.5
	c-0.26-0.23-0.46-0.51-0.61-0.85c-0.15-0.34-0.22-0.74-0.22-1.19c0-0.4,0.11-0.78,0.32-1.15c0.22-0.37,0.57-0.7,1.06-0.99
	c0.49-0.29,1.13-0.53,1.92-0.72c0.79-0.19,1.76-0.29,2.91-0.32v-0.74c0-0.77-0.16-1.34-0.49-1.72c-0.33-0.38-0.81-0.57-1.44-0.57
	c-0.43,0-0.78,0.05-1.07,0.16c-0.29,0.11-0.54,0.22-0.75,0.35c-0.21,0.13-0.39,0.25-0.55,0.35c-0.16,0.11-0.32,0.16-0.48,0.16
	c-0.13,0-0.25-0.04-0.34-0.11c-0.1-0.07-0.17-0.16-0.23-0.26L416.83,24.8z M422.54,29.02c-0.79,0.03-1.46,0.09-2.02,0.18
	c-0.55,0.1-1,0.22-1.35,0.38c-0.35,0.16-0.6,0.35-0.75,0.56c-0.15,0.22-0.23,0.46-0.23,0.72c0,0.25,0.04,0.47,0.12,0.65
	c0.08,0.18,0.2,0.33,0.34,0.45c0.14,0.12,0.31,0.2,0.5,0.25c0.19,0.05,0.4,0.08,0.63,0.08c0.3,0,0.57-0.03,0.82-0.09
	c0.25-0.06,0.48-0.14,0.7-0.25c0.22-0.11,0.43-0.24,0.63-0.4c0.2-0.16,0.4-0.34,0.59-0.55V29.02z M436.35,33.52h-1.96v-8.56h-5.09
	v5.94c0,0.4,0.1,0.7,0.29,0.89c0.2,0.2,0.45,0.29,0.75,0.29c0.18,0,0.33-0.02,0.46-0.07c0.13-0.05,0.24-0.1,0.33-0.15
	c0.09-0.06,0.17-0.11,0.24-0.15c0.07-0.05,0.13-0.07,0.18-0.07c0.07,0,0.12,0.01,0.15,0.04c0.04,0.03,0.07,0.08,0.11,0.14l0.58,0.94
	c-0.32,0.29-0.7,0.52-1.14,0.68c-0.44,0.16-0.9,0.24-1.37,0.24c-0.82,0-1.45-0.23-1.89-0.69c-0.44-0.46-0.66-1.11-0.66-1.97v-6.07
	h-1.18c-0.11,0-0.21-0.03-0.28-0.1c-0.08-0.07-0.11-0.17-0.11-0.31v-0.79l1.66-0.23l0.43-3.02c0.03-0.11,0.08-0.2,0.15-0.26
	c0.08-0.06,0.17-0.09,0.29-0.09h0.99v3.4h7.05V33.52z M436.78,20.19c0,0.18-0.04,0.35-0.11,0.51c-0.07,0.16-0.17,0.31-0.29,0.43
	c-0.12,0.12-0.27,0.22-0.43,0.29c-0.17,0.07-0.34,0.1-0.52,0.1c-0.18,0-0.35-0.03-0.51-0.1c-0.16-0.07-0.3-0.17-0.42-0.29
	c-0.12-0.12-0.22-0.27-0.29-0.43c-0.07-0.16-0.1-0.33-0.1-0.51c0-0.19,0.03-0.36,0.1-0.53c0.07-0.17,0.17-0.31,0.29-0.43
	c0.12-0.12,0.26-0.22,0.42-0.29c0.16-0.07,0.33-0.1,0.51-0.1c0.18,0,0.35,0.03,0.52,0.1c0.17,0.07,0.31,0.17,0.43,0.29
	c0.12,0.12,0.22,0.27,0.29,0.43C436.75,19.83,436.78,20,436.78,20.19z M447.29,32.08c-0.24,0.28-0.52,0.52-0.83,0.72
	c-0.31,0.2-0.65,0.37-1,0.49c-0.35,0.13-0.72,0.22-1.09,0.28c-0.38,0.06-0.75,0.09-1.11,0.09c-0.7,0-1.35-0.12-1.94-0.35
	c-0.6-0.24-1.11-0.58-1.55-1.04c-0.44-0.46-0.78-1.02-1.02-1.7c-0.24-0.68-0.36-1.45-0.36-2.33c0-0.71,0.11-1.36,0.33-1.97
	s0.53-1.14,0.94-1.59c0.41-0.45,0.91-0.81,1.5-1.07c0.59-0.26,1.26-0.39,2-0.39c0.62,0,1.19,0.1,1.71,0.3
	c0.52,0.2,0.97,0.5,1.35,0.88c0.38,0.39,0.68,0.86,0.89,1.43c0.22,0.57,0.32,1.21,0.32,1.94c0,0.3-0.03,0.5-0.1,0.6
	c-0.07,0.1-0.19,0.15-0.37,0.15h-6.65c0.02,0.61,0.11,1.13,0.26,1.58c0.15,0.45,0.36,0.82,0.63,1.12s0.59,0.52,0.96,0.67
	c0.37,0.15,0.79,0.22,1.25,0.22c0.43,0,0.81-0.05,1.12-0.15c0.32-0.1,0.59-0.21,0.82-0.32c0.23-0.12,0.42-0.22,0.58-0.32
	c0.16-0.1,0.29-0.15,0.41-0.15c0.16,0,0.28,0.06,0.37,0.18L447.29,32.08z M445.69,27.32c0-0.39-0.05-0.74-0.16-1.07
	c-0.11-0.33-0.27-0.61-0.48-0.85c-0.21-0.24-0.47-0.43-0.78-0.56c-0.31-0.13-0.66-0.2-1.06-0.2c-0.82,0-1.46,0.24-1.93,0.71
	c-0.47,0.47-0.77,1.13-0.89,1.97H445.69z M451.16,24.79c0.22-0.23,0.45-0.45,0.69-0.64c0.24-0.19,0.49-0.36,0.76-0.49
	c0.27-0.14,0.56-0.24,0.87-0.32c0.31-0.08,0.64-0.11,0.99-0.11c0.56,0,1.05,0.09,1.47,0.28c0.42,0.19,0.78,0.45,1.06,0.78
	c0.29,0.34,0.5,0.74,0.65,1.21c0.15,0.47,0.22,0.99,0.22,1.57v6.46h-1.96v-6.46c0-0.73-0.17-1.29-0.5-1.69
	c-0.33-0.4-0.84-0.6-1.53-0.6c-0.5,0-0.97,0.12-1.4,0.35c-0.44,0.24-0.84,0.56-1.21,0.96v7.44h-1.95V23.38h1.17
	c0.27,0,0.44,0.13,0.51,0.39L451.16,24.79z M463.33,33.68c-0.82,0-1.45-0.23-1.89-0.69c-0.44-0.46-0.66-1.11-0.66-1.97v-6.07h-1.18
	c-0.11,0-0.21-0.03-0.28-0.1c-0.08-0.07-0.11-0.17-0.11-0.31v-0.79l1.65-0.23l0.44-3.02c0.03-0.11,0.08-0.2,0.15-0.26
	c0.08-0.06,0.17-0.09,0.29-0.09h0.99v3.4h2.87v1.42h-2.87v5.94c0,0.4,0.1,0.7,0.29,0.89c0.2,0.2,0.45,0.29,0.75,0.29
	c0.18,0,0.33-0.02,0.46-0.07c0.13-0.05,0.24-0.1,0.33-0.15c0.09-0.06,0.17-0.11,0.24-0.15c0.07-0.05,0.13-0.07,0.18-0.07
	c0.07,0,0.12,0.01,0.15,0.04c0.04,0.03,0.07,0.08,0.11,0.14l0.58,0.94c-0.32,0.29-0.7,0.52-1.14,0.68
	C464.26,33.6,463.81,33.68,463.33,33.68z M473.17,25.13c-0.05,0.09-0.11,0.15-0.17,0.18c-0.06,0.04-0.14,0.05-0.23,0.05
	c-0.11,0-0.22-0.04-0.35-0.11c-0.13-0.07-0.29-0.15-0.47-0.24c-0.18-0.09-0.4-0.17-0.64-0.24c-0.25-0.07-0.54-0.11-0.88-0.11
	c-0.28,0-0.53,0.03-0.76,0.1c-0.23,0.07-0.42,0.17-0.58,0.29c-0.16,0.12-0.28,0.27-0.37,0.44c-0.09,0.17-0.13,0.35-0.13,0.54
	c0,0.25,0.07,0.46,0.22,0.63c0.15,0.17,0.35,0.31,0.59,0.43c0.24,0.12,0.52,0.23,0.83,0.32c0.31,0.1,0.63,0.2,0.95,0.3
	c0.32,0.11,0.64,0.23,0.95,0.36c0.31,0.14,0.59,0.31,0.83,0.51c0.24,0.2,0.44,0.45,0.59,0.73c0.15,0.29,0.22,0.64,0.22,1.05
	c0,0.47-0.08,0.91-0.25,1.31c-0.17,0.4-0.42,0.75-0.75,1.04c-0.33,0.29-0.74,0.52-1.22,0.69c-0.49,0.17-1.04,0.25-1.67,0.25
	c-0.7,0-1.34-0.12-1.94-0.35c-0.59-0.23-1.09-0.53-1.49-0.89l0.46-0.75c0.05-0.09,0.12-0.16,0.2-0.21s0.19-0.07,0.32-0.07
	c0.13,0,0.26,0.05,0.39,0.14c0.13,0.09,0.29,0.19,0.48,0.3c0.19,0.11,0.41,0.21,0.68,0.3c0.27,0.09,0.6,0.13,1,0.13
	c0.33,0,0.62-0.04,0.87-0.12c0.25-0.08,0.45-0.2,0.61-0.34c0.16-0.14,0.28-0.31,0.36-0.49c0.08-0.19,0.12-0.38,0.12-0.59
	c0-0.27-0.07-0.49-0.22-0.66c-0.15-0.18-0.35-0.33-0.59-0.45c-0.24-0.13-0.52-0.24-0.83-0.33c-0.31-0.09-0.63-0.19-0.96-0.3
	c-0.33-0.11-0.65-0.23-0.96-0.37c-0.31-0.14-0.59-0.32-0.83-0.53c-0.24-0.21-0.44-0.47-0.59-0.78c-0.15-0.31-0.22-0.68-0.22-1.12
	c0-0.39,0.08-0.77,0.24-1.13c0.16-0.36,0.4-0.68,0.71-0.95c0.31-0.27,0.69-0.49,1.15-0.65c0.46-0.16,0.98-0.24,1.56-0.24
	c0.67,0,1.28,0.11,1.82,0.32c0.54,0.21,1.01,0.51,1.39,0.88L473.17,25.13z M494.18,23.38l-3.26,10.14h-1.56
	c-0.19,0-0.31-0.12-0.38-0.37l-2.14-6.61c-0.05-0.17-0.1-0.33-0.14-0.49c-0.04-0.16-0.08-0.33-0.11-0.49
	c-0.06,0.35-0.14,0.68-0.25,1.01l-2.17,6.59c-0.07,0.25-0.21,0.37-0.43,0.37h-1.48L479,23.38h1.54c0.15,0,0.28,0.04,0.38,0.11
	c0.1,0.07,0.17,0.17,0.2,0.28l1.83,6.23c0.06,0.25,0.11,0.5,0.16,0.74c0.05,0.24,0.09,0.48,0.13,0.72c0.06-0.24,0.12-0.48,0.19-0.72
	c0.07-0.24,0.14-0.49,0.21-0.74l2.03-6.27c0.03-0.11,0.1-0.2,0.19-0.27c0.09-0.07,0.21-0.1,0.34-0.1h0.85c0.15,0,0.27,0.03,0.36,0.1
	c0.1,0.07,0.16,0.16,0.19,0.27l1.98,6.27c0.07,0.25,0.14,0.5,0.21,0.74c0.07,0.24,0.13,0.49,0.18,0.73
	c0.04-0.24,0.09-0.48,0.14-0.72c0.05-0.24,0.11-0.49,0.18-0.75l1.86-6.23c0.03-0.11,0.1-0.21,0.2-0.28c0.1-0.07,0.22-0.11,0.35-0.11
	H494.18z M498.04,20.25c0,0.18-0.04,0.35-0.11,0.51c-0.07,0.16-0.17,0.31-0.29,0.43c-0.12,0.12-0.27,0.22-0.43,0.29
	c-0.17,0.07-0.34,0.1-0.52,0.1c-0.18,0-0.35-0.03-0.51-0.1c-0.16-0.07-0.3-0.17-0.42-0.29c-0.12-0.12-0.22-0.27-0.29-0.43
	c-0.07-0.16-0.1-0.33-0.1-0.51c0-0.19,0.03-0.36,0.1-0.52c0.07-0.16,0.17-0.31,0.29-0.43c0.12-0.12,0.26-0.22,0.42-0.29
	c0.16-0.07,0.33-0.1,0.51-0.1c0.18,0,0.35,0.03,0.52,0.1c0.17,0.07,0.31,0.17,0.43,0.29c0.12,0.12,0.22,0.27,0.29,0.43
	C498,19.89,498.04,20.06,498.04,20.25z M497.67,23.38v10.14h-1.95V23.38H497.67z M503.46,33.68c-0.82,0-1.45-0.23-1.89-0.69
	c-0.44-0.46-0.66-1.11-0.66-1.97v-6.07h-1.18c-0.11,0-0.21-0.03-0.28-0.1c-0.08-0.07-0.11-0.17-0.11-0.31v-0.79l1.65-0.23l0.44-3.02
	c0.03-0.11,0.08-0.2,0.15-0.26c0.08-0.06,0.17-0.09,0.29-0.09h0.99v3.4h2.87v1.42h-2.87v5.94c0,0.4,0.1,0.7,0.29,0.89
	c0.2,0.2,0.45,0.29,0.75,0.29c0.18,0,0.33-0.02,0.46-0.07c0.13-0.05,0.24-0.1,0.33-0.15c0.09-0.06,0.17-0.11,0.24-0.15
	c0.07-0.05,0.13-0.07,0.18-0.07c0.07,0,0.12,0.01,0.15,0.04c0.04,0.03,0.07,0.08,0.11,0.14l0.58,0.94c-0.32,0.29-0.7,0.52-1.14,0.68
	C504.39,33.6,503.93,33.68,503.46,33.68z M509.26,24.67c0.43-0.43,0.9-0.78,1.41-1.05c0.52-0.27,1.11-0.4,1.78-0.4
	c0.56,0,1.05,0.09,1.47,0.28c0.42,0.19,0.78,0.45,1.06,0.78c0.29,0.34,0.5,0.74,0.65,1.21c0.15,0.47,0.22,0.99,0.22,1.57v6.46h-1.96
	v-6.46c0-0.73-0.17-1.29-0.5-1.69c-0.33-0.4-0.84-0.6-1.53-0.6c-0.5,0-0.97,0.12-1.4,0.35c-0.44,0.24-0.84,0.56-1.21,0.96v7.44
	h-1.95V18.79h1.95V24.67z M524.94,25.33c0.33-0.67,0.72-1.19,1.18-1.57c0.46-0.38,1.01-0.57,1.66-0.57c0.22,0,0.43,0.02,0.62,0.07
	c0.2,0.05,0.37,0.12,0.51,0.22l-0.13,1.47c-0.05,0.18-0.16,0.27-0.33,0.27c-0.09,0-0.23-0.02-0.42-0.05
	c-0.19-0.04-0.39-0.05-0.6-0.05c-0.31,0-0.59,0.04-0.83,0.13c-0.24,0.09-0.45,0.22-0.64,0.4c-0.19,0.18-0.36,0.39-0.5,0.65
	c-0.15,0.26-0.28,0.55-0.41,0.87v6.35h-1.95V23.38h1.12c0.21,0,0.36,0.04,0.43,0.11c0.08,0.08,0.13,0.21,0.16,0.4L524.94,25.33z
	 M538.16,32.08c-0.24,0.28-0.52,0.52-0.83,0.72c-0.31,0.2-0.65,0.37-1,0.49c-0.35,0.13-0.72,0.22-1.09,0.28
	c-0.38,0.06-0.75,0.09-1.11,0.09c-0.7,0-1.35-0.12-1.94-0.35c-0.6-0.24-1.11-0.58-1.55-1.04c-0.44-0.46-0.78-1.02-1.02-1.7
	c-0.24-0.68-0.36-1.45-0.36-2.33c0-0.71,0.11-1.36,0.33-1.97c0.22-0.61,0.53-1.14,0.94-1.59c0.41-0.45,0.91-0.81,1.5-1.07
	c0.59-0.26,1.26-0.39,2-0.39c0.62,0,1.19,0.1,1.71,0.3c0.52,0.2,0.97,0.5,1.35,0.88c0.38,0.39,0.68,0.86,0.89,1.43
	c0.22,0.57,0.32,1.21,0.32,1.94c0,0.3-0.03,0.5-0.1,0.6c-0.07,0.1-0.19,0.15-0.37,0.15h-6.65c0.02,0.61,0.11,1.13,0.26,1.58
	c0.15,0.45,0.36,0.82,0.63,1.12s0.59,0.52,0.96,0.67c0.37,0.15,0.79,0.22,1.25,0.22c0.43,0,0.81-0.05,1.12-0.15
	c0.32-0.1,0.59-0.21,0.82-0.32c0.23-0.12,0.42-0.22,0.58-0.32c0.16-0.1,0.29-0.15,0.41-0.15c0.16,0,0.28,0.06,0.37,0.18
	L538.16,32.08z M536.55,27.32c0-0.39-0.05-0.74-0.16-1.07c-0.11-0.33-0.27-0.61-0.48-0.85c-0.21-0.24-0.47-0.43-0.78-0.56
	c-0.31-0.13-0.66-0.2-1.06-0.2c-0.82,0-1.46,0.24-1.93,0.71c-0.47,0.47-0.77,1.13-0.89,1.97H536.55z M547.3,25.28
	c-0.06,0.07-0.12,0.13-0.17,0.17c-0.06,0.04-0.14,0.06-0.24,0.06c-0.11,0-0.22-0.04-0.33-0.12c-0.12-0.08-0.26-0.17-0.44-0.27
	c-0.18-0.1-0.39-0.19-0.64-0.27c-0.25-0.08-0.56-0.12-0.92-0.12c-0.48,0-0.9,0.09-1.27,0.26c-0.37,0.17-0.67,0.42-0.91,0.74
	c-0.24,0.32-0.43,0.71-0.55,1.17c-0.13,0.46-0.19,0.97-0.19,1.55c0,0.59,0.07,1.12,0.2,1.58c0.13,0.46,0.32,0.85,0.57,1.17
	c0.25,0.32,0.55,0.56,0.9,0.72c0.35,0.16,0.75,0.24,1.18,0.24c0.42,0,0.77-0.05,1.04-0.15c0.27-0.1,0.5-0.21,0.68-0.33
	c0.18-0.12,0.33-0.23,0.45-0.33c0.12-0.1,0.24-0.15,0.37-0.15c0.16,0,0.28,0.06,0.37,0.18l0.56,0.72c-0.23,0.29-0.49,0.53-0.78,0.73
	c-0.29,0.2-0.6,0.36-0.92,0.49c-0.33,0.13-0.67,0.22-1.02,0.28c-0.36,0.06-0.72,0.09-1.08,0.09c-0.63,0-1.22-0.12-1.77-0.35
	c-0.55-0.23-1.02-0.57-1.43-1.02c-0.4-0.45-0.72-0.99-0.95-1.64c-0.23-0.65-0.35-1.39-0.35-2.21c0-0.75,0.1-1.45,0.31-2.09
	c0.21-0.64,0.52-1.19,0.93-1.65c0.41-0.46,0.91-0.82,1.51-1.09c0.6-0.26,1.28-0.39,2.06-0.39c0.73,0,1.36,0.12,1.92,0.35
	c0.55,0.23,1.04,0.56,1.48,0.99L547.3,25.28z M557.97,23.38v10.14h-1.17c-0.27,0-0.44-0.13-0.52-0.39l-0.14-1.02
	c-0.22,0.23-0.45,0.45-0.69,0.64c-0.24,0.19-0.5,0.36-0.77,0.49c-0.27,0.14-0.56,0.24-0.87,0.32c-0.31,0.08-0.64,0.11-0.99,0.11
	c-0.56,0-1.05-0.09-1.47-0.28c-0.42-0.19-0.78-0.45-1.06-0.78c-0.29-0.34-0.5-0.74-0.65-1.21c-0.15-0.47-0.22-0.99-0.22-1.57v-6.46
	h1.96v6.46c0,0.73,0.17,1.29,0.5,1.69c0.33,0.4,0.84,0.6,1.53,0.6c0.5,0,0.96-0.12,1.4-0.35c0.43-0.24,0.84-0.56,1.22-0.97v-7.43
	H557.97z M562.34,25.33c0.33-0.67,0.72-1.19,1.18-1.57c0.46-0.38,1.01-0.57,1.66-0.57c0.22,0,0.43,0.02,0.62,0.07
	c0.2,0.05,0.37,0.12,0.51,0.22l-0.13,1.47c-0.05,0.18-0.16,0.27-0.33,0.27c-0.09,0-0.23-0.02-0.42-0.05
	c-0.19-0.04-0.39-0.05-0.6-0.05c-0.31,0-0.59,0.04-0.83,0.13c-0.24,0.09-0.45,0.22-0.64,0.4c-0.19,0.18-0.36,0.39-0.5,0.65
	c-0.15,0.26-0.28,0.55-0.41,0.87v6.35h-1.95V23.38h1.12c0.21,0,0.36,0.04,0.43,0.11c0.08,0.08,0.13,0.21,0.16,0.4L562.34,25.33z
	 M569.44,25.33c0.33-0.67,0.72-1.19,1.18-1.57c0.46-0.38,1.01-0.57,1.66-0.57c0.22,0,0.43,0.02,0.62,0.07
	c0.2,0.05,0.37,0.12,0.51,0.22l-0.13,1.47c-0.05,0.18-0.16,0.27-0.33,0.27c-0.09,0-0.23-0.02-0.42-0.05
	c-0.19-0.04-0.39-0.05-0.6-0.05c-0.31,0-0.59,0.04-0.83,0.13c-0.24,0.09-0.45,0.22-0.64,0.4c-0.19,0.18-0.36,0.39-0.5,0.65
	c-0.15,0.26-0.28,0.55-0.41,0.87v6.35h-1.95V23.38h1.12c0.21,0,0.36,0.04,0.43,0.11c0.08,0.08,0.13,0.21,0.16,0.4L569.44,25.33z
	 M582.67,32.08c-0.24,0.28-0.52,0.52-0.83,0.72c-0.31,0.2-0.65,0.37-1,0.49c-0.35,0.13-0.72,0.22-1.09,0.28
	c-0.38,0.06-0.75,0.09-1.11,0.09c-0.7,0-1.35-0.12-1.94-0.35c-0.6-0.24-1.11-0.58-1.55-1.04c-0.44-0.46-0.78-1.02-1.02-1.7
	c-0.24-0.68-0.36-1.45-0.36-2.33c0-0.71,0.11-1.36,0.33-1.97c0.22-0.61,0.53-1.14,0.94-1.59c0.41-0.45,0.91-0.81,1.5-1.07
	c0.59-0.26,1.26-0.39,2-0.39c0.62,0,1.19,0.1,1.71,0.3c0.52,0.2,0.97,0.5,1.35,0.88c0.38,0.39,0.68,0.86,0.89,1.43
	c0.22,0.57,0.32,1.21,0.32,1.94c0,0.3-0.03,0.5-0.1,0.6c-0.07,0.1-0.19,0.15-0.37,0.15h-6.65c0.02,0.61,0.11,1.13,0.26,1.58
	c0.15,0.45,0.36,0.82,0.63,1.12c0.27,0.3,0.59,0.52,0.96,0.67c0.37,0.15,0.79,0.22,1.25,0.22c0.43,0,0.81-0.05,1.12-0.15
	c0.32-0.1,0.59-0.21,0.82-0.32c0.23-0.12,0.42-0.22,0.58-0.32c0.16-0.1,0.29-0.15,0.41-0.15c0.16,0,0.28,0.06,0.37,0.18
	L582.67,32.08z M581.06,27.32c0-0.39-0.05-0.74-0.16-1.07c-0.11-0.33-0.27-0.61-0.48-0.85c-0.21-0.24-0.47-0.43-0.78-0.56
	c-0.31-0.13-0.66-0.2-1.06-0.2c-0.82,0-1.46,0.24-1.93,0.71c-0.47,0.47-0.77,1.13-0.89,1.97H581.06z M586.53,24.79
	c0.22-0.23,0.45-0.45,0.69-0.64c0.24-0.19,0.49-0.36,0.76-0.49c0.27-0.14,0.56-0.24,0.87-0.32c0.31-0.08,0.64-0.11,0.99-0.11
	c0.56,0,1.05,0.09,1.47,0.28c0.42,0.19,0.78,0.45,1.06,0.78c0.29,0.34,0.5,0.74,0.65,1.21c0.15,0.47,0.22,0.99,0.22,1.57v6.46h-1.96
	v-6.46c0-0.73-0.17-1.29-0.5-1.69c-0.33-0.4-0.84-0.6-1.53-0.6c-0.5,0-0.97,0.12-1.4,0.35c-0.44,0.24-0.84,0.56-1.21,0.96v7.44
	h-1.95V23.38h1.17c0.27,0,0.44,0.13,0.51,0.39L586.53,24.79z M598.71,33.68c-0.82,0-1.45-0.23-1.89-0.69
	c-0.44-0.46-0.66-1.11-0.66-1.97v-6.07h-1.18c-0.11,0-0.21-0.03-0.28-0.1c-0.08-0.07-0.11-0.17-0.11-0.31v-0.79l1.65-0.23l0.44-3.02
	c0.03-0.11,0.08-0.2,0.15-0.26c0.08-0.06,0.17-0.09,0.29-0.09h0.99v3.4h2.87v1.42h-2.87v5.94c0,0.4,0.1,0.7,0.29,0.89
	c0.2,0.2,0.45,0.29,0.75,0.29c0.18,0,0.33-0.02,0.46-0.07c0.13-0.05,0.24-0.1,0.33-0.15c0.09-0.06,0.17-0.11,0.24-0.15
	c0.07-0.05,0.13-0.07,0.18-0.07c0.07,0,0.12,0.01,0.15,0.04c0.04,0.03,0.07,0.08,0.11,0.14l0.58,0.94c-0.32,0.29-0.7,0.52-1.14,0.68
	C599.64,33.6,599.18,33.68,598.71,33.68z M612.46,19.19c0.9,0,1.67,0.09,2.31,0.26c0.64,0.17,1.17,0.42,1.58,0.75
	c0.41,0.33,0.72,0.72,0.91,1.18c0.2,0.46,0.29,0.99,0.29,1.57c0,0.35-0.05,0.68-0.16,1c-0.11,0.32-0.27,0.62-0.49,0.89
	c-0.22,0.28-0.5,0.52-0.83,0.74c-0.33,0.22-0.73,0.4-1.18,0.55c2.08,0.41,3.12,1.5,3.12,3.26c0,0.61-0.11,1.17-0.34,1.67
	c-0.23,0.5-0.56,0.94-0.99,1.3c-0.43,0.37-0.96,0.65-1.6,0.85c-0.63,0.2-1.35,0.3-2.16,0.3h-5.16V19.19H612.46z M609.92,20.86v4.69
	h2.45c1.04,0,1.82-0.21,2.33-0.63c0.51-0.42,0.76-0.99,0.76-1.71c0-0.82-0.24-1.41-0.73-1.79c-0.49-0.37-1.24-0.56-2.27-0.56H609.92
	z M612.91,31.84c0.54,0,1-0.06,1.38-0.19c0.38-0.13,0.7-0.3,0.94-0.52c0.24-0.22,0.42-0.48,0.53-0.78c0.11-0.3,0.17-0.63,0.17-0.99
	c0-0.71-0.25-1.27-0.74-1.68c-0.49-0.41-1.25-0.61-2.29-0.61h-2.99v4.78H612.91z M632.09,19.19l-5.83,14.33h-1.91l-5.83-14.33h1.7
	c0.19,0,0.34,0.05,0.45,0.14c0.12,0.09,0.2,0.21,0.26,0.36l3.87,9.74c0.09,0.24,0.18,0.5,0.27,0.79c0.09,0.29,0.17,0.59,0.24,0.9
	c0.07-0.31,0.14-0.61,0.22-0.9c0.08-0.29,0.17-0.55,0.26-0.79l3.86-9.74c0.05-0.13,0.13-0.25,0.25-0.35
	c0.12-0.1,0.27-0.15,0.45-0.15H632.09z M643.37,25.13c-0.05,0.09-0.11,0.15-0.17,0.18c-0.06,0.04-0.14,0.05-0.23,0.05
	c-0.11,0-0.22-0.04-0.35-0.11c-0.13-0.07-0.29-0.15-0.47-0.24c-0.18-0.09-0.4-0.17-0.64-0.24c-0.25-0.07-0.54-0.11-0.88-0.11
	c-0.28,0-0.53,0.03-0.76,0.1c-0.23,0.07-0.42,0.17-0.58,0.29c-0.16,0.12-0.28,0.27-0.37,0.44c-0.09,0.17-0.13,0.35-0.13,0.54
	c0,0.25,0.07,0.46,0.22,0.63c0.15,0.17,0.35,0.31,0.59,0.43c0.24,0.12,0.52,0.23,0.83,0.32c0.31,0.1,0.63,0.2,0.95,0.3
	c0.32,0.11,0.64,0.23,0.95,0.36c0.31,0.14,0.59,0.31,0.83,0.51c0.24,0.2,0.44,0.45,0.59,0.73c0.15,0.29,0.22,0.64,0.22,1.05
	c0,0.47-0.08,0.91-0.25,1.31c-0.17,0.4-0.42,0.75-0.75,1.04c-0.33,0.29-0.74,0.52-1.22,0.69c-0.49,0.17-1.04,0.25-1.67,0.25
	c-0.7,0-1.34-0.12-1.94-0.35c-0.59-0.23-1.09-0.53-1.49-0.89l0.46-0.75c0.05-0.09,0.12-0.16,0.2-0.21c0.08-0.05,0.19-0.07,0.32-0.07
	c0.13,0,0.26,0.05,0.39,0.14c0.13,0.09,0.29,0.19,0.48,0.3c0.19,0.11,0.41,0.21,0.68,0.3c0.27,0.09,0.6,0.13,1,0.13
	c0.33,0,0.62-0.04,0.87-0.12c0.25-0.08,0.45-0.2,0.61-0.34c0.16-0.14,0.28-0.31,0.36-0.49c0.08-0.19,0.12-0.38,0.12-0.59
	c0-0.27-0.07-0.49-0.22-0.66c-0.15-0.18-0.35-0.33-0.59-0.45c-0.24-0.13-0.52-0.24-0.83-0.33c-0.31-0.09-0.63-0.19-0.96-0.3
	c-0.33-0.11-0.65-0.23-0.96-0.37c-0.31-0.14-0.59-0.32-0.83-0.53c-0.24-0.21-0.44-0.47-0.59-0.78c-0.15-0.31-0.22-0.68-0.22-1.12
	c0-0.39,0.08-0.77,0.24-1.13c0.16-0.36,0.4-0.68,0.71-0.95c0.31-0.27,0.69-0.49,1.15-0.65c0.46-0.16,0.98-0.24,1.56-0.24
	c0.67,0,1.28,0.11,1.82,0.32c0.54,0.21,1.01,0.51,1.39,0.88L643.37,25.13z M647.8,24.67c0.43-0.43,0.9-0.78,1.41-1.05
	c0.52-0.27,1.11-0.4,1.78-0.4c0.56,0,1.05,0.09,1.47,0.28c0.42,0.19,0.78,0.45,1.06,0.78c0.29,0.34,0.5,0.74,0.65,1.21
	c0.15,0.47,0.22,0.99,0.22,1.57v6.46h-1.96v-6.46c0-0.73-0.17-1.29-0.5-1.69c-0.33-0.4-0.84-0.6-1.53-0.6c-0.5,0-0.97,0.12-1.4,0.35
	c-0.44,0.24-0.84,0.56-1.21,0.96v7.44h-1.95V18.79h1.95V24.67z M661.14,23.22c0.75,0,1.42,0.12,2.02,0.36
	c0.6,0.24,1.11,0.59,1.54,1.05c0.42,0.46,0.75,1,0.97,1.65c0.23,0.64,0.34,1.36,0.34,2.16c0,0.8-0.11,1.52-0.34,2.17
	c-0.23,0.65-0.55,1.19-0.97,1.65c-0.42,0.45-0.93,0.8-1.54,1.04c-0.6,0.24-1.28,0.36-2.02,0.36c-0.75,0-1.43-0.12-2.03-0.36
	c-0.6-0.24-1.12-0.59-1.54-1.04c-0.43-0.45-0.75-1-0.98-1.65c-0.23-0.65-0.34-1.37-0.34-2.17c0-0.8,0.11-1.52,0.34-2.16
	c0.23-0.64,0.56-1.19,0.98-1.65c0.43-0.46,0.94-0.81,1.54-1.05C659.71,23.34,660.39,23.22,661.14,23.22z M661.14,32.15
	c0.96,0,1.67-0.32,2.15-0.97c0.47-0.65,0.71-1.55,0.71-2.72c0-1.17-0.24-2.08-0.71-2.73c-0.47-0.65-1.19-0.97-2.15-0.97
	c-0.97,0-1.7,0.32-2.17,0.97c-0.48,0.65-0.71,1.56-0.71,2.73c0,1.17,0.24,2.08,0.71,2.72C659.44,31.82,660.17,32.15,661.14,32.15z
	 M681.93,23.38l-3.26,10.14h-1.56c-0.19,0-0.31-0.12-0.38-0.37l-2.14-6.61c-0.05-0.17-0.1-0.33-0.14-0.49
	c-0.04-0.16-0.08-0.33-0.11-0.49c-0.06,0.35-0.14,0.68-0.25,1.01l-2.17,6.59c-0.07,0.25-0.21,0.37-0.43,0.37h-1.48l-3.27-10.14h1.54
	c0.15,0,0.28,0.04,0.38,0.11c0.1,0.07,0.17,0.17,0.2,0.28L670.7,30c0.06,0.25,0.11,0.5,0.16,0.74c0.05,0.24,0.09,0.48,0.13,0.72
	c0.06-0.24,0.12-0.48,0.19-0.72c0.07-0.24,0.14-0.49,0.21-0.74l2.03-6.27c0.03-0.11,0.1-0.2,0.19-0.27c0.09-0.07,0.21-0.1,0.34-0.1
	h0.85c0.15,0,0.27,0.03,0.36,0.1c0.1,0.07,0.16,0.16,0.19,0.27l1.98,6.27c0.07,0.25,0.14,0.5,0.21,0.74
	c0.07,0.24,0.13,0.49,0.18,0.73c0.04-0.24,0.09-0.48,0.14-0.72c0.05-0.24,0.11-0.49,0.18-0.75l1.86-6.23
	c0.03-0.11,0.1-0.21,0.2-0.28c0.1-0.07,0.22-0.11,0.35-0.11H681.93z M691.56,32.08c-0.24,0.28-0.52,0.52-0.83,0.72
	c-0.31,0.2-0.65,0.37-1,0.49c-0.35,0.13-0.72,0.22-1.09,0.28c-0.38,0.06-0.75,0.09-1.11,0.09c-0.7,0-1.35-0.12-1.94-0.35
	c-0.6-0.24-1.11-0.58-1.55-1.04c-0.44-0.46-0.78-1.02-1.02-1.7c-0.24-0.68-0.36-1.45-0.36-2.33c0-0.71,0.11-1.36,0.33-1.97
	c0.22-0.61,0.53-1.14,0.94-1.59c0.41-0.45,0.91-0.81,1.5-1.07c0.59-0.26,1.26-0.39,2-0.39c0.62,0,1.19,0.1,1.71,0.3
	c0.52,0.2,0.97,0.5,1.35,0.88c0.38,0.39,0.68,0.86,0.89,1.43c0.22,0.57,0.32,1.21,0.32,1.94c0,0.3-0.03,0.5-0.1,0.6
	c-0.07,0.1-0.19,0.15-0.37,0.15h-6.65c0.02,0.61,0.11,1.13,0.26,1.58c0.15,0.45,0.36,0.82,0.63,1.12c0.27,0.3,0.59,0.52,0.96,0.67
	c0.37,0.15,0.79,0.22,1.25,0.22c0.43,0,0.81-0.05,1.12-0.15c0.32-0.1,0.59-0.21,0.82-0.32c0.23-0.12,0.42-0.22,0.58-0.32
	c0.16-0.1,0.29-0.15,0.41-0.15c0.16,0,0.28,0.06,0.37,0.18L691.56,32.08z M689.95,27.32c0-0.39-0.05-0.74-0.16-1.07
	c-0.11-0.33-0.27-0.61-0.48-0.85c-0.21-0.24-0.47-0.43-0.78-0.56c-0.31-0.13-0.66-0.2-1.06-0.2c-0.82,0-1.46,0.24-1.93,0.71
	c-0.47,0.47-0.77,1.13-0.89,1.97H689.95z M702.09,18.79v14.73h-1.18c-0.27,0-0.44-0.13-0.51-0.39l-0.17-1.17
	c-0.43,0.51-0.92,0.92-1.47,1.23c-0.55,0.31-1.18,0.46-1.9,0.46c-0.58,0-1.1-0.11-1.57-0.34c-0.47-0.23-0.87-0.56-1.2-0.99
	c-0.33-0.44-0.59-0.98-0.77-1.62c-0.18-0.65-0.27-1.39-0.27-2.23c0-0.75,0.1-1.45,0.3-2.1c0.2-0.65,0.49-1.2,0.87-1.68
	c0.38-0.47,0.84-0.84,1.38-1.11c0.54-0.27,1.15-0.4,1.83-0.4c0.61,0,1.13,0.1,1.56,0.3c0.43,0.2,0.81,0.48,1.15,0.85v-5.55H702.09z
	 M700.13,25.84c-0.32-0.42-0.66-0.71-1.03-0.88c-0.37-0.17-0.78-0.25-1.24-0.25c-0.89,0-1.58,0.32-2.07,0.96
	c-0.49,0.64-0.73,1.58-0.73,2.81c0,0.65,0.05,1.2,0.16,1.65c0.11,0.46,0.27,0.83,0.48,1.12c0.21,0.29,0.47,0.5,0.77,0.64
	c0.31,0.14,0.65,0.2,1.04,0.2c0.57,0,1.05-0.13,1.47-0.38c0.41-0.25,0.8-0.61,1.16-1.07V25.84z"/>
<path class="st1" d="M32.6,47.11c-0.05,0.09-0.11,0.15-0.17,0.18c-0.06,0.04-0.14,0.05-0.23,0.05c-0.11,0-0.22-0.04-0.35-0.11
	c-0.13-0.07-0.29-0.15-0.47-0.24c-0.18-0.09-0.4-0.17-0.64-0.24c-0.25-0.07-0.54-0.11-0.88-0.11c-0.28,0-0.53,0.03-0.76,0.1
	c-0.23,0.07-0.42,0.17-0.58,0.29c-0.16,0.12-0.28,0.27-0.37,0.44c-0.09,0.17-0.13,0.35-0.13,0.54c0,0.25,0.07,0.46,0.22,0.63
	c0.15,0.17,0.35,0.31,0.59,0.43c0.24,0.12,0.52,0.23,0.83,0.32c0.31,0.1,0.63,0.2,0.95,0.3c0.32,0.11,0.64,0.23,0.95,0.36
	c0.31,0.14,0.59,0.31,0.83,0.51c0.24,0.2,0.44,0.45,0.59,0.73c0.15,0.29,0.22,0.64,0.22,1.05c0,0.47-0.08,0.91-0.25,1.31
	c-0.17,0.4-0.42,0.75-0.75,1.04c-0.33,0.29-0.74,0.52-1.22,0.69c-0.49,0.17-1.04,0.25-1.67,0.25c-0.7,0-1.34-0.12-1.94-0.35
	c-0.59-0.23-1.09-0.53-1.49-0.89l0.46-0.75c0.05-0.09,0.12-0.16,0.2-0.21c0.08-0.05,0.19-0.07,0.32-0.07c0.13,0,0.26,0.05,0.39,0.14
	c0.13,0.09,0.29,0.19,0.48,0.3c0.19,0.11,0.41,0.21,0.68,0.3c0.27,0.09,0.6,0.13,1,0.13c0.33,0,0.62-0.04,0.87-0.12
	c0.25-0.08,0.45-0.2,0.61-0.34c0.16-0.14,0.28-0.31,0.36-0.49c0.08-0.19,0.12-0.38,0.12-0.59c0-0.27-0.07-0.49-0.22-0.66
	c-0.15-0.18-0.35-0.33-0.59-0.45c-0.24-0.13-0.52-0.24-0.83-0.33c-0.31-0.09-0.63-0.19-0.96-0.3c-0.33-0.11-0.65-0.23-0.96-0.37
	c-0.31-0.14-0.59-0.32-0.83-0.53c-0.24-0.21-0.44-0.47-0.59-0.78c-0.15-0.31-0.22-0.68-0.22-1.12c0-0.39,0.08-0.77,0.24-1.13
	c0.16-0.36,0.4-0.68,0.71-0.95c0.31-0.27,0.69-0.49,1.15-0.65c0.46-0.16,0.98-0.24,1.56-0.24c0.67,0,1.28,0.11,1.82,0.32
	c0.54,0.21,1.01,0.51,1.39,0.88L32.6,47.11z M37.49,42.23c0,0.18-0.04,0.35-0.11,0.51c-0.07,0.16-0.17,0.31-0.29,0.43
	c-0.12,0.12-0.27,0.22-0.43,0.29c-0.17,0.07-0.34,0.1-0.52,0.1c-0.18,0-0.35-0.03-0.51-0.1c-0.16-0.07-0.3-0.17-0.42-0.29
	c-0.12-0.12-0.22-0.27-0.29-0.43c-0.07-0.16-0.1-0.33-0.1-0.51c0-0.19,0.03-0.36,0.1-0.52c0.07-0.16,0.17-0.31,0.29-0.43
	c0.12-0.12,0.26-0.22,0.42-0.29c0.16-0.07,0.33-0.1,0.51-0.1c0.18,0,0.35,0.03,0.52,0.1c0.17,0.07,0.31,0.17,0.43,0.29
	c0.12,0.12,0.22,0.27,0.29,0.43C37.45,41.87,37.49,42.04,37.49,42.23z M37.12,45.36V55.5h-1.95V45.36H37.12z M39.73,55.5V45.36h1.17
	c0.27,0,0.44,0.13,0.51,0.39l0.14,0.97c0.37-0.45,0.79-0.81,1.24-1.09c0.46-0.28,0.99-0.42,1.6-0.42c0.67,0,1.22,0.18,1.64,0.55
	c0.42,0.37,0.73,0.87,0.92,1.5c0.15-0.36,0.34-0.67,0.57-0.93c0.23-0.26,0.49-0.47,0.78-0.64c0.29-0.17,0.59-0.29,0.91-0.37
	c0.32-0.08,0.65-0.12,0.98-0.12c0.54,0,1.02,0.08,1.44,0.25c0.42,0.17,0.78,0.42,1.07,0.74c0.29,0.33,0.52,0.73,0.67,1.21
	c0.15,0.48,0.23,1.02,0.23,1.64v6.46h-1.96v-6.46c0-0.76-0.16-1.33-0.49-1.72c-0.33-0.39-0.81-0.58-1.44-0.58
	c-0.28,0-0.55,0.05-0.8,0.14c-0.25,0.1-0.47,0.24-0.66,0.43c-0.19,0.19-0.34,0.43-0.45,0.72c-0.11,0.29-0.16,0.62-0.16,1v6.46h-1.96
	v-6.46c0-0.79-0.16-1.36-0.47-1.74c-0.31-0.37-0.77-0.56-1.38-0.56c-0.42,0-0.81,0.11-1.17,0.33c-0.36,0.22-0.69,0.52-0.99,0.9v7.53
	H39.73z M58.43,42.23c0,0.18-0.04,0.35-0.11,0.51c-0.07,0.16-0.17,0.31-0.29,0.43c-0.12,0.12-0.27,0.22-0.43,0.29
	c-0.17,0.07-0.34,0.1-0.52,0.1s-0.35-0.03-0.51-0.1c-0.16-0.07-0.3-0.17-0.42-0.29c-0.12-0.12-0.22-0.27-0.29-0.43
	c-0.07-0.16-0.1-0.33-0.1-0.51c0-0.19,0.03-0.36,0.1-0.52c0.07-0.16,0.17-0.31,0.29-0.43c0.12-0.12,0.26-0.22,0.42-0.29
	c0.16-0.07,0.33-0.1,0.51-0.1s0.35,0.03,0.52,0.1c0.17,0.07,0.31,0.17,0.43,0.29c0.12,0.12,0.22,0.27,0.29,0.43
	C58.39,41.87,58.43,42.04,58.43,42.23z M58.06,45.36V55.5h-1.95V45.36H58.06z M62.67,40.77V55.5h-1.96V40.77H62.67z M64.99,46.78
	c0.57-0.54,1.18-0.94,1.84-1.21c0.66-0.27,1.39-0.4,2.18-0.4c0.58,0,1.09,0.09,1.54,0.28c0.45,0.19,0.82,0.45,1.13,0.79
	c0.31,0.34,0.54,0.75,0.69,1.22c0.16,0.47,0.23,0.99,0.23,1.57v6.47h-0.87c-0.19,0-0.34-0.03-0.44-0.09
	c-0.1-0.06-0.18-0.18-0.24-0.35l-0.21-0.89c-0.26,0.24-0.52,0.45-0.77,0.63c-0.25,0.18-0.52,0.34-0.79,0.47
	c-0.28,0.13-0.57,0.23-0.88,0.29c-0.31,0.07-0.66,0.1-1.04,0.1c-0.4,0-0.77-0.05-1.12-0.16c-0.35-0.11-0.65-0.28-0.91-0.5
	c-0.26-0.23-0.46-0.51-0.61-0.85c-0.15-0.34-0.22-0.74-0.22-1.19c0-0.4,0.11-0.78,0.32-1.15c0.22-0.37,0.57-0.7,1.06-0.99
	c0.49-0.29,1.13-0.53,1.92-0.72c0.79-0.19,1.76-0.29,2.91-0.32v-0.74c0-0.77-0.16-1.34-0.49-1.72c-0.33-0.38-0.81-0.57-1.44-0.57
	c-0.43,0-0.78,0.05-1.07,0.16c-0.29,0.11-0.54,0.22-0.75,0.35c-0.21,0.13-0.39,0.25-0.55,0.35c-0.16,0.11-0.32,0.16-0.48,0.16
	c-0.13,0-0.25-0.04-0.34-0.11c-0.1-0.07-0.17-0.16-0.23-0.26L64.99,46.78z M70.69,51c-0.79,0.03-1.46,0.09-2.02,0.18
	c-0.55,0.1-1,0.22-1.35,0.38c-0.35,0.16-0.6,0.35-0.75,0.56c-0.15,0.22-0.23,0.46-0.23,0.72c0,0.25,0.04,0.47,0.12,0.65
	c0.08,0.18,0.2,0.33,0.34,0.45c0.14,0.12,0.31,0.2,0.5,0.25c0.19,0.05,0.4,0.08,0.63,0.08c0.3,0,0.57-0.03,0.82-0.09
	c0.25-0.06,0.48-0.14,0.7-0.25c0.22-0.11,0.43-0.24,0.63-0.4c0.2-0.16,0.4-0.34,0.59-0.55V51z M76.85,47.31
	c0.33-0.67,0.72-1.19,1.18-1.57c0.46-0.38,1.01-0.57,1.66-0.57c0.22,0,0.43,0.02,0.62,0.07c0.2,0.05,0.37,0.12,0.51,0.22l-0.13,1.47
	c-0.05,0.18-0.16,0.27-0.33,0.27c-0.09,0-0.23-0.02-0.42-0.05c-0.19-0.04-0.39-0.05-0.6-0.05c-0.31,0-0.59,0.04-0.83,0.13
	c-0.24,0.09-0.45,0.22-0.64,0.4c-0.19,0.18-0.36,0.39-0.5,0.65c-0.15,0.26-0.28,0.55-0.41,0.87v6.35h-1.95V45.36h1.12
	c0.21,0,0.36,0.04,0.43,0.11c0.08,0.08,0.13,0.21,0.16,0.4L76.85,47.31z M94.87,54.05c-0.24,0.28-0.52,0.52-0.83,0.72
	c-0.31,0.2-0.65,0.37-1,0.49c-0.35,0.13-0.72,0.22-1.09,0.28c-0.38,0.06-0.75,0.09-1.11,0.09c-0.7,0-1.35-0.12-1.94-0.35
	c-0.6-0.24-1.11-0.58-1.55-1.04c-0.44-0.46-0.78-1.02-1.02-1.7c-0.24-0.68-0.36-1.45-0.36-2.33c0-0.71,0.11-1.36,0.33-1.97
	c0.22-0.61,0.53-1.14,0.94-1.59c0.41-0.45,0.91-0.81,1.5-1.07c0.59-0.26,1.26-0.39,2-0.39c0.62,0,1.19,0.1,1.71,0.3
	c0.52,0.2,0.97,0.5,1.35,0.88c0.38,0.39,0.68,0.86,0.89,1.43c0.22,0.57,0.32,1.21,0.32,1.94c0,0.3-0.03,0.5-0.1,0.6
	c-0.07,0.1-0.19,0.15-0.37,0.15H87.9c0.02,0.61,0.11,1.13,0.26,1.58c0.15,0.45,0.36,0.82,0.63,1.12c0.27,0.3,0.59,0.52,0.96,0.67
	c0.37,0.15,0.79,0.22,1.25,0.22c0.43,0,0.81-0.05,1.12-0.15c0.32-0.1,0.59-0.21,0.82-0.32c0.23-0.12,0.42-0.22,0.58-0.32
	c0.16-0.1,0.29-0.15,0.41-0.15c0.16,0,0.28,0.06,0.37,0.18L94.87,54.05z M93.26,49.3c0-0.39-0.05-0.74-0.16-1.07
	c-0.11-0.33-0.27-0.61-0.48-0.85c-0.21-0.24-0.47-0.43-0.78-0.56c-0.31-0.13-0.66-0.2-1.06-0.2c-0.82,0-1.46,0.24-1.93,0.71
	c-0.47,0.47-0.77,1.13-0.89,1.97H93.26z M97.48,55.5v-8.54l-1.06-0.13c-0.15-0.03-0.28-0.09-0.37-0.16
	c-0.1-0.08-0.14-0.19-0.14-0.33v-0.81h1.58v-0.76c0-0.58,0.08-1.09,0.25-1.55c0.17-0.45,0.4-0.84,0.71-1.15
	c0.31-0.32,0.68-0.56,1.12-0.72c0.44-0.16,0.93-0.24,1.48-0.24c0.45,0,0.87,0.07,1.27,0.2l-0.05,0.99
	c-0.01,0.08-0.03,0.14-0.08,0.18c-0.05,0.04-0.11,0.07-0.18,0.09c-0.08,0.02-0.17,0.03-0.28,0.03c-0.11,0-0.23,0.01-0.35,0.01
	c-0.3,0-0.57,0.04-0.82,0.11c-0.25,0.07-0.46,0.2-0.63,0.37c-0.17,0.17-0.31,0.4-0.4,0.68c-0.09,0.28-0.14,0.63-0.14,1.05v0.7h4.44
	v-0.49c0-0.62,0.1-1.19,0.29-1.71c0.2-0.52,0.49-0.97,0.88-1.35c0.39-0.38,0.88-0.67,1.48-0.88c0.59-0.21,1.28-0.31,2.08-0.31
	c0.25,0,0.52,0.02,0.79,0.05c0.28,0.03,0.51,0.08,0.7,0.15l-0.07,1.02c-0.01,0.13-0.1,0.2-0.25,0.21c-0.15,0.01-0.36,0.01-0.63,0.01
	c-0.61,0-1.12,0.06-1.55,0.18c-0.43,0.12-0.78,0.3-1.05,0.54c-0.27,0.24-0.47,0.54-0.6,0.9c-0.13,0.36-0.19,0.78-0.19,1.26v0.43
	h6.17v9.98h-1.95v-8.56h-4.16v8.56h-1.95v-8.56h-4.38v8.56H97.48z M121.6,47.26c-0.06,0.07-0.12,0.13-0.17,0.17
	c-0.06,0.04-0.14,0.06-0.24,0.06c-0.11,0-0.22-0.04-0.33-0.12c-0.12-0.08-0.26-0.17-0.44-0.27c-0.18-0.1-0.39-0.19-0.64-0.27
	c-0.25-0.08-0.56-0.12-0.92-0.12c-0.48,0-0.9,0.09-1.27,0.26c-0.37,0.17-0.67,0.42-0.91,0.74c-0.24,0.32-0.43,0.71-0.55,1.17
	c-0.13,0.46-0.19,0.97-0.19,1.55c0,0.59,0.07,1.12,0.2,1.58c0.13,0.46,0.32,0.85,0.57,1.17c0.25,0.32,0.55,0.56,0.9,0.72
	c0.35,0.16,0.75,0.24,1.18,0.24c0.42,0,0.77-0.05,1.04-0.15c0.27-0.1,0.5-0.21,0.68-0.33c0.18-0.12,0.33-0.23,0.45-0.33
	c0.12-0.1,0.24-0.15,0.37-0.15c0.16,0,0.28,0.06,0.37,0.18l0.56,0.72c-0.23,0.29-0.49,0.53-0.78,0.73c-0.29,0.2-0.6,0.36-0.92,0.49
	c-0.33,0.13-0.67,0.22-1.02,0.28c-0.36,0.06-0.72,0.09-1.08,0.09c-0.63,0-1.22-0.12-1.77-0.35c-0.55-0.23-1.02-0.57-1.43-1.02
	c-0.4-0.45-0.72-0.99-0.95-1.64c-0.23-0.65-0.35-1.39-0.35-2.21c0-0.75,0.1-1.45,0.31-2.09c0.21-0.64,0.52-1.19,0.93-1.65
	c0.41-0.46,0.91-0.82,1.51-1.09c0.6-0.26,1.28-0.39,2.06-0.39c0.73,0,1.36,0.12,1.92,0.35c0.55,0.23,1.04,0.56,1.48,0.99
	L121.6,47.26z M123.57,46.78c0.57-0.54,1.18-0.94,1.84-1.21c0.66-0.27,1.39-0.4,2.18-0.4c0.58,0,1.09,0.09,1.54,0.28
	c0.45,0.19,0.82,0.45,1.13,0.79c0.31,0.34,0.54,0.75,0.69,1.22c0.16,0.47,0.23,0.99,0.23,1.57v6.47h-0.87
	c-0.19,0-0.34-0.03-0.44-0.09c-0.1-0.06-0.18-0.18-0.24-0.35l-0.21-0.89c-0.26,0.24-0.52,0.45-0.77,0.63
	c-0.25,0.18-0.52,0.34-0.79,0.47c-0.28,0.13-0.57,0.23-0.88,0.29c-0.31,0.07-0.66,0.1-1.04,0.1c-0.4,0-0.77-0.05-1.12-0.16
	c-0.35-0.11-0.65-0.28-0.91-0.5c-0.26-0.23-0.46-0.51-0.61-0.85c-0.15-0.34-0.22-0.74-0.22-1.19c0-0.4,0.11-0.78,0.32-1.15
	c0.22-0.37,0.57-0.7,1.06-0.99c0.49-0.29,1.13-0.53,1.92-0.72c0.79-0.19,1.76-0.29,2.91-0.32v-0.74c0-0.77-0.16-1.34-0.49-1.72
	c-0.33-0.38-0.81-0.57-1.44-0.57c-0.43,0-0.78,0.05-1.07,0.16c-0.29,0.11-0.54,0.22-0.75,0.35c-0.21,0.13-0.39,0.25-0.55,0.35
	c-0.16,0.11-0.32,0.16-0.48,0.16c-0.13,0-0.25-0.04-0.34-0.11c-0.1-0.07-0.17-0.16-0.23-0.26L123.57,46.78z M129.28,51
	c-0.79,0.03-1.46,0.09-2.02,0.18c-0.55,0.1-1,0.22-1.35,0.38c-0.35,0.16-0.6,0.35-0.75,0.56c-0.15,0.22-0.23,0.46-0.23,0.72
	c0,0.25,0.04,0.47,0.12,0.65c0.08,0.18,0.2,0.33,0.34,0.45c0.14,0.12,0.31,0.2,0.5,0.25c0.19,0.05,0.4,0.08,0.63,0.08
	c0.3,0,0.57-0.03,0.82-0.09c0.25-0.06,0.48-0.14,0.7-0.25c0.22-0.11,0.43-0.24,0.63-0.4c0.2-0.16,0.4-0.34,0.59-0.55V51z
	 M140.7,47.26c-0.06,0.07-0.12,0.13-0.17,0.17c-0.06,0.04-0.14,0.06-0.24,0.06c-0.11,0-0.22-0.04-0.33-0.12
	c-0.12-0.08-0.26-0.17-0.44-0.27c-0.18-0.1-0.39-0.19-0.64-0.27c-0.25-0.08-0.56-0.12-0.92-0.12c-0.48,0-0.9,0.09-1.27,0.26
	c-0.37,0.17-0.67,0.42-0.91,0.74c-0.24,0.32-0.43,0.71-0.55,1.17c-0.13,0.46-0.19,0.97-0.19,1.55c0,0.59,0.07,1.12,0.2,1.58
	c0.13,0.46,0.32,0.85,0.57,1.17c0.25,0.32,0.55,0.56,0.9,0.72c0.35,0.16,0.75,0.24,1.18,0.24c0.42,0,0.77-0.05,1.04-0.15
	c0.27-0.1,0.5-0.21,0.68-0.33c0.18-0.12,0.33-0.23,0.45-0.33c0.12-0.1,0.24-0.15,0.37-0.15c0.16,0,0.28,0.06,0.37,0.18l0.56,0.72
	c-0.23,0.29-0.49,0.53-0.78,0.73c-0.29,0.2-0.6,0.36-0.92,0.49c-0.33,0.13-0.67,0.22-1.02,0.28c-0.36,0.06-0.72,0.09-1.08,0.09
	c-0.63,0-1.22-0.12-1.77-0.35c-0.55-0.23-1.02-0.57-1.43-1.02c-0.4-0.45-0.72-0.99-0.95-1.64c-0.23-0.65-0.35-1.39-0.35-2.21
	c0-0.75,0.1-1.45,0.31-2.09s0.52-1.19,0.93-1.65c0.41-0.46,0.91-0.82,1.51-1.09c0.6-0.26,1.28-0.39,2.06-0.39
	c0.73,0,1.36,0.12,1.92,0.35c0.55,0.23,1.04,0.56,1.48,0.99L140.7,47.26z M151.8,45.36l-5.63,13.09c-0.06,0.15-0.14,0.26-0.24,0.34
	c-0.1,0.08-0.25,0.12-0.44,0.12h-1.45l1.86-4.04l-4.16-9.5h1.7c0.17,0,0.3,0.04,0.39,0.12c0.09,0.08,0.16,0.17,0.2,0.27l2.58,6.09
	c0.05,0.15,0.1,0.31,0.15,0.46c0.05,0.16,0.09,0.31,0.12,0.46c0.05-0.16,0.1-0.32,0.15-0.47c0.05-0.16,0.11-0.31,0.17-0.46
	l2.49-6.08c0.05-0.11,0.12-0.21,0.22-0.28c0.1-0.07,0.21-0.11,0.34-0.11H151.8z M164.54,47.26c-0.06,0.07-0.12,0.13-0.17,0.17
	c-0.06,0.04-0.14,0.06-0.24,0.06c-0.11,0-0.22-0.04-0.33-0.12c-0.12-0.08-0.26-0.17-0.44-0.27c-0.18-0.1-0.39-0.19-0.64-0.27
	c-0.25-0.08-0.56-0.12-0.92-0.12c-0.48,0-0.9,0.09-1.27,0.26c-0.37,0.17-0.67,0.42-0.91,0.74c-0.24,0.32-0.43,0.71-0.55,1.17
	c-0.13,0.46-0.19,0.97-0.19,1.55c0,0.59,0.07,1.12,0.2,1.58c0.13,0.46,0.32,0.85,0.57,1.17c0.25,0.32,0.55,0.56,0.9,0.72
	c0.35,0.16,0.75,0.24,1.18,0.24c0.42,0,0.77-0.05,1.04-0.15c0.27-0.1,0.5-0.21,0.68-0.33c0.18-0.12,0.33-0.23,0.45-0.33
	c0.12-0.1,0.24-0.15,0.37-0.15c0.16,0,0.28,0.06,0.37,0.18l0.56,0.72c-0.23,0.29-0.49,0.53-0.78,0.73c-0.29,0.2-0.6,0.36-0.92,0.49
	c-0.33,0.13-0.67,0.22-1.02,0.28c-0.36,0.06-0.72,0.09-1.08,0.09c-0.63,0-1.22-0.12-1.77-0.35c-0.55-0.23-1.02-0.57-1.43-1.02
	c-0.4-0.45-0.72-0.99-0.95-1.64c-0.23-0.65-0.35-1.39-0.35-2.21c0-0.75,0.1-1.45,0.31-2.09s0.52-1.19,0.93-1.65
	c0.41-0.46,0.91-0.82,1.51-1.09c0.6-0.26,1.28-0.39,2.06-0.39c0.73,0,1.36,0.12,1.92,0.35c0.55,0.23,1.04,0.56,1.48,0.99
	L164.54,47.26z M170.93,45.2c0.75,0,1.42,0.12,2.02,0.36c0.6,0.24,1.11,0.59,1.54,1.05c0.42,0.46,0.75,1,0.97,1.65
	c0.23,0.64,0.34,1.36,0.34,2.16s-0.11,1.52-0.34,2.17c-0.23,0.65-0.55,1.19-0.97,1.65c-0.42,0.45-0.93,0.8-1.54,1.04
	c-0.6,0.24-1.28,0.36-2.02,0.36c-0.75,0-1.43-0.12-2.03-0.36c-0.6-0.24-1.12-0.59-1.54-1.04c-0.43-0.45-0.75-1-0.98-1.65
	c-0.23-0.65-0.34-1.37-0.34-2.17s0.11-1.52,0.34-2.16c0.23-0.64,0.56-1.19,0.98-1.65c0.43-0.46,0.94-0.81,1.54-1.05
	C169.5,45.32,170.17,45.2,170.93,45.2z M170.93,54.12c0.96,0,1.67-0.32,2.15-0.97c0.47-0.65,0.71-1.55,0.71-2.72
	c0-1.17-0.24-2.08-0.71-2.73c-0.47-0.65-1.19-0.97-2.15-0.97c-0.97,0-1.7,0.32-2.17,0.97c-0.48,0.65-0.71,1.56-0.71,2.73
	c0,1.17,0.24,2.08,0.71,2.72C169.23,53.8,169.95,54.12,170.93,54.12z M177.76,55.5V45.36h1.17c0.27,0,0.44,0.13,0.51,0.39l0.14,0.97
	c0.37-0.45,0.79-0.81,1.24-1.09c0.46-0.28,0.99-0.42,1.6-0.42c0.67,0,1.22,0.18,1.64,0.55c0.42,0.37,0.73,0.87,0.92,1.5
	c0.15-0.36,0.34-0.67,0.57-0.93c0.23-0.26,0.49-0.47,0.78-0.64c0.29-0.17,0.59-0.29,0.91-0.37c0.32-0.08,0.65-0.12,0.98-0.12
	c0.54,0,1.02,0.08,1.44,0.25c0.42,0.17,0.78,0.42,1.07,0.74c0.29,0.33,0.52,0.73,0.67,1.21c0.15,0.48,0.23,1.02,0.23,1.64v6.46
	h-1.96v-6.46c0-0.76-0.16-1.33-0.49-1.72c-0.33-0.39-0.81-0.58-1.44-0.58c-0.28,0-0.55,0.05-0.8,0.14c-0.25,0.1-0.47,0.24-0.66,0.43
	c-0.19,0.19-0.34,0.43-0.45,0.72c-0.11,0.29-0.16,0.62-0.16,1v6.46h-1.96v-6.46c0-0.79-0.16-1.36-0.47-1.74
	c-0.31-0.37-0.77-0.56-1.38-0.56c-0.42,0-0.81,0.11-1.17,0.33c-0.36,0.22-0.69,0.52-0.99,0.9v7.53H177.76z M195.9,46.88
	c0.21-0.25,0.44-0.48,0.68-0.69c0.24-0.21,0.5-0.39,0.78-0.54c0.28-0.15,0.58-0.27,0.89-0.35c0.32-0.08,0.65-0.12,1.01-0.12
	c0.58,0,1.1,0.11,1.57,0.34c0.47,0.23,0.87,0.56,1.2,1c0.33,0.44,0.59,0.98,0.77,1.63c0.18,0.65,0.27,1.39,0.27,2.23
	c0,0.75-0.1,1.45-0.3,2.09c-0.2,0.64-0.49,1.2-0.87,1.67c-0.38,0.47-0.84,0.84-1.38,1.11c-0.54,0.27-1.15,0.4-1.83,0.4
	c-0.61,0-1.12-0.1-1.56-0.3c-0.43-0.2-0.82-0.48-1.16-0.84v4.4h-1.95V45.36h1.17c0.27,0,0.44,0.13,0.51,0.39L195.9,46.88z
	 M196,53.01c0.32,0.42,0.66,0.71,1.03,0.88c0.37,0.17,0.78,0.25,1.24,0.25c0.89,0,1.58-0.32,2.07-0.96
	c0.49-0.64,0.73-1.58,0.73-2.81c0-0.65-0.05-1.2-0.16-1.65c-0.11-0.46-0.27-0.83-0.48-1.12c-0.21-0.29-0.47-0.5-0.77-0.64
	c-0.31-0.14-0.65-0.2-1.04-0.2c-0.57,0-1.06,0.13-1.47,0.38c-0.42,0.25-0.8,0.61-1.15,1.08V53.01z M204.82,46.78
	c0.57-0.54,1.18-0.94,1.84-1.21c0.66-0.27,1.39-0.4,2.18-0.4c0.58,0,1.09,0.09,1.54,0.28c0.45,0.19,0.82,0.45,1.13,0.79
	c0.31,0.34,0.54,0.75,0.69,1.22c0.16,0.47,0.23,0.99,0.23,1.57v6.47h-0.87c-0.19,0-0.34-0.03-0.44-0.09
	c-0.1-0.06-0.18-0.18-0.24-0.35l-0.21-0.89c-0.26,0.24-0.52,0.45-0.77,0.63c-0.25,0.18-0.52,0.34-0.79,0.47
	c-0.28,0.13-0.57,0.23-0.88,0.29c-0.31,0.07-0.66,0.1-1.04,0.1c-0.4,0-0.77-0.05-1.12-0.16c-0.35-0.11-0.65-0.28-0.91-0.5
	c-0.26-0.23-0.46-0.51-0.61-0.85c-0.15-0.34-0.22-0.74-0.22-1.19c0-0.4,0.11-0.78,0.32-1.15c0.22-0.37,0.57-0.7,1.06-0.99
	c0.49-0.29,1.13-0.53,1.92-0.72c0.79-0.19,1.76-0.29,2.91-0.32v-0.74c0-0.77-0.16-1.34-0.49-1.72c-0.33-0.38-0.81-0.57-1.44-0.57
	c-0.43,0-0.78,0.05-1.07,0.16c-0.29,0.11-0.54,0.22-0.75,0.35c-0.21,0.13-0.39,0.25-0.55,0.35c-0.16,0.11-0.32,0.16-0.48,0.16
	c-0.13,0-0.25-0.04-0.34-0.11c-0.1-0.07-0.17-0.16-0.23-0.26L204.82,46.78z M210.53,51c-0.79,0.03-1.46,0.09-2.02,0.18
	c-0.55,0.1-1,0.22-1.35,0.38c-0.35,0.16-0.6,0.35-0.75,0.56c-0.15,0.22-0.23,0.46-0.23,0.72c0,0.25,0.04,0.47,0.12,0.65
	c0.08,0.18,0.2,0.33,0.34,0.45c0.14,0.12,0.31,0.2,0.5,0.25c0.19,0.05,0.4,0.08,0.63,0.08c0.3,0,0.57-0.03,0.82-0.09
	c0.25-0.06,0.48-0.14,0.7-0.25c0.22-0.11,0.43-0.24,0.63-0.4c0.2-0.16,0.4-0.34,0.59-0.55V51z M216.68,47.31
	c0.33-0.67,0.72-1.19,1.18-1.57c0.46-0.38,1.01-0.57,1.66-0.57c0.22,0,0.43,0.02,0.62,0.07c0.2,0.05,0.37,0.12,0.51,0.22l-0.13,1.47
	c-0.05,0.18-0.16,0.27-0.33,0.27c-0.09,0-0.23-0.02-0.42-0.05c-0.19-0.04-0.39-0.05-0.6-0.05c-0.31,0-0.59,0.04-0.83,0.13
	c-0.24,0.09-0.45,0.22-0.64,0.4c-0.19,0.18-0.36,0.39-0.5,0.65c-0.15,0.26-0.28,0.55-0.41,0.87v6.35h-1.95V45.36h1.12
	c0.21,0,0.36,0.04,0.43,0.11c0.08,0.08,0.13,0.21,0.16,0.4L216.68,47.31z M229.9,54.05c-0.24,0.28-0.52,0.52-0.83,0.72
	c-0.31,0.2-0.65,0.37-1,0.49c-0.35,0.13-0.72,0.22-1.09,0.28c-0.38,0.06-0.75,0.09-1.11,0.09c-0.7,0-1.35-0.12-1.94-0.35
	c-0.6-0.24-1.11-0.58-1.55-1.04c-0.44-0.46-0.78-1.02-1.02-1.7c-0.24-0.68-0.36-1.45-0.36-2.33c0-0.71,0.11-1.36,0.33-1.97
	c0.22-0.61,0.53-1.14,0.94-1.59c0.41-0.45,0.91-0.81,1.5-1.07c0.59-0.26,1.26-0.39,2-0.39c0.62,0,1.19,0.1,1.71,0.3
	c0.52,0.2,0.97,0.5,1.35,0.88c0.38,0.39,0.68,0.86,0.89,1.43c0.22,0.57,0.32,1.21,0.32,1.94c0,0.3-0.03,0.5-0.1,0.6
	c-0.07,0.1-0.19,0.15-0.37,0.15h-6.65c0.02,0.61,0.11,1.13,0.26,1.58c0.15,0.45,0.36,0.82,0.63,1.12c0.27,0.3,0.59,0.52,0.96,0.67
	c0.37,0.15,0.79,0.22,1.25,0.22c0.43,0,0.81-0.05,1.12-0.15c0.32-0.1,0.59-0.21,0.82-0.32c0.23-0.12,0.42-0.22,0.58-0.32
	c0.16-0.1,0.29-0.15,0.41-0.15c0.16,0,0.28,0.06,0.37,0.18L229.9,54.05z M228.3,49.3c0-0.39-0.05-0.74-0.16-1.07
	c-0.11-0.33-0.27-0.61-0.48-0.85c-0.21-0.24-0.47-0.43-0.78-0.56c-0.31-0.13-0.66-0.2-1.06-0.2c-0.82,0-1.46,0.24-1.93,0.71
	c-0.47,0.47-0.77,1.13-0.89,1.97H228.3z M240.43,40.77V55.5h-1.18c-0.27,0-0.44-0.13-0.51-0.39l-0.17-1.17
	c-0.43,0.51-0.92,0.92-1.47,1.23s-1.18,0.46-1.9,0.46c-0.58,0-1.1-0.11-1.57-0.34c-0.47-0.23-0.87-0.56-1.2-0.99
	c-0.33-0.44-0.59-0.98-0.77-1.62c-0.18-0.65-0.27-1.39-0.27-2.23c0-0.75,0.1-1.45,0.3-2.1c0.2-0.65,0.49-1.2,0.87-1.68
	c0.38-0.47,0.84-0.84,1.38-1.11c0.54-0.27,1.15-0.4,1.83-0.4c0.61,0,1.13,0.1,1.56,0.3c0.43,0.2,0.81,0.48,1.15,0.85v-5.55H240.43z
	 M238.48,47.82c-0.32-0.42-0.66-0.71-1.03-0.88c-0.37-0.17-0.78-0.25-1.24-0.25c-0.89,0-1.58,0.32-2.07,0.96
	c-0.49,0.64-0.73,1.58-0.73,2.81c0,0.65,0.05,1.2,0.16,1.65c0.11,0.46,0.27,0.83,0.48,1.12c0.21,0.29,0.47,0.5,0.77,0.64
	c0.31,0.14,0.65,0.2,1.04,0.2c0.57,0,1.05-0.13,1.47-0.38c0.41-0.25,0.8-0.61,1.16-1.07V47.82z M250.96,55.66
	c-0.82,0-1.45-0.23-1.89-0.69c-0.44-0.46-0.66-1.11-0.66-1.97v-6.07h-1.18c-0.11,0-0.21-0.03-0.28-0.1
	c-0.08-0.07-0.11-0.17-0.11-0.31v-0.79l1.65-0.23l0.44-3.02c0.03-0.11,0.08-0.2,0.15-0.26c0.08-0.06,0.17-0.09,0.29-0.09h0.99v3.4
	h2.87v1.42h-2.87v5.94c0,0.4,0.1,0.7,0.29,0.89c0.2,0.2,0.45,0.29,0.75,0.29c0.18,0,0.33-0.02,0.46-0.07
	c0.13-0.05,0.24-0.1,0.33-0.15c0.09-0.06,0.17-0.11,0.24-0.15c0.07-0.05,0.13-0.07,0.18-0.07c0.07,0,0.12,0.01,0.15,0.04
	c0.04,0.03,0.07,0.08,0.11,0.14l0.58,0.94c-0.32,0.29-0.7,0.52-1.14,0.68C251.89,55.58,251.44,55.66,250.96,55.66z M259.08,45.2
	c0.75,0,1.42,0.12,2.02,0.36c0.6,0.24,1.11,0.59,1.54,1.05c0.42,0.46,0.75,1,0.97,1.65c0.23,0.64,0.34,1.36,0.34,2.16
	s-0.11,1.52-0.34,2.17c-0.23,0.65-0.55,1.19-0.97,1.65c-0.42,0.45-0.93,0.8-1.54,1.04c-0.6,0.24-1.28,0.36-2.02,0.36
	c-0.75,0-1.43-0.12-2.03-0.36c-0.6-0.24-1.12-0.59-1.54-1.04c-0.43-0.45-0.75-1-0.98-1.65c-0.23-0.65-0.34-1.37-0.34-2.17
	s0.11-1.52,0.34-2.16c0.23-0.64,0.56-1.19,0.98-1.65c0.43-0.46,0.94-0.81,1.54-1.05C257.65,45.32,258.33,45.2,259.08,45.2z
	 M259.08,54.12c0.96,0,1.67-0.32,2.15-0.97c0.47-0.65,0.71-1.55,0.71-2.72c0-1.17-0.24-2.08-0.71-2.73
	c-0.47-0.65-1.19-0.97-2.15-0.97c-0.97,0-1.7,0.32-2.17,0.97c-0.48,0.65-0.71,1.56-0.71,2.73c0,1.17,0.24,2.08,0.71,2.72
	C257.38,53.8,258.11,54.12,259.08,54.12z M273.92,55.66c-0.82,0-1.45-0.23-1.89-0.69c-0.44-0.46-0.66-1.11-0.66-1.97v-6.07h-1.18
	c-0.11,0-0.21-0.03-0.28-0.1c-0.08-0.07-0.11-0.17-0.11-0.31v-0.79l1.65-0.23l0.44-3.02c0.03-0.11,0.08-0.2,0.15-0.26
	c0.08-0.06,0.17-0.09,0.29-0.09h0.99v3.4h2.87v1.42h-2.87v5.94c0,0.4,0.1,0.7,0.29,0.89c0.2,0.2,0.45,0.29,0.75,0.29
	c0.18,0,0.33-0.02,0.46-0.07c0.13-0.05,0.24-0.1,0.33-0.15c0.09-0.06,0.17-0.11,0.24-0.15c0.07-0.05,0.13-0.07,0.18-0.07
	c0.07,0,0.12,0.01,0.15,0.04c0.04,0.03,0.07,0.08,0.11,0.14l0.58,0.94c-0.32,0.29-0.7,0.52-1.14,0.68
	C274.85,55.58,274.39,55.66,273.92,55.66z M279.72,46.65c0.43-0.43,0.9-0.78,1.41-1.05c0.52-0.27,1.11-0.4,1.78-0.4
	c0.56,0,1.05,0.09,1.47,0.28c0.42,0.19,0.78,0.45,1.06,0.78c0.29,0.34,0.5,0.74,0.65,1.21c0.15,0.47,0.22,0.99,0.22,1.57v6.46h-1.96
	v-6.46c0-0.73-0.17-1.29-0.5-1.69c-0.33-0.4-0.84-0.6-1.53-0.6c-0.5,0-0.97,0.12-1.4,0.35c-0.44,0.24-0.84,0.56-1.21,0.96v7.44
	h-1.95V40.77h1.95V46.65z M297.06,54.05c-0.24,0.28-0.52,0.52-0.83,0.72c-0.31,0.2-0.65,0.37-1,0.49c-0.35,0.13-0.72,0.22-1.09,0.28
	c-0.38,0.06-0.75,0.09-1.11,0.09c-0.7,0-1.35-0.12-1.94-0.35c-0.6-0.24-1.11-0.58-1.55-1.04c-0.44-0.46-0.78-1.02-1.02-1.7
	c-0.24-0.68-0.36-1.45-0.36-2.33c0-0.71,0.11-1.36,0.33-1.97c0.22-0.61,0.53-1.14,0.94-1.59c0.41-0.45,0.91-0.81,1.5-1.07
	c0.59-0.26,1.26-0.39,2-0.39c0.62,0,1.19,0.1,1.71,0.3c0.52,0.2,0.97,0.5,1.35,0.88c0.38,0.39,0.68,0.86,0.89,1.43
	c0.22,0.57,0.32,1.21,0.32,1.94c0,0.3-0.03,0.5-0.1,0.6c-0.07,0.1-0.19,0.15-0.37,0.15h-6.65c0.02,0.61,0.11,1.13,0.26,1.58
	c0.15,0.45,0.36,0.82,0.63,1.12c0.27,0.3,0.59,0.52,0.96,0.67c0.37,0.15,0.79,0.22,1.25,0.22c0.43,0,0.81-0.05,1.12-0.15
	c0.32-0.1,0.59-0.21,0.82-0.32c0.23-0.12,0.42-0.22,0.58-0.32c0.16-0.1,0.29-0.15,0.41-0.15c0.16,0,0.28,0.06,0.37,0.18
	L297.06,54.05z M295.45,49.3c0-0.39-0.05-0.74-0.16-1.07c-0.11-0.33-0.27-0.61-0.48-0.85c-0.21-0.24-0.47-0.43-0.78-0.56
	c-0.31-0.13-0.66-0.2-1.06-0.2c-0.82,0-1.46,0.24-1.93,0.71c-0.47,0.47-0.77,1.13-0.89,1.97H295.45z M308.25,45.2
	c0.75,0,1.42,0.12,2.02,0.36c0.6,0.24,1.11,0.59,1.54,1.05c0.42,0.46,0.75,1,0.97,1.65c0.23,0.64,0.34,1.36,0.34,2.16
	s-0.11,1.52-0.34,2.17c-0.23,0.65-0.55,1.19-0.97,1.65c-0.42,0.45-0.93,0.8-1.54,1.04c-0.6,0.24-1.28,0.36-2.02,0.36
	c-0.75,0-1.43-0.12-2.03-0.36c-0.6-0.24-1.12-0.59-1.54-1.04c-0.43-0.45-0.75-1-0.98-1.65c-0.23-0.65-0.34-1.37-0.34-2.17
	s0.11-1.52,0.34-2.16c0.23-0.64,0.56-1.19,0.98-1.65c0.43-0.46,0.94-0.81,1.54-1.05C306.82,45.32,307.49,45.2,308.25,45.2z
	 M308.25,54.12c0.96,0,1.67-0.32,2.15-0.97c0.47-0.65,0.71-1.55,0.71-2.72c0-1.17-0.24-2.08-0.71-2.73
	c-0.47-0.65-1.19-0.97-2.15-0.97c-0.97,0-1.7,0.32-2.17,0.97c-0.48,0.65-0.71,1.56-0.71,2.73c0,1.17,0.24,2.08,0.71,2.72
	C306.55,53.8,307.27,54.12,308.25,54.12z M323.6,45.36l-4.11,10.14h-1.76l-4.11-10.14h1.61c0.15,0,0.28,0.04,0.38,0.11
	c0.1,0.07,0.17,0.17,0.2,0.28l2.43,6.23c0.09,0.26,0.16,0.52,0.22,0.77c0.06,0.26,0.12,0.51,0.17,0.76
	c0.05-0.25,0.11-0.51,0.18-0.76c0.07-0.25,0.15-0.51,0.24-0.78l2.46-6.23c0.04-0.11,0.11-0.21,0.21-0.28
	c0.1-0.07,0.22-0.11,0.36-0.11H323.6z M332.99,54.05c-0.24,0.28-0.52,0.52-0.83,0.72c-0.31,0.2-0.65,0.37-1,0.49
	c-0.35,0.13-0.72,0.22-1.09,0.28c-0.38,0.06-0.75,0.09-1.11,0.09c-0.7,0-1.35-0.12-1.94-0.35c-0.6-0.24-1.11-0.58-1.55-1.04
	c-0.44-0.46-0.78-1.02-1.02-1.7c-0.24-0.68-0.36-1.45-0.36-2.33c0-0.71,0.11-1.36,0.33-1.97c0.22-0.61,0.53-1.14,0.94-1.59
	c0.41-0.45,0.91-0.81,1.5-1.07c0.59-0.26,1.26-0.39,2-0.39c0.62,0,1.19,0.1,1.71,0.3c0.52,0.2,0.97,0.5,1.35,0.88
	c0.38,0.39,0.68,0.86,0.89,1.43c0.22,0.57,0.32,1.21,0.32,1.94c0,0.3-0.03,0.5-0.1,0.6c-0.07,0.1-0.19,0.15-0.37,0.15h-6.65
	c0.02,0.61,0.11,1.13,0.26,1.58c0.15,0.45,0.36,0.82,0.63,1.12c0.27,0.3,0.59,0.52,0.96,0.67c0.37,0.15,0.79,0.22,1.25,0.22
	c0.43,0,0.81-0.05,1.12-0.15c0.32-0.1,0.59-0.21,0.82-0.32c0.23-0.12,0.42-0.22,0.58-0.32c0.16-0.1,0.29-0.15,0.41-0.15
	c0.16,0,0.28,0.06,0.37,0.18L332.99,54.05z M331.38,49.3c0-0.39-0.05-0.74-0.16-1.07c-0.11-0.33-0.27-0.61-0.48-0.85
	c-0.21-0.24-0.47-0.43-0.78-0.56c-0.31-0.13-0.66-0.2-1.06-0.2c-0.82,0-1.46,0.24-1.93,0.71c-0.47,0.47-0.77,1.13-0.89,1.97H331.38z
	 M336.86,47.31c0.33-0.67,0.72-1.19,1.18-1.57c0.46-0.38,1.01-0.57,1.66-0.57c0.22,0,0.43,0.02,0.62,0.07
	c0.2,0.05,0.37,0.12,0.51,0.22l-0.13,1.47c-0.05,0.18-0.16,0.27-0.33,0.27c-0.09,0-0.23-0.02-0.42-0.05
	c-0.19-0.04-0.39-0.05-0.6-0.05c-0.31,0-0.59,0.04-0.83,0.13c-0.24,0.09-0.45,0.22-0.64,0.4c-0.19,0.18-0.36,0.39-0.5,0.65
	c-0.15,0.26-0.28,0.55-0.41,0.87v6.35h-1.95V45.36h1.12c0.21,0,0.36,0.04,0.43,0.11c0.08,0.08,0.13,0.21,0.16,0.4L336.86,47.31z
	 M341.72,46.78c0.57-0.54,1.18-0.94,1.84-1.21c0.66-0.27,1.39-0.4,2.18-0.4c0.58,0,1.09,0.09,1.54,0.28
	c0.45,0.19,0.82,0.45,1.13,0.79c0.31,0.34,0.54,0.75,0.69,1.22c0.16,0.47,0.23,0.99,0.23,1.57v6.47h-0.87
	c-0.19,0-0.34-0.03-0.44-0.09c-0.1-0.06-0.18-0.18-0.24-0.35l-0.21-0.89c-0.26,0.24-0.52,0.45-0.77,0.63
	c-0.25,0.18-0.52,0.34-0.79,0.47c-0.28,0.13-0.57,0.23-0.88,0.29c-0.31,0.07-0.66,0.1-1.04,0.1c-0.4,0-0.77-0.05-1.12-0.16
	c-0.35-0.11-0.65-0.28-0.91-0.5c-0.26-0.23-0.46-0.51-0.61-0.85c-0.15-0.34-0.22-0.74-0.22-1.19c0-0.4,0.11-0.78,0.32-1.15
	c0.22-0.37,0.57-0.7,1.06-0.99c0.49-0.29,1.13-0.53,1.92-0.72c0.79-0.19,1.76-0.29,2.91-0.32v-0.74c0-0.77-0.16-1.34-0.49-1.72
	c-0.33-0.38-0.81-0.57-1.44-0.57c-0.43,0-0.78,0.05-1.07,0.16c-0.29,0.11-0.54,0.22-0.75,0.35c-0.21,0.13-0.39,0.25-0.55,0.35
	c-0.16,0.11-0.32,0.16-0.48,0.16c-0.13,0-0.25-0.04-0.34-0.11c-0.1-0.07-0.17-0.16-0.23-0.26L341.72,46.78z M347.43,51
	c-0.79,0.03-1.46,0.09-2.02,0.18c-0.55,0.1-1,0.22-1.35,0.38c-0.35,0.16-0.6,0.35-0.75,0.56c-0.15,0.22-0.23,0.46-0.23,0.72
	c0,0.25,0.04,0.47,0.12,0.65c0.08,0.18,0.2,0.33,0.34,0.45c0.14,0.12,0.31,0.2,0.5,0.25c0.19,0.05,0.4,0.08,0.63,0.08
	c0.3,0,0.57-0.03,0.82-0.09c0.25-0.06,0.48-0.14,0.7-0.25c0.22-0.11,0.43-0.24,0.63-0.4c0.2-0.16,0.4-0.34,0.59-0.55V51z
	 M353.74,40.77V55.5h-1.96V40.77H353.74z M358.31,40.77V55.5h-1.96V40.77H358.31z M367.56,46.88c0.21-0.25,0.44-0.48,0.68-0.69
	c0.24-0.21,0.5-0.39,0.78-0.54c0.28-0.15,0.58-0.27,0.89-0.35c0.32-0.08,0.65-0.12,1.01-0.12c0.58,0,1.1,0.11,1.57,0.34
	c0.47,0.23,0.87,0.56,1.2,1c0.33,0.44,0.59,0.98,0.77,1.63c0.18,0.65,0.27,1.39,0.27,2.23c0,0.75-0.1,1.45-0.3,2.09
	c-0.2,0.64-0.49,1.2-0.87,1.67c-0.38,0.47-0.84,0.84-1.38,1.11c-0.54,0.27-1.15,0.4-1.83,0.4c-0.61,0-1.12-0.1-1.56-0.3
	c-0.43-0.2-0.82-0.48-1.16-0.84v4.4h-1.95V45.36h1.17c0.27,0,0.44,0.13,0.51,0.39L367.56,46.88z M367.66,53.01
	c0.32,0.42,0.66,0.71,1.03,0.88c0.37,0.17,0.78,0.25,1.24,0.25c0.89,0,1.58-0.32,2.07-0.96c0.49-0.64,0.73-1.58,0.73-2.81
	c0-0.65-0.05-1.2-0.16-1.65c-0.11-0.46-0.27-0.83-0.48-1.12c-0.21-0.29-0.47-0.5-0.77-0.64c-0.31-0.14-0.65-0.2-1.04-0.2
	c-0.57,0-1.06,0.13-1.47,0.38c-0.42,0.25-0.8,0.61-1.15,1.08V53.01z M381.07,45.2c0.75,0,1.42,0.12,2.02,0.36
	c0.6,0.24,1.11,0.59,1.54,1.05c0.42,0.46,0.75,1,0.97,1.65c0.23,0.64,0.34,1.36,0.34,2.16s-0.11,1.52-0.34,2.17
	c-0.23,0.65-0.55,1.19-0.97,1.65c-0.42,0.45-0.93,0.8-1.54,1.04c-0.6,0.24-1.28,0.36-2.02,0.36c-0.75,0-1.43-0.12-2.03-0.36
	c-0.6-0.24-1.12-0.59-1.54-1.04c-0.43-0.45-0.75-1-0.98-1.65c-0.23-0.65-0.34-1.37-0.34-2.17s0.11-1.52,0.34-2.16
	c0.23-0.64,0.56-1.19,0.98-1.65c0.43-0.46,0.94-0.81,1.54-1.05C379.64,45.32,380.31,45.2,381.07,45.2z M381.07,54.12
	c0.96,0,1.67-0.32,2.15-0.97c0.47-0.65,0.71-1.55,0.71-2.72c0-1.17-0.24-2.08-0.71-2.73c-0.47-0.65-1.19-0.97-2.15-0.97
	c-0.97,0-1.7,0.32-2.17,0.97c-0.48,0.65-0.71,1.56-0.71,2.73c0,1.17,0.24,2.08,0.71,2.72C379.37,53.8,380.1,54.12,381.07,54.12z
	 M389.75,46.88c0.21-0.25,0.44-0.48,0.68-0.69c0.24-0.21,0.5-0.39,0.78-0.54c0.28-0.15,0.58-0.27,0.89-0.35
	c0.32-0.08,0.65-0.12,1.01-0.12c0.58,0,1.1,0.11,1.57,0.34c0.47,0.23,0.87,0.56,1.2,1c0.33,0.44,0.59,0.98,0.77,1.63
	c0.18,0.65,0.27,1.39,0.27,2.23c0,0.75-0.1,1.45-0.3,2.09c-0.2,0.64-0.49,1.2-0.87,1.67c-0.38,0.47-0.84,0.84-1.38,1.11
	c-0.54,0.27-1.15,0.4-1.83,0.4c-0.61,0-1.12-0.1-1.56-0.3c-0.43-0.2-0.82-0.48-1.16-0.84v4.4h-1.95V45.36h1.17
	c0.27,0,0.44,0.13,0.51,0.39L389.75,46.88z M389.85,53.01c0.32,0.42,0.66,0.71,1.03,0.88c0.37,0.17,0.78,0.25,1.24,0.25
	c0.89,0,1.58-0.32,2.07-0.96c0.49-0.64,0.73-1.58,0.73-2.81c0-0.65-0.05-1.2-0.16-1.65c-0.11-0.46-0.27-0.83-0.48-1.12
	c-0.21-0.29-0.47-0.5-0.77-0.64c-0.31-0.14-0.65-0.2-1.04-0.2c-0.57,0-1.06,0.13-1.47,0.38c-0.42,0.25-0.8,0.61-1.15,1.08V53.01z
	 M407.37,45.36V55.5h-1.17c-0.27,0-0.44-0.13-0.52-0.39l-0.14-1.02c-0.22,0.23-0.45,0.45-0.69,0.64c-0.24,0.19-0.5,0.36-0.77,0.49
	c-0.27,0.14-0.56,0.24-0.87,0.32c-0.31,0.08-0.64,0.11-0.99,0.11c-0.56,0-1.05-0.09-1.47-0.28c-0.42-0.19-0.78-0.45-1.06-0.78
	c-0.29-0.34-0.5-0.74-0.65-1.21c-0.15-0.47-0.22-0.99-0.22-1.57v-6.46h1.96v6.46c0,0.73,0.17,1.29,0.5,1.69
	c0.33,0.4,0.84,0.6,1.53,0.6c0.5,0,0.96-0.12,1.4-0.35c0.43-0.24,0.84-0.56,1.22-0.97v-7.43H407.37z M411.89,40.77V55.5h-1.96V40.77
	H411.89z M414.2,46.78c0.57-0.54,1.18-0.94,1.84-1.21c0.66-0.27,1.39-0.4,2.18-0.4c0.58,0,1.09,0.09,1.54,0.28
	c0.45,0.19,0.82,0.45,1.13,0.79c0.31,0.34,0.54,0.75,0.69,1.22c0.16,0.47,0.23,0.99,0.23,1.57v6.47h-0.87
	c-0.19,0-0.34-0.03-0.44-0.09c-0.1-0.06-0.18-0.18-0.24-0.35l-0.21-0.89c-0.26,0.24-0.52,0.45-0.77,0.63
	c-0.25,0.18-0.52,0.34-0.79,0.47c-0.28,0.13-0.57,0.23-0.88,0.29c-0.31,0.07-0.66,0.1-1.04,0.1c-0.4,0-0.77-0.05-1.12-0.16
	c-0.35-0.11-0.65-0.28-0.91-0.5c-0.26-0.23-0.46-0.51-0.61-0.85c-0.15-0.34-0.22-0.74-0.22-1.19c0-0.4,0.11-0.78,0.32-1.15
	c0.22-0.37,0.57-0.7,1.06-0.99c0.49-0.29,1.13-0.53,1.92-0.72c0.79-0.19,1.76-0.29,2.91-0.32v-0.74c0-0.77-0.16-1.34-0.49-1.72
	c-0.33-0.38-0.81-0.57-1.44-0.57c-0.43,0-0.78,0.05-1.07,0.16c-0.29,0.11-0.54,0.22-0.75,0.35c-0.21,0.13-0.39,0.25-0.55,0.35
	c-0.16,0.11-0.32,0.16-0.48,0.16c-0.13,0-0.25-0.04-0.34-0.11c-0.1-0.07-0.17-0.16-0.23-0.26L414.2,46.78z M419.91,51
	c-0.79,0.03-1.46,0.09-2.02,0.18c-0.55,0.1-1,0.22-1.35,0.38c-0.35,0.16-0.6,0.35-0.75,0.56c-0.15,0.22-0.23,0.46-0.23,0.72
	c0,0.25,0.04,0.47,0.12,0.65c0.08,0.18,0.2,0.33,0.34,0.45c0.14,0.12,0.31,0.2,0.5,0.25c0.19,0.05,0.4,0.08,0.63,0.08
	c0.3,0,0.57-0.03,0.82-0.09c0.25-0.06,0.48-0.14,0.7-0.25c0.22-0.11,0.43-0.24,0.63-0.4c0.2-0.16,0.4-0.34,0.59-0.55V51z
	 M433.72,55.5h-1.96v-8.56h-5.09v5.94c0,0.4,0.1,0.7,0.29,0.89c0.2,0.2,0.45,0.29,0.75,0.29c0.18,0,0.33-0.02,0.46-0.07
	c0.13-0.05,0.24-0.1,0.33-0.15c0.09-0.06,0.17-0.11,0.24-0.15c0.07-0.05,0.13-0.07,0.18-0.07c0.07,0,0.12,0.01,0.15,0.04
	c0.04,0.03,0.07,0.08,0.11,0.14l0.58,0.94c-0.32,0.29-0.7,0.52-1.14,0.68c-0.44,0.16-0.9,0.24-1.37,0.24
	c-0.82,0-1.45-0.23-1.89-0.69c-0.44-0.46-0.66-1.11-0.66-1.97v-6.07h-1.18c-0.11,0-0.21-0.03-0.28-0.1
	c-0.08-0.07-0.11-0.17-0.11-0.31v-0.79l1.66-0.23l0.43-3.02c0.03-0.11,0.08-0.2,0.15-0.26c0.08-0.06,0.17-0.09,0.29-0.09h0.99v3.4
	h7.05V55.5z M434.16,42.17c0,0.18-0.04,0.35-0.11,0.51c-0.07,0.16-0.17,0.31-0.29,0.43c-0.12,0.12-0.27,0.22-0.43,0.29
	c-0.17,0.07-0.34,0.1-0.52,0.1c-0.18,0-0.35-0.03-0.51-0.1c-0.16-0.07-0.3-0.17-0.42-0.29c-0.12-0.12-0.22-0.27-0.29-0.43
	c-0.07-0.16-0.1-0.33-0.1-0.51c0-0.19,0.03-0.36,0.1-0.53c0.07-0.17,0.17-0.31,0.29-0.43c0.12-0.12,0.26-0.22,0.42-0.29
	c0.16-0.07,0.33-0.1,0.51-0.1c0.18,0,0.35,0.03,0.52,0.1c0.17,0.07,0.31,0.17,0.43,0.29c0.12,0.12,0.22,0.27,0.29,0.43
	C434.12,41.8,434.16,41.98,434.16,42.17z M440.66,45.2c0.75,0,1.42,0.12,2.02,0.36c0.6,0.24,1.11,0.59,1.54,1.05
	c0.42,0.46,0.75,1,0.97,1.65c0.23,0.64,0.34,1.36,0.34,2.16s-0.11,1.52-0.34,2.17c-0.23,0.65-0.55,1.19-0.97,1.65
	c-0.42,0.45-0.93,0.8-1.54,1.04c-0.6,0.24-1.28,0.36-2.02,0.36c-0.75,0-1.43-0.12-2.03-0.36c-0.6-0.24-1.12-0.59-1.54-1.04
	c-0.43-0.45-0.75-1-0.98-1.65c-0.23-0.65-0.34-1.37-0.34-2.17s0.11-1.52,0.34-2.16c0.23-0.64,0.56-1.19,0.98-1.65
	c0.43-0.46,0.94-0.81,1.54-1.05C439.24,45.32,439.91,45.2,440.66,45.2z M440.66,54.12c0.96,0,1.67-0.32,2.15-0.97
	c0.47-0.65,0.71-1.55,0.71-2.72c0-1.17-0.24-2.08-0.71-2.73c-0.47-0.65-1.19-0.97-2.15-0.97c-0.97,0-1.7,0.32-2.17,0.97
	c-0.48,0.65-0.71,1.56-0.71,2.73c0,1.17,0.24,2.08,0.71,2.72C438.97,53.8,439.69,54.12,440.66,54.12z M449.33,46.77
	c0.22-0.23,0.45-0.45,0.69-0.64c0.24-0.19,0.49-0.36,0.76-0.49c0.27-0.14,0.56-0.24,0.87-0.32c0.31-0.08,0.64-0.11,0.99-0.11
	c0.56,0,1.05,0.09,1.47,0.28c0.42,0.19,0.78,0.45,1.06,0.78c0.29,0.34,0.5,0.74,0.65,1.21c0.15,0.47,0.22,0.99,0.22,1.57v6.46h-1.96
	v-6.46c0-0.73-0.17-1.29-0.5-1.69c-0.33-0.4-0.84-0.6-1.53-0.6c-0.5,0-0.97,0.12-1.4,0.35c-0.44,0.24-0.84,0.56-1.21,0.96v7.44
	h-1.95V45.36h1.17c0.27,0,0.44,0.13,0.51,0.39L449.33,46.77z M469.27,47.11c-0.05,0.09-0.11,0.15-0.17,0.18
	c-0.06,0.04-0.14,0.05-0.23,0.05c-0.11,0-0.22-0.04-0.35-0.11c-0.13-0.07-0.29-0.15-0.47-0.24c-0.18-0.09-0.4-0.17-0.64-0.24
	c-0.25-0.07-0.54-0.11-0.88-0.11c-0.28,0-0.53,0.03-0.76,0.1c-0.23,0.07-0.42,0.17-0.58,0.29c-0.16,0.12-0.28,0.27-0.37,0.44
	c-0.09,0.17-0.13,0.35-0.13,0.54c0,0.25,0.07,0.46,0.22,0.63c0.15,0.17,0.35,0.31,0.59,0.43c0.24,0.12,0.52,0.23,0.83,0.32
	c0.31,0.1,0.63,0.2,0.95,0.3c0.32,0.11,0.64,0.23,0.95,0.36c0.31,0.14,0.59,0.31,0.83,0.51c0.24,0.2,0.44,0.45,0.59,0.73
	c0.15,0.29,0.22,0.64,0.22,1.05c0,0.47-0.08,0.91-0.25,1.31c-0.17,0.4-0.42,0.75-0.75,1.04c-0.33,0.29-0.74,0.52-1.22,0.69
	c-0.49,0.17-1.04,0.25-1.67,0.25c-0.7,0-1.34-0.12-1.94-0.35c-0.59-0.23-1.09-0.53-1.49-0.89l0.46-0.75
	c0.05-0.09,0.12-0.16,0.2-0.21s0.19-0.07,0.32-0.07c0.13,0,0.26,0.05,0.39,0.14c0.13,0.09,0.29,0.19,0.48,0.3
	c0.19,0.11,0.41,0.21,0.68,0.3c0.27,0.09,0.6,0.13,1,0.13c0.33,0,0.62-0.04,0.87-0.12c0.25-0.08,0.45-0.2,0.61-0.34
	c0.16-0.14,0.28-0.31,0.36-0.49c0.08-0.19,0.12-0.38,0.12-0.59c0-0.27-0.07-0.49-0.22-0.66c-0.15-0.18-0.35-0.33-0.59-0.45
	c-0.24-0.13-0.52-0.24-0.83-0.33c-0.31-0.09-0.63-0.19-0.96-0.3c-0.33-0.11-0.65-0.23-0.96-0.37c-0.31-0.14-0.59-0.32-0.83-0.53
	c-0.24-0.21-0.44-0.47-0.59-0.78c-0.15-0.31-0.22-0.68-0.22-1.12c0-0.39,0.08-0.77,0.24-1.13c0.16-0.36,0.4-0.68,0.71-0.95
	c0.31-0.27,0.69-0.49,1.15-0.65c0.46-0.16,0.98-0.24,1.56-0.24c0.67,0,1.28,0.11,1.82,0.32c0.54,0.21,1.01,0.51,1.39,0.88
	L469.27,47.11z M474.93,55.66c-0.82,0-1.45-0.23-1.89-0.69c-0.44-0.46-0.66-1.11-0.66-1.97v-6.07h-1.18c-0.11,0-0.21-0.03-0.28-0.1
	c-0.08-0.07-0.11-0.17-0.11-0.31v-0.79l1.65-0.23l0.44-3.02c0.03-0.11,0.08-0.2,0.15-0.26c0.08-0.06,0.17-0.09,0.29-0.09h0.99v3.4
	h2.87v1.42h-2.87v5.94c0,0.4,0.1,0.7,0.29,0.89c0.2,0.2,0.45,0.29,0.75,0.29c0.18,0,0.33-0.02,0.46-0.07
	c0.13-0.05,0.24-0.1,0.33-0.15c0.09-0.06,0.17-0.11,0.24-0.15c0.07-0.05,0.13-0.07,0.18-0.07c0.07,0,0.12,0.01,0.15,0.04
	c0.04,0.03,0.07,0.08,0.11,0.14l0.58,0.94c-0.32,0.29-0.7,0.52-1.14,0.68C475.86,55.58,475.4,55.66,474.93,55.66z M487.22,45.36
	V55.5h-1.17c-0.27,0-0.44-0.13-0.52-0.39l-0.14-1.02c-0.22,0.23-0.45,0.45-0.69,0.64c-0.24,0.19-0.5,0.36-0.77,0.49
	c-0.27,0.14-0.56,0.24-0.87,0.32c-0.31,0.08-0.64,0.11-0.99,0.11c-0.56,0-1.05-0.09-1.47-0.28c-0.42-0.19-0.78-0.45-1.06-0.78
	c-0.29-0.34-0.5-0.74-0.65-1.21c-0.15-0.47-0.22-0.99-0.22-1.57v-6.46h1.96v6.46c0,0.73,0.17,1.29,0.5,1.69
	c0.33,0.4,0.84,0.6,1.53,0.6c0.5,0,0.96-0.12,1.4-0.35c0.43-0.24,0.84-0.56,1.22-0.97v-7.43H487.22z M498.24,40.77V55.5h-1.18
	c-0.27,0-0.44-0.13-0.51-0.39l-0.17-1.17c-0.43,0.51-0.92,0.92-1.47,1.23c-0.55,0.31-1.18,0.46-1.9,0.46c-0.58,0-1.1-0.11-1.57-0.34
	c-0.47-0.23-0.87-0.56-1.2-0.99c-0.33-0.44-0.59-0.98-0.77-1.62c-0.18-0.65-0.27-1.39-0.27-2.23c0-0.75,0.1-1.45,0.3-2.1
	c0.2-0.65,0.49-1.2,0.87-1.68c0.38-0.47,0.84-0.84,1.38-1.11c0.54-0.27,1.15-0.4,1.83-0.4c0.61,0,1.13,0.1,1.56,0.3
	c0.43,0.2,0.81,0.48,1.15,0.85v-5.55H498.24z M496.28,47.82c-0.32-0.42-0.66-0.71-1.03-0.88c-0.37-0.17-0.78-0.25-1.24-0.25
	c-0.89,0-1.58,0.32-2.07,0.96c-0.49,0.64-0.73,1.58-0.73,2.81c0,0.65,0.05,1.2,0.16,1.65c0.11,0.46,0.27,0.83,0.48,1.12
	c0.21,0.29,0.47,0.5,0.77,0.64c0.31,0.14,0.65,0.2,1.04,0.2c0.57,0,1.05-0.13,1.47-0.38c0.41-0.25,0.8-0.61,1.16-1.07V47.82z
	 M503.17,42.23c0,0.18-0.04,0.35-0.11,0.51c-0.07,0.16-0.17,0.31-0.29,0.43c-0.12,0.12-0.27,0.22-0.43,0.29
	c-0.17,0.07-0.34,0.1-0.52,0.1c-0.18,0-0.35-0.03-0.51-0.1c-0.16-0.07-0.3-0.17-0.42-0.29c-0.12-0.12-0.22-0.27-0.29-0.43
	c-0.07-0.16-0.1-0.33-0.1-0.51c0-0.19,0.03-0.36,0.1-0.52c0.07-0.16,0.17-0.31,0.29-0.43c0.12-0.12,0.26-0.22,0.42-0.29
	c0.16-0.07,0.33-0.1,0.51-0.1c0.18,0,0.35,0.03,0.52,0.1c0.17,0.07,0.31,0.17,0.43,0.29c0.12,0.12,0.22,0.27,0.29,0.43
	C503.13,41.87,503.17,42.04,503.17,42.23z M502.8,45.36V55.5h-1.95V45.36H502.8z M513.74,54.05c-0.24,0.28-0.52,0.52-0.83,0.72
	c-0.31,0.2-0.65,0.37-1,0.49c-0.35,0.13-0.72,0.22-1.09,0.28c-0.38,0.06-0.75,0.09-1.11,0.09c-0.7,0-1.35-0.12-1.94-0.35
	c-0.6-0.24-1.11-0.58-1.55-1.04c-0.44-0.46-0.78-1.02-1.02-1.7c-0.24-0.68-0.36-1.45-0.36-2.33c0-0.71,0.11-1.36,0.33-1.97
	c0.22-0.61,0.53-1.14,0.94-1.59c0.41-0.45,0.91-0.81,1.5-1.07c0.59-0.26,1.26-0.39,2-0.39c0.62,0,1.19,0.1,1.71,0.3
	c0.52,0.2,0.97,0.5,1.35,0.88c0.38,0.39,0.68,0.86,0.89,1.43c0.22,0.57,0.32,1.21,0.32,1.94c0,0.3-0.03,0.5-0.1,0.6
	c-0.07,0.1-0.19,0.15-0.37,0.15h-6.65c0.02,0.61,0.11,1.13,0.26,1.58c0.15,0.45,0.36,0.82,0.63,1.12c0.27,0.3,0.59,0.52,0.96,0.67
	c0.37,0.15,0.79,0.22,1.25,0.22c0.43,0,0.81-0.05,1.12-0.15c0.32-0.1,0.59-0.21,0.82-0.32c0.23-0.12,0.42-0.22,0.58-0.32
	c0.16-0.1,0.29-0.15,0.41-0.15c0.16,0,0.28,0.06,0.37,0.18L513.74,54.05z M512.13,49.3c0-0.39-0.05-0.74-0.16-1.07
	c-0.11-0.33-0.27-0.61-0.48-0.85c-0.21-0.24-0.47-0.43-0.78-0.56c-0.31-0.13-0.66-0.2-1.06-0.2c-0.82,0-1.46,0.24-1.93,0.71
	c-0.47,0.47-0.77,1.13-0.89,1.97H512.13z M524.27,40.77V55.5h-1.18c-0.27,0-0.44-0.13-0.51-0.39l-0.17-1.17
	c-0.43,0.51-0.92,0.92-1.47,1.23s-1.18,0.46-1.9,0.46c-0.58,0-1.1-0.11-1.57-0.34c-0.47-0.23-0.87-0.56-1.2-0.99
	c-0.33-0.44-0.59-0.98-0.77-1.62c-0.18-0.65-0.27-1.39-0.27-2.23c0-0.75,0.1-1.45,0.3-2.1c0.2-0.65,0.49-1.2,0.87-1.68
	c0.38-0.47,0.84-0.84,1.38-1.11c0.54-0.27,1.15-0.4,1.83-0.4c0.61,0,1.13,0.1,1.56,0.3c0.43,0.2,0.81,0.48,1.15,0.85v-5.55H524.27z
	 M522.31,47.82c-0.32-0.42-0.66-0.71-1.03-0.88c-0.37-0.17-0.78-0.25-1.24-0.25c-0.89,0-1.58,0.32-2.07,0.96
	c-0.49,0.64-0.73,1.58-0.73,2.81c0,0.65,0.05,1.2,0.16,1.65c0.11,0.46,0.27,0.83,0.48,1.12c0.21,0.29,0.47,0.5,0.77,0.64
	c0.31,0.14,0.65,0.2,1.04,0.2c0.57,0,1.05-0.13,1.47-0.38c0.41-0.25,0.8-0.61,1.16-1.07V47.82z M526.47,54.33
	c0-0.18,0.03-0.35,0.1-0.51c0.07-0.16,0.16-0.3,0.27-0.42c0.12-0.12,0.25-0.21,0.41-0.28c0.16-0.07,0.33-0.1,0.52-0.1
	c0.18,0,0.35,0.03,0.51,0.1c0.16,0.07,0.3,0.16,0.42,0.28c0.12,0.12,0.21,0.26,0.28,0.42c0.07,0.16,0.1,0.33,0.1,0.51
	c0,0.19-0.03,0.36-0.1,0.52c-0.07,0.16-0.16,0.3-0.28,0.42c-0.12,0.12-0.26,0.21-0.42,0.28c-0.16,0.07-0.33,0.1-0.51,0.1
	c-0.19,0-0.36-0.03-0.52-0.1c-0.16-0.07-0.3-0.16-0.41-0.28c-0.12-0.12-0.21-0.26-0.27-0.42C526.51,54.69,526.47,54.52,526.47,54.33
	z"/>
<g>
	<path class="st1" d="M532.36,43.62c0.43-0.09,0.81-0.13,1.16-0.13c0.43,0,0.82,0.07,1.15,0.2s0.61,0.31,0.84,0.54
		c0.23,0.23,0.4,0.49,0.51,0.8c0.11,0.31,0.17,0.64,0.17,1c0,0.44-0.08,0.84-0.23,1.21c-0.16,0.36-0.37,0.67-0.64,0.92
		c-0.27,0.26-0.59,0.45-0.96,0.59c-0.37,0.14-0.77,0.21-1.2,0.21c-0.25,0-0.49-0.03-0.72-0.08c-0.23-0.05-0.44-0.12-0.64-0.2
		c-0.2-0.08-0.38-0.18-0.55-0.29c-0.17-0.11-0.32-0.22-0.45-0.34l0.35-0.49c0.07-0.11,0.17-0.16,0.3-0.16
		c0.08,0,0.17,0.03,0.27,0.09c0.1,0.06,0.22,0.13,0.35,0.2c0.14,0.07,0.3,0.14,0.48,0.2s0.41,0.09,0.66,0.09
		c0.28,0,0.54-0.04,0.77-0.14c0.23-0.09,0.42-0.22,0.58-0.39s0.28-0.37,0.36-0.6c0.08-0.23,0.12-0.49,0.12-0.77
		c0-0.25-0.04-0.48-0.11-0.68c-0.07-0.2-0.18-0.38-0.33-0.52s-0.33-0.25-0.55-0.33c-0.22-0.08-0.48-0.11-0.77-0.11
		c-0.41,0-0.85,0.07-1.32,0.22l-0.72-0.21l0.68-3.95h4V41c0,0.16-0.05,0.3-0.15,0.4s-0.27,0.15-0.51,0.15h-2.54L532.36,43.62z"/>
	<path class="st1" d="M538.14,48.86c-0.11,0-0.2-0.02-0.29-0.06c-0.09-0.04-0.16-0.09-0.23-0.16c-0.06-0.07-0.11-0.15-0.15-0.24
		c-0.03-0.09-0.05-0.19-0.05-0.3c0-0.09,0.02-0.18,0.05-0.26c0.04-0.08,0.08-0.16,0.15-0.22c0.06-0.06,0.14-0.11,0.23-0.15
		c0.09-0.04,0.19-0.06,0.3-0.06c0.12,0,0.23,0.02,0.33,0.07c0.1,0.04,0.17,0.11,0.24,0.19c0.06,0.08,0.11,0.17,0.14,0.28
		c0.03,0.1,0.05,0.22,0.05,0.34c0,0.17-0.03,0.36-0.08,0.55c-0.05,0.19-0.12,0.39-0.22,0.58c-0.1,0.19-0.22,0.37-0.36,0.55
		s-0.31,0.34-0.49,0.5l-0.19-0.18c-0.06-0.05-0.09-0.11-0.09-0.18c0-0.03,0.01-0.05,0.03-0.08s0.04-0.06,0.07-0.08
		c0.04-0.04,0.09-0.1,0.15-0.17c0.06-0.07,0.12-0.15,0.18-0.24c0.06-0.09,0.12-0.19,0.17-0.3c0.05-0.11,0.09-0.23,0.11-0.35H538.14z
		"/>
	<path class="st1" d="M542.22,43.61c-0.07,0.09-0.13,0.17-0.2,0.25c-0.06,0.08-0.12,0.16-0.18,0.24c0.19-0.12,0.39-0.21,0.62-0.28
		c0.23-0.07,0.47-0.1,0.74-0.1c0.33,0,0.64,0.05,0.94,0.16c0.3,0.11,0.56,0.27,0.79,0.48c0.23,0.21,0.41,0.47,0.54,0.78
		c0.13,0.31,0.2,0.67,0.2,1.07c0,0.38-0.07,0.74-0.21,1.08c-0.14,0.34-0.34,0.63-0.59,0.87s-0.56,0.44-0.91,0.58
		c-0.35,0.14-0.75,0.21-1.18,0.21c-0.43,0-0.81-0.07-1.16-0.2c-0.34-0.14-0.64-0.33-0.88-0.58c-0.24-0.25-0.43-0.55-0.56-0.91
		c-0.13-0.35-0.2-0.75-0.2-1.18c0-0.37,0.08-0.77,0.24-1.18s0.42-0.85,0.77-1.32l2.09-2.8c0.06-0.08,0.14-0.14,0.24-0.19
		c0.1-0.05,0.22-0.08,0.36-0.08h1.01L542.22,43.61z M542.75,48c0.27,0,0.51-0.04,0.73-0.13c0.22-0.09,0.4-0.21,0.56-0.36
		c0.16-0.15,0.28-0.33,0.36-0.54c0.09-0.21,0.13-0.44,0.13-0.68c0-0.27-0.04-0.51-0.12-0.72c-0.08-0.21-0.2-0.39-0.35-0.54
		s-0.33-0.26-0.54-0.34c-0.21-0.08-0.44-0.12-0.7-0.12c-0.27,0-0.51,0.05-0.72,0.14c-0.21,0.09-0.4,0.21-0.55,0.37
		s-0.27,0.33-0.35,0.54c-0.08,0.21-0.12,0.42-0.12,0.65c0,0.26,0.04,0.49,0.11,0.7c0.07,0.21,0.18,0.4,0.33,0.55
		c0.14,0.15,0.32,0.27,0.53,0.35C542.25,47.96,542.49,48,542.75,48z"/>
	<path class="st1" d="M553.88,41.48h-1.27v8.57h-1v-8.57h-1.55v8.57h-1v-4.98c-0.4,0-0.77-0.06-1.09-0.18s-0.6-0.28-0.83-0.49
		c-0.23-0.21-0.4-0.45-0.53-0.73s-0.18-0.58-0.18-0.89c0-0.34,0.06-0.65,0.18-0.92s0.3-0.52,0.53-0.72s0.5-0.35,0.83-0.46
		s0.68-0.17,1.09-0.17h4.82V41.48z"/>
</g>
<polygon class="st1" points="794.74,44.5 792.07,41.83 801.6,32.29 792.07,22.75 794.74,20.08 806.94,32.29 "/>
</svg>
