<?xml version="1.0" encoding="utf-8"?>
<!-- Generator: Adobe Illustrator 24.1.0, SVG Export Plug-In . SVG Version: 6.00 Build 0)  -->
<svg version="1.1" id="Layer_1" xmlns="http://www.w3.org/2000/svg" xmlns:xlink="http://www.w3.org/1999/xlink" x="0px" y="0px"
	 viewBox="0 0 1920 1080" style="enable-background:new 0 0 1920 1080;" xml:space="preserve">
<style type="text/css">
	.st0{fill:#EFBB50;}
	.st1{fill:#003E6A;}
</style>
<rect x="548.66" y="501.52" class="st0" width="823.67" height="77.97"/>
<path class="st1" d="M587.02,532.15c-0.07,0.11-0.14,0.2-0.21,0.25c-0.07,0.05-0.17,0.08-0.28,0.08c-0.12,0-0.26-0.05-0.41-0.16
	c-0.15-0.11-0.34-0.23-0.57-0.37c-0.23-0.14-0.5-0.26-0.82-0.37s-0.7-0.16-1.15-0.16c-0.42,0-0.79,0.05-1.1,0.16
	c-0.32,0.11-0.58,0.26-0.79,0.45c-0.21,0.19-0.37,0.41-0.48,0.67c-0.11,0.26-0.16,0.53-0.16,0.83c0,0.39,0.1,0.71,0.29,0.96
	c0.2,0.25,0.45,0.47,0.77,0.65c0.32,0.18,0.68,0.34,1.09,0.47c0.41,0.13,0.82,0.27,1.25,0.41c0.43,0.14,0.84,0.31,1.25,0.49
	c0.41,0.19,0.77,0.42,1.09,0.7c0.32,0.28,0.58,0.63,0.77,1.04c0.2,0.41,0.29,0.91,0.29,1.5c0,0.63-0.11,1.22-0.32,1.78
	c-0.22,0.55-0.53,1.03-0.94,1.45c-0.41,0.41-0.92,0.74-1.52,0.97c-0.6,0.24-1.29,0.35-2.05,0.35c-0.46,0-0.9-0.04-1.34-0.13
	c-0.43-0.09-0.84-0.22-1.23-0.38c-0.39-0.16-0.75-0.36-1.08-0.59c-0.34-0.23-0.64-0.49-0.9-0.77l0.61-1.02
	c0.06-0.08,0.13-0.15,0.21-0.2c0.08-0.05,0.18-0.08,0.28-0.08c0.14,0,0.3,0.07,0.48,0.22c0.18,0.15,0.41,0.31,0.68,0.48
	c0.27,0.18,0.59,0.34,0.97,0.48c0.38,0.15,0.83,0.22,1.37,0.22c0.44,0,0.83-0.06,1.18-0.17c0.35-0.12,0.64-0.28,0.87-0.5
	c0.24-0.22,0.42-0.48,0.54-0.78c0.13-0.31,0.19-0.65,0.19-1.02c0-0.42-0.1-0.76-0.29-1.03c-0.19-0.27-0.45-0.49-0.77-0.67
	c-0.32-0.18-0.68-0.33-1.09-0.46c-0.41-0.13-0.82-0.26-1.25-0.39c-0.43-0.14-0.84-0.29-1.25-0.47c-0.41-0.18-0.77-0.41-1.09-0.7
	c-0.32-0.29-0.58-0.65-0.77-1.09c-0.19-0.44-0.29-0.97-0.29-1.61c0-0.51,0.1-1.01,0.3-1.49s0.49-0.9,0.87-1.27
	c0.38-0.37,0.85-0.67,1.41-0.89c0.56-0.22,1.2-0.33,1.92-0.33c0.81,0,1.55,0.13,2.22,0.38c0.68,0.26,1.26,0.62,1.76,1.1
	L587.02,532.15z M594.13,533.85c0.75,0,1.42,0.12,2.02,0.36c0.6,0.24,1.11,0.59,1.54,1.05c0.42,0.46,0.75,1,0.97,1.65
	c0.23,0.64,0.34,1.36,0.34,2.16c0,0.8-0.11,1.52-0.34,2.17c-0.23,0.65-0.55,1.19-0.97,1.65c-0.42,0.45-0.93,0.8-1.54,1.04
	c-0.6,0.24-1.28,0.36-2.02,0.36c-0.75,0-1.43-0.12-2.03-0.36c-0.6-0.24-1.12-0.59-1.54-1.04c-0.43-0.45-0.75-1-0.98-1.65
	c-0.23-0.65-0.34-1.37-0.34-2.17c0-0.8,0.11-1.52,0.34-2.16c0.23-0.64,0.56-1.19,0.98-1.65c0.43-0.46,0.94-0.81,1.54-1.05
	C592.7,533.97,593.38,533.85,594.13,533.85z M594.13,542.77c0.96,0,1.67-0.32,2.15-0.97c0.47-0.65,0.71-1.55,0.71-2.72
	c0-1.17-0.24-2.08-0.71-2.73c-0.47-0.65-1.19-0.97-2.15-0.97c-0.97,0-1.7,0.32-2.17,0.97c-0.48,0.65-0.71,1.56-0.71,2.73
	c0,1.17,0.24,2.08,0.71,2.72C592.44,542.45,593.16,542.77,594.13,542.77z M602.97,529.42v14.73h-1.96v-14.73H602.97z M609.86,533.85
	c0.75,0,1.42,0.12,2.02,0.36c0.6,0.24,1.11,0.59,1.54,1.05c0.42,0.46,0.75,1,0.97,1.65c0.23,0.64,0.34,1.36,0.34,2.16
	c0,0.8-0.11,1.52-0.34,2.17c-0.23,0.65-0.55,1.19-0.97,1.65c-0.42,0.45-0.93,0.8-1.54,1.04c-0.6,0.24-1.28,0.36-2.02,0.36
	c-0.75,0-1.43-0.12-2.03-0.36c-0.6-0.24-1.12-0.59-1.54-1.04c-0.43-0.45-0.75-1-0.98-1.65c-0.23-0.65-0.34-1.37-0.34-2.17
	c0-0.8,0.11-1.52,0.34-2.16c0.23-0.64,0.56-1.19,0.98-1.65c0.43-0.46,0.94-0.81,1.54-1.05
	C608.43,533.97,609.11,533.85,609.86,533.85z M609.86,542.77c0.96,0,1.67-0.32,2.15-0.97c0.47-0.65,0.71-1.55,0.71-2.72
	c0-1.17-0.24-2.08-0.71-2.73c-0.47-0.65-1.19-0.97-2.15-0.97c-0.97,0-1.7,0.32-2.17,0.97c-0.48,0.65-0.71,1.56-0.71,2.73
	c0,1.17,0.24,2.08,0.71,2.72C608.17,542.45,608.89,542.77,609.86,542.77z M622.68,535.76c-0.05,0.09-0.11,0.15-0.17,0.18
	c-0.06,0.04-0.14,0.05-0.23,0.05c-0.11,0-0.22-0.04-0.35-0.11c-0.13-0.07-0.29-0.15-0.47-0.24c-0.18-0.09-0.4-0.17-0.64-0.24
	c-0.25-0.07-0.54-0.11-0.88-0.11c-0.28,0-0.53,0.03-0.76,0.1c-0.23,0.07-0.42,0.17-0.58,0.29c-0.16,0.12-0.28,0.27-0.37,0.44
	c-0.09,0.17-0.13,0.35-0.13,0.54c0,0.25,0.07,0.46,0.22,0.63c0.15,0.17,0.35,0.31,0.59,0.43c0.24,0.12,0.52,0.23,0.83,0.32
	c0.31,0.1,0.63,0.2,0.95,0.3c0.32,0.11,0.64,0.23,0.95,0.36c0.31,0.14,0.59,0.31,0.83,0.51c0.24,0.2,0.44,0.45,0.59,0.73
	c0.15,0.29,0.22,0.64,0.22,1.05c0,0.47-0.08,0.91-0.25,1.31c-0.17,0.4-0.42,0.75-0.75,1.04c-0.33,0.29-0.74,0.52-1.22,0.69
	c-0.49,0.17-1.04,0.25-1.67,0.25c-0.7,0-1.34-0.12-1.94-0.35c-0.59-0.23-1.09-0.53-1.49-0.89l0.46-0.75
	c0.05-0.09,0.12-0.16,0.2-0.21c0.08-0.05,0.19-0.07,0.32-0.07c0.13,0,0.26,0.05,0.39,0.14c0.13,0.09,0.29,0.19,0.48,0.3
	c0.19,0.11,0.41,0.21,0.68,0.3c0.27,0.09,0.6,0.13,1,0.13c0.33,0,0.62-0.04,0.87-0.12c0.25-0.08,0.45-0.2,0.61-0.34
	c0.16-0.14,0.28-0.31,0.36-0.49c0.08-0.19,0.12-0.38,0.12-0.59c0-0.27-0.07-0.49-0.22-0.66c-0.15-0.18-0.35-0.33-0.59-0.45
	c-0.24-0.13-0.52-0.24-0.83-0.33c-0.31-0.09-0.63-0.19-0.96-0.3c-0.33-0.11-0.65-0.23-0.96-0.37c-0.31-0.14-0.59-0.32-0.83-0.53
	c-0.24-0.21-0.44-0.47-0.59-0.78c-0.15-0.31-0.22-0.68-0.22-1.12c0-0.39,0.08-0.77,0.24-1.13c0.16-0.36,0.4-0.68,0.71-0.95
	c0.31-0.27,0.69-0.49,1.15-0.65c0.46-0.16,0.98-0.24,1.56-0.24c0.67,0,1.28,0.11,1.82,0.32c0.54,0.21,1.01,0.51,1.39,0.88
	L622.68,535.76z M633.49,542.7c-0.24,0.28-0.52,0.52-0.83,0.72c-0.31,0.2-0.65,0.37-1,0.49c-0.35,0.13-0.72,0.22-1.09,0.28
	c-0.38,0.06-0.75,0.09-1.11,0.09c-0.7,0-1.35-0.12-1.94-0.35c-0.6-0.24-1.11-0.58-1.55-1.04c-0.44-0.46-0.78-1.02-1.02-1.7
	c-0.24-0.68-0.36-1.45-0.36-2.33c0-0.71,0.11-1.36,0.33-1.97c0.22-0.61,0.53-1.14,0.94-1.59c0.41-0.45,0.91-0.81,1.5-1.07
	c0.59-0.26,1.26-0.39,2-0.39c0.62,0,1.19,0.1,1.71,0.3c0.52,0.2,0.97,0.5,1.35,0.88c0.38,0.39,0.68,0.86,0.89,1.43
	c0.22,0.57,0.32,1.21,0.32,1.94c0,0.3-0.03,0.5-0.1,0.6c-0.07,0.1-0.19,0.15-0.37,0.15h-6.65c0.02,0.61,0.11,1.13,0.26,1.58
	c0.15,0.45,0.36,0.82,0.63,1.12c0.27,0.3,0.59,0.52,0.96,0.67c0.37,0.15,0.79,0.22,1.25,0.22c0.43,0,0.81-0.05,1.12-0.15
	c0.32-0.1,0.59-0.21,0.82-0.32c0.23-0.12,0.42-0.22,0.58-0.32c0.16-0.1,0.29-0.15,0.41-0.15c0.16,0,0.28,0.06,0.37,0.18
	L633.49,542.7z M631.88,537.95c0-0.39-0.05-0.74-0.16-1.07c-0.11-0.33-0.27-0.61-0.48-0.85c-0.21-0.24-0.47-0.43-0.78-0.56
	c-0.31-0.13-0.66-0.2-1.06-0.2c-0.82,0-1.46,0.24-1.93,0.71c-0.47,0.47-0.77,1.13-0.89,1.97H631.88z M642.63,535.91
	c-0.06,0.07-0.12,0.13-0.17,0.17c-0.06,0.04-0.14,0.06-0.24,0.06c-0.11,0-0.22-0.04-0.33-0.12c-0.12-0.08-0.26-0.17-0.44-0.27
	c-0.18-0.1-0.39-0.19-0.64-0.27c-0.25-0.08-0.56-0.12-0.92-0.12c-0.48,0-0.9,0.09-1.27,0.26c-0.37,0.17-0.67,0.42-0.91,0.74
	c-0.24,0.32-0.43,0.71-0.55,1.17c-0.13,0.46-0.19,0.97-0.19,1.55c0,0.59,0.07,1.12,0.2,1.58c0.13,0.46,0.32,0.85,0.57,1.17
	c0.25,0.32,0.55,0.56,0.9,0.72c0.35,0.16,0.75,0.24,1.18,0.24c0.42,0,0.77-0.05,1.04-0.15c0.27-0.1,0.5-0.21,0.68-0.33
	c0.18-0.12,0.33-0.23,0.45-0.33c0.12-0.1,0.24-0.15,0.37-0.15c0.16,0,0.28,0.06,0.37,0.18l0.56,0.72c-0.23,0.29-0.49,0.53-0.78,0.73
	c-0.29,0.2-0.6,0.36-0.92,0.49c-0.33,0.13-0.67,0.22-1.02,0.28c-0.36,0.06-0.72,0.09-1.08,0.09c-0.63,0-1.22-0.12-1.77-0.35
	c-0.55-0.23-1.02-0.57-1.43-1.02c-0.4-0.45-0.72-0.99-0.95-1.64c-0.23-0.65-0.35-1.39-0.35-2.21c0-0.75,0.1-1.45,0.31-2.09
	s0.52-1.19,0.93-1.65c0.41-0.46,0.91-0.83,1.51-1.09c0.6-0.26,1.28-0.39,2.06-0.39c0.73,0,1.36,0.12,1.92,0.35
	c0.55,0.23,1.04,0.56,1.48,0.99L642.63,535.91z M658.19,529.42v14.73h-1.18c-0.27,0-0.44-0.13-0.51-0.39l-0.17-1.17
	c-0.43,0.51-0.92,0.92-1.47,1.23c-0.55,0.31-1.18,0.46-1.9,0.46c-0.58,0-1.1-0.11-1.57-0.34c-0.47-0.23-0.87-0.56-1.2-0.99
	c-0.33-0.44-0.59-0.98-0.77-1.62c-0.18-0.65-0.27-1.39-0.27-2.23c0-0.75,0.1-1.45,0.3-2.1c0.2-0.65,0.49-1.2,0.87-1.68
	c0.38-0.47,0.84-0.84,1.38-1.11c0.54-0.27,1.15-0.4,1.83-0.4c0.61,0,1.13,0.1,1.56,0.3c0.43,0.2,0.81,0.48,1.15,0.85v-5.55H658.19z
	 M656.23,536.47c-0.32-0.42-0.66-0.71-1.03-0.88c-0.37-0.17-0.78-0.25-1.24-0.25c-0.89,0-1.58,0.32-2.07,0.96
	c-0.49,0.64-0.73,1.58-0.73,2.81c0,0.65,0.05,1.2,0.16,1.65c0.11,0.46,0.27,0.83,0.48,1.12c0.21,0.29,0.47,0.5,0.77,0.64
	c0.31,0.14,0.65,0.2,1.04,0.2c0.57,0,1.05-0.13,1.47-0.38c0.41-0.25,0.8-0.61,1.16-1.07V536.47z M669.04,542.7
	c-0.24,0.28-0.52,0.52-0.83,0.72c-0.31,0.2-0.65,0.37-1,0.49c-0.35,0.13-0.72,0.22-1.09,0.28c-0.38,0.06-0.75,0.09-1.11,0.09
	c-0.7,0-1.35-0.12-1.94-0.35c-0.6-0.24-1.11-0.58-1.55-1.04c-0.44-0.46-0.78-1.02-1.02-1.7c-0.24-0.68-0.36-1.45-0.36-2.33
	c0-0.71,0.11-1.36,0.33-1.97c0.22-0.61,0.53-1.14,0.94-1.59c0.41-0.45,0.91-0.81,1.5-1.07c0.59-0.26,1.26-0.39,2-0.39
	c0.62,0,1.19,0.1,1.71,0.3c0.52,0.2,0.97,0.5,1.35,0.88c0.38,0.39,0.68,0.86,0.89,1.43c0.22,0.57,0.32,1.21,0.32,1.94
	c0,0.3-0.03,0.5-0.1,0.6c-0.07,0.1-0.19,0.15-0.37,0.15h-6.65c0.02,0.61,0.11,1.13,0.26,1.58c0.15,0.45,0.36,0.82,0.63,1.12
	c0.27,0.3,0.59,0.52,0.96,0.67c0.37,0.15,0.79,0.22,1.25,0.22c0.43,0,0.81-0.05,1.12-0.15c0.32-0.1,0.59-0.21,0.82-0.32
	c0.23-0.12,0.42-0.22,0.58-0.32c0.16-0.1,0.29-0.15,0.41-0.15c0.16,0,0.28,0.06,0.37,0.18L669.04,542.7z M667.43,537.95
	c0-0.39-0.05-0.74-0.16-1.07c-0.11-0.33-0.27-0.61-0.48-0.85c-0.21-0.24-0.47-0.43-0.78-0.56c-0.31-0.13-0.66-0.2-1.06-0.2
	c-0.82,0-1.46,0.24-1.93,0.71c-0.47,0.47-0.77,1.13-0.89,1.97H667.43z M673.07,529.42v14.73h-1.96v-14.73H673.07z M678.05,530.88
	c0,0.18-0.04,0.35-0.11,0.51c-0.07,0.16-0.17,0.31-0.29,0.43c-0.12,0.12-0.27,0.22-0.43,0.29c-0.17,0.07-0.34,0.1-0.52,0.1
	c-0.18,0-0.35-0.03-0.51-0.1c-0.16-0.07-0.3-0.17-0.42-0.29c-0.12-0.12-0.22-0.27-0.29-0.43c-0.07-0.16-0.1-0.33-0.1-0.51
	c0-0.19,0.03-0.36,0.1-0.52c0.07-0.16,0.17-0.31,0.29-0.43c0.12-0.12,0.26-0.22,0.42-0.29c0.16-0.07,0.33-0.1,0.51-0.1
	c0.18,0,0.35,0.03,0.52,0.1c0.17,0.07,0.31,0.17,0.43,0.29c0.12,0.12,0.22,0.27,0.29,0.43
	C678.02,530.52,678.05,530.69,678.05,530.88z M677.68,534.01v10.14h-1.95v-10.14H677.68z M689.1,534.01l-4.11,10.14h-1.76
	l-4.11-10.14h1.61c0.15,0,0.28,0.04,0.38,0.11c0.1,0.07,0.17,0.17,0.2,0.28l2.43,6.23c0.09,0.26,0.16,0.52,0.22,0.77
	c0.06,0.26,0.12,0.51,0.17,0.76c0.05-0.25,0.11-0.51,0.18-0.76c0.07-0.25,0.15-0.51,0.24-0.78l2.46-6.23
	c0.04-0.11,0.11-0.21,0.21-0.28c0.1-0.07,0.22-0.11,0.36-0.11H689.1z M698.5,542.7c-0.24,0.28-0.52,0.52-0.83,0.72
	c-0.31,0.2-0.65,0.37-1,0.49c-0.35,0.13-0.72,0.22-1.09,0.28c-0.38,0.06-0.75,0.09-1.11,0.09c-0.7,0-1.35-0.12-1.94-0.35
	c-0.6-0.24-1.11-0.58-1.55-1.04c-0.44-0.46-0.78-1.02-1.02-1.7c-0.24-0.68-0.36-1.45-0.36-2.33c0-0.71,0.11-1.36,0.33-1.97
	c0.22-0.61,0.53-1.14,0.94-1.59c0.41-0.45,0.91-0.81,1.5-1.07c0.59-0.26,1.26-0.39,2-0.39c0.62,0,1.19,0.1,1.71,0.3
	c0.52,0.2,0.97,0.5,1.35,0.88c0.38,0.39,0.68,0.86,0.89,1.43c0.22,0.57,0.32,1.21,0.32,1.94c0,0.3-0.03,0.5-0.1,0.6
	c-0.07,0.1-0.19,0.15-0.37,0.15h-6.65c0.02,0.61,0.11,1.13,0.26,1.58c0.15,0.45,0.36,0.82,0.63,1.12s0.59,0.52,0.96,0.67
	c0.37,0.15,0.79,0.22,1.25,0.22c0.43,0,0.81-0.05,1.12-0.15c0.32-0.1,0.59-0.21,0.82-0.32c0.23-0.12,0.42-0.22,0.58-0.32
	c0.16-0.1,0.29-0.15,0.41-0.15c0.16,0,0.28,0.06,0.37,0.18L698.5,542.7z M696.89,537.95c0-0.39-0.05-0.74-0.16-1.07
	c-0.11-0.33-0.27-0.61-0.48-0.85c-0.21-0.24-0.47-0.43-0.78-0.56c-0.31-0.13-0.66-0.2-1.06-0.2c-0.82,0-1.46,0.24-1.93,0.71
	c-0.47,0.47-0.77,1.13-0.89,1.97H696.89z M702.37,535.96c0.33-0.67,0.72-1.19,1.18-1.57c0.46-0.38,1.01-0.57,1.66-0.57
	c0.22,0,0.43,0.02,0.62,0.07c0.2,0.05,0.37,0.12,0.51,0.22l-0.13,1.47c-0.05,0.18-0.16,0.27-0.33,0.27c-0.09,0-0.23-0.02-0.42-0.05
	c-0.19-0.04-0.39-0.05-0.6-0.05c-0.31,0-0.59,0.04-0.83,0.13c-0.24,0.09-0.45,0.22-0.64,0.4c-0.19,0.18-0.36,0.39-0.5,0.65
	c-0.15,0.26-0.28,0.55-0.41,0.87v6.35h-1.95v-10.14h1.12c0.21,0,0.36,0.04,0.43,0.11c0.08,0.08,0.13,0.21,0.16,0.4L702.37,535.96z
	 M713.57,535.76c-0.05,0.09-0.11,0.15-0.17,0.18c-0.06,0.04-0.14,0.05-0.23,0.05c-0.11,0-0.22-0.04-0.35-0.11
	c-0.13-0.07-0.29-0.15-0.47-0.24c-0.18-0.09-0.4-0.17-0.64-0.24c-0.25-0.07-0.54-0.11-0.88-0.11c-0.28,0-0.53,0.03-0.76,0.1
	c-0.23,0.07-0.42,0.17-0.58,0.29c-0.16,0.12-0.28,0.27-0.37,0.44c-0.09,0.17-0.13,0.35-0.13,0.54c0,0.25,0.07,0.46,0.22,0.63
	c0.15,0.17,0.35,0.31,0.59,0.43c0.24,0.12,0.52,0.23,0.83,0.32c0.31,0.1,0.63,0.2,0.95,0.3c0.32,0.11,0.64,0.23,0.95,0.36
	c0.31,0.14,0.59,0.31,0.83,0.51c0.24,0.2,0.44,0.45,0.59,0.73c0.15,0.29,0.22,0.64,0.22,1.05c0,0.47-0.08,0.91-0.25,1.31
	c-0.17,0.4-0.42,0.75-0.75,1.04c-0.33,0.29-0.74,0.52-1.22,0.69c-0.49,0.17-1.04,0.25-1.67,0.25c-0.7,0-1.34-0.12-1.94-0.35
	c-0.59-0.23-1.09-0.53-1.49-0.89l0.46-0.75c0.05-0.09,0.12-0.16,0.2-0.21c0.08-0.05,0.19-0.07,0.32-0.07c0.13,0,0.26,0.05,0.39,0.14
	c0.13,0.09,0.29,0.19,0.48,0.3c0.19,0.11,0.41,0.21,0.68,0.3c0.27,0.09,0.6,0.13,1,0.13c0.33,0,0.62-0.04,0.87-0.12
	c0.25-0.08,0.45-0.2,0.61-0.34c0.16-0.14,0.28-0.31,0.36-0.49c0.08-0.19,0.12-0.38,0.12-0.59c0-0.27-0.07-0.49-0.22-0.66
	c-0.15-0.18-0.35-0.33-0.59-0.45c-0.24-0.13-0.52-0.24-0.83-0.33c-0.31-0.09-0.63-0.19-0.96-0.3c-0.33-0.11-0.65-0.23-0.96-0.37
	c-0.31-0.14-0.59-0.32-0.83-0.53c-0.24-0.21-0.44-0.47-0.59-0.78c-0.15-0.31-0.22-0.68-0.22-1.12c0-0.39,0.08-0.77,0.24-1.13
	c0.16-0.36,0.4-0.68,0.71-0.95c0.31-0.27,0.69-0.49,1.15-0.65c0.46-0.16,0.98-0.24,1.56-0.24c0.67,0,1.28,0.11,1.82,0.32
	c0.54,0.21,1.01,0.51,1.39,0.88L713.57,535.76z M720.62,535.43c0.57-0.54,1.18-0.94,1.84-1.21c0.66-0.27,1.39-0.4,2.18-0.4
	c0.58,0,1.09,0.09,1.54,0.28c0.45,0.19,0.82,0.45,1.13,0.79c0.31,0.34,0.54,0.75,0.69,1.22c0.16,0.47,0.23,0.99,0.23,1.57v6.47
	h-0.87c-0.19,0-0.34-0.03-0.44-0.09c-0.1-0.06-0.18-0.18-0.24-0.35l-0.21-0.89c-0.26,0.24-0.52,0.45-0.77,0.63
	c-0.25,0.18-0.52,0.34-0.79,0.47c-0.28,0.13-0.57,0.23-0.88,0.29c-0.31,0.07-0.66,0.1-1.04,0.1c-0.4,0-0.77-0.05-1.12-0.16
	c-0.35-0.11-0.65-0.28-0.91-0.5c-0.26-0.23-0.46-0.51-0.61-0.85c-0.15-0.34-0.22-0.74-0.22-1.19c0-0.4,0.11-0.78,0.32-1.15
	c0.22-0.37,0.57-0.7,1.06-0.99c0.49-0.29,1.13-0.53,1.92-0.72c0.79-0.19,1.76-0.29,2.91-0.32v-0.74c0-0.77-0.16-1.34-0.49-1.72
	c-0.33-0.38-0.81-0.57-1.44-0.57c-0.43,0-0.78,0.05-1.07,0.16c-0.29,0.11-0.54,0.22-0.75,0.35c-0.21,0.13-0.39,0.25-0.55,0.35
	c-0.16,0.11-0.32,0.16-0.48,0.16c-0.13,0-0.25-0.04-0.34-0.11c-0.1-0.07-0.17-0.16-0.23-0.26L720.62,535.43z M726.33,539.65
	c-0.79,0.03-1.46,0.09-2.02,0.18c-0.55,0.1-1,0.22-1.35,0.38c-0.35,0.16-0.6,0.35-0.75,0.56c-0.15,0.22-0.23,0.46-0.23,0.72
	c0,0.25,0.04,0.47,0.12,0.65c0.08,0.18,0.2,0.33,0.34,0.45c0.14,0.12,0.31,0.2,0.5,0.25c0.19,0.05,0.4,0.08,0.63,0.08
	c0.3,0,0.57-0.03,0.82-0.09s0.48-0.14,0.7-0.25c0.22-0.11,0.43-0.24,0.63-0.4c0.2-0.16,0.4-0.34,0.59-0.55V539.65z M736.14,544.15
	v-8.54l-1.06-0.13c-0.15-0.03-0.28-0.09-0.37-0.16c-0.1-0.08-0.14-0.19-0.14-0.33v-0.81h1.58v-0.92c0-0.58,0.08-1.09,0.25-1.55
	c0.17-0.45,0.4-0.84,0.71-1.15c0.31-0.32,0.68-0.56,1.12-0.72c0.44-0.16,0.93-0.24,1.47-0.24c0.46,0,0.88,0.07,1.27,0.2l-0.04,0.98
	c-0.01,0.09-0.03,0.15-0.08,0.19c-0.05,0.04-0.11,0.07-0.18,0.09c-0.08,0.02-0.17,0.03-0.28,0.03c-0.11,0-0.23,0.01-0.35,0.01
	c-0.3,0-0.57,0.04-0.82,0.11c-0.25,0.07-0.46,0.2-0.63,0.37c-0.17,0.17-0.31,0.4-0.4,0.68c-0.09,0.28-0.14,0.63-0.14,1.05v0.86h2.84
	v1.42h-2.78v8.56H736.14z M750.74,534.01v10.14h-1.17c-0.27,0-0.44-0.13-0.52-0.39l-0.14-1.02c-0.22,0.23-0.45,0.45-0.69,0.64
	c-0.24,0.19-0.5,0.36-0.77,0.49c-0.27,0.14-0.56,0.24-0.87,0.32c-0.31,0.08-0.64,0.11-0.99,0.11c-0.56,0-1.05-0.09-1.47-0.28
	c-0.42-0.19-0.78-0.45-1.06-0.78c-0.29-0.34-0.5-0.74-0.65-1.21c-0.15-0.47-0.22-0.99-0.22-1.57v-6.46h1.96v6.46
	c0,0.73,0.17,1.29,0.5,1.69c0.33,0.4,0.84,0.6,1.53,0.6c0.5,0,0.96-0.12,1.4-0.35c0.43-0.24,0.84-0.56,1.22-0.97v-7.43H750.74z
	 M755.26,529.42v14.73h-1.96v-14.73H755.26z M759.83,529.42v14.73h-1.96v-14.73H759.83z M774.34,535.91
	c-0.06,0.07-0.12,0.13-0.17,0.17c-0.06,0.04-0.14,0.06-0.24,0.06c-0.11,0-0.22-0.04-0.33-0.12c-0.12-0.08-0.26-0.17-0.44-0.27
	c-0.18-0.1-0.39-0.19-0.64-0.27c-0.25-0.08-0.56-0.12-0.92-0.12c-0.48,0-0.9,0.09-1.27,0.26c-0.37,0.17-0.67,0.42-0.91,0.74
	c-0.24,0.32-0.43,0.71-0.55,1.17c-0.13,0.46-0.19,0.97-0.19,1.55c0,0.59,0.07,1.12,0.2,1.58c0.13,0.46,0.32,0.85,0.57,1.17
	c0.25,0.32,0.55,0.56,0.9,0.72c0.35,0.16,0.75,0.24,1.18,0.24c0.42,0,0.77-0.05,1.04-0.15c0.27-0.1,0.5-0.21,0.68-0.33
	c0.18-0.12,0.33-0.23,0.45-0.33c0.12-0.1,0.24-0.15,0.37-0.15c0.16,0,0.28,0.06,0.37,0.18l0.56,0.72c-0.23,0.29-0.49,0.53-0.78,0.73
	c-0.29,0.2-0.6,0.36-0.92,0.49c-0.33,0.13-0.67,0.22-1.02,0.28c-0.36,0.06-0.72,0.09-1.08,0.09c-0.63,0-1.22-0.12-1.77-0.35
	c-0.55-0.23-1.02-0.57-1.43-1.02c-0.4-0.45-0.72-0.99-0.95-1.64c-0.23-0.65-0.35-1.39-0.35-2.21c0-0.75,0.1-1.45,0.31-2.09
	s0.52-1.19,0.93-1.65c0.41-0.46,0.91-0.83,1.51-1.09c0.6-0.26,1.28-0.39,2.06-0.39c0.73,0,1.36,0.12,1.92,0.35
	c0.55,0.23,1.04,0.56,1.48,0.99L774.34,535.91z M780.73,533.85c0.75,0,1.42,0.12,2.02,0.36c0.6,0.24,1.11,0.59,1.54,1.05
	c0.42,0.46,0.75,1,0.97,1.65c0.23,0.64,0.34,1.36,0.34,2.16c0,0.8-0.11,1.52-0.34,2.17c-0.23,0.65-0.55,1.19-0.97,1.65
	c-0.42,0.45-0.93,0.8-1.54,1.04c-0.6,0.24-1.28,0.36-2.02,0.36c-0.75,0-1.43-0.12-2.03-0.36c-0.6-0.24-1.12-0.59-1.54-1.04
	c-0.43-0.45-0.75-1-0.98-1.65c-0.23-0.65-0.34-1.37-0.34-2.17c0-0.8,0.11-1.52,0.34-2.16c0.23-0.64,0.56-1.19,0.98-1.65
	c0.43-0.46,0.94-0.81,1.54-1.05C779.3,533.97,779.98,533.85,780.73,533.85z M780.73,542.77c0.96,0,1.67-0.32,2.15-0.97
	c0.47-0.65,0.71-1.55,0.71-2.72c0-1.17-0.24-2.08-0.71-2.73c-0.47-0.65-1.19-0.97-2.15-0.97c-0.97,0-1.7,0.32-2.17,0.97
	c-0.48,0.65-0.71,1.56-0.71,2.73c0,1.17,0.24,2.08,0.71,2.72C779.04,542.45,779.76,542.77,780.73,542.77z M796,534.01v10.14h-1.17
	c-0.27,0-0.44-0.13-0.52-0.39l-0.14-1.02c-0.22,0.23-0.45,0.45-0.69,0.64c-0.24,0.19-0.5,0.36-0.77,0.49
	c-0.27,0.14-0.56,0.24-0.87,0.32c-0.31,0.08-0.64,0.11-0.99,0.11c-0.56,0-1.05-0.09-1.47-0.28c-0.42-0.19-0.78-0.45-1.06-0.78
	c-0.29-0.34-0.5-0.74-0.65-1.21c-0.15-0.47-0.22-0.99-0.22-1.57v-6.46h1.96v6.46c0,0.73,0.17,1.29,0.5,1.69
	c0.33,0.4,0.84,0.6,1.53,0.6c0.5,0,0.96-0.12,1.4-0.35c0.43-0.24,0.84-0.56,1.22-0.97v-7.43H796z M800.36,535.96
	c0.33-0.67,0.72-1.19,1.18-1.57c0.46-0.38,1.01-0.57,1.66-0.57c0.22,0,0.43,0.02,0.62,0.07c0.2,0.05,0.37,0.12,0.51,0.22l-0.13,1.47
	c-0.05,0.18-0.16,0.27-0.33,0.27c-0.09,0-0.23-0.02-0.42-0.05c-0.19-0.04-0.39-0.05-0.6-0.05c-0.31,0-0.59,0.04-0.83,0.13
	c-0.24,0.09-0.45,0.22-0.64,0.4c-0.19,0.18-0.36,0.39-0.5,0.65c-0.15,0.26-0.28,0.55-0.41,0.87v6.35h-1.95v-10.14h1.12
	c0.21,0,0.36,0.04,0.43,0.11c0.08,0.08,0.13,0.21,0.16,0.4L800.36,535.96z M811.56,535.76c-0.05,0.09-0.11,0.15-0.17,0.18
	c-0.06,0.04-0.14,0.05-0.23,0.05c-0.11,0-0.22-0.04-0.35-0.11c-0.13-0.07-0.29-0.15-0.47-0.24c-0.18-0.09-0.4-0.17-0.64-0.24
	c-0.25-0.07-0.54-0.11-0.88-0.11c-0.28,0-0.53,0.03-0.76,0.1c-0.23,0.07-0.42,0.17-0.58,0.29c-0.16,0.12-0.28,0.27-0.37,0.44
	c-0.09,0.17-0.13,0.35-0.13,0.54c0,0.25,0.07,0.46,0.22,0.63c0.15,0.17,0.35,0.31,0.59,0.43c0.24,0.12,0.52,0.23,0.83,0.32
	c0.31,0.1,0.63,0.2,0.95,0.3c0.32,0.11,0.64,0.23,0.95,0.36c0.31,0.14,0.59,0.31,0.83,0.51c0.24,0.2,0.44,0.45,0.59,0.73
	c0.15,0.29,0.22,0.64,0.22,1.05c0,0.47-0.08,0.91-0.25,1.31c-0.17,0.4-0.42,0.75-0.75,1.04c-0.33,0.29-0.74,0.52-1.22,0.69
	c-0.49,0.17-1.04,0.25-1.67,0.25c-0.7,0-1.34-0.12-1.94-0.35c-0.59-0.23-1.09-0.53-1.49-0.89l0.46-0.75
	c0.05-0.09,0.12-0.16,0.2-0.21c0.08-0.05,0.19-0.07,0.32-0.07c0.13,0,0.26,0.05,0.39,0.14c0.13,0.09,0.29,0.19,0.48,0.3
	c0.19,0.11,0.41,0.21,0.68,0.3c0.27,0.09,0.6,0.13,1,0.13c0.33,0,0.62-0.04,0.87-0.12c0.25-0.08,0.45-0.2,0.61-0.34
	c0.16-0.14,0.28-0.31,0.36-0.49c0.08-0.19,0.12-0.38,0.12-0.59c0-0.27-0.07-0.49-0.22-0.66c-0.15-0.18-0.35-0.33-0.59-0.45
	c-0.24-0.13-0.52-0.24-0.83-0.33c-0.31-0.09-0.63-0.19-0.96-0.3c-0.33-0.11-0.65-0.23-0.96-0.37c-0.31-0.14-0.59-0.32-0.83-0.53
	c-0.24-0.21-0.44-0.47-0.59-0.78c-0.15-0.31-0.22-0.68-0.22-1.12c0-0.39,0.08-0.77,0.24-1.13c0.16-0.36,0.4-0.68,0.71-0.95
	c0.31-0.27,0.69-0.49,1.15-0.65c0.46-0.16,0.98-0.24,1.56-0.24c0.67,0,1.28,0.11,1.82,0.32c0.54,0.21,1.01,0.51,1.39,0.88
	L811.56,535.76z M822.37,542.7c-0.24,0.28-0.52,0.52-0.83,0.72c-0.31,0.2-0.65,0.37-1,0.49c-0.35,0.13-0.72,0.22-1.09,0.28
	c-0.38,0.06-0.75,0.09-1.11,0.09c-0.7,0-1.35-0.12-1.94-0.35c-0.6-0.24-1.11-0.58-1.55-1.04c-0.44-0.46-0.78-1.02-1.02-1.7
	c-0.24-0.68-0.36-1.45-0.36-2.33c0-0.71,0.11-1.36,0.33-1.97c0.22-0.61,0.53-1.14,0.94-1.59c0.41-0.45,0.91-0.81,1.5-1.07
	c0.59-0.26,1.26-0.39,2-0.39c0.62,0,1.19,0.1,1.71,0.3c0.52,0.2,0.97,0.5,1.35,0.88c0.38,0.39,0.68,0.86,0.89,1.43
	c0.22,0.57,0.32,1.21,0.32,1.94c0,0.3-0.03,0.5-0.1,0.6c-0.07,0.1-0.19,0.15-0.37,0.15h-6.65c0.02,0.61,0.11,1.13,0.26,1.58
	c0.15,0.45,0.36,0.82,0.63,1.12s0.59,0.52,0.96,0.67c0.37,0.15,0.79,0.22,1.25,0.22c0.43,0,0.81-0.05,1.12-0.15
	c0.32-0.1,0.59-0.21,0.82-0.32c0.23-0.12,0.42-0.22,0.58-0.32c0.16-0.1,0.29-0.15,0.41-0.15c0.16,0,0.28,0.06,0.37,0.18
	L822.37,542.7z M820.77,537.95c0-0.39-0.05-0.74-0.16-1.07c-0.11-0.33-0.27-0.61-0.48-0.85c-0.21-0.24-0.47-0.43-0.78-0.56
	c-0.31-0.13-0.66-0.2-1.06-0.2c-0.82,0-1.46,0.24-1.93,0.71c-0.47,0.47-0.77,1.13-0.89,1.97H820.77z M833.56,533.85
	c0.75,0,1.42,0.12,2.02,0.36c0.6,0.24,1.11,0.59,1.54,1.05c0.42,0.46,0.75,1,0.97,1.65c0.23,0.64,0.34,1.36,0.34,2.16
	c0,0.8-0.11,1.52-0.34,2.17c-0.23,0.65-0.55,1.19-0.97,1.65c-0.42,0.45-0.93,0.8-1.54,1.04c-0.6,0.24-1.28,0.36-2.02,0.36
	c-0.75,0-1.43-0.12-2.03-0.36c-0.6-0.24-1.12-0.59-1.54-1.04c-0.43-0.45-0.75-1-0.98-1.65c-0.23-0.65-0.34-1.37-0.34-2.17
	c0-0.8,0.11-1.52,0.34-2.16c0.23-0.64,0.56-1.19,0.98-1.65c0.43-0.46,0.94-0.81,1.54-1.05
	C832.13,533.97,832.81,533.85,833.56,533.85z M833.56,542.77c0.96,0,1.67-0.32,2.15-0.97c0.47-0.65,0.71-1.55,0.71-2.72
	c0-1.17-0.24-2.08-0.71-2.73c-0.47-0.65-1.19-0.97-2.15-0.97c-0.97,0-1.7,0.32-2.17,0.97c-0.48,0.65-0.71,1.56-0.71,2.73
	c0,1.17,0.24,2.08,0.71,2.72C831.87,542.45,832.59,542.77,833.56,542.77z M840.84,544.15v-8.54l-1.06-0.13
	c-0.15-0.03-0.28-0.09-0.37-0.16c-0.1-0.08-0.14-0.19-0.14-0.33v-0.81h1.58v-0.92c0-0.58,0.08-1.09,0.25-1.55
	c0.17-0.45,0.4-0.84,0.71-1.15c0.31-0.32,0.68-0.56,1.12-0.72c0.44-0.16,0.93-0.24,1.47-0.24c0.46,0,0.88,0.07,1.27,0.2l-0.04,0.98
	c-0.01,0.09-0.03,0.15-0.08,0.19c-0.05,0.04-0.11,0.07-0.18,0.09c-0.08,0.02-0.17,0.03-0.28,0.03c-0.11,0-0.23,0.01-0.35,0.01
	c-0.3,0-0.57,0.04-0.82,0.11c-0.25,0.07-0.46,0.2-0.63,0.37c-0.17,0.17-0.31,0.4-0.4,0.68c-0.09,0.28-0.14,0.63-0.14,1.05v0.86h2.84
	v1.42h-2.78v8.56H840.84z M851.21,535.43c0.57-0.54,1.18-0.94,1.84-1.21c0.66-0.27,1.39-0.4,2.18-0.4c0.58,0,1.09,0.09,1.54,0.28
	c0.45,0.19,0.82,0.45,1.13,0.79c0.31,0.34,0.54,0.75,0.69,1.22c0.16,0.47,0.23,0.99,0.23,1.57v6.47h-0.87
	c-0.19,0-0.34-0.03-0.44-0.09c-0.1-0.06-0.18-0.18-0.24-0.35l-0.21-0.89c-0.26,0.24-0.52,0.45-0.77,0.63
	c-0.25,0.18-0.52,0.34-0.79,0.47c-0.28,0.13-0.57,0.23-0.88,0.29c-0.31,0.07-0.66,0.1-1.04,0.1c-0.4,0-0.77-0.05-1.12-0.16
	c-0.35-0.11-0.65-0.28-0.91-0.5c-0.26-0.23-0.46-0.51-0.61-0.85c-0.15-0.34-0.22-0.74-0.22-1.19c0-0.4,0.11-0.78,0.32-1.15
	c0.22-0.37,0.57-0.7,1.06-0.99c0.49-0.29,1.13-0.53,1.92-0.72c0.79-0.19,1.76-0.29,2.91-0.32v-0.74c0-0.77-0.16-1.34-0.49-1.72
	c-0.33-0.38-0.81-0.57-1.44-0.57c-0.43,0-0.78,0.05-1.07,0.16c-0.29,0.11-0.54,0.22-0.75,0.35c-0.21,0.13-0.39,0.25-0.55,0.35
	c-0.16,0.11-0.32,0.16-0.48,0.16c-0.13,0-0.25-0.04-0.34-0.11c-0.1-0.07-0.17-0.16-0.23-0.26L851.21,535.43z M856.92,539.65
	c-0.79,0.03-1.46,0.09-2.02,0.18c-0.55,0.1-1,0.22-1.35,0.38c-0.35,0.16-0.6,0.35-0.75,0.56c-0.15,0.22-0.23,0.46-0.23,0.72
	c0,0.25,0.04,0.47,0.12,0.65c0.08,0.18,0.2,0.33,0.34,0.45c0.14,0.12,0.31,0.2,0.5,0.25c0.19,0.05,0.4,0.08,0.63,0.08
	c0.3,0,0.57-0.03,0.82-0.09c0.25-0.06,0.48-0.14,0.7-0.25c0.22-0.11,0.43-0.24,0.63-0.4c0.2-0.16,0.4-0.34,0.59-0.55V539.65z
	 M863.06,535.42c0.22-0.23,0.45-0.45,0.69-0.64c0.24-0.19,0.49-0.36,0.76-0.49c0.27-0.14,0.56-0.24,0.87-0.32
	c0.31-0.08,0.64-0.11,0.99-0.11c0.56,0,1.05,0.09,1.47,0.28c0.42,0.19,0.78,0.45,1.06,0.78c0.29,0.34,0.5,0.74,0.65,1.21
	c0.15,0.47,0.22,0.99,0.22,1.57v6.46h-1.96v-6.46c0-0.73-0.17-1.29-0.5-1.69c-0.33-0.4-0.84-0.6-1.53-0.6c-0.5,0-0.97,0.12-1.4,0.35
	c-0.44,0.24-0.84,0.56-1.21,0.96v7.44h-1.95v-10.14h1.17c0.27,0,0.44,0.13,0.51,0.39L863.06,535.42z M881.67,544.15h-1.96v-8.56
	h-5.09v5.94c0,0.4,0.1,0.7,0.29,0.89c0.2,0.2,0.45,0.29,0.75,0.29c0.18,0,0.33-0.02,0.46-0.07c0.13-0.05,0.24-0.1,0.33-0.15
	c0.09-0.06,0.17-0.11,0.24-0.15c0.07-0.05,0.13-0.07,0.18-0.07c0.07,0,0.12,0.01,0.15,0.04c0.04,0.03,0.07,0.08,0.11,0.14l0.58,0.94
	c-0.32,0.29-0.7,0.52-1.14,0.68c-0.44,0.16-0.9,0.24-1.37,0.24c-0.82,0-1.45-0.23-1.89-0.69c-0.44-0.46-0.66-1.11-0.66-1.97v-6.07
	h-1.18c-0.11,0-0.21-0.03-0.28-0.1c-0.08-0.07-0.11-0.17-0.11-0.31v-0.79l1.66-0.23l0.43-3.02c0.03-0.11,0.08-0.2,0.15-0.26
	c0.08-0.06,0.17-0.09,0.29-0.09h0.99v3.4h7.05V544.15z M882.11,530.82c0,0.18-0.04,0.35-0.11,0.51c-0.07,0.16-0.17,0.31-0.29,0.43
	c-0.12,0.12-0.27,0.22-0.43,0.29c-0.17,0.07-0.34,0.1-0.52,0.1s-0.35-0.03-0.51-0.1c-0.16-0.07-0.3-0.17-0.42-0.29
	c-0.12-0.12-0.22-0.27-0.29-0.43c-0.07-0.16-0.1-0.33-0.1-0.51c0-0.19,0.03-0.36,0.1-0.53c0.07-0.17,0.17-0.31,0.29-0.43
	c0.12-0.12,0.26-0.22,0.42-0.29c0.16-0.07,0.33-0.1,0.51-0.1s0.35,0.03,0.52,0.1c0.17,0.07,0.31,0.17,0.43,0.29
	c0.12,0.12,0.22,0.27,0.29,0.43C882.07,530.45,882.11,530.63,882.11,530.82z M886.24,535.41c0.42-0.47,0.89-0.84,1.43-1.13
	c0.53-0.29,1.14-0.43,1.82-0.43c0.59,0,1.13,0.11,1.6,0.34c0.48,0.23,0.88,0.56,1.21,0.99c0.33,0.43,0.59,0.95,0.77,1.56
	c0.18,0.61,0.27,1.3,0.27,2.08c0,0.82-0.1,1.56-0.3,2.24c-0.2,0.67-0.49,1.25-0.87,1.73c-0.38,0.48-0.83,0.85-1.37,1.11
	c-0.54,0.26-1.14,0.39-1.82,0.39c-0.33,0-0.63-0.03-0.9-0.09c-0.27-0.06-0.52-0.15-0.75-0.27c-0.23-0.12-0.44-0.27-0.63-0.44
	c-0.19-0.17-0.38-0.37-0.55-0.59l-0.09,0.85c-0.05,0.27-0.22,0.41-0.5,0.41h-1.26v-14.73h1.95V535.41z M886.24,541.66
	c0.32,0.42,0.67,0.71,1.04,0.88c0.37,0.17,0.78,0.25,1.22,0.25c0.9,0,1.6-0.32,2.09-0.97c0.49-0.65,0.73-1.62,0.73-2.92
	c0-1.2-0.22-2.09-0.65-2.65c-0.43-0.56-1.04-0.84-1.84-0.84c-0.56,0-1.04,0.13-1.45,0.38c-0.41,0.25-0.79,0.61-1.14,1.08V541.66z
	 M897.72,530.88c0,0.18-0.04,0.35-0.11,0.51c-0.07,0.16-0.17,0.31-0.29,0.43c-0.12,0.12-0.27,0.22-0.43,0.29
	c-0.17,0.07-0.34,0.1-0.52,0.1c-0.18,0-0.35-0.03-0.51-0.1c-0.16-0.07-0.3-0.17-0.42-0.29c-0.12-0.12-0.22-0.27-0.29-0.43
	c-0.07-0.16-0.1-0.33-0.1-0.51c0-0.19,0.03-0.36,0.1-0.52c0.07-0.16,0.17-0.31,0.29-0.43c0.12-0.12,0.26-0.22,0.42-0.29
	c0.16-0.07,0.33-0.1,0.51-0.1c0.18,0,0.35,0.03,0.52,0.1c0.17,0.07,0.31,0.17,0.43,0.29c0.12,0.12,0.22,0.27,0.29,0.43
	C897.68,530.52,897.72,530.69,897.72,530.88z M897.35,534.01v10.14h-1.95v-10.14H897.35z M904.29,533.85c0.75,0,1.42,0.12,2.02,0.36
	c0.6,0.24,1.11,0.59,1.54,1.05c0.42,0.46,0.75,1,0.97,1.65c0.23,0.64,0.34,1.36,0.34,2.16c0,0.8-0.11,1.52-0.34,2.17
	c-0.23,0.65-0.55,1.19-0.97,1.65c-0.42,0.45-0.93,0.8-1.54,1.04c-0.6,0.24-1.28,0.36-2.02,0.36c-0.75,0-1.43-0.12-2.03-0.36
	c-0.6-0.24-1.12-0.59-1.54-1.04c-0.43-0.45-0.75-1-0.98-1.65c-0.23-0.65-0.34-1.37-0.34-2.17c0-0.8,0.11-1.52,0.34-2.16
	c0.23-0.64,0.56-1.19,0.98-1.65c0.43-0.46,0.94-0.81,1.54-1.05C902.86,533.97,903.54,533.85,904.29,533.85z M904.29,542.77
	c0.96,0,1.67-0.32,2.15-0.97c0.47-0.65,0.71-1.55,0.71-2.72c0-1.17-0.24-2.08-0.71-2.73c-0.47-0.65-1.19-0.97-2.15-0.97
	c-0.97,0-1.7,0.32-2.17,0.97c-0.48,0.65-0.71,1.56-0.71,2.73c0,1.17,0.24,2.08,0.71,2.72C902.59,542.45,903.32,542.77,904.29,542.77
	z M920.55,544.15h-1.96v-8.56h-5.09v5.94c0,0.4,0.1,0.7,0.29,0.89c0.2,0.2,0.45,0.29,0.75,0.29c0.18,0,0.33-0.02,0.46-0.07
	c0.13-0.05,0.24-0.1,0.33-0.15c0.09-0.06,0.17-0.11,0.24-0.15c0.07-0.05,0.13-0.07,0.18-0.07c0.07,0,0.12,0.01,0.15,0.04
	c0.04,0.03,0.07,0.08,0.11,0.14l0.58,0.94c-0.32,0.29-0.7,0.52-1.14,0.68c-0.44,0.16-0.9,0.24-1.37,0.24
	c-0.82,0-1.45-0.23-1.89-0.69c-0.44-0.46-0.66-1.11-0.66-1.97v-6.07h-1.18c-0.11,0-0.21-0.03-0.28-0.1
	c-0.08-0.07-0.11-0.17-0.11-0.31v-0.79l1.66-0.23l0.43-3.02c0.03-0.11,0.08-0.2,0.15-0.26c0.08-0.06,0.17-0.09,0.29-0.09h0.99v3.4
	h7.05V544.15z M920.99,530.82c0,0.18-0.04,0.35-0.11,0.51c-0.07,0.16-0.17,0.31-0.29,0.43c-0.12,0.12-0.27,0.22-0.43,0.29
	c-0.17,0.07-0.34,0.1-0.52,0.1c-0.18,0-0.35-0.03-0.51-0.1c-0.16-0.07-0.3-0.17-0.42-0.29c-0.12-0.12-0.22-0.27-0.29-0.43
	c-0.07-0.16-0.1-0.33-0.1-0.51c0-0.19,0.03-0.36,0.1-0.53c0.07-0.17,0.17-0.31,0.29-0.43c0.12-0.12,0.26-0.22,0.42-0.29
	c0.16-0.07,0.33-0.1,0.51-0.1c0.18,0,0.35,0.03,0.52,0.1c0.17,0.07,0.31,0.17,0.43,0.29c0.12,0.12,0.22,0.27,0.29,0.43
	C920.95,530.45,920.99,530.63,920.99,530.82z M930.28,535.91c-0.06,0.07-0.12,0.13-0.17,0.17c-0.06,0.04-0.14,0.06-0.24,0.06
	c-0.11,0-0.22-0.04-0.33-0.12c-0.12-0.08-0.26-0.17-0.44-0.27c-0.18-0.1-0.39-0.19-0.64-0.27c-0.25-0.08-0.56-0.12-0.92-0.12
	c-0.48,0-0.9,0.09-1.27,0.26c-0.37,0.17-0.67,0.42-0.91,0.74c-0.24,0.32-0.43,0.71-0.55,1.17c-0.13,0.46-0.19,0.97-0.19,1.55
	c0,0.59,0.07,1.12,0.2,1.58c0.13,0.46,0.32,0.85,0.57,1.17c0.25,0.32,0.55,0.56,0.9,0.72c0.35,0.16,0.75,0.24,1.18,0.24
	c0.42,0,0.77-0.05,1.04-0.15c0.27-0.1,0.5-0.21,0.68-0.33c0.18-0.12,0.33-0.23,0.45-0.33c0.12-0.1,0.24-0.15,0.37-0.15
	c0.16,0,0.28,0.06,0.37,0.18l0.56,0.72c-0.23,0.29-0.49,0.53-0.78,0.73c-0.29,0.2-0.6,0.36-0.92,0.49
	c-0.33,0.13-0.67,0.22-1.02,0.28c-0.36,0.06-0.72,0.09-1.08,0.09c-0.63,0-1.22-0.12-1.77-0.35c-0.55-0.23-1.02-0.57-1.43-1.02
	c-0.4-0.45-0.72-0.99-0.95-1.64c-0.23-0.65-0.35-1.39-0.35-2.21c0-0.75,0.1-1.45,0.31-2.09c0.21-0.64,0.52-1.19,0.93-1.65
	c0.41-0.46,0.91-0.83,1.51-1.09c0.6-0.26,1.28-0.39,2.06-0.39c0.73,0,1.36,0.12,1.92,0.35c0.55,0.23,1.04,0.56,1.48,0.99
	L930.28,535.91z M940.52,544.31c-0.82,0-1.45-0.23-1.89-0.69c-0.44-0.46-0.66-1.11-0.66-1.97v-6.07h-1.18
	c-0.11,0-0.21-0.03-0.28-0.1c-0.08-0.07-0.11-0.17-0.11-0.31v-0.79l1.65-0.23l0.44-3.02c0.03-0.11,0.08-0.2,0.15-0.26
	c0.08-0.06,0.17-0.09,0.29-0.09h0.99v3.4h2.87v1.42h-2.87v5.94c0,0.4,0.1,0.7,0.29,0.89c0.2,0.2,0.45,0.29,0.75,0.29
	c0.18,0,0.33-0.02,0.46-0.07c0.13-0.05,0.24-0.1,0.33-0.15c0.09-0.06,0.17-0.11,0.24-0.15c0.07-0.05,0.13-0.07,0.18-0.07
	c0.07,0,0.12,0.01,0.15,0.04c0.04,0.03,0.07,0.08,0.11,0.14l0.58,0.94c-0.32,0.29-0.7,0.52-1.14,0.68
	C941.45,544.23,940.99,544.31,940.52,544.31z M946.32,535.3c0.43-0.43,0.9-0.78,1.41-1.05c0.52-0.27,1.11-0.4,1.78-0.4
	c0.56,0,1.05,0.09,1.47,0.28c0.42,0.19,0.78,0.45,1.06,0.78c0.29,0.34,0.5,0.74,0.65,1.21c0.15,0.47,0.22,0.99,0.22,1.57v6.46h-1.96
	v-6.46c0-0.73-0.17-1.29-0.5-1.69c-0.33-0.4-0.84-0.6-1.53-0.6c-0.5,0-0.97,0.12-1.4,0.35c-0.44,0.24-0.84,0.56-1.21,0.96v7.44
	h-1.95v-14.73h1.95V535.3z M963.66,542.7c-0.24,0.28-0.52,0.52-0.83,0.72c-0.31,0.2-0.65,0.37-1,0.49
	c-0.35,0.13-0.72,0.22-1.09,0.28c-0.38,0.06-0.75,0.09-1.11,0.09c-0.7,0-1.35-0.12-1.94-0.35c-0.6-0.24-1.11-0.58-1.55-1.04
	c-0.44-0.46-0.78-1.02-1.02-1.7c-0.24-0.68-0.36-1.45-0.36-2.33c0-0.71,0.11-1.36,0.33-1.97c0.22-0.61,0.53-1.14,0.94-1.59
	c0.41-0.45,0.91-0.81,1.5-1.07c0.59-0.26,1.26-0.39,2-0.39c0.62,0,1.19,0.1,1.71,0.3c0.52,0.2,0.97,0.5,1.35,0.88
	c0.38,0.39,0.68,0.86,0.89,1.43c0.22,0.57,0.32,1.21,0.32,1.94c0,0.3-0.03,0.5-0.1,0.6c-0.07,0.1-0.19,0.15-0.37,0.15h-6.65
	c0.02,0.61,0.11,1.13,0.26,1.58c0.15,0.45,0.36,0.82,0.63,1.12c0.27,0.3,0.59,0.52,0.96,0.67c0.37,0.15,0.79,0.22,1.25,0.22
	c0.43,0,0.81-0.05,1.12-0.15c0.32-0.1,0.59-0.21,0.82-0.32c0.23-0.12,0.42-0.22,0.58-0.32c0.16-0.1,0.29-0.15,0.41-0.15
	c0.16,0,0.28,0.06,0.37,0.18L963.66,542.7z M962.05,537.95c0-0.39-0.05-0.74-0.16-1.07c-0.11-0.33-0.27-0.61-0.48-0.85
	s-0.47-0.43-0.78-0.56c-0.31-0.13-0.66-0.2-1.06-0.2c-0.82,0-1.46,0.24-1.93,0.71c-0.47,0.47-0.77,1.13-0.89,1.97H962.05z
	 M967.53,535.96c0.33-0.67,0.72-1.19,1.18-1.57c0.46-0.38,1.01-0.57,1.66-0.57c0.22,0,0.43,0.02,0.62,0.07
	c0.2,0.05,0.37,0.12,0.51,0.22l-0.13,1.47c-0.05,0.18-0.16,0.27-0.33,0.27c-0.09,0-0.23-0.02-0.42-0.05
	c-0.19-0.04-0.39-0.05-0.6-0.05c-0.31,0-0.59,0.04-0.83,0.13c-0.24,0.09-0.45,0.22-0.64,0.4c-0.19,0.18-0.36,0.39-0.5,0.65
	c-0.15,0.26-0.28,0.55-0.41,0.87v6.35h-1.95v-10.14h1.12c0.21,0,0.36,0.04,0.43,0.11c0.08,0.08,0.13,0.21,0.16,0.4L967.53,535.96z
	 M972.39,535.43c0.57-0.54,1.18-0.94,1.84-1.21c0.66-0.27,1.39-0.4,2.18-0.4c0.58,0,1.09,0.09,1.54,0.28
	c0.45,0.19,0.82,0.45,1.13,0.79c0.31,0.34,0.54,0.75,0.69,1.22c0.16,0.47,0.23,0.99,0.23,1.57v6.47h-0.87
	c-0.19,0-0.34-0.03-0.44-0.09c-0.1-0.06-0.18-0.18-0.24-0.35l-0.21-0.89c-0.26,0.24-0.52,0.45-0.77,0.63
	c-0.25,0.18-0.52,0.34-0.79,0.47c-0.28,0.13-0.57,0.23-0.88,0.29c-0.31,0.07-0.66,0.1-1.04,0.1c-0.4,0-0.77-0.05-1.12-0.16
	c-0.35-0.11-0.65-0.28-0.91-0.5c-0.26-0.23-0.46-0.51-0.61-0.85c-0.15-0.34-0.22-0.74-0.22-1.19c0-0.4,0.11-0.78,0.32-1.15
	c0.22-0.37,0.57-0.7,1.06-0.99c0.49-0.29,1.13-0.53,1.92-0.72c0.79-0.19,1.76-0.29,2.91-0.32v-0.74c0-0.77-0.16-1.34-0.49-1.72
	c-0.33-0.38-0.81-0.57-1.44-0.57c-0.43,0-0.78,0.05-1.07,0.16c-0.29,0.11-0.54,0.22-0.75,0.35c-0.21,0.13-0.39,0.25-0.55,0.35
	c-0.16,0.11-0.32,0.16-0.48,0.16c-0.13,0-0.25-0.04-0.34-0.11c-0.1-0.07-0.17-0.16-0.23-0.26L972.39,535.43z M978.1,539.65
	c-0.79,0.03-1.46,0.09-2.02,0.18c-0.55,0.1-1,0.22-1.35,0.38c-0.35,0.16-0.6,0.35-0.75,0.56c-0.15,0.22-0.23,0.46-0.23,0.72
	c0,0.25,0.04,0.47,0.12,0.65c0.08,0.18,0.2,0.33,0.34,0.45c0.14,0.12,0.31,0.2,0.5,0.25c0.19,0.05,0.4,0.08,0.63,0.08
	c0.3,0,0.57-0.03,0.82-0.09c0.25-0.06,0.48-0.14,0.7-0.25c0.22-0.11,0.43-0.24,0.63-0.4c0.2-0.16,0.4-0.34,0.59-0.55V539.65z
	 M984.26,535.53c0.21-0.25,0.44-0.48,0.68-0.69c0.24-0.21,0.5-0.39,0.78-0.54c0.28-0.15,0.58-0.27,0.89-0.35
	c0.32-0.08,0.65-0.12,1.01-0.12c0.58,0,1.1,0.11,1.57,0.34c0.47,0.23,0.87,0.56,1.2,1c0.33,0.44,0.59,0.98,0.77,1.63
	c0.18,0.65,0.27,1.39,0.27,2.23c0,0.75-0.1,1.45-0.3,2.09c-0.2,0.64-0.49,1.2-0.87,1.67c-0.38,0.47-0.84,0.84-1.38,1.11
	c-0.54,0.27-1.15,0.4-1.83,0.4c-0.61,0-1.12-0.1-1.56-0.3c-0.43-0.2-0.82-0.48-1.16-0.84v4.4h-1.95v-13.54h1.17
	c0.27,0,0.44,0.13,0.51,0.39L984.26,535.53z M984.36,541.66c0.32,0.42,0.66,0.71,1.03,0.88c0.37,0.17,0.78,0.25,1.24,0.25
	c0.89,0,1.58-0.32,2.07-0.96c0.49-0.64,0.73-1.58,0.73-2.81c0-0.65-0.05-1.2-0.16-1.65c-0.11-0.46-0.27-0.83-0.48-1.12
	c-0.21-0.29-0.47-0.5-0.77-0.64c-0.31-0.14-0.65-0.2-1.04-0.2c-0.57,0-1.06,0.13-1.47,0.38c-0.42,0.25-0.8,0.61-1.15,1.08V541.66z
	 M1002.03,534.01l-5.63,13.09c-0.06,0.15-0.14,0.26-0.24,0.34c-0.1,0.08-0.25,0.12-0.44,0.12h-1.45l1.86-4.04l-4.16-9.5h1.7
	c0.17,0,0.3,0.04,0.39,0.12c0.09,0.08,0.16,0.17,0.2,0.27l2.58,6.09c0.05,0.15,0.1,0.31,0.15,0.46c0.05,0.16,0.09,0.31,0.12,0.46
	c0.05-0.16,0.1-0.32,0.15-0.47c0.05-0.16,0.11-0.31,0.17-0.46l2.49-6.08c0.05-0.11,0.12-0.21,0.22-0.28
	c0.1-0.07,0.21-0.11,0.34-0.11H1002.03z M1010.07,530.88c0,0.18-0.04,0.35-0.11,0.51c-0.07,0.16-0.17,0.31-0.29,0.43
	c-0.12,0.12-0.27,0.22-0.43,0.29c-0.17,0.07-0.34,0.1-0.52,0.1s-0.35-0.03-0.51-0.1s-0.3-0.17-0.42-0.29
	c-0.12-0.12-0.22-0.27-0.29-0.43c-0.07-0.16-0.1-0.33-0.1-0.51c0-0.19,0.03-0.36,0.1-0.52c0.07-0.16,0.17-0.31,0.29-0.43
	c0.12-0.12,0.26-0.22,0.42-0.29c0.16-0.07,0.33-0.1,0.51-0.1s0.35,0.03,0.52,0.1c0.17,0.07,0.31,0.17,0.43,0.29
	c0.12,0.12,0.22,0.27,0.29,0.43C1010.03,530.52,1010.07,530.69,1010.07,530.88z M1009.7,534.01v10.14h-1.95v-10.14H1009.7z
	 M1014.14,535.42c0.22-0.23,0.45-0.45,0.69-0.64c0.24-0.19,0.49-0.36,0.76-0.49c0.27-0.14,0.56-0.24,0.87-0.32
	c0.31-0.08,0.64-0.11,0.99-0.11c0.56,0,1.05,0.09,1.47,0.28c0.42,0.19,0.78,0.45,1.06,0.78c0.29,0.34,0.5,0.74,0.65,1.21
	c0.15,0.47,0.22,0.99,0.22,1.57v6.46h-1.96v-6.46c0-0.73-0.17-1.29-0.5-1.69c-0.33-0.4-0.84-0.6-1.53-0.6c-0.5,0-0.97,0.12-1.4,0.35
	c-0.44,0.24-0.84,0.56-1.21,0.96v7.44h-1.95v-10.14h1.17c0.27,0,0.44,0.13,0.51,0.39L1014.14,535.42z"/>
<g>
	<path class="st1" d="M1030.51,533.91v10.59c0,0.45-0.06,0.86-0.17,1.26c-0.12,0.39-0.3,0.74-0.56,1.03s-0.59,0.53-1.01,0.7
		s-0.92,0.25-1.52,0.25c-0.23,0-0.45-0.01-0.65-0.04c-0.2-0.03-0.41-0.08-0.62-0.14l0.09-1.33c0.02-0.13,0.07-0.22,0.16-0.25
		c0.09-0.04,0.25-0.05,0.5-0.05s0.45-0.03,0.62-0.08c0.17-0.05,0.3-0.13,0.4-0.24c0.1-0.11,0.17-0.25,0.21-0.43
		c0.04-0.18,0.07-0.4,0.07-0.67v-10.59H1030.51z M1030.85,530.93c0,0.21-0.04,0.41-0.13,0.6c-0.09,0.19-0.2,0.35-0.34,0.49
		c-0.14,0.14-0.31,0.25-0.51,0.33c-0.2,0.08-0.4,0.12-0.62,0.12c-0.21,0-0.41-0.04-0.6-0.12c-0.19-0.08-0.35-0.19-0.49-0.33
		c-0.14-0.14-0.25-0.3-0.33-0.49c-0.08-0.19-0.12-0.39-0.12-0.6c0-0.22,0.04-0.43,0.12-0.62s0.19-0.36,0.33-0.5s0.3-0.25,0.49-0.33
		c0.19-0.08,0.39-0.12,0.6-0.12c0.22,0,0.43,0.04,0.62,0.12c0.2,0.08,0.37,0.19,0.51,0.33c0.14,0.14,0.26,0.31,0.34,0.5
		S1030.85,530.71,1030.85,530.93z"/>
	<path class="st1" d="M1041.47,533.91v10.24h-1.51c-0.33,0-0.53-0.15-0.62-0.45l-0.17-0.82c-0.42,0.43-0.88,0.77-1.39,1.03
		c-0.51,0.26-1.1,0.39-1.79,0.39c-0.56,0-1.05-0.1-1.48-0.29c-0.43-0.19-0.79-0.46-1.08-0.8c-0.29-0.35-0.51-0.76-0.66-1.23
		c-0.15-0.48-0.22-1-0.22-1.57v-6.51h2.46v6.51c0,0.63,0.14,1.11,0.43,1.45c0.29,0.34,0.72,0.51,1.3,0.51c0.43,0,0.82-0.09,1.2-0.28
		c0.37-0.19,0.73-0.45,1.06-0.78v-7.41H1041.47z"/>
	<path class="st1" d="M1049.75,535.91c-0.07,0.11-0.14,0.18-0.21,0.22c-0.07,0.04-0.17,0.06-0.28,0.06c-0.12,0-0.25-0.03-0.38-0.1
		c-0.14-0.07-0.29-0.14-0.47-0.22s-0.38-0.16-0.61-0.22s-0.5-0.1-0.81-0.1c-0.49,0-0.87,0.1-1.14,0.31
		c-0.28,0.21-0.41,0.48-0.41,0.81c0,0.22,0.07,0.4,0.21,0.55c0.14,0.15,0.33,0.28,0.57,0.39c0.24,0.11,0.5,0.21,0.8,0.3
		c0.3,0.09,0.6,0.19,0.91,0.29c0.31,0.11,0.61,0.23,0.91,0.36c0.3,0.14,0.57,0.31,0.8,0.52c0.24,0.21,0.43,0.46,0.57,0.75
		s0.21,0.65,0.21,1.06c0,0.49-0.09,0.95-0.26,1.36c-0.18,0.42-0.44,0.78-0.78,1.08c-0.35,0.3-0.77,0.54-1.28,0.71
		c-0.51,0.17-1.1,0.25-1.76,0.25c-0.35,0-0.7-0.03-1.03-0.1c-0.34-0.06-0.66-0.15-0.97-0.26s-0.6-0.25-0.86-0.4s-0.49-0.32-0.69-0.5
		l0.57-0.94c0.07-0.11,0.16-0.2,0.26-0.26c0.1-0.06,0.23-0.09,0.38-0.09c0.15,0,0.3,0.04,0.43,0.13c0.14,0.09,0.29,0.18,0.47,0.28
		c0.18,0.1,0.39,0.19,0.63,0.28c0.24,0.09,0.55,0.13,0.92,0.13c0.29,0,0.54-0.03,0.75-0.1c0.21-0.07,0.38-0.16,0.52-0.27
		s0.24-0.24,0.3-0.39c0.06-0.15,0.09-0.3,0.09-0.46c0-0.24-0.07-0.44-0.21-0.59c-0.14-0.15-0.33-0.29-0.57-0.4
		c-0.24-0.11-0.51-0.21-0.81-0.3s-0.61-0.19-0.93-0.29s-0.62-0.23-0.93-0.37c-0.3-0.14-0.57-0.33-0.81-0.54
		c-0.24-0.22-0.43-0.49-0.57-0.81c-0.14-0.32-0.21-0.71-0.21-1.16c0-0.42,0.08-0.82,0.25-1.2c0.17-0.38,0.41-0.71,0.73-0.99
		c0.32-0.28,0.73-0.51,1.21-0.68c0.48-0.17,1.04-0.25,1.67-0.25c0.71,0,1.35,0.12,1.93,0.35c0.58,0.23,1.06,0.54,1.45,0.92
		L1049.75,535.91z"/>
	<path class="st1" d="M1055.29,544.31c-0.89,0-1.58-0.25-2.05-0.75c-0.48-0.5-0.71-1.2-0.71-2.08v-5.72h-1.05
		c-0.13,0-0.25-0.04-0.34-0.13c-0.09-0.09-0.14-0.22-0.14-0.39v-0.98l1.65-0.27l0.52-2.8c0.03-0.13,0.1-0.24,0.19-0.31
		c0.09-0.07,0.21-0.11,0.36-0.11h1.28V534h2.73v1.76h-2.73v5.55c0,0.32,0.08,0.57,0.23,0.75s0.37,0.27,0.64,0.27
		c0.15,0,0.28-0.02,0.38-0.06c0.1-0.04,0.19-0.07,0.27-0.11c0.08-0.04,0.14-0.08,0.2-0.12c0.06-0.04,0.12-0.05,0.18-0.05
		c0.07,0,0.13,0.02,0.18,0.05c0.05,0.04,0.1,0.09,0.15,0.17l0.74,1.2c-0.36,0.3-0.77,0.53-1.24,0.68
		C1056.27,544.23,1055.79,544.31,1055.29,544.31z"/>
	<path class="st1" d="M1067.9,533.75c0.76,0,1.45,0.12,2.07,0.37s1.15,0.6,1.6,1.05c0.44,0.45,0.78,1,1.02,1.66
		c0.24,0.65,0.36,1.38,0.36,2.19c0,0.81-0.12,1.54-0.36,2.2c-0.24,0.65-0.58,1.21-1.02,1.67s-0.97,0.81-1.6,1.06
		s-1.31,0.37-2.07,0.37c-0.77,0-1.46-0.12-2.09-0.37c-0.63-0.25-1.16-0.6-1.6-1.06c-0.44-0.46-0.79-1.01-1.03-1.67
		c-0.24-0.65-0.36-1.38-0.36-2.2c0-0.8,0.12-1.53,0.36-2.19c0.24-0.65,0.58-1.2,1.03-1.66c0.44-0.45,0.98-0.8,1.6-1.05
		C1066.44,533.87,1067.14,533.75,1067.9,533.75z M1067.9,542.4c0.85,0,1.48-0.29,1.89-0.86c0.41-0.57,0.61-1.41,0.61-2.51
		s-0.2-1.95-0.61-2.53s-1.04-0.87-1.89-0.87c-0.87,0-1.51,0.29-1.92,0.87c-0.42,0.58-0.62,1.42-0.62,2.52s0.21,1.93,0.62,2.51
		C1066.4,542.12,1067.04,542.4,1067.9,542.4z"/>
	<path class="st1" d="M1076.75,535.17c0.21-0.21,0.42-0.4,0.65-0.57c0.23-0.18,0.47-0.33,0.73-0.45c0.26-0.12,0.53-0.22,0.82-0.29
		c0.29-0.07,0.61-0.11,0.96-0.11c0.56,0,1.05,0.09,1.49,0.29c0.43,0.19,0.79,0.46,1.08,0.8c0.29,0.34,0.51,0.75,0.66,1.23
		c0.15,0.48,0.22,1,0.22,1.57v6.52h-2.46v-6.52c0-0.62-0.14-1.11-0.43-1.45s-0.72-0.51-1.31-0.51c-0.43,0-0.83,0.1-1.2,0.29
		c-0.37,0.19-0.73,0.46-1.06,0.79v7.41h-2.46v-10.24h1.51c0.32,0,0.53,0.15,0.63,0.45L1076.75,535.17z"/>
	<path class="st1" d="M1087.2,539.34c0.04,0.53,0.13,0.98,0.28,1.36s0.34,0.7,0.58,0.95c0.24,0.25,0.52,0.44,0.85,0.56
		c0.33,0.12,0.69,0.18,1.09,0.18s0.74-0.05,1.03-0.14c0.29-0.09,0.54-0.2,0.76-0.31c0.22-0.11,0.41-0.22,0.57-0.31
		c0.16-0.09,0.32-0.14,0.47-0.14c0.21,0,0.36,0.08,0.46,0.23l0.71,0.9c-0.27,0.32-0.58,0.59-0.92,0.8
		c-0.34,0.22-0.69,0.39-1.06,0.52c-0.37,0.13-0.75,0.22-1.13,0.28c-0.38,0.05-0.75,0.08-1.11,0.08c-0.71,0-1.37-0.12-1.99-0.35
		c-0.61-0.24-1.14-0.58-1.6-1.05c-0.45-0.46-0.81-1.03-1.07-1.72c-0.26-0.68-0.39-1.47-0.39-2.37c0-0.7,0.11-1.36,0.34-1.97
		c0.23-0.62,0.55-1.15,0.97-1.61c0.42-0.46,0.94-0.82,1.55-1.08c0.61-0.27,1.3-0.4,2.06-0.4c0.65,0,1.24,0.1,1.79,0.31
		c0.54,0.21,1.01,0.51,1.41,0.9s0.7,0.88,0.92,1.46c0.22,0.58,0.33,1.23,0.33,1.97c0,0.37-0.04,0.62-0.12,0.75s-0.23,0.2-0.46,0.2
		H1087.2z M1091.9,537.85c0-0.32-0.04-0.62-0.13-0.9s-0.22-0.53-0.4-0.74c-0.18-0.21-0.41-0.38-0.68-0.5
		c-0.28-0.12-0.6-0.18-0.96-0.18c-0.71,0-1.27,0.2-1.68,0.61c-0.41,0.41-0.67,0.98-0.78,1.73H1091.9z"/>
	<path class="st1" d="M1104.56,533.75c0.76,0,1.45,0.12,2.07,0.37s1.15,0.6,1.6,1.05c0.44,0.45,0.78,1,1.02,1.66
		c0.24,0.65,0.36,1.38,0.36,2.19c0,0.81-0.12,1.54-0.36,2.2c-0.24,0.65-0.58,1.21-1.02,1.67s-0.97,0.81-1.6,1.06
		s-1.31,0.37-2.07,0.37c-0.77,0-1.46-0.12-2.09-0.37c-0.63-0.25-1.16-0.6-1.6-1.06c-0.44-0.46-0.79-1.01-1.03-1.67
		c-0.24-0.65-0.36-1.38-0.36-2.2c0-0.8,0.12-1.53,0.36-2.19c0.24-0.65,0.58-1.2,1.03-1.66c0.44-0.45,0.98-0.8,1.6-1.05
		C1103.1,533.87,1103.8,533.75,1104.56,533.75z M1104.56,542.4c0.85,0,1.48-0.29,1.89-0.86c0.41-0.57,0.61-1.41,0.61-2.51
		s-0.2-1.95-0.61-2.53s-1.04-0.87-1.89-0.87c-0.87,0-1.51,0.29-1.92,0.87c-0.42,0.58-0.62,1.42-0.62,2.52s0.21,1.93,0.62,2.51
		C1103.06,542.12,1103.7,542.4,1104.56,542.4z"/>
	<path class="st1" d="M1113.43,535.69c0.32-0.61,0.7-1.09,1.14-1.44c0.44-0.35,0.96-0.52,1.56-0.52c0.47,0,0.85,0.1,1.14,0.31
		l-0.16,1.85c-0.03,0.12-0.08,0.21-0.15,0.25s-0.15,0.07-0.25,0.07c-0.1,0-0.25-0.02-0.44-0.05s-0.39-0.05-0.57-0.05
		c-0.27,0-0.52,0.04-0.73,0.12s-0.4,0.19-0.57,0.34c-0.17,0.15-0.32,0.33-0.45,0.54c-0.13,0.21-0.25,0.46-0.36,0.73v6.31h-2.46
		v-10.24h1.45c0.25,0,0.43,0.04,0.53,0.13c0.1,0.09,0.17,0.25,0.2,0.48L1113.43,535.69z"/>
	<path class="st1" d="M1117.79,535.34c1.18-1.08,2.59-1.62,4.25-1.62c0.6,0,1.13,0.1,1.61,0.29s0.87,0.47,1.2,0.82
		c0.33,0.35,0.57,0.77,0.74,1.25c0.17,0.49,0.25,1.02,0.25,1.6v6.47h-1.12c-0.23,0-0.41-0.04-0.54-0.1
		c-0.13-0.07-0.23-0.21-0.3-0.42l-0.22-0.74c-0.26,0.23-0.51,0.44-0.76,0.61c-0.25,0.18-0.5,0.32-0.77,0.44
		c-0.27,0.12-0.55,0.21-0.85,0.27c-0.3,0.06-0.64,0.1-1,0.1c-0.43,0-0.83-0.06-1.2-0.17s-0.68-0.29-0.95-0.52
		c-0.27-0.23-0.47-0.52-0.62-0.87c-0.15-0.35-0.22-0.75-0.22-1.21c0-0.26,0.04-0.52,0.13-0.77c0.09-0.26,0.23-0.5,0.42-0.73
		c0.2-0.23,0.45-0.45,0.76-0.66c0.31-0.21,0.7-0.39,1.15-0.54c0.46-0.15,0.99-0.28,1.59-0.37s1.3-0.15,2.08-0.17v-0.6
		c0-0.69-0.15-1.19-0.44-1.52c-0.29-0.33-0.72-0.49-1.27-0.49c-0.4,0-0.73,0.05-0.99,0.14c-0.26,0.09-0.49,0.2-0.69,0.31
		c-0.2,0.12-0.38,0.22-0.54,0.31c-0.16,0.09-0.34,0.14-0.54,0.14c-0.17,0-0.32-0.04-0.44-0.13c-0.12-0.09-0.22-0.2-0.29-0.31
		L1117.79,535.34z M1123.44,539.78c-0.71,0.03-1.31,0.09-1.8,0.18c-0.49,0.09-0.88,0.21-1.17,0.34s-0.5,0.3-0.63,0.49
		s-0.19,0.39-0.19,0.61c0,0.43,0.13,0.74,0.38,0.93c0.26,0.19,0.59,0.28,1,0.28c0.5,0,0.94-0.09,1.31-0.27
		c0.37-0.18,0.73-0.46,1.08-0.83V539.78z"/>
	<path class="st1" d="M1130.26,529.32v14.83h-2.46v-14.83H1130.26z"/>
	<path class="st1" d="M1145.69,529.32v14.83h-1.51c-0.33,0-0.53-0.15-0.62-0.45l-0.21-0.99c-0.41,0.47-0.89,0.86-1.42,1.15
		c-0.54,0.29-1.16,0.44-1.87,0.44c-0.56,0-1.07-0.12-1.54-0.35c-0.47-0.23-0.87-0.57-1.2-1.01s-0.59-0.99-0.78-1.64
		c-0.18-0.65-0.27-1.4-0.27-2.24c0-0.76,0.1-1.46,0.31-2.12s0.5-1.22,0.89-1.7c0.39-0.48,0.85-0.85,1.39-1.12
		c0.54-0.27,1.14-0.4,1.82-0.4c0.57,0,1.06,0.09,1.47,0.27c0.41,0.18,0.77,0.42,1.09,0.73v-5.4H1145.69z M1143.22,536.53
		c-0.28-0.34-0.58-0.58-0.91-0.72c-0.33-0.14-0.68-0.21-1.06-0.21c-0.37,0-0.71,0.07-1.01,0.21c-0.3,0.14-0.56,0.35-0.77,0.63
		c-0.21,0.28-0.38,0.64-0.49,1.08c-0.11,0.44-0.17,0.95-0.17,1.54c0,0.6,0.05,1.11,0.15,1.52c0.1,0.42,0.23,0.76,0.41,1.02
		s0.4,0.45,0.66,0.57c0.26,0.12,0.55,0.17,0.87,0.17c0.51,0,0.95-0.11,1.31-0.32c0.36-0.21,0.7-0.52,1.02-0.91V536.53z"/>
	<path class="st1" d="M1152.25,533.75c0.76,0,1.45,0.12,2.07,0.37s1.15,0.6,1.6,1.05c0.44,0.45,0.78,1,1.02,1.66
		c0.24,0.65,0.36,1.38,0.36,2.19c0,0.81-0.12,1.54-0.36,2.2c-0.24,0.65-0.58,1.21-1.02,1.67s-0.97,0.81-1.6,1.06
		s-1.31,0.37-2.07,0.37c-0.77,0-1.46-0.12-2.09-0.37c-0.63-0.25-1.16-0.6-1.6-1.06c-0.44-0.46-0.79-1.01-1.03-1.67
		c-0.24-0.65-0.36-1.38-0.36-2.2c0-0.8,0.12-1.53,0.36-2.19c0.24-0.65,0.58-1.2,1.03-1.66c0.44-0.45,0.98-0.8,1.6-1.05
		C1150.79,533.87,1151.49,533.75,1152.25,533.75z M1152.25,542.4c0.85,0,1.48-0.29,1.89-0.86c0.41-0.57,0.61-1.41,0.61-2.51
		s-0.2-1.95-0.61-2.53s-1.04-0.87-1.89-0.87c-0.87,0-1.51,0.29-1.92,0.87c-0.42,0.58-0.62,1.42-0.62,2.52s0.21,1.93,0.62,2.51
		C1150.75,542.12,1151.39,542.4,1152.25,542.4z"/>
	<path class="st1" d="M1165.04,535.91c-0.07,0.11-0.14,0.18-0.21,0.22c-0.07,0.04-0.17,0.06-0.28,0.06c-0.12,0-0.25-0.03-0.38-0.1
		c-0.14-0.07-0.29-0.14-0.47-0.22s-0.38-0.16-0.61-0.22s-0.5-0.1-0.81-0.1c-0.49,0-0.87,0.1-1.14,0.31
		c-0.28,0.21-0.41,0.48-0.41,0.81c0,0.22,0.07,0.4,0.21,0.55c0.14,0.15,0.33,0.28,0.57,0.39c0.24,0.11,0.5,0.21,0.8,0.3
		c0.3,0.09,0.6,0.19,0.91,0.29c0.31,0.11,0.61,0.23,0.91,0.36c0.3,0.14,0.57,0.31,0.8,0.52c0.24,0.21,0.43,0.46,0.57,0.75
		s0.21,0.65,0.21,1.06c0,0.49-0.09,0.95-0.26,1.36c-0.18,0.42-0.44,0.78-0.78,1.08c-0.35,0.3-0.77,0.54-1.28,0.71
		c-0.51,0.17-1.1,0.25-1.76,0.25c-0.35,0-0.7-0.03-1.03-0.1c-0.34-0.06-0.66-0.15-0.97-0.26s-0.6-0.25-0.86-0.4s-0.49-0.32-0.69-0.5
		l0.57-0.94c0.07-0.11,0.16-0.2,0.26-0.26c0.1-0.06,0.23-0.09,0.38-0.09c0.15,0,0.3,0.04,0.43,0.13c0.14,0.09,0.29,0.18,0.47,0.28
		c0.18,0.1,0.39,0.19,0.63,0.28c0.24,0.09,0.55,0.13,0.92,0.13c0.29,0,0.54-0.03,0.75-0.1c0.21-0.07,0.38-0.16,0.52-0.27
		s0.24-0.24,0.3-0.39c0.06-0.15,0.09-0.3,0.09-0.46c0-0.24-0.07-0.44-0.21-0.59c-0.14-0.15-0.33-0.29-0.57-0.4
		c-0.24-0.11-0.51-0.21-0.81-0.3s-0.61-0.19-0.93-0.29s-0.62-0.23-0.93-0.37c-0.3-0.14-0.57-0.33-0.81-0.54
		c-0.24-0.22-0.43-0.49-0.57-0.81c-0.14-0.32-0.21-0.71-0.21-1.16c0-0.42,0.08-0.82,0.25-1.2c0.17-0.38,0.41-0.71,0.73-0.99
		c0.32-0.28,0.73-0.51,1.21-0.68c0.48-0.17,1.04-0.25,1.67-0.25c0.71,0,1.35,0.12,1.93,0.35c0.58,0.23,1.06,0.54,1.45,0.92
		L1165.04,535.91z"/>
	<path class="st1" d="M1169.06,539.34c0.04,0.53,0.13,0.98,0.28,1.36s0.34,0.7,0.58,0.95c0.24,0.25,0.52,0.44,0.85,0.56
		c0.33,0.12,0.69,0.18,1.09,0.18s0.74-0.05,1.03-0.14c0.29-0.09,0.54-0.2,0.76-0.31c0.22-0.11,0.41-0.22,0.57-0.31
		c0.16-0.09,0.32-0.14,0.47-0.14c0.21,0,0.36,0.08,0.46,0.23l0.71,0.9c-0.27,0.32-0.58,0.59-0.92,0.8
		c-0.34,0.22-0.69,0.39-1.06,0.52c-0.37,0.13-0.75,0.22-1.13,0.28c-0.38,0.05-0.75,0.08-1.11,0.08c-0.71,0-1.37-0.12-1.99-0.35
		c-0.61-0.24-1.14-0.58-1.6-1.05c-0.45-0.46-0.81-1.03-1.07-1.72c-0.26-0.68-0.39-1.47-0.39-2.37c0-0.7,0.11-1.36,0.34-1.97
		c0.23-0.62,0.55-1.15,0.97-1.61c0.42-0.46,0.94-0.82,1.55-1.08c0.61-0.27,1.3-0.4,2.06-0.4c0.65,0,1.24,0.1,1.79,0.31
		c0.54,0.21,1.01,0.51,1.41,0.9s0.7,0.88,0.92,1.46c0.22,0.58,0.33,1.23,0.33,1.97c0,0.37-0.04,0.62-0.12,0.75s-0.23,0.2-0.46,0.2
		H1169.06z M1173.76,537.85c0-0.32-0.04-0.62-0.13-0.9s-0.22-0.53-0.4-0.74c-0.18-0.21-0.41-0.38-0.68-0.5
		c-0.28-0.12-0.6-0.18-0.96-0.18c-0.71,0-1.27,0.2-1.68,0.61c-0.41,0.41-0.67,0.98-0.78,1.73H1173.76z"/>
</g>
<g>
	<path class="st1" d="M1177.02,531.43c0.06-0.4,0.17-0.76,0.34-1.06c0.17-0.3,0.38-0.56,0.63-0.76c0.25-0.2,0.54-0.36,0.86-0.46
		c0.32-0.1,0.67-0.15,1.04-0.15c0.39,0,0.74,0.06,1.05,0.17c0.31,0.11,0.58,0.26,0.8,0.46s0.39,0.43,0.51,0.69
		c0.12,0.26,0.18,0.55,0.18,0.86c0,0.27-0.03,0.5-0.09,0.71c-0.06,0.2-0.15,0.38-0.26,0.53c-0.11,0.15-0.25,0.28-0.42,0.38
		c-0.17,0.1-0.36,0.19-0.56,0.26c0.5,0.16,0.88,0.4,1.13,0.73c0.25,0.33,0.37,0.73,0.37,1.23c0,0.42-0.08,0.79-0.23,1.11
		c-0.16,0.32-0.37,0.59-0.63,0.81c-0.26,0.22-0.57,0.38-0.92,0.5c-0.35,0.11-0.71,0.17-1.1,0.17c-0.42,0-0.79-0.05-1.11-0.15
		c-0.31-0.1-0.59-0.24-0.82-0.43c-0.23-0.19-0.43-0.42-0.59-0.7c-0.16-0.28-0.3-0.59-0.42-0.95l0.63-0.26
		c0.17-0.07,0.32-0.09,0.47-0.06c0.15,0.03,0.25,0.11,0.32,0.24c0.07,0.14,0.15,0.27,0.23,0.4c0.08,0.13,0.18,0.25,0.3,0.35
		c0.12,0.1,0.25,0.19,0.41,0.25c0.16,0.06,0.34,0.1,0.56,0.1c0.25,0,0.46-0.04,0.64-0.12c0.18-0.08,0.33-0.18,0.46-0.31
		s0.21-0.27,0.27-0.43c0.06-0.16,0.09-0.32,0.09-0.47c0-0.2-0.02-0.38-0.06-0.55c-0.04-0.17-0.13-0.31-0.27-0.42
		c-0.14-0.12-0.33-0.21-0.58-0.27c-0.25-0.07-0.59-0.1-1.02-0.1v-1.02c0.35,0,0.65-0.04,0.88-0.1c0.23-0.06,0.42-0.15,0.56-0.26
		c0.14-0.11,0.23-0.24,0.29-0.4c0.05-0.15,0.08-0.33,0.08-0.51c0-0.4-0.11-0.7-0.33-0.9c-0.22-0.21-0.52-0.31-0.88-0.31
		c-0.17,0-0.33,0.02-0.47,0.07s-0.27,0.12-0.39,0.2s-0.21,0.19-0.29,0.31c-0.08,0.12-0.14,0.24-0.17,0.38
		c-0.07,0.18-0.15,0.3-0.26,0.35s-0.26,0.07-0.45,0.04L1177.02,531.43z"/>
</g>
<polygon class="st1" points="1343.4,554.75 1340.73,552.08 1350.26,542.54 1340.73,533.01 1343.4,530.33 1355.6,542.54 "/>
</svg>
