<?xml version="1.0" encoding="utf-8"?>
<!-- Generator: Adobe Illustrator 24.1.2, SVG Export Plug-In . SVG Version: 6.00 Build 0)  -->
<svg version="1.1" id="Layer_1" xmlns="http://www.w3.org/2000/svg" xmlns:xlink="http://www.w3.org/1999/xlink" x="0px" y="0px"
	 viewBox="0 0 1366.2 743.4" style="enable-background:new 0 0 1366.2 743.4;" xml:space="preserve">
<style type="text/css">
	.st0{fill:#D1E1E8;}
	.st1{clip-path:url(#SVGID_3_);fill:#D1E1E8;}
	.st2{fill:#003E6A;}
</style>
<g>
	<g>
		<path id="SVGID_1_" class="st0" d="M0,0v717.8c0,0,183.2-20.8,379.3-20.8c274.8,0,490.2,47.9,710.4,46.3
			c220.2-1.5,276.4-15.8,276.4-15.8V0H0z"/>
	</g>
	<g>
		<g>
			<defs>
				<path id="SVGID_2_" d="M0,0v717.8c0,0,183.2-20.8,379.3-20.8c274.8,0,490.2,47.9,710.4,46.3c220.2-1.5,276.4-15.8,276.4-15.8V0
					H0z"/>
			</defs>
			<clipPath id="SVGID_3_">
				<use xlink:href="#SVGID_2_"  style="overflow:visible;"/>
			</clipPath>
			<rect class="st1" width="1366.2" height="744.9"/>
		</g>
	</g>
</g>
<path class="st2" d="M152.8,91.1l-8.8,28.3h-4.8l-6.2-19.3c-0.2-0.5-0.3-1-0.5-1.7c-0.1,0.3-0.2,0.6-0.2,0.9
	c-0.1,0.3-0.2,0.6-0.3,0.8l-6.2,19.3H121l-8.8-28.3h4.4c0.5,0,0.8,0.1,1.1,0.3c0.3,0.2,0.5,0.5,0.6,0.9l4.8,16.9
	c0.1,0.4,0.2,0.9,0.3,1.4c0.1,0.5,0.2,1,0.3,1.5c0.1-0.5,0.2-1.1,0.3-1.5c0.1-0.5,0.3-0.9,0.4-1.4l5.6-16.9c0.1-0.3,0.3-0.6,0.6-0.8
	c0.3-0.2,0.7-0.4,1.1-0.4h1.5c0.5,0,0.8,0.1,1.1,0.3c0.3,0.2,0.5,0.5,0.6,0.9l5.5,16.9c0.3,0.8,0.5,1.7,0.7,2.8c0.2-1,0.4-2,0.6-2.8
	l4.8-16.9c0.1-0.3,0.3-0.6,0.6-0.8c0.3-0.2,0.7-0.4,1.1-0.4C148.2,91.1,152.8,91.1,152.8,91.1z"/>
<path class="st2" d="M151.9,102.1c2.3-2.1,5.1-3.2,8.3-3.2c1.2,0,2.2,0.2,3.1,0.6c0.9,0.4,1.7,0.9,2.3,1.6s1.1,1.5,1.5,2.5
	c0.3,1,0.5,2,0.5,3.1v12.7h-2.2c-0.5,0-0.8-0.1-1.1-0.2c-0.2-0.1-0.4-0.4-0.6-0.8l-0.4-1.4c-0.5,0.5-1,0.9-1.5,1.2
	c-0.5,0.3-1,0.6-1.5,0.9c-0.5,0.2-1.1,0.4-1.7,0.5c-0.6,0.1-1.2,0.2-2,0.2s-1.6-0.1-2.3-0.3c-0.7-0.2-1.3-0.6-1.9-1
	c-0.5-0.5-0.9-1-1.2-1.7s-0.4-1.5-0.4-2.4c0-0.5,0.1-1,0.3-1.5s0.4-1,0.8-1.4c0.4-0.5,0.9-0.9,1.5-1.3s1.4-0.8,2.3-1.1
	c0.9-0.3,1.9-0.5,3.1-0.7c1.2-0.2,2.5-0.3,4.1-0.3v-1.2c0-1.3-0.3-2.3-0.9-3c-0.6-0.6-1.4-1-2.5-1c-0.8,0-1.4,0.1-1.9,0.3
	c-0.5,0.2-1,0.4-1.4,0.6s-0.7,0.4-1.1,0.6c-0.3,0.2-0.7,0.3-1.1,0.3c-0.3,0-0.6-0.1-0.9-0.3c-0.2-0.2-0.4-0.4-0.6-0.6L151.9,102.1z
	 M163,110.8c-1.4,0.1-2.6,0.2-3.5,0.4c-1,0.2-1.7,0.4-2.3,0.7c-0.6,0.3-1,0.6-1.2,1s-0.4,0.8-0.4,1.2c0,0.8,0.3,1.5,0.8,1.8
	c0.5,0.4,1.2,0.5,2,0.5c1,0,1.8-0.2,2.6-0.5c0.7-0.4,1.4-0.9,2.1-1.6v-3.5H163z"/>
<path class="st2" d="M177.9,119.7c-1.7,0-3.1-0.5-4-1.5s-1.4-2.3-1.4-4.1v-11.2h-2.1c-0.3,0-0.5-0.1-0.7-0.3
	c-0.2-0.2-0.3-0.4-0.3-0.8V100l3.2-0.5l1-5.5c0.1-0.3,0.2-0.5,0.4-0.6s0.4-0.2,0.7-0.2h2.5v6.3h5.4v3.4h-5.4v10.9
	c0,0.6,0.2,1.1,0.5,1.5s0.7,0.5,1.3,0.5c0.3,0,0.6,0,0.8-0.1s0.4-0.1,0.5-0.2s0.3-0.2,0.4-0.2c0.1-0.1,0.2-0.1,0.4-0.1
	c0.1,0,0.3,0,0.4,0.1c0.1,0.1,0.2,0.2,0.3,0.3l1.4,2.3c-0.7,0.6-1.5,1-2.4,1.3C179.8,119.6,178.9,119.7,177.9,119.7z"/>
<path class="st2" d="M199.2,103.6c-0.1,0.2-0.3,0.3-0.4,0.4c-0.1,0.1-0.3,0.2-0.6,0.2c-0.2,0-0.5-0.1-0.7-0.2s-0.5-0.3-0.8-0.5
	s-0.7-0.4-1.2-0.5c-0.4-0.1-1-0.2-1.7-0.2c-0.8,0-1.6,0.2-2.2,0.5c-0.6,0.3-1.2,0.7-1.6,1.3s-0.7,1.3-0.9,2.1
	c-0.2,0.8-0.3,1.7-0.3,2.8c0,1.1,0.1,2,0.3,2.9c0.2,0.8,0.6,1.5,1,2.1s1,1,1.6,1.3s1.3,0.4,2.1,0.4s1.4-0.1,1.9-0.3
	c0.5-0.2,0.9-0.4,1.2-0.6s0.6-0.4,0.9-0.6c0.2-0.2,0.5-0.3,0.8-0.3c0.4,0,0.7,0.1,0.9,0.4l1.4,1.8c-0.5,0.6-1.1,1.2-1.7,1.6
	c-0.6,0.4-1.3,0.8-1.9,1c-0.7,0.3-1.4,0.4-2.1,0.5c-0.7,0.1-1.4,0.2-2.1,0.2c-1.2,0-2.4-0.2-3.5-0.7s-2.1-1.1-2.9-2
	c-0.8-0.9-1.5-2-1.9-3.3c-0.5-1.3-0.7-2.7-0.7-4.4c0-1.5,0.2-2.8,0.6-4.1c0.4-1.3,1-2.3,1.9-3.3c0.8-0.9,1.8-1.6,3.1-2.2
	c1.2-0.5,2.6-0.8,4.2-0.8c1.5,0,2.8,0.2,3.9,0.7c1.1,0.5,2.1,1.2,3,2.1L199.2,103.6z"/>
<path class="st2" d="M207.7,101.5c0.8-0.7,1.6-1.3,2.6-1.8c0.9-0.5,2-0.7,3.3-0.7c1.1,0,2.1,0.2,2.9,0.6s1.6,0.9,2.1,1.6
	c0.6,0.7,1,1.5,1.3,2.4s0.4,2,0.4,3.1v12.8h-4.8v-12.8c0-1.2-0.3-2.2-0.8-2.8c-0.6-0.7-1.4-1-2.6-1c-0.8,0-1.6,0.2-2.3,0.6
	s-1.4,0.9-2.1,1.5v14.5h-4.8V90.3h4.8L207.7,101.5L207.7,101.5z"/>
<path class="st2" d="M237.7,101.5c0.8-0.7,1.6-1.3,2.6-1.8c0.9-0.5,2-0.7,3.3-0.7c1.1,0,2.1,0.2,2.9,0.6s1.6,0.9,2.1,1.6
	s1,1.5,1.3,2.4s0.4,2,0.4,3.1v12.8h-4.8v-12.8c0-1.2-0.3-2.2-0.8-2.8c-0.6-0.7-1.4-1-2.6-1c-0.8,0-1.6,0.2-2.3,0.6s-1.4,0.9-2.1,1.5
	v14.5h-4.8V90.3h4.8L237.7,101.5L237.7,101.5z"/>
<path class="st2" d="M263.1,99c1.5,0,2.8,0.2,4.1,0.7c1.2,0.5,2.3,1.2,3.1,2.1c0.9,0.9,1.5,2,2,3.2c0.5,1.3,0.7,2.7,0.7,4.3
	c0,1.6-0.2,3-0.7,4.3s-1.1,2.4-2,3.3s-1.9,1.6-3.1,2.1s-2.6,0.7-4.1,0.7s-2.9-0.2-4.1-0.7s-2.3-1.2-3.1-2.1c-0.9-0.9-1.5-2-2-3.3
	s-0.7-2.7-0.7-4.3c0-1.6,0.2-3,0.7-4.3s1.1-2.4,2-3.2c0.9-0.9,1.9-1.6,3.1-2.1C260.2,99.3,261.6,99,263.1,99z M263.1,116
	c1.7,0,2.9-0.6,3.7-1.7c0.8-1.1,1.2-2.8,1.2-4.9s-0.4-3.8-1.2-4.9c-0.8-1.1-2-1.7-3.7-1.7s-3,0.6-3.8,1.7s-1.2,2.8-1.2,4.9
	c0,2.2,0.4,3.8,1.2,4.9C260.1,115.4,261.4,116,263.1,116z"/>
<path class="st2" d="M304.2,99.3l-6.4,20.1H294c-0.4,0-0.7-0.3-0.9-0.9l-3.6-11.6c-0.1-0.4-0.2-0.8-0.3-1.2s-0.2-0.8-0.2-1.2
	c-0.1,0.4-0.2,0.8-0.3,1.2c-0.1,0.4-0.2,0.8-0.3,1.2l-3.7,11.6c-0.2,0.6-0.5,0.9-1,0.9H280l-6.4-20.1h3.9c0.4,0,0.7,0.1,0.9,0.3
	c0.2,0.2,0.4,0.4,0.5,0.6l2.9,10.7c0.1,0.6,0.3,1.2,0.4,1.7c0.1,0.6,0.2,1.1,0.3,1.7c0.1-0.6,0.3-1.1,0.5-1.7s0.3-1.1,0.5-1.7
	l3.3-10.8c0.1-0.3,0.2-0.5,0.5-0.6c0.2-0.2,0.5-0.3,0.8-0.3h2.1c0.3,0,0.6,0.1,0.9,0.3c0.2,0.2,0.4,0.4,0.5,0.6l3.2,10.8
	c0.2,0.6,0.3,1.2,0.5,1.7c0.1,0.6,0.3,1.1,0.4,1.7c0.2-1.1,0.4-2.2,0.7-3.4l3-10.7c0.1-0.3,0.3-0.5,0.5-0.6c0.2-0.2,0.5-0.3,0.8-0.3
	C300.7,99.3,304.2,99.3,304.2,99.3z"/>
<path class="st2" d="M320.8,119.7c-1.7,0-3.1-0.5-4-1.5s-1.4-2.3-1.4-4.1v-11.2h-2.1c-0.3,0-0.5-0.1-0.7-0.3
	c-0.2-0.2-0.3-0.4-0.3-0.8V100l3.2-0.5l1-5.5c0.1-0.3,0.2-0.5,0.4-0.6c0.2-0.1,0.4-0.2,0.7-0.2h2.5v6.3h5.4v3.4h-5.4v10.9
	c0,0.6,0.2,1.1,0.5,1.5s0.7,0.5,1.3,0.5c0.3,0,0.6,0,0.8-0.1c0.2-0.1,0.4-0.1,0.5-0.2s0.3-0.2,0.4-0.2c0.1-0.1,0.2-0.1,0.4-0.1
	c0.1,0,0.3,0,0.4,0.1s0.2,0.2,0.3,0.3l1.4,2.3c-0.7,0.6-1.5,1-2.4,1.3C322.7,119.6,321.8,119.7,320.8,119.7z"/>
<path class="st2" d="M336.7,99c1.5,0,2.8,0.2,4.1,0.7c1.2,0.5,2.3,1.2,3.1,2.1c0.9,0.9,1.5,2,2,3.2c0.5,1.3,0.7,2.7,0.7,4.3
	c0,1.6-0.2,3-0.7,4.3s-1.1,2.4-2,3.3s-1.9,1.6-3.1,2.1s-2.6,0.7-4.1,0.7s-2.9-0.2-4.1-0.7s-2.3-1.2-3.1-2.1c-0.9-0.9-1.5-2-2-3.3
	s-0.7-2.7-0.7-4.3c0-1.6,0.2-3,0.7-4.3s1.1-2.4,2-3.2c0.9-0.9,1.9-1.6,3.1-2.1C333.8,99.3,335.2,99,336.7,99z M336.7,116
	c1.7,0,2.9-0.6,3.7-1.7c0.8-1.1,1.2-2.8,1.2-4.9s-0.4-3.8-1.2-4.9c-0.8-1.1-2-1.7-3.7-1.7s-3,0.6-3.8,1.7s-1.2,2.8-1.2,4.9
	c0,2.2,0.4,3.8,1.2,4.9C333.7,115.4,335,116,336.7,116z"/>
<path class="st2" d="M364.9,119.7c-1.7,0-3.1-0.5-4-1.5s-1.4-2.3-1.4-4.1v-11.2h-2.1c-0.3,0-0.5-0.1-0.7-0.3
	c-0.2-0.2-0.3-0.4-0.3-0.8V100l3.2-0.5l1-5.5c0.1-0.3,0.2-0.5,0.4-0.6c0.2-0.1,0.4-0.2,0.7-0.2h2.5v6.3h5.4v3.4h-5.4v10.9
	c0,0.6,0.2,1.1,0.5,1.5s0.7,0.5,1.3,0.5c0.3,0,0.6,0,0.8-0.1c0.2-0.1,0.4-0.1,0.5-0.2s0.3-0.2,0.4-0.2c0.1-0.1,0.2-0.1,0.4-0.1
	c0.1,0,0.3,0,0.4,0.1s0.2,0.2,0.3,0.3l1.4,2.3c-0.7,0.6-1.5,1-2.4,1.3C366.8,119.6,365.9,119.7,364.9,119.7z"/>
<path class="st2" d="M371.5,102.1c2.3-2.1,5.1-3.2,8.3-3.2c1.2,0,2.2,0.2,3.1,0.6s1.7,0.9,2.3,1.6c0.6,0.7,1.1,1.5,1.5,2.5
	c0.3,1,0.5,2,0.5,3.1v12.7H385c-0.5,0-0.8-0.1-1.1-0.2c-0.2-0.1-0.4-0.4-0.6-0.8l-0.4-1.4c-0.5,0.5-1,0.9-1.5,1.2
	c-0.5,0.3-1,0.6-1.5,0.9c-0.5,0.2-1.1,0.4-1.7,0.5s-1.2,0.2-2,0.2s-1.6-0.1-2.3-0.3c-0.7-0.2-1.3-0.6-1.9-1c-0.5-0.5-0.9-1-1.2-1.7
	c-0.3-0.7-0.4-1.5-0.4-2.4c0-0.5,0.1-1,0.3-1.5c0.2-0.5,0.4-1,0.8-1.4c0.4-0.5,0.9-0.9,1.5-1.3s1.4-0.8,2.3-1.1
	c0.9-0.3,1.9-0.5,3.1-0.7s2.5-0.3,4.1-0.3v-1.2c0-1.3-0.3-2.3-0.9-3c-0.6-0.6-1.4-1-2.5-1c-0.8,0-1.4,0.1-1.9,0.3
	c-0.5,0.2-1,0.4-1.4,0.6s-0.7,0.4-1.1,0.6c-0.3,0.2-0.7,0.3-1.1,0.3c-0.3,0-0.6-0.1-0.9-0.3c-0.2-0.2-0.4-0.4-0.6-0.6L371.5,102.1z
	 M382.6,110.8c-1.4,0.1-2.6,0.2-3.5,0.4s-1.7,0.4-2.3,0.7c-0.6,0.3-1,0.6-1.2,1s-0.4,0.8-0.4,1.2c0,0.8,0.3,1.5,0.8,1.8
	c0.5,0.4,1.2,0.5,2,0.5c1,0,1.8-0.2,2.6-0.5c0.7-0.4,1.4-0.9,2.1-1.6v-3.5H382.6z"/>
<path class="st2" d="M395.9,90.3V107h0.9c0.3,0,0.6,0,0.8-0.1c0.2-0.1,0.4-0.3,0.6-0.5l5-6.2c0.2-0.3,0.4-0.5,0.7-0.6
	c0.3-0.1,0.6-0.2,1-0.2h4.4l-6.2,7.5c-0.4,0.6-0.9,1-1.4,1.3c0.3,0.2,0.5,0.4,0.7,0.7c0.2,0.3,0.4,0.5,0.6,0.8l6.7,9.7h-4.4
	c-0.4,0-0.7-0.1-1-0.2s-0.5-0.3-0.7-0.7l-5.1-7.6c-0.2-0.3-0.4-0.5-0.6-0.6s-0.5-0.1-0.9-0.1h-1.1v9.2h-4.8V90.3H395.9z"/>
<path class="st2" d="M413.9,110c0.1,1,0.3,1.9,0.5,2.7c0.3,0.7,0.7,1.4,1.1,1.9c0.5,0.5,1,0.9,1.7,1.1c0.6,0.2,1.4,0.4,2.1,0.4
	s1.5-0.1,2-0.3c0.6-0.2,1.1-0.4,1.5-0.6s0.8-0.4,1.1-0.6c0.3-0.2,0.6-0.3,0.9-0.3c0.4,0,0.7,0.1,0.9,0.4l1.4,1.8
	c-0.5,0.6-1.1,1.2-1.8,1.6s-1.4,0.8-2.1,1c-0.7,0.3-1.5,0.4-2.2,0.5s-1.5,0.2-2.2,0.2c-1.4,0-2.7-0.2-3.9-0.7
	c-1.2-0.5-2.2-1.1-3.1-2.1c-0.9-0.9-1.6-2-2.1-3.4c-0.5-1.3-0.8-2.9-0.8-4.6c0-1.4,0.2-2.7,0.7-3.9c0.4-1.2,1.1-2.3,1.9-3.1
	c0.8-0.9,1.8-1.6,3-2.1s2.5-0.8,4-0.8c1.3,0,2.4,0.2,3.5,0.6s2,1,2.8,1.8s1.4,1.7,1.8,2.9c0.4,1.1,0.7,2.4,0.7,3.9
	c0,0.7-0.1,1.2-0.2,1.5c-0.2,0.3-0.5,0.4-0.9,0.4h-12.3V110z M423.2,107.1c0-0.6-0.1-1.2-0.3-1.8c-0.2-0.6-0.4-1-0.8-1.5
	c-0.4-0.4-0.8-0.7-1.3-1c-0.5-0.2-1.2-0.4-1.9-0.4c-1.4,0-2.5,0.4-3.3,1.2c-0.8,0.8-1.3,1.9-1.5,3.4h9.1V107.1z"/>
<path class="st2" d="M454.9,96.3c-0.2,0.3-0.3,0.5-0.5,0.6s-0.4,0.2-0.7,0.2c-0.3,0-0.6-0.1-0.9-0.3c-0.3-0.2-0.7-0.4-1.1-0.7
	c-0.4-0.2-1-0.5-1.6-0.7s-1.3-0.3-2.1-0.3c-0.7,0-1.4,0.1-1.9,0.3c-0.5,0.2-1,0.4-1.4,0.7c-0.4,0.3-0.6,0.7-0.8,1.1
	c-0.2,0.4-0.3,0.9-0.3,1.4c0,0.7,0.2,1.2,0.6,1.7c0.4,0.4,0.9,0.8,1.5,1.1c0.6,0.3,1.3,0.6,2.1,0.8c0.8,0.2,1.6,0.5,2.4,0.8
	s1.6,0.6,2.4,1s1.5,0.8,2.1,1.4s1.1,1.3,1.5,2.1c0.4,0.8,0.6,1.8,0.6,3c0,1.3-0.2,2.5-0.7,3.6c-0.4,1.1-1.1,2.1-1.9,2.9
	s-1.9,1.5-3.1,2s-2.6,0.7-4.2,0.7c-0.9,0-1.8-0.1-2.7-0.3c-0.9-0.2-1.7-0.4-2.5-0.8c-0.8-0.3-1.6-0.7-2.3-1.2
	c-0.7-0.5-1.3-1-1.9-1.5l1.5-2.5c0.1-0.2,0.3-0.3,0.5-0.5c0.2-0.1,0.4-0.2,0.7-0.2c0.3,0,0.7,0.1,1.1,0.4s0.8,0.6,1.4,0.9
	c0.5,0.3,1.1,0.6,1.8,0.9c0.7,0.3,1.5,0.4,2.5,0.4c1.5,0,2.7-0.4,3.5-1.1s1.2-1.7,1.2-3.1c0-0.7-0.2-1.3-0.6-1.8s-0.9-0.9-1.5-1.2
	c-0.6-0.3-1.3-0.6-2.1-0.8c-0.8-0.2-1.6-0.5-2.4-0.7c-0.8-0.3-1.6-0.6-2.4-0.9c-0.8-0.4-1.5-0.8-2.1-1.4s-1.1-1.3-1.5-2.2
	c-0.4-0.9-0.6-2-0.6-3.3c0-1,0.2-2,0.6-3s1-1.8,1.8-2.6c0.8-0.8,1.7-1.4,2.9-1.8c1.1-0.5,2.5-0.7,4-0.7c1.7,0,3.2,0.3,4.6,0.8
	s2.6,1.3,3.6,2.2L454.9,96.3z"/>
<path class="st2" d="M468.6,99c1.5,0,2.8,0.2,4.1,0.7c1.2,0.5,2.3,1.2,3.1,2.1c0.9,0.9,1.5,2,2,3.2c0.5,1.3,0.7,2.7,0.7,4.3
	c0,1.6-0.2,3-0.7,4.3s-1.1,2.4-2,3.3s-1.9,1.6-3.1,2.1s-2.6,0.7-4.1,0.7s-2.9-0.2-4.1-0.7s-2.3-1.2-3.1-2.1c-0.9-0.9-1.5-2-2-3.3
	s-0.7-2.7-0.7-4.3c0-1.6,0.2-3,0.7-4.3s1.1-2.4,2-3.2c0.9-0.9,1.9-1.6,3.1-2.1C465.8,99.3,467.1,99,468.6,99z M468.6,116
	c1.7,0,2.9-0.6,3.7-1.7c0.8-1.1,1.2-2.8,1.2-4.9s-0.4-3.8-1.2-4.9c-0.8-1.1-2-1.7-3.7-1.7s-3,0.6-3.8,1.7s-1.2,2.8-1.2,4.9
	c0,2.2,0.4,3.8,1.2,4.9C465.7,115.4,466.9,116,468.6,116z"/>
<path class="st2" d="M486.3,90.3v29.1h-4.8V90.3H486.3z"/>
<path class="st2" d="M499.2,99c1.5,0,2.8,0.2,4.1,0.7c1.2,0.5,2.3,1.2,3.1,2.1c0.9,0.9,1.5,2,2,3.2c0.5,1.3,0.7,2.7,0.7,4.3
	c0,1.6-0.2,3-0.7,4.3s-1.1,2.4-2,3.3s-1.9,1.6-3.1,2.1s-2.6,0.7-4.1,0.7s-2.9-0.2-4.1-0.7s-2.3-1.2-3.1-2.1c-0.9-0.9-1.5-2-2-3.3
	s-0.7-2.7-0.7-4.3c0-1.6,0.2-3,0.7-4.3s1.1-2.4,2-3.2c0.9-0.9,1.9-1.6,3.1-2.1C496.4,99.3,497.7,99,499.2,99z M499.2,116
	c1.7,0,2.9-0.6,3.7-1.7c0.8-1.1,1.2-2.8,1.2-4.9s-0.4-3.8-1.2-4.9c-0.8-1.1-2-1.7-3.7-1.7s-3,0.6-3.8,1.7s-1.2,2.8-1.2,4.9
	c0,2.2,0.4,3.8,1.2,4.9C496.3,115.4,497.6,116,499.2,116z"/>
<path class="st2" d="M524.3,103.2c-0.1,0.2-0.3,0.4-0.4,0.4c-0.1,0.1-0.3,0.1-0.5,0.1s-0.5-0.1-0.8-0.2s-0.6-0.3-0.9-0.4
	c-0.4-0.2-0.8-0.3-1.2-0.4c-0.5-0.1-1-0.2-1.6-0.2c-1,0-1.7,0.2-2.2,0.6s-0.8,0.9-0.8,1.6c0,0.4,0.1,0.8,0.4,1.1
	c0.3,0.3,0.7,0.6,1.1,0.8c0.5,0.2,1,0.4,1.6,0.6s1.2,0.4,1.8,0.6s1.2,0.4,1.8,0.7s1.1,0.6,1.6,1s0.8,0.9,1.1,1.5s0.4,1.3,0.4,2.1
	c0,1-0.2,1.9-0.5,2.7c-0.3,0.8-0.9,1.5-1.5,2.1c-0.7,0.6-1.5,1.1-2.5,1.4s-2.1,0.5-3.5,0.5c-0.7,0-1.4-0.1-2-0.2
	c-0.7-0.1-1.3-0.3-1.9-0.5c-0.6-0.2-1.2-0.5-1.7-0.8s-1-0.6-1.4-1l1.1-1.8c0.1-0.2,0.3-0.4,0.5-0.5s0.4-0.2,0.7-0.2s0.6,0.1,0.9,0.3
	c0.3,0.2,0.6,0.4,0.9,0.5c0.4,0.2,0.8,0.4,1.2,0.5c0.5,0.2,1.1,0.3,1.8,0.3c0.6,0,1.1-0.1,1.5-0.2s0.7-0.3,1-0.5s0.5-0.5,0.6-0.8
	s0.2-0.6,0.2-0.9c0-0.5-0.1-0.9-0.4-1.2c-0.3-0.3-0.7-0.6-1.1-0.8c-0.5-0.2-1-0.4-1.6-0.6s-1.2-0.4-1.8-0.6s-1.2-0.5-1.8-0.7
	c-0.6-0.3-1.1-0.6-1.6-1.1c-0.5-0.4-0.8-1-1.1-1.6s-0.4-1.4-0.4-2.3c0-0.8,0.2-1.6,0.5-2.3c0.3-0.7,0.8-1.4,1.4-1.9
	c0.6-0.6,1.4-1,2.4-1.3c0.9-0.3,2-0.5,3.3-0.5c1.4,0,2.6,0.2,3.8,0.7c1.1,0.5,2.1,1.1,2.8,1.8L524.3,103.2z"/>
<path class="st2" d="M532.2,110c0.1,1,0.3,1.9,0.5,2.7c0.3,0.7,0.7,1.4,1.1,1.9s1,0.9,1.7,1.1c0.6,0.2,1.4,0.4,2.1,0.4
	c0.8,0,1.5-0.1,2-0.3c0.6-0.2,1.1-0.4,1.5-0.6s0.8-0.4,1.1-0.6s0.6-0.3,0.9-0.3c0.4,0,0.7,0.1,0.9,0.4l1.4,1.8
	c-0.5,0.6-1.1,1.2-1.8,1.6s-1.4,0.8-2.1,1c-0.7,0.3-1.5,0.4-2.2,0.5s-1.5,0.2-2.2,0.2c-1.4,0-2.7-0.2-3.9-0.7s-2.2-1.1-3.1-2.1
	c-0.9-0.9-1.6-2-2.1-3.4c-0.5-1.3-0.8-2.9-0.8-4.6c0-1.4,0.2-2.7,0.7-3.9c0.4-1.2,1.1-2.3,1.9-3.1s1.8-1.6,3-2.1s2.5-0.8,4-0.8
	c1.3,0,2.4,0.2,3.5,0.6s2,1,2.8,1.8s1.4,1.7,1.8,2.9c0.4,1.1,0.7,2.4,0.7,3.9c0,0.7-0.1,1.2-0.2,1.5c-0.2,0.3-0.5,0.4-0.9,0.4h-12.3
	V110z M541.4,107.1c0-0.6-0.1-1.2-0.3-1.8c-0.2-0.6-0.4-1-0.8-1.5c-0.4-0.4-0.8-0.7-1.3-1c-0.5-0.2-1.2-0.4-1.9-0.4
	c-1.4,0-2.5,0.4-3.3,1.2c-0.8,0.8-1.3,1.9-1.5,3.4h9.1V107.1z"/>
<path class="st2" d="M563,103.6c-0.1,0.2-0.3,0.3-0.4,0.4c-0.1,0.1-0.3,0.2-0.6,0.2c-0.2,0-0.5-0.1-0.7-0.2s-0.5-0.3-0.8-0.5
	s-0.7-0.4-1.2-0.5s-1-0.2-1.7-0.2c-0.8,0-1.6,0.2-2.2,0.5c-0.6,0.3-1.2,0.7-1.6,1.3c-0.4,0.6-0.7,1.3-0.9,2.1
	c-0.2,0.8-0.3,1.7-0.3,2.8c0,1.1,0.1,2,0.3,2.9c0.2,0.8,0.6,1.5,1,2.1s1,1,1.6,1.3s1.3,0.4,2.1,0.4s1.4-0.1,1.9-0.3
	c0.5-0.2,0.9-0.4,1.2-0.6s0.6-0.4,0.9-0.6c0.2-0.2,0.5-0.3,0.8-0.3c0.4,0,0.7,0.1,0.9,0.4l1.4,1.8c-0.5,0.6-1.1,1.2-1.7,1.6
	s-1.3,0.8-1.9,1c-0.7,0.3-1.4,0.4-2.1,0.5c-0.7,0.1-1.4,0.2-2.1,0.2c-1.2,0-2.4-0.2-3.5-0.7s-2.1-1.1-2.9-2c-0.8-0.9-1.5-2-1.9-3.3
	c-0.5-1.3-0.7-2.7-0.7-4.4c0-1.5,0.2-2.8,0.6-4.1c0.4-1.3,1-2.3,1.9-3.3c0.8-0.9,1.8-1.6,3.1-2.2c1.2-0.5,2.6-0.8,4.2-0.8
	c1.5,0,2.8,0.2,3.9,0.7c1.1,0.5,2.1,1.2,3,2.1L563,103.6z"/>
<path class="st2" d="M581.5,90.8c0.8,0,1.7,0.1,2.5,0.3c0.8,0.2,1.6,0.5,2.3,1c0.7,0.4,1.3,0.9,1.9,1.5c0.6,0.6,1,1.2,1.5,1.9
	c0.4,0.7,0.7,1.4,1,2.3c0.2,0.8,0.3,1.6,0.3,2.5s-0.1,1.7-0.3,2.5c-0.2,0.8-0.5,1.6-1,2.2c-0.5,0.6-0.9,1.3-1.5,1.9
	c-0.6,0.6-1.2,1-1.9,1.5c-0.7,0.4-1.4,0.7-2.3,1c-0.8,0.2-1.6,0.3-2.5,0.3c-0.8,0-1.7-0.1-2.5-0.3c-0.8-0.2-1.6-0.5-2.2-1
	c-0.6-0.5-1.3-0.9-1.9-1.5c-0.6-0.6-1-1.2-1.5-1.9c-0.4-0.7-0.7-1.4-1-2.2c-0.2-0.8-0.3-1.6-0.3-2.5s0.1-1.7,0.3-2.5
	c0.2-0.8,0.5-1.6,1-2.3c0.4-0.7,0.9-1.3,1.5-1.9c0.6-0.6,1.2-1,1.9-1.5c0.6-0.5,1.4-0.7,2.2-1C579.8,90.9,580.6,90.8,581.5,90.8z
	 M581.5,108c0.7,0,1.4-0.1,2.1-0.3c0.6-0.2,1.3-0.5,1.8-0.8c0.6-0.3,1.1-0.7,1.6-1.2c0.5-0.5,0.8-1,1.2-1.6s0.6-1.2,0.8-1.9
	s0.3-1.4,0.3-2.1c0-0.7-0.1-1.4-0.3-2.1s-0.5-1.3-0.8-1.9s-0.7-1.1-1.2-1.6c-0.5-0.5-1-0.9-1.6-1.2c-0.6-0.3-1.2-0.6-1.8-0.8
	c-0.6-0.2-1.4-0.3-2.1-0.3s-1.4,0.1-2.1,0.3c-0.6,0.2-1.2,0.5-1.8,0.8c-0.6,0.3-1.1,0.8-1.6,1.2c-0.5,0.5-0.8,1-1.2,1.6
	s-0.6,1.2-0.8,1.9c-0.2,0.6-0.3,1.4-0.3,2.1c0,1.1,0.2,2.1,0.6,3.1s0.9,1.8,1.6,2.5c0.7,0.7,1.5,1.2,2.4,1.7
	C579.4,107.8,580.4,108,581.5,108z M581.5,94.4c1.6,0,2.7,0.3,3.5,0.8c0.7,0.6,1.1,1.4,1.1,2.5c0,0.8-0.2,1.4-0.6,1.9
	c-0.4,0.6-1,1-1.8,1.2c0.2,0.1,0.3,0.3,0.5,0.5c0.1,0.2,0.3,0.4,0.4,0.6l2.3,3.9h-2.6c-0.4,0-0.6-0.1-0.8-0.4l-1.8-3.3
	c-0.1-0.1-0.2-0.2-0.3-0.3c-0.1-0.1-0.3-0.1-0.5-0.1h-0.7v4.1h-2.8V94.4H581.5z M581.2,99.7c0.5,0,0.8-0.1,1.1-0.1
	c0.3-0.1,0.5-0.2,0.6-0.3c0.1-0.1,0.3-0.3,0.3-0.5c0.1-0.2,0.1-0.5,0.1-0.7s0-0.5-0.1-0.7c-0.1-0.2-0.1-0.4-0.3-0.5
	c-0.1-0.1-0.3-0.3-0.6-0.3s-0.6-0.1-1-0.1h-1.4v3.2L581.2,99.7L581.2,99.7z"/>
<path class="st2" d="M610.1,107.1c0,2.7,0.3,5.3,1,7.9s1.6,5,2.8,7.3c0.1,0.3,0.2,0.5,0.2,0.7s0,0.4,0,0.5c-0.1,0.1-0.1,0.3-0.2,0.4
	c-0.1,0.1-0.2,0.2-0.4,0.3l-2.2,1.3c-1-1.5-1.8-3-2.5-4.5s-1.2-3-1.7-4.5c-0.4-1.5-0.7-3.1-0.9-4.6s-0.3-3.2-0.3-4.8
	s0.1-3.2,0.3-4.8c0.2-1.6,0.5-3.1,0.9-4.6s1-3,1.7-4.5s1.5-3,2.5-4.5l2.2,1.3c0.1,0.1,0.3,0.2,0.4,0.3c0.1,0.1,0.2,0.2,0.2,0.4
	c0.1,0.1,0.1,0.3,0,0.5c0,0.2-0.1,0.4-0.2,0.7c-1.2,2.3-2.1,4.7-2.8,7.3C610.5,101.8,610.1,104.4,610.1,107.1z"/>
<path class="st2" d="M628.4,103.2c-0.1,0.2-0.3,0.4-0.4,0.4c-0.1,0.1-0.3,0.1-0.5,0.1s-0.5-0.1-0.8-0.2s-0.6-0.3-0.9-0.4
	c-0.4-0.2-0.8-0.3-1.2-0.4s-1-0.2-1.6-0.2c-1,0-1.7,0.2-2.2,0.6s-0.8,0.9-0.8,1.6c0,0.4,0.1,0.8,0.4,1.1c0.3,0.3,0.7,0.6,1.1,0.8
	c0.5,0.2,1,0.4,1.6,0.6s1.2,0.4,1.8,0.6s1.2,0.4,1.8,0.7s1.1,0.6,1.6,1s0.8,0.9,1.1,1.5s0.4,1.3,0.4,2.1c0,1-0.2,1.9-0.5,2.7
	c-0.3,0.8-0.9,1.5-1.5,2.1c-0.7,0.6-1.5,1.1-2.5,1.4s-2.1,0.5-3.5,0.5c-0.7,0-1.4-0.1-2-0.2c-0.7-0.1-1.3-0.3-1.9-0.5
	c-0.6-0.2-1.2-0.5-1.7-0.8s-1-0.6-1.4-1l1.1-1.8c0.1-0.2,0.3-0.4,0.5-0.5s0.4-0.2,0.7-0.2s0.6,0.1,0.9,0.3c0.3,0.2,0.6,0.4,0.9,0.5
	c0.4,0.2,0.8,0.4,1.2,0.5c0.5,0.2,1.1,0.3,1.8,0.3c0.6,0,1.1-0.1,1.5-0.2s0.8-0.3,1-0.5c0.3-0.2,0.5-0.5,0.6-0.8s0.2-0.6,0.2-0.9
	c0-0.5-0.1-0.9-0.4-1.2c-0.3-0.3-0.7-0.6-1.1-0.8c-0.5-0.2-1-0.4-1.6-0.6s-1.2-0.4-1.8-0.6s-1.2-0.5-1.8-0.7
	c-0.6-0.3-1.1-0.6-1.6-1.1c-0.5-0.4-0.8-1-1.1-1.6s-0.4-1.4-0.4-2.3c0-0.8,0.2-1.6,0.5-2.3c0.3-0.7,0.8-1.4,1.4-1.9
	c0.6-0.6,1.4-1,2.4-1.3c0.9-0.3,2-0.5,3.3-0.5c1.4,0,2.6,0.2,3.8,0.7c1.1,0.5,2.1,1.1,2.8,1.8L628.4,103.2z"/>
<path class="st2" d="M636.3,110c0.1,1,0.3,1.9,0.5,2.7c0.3,0.7,0.7,1.4,1.1,1.9c0.5,0.5,1,0.9,1.7,1.1c0.6,0.2,1.4,0.4,2.1,0.4
	s1.5-0.1,2-0.3c0.6-0.2,1.1-0.4,1.5-0.6s0.8-0.4,1.1-0.6s0.6-0.3,0.9-0.3c0.4,0,0.7,0.1,0.9,0.4l1.4,1.8c-0.5,0.6-1.1,1.2-1.8,1.6
	s-1.4,0.8-2.1,1c-0.7,0.3-1.5,0.4-2.2,0.5s-1.5,0.2-2.2,0.2c-1.4,0-2.7-0.2-3.9-0.7s-2.2-1.1-3.1-2.1c-0.9-0.9-1.6-2-2.1-3.4
	c-0.5-1.3-0.8-2.9-0.8-4.6c0-1.4,0.2-2.7,0.7-3.9c0.4-1.2,1.1-2.3,1.9-3.1c0.8-0.9,1.8-1.6,3-2.1s2.5-0.8,4-0.8
	c1.3,0,2.4,0.2,3.5,0.6s2,1,2.8,1.8s1.4,1.7,1.8,2.9c0.4,1.1,0.7,2.4,0.7,3.9c0,0.7-0.1,1.2-0.2,1.5c-0.2,0.3-0.5,0.4-0.9,0.4h-12.3
	V110z M645.5,107.1c0-0.6-0.1-1.2-0.3-1.8c-0.2-0.6-0.4-1-0.8-1.5s-0.8-0.7-1.3-1c-0.5-0.2-1.2-0.4-1.9-0.4c-1.4,0-2.5,0.4-3.3,1.2
	s-1.3,1.9-1.5,3.4h9.1V107.1z"/>
<path class="st2" d="M667.1,103.6c-0.1,0.2-0.3,0.3-0.4,0.4c-0.1,0.1-0.3,0.2-0.6,0.2c-0.2,0-0.5-0.1-0.7-0.2s-0.5-0.3-0.8-0.5
	s-0.7-0.4-1.2-0.5s-1-0.2-1.7-0.2c-0.8,0-1.6,0.2-2.2,0.5c-0.6,0.3-1.2,0.7-1.6,1.3c-0.4,0.6-0.7,1.3-0.9,2.1
	c-0.2,0.8-0.3,1.7-0.3,2.8c0,1.1,0.1,2,0.3,2.9c0.2,0.8,0.6,1.5,1,2.1s1,1,1.6,1.3s1.3,0.4,2.1,0.4s1.4-0.1,1.9-0.3
	c0.5-0.2,0.9-0.4,1.2-0.6s0.6-0.4,0.9-0.6c0.2-0.2,0.5-0.3,0.8-0.3c0.4,0,0.7,0.1,0.9,0.4l1.4,1.8c-0.5,0.6-1.1,1.2-1.7,1.6
	s-1.3,0.8-1.9,1c-0.7,0.3-1.4,0.4-2.1,0.5c-0.7,0.1-1.4,0.2-2.1,0.2c-1.2,0-2.4-0.2-3.5-0.7s-2.1-1.1-2.9-2c-0.8-0.9-1.5-2-1.9-3.3
	c-0.5-1.3-0.7-2.7-0.7-4.4c0-1.5,0.2-2.8,0.6-4.1c0.4-1.3,1-2.3,1.9-3.3c0.8-0.9,1.8-1.6,3.1-2.2c1.2-0.5,2.6-0.8,4.2-0.8
	c1.5,0,2.8,0.2,3.9,0.7c1.1,0.5,2.1,1.2,3,2.1L667.1,103.6z"/>
<path class="st2" d="M675.3,101.8c0.4-0.4,0.8-0.8,1.3-1.1c0.5-0.3,0.9-0.6,1.4-0.9c0.5-0.2,1-0.4,1.6-0.6c0.6-0.1,1.2-0.2,1.9-0.2
	c1.1,0,2.1,0.2,2.9,0.6c0.8,0.4,1.6,0.9,2.1,1.6c0.6,0.7,1,1.5,1.3,2.4s0.4,2,0.4,3.1v12.8h-4.8v-12.8c0-1.2-0.3-2.2-0.8-2.8
	c-0.6-0.7-1.4-1-2.6-1c-0.8,0-1.6,0.2-2.3,0.6s-1.4,0.9-2.1,1.5v14.5h-4.8V99.3h3c0.6,0,1,0.3,1.2,0.9L675.3,101.8z"/>
<path class="st2" d="M697.8,93.5c0,0.4-0.1,0.8-0.3,1.2c-0.2,0.4-0.4,0.7-0.7,1s-0.6,0.5-1,0.7s-0.8,0.2-1.2,0.2s-0.8-0.1-1.2-0.2
	c-0.4-0.2-0.7-0.4-1-0.7s-0.5-0.6-0.7-1s-0.2-0.8-0.2-1.2c0-0.4,0.1-0.8,0.2-1.2c0.2-0.4,0.4-0.7,0.7-1s0.6-0.5,1-0.7
	s0.8-0.2,1.2-0.2s0.8,0.1,1.2,0.2c0.4,0.2,0.7,0.4,1,0.7c0.3,0.3,0.5,0.6,0.7,1C697.7,92.6,697.8,93,697.8,93.5z M697.1,99.3v20.1
	h-4.9V99.3H697.1z"/>
<path class="st2" d="M718.7,90.3v29.1h-3c-0.6,0-1-0.3-1.2-0.9l-0.4-1.9c-0.8,0.9-1.7,1.7-2.8,2.2s-2.3,0.9-3.7,0.9
	c-1.1,0-2.1-0.2-3-0.7s-1.7-1.1-2.4-2s-1.2-1.9-1.5-3.2c-0.4-1.3-0.5-2.7-0.5-4.4c0-1.5,0.2-2.9,0.6-4.1c0.4-1.3,1-2.4,1.7-3.3
	c0.8-0.9,1.7-1.7,2.7-2.2c1.1-0.5,2.2-0.8,3.6-0.8c1.1,0,2.1,0.2,2.9,0.5c0.8,0.4,1.5,0.8,2.1,1.4V90.3H718.7z M713.9,104.5
	c-0.5-0.7-1.1-1.1-1.8-1.4c-0.6-0.3-1.3-0.4-2.1-0.4c-0.7,0-1.4,0.1-2,0.4s-1.1,0.7-1.5,1.2c-0.4,0.6-0.7,1.3-1,2.1
	c-0.2,0.9-0.3,1.9-0.3,3c0,1.2,0.1,2.2,0.3,3s0.5,1.5,0.8,2c0.4,0.5,0.8,0.9,1.3,1.1s1.1,0.3,1.7,0.3c1,0,1.9-0.2,2.6-0.6
	c0.7-0.4,1.4-1,2-1.8V104.5z"/>
<path class="st2" d="M722.2,102.1c2.3-2.1,5.1-3.2,8.3-3.2c1.2,0,2.2,0.2,3.1,0.6c0.9,0.4,1.7,0.9,2.3,1.6s1.1,1.5,1.5,2.5
	c0.3,1,0.5,2,0.5,3.1v12.7h-2.2c-0.5,0-0.8-0.1-1.1-0.2c-0.2-0.1-0.4-0.4-0.6-0.8l-0.4-1.4c-0.5,0.5-1,0.9-1.5,1.2
	c-0.5,0.3-1,0.6-1.5,0.9c-0.5,0.2-1.1,0.4-1.7,0.5c-0.6,0.1-1.2,0.2-2,0.2s-1.6-0.1-2.3-0.3c-0.7-0.2-1.3-0.6-1.9-1
	c-0.5-0.5-0.9-1-1.2-1.7s-0.4-1.5-0.4-2.4c0-0.5,0.1-1,0.3-1.5s0.4-1,0.8-1.4c0.4-0.5,0.9-0.9,1.5-1.3s1.4-0.8,2.3-1.1
	c0.9-0.3,1.9-0.5,3.1-0.7c1.2-0.2,2.5-0.3,4.1-0.3v-1.2c0-1.3-0.3-2.3-0.9-3c-0.6-0.6-1.4-1-2.5-1c-0.8,0-1.4,0.1-1.9,0.3
	c-0.5,0.2-1,0.4-1.4,0.6s-0.7,0.4-1.1,0.6c-0.3,0.2-0.7,0.3-1.1,0.3c-0.3,0-0.6-0.1-0.9-0.3c-0.2-0.2-0.4-0.4-0.6-0.6L722.2,102.1z
	 M733.3,110.8c-1.4,0.1-2.6,0.2-3.5,0.4c-1,0.2-1.7,0.4-2.3,0.7c-0.6,0.3-1,0.6-1.2,1s-0.4,0.8-0.4,1.2c0,0.8,0.3,1.5,0.8,1.8
	c0.5,0.4,1.2,0.5,2,0.5c1,0,1.8-0.2,2.6-0.5c0.7-0.4,1.4-0.9,2.1-1.6L733.3,110.8L733.3,110.8z"/>
<path class="st2" d="M756.2,101.3c0,0.3-0.1,0.7-0.2,1c-0.1,0.3-0.3,0.6-0.5,0.8l-9.5,12.6h9.9v3.7h-15.5v-2c0-0.2,0.1-0.5,0.2-0.8
	c0.1-0.3,0.3-0.6,0.5-0.9l9.6-12.7H741v-3.7h15.2V101.3z"/>
<path class="st2" d="M767.5,99c1.5,0,2.8,0.2,4.1,0.7c1.2,0.5,2.3,1.2,3.1,2.1c0.9,0.9,1.5,2,2,3.2c0.5,1.3,0.7,2.7,0.7,4.3
	c0,1.6-0.2,3-0.7,4.3s-1.1,2.4-2,3.3s-1.9,1.6-3.1,2.1c-1.2,0.5-2.6,0.7-4.1,0.7s-2.9-0.2-4.1-0.7c-1.2-0.5-2.3-1.2-3.1-2.1
	c-0.9-0.9-1.5-2-2-3.3s-0.7-2.7-0.7-4.3c0-1.6,0.2-3,0.7-4.3s1.1-2.4,2-3.2c0.9-0.9,1.9-1.6,3.1-2.1C764.7,99.3,766,99,767.5,99z
	 M767.5,116c1.7,0,2.9-0.6,3.7-1.7s1.2-2.8,1.2-4.9s-0.4-3.8-1.2-4.9s-2-1.7-3.7-1.7s-3,0.6-3.8,1.7s-1.2,2.8-1.2,4.9
	c0,2.2,0.4,3.8,1.2,4.9C764.6,115.4,765.8,116,767.5,116z"/>
<path class="st2" d="M785.2,90.3v29.1h-4.8V90.3H785.2z"/>
<path class="st2" d="M793,110c0.1,1,0.3,1.9,0.5,2.7c0.3,0.7,0.7,1.4,1.1,1.9c0.5,0.5,1,0.9,1.7,1.1c0.6,0.2,1.4,0.4,2.1,0.4
	c0.8,0,1.5-0.1,2-0.3c0.6-0.2,1.1-0.4,1.5-0.6s0.8-0.4,1.1-0.6s0.6-0.3,0.9-0.3c0.4,0,0.7,0.1,0.9,0.4l1.4,1.8
	c-0.5,0.6-1.1,1.2-1.8,1.6s-1.4,0.8-2.1,1c-0.7,0.3-1.5,0.4-2.2,0.5c-0.8,0.1-1.5,0.2-2.2,0.2c-1.4,0-2.7-0.2-3.9-0.7
	s-2.2-1.1-3.1-2.1c-0.9-0.9-1.6-2-2.1-3.4c-0.5-1.3-0.8-2.9-0.8-4.6c0-1.4,0.2-2.7,0.7-3.9c0.4-1.2,1.1-2.3,1.9-3.1
	c0.8-0.9,1.8-1.6,3-2.1s2.5-0.8,4-0.8c1.3,0,2.4,0.2,3.5,0.6s2,1,2.8,1.8s1.4,1.7,1.8,2.9c0.4,1.1,0.7,2.4,0.7,3.9
	c0,0.7-0.1,1.2-0.2,1.5c-0.2,0.3-0.5,0.4-0.9,0.4H793V110z M802.2,107.1c0-0.6-0.1-1.2-0.3-1.8c-0.2-0.6-0.4-1-0.8-1.5
	s-0.8-0.7-1.3-1c-0.5-0.2-1.2-0.4-1.9-0.4c-1.4,0-2.5,0.4-3.3,1.2s-1.3,1.9-1.5,3.4h9.1V107.1z"/>
<path class="st2" d="M811.2,107.1c0-2.7-0.3-5.3-1-7.9c-0.6-2.6-1.6-5-2.8-7.3c-0.1-0.3-0.2-0.5-0.2-0.7s0-0.4,0-0.5
	c0.1-0.1,0.1-0.3,0.2-0.4c0.1-0.1,0.2-0.2,0.4-0.3l2.2-1.3c1,1.5,1.8,3,2.5,4.5s1.2,3,1.7,4.5c0.4,1.5,0.7,3.1,0.9,4.6
	c0.2,1.6,0.3,3.2,0.3,4.8s-0.1,3.2-0.3,4.8s-0.5,3.1-0.9,4.6s-1,3-1.7,4.5s-1.5,3-2.5,4.5l-2.2-1.3c-0.1-0.1-0.3-0.2-0.4-0.3
	c-0.1-0.1-0.2-0.2-0.2-0.4c-0.1-0.1-0.1-0.3,0-0.5c0-0.2,0.1-0.4,0.2-0.7c1.2-2.3,2.1-4.7,2.8-7.3
	C810.9,112.5,811.2,109.8,811.2,107.1z"/>
<g>
	<path class="st2" d="M827.4,104.3v2.1h-9.1v-2.1h3.3v-9.6c0-0.4,0-0.8,0-1.2l-2.4,2c-0.1,0.1-0.3,0.2-0.4,0.2c-0.1,0-0.3,0-0.4,0
		c-0.1,0-0.2-0.1-0.3-0.1c-0.1-0.1-0.2-0.1-0.2-0.2l-0.9-1.2l5-4.3h2.3v14.4C824.3,104.3,827.4,104.3,827.4,104.3z"/>
</g>
</svg>
