<?xml version="1.0" encoding="utf-8"?>
<!-- Generator: Adobe Illustrator 24.1.0, SVG Export Plug-In . SVG Version: 6.00 Build 0)  -->
<svg version="1.1" id="Layer_1" xmlns="http://www.w3.org/2000/svg" xmlns:xlink="http://www.w3.org/1999/xlink" x="0px" y="0px"
	 viewBox="0 0 1366.16 743.37" style="enable-background:new 0 0 1366.16 743.37;" xml:space="preserve">
<style type="text/css">
	.st0{clip-path:url(#SVGID_2_);fill:#D1E1E8;}
	.st1{fill:#003E6A;}
</style>
<g>
	<g>
		<defs>
			<path id="SVGID_1_" d="M0,0v717.76c0,0,183.23-20.77,379.31-20.77c274.84,0,490.21,47.86,710.4,46.34
				c220.19-1.52,276.45-15.83,276.45-15.83V0H0z"/>
		</defs>
		<use xlink:href="#SVGID_1_"  style="overflow:visible;fill:#D1E1E8;"/>
		<clipPath id="SVGID_2_">
			<use xlink:href="#SVGID_1_"  style="overflow:visible;"/>
		</clipPath>
		<rect x="0" y="0" class="st0" width="1366.16" height="744.86"/>
	</g>
	<g>
		<path class="st1" d="M152.04,91.39l-8.67,27.91h-4.69l-6.1-19.07c-0.17-0.46-0.32-1.03-0.46-1.7c-0.08,0.32-0.15,0.62-0.23,0.91
			c-0.08,0.28-0.16,0.55-0.25,0.79l-6.16,19.07h-4.71l-8.65-27.91h4.34c0.45,0,0.83,0.11,1.13,0.32c0.3,0.21,0.5,0.5,0.61,0.86
			l4.75,16.7c0.1,0.41,0.2,0.86,0.3,1.34c0.1,0.48,0.2,0.99,0.3,1.52c0.1-0.54,0.22-1.05,0.34-1.53c0.12-0.48,0.25-0.92,0.4-1.33
			l5.48-16.7c0.1-0.3,0.31-0.57,0.61-0.81c0.3-0.24,0.67-0.37,1.11-0.37h1.53c0.45,0,0.82,0.11,1.1,0.33s0.5,0.5,0.64,0.85
			l5.46,16.7c0.27,0.8,0.51,1.72,0.73,2.76c0.17-1.02,0.35-1.94,0.56-2.76l4.75-16.7c0.08-0.32,0.27-0.6,0.59-0.83
			c0.32-0.23,0.69-0.35,1.13-0.35H152.04z"/>
		<path class="st1" d="M151.14,102.26c2.28-2.08,5.02-3.13,8.22-3.13c1.16,0,2.19,0.19,3.11,0.57c0.91,0.38,1.69,0.91,2.32,1.58
			c0.63,0.68,1.11,1.48,1.44,2.42c0.33,0.94,0.49,1.97,0.49,3.09v12.51h-2.16c-0.45,0-0.8-0.07-1.04-0.2
			c-0.24-0.14-0.44-0.41-0.58-0.82l-0.42-1.43c-0.5,0.45-0.99,0.85-1.47,1.19c-0.48,0.34-0.97,0.63-1.49,0.86
			c-0.51,0.23-1.07,0.41-1.65,0.53c-0.59,0.12-1.23,0.18-1.94,0.18c-0.84,0-1.61-0.11-2.32-0.34c-0.71-0.22-1.32-0.56-1.83-1.01
			c-0.51-0.45-0.91-1.01-1.2-1.68c-0.28-0.67-0.42-1.45-0.42-2.34c0-0.5,0.08-1,0.25-1.5c0.17-0.5,0.44-0.97,0.82-1.42
			c0.38-0.45,0.87-0.88,1.48-1.27c0.61-0.4,1.35-0.75,2.23-1.04c0.88-0.3,1.91-0.54,3.08-0.72c1.17-0.19,2.51-0.3,4.01-0.34v-1.16
			c0-1.32-0.28-2.31-0.85-2.94c-0.57-0.64-1.38-0.96-2.45-0.96c-0.77,0-1.41,0.09-1.92,0.27c-0.51,0.18-0.96,0.38-1.34,0.61
			s-0.74,0.43-1.05,0.61c-0.32,0.18-0.67,0.27-1.05,0.27c-0.33,0-0.62-0.09-0.85-0.26c-0.23-0.17-0.42-0.38-0.56-0.61L151.14,102.26
			z M162.06,110.85c-1.38,0.06-2.53,0.18-3.47,0.36s-1.69,0.4-2.26,0.67c-0.57,0.27-0.97,0.59-1.22,0.95
			c-0.24,0.36-0.37,0.75-0.37,1.18c0,0.84,0.25,1.43,0.74,1.79c0.5,0.36,1.14,0.54,1.94,0.54c0.98,0,1.82-0.18,2.54-0.53
			c0.71-0.35,1.41-0.89,2.09-1.61V110.85z"/>
		<path class="st1" d="M176.79,119.61c-1.72,0-3.05-0.49-3.97-1.46c-0.92-0.97-1.38-2.31-1.38-4.02v-11.06h-2.03
			c-0.26,0-0.48-0.08-0.66-0.25c-0.18-0.17-0.27-0.42-0.27-0.75v-1.89l3.18-0.52l1-5.4c0.06-0.26,0.19-0.46,0.37-0.6
			c0.18-0.14,0.41-0.21,0.69-0.21h2.47v6.23h5.29v3.4h-5.29v10.73c0,0.62,0.15,1.1,0.45,1.45c0.3,0.35,0.72,0.52,1.24,0.52
			c0.3,0,0.54-0.04,0.74-0.11c0.2-0.07,0.37-0.14,0.52-0.22c0.15-0.08,0.28-0.15,0.4-0.22c0.12-0.07,0.23-0.11,0.35-0.11
			c0.14,0,0.26,0.04,0.35,0.11c0.09,0.07,0.19,0.18,0.29,0.32l1.43,2.32c-0.69,0.58-1.49,1.02-2.39,1.31
			S177.75,119.61,176.79,119.61z"/>
		<path class="st1" d="M197.81,103.69c-0.14,0.18-0.28,0.32-0.41,0.42c-0.14,0.1-0.33,0.15-0.59,0.15c-0.24,0-0.48-0.07-0.71-0.22
			c-0.23-0.15-0.51-0.32-0.83-0.5c-0.32-0.19-0.7-0.35-1.15-0.5c-0.44-0.15-0.99-0.22-1.65-0.22c-0.84,0-1.57,0.15-2.2,0.45
			c-0.63,0.3-1.15,0.74-1.57,1.3c-0.42,0.57-0.73,1.25-0.94,2.06c-0.21,0.8-0.31,1.71-0.31,2.73c0,1.06,0.11,1.99,0.34,2.82
			c0.22,0.82,0.55,1.52,0.97,2.07c0.42,0.56,0.94,0.98,1.54,1.27c0.6,0.29,1.29,0.43,2.05,0.43c0.76,0,1.37-0.09,1.84-0.28
			c0.47-0.19,0.87-0.39,1.19-0.62c0.32-0.22,0.6-0.43,0.84-0.62c0.24-0.19,0.5-0.28,0.8-0.28c0.39,0,0.68,0.15,0.87,0.44l1.37,1.74
			c-0.53,0.62-1.1,1.14-1.72,1.55c-0.62,0.42-1.26,0.75-1.92,1c-0.66,0.25-1.34,0.43-2.05,0.53c-0.7,0.1-1.4,0.15-2.09,0.15
			c-1.22,0-2.37-0.23-3.45-0.69c-1.08-0.46-2.03-1.12-2.84-2c-0.81-0.88-1.45-1.95-1.92-3.21c-0.47-1.27-0.7-2.71-0.7-4.33
			c0-1.45,0.21-2.8,0.63-4.04c0.42-1.24,1.03-2.32,1.84-3.22c0.81-0.91,1.81-1.62,3.01-2.13c1.2-0.51,2.57-0.77,4.13-0.77
			c1.48,0,2.78,0.24,3.89,0.71c1.11,0.48,2.11,1.16,3,2.05L197.81,103.69z"/>
		<path class="st1" d="M206.26,101.62c0.77-0.72,1.62-1.31,2.55-1.76c0.93-0.45,2.01-0.68,3.26-0.68c1.08,0,2.04,0.18,2.88,0.55
			c0.84,0.37,1.53,0.88,2.09,1.54c0.56,0.66,0.98,1.45,1.27,2.37c0.29,0.92,0.43,1.93,0.43,3.04v12.6h-4.77v-12.6
			c0-1.21-0.28-2.15-0.83-2.81c-0.55-0.66-1.4-0.99-2.53-0.99c-0.82,0-1.6,0.19-2.32,0.56c-0.72,0.37-1.4,0.88-2.05,1.52v14.32
			h-4.77V90.62h4.77V101.62z"/>
		<path class="st1" d="M235.91,101.62c0.77-0.72,1.62-1.31,2.55-1.76c0.93-0.45,2.01-0.68,3.26-0.68c1.08,0,2.04,0.18,2.88,0.55
			c0.84,0.37,1.53,0.88,2.09,1.54c0.56,0.66,0.98,1.45,1.27,2.37s0.43,1.93,0.43,3.04v12.6h-4.77v-12.6c0-1.21-0.28-2.15-0.83-2.81
			c-0.55-0.66-1.4-0.99-2.53-0.99c-0.82,0-1.6,0.19-2.32,0.56c-0.72,0.37-1.4,0.88-2.05,1.52v14.32h-4.77V90.62h4.77V101.62z"/>
		<path class="st1" d="M260.9,99.19c1.47,0,2.8,0.24,4.01,0.71c1.2,0.48,2.23,1.15,3.09,2.03c0.86,0.88,1.52,1.94,1.98,3.2
			c0.46,1.26,0.69,2.67,0.69,4.23c0,1.57-0.23,2.99-0.69,4.25c-0.46,1.26-1.12,2.34-1.98,3.22c-0.86,0.89-1.89,1.57-3.09,2.05
			s-2.54,0.71-4.01,0.71c-1.48,0-2.82-0.24-4.03-0.71c-1.21-0.48-2.24-1.16-3.1-2.05c-0.86-0.89-1.52-1.96-1.99-3.22
			c-0.47-1.26-0.7-2.68-0.7-4.25c0-1.56,0.23-2.97,0.7-4.23c0.47-1.26,1.13-2.33,1.99-3.2c0.86-0.87,1.89-1.55,3.1-2.03
			C258.08,99.43,259.42,99.19,260.9,99.19z M260.9,115.93c1.65,0,2.87-0.55,3.66-1.66c0.79-1.11,1.19-2.73,1.19-4.86
			c0-2.14-0.4-3.76-1.19-4.88c-0.79-1.12-2.01-1.68-3.66-1.68c-1.67,0-2.91,0.56-3.72,1.69c-0.8,1.13-1.21,2.75-1.21,4.87
			s0.4,3.74,1.21,4.85C257.99,115.37,259.23,115.93,260.9,115.93z"/>
		<path class="st1" d="M301.52,99.5l-6.29,19.8h-3.82c-0.44,0-0.74-0.28-0.91-0.85l-3.55-11.45c-0.12-0.39-0.22-0.77-0.32-1.15
			c-0.1-0.38-0.18-0.76-0.24-1.15c-0.08,0.39-0.16,0.78-0.26,1.17c-0.1,0.39-0.2,0.78-0.32,1.17l-3.61,11.41
			c-0.15,0.57-0.5,0.85-1.02,0.85h-3.67l-6.27-19.8h3.8c0.35,0,0.64,0.08,0.89,0.25s0.41,0.38,0.48,0.64l2.84,10.58
			c0.14,0.58,0.27,1.15,0.38,1.7c0.11,0.55,0.2,1.11,0.28,1.66c0.14-0.55,0.29-1.11,0.45-1.66s0.33-1.12,0.51-1.7l3.28-10.62
			c0.08-0.26,0.23-0.47,0.45-0.64c0.23-0.17,0.5-0.25,0.82-0.25h2.1c0.33,0,0.62,0.08,0.86,0.25c0.24,0.17,0.4,0.38,0.47,0.64
			l3.18,10.62c0.17,0.58,0.32,1.15,0.47,1.71c0.15,0.56,0.29,1.12,0.43,1.67c0.17-1.09,0.41-2.22,0.71-3.38l2.91-10.58
			c0.09-0.26,0.25-0.47,0.48-0.64c0.23-0.17,0.51-0.25,0.83-0.25H301.52z"/>
		<path class="st1" d="M317.92,119.61c-1.72,0-3.05-0.49-3.97-1.46c-0.92-0.97-1.38-2.31-1.38-4.02v-11.06h-2.03
			c-0.26,0-0.48-0.08-0.66-0.25c-0.18-0.17-0.27-0.42-0.27-0.75v-1.89l3.18-0.52l1-5.4c0.06-0.26,0.19-0.46,0.37-0.6
			c0.18-0.14,0.41-0.21,0.69-0.21h2.47v6.23h5.29v3.4h-5.29v10.73c0,0.62,0.15,1.1,0.45,1.45c0.3,0.35,0.72,0.52,1.25,0.52
			c0.3,0,0.54-0.04,0.74-0.11c0.2-0.07,0.37-0.14,0.52-0.22c0.15-0.08,0.28-0.15,0.4-0.22c0.12-0.07,0.23-0.11,0.35-0.11
			c0.14,0,0.26,0.04,0.35,0.11c0.09,0.07,0.19,0.18,0.29,0.32l1.43,2.32c-0.69,0.58-1.49,1.02-2.39,1.31
			S318.89,119.61,317.92,119.61z"/>
		<path class="st1" d="M333.52,99.19c1.47,0,2.8,0.24,4.01,0.71c1.2,0.48,2.23,1.15,3.09,2.03c0.86,0.88,1.52,1.94,1.98,3.2
			c0.46,1.26,0.69,2.67,0.69,4.23c0,1.57-0.23,2.99-0.69,4.25c-0.46,1.26-1.12,2.34-1.98,3.22c-0.86,0.89-1.89,1.57-3.09,2.05
			s-2.54,0.71-4.01,0.71c-1.48,0-2.82-0.24-4.03-0.71c-1.21-0.48-2.24-1.16-3.1-2.05c-0.86-0.89-1.52-1.96-1.99-3.22
			c-0.47-1.26-0.7-2.68-0.7-4.25c0-1.56,0.23-2.97,0.7-4.23c0.47-1.26,1.13-2.33,1.99-3.2c0.86-0.87,1.89-1.55,3.1-2.03
			C330.69,99.43,332.04,99.19,333.52,99.19z M333.52,115.93c1.65,0,2.87-0.55,3.66-1.66c0.79-1.11,1.19-2.73,1.19-4.86
			c0-2.14-0.4-3.76-1.19-4.88c-0.79-1.12-2.01-1.68-3.66-1.68c-1.67,0-2.91,0.56-3.72,1.69c-0.8,1.13-1.21,2.75-1.21,4.87
			s0.4,3.74,1.21,4.85C330.61,115.37,331.84,115.93,333.52,115.93z"/>
		<path class="st1" d="M361.37,119.61c-1.72,0-3.05-0.49-3.97-1.46c-0.92-0.97-1.38-2.31-1.38-4.02v-11.06H354
			c-0.26,0-0.48-0.08-0.66-0.25c-0.18-0.17-0.27-0.42-0.27-0.75v-1.89l3.18-0.52l1-5.4c0.06-0.26,0.19-0.46,0.37-0.6
			c0.18-0.14,0.41-0.21,0.69-0.21h2.47v6.23h5.29v3.4h-5.29v10.73c0,0.62,0.15,1.1,0.45,1.45c0.3,0.35,0.72,0.52,1.24,0.52
			c0.3,0,0.54-0.04,0.74-0.11c0.2-0.07,0.37-0.14,0.52-0.22c0.15-0.08,0.28-0.15,0.4-0.22c0.12-0.07,0.23-0.11,0.35-0.11
			c0.14,0,0.26,0.04,0.35,0.11c0.09,0.07,0.19,0.18,0.29,0.32l1.43,2.32c-0.69,0.58-1.49,1.02-2.39,1.31
			S362.34,119.61,361.37,119.61z"/>
		<path class="st1" d="M367.93,102.26c2.28-2.08,5.02-3.13,8.22-3.13c1.16,0,2.19,0.19,3.11,0.57c0.91,0.38,1.69,0.91,2.32,1.58
			c0.63,0.68,1.11,1.48,1.44,2.42c0.33,0.94,0.49,1.97,0.49,3.09v12.51h-2.16c-0.45,0-0.8-0.07-1.04-0.2s-0.44-0.41-0.58-0.82
			l-0.42-1.43c-0.5,0.45-0.99,0.85-1.47,1.19c-0.48,0.34-0.97,0.63-1.49,0.86s-1.07,0.41-1.65,0.53c-0.59,0.12-1.23,0.18-1.94,0.18
			c-0.84,0-1.61-0.11-2.32-0.34c-0.71-0.22-1.32-0.56-1.83-1.01c-0.51-0.45-0.91-1.01-1.2-1.68c-0.28-0.67-0.42-1.45-0.42-2.34
			c0-0.5,0.08-1,0.25-1.5c0.17-0.5,0.44-0.97,0.82-1.42c0.38-0.45,0.87-0.88,1.48-1.27c0.61-0.4,1.35-0.75,2.23-1.04
			c0.88-0.3,1.91-0.54,3.08-0.72c1.17-0.19,2.51-0.3,4.01-0.34v-1.16c0-1.32-0.28-2.31-0.85-2.94c-0.57-0.64-1.38-0.96-2.45-0.96
			c-0.77,0-1.41,0.09-1.92,0.27c-0.51,0.18-0.96,0.38-1.34,0.61s-0.74,0.43-1.05,0.61c-0.32,0.18-0.67,0.27-1.05,0.27
			c-0.33,0-0.62-0.09-0.85-0.26c-0.23-0.17-0.42-0.38-0.56-0.61L367.93,102.26z M378.86,110.85c-1.38,0.06-2.53,0.18-3.47,0.36
			s-1.69,0.4-2.26,0.67c-0.57,0.27-0.97,0.59-1.22,0.95c-0.24,0.36-0.37,0.75-0.37,1.18c0,0.84,0.25,1.43,0.74,1.79
			c0.5,0.36,1.14,0.54,1.94,0.54c0.98,0,1.82-0.18,2.54-0.53c0.71-0.35,1.41-0.89,2.09-1.61V110.85z"/>
		<path class="st1" d="M391.98,90.62v16.43h0.89c0.32,0,0.58-0.04,0.76-0.13c0.19-0.08,0.38-0.25,0.57-0.51l4.92-6.08
			c0.21-0.27,0.43-0.48,0.69-0.62c0.25-0.14,0.58-0.21,0.97-0.21h4.36l-6.16,7.35c-0.44,0.58-0.91,1.02-1.43,1.33
			c0.27,0.19,0.51,0.42,0.72,0.68c0.21,0.26,0.42,0.53,0.61,0.83l6.6,9.61h-4.3c-0.37,0-0.69-0.06-0.96-0.18
			c-0.27-0.12-0.5-0.34-0.68-0.67l-5.06-7.51c-0.18-0.3-0.37-0.49-0.56-0.58c-0.19-0.09-0.48-0.14-0.87-0.14h-1.08v9.07h-4.77V90.62
			H391.98z"/>
		<path class="st1" d="M409.78,110c0.08,1.02,0.26,1.9,0.54,2.63c0.28,0.74,0.66,1.35,1.12,1.83c0.46,0.48,1.01,0.84,1.65,1.08
			s1.34,0.36,2.11,0.36s1.44-0.09,2-0.27c0.56-0.18,1.05-0.38,1.47-0.6c0.42-0.22,0.78-0.42,1.1-0.6c0.32-0.18,0.62-0.27,0.92-0.27
			c0.4,0,0.7,0.15,0.89,0.44l1.37,1.74c-0.53,0.62-1.12,1.14-1.78,1.55c-0.66,0.42-1.34,0.75-2.06,1c-0.71,0.25-1.44,0.43-2.18,0.53
			c-0.74,0.1-1.46,0.15-2.15,0.15c-1.38,0-2.66-0.23-3.84-0.69c-1.18-0.46-2.21-1.13-3.09-2.03c-0.88-0.89-1.56-2-2.07-3.32
			c-0.5-1.32-0.75-2.85-0.75-4.58c0-1.35,0.22-2.62,0.66-3.81c0.44-1.19,1.06-2.23,1.88-3.11s1.81-1.58,2.99-2.09
			c1.18-0.51,2.51-0.77,3.99-0.77c1.25,0,2.4,0.2,3.45,0.6s1.96,0.98,2.72,1.75c0.76,0.77,1.35,1.71,1.79,2.82
			c0.43,1.11,0.65,2.38,0.65,3.81c0,0.72-0.08,1.21-0.23,1.46c-0.15,0.25-0.45,0.38-0.89,0.38H409.78z M418.87,107.13
			c0-0.62-0.09-1.2-0.26-1.75c-0.17-0.55-0.43-1.03-0.78-1.44c-0.35-0.41-0.79-0.74-1.32-0.97s-1.15-0.36-1.86-0.36
			c-1.38,0-2.46,0.39-3.25,1.18c-0.79,0.78-1.3,1.9-1.52,3.34H418.87z"/>
		<path class="st1" d="M450.22,96.47c-0.15,0.27-0.32,0.47-0.49,0.59c-0.17,0.12-0.39,0.18-0.65,0.18c-0.27,0-0.56-0.1-0.88-0.3
			c-0.32-0.2-0.69-0.42-1.13-0.67c-0.44-0.24-0.95-0.47-1.53-0.67c-0.59-0.2-1.28-0.3-2.07-0.3c-0.72,0-1.35,0.09-1.89,0.26
			c-0.54,0.17-0.99,0.41-1.36,0.72c-0.37,0.31-0.64,0.68-0.82,1.11c-0.18,0.43-0.27,0.9-0.27,1.42c0,0.66,0.18,1.2,0.55,1.64
			c0.37,0.44,0.85,0.81,1.46,1.12c0.61,0.31,1.29,0.59,2.07,0.83c0.77,0.24,1.56,0.5,2.37,0.78c0.81,0.28,1.6,0.6,2.37,0.97
			c0.77,0.37,1.46,0.83,2.07,1.39c0.6,0.56,1.09,1.25,1.46,2.06c0.37,0.81,0.55,1.8,0.55,2.95c0,1.26-0.22,2.44-0.65,3.54
			c-0.43,1.1-1.06,2.06-1.89,2.88c-0.83,0.82-1.84,1.46-3.04,1.93c-1.2,0.47-2.57,0.7-4.11,0.7c-0.89,0-1.76-0.09-2.63-0.26
			c-0.86-0.17-1.69-0.42-2.48-0.74c-0.79-0.32-1.53-0.71-2.23-1.16c-0.69-0.45-1.31-0.95-1.85-1.51l1.52-2.49
			c0.13-0.18,0.3-0.33,0.5-0.45c0.21-0.12,0.42-0.18,0.66-0.18c0.32,0,0.67,0.13,1.04,0.4c0.37,0.26,0.82,0.56,1.33,0.88
			c0.51,0.32,1.12,0.61,1.8,0.88s1.52,0.4,2.48,0.4c1.48,0,2.62-0.35,3.44-1.05c0.81-0.7,1.22-1.71,1.22-3.02
			c0-0.73-0.18-1.33-0.55-1.79c-0.37-0.46-0.85-0.85-1.46-1.17c-0.61-0.32-1.29-0.58-2.07-0.8s-1.56-0.46-2.35-0.71
			c-0.8-0.26-1.58-0.57-2.35-0.93c-0.77-0.36-1.46-0.83-2.06-1.41c-0.61-0.58-1.09-1.3-1.46-2.17c-0.37-0.87-0.55-1.94-0.55-3.21
			c0-1.02,0.2-2.01,0.61-2.97c0.41-0.96,0.99-1.82,1.77-2.57c0.77-0.75,1.72-1.34,2.86-1.8c1.13-0.45,2.43-0.68,3.9-0.68
			c1.65,0,3.17,0.26,4.55,0.77c1.39,0.51,2.57,1.24,3.55,2.16L450.22,96.47z"/>
		<path class="st1" d="M463.73,99.19c1.47,0,2.8,0.24,4.01,0.71c1.2,0.48,2.23,1.15,3.09,2.03c0.86,0.88,1.52,1.94,1.98,3.2
			c0.46,1.26,0.69,2.67,0.69,4.23c0,1.57-0.23,2.99-0.69,4.25c-0.46,1.26-1.12,2.34-1.98,3.22c-0.86,0.89-1.89,1.57-3.09,2.05
			s-2.54,0.71-4.01,0.71c-1.48,0-2.82-0.24-4.03-0.71c-1.21-0.48-2.24-1.16-3.1-2.05c-0.86-0.89-1.52-1.96-1.99-3.22
			c-0.47-1.26-0.7-2.68-0.7-4.25c0-1.56,0.23-2.97,0.7-4.23c0.47-1.26,1.13-2.33,1.99-3.2c0.86-0.87,1.89-1.55,3.1-2.03
			C460.9,99.43,462.25,99.19,463.73,99.19z M463.73,115.93c1.65,0,2.87-0.55,3.66-1.66c0.79-1.11,1.19-2.73,1.19-4.86
			c0-2.14-0.4-3.76-1.19-4.88c-0.79-1.12-2.01-1.68-3.66-1.68c-1.67,0-2.91,0.56-3.72,1.69c-0.8,1.13-1.21,2.75-1.21,4.87
			s0.4,3.74,1.21,4.85C460.82,115.37,462.05,115.93,463.73,115.93z"/>
		<path class="st1" d="M481.19,90.62v28.68h-4.77V90.62H481.19z"/>
		<path class="st1" d="M493.95,99.19c1.47,0,2.8,0.24,4.01,0.71c1.2,0.48,2.23,1.15,3.09,2.03c0.86,0.88,1.52,1.94,1.98,3.2
			c0.46,1.26,0.69,2.67,0.69,4.23c0,1.57-0.23,2.99-0.69,4.25c-0.46,1.26-1.12,2.34-1.98,3.22c-0.86,0.89-1.89,1.57-3.09,2.05
			s-2.54,0.71-4.01,0.71c-1.48,0-2.82-0.24-4.03-0.71c-1.21-0.48-2.24-1.16-3.1-2.05c-0.86-0.89-1.52-1.96-1.99-3.22
			c-0.47-1.26-0.7-2.68-0.7-4.25c0-1.56,0.23-2.97,0.7-4.23c0.47-1.26,1.13-2.33,1.99-3.2c0.86-0.87,1.89-1.55,3.1-2.03
			C491.13,99.43,492.47,99.19,493.95,99.19z M493.95,115.93c1.65,0,2.87-0.55,3.66-1.66c0.79-1.11,1.19-2.73,1.19-4.86
			c0-2.14-0.4-3.76-1.19-4.88c-0.79-1.12-2.01-1.68-3.66-1.68c-1.67,0-2.91,0.56-3.72,1.69c-0.8,1.13-1.21,2.75-1.21,4.87
			s0.4,3.74,1.21,4.85C491.04,115.37,492.28,115.93,493.95,115.93z"/>
		<path class="st1" d="M518.68,103.36c-0.13,0.21-0.26,0.35-0.41,0.43c-0.14,0.08-0.32,0.13-0.54,0.13c-0.23,0-0.48-0.06-0.74-0.19
			s-0.57-0.27-0.92-0.43c-0.35-0.16-0.74-0.31-1.19-0.43c-0.44-0.13-0.97-0.19-1.57-0.19c-0.94,0-1.68,0.2-2.21,0.6
			c-0.53,0.4-0.8,0.92-0.8,1.56c0,0.42,0.14,0.78,0.42,1.07c0.28,0.29,0.64,0.54,1.1,0.76c0.46,0.22,0.97,0.42,1.55,0.59
			c0.58,0.17,1.17,0.36,1.77,0.57c0.6,0.21,1.19,0.44,1.77,0.7s1.1,0.6,1.55,1c0.46,0.41,0.82,0.89,1.1,1.46
			c0.28,0.57,0.41,1.25,0.41,2.05c0,0.95-0.17,1.83-0.51,2.63c-0.34,0.8-0.85,1.5-1.52,2.08c-0.67,0.59-1.5,1.04-2.48,1.37
			c-0.98,0.33-2.12,0.49-3.41,0.49c-0.68,0-1.35-0.06-2-0.18c-0.65-0.12-1.27-0.29-1.87-0.51c-0.6-0.22-1.15-0.48-1.66-0.77
			c-0.51-0.3-0.96-0.62-1.34-0.96l1.1-1.81c0.14-0.22,0.31-0.39,0.5-0.5c0.19-0.12,0.44-0.17,0.73-0.17c0.3,0,0.58,0.08,0.84,0.25
			c0.26,0.17,0.57,0.35,0.92,0.54c0.35,0.19,0.76,0.37,1.23,0.54c0.47,0.17,1.06,0.25,1.79,0.25c0.57,0,1.05-0.07,1.46-0.2
			c0.41-0.14,0.74-0.31,1-0.53c0.26-0.22,0.46-0.47,0.58-0.76c0.12-0.29,0.18-0.59,0.18-0.9c0-0.46-0.14-0.84-0.41-1.14
			c-0.28-0.3-0.64-0.55-1.1-0.77c-0.46-0.22-0.98-0.41-1.56-0.59c-0.59-0.17-1.18-0.36-1.8-0.57c-0.61-0.21-1.21-0.45-1.8-0.72
			c-0.59-0.28-1.11-0.63-1.56-1.05c-0.46-0.42-0.82-0.95-1.1-1.56c-0.28-0.62-0.41-1.36-0.41-2.24c0-0.81,0.16-1.58,0.48-2.32
			c0.32-0.73,0.79-1.37,1.42-1.92c0.62-0.55,1.4-0.98,2.34-1.31c0.93-0.33,2.01-0.49,3.23-0.49c1.36,0,2.61,0.23,3.73,0.68
			c1.12,0.45,2.05,1.04,2.8,1.78L518.68,103.36z"/>
		<path class="st1" d="M526.46,110c0.08,1.02,0.26,1.9,0.54,2.63c0.28,0.74,0.66,1.35,1.12,1.83c0.46,0.48,1.01,0.84,1.65,1.08
			c0.64,0.24,1.34,0.36,2.11,0.36s1.44-0.09,2-0.27c0.56-0.18,1.05-0.38,1.47-0.6c0.42-0.22,0.78-0.42,1.1-0.6
			c0.32-0.18,0.62-0.27,0.92-0.27c0.4,0,0.7,0.15,0.89,0.44l1.37,1.74c-0.53,0.62-1.12,1.14-1.78,1.55c-0.66,0.42-1.34,0.75-2.06,1
			c-0.71,0.25-1.44,0.43-2.18,0.53s-1.46,0.15-2.15,0.15c-1.38,0-2.66-0.23-3.84-0.69c-1.18-0.46-2.21-1.13-3.09-2.03
			c-0.88-0.89-1.56-2-2.07-3.32c-0.5-1.32-0.75-2.85-0.75-4.58c0-1.35,0.22-2.62,0.66-3.81c0.44-1.19,1.06-2.23,1.88-3.11
			c0.82-0.88,1.81-1.58,2.99-2.09c1.18-0.51,2.51-0.77,3.99-0.77c1.25,0,2.4,0.2,3.45,0.6s1.96,0.98,2.72,1.75
			c0.76,0.77,1.35,1.71,1.79,2.82c0.43,1.11,0.65,2.38,0.65,3.81c0,0.72-0.08,1.21-0.23,1.46c-0.15,0.25-0.45,0.38-0.89,0.38H526.46
			z M535.55,107.13c0-0.62-0.09-1.2-0.26-1.75c-0.17-0.55-0.43-1.03-0.78-1.44c-0.35-0.41-0.79-0.74-1.32-0.97s-1.15-0.36-1.86-0.36
			c-1.38,0-2.46,0.39-3.25,1.18c-0.79,0.78-1.3,1.9-1.52,3.34H535.55z"/>
		<path class="st1" d="M556.82,103.69c-0.14,0.18-0.28,0.32-0.41,0.42c-0.14,0.1-0.33,0.15-0.59,0.15c-0.24,0-0.48-0.07-0.71-0.22
			c-0.23-0.15-0.51-0.32-0.83-0.5c-0.32-0.19-0.7-0.35-1.15-0.5c-0.44-0.15-0.99-0.22-1.65-0.22c-0.84,0-1.57,0.15-2.2,0.45
			c-0.63,0.3-1.15,0.74-1.57,1.3c-0.42,0.57-0.73,1.25-0.94,2.06c-0.21,0.8-0.31,1.71-0.31,2.73c0,1.06,0.11,1.99,0.34,2.82
			c0.22,0.82,0.55,1.52,0.97,2.07c0.42,0.56,0.94,0.98,1.54,1.27c0.6,0.29,1.29,0.43,2.05,0.43s1.37-0.09,1.84-0.28
			c0.47-0.19,0.87-0.39,1.19-0.62c0.32-0.22,0.6-0.43,0.84-0.62c0.24-0.19,0.5-0.28,0.8-0.28c0.39,0,0.68,0.15,0.87,0.44l1.37,1.74
			c-0.53,0.62-1.1,1.14-1.72,1.55c-0.62,0.42-1.26,0.75-1.92,1c-0.66,0.25-1.34,0.43-2.05,0.53c-0.7,0.1-1.4,0.15-2.09,0.15
			c-1.22,0-2.37-0.23-3.45-0.69c-1.08-0.46-2.03-1.12-2.84-2c-0.81-0.88-1.45-1.95-1.92-3.21c-0.47-1.27-0.7-2.71-0.7-4.33
			c0-1.45,0.21-2.8,0.63-4.04c0.42-1.24,1.03-2.32,1.84-3.22c0.81-0.91,1.81-1.62,3.01-2.13c1.2-0.51,2.57-0.77,4.13-0.77
			c1.48,0,2.78,0.24,3.89,0.71c1.11,0.48,2.11,1.16,3,2.05L556.82,103.69z"/>
	</g>
	<g>
		<path class="st1" d="M569.41,104.37v2.08h-9v-2.08h3.3v-9.49c0-0.38,0.01-0.76,0.03-1.16l-2.34,1.96c-0.14,0.11-0.27,0.17-0.4,0.2
			c-0.13,0.03-0.25,0.03-0.37,0.01c-0.12-0.02-0.22-0.06-0.31-0.12c-0.09-0.06-0.16-0.12-0.2-0.19l-0.88-1.2l4.96-4.22h2.28v14.21
			H569.41z"/>
	</g>
</g>
</svg>
