<?xml version="1.0" encoding="UTF-8" standalone="no"?>
<!-- Created with Keyshape -->
<svg xmlns="http://www.w3.org/2000/svg" id="Layer_1" viewBox="0 0 1366.2 743.4" style="white-space: preserve-spaces;">
    <path id="_a0" class="st0" d="M381.6,250.9C381.3,245.7,376,242.3,372.9,240.7L370.7,239.7L366.4,237.8C364.4,237,361.9,235.8,361.9,235.8C360.4,233.9,358.6,232.7,358.1,232.3L358.1,231.3L358.3,231.3C369.8,230.7,373.5,228.8,374.6,227.9L372.8,226.4C371.9,225.8,370.9,225.1,370,224L372.8,226.4C373.7,226.9,374.4,227.3,375,227.5L375,227.4C372.6,225.7,370.9,219.2,370.9,219.2C369.5,216,368.5,204.4,368.5,204.4C368.5,201.1,367.1,197.6,367.1,197.6C364.6,190.6,359,187.4,359,187.4C358.5,187.1,358.1,186.9,357.6,186.7C357.1,186.5,354.2,185.3,350.7,184.9C348.5,184.7,347,184.8,347,184.8C345.8,184.9,344.7,185.1,343.6,185.4C342,185.9,340.5,186.8,339.2,188.1C339.2,188.1,339.2,188.1,339.1,188.1C334.5,186.4,331.1,195.4,331.1,195.5C330.1,197.7,329.2,201.4,329.2,201.4L328.5,208.8C328,215.1,325.3,223,325.3,223C324.3,225.9,322.3,227.3,322.3,227.3C322.8,227.7,323.3,228.1,323.9,228.4C324.3,228.2,325.1,227.8,325.9,227.3L327.6,225.5C327.4,226.2,326.6,226.8,325.9,227.3L324.5,228.8C327.6,230.2,332,230.8,335.2,231.1C335.5,229.2,336.1,225.2,335.8,221.7C335.7,220.8,335.6,220.3,335.6,220.3C335.7,220.7,335.7,221.2,335.8,221.7C336.1,224,336.5,228.8,336.4,231.1C338.1,231.2,339.2,231.2,339.2,231.2L339.2,233.2C337.6,233.5,335.2,236.6,335.2,236.6C334.9,236.5,333.1,237.3,331.5,238C330.6,238.4,329.5,238.9,328.4,239.4C326.1,240.3,323.3,242,323.3,242C321.5,242.9,320.2,243.9,319.3,245C319,245.3,318.7,245.6,318.4,245.8C318.4,245.8,315.5,248.5,315.5,251.4L315.5,265.1L316,265.1L317,265.1L318,265.1L318.9,265.1L381.3,265.1C381.6,265.2,382,258.3,381.6,250.9" fill="#527398"/>
    <path id="_a1" class="st0" d="M456,250.9C455.7,245.7,450.4,242.3,447.3,240.7L445.1,239.7L440.8,237.8C438.8,237,436.3,235.8,436.3,235.8C434.8,233.9,433,232.7,432.5,232.3L432.5,231.3L432.7,231.3C444.2,230.7,447.9,228.8,449,227.9L447.2,226.4C446.3,225.8,445.3,225.1,444.4,224L447.2,226.4C448.1,226.9,448.8,227.3,449.4,227.5L449.4,227.4C447,225.7,445.3,219.2,445.3,219.2C443.9,216,442.9,204.4,442.9,204.4C442.9,201.1,441.5,197.6,441.5,197.6C439,190.6,433.4,187.4,433.4,187.4C432.9,187.1,432.5,186.9,432,186.7C431.5,186.5,428.6,185.3,425.1,184.9C422.9,184.7,421.4,184.8,421.4,184.8C420.2,184.9,419.1,185.1,418,185.4C416.4,185.9,414.9,186.8,413.6,188.1C413.6,188.1,413.6,188.1,413.5,188.1C408.9,186.4,405.5,195.4,405.5,195.5C404.5,197.7,403.6,201.4,403.6,201.4L403,209C402.5,215.3,399.8,223.2,399.8,223.2C398.8,226.1,396.8,227.5,396.8,227.5C397.3,227.9,397.8,228.3,398.4,228.6C398.8,228.4,399.6,228,400.4,227.5L402.1,225.7C401.9,226.4,401.1,227,400.4,227.5L399,229C402.1,230.4,406.5,231,409.7,231.3C410,229.4,410.6,225.4,410.3,221.9C410.2,221,410.1,220.5,410.1,220.5C410.2,220.9,410.2,221.4,410.3,221.9C410.6,224.2,411,229,410.9,231.3C412.6,231.4,413.7,231.4,413.7,231.4L413.7,233.4C412.1,233.7,409.7,236.8,409.7,236.8C409.4,236.7,407.6,237.5,406,238.2C405.1,238.6,404,239.1,402.9,239.6C400.6,240.5,397.8,242.2,397.8,242.2C396,243.1,394.7,244.1,393.8,245.2C393.5,245.5,393.2,245.8,392.9,246C392.9,246,390,248.7,390,251.6L390,265.3L390.5,265.3L391.5,265.3L392.4,265.3L393.4,265.3L456,265.3C456,265.2,456.4,258.3,456,250.9" fill="#527398"/>
    <path id="_a2" class="st0" d="M530.4,250.9C530.1,245.7,524.8,242.3,521.7,240.7L519.5,239.7L515.2,237.8C513.2,237,510.7,235.8,510.7,235.8C509.2,233.9,507.4,232.7,506.9,232.3L506.9,231.3L507.1,231.3C518.6,230.7,522.3,228.8,523.4,227.9L521.6,226.4C520.7,225.8,519.7,225.1,518.8,224L521.6,226.4C522.4,226.9,523.2,227.3,523.8,227.5L523.8,227.4C521.4,225.7,519.7,219.2,519.7,219.2C518.3,216,517.3,204.4,517.3,204.4C517.3,201.1,515.9,197.6,515.9,197.6C513.4,190.6,507.8,187.4,507.8,187.4C507.3,187.1,506.9,186.9,506.4,186.7C505.9,186.5,503,185.3,499.5,184.9C497.3,184.7,495.8,184.8,495.8,184.8C494.6,184.9,493.5,185.1,492.4,185.4C490.8,185.9,489.3,186.8,488,188.1C488,188.1,488,188.1,487.9,188.1C483.3,186.4,479.9,195.4,479.9,195.5C478.9,197.7,478,201.4,478,201.4L477.3,208.8C476.8,215.1,474.1,223,474.1,223C473.1,225.9,471.1,227.3,471.1,227.3C471.6,227.7,472.1,228.1,472.7,228.4C473.1,228.2,473.9,227.8,474.7,227.3L476.4,225.5C476.2,226.2,475.4,226.8,474.7,227.3L473.3,228.8C476.4,230.2,480.8,230.8,484,231.1C484.3,229.2,484.9,225.2,484.6,221.7C484.5,220.8,484.4,220.3,484.4,220.3C484.5,220.7,484.5,221.2,484.6,221.7C484.9,224,485.3,228.8,485.2,231.1C486.9,231.2,488,231.2,488,231.2L488,233.2C486.4,233.5,484,236.6,484,236.6C483.7,236.5,481.9,237.3,480.3,238C479.4,238.4,478.3,238.9,477.2,239.4C474.9,240.3,472.1,242,472.1,242C470.3,242.9,469,243.9,468.1,245C467.8,245.3,467.5,245.6,467.2,245.8C467.2,245.8,464.3,248.5,464.3,251.4L464.3,265.1L464.8,265.1L465.8,265.1L466.8,265.1L467.7,265.1L530.1,265.1C530.4,265.2,530.8,258.3,530.4,250.9" fill="#527398"/>
    <path id="_a3" class="st0" d="M604.8,250.9C604.5,245.7,599.2,242.3,596.1,240.7L593.9,239.7L589.6,237.8C587.6,237,585.1,235.8,585.1,235.8C583.6,233.9,581.8,232.7,581.3,232.3L581.3,231.3L581.5,231.3C593,230.7,596.7,228.8,597.8,227.9L596,226.4C595.1,225.8,594.1,225.1,593.2,224L596,226.4C596.8,226.9,597.6,227.3,598.2,227.5L598.2,227.4C595.8,225.7,594.1,219.2,594.1,219.2C592.7,216,591.7,204.4,591.7,204.4C591.7,201.1,590.3,197.6,590.3,197.6C587.8,190.6,582.2,187.4,582.2,187.4C581.7,187.1,581.3,186.9,580.8,186.7C580.3,186.5,577.4,185.3,573.9,184.9C571.7,184.7,570.2,184.8,570.2,184.8C569,184.9,567.9,185.1,566.8,185.4C565.2,185.9,563.7,186.8,562.4,188.1C562.4,188.1,562.4,188.1,562.3,188.1C557.7,186.4,554.3,195.4,554.3,195.5C553.3,197.7,552.4,201.4,552.4,201.4L551.7,208.8C551.2,215.1,548.5,223,548.5,223C547.5,225.9,545.5,227.3,545.5,227.3C546,227.7,546.5,228.1,547.1,228.4C547.5,228.2,548.3,227.8,549.1,227.3L550.8,225.5C550.6,226.2,549.8,226.8,549.1,227.3L547.7,228.8C550.8,230.2,555.2,230.8,558.4,231.1C558.7,229.2,559.3,225.2,559,221.7C558.9,220.8,558.8,220.3,558.8,220.3C558.9,220.7,558.9,221.2,559,221.7C559.3,224,559.7,228.8,559.7,231.1C561.4,231.2,562.5,231.2,562.5,231.2L562.5,233.2C560.9,233.5,558.5,236.6,558.5,236.6C558.2,236.5,556.4,237.3,554.8,238C553.9,238.4,552.8,238.9,551.7,239.4C549.4,240.3,546.6,242,546.6,242C544.8,242.9,543.5,243.9,542.6,245C542.3,245.3,542,245.6,541.7,245.8C541.7,245.8,538.8,248.5,538.8,251.4L538.8,265.1L539.3,265.1L540.3,265.1L541.2,265.1L542.2,265.1L604.6,265.1C604.8,265.2,605.2,258.3,604.8,250.9" fill="#527398"/>
    <path id="_a4" class="st0" d="M679.2,250.9C678.9,245.7,673.6,242.3,670.5,240.7L668.3,239.7L664,237.8C662,237,659.5,235.8,659.5,235.8C658,233.9,656.2,232.7,655.7,232.3L655.7,231.3L655.9,231.3C667.4,230.7,671.1,228.8,672.2,227.9L670.4,226.4C669.5,225.8,668.5,225.1,667.6,224L670.4,226.4C671.2,226.9,672,227.3,672.6,227.5L672.6,227.4C670.2,225.7,668.5,219.2,668.5,219.2C667.1,216,666.1,204.4,666.1,204.4C666.1,201.1,664.7,197.6,664.7,197.6C662.2,190.6,656.6,187.4,656.6,187.4C656.1,187.1,655.7,186.9,655.2,186.7C654.7,186.5,651.8,185.3,648.3,184.9C646.1,184.7,644.6,184.8,644.6,184.8C643.4,184.9,642.3,185.1,641.2,185.4C639.6,185.9,638.1,186.8,636.8,188.1C636.8,188.1,636.8,188.1,636.7,188.1C632.1,186.4,628.7,195.4,628.7,195.5C627.7,197.7,626.8,201.4,626.8,201.4L626.1,208.8C625.6,215.1,622.9,223,622.9,223C621.9,225.9,619.9,227.3,619.9,227.3C620.4,227.7,620.9,228.1,621.5,228.4C621.9,228.2,622.7,227.8,623.5,227.3L625.2,225.5C625,226.2,624.2,226.8,623.5,227.3L622.1,228.8C625.2,230.2,629.6,230.8,632.8,231.1C633.1,229.2,633.7,225.2,633.4,221.7C633.3,220.8,633.2,220.3,633.2,220.3C633.3,220.7,633.3,221.2,633.4,221.7C633.7,224,634.1,228.8,634.1,231.1C635.8,231.2,636.9,231.2,636.9,231.2L636.9,233.2C635.3,233.5,632.9,236.6,632.9,236.6C632.6,236.5,630.8,237.3,629.2,238C628.3,238.4,627.2,238.9,626.1,239.4C623.8,240.3,621,242,621,242C619.2,242.9,617.9,243.9,617,245C616.7,245.3,616.4,245.6,616.1,245.8C616.1,245.8,613.2,248.5,613.2,251.4L613.2,265.1L613.7,265.1L614.7,265.1L615.7,265.1L616.6,265.1L679,265.1C679.2,265.2,679.5,258.3,679.2,250.9" fill="#527398"/>
    <path id="_a5" class="st0" d="M753.5,250.9C753.2,245.7,747.9,242.3,744.8,240.7L742.6,239.7L738.3,237.8C736.3,237,733.8,235.8,733.8,235.8C732.3,233.9,730.5,232.7,730,232.3L730,231.3L730.2,231.3C741.7,230.7,745.4,228.8,746.5,227.9L744.7,226.4C743.8,225.8,742.8,225.1,741.9,224L744.7,226.4C745.5,226.9,746.3,227.3,746.9,227.5L746.9,227.4C744.5,225.7,742.8,219.2,742.8,219.2C741.4,216,740.4,204.4,740.4,204.4C740.4,201.1,739,197.6,739,197.6C736.5,190.6,730.9,187.4,730.9,187.4C730.4,187.1,730,186.9,729.5,186.7C729,186.5,726.1,185.3,722.6,184.9C720.4,184.7,718.9,184.8,718.9,184.8C717.7,184.9,716.6,185.1,715.5,185.4C713.9,185.9,712.4,186.8,711.1,188.1C711.1,188.1,711.1,188.1,711,188.1C706.4,186.4,703,195.4,703,195.5C702,197.7,701.1,201.4,701.1,201.4L700.4,208.8C699.9,215.1,697.2,223,697.2,223C696.2,225.9,694.2,227.3,694.2,227.3C694.7,227.7,695.2,228.1,695.8,228.4C696.2,228.2,697,227.8,697.8,227.3L699.5,225.5C699.3,226.2,698.5,226.8,697.8,227.3L696.4,228.8C699.5,230.2,703.9,230.8,707.1,231.1C707.4,229.2,708,225.2,707.7,221.7C707.6,220.8,707.5,220.3,707.5,220.3C707.6,220.7,707.6,221.2,707.7,221.7C708,224,708.4,228.8,708.4,231.1C710.1,231.2,711.2,231.2,711.2,231.2L711.2,233.2C709.6,233.5,707.2,236.6,707.2,236.6C706.9,236.5,705.1,237.3,703.5,238C702.6,238.4,701.5,238.9,700.4,239.4C698.1,240.3,695.3,242,695.3,242C693.5,242.9,692.2,243.9,691.3,245C691,245.3,690.7,245.6,690.4,245.8C690.4,245.8,687.5,248.5,687.5,251.4L687.5,265.1L688,265.1L689,265.1L689.9,265.1L690.9,265.1L753.3,265.1C753.5,265.2,753.9,258.3,753.5,250.9" fill="#527398"/>
    <path id="_a6" class="st0" d="M827.9,250.9C827.6,245.7,822.3,242.3,819.2,240.7L817,239.7L812.7,237.8C810.7,237,808.2,235.8,808.2,235.8C806.7,233.9,804.9,232.7,804.4,232.3L804.4,231.3L804.6,231.3C816.1,230.7,819.8,228.8,820.9,227.9L819.1,226.4C818.2,225.8,817.2,225.1,816.3,224L819.1,226.4C819.9,226.9,820.7,227.3,821.3,227.5L821.3,227.4C818.9,225.7,817.2,219.2,817.2,219.2C815.8,216,814.8,204.4,814.8,204.4C814.8,201.1,813.4,197.6,813.4,197.6C810.9,190.6,805.3,187.4,805.3,187.4C804.8,187.1,804.4,186.9,803.9,186.7C803.4,186.5,800.5,185.3,797,184.9C794.8,184.7,793.3,184.8,793.3,184.8C792.1,184.9,791,185.1,789.9,185.4C788.3,185.9,786.8,186.8,785.5,188.1C785.5,188.1,785.5,188.1,785.4,188.1C780.8,186.4,777.4,195.4,777.4,195.5C776.4,197.7,775.5,201.4,775.5,201.4L774.8,208.8C774.3,215.1,771.6,223,771.6,223C770.6,225.9,768.6,227.3,768.6,227.3C769.1,227.7,769.6,228.1,770.2,228.4C770.6,228.2,771.4,227.8,772.2,227.3L773.9,225.5C773.7,226.2,772.9,226.8,772.2,227.3L770.8,228.8C773.9,230.2,778.3,230.8,781.5,231.1C781.8,229.2,782.4,225.2,782.1,221.7C782,220.8,781.9,220.3,781.9,220.3C782,220.7,782,221.2,782.1,221.7C782.4,224,782.8,228.8,782.8,231.1C784.5,231.2,785.6,231.2,785.6,231.2L785.6,233.2C784,233.5,781.6,236.6,781.6,236.6C781.3,236.5,779.5,237.3,777.9,238C777,238.4,775.9,238.9,774.8,239.4C772.5,240.3,769.7,242,769.7,242C767.9,242.9,766.6,243.9,765.7,245C765.4,245.3,765.1,245.6,764.8,245.8C764.8,245.8,761.9,248.5,761.9,251.4L761.9,265.1L762.4,265.1L763.4,265.1L764.4,265.1L765.3,265.1L827.7,265.1C827.9,265.2,828.3,258.3,827.9,250.9" fill="#527398"/>
    <path id="_a7" class="st0" d="M902.3,250.9C902,245.7,896.7,242.3,893.6,240.7L891.4,239.7L887.1,237.8C885.1,237,882.6,235.8,882.6,235.8C881.1,233.9,879.3,232.7,878.8,232.3L878.8,231.3L879,231.3C890.5,230.7,894.2,228.8,895.3,227.9L893.5,226.4C892.6,225.8,891.6,225.1,890.7,224L893.5,226.4C894.3,226.9,895.1,227.3,895.7,227.5L895.7,227.4C893.3,225.7,891.6,219.2,891.6,219.2C890.2,216,889.2,204.4,889.2,204.4C889.2,201.1,887.8,197.6,887.8,197.6C885.3,190.6,879.7,187.4,879.7,187.4C879.2,187.1,878.8,186.9,878.3,186.7C877.8,186.5,874.9,185.3,871.4,184.9C869.2,184.7,867.7,184.8,867.7,184.8C866.5,184.9,865.4,185.1,864.3,185.4C862.7,185.9,861.2,186.8,859.9,188.1C859.9,188.1,859.9,188.1,859.8,188.1C855.2,186.4,851.8,195.4,851.8,195.5C850.8,197.7,849.9,201.4,849.9,201.4L849.2,208.8C848.7,215.1,846,223,846,223C845,225.9,843,227.3,843,227.3C843.5,227.7,844,228.1,844.6,228.4C845,228.2,845.8,227.8,846.6,227.3L848.3,225.5C848.1,226.2,847.3,226.8,846.6,227.3L845.2,228.8C848.3,230.2,852.7,230.8,855.9,231.1C856.2,229.2,856.8,225.2,856.5,221.7C856.4,220.8,856.3,220.3,856.3,220.3C856.4,220.7,856.4,221.2,856.5,221.7C856.8,224,857.2,228.8,857.2,231.1C858.9,231.2,860,231.2,860,231.2L860,233.2C858.4,233.5,856,236.6,856,236.6C855.7,236.5,853.9,237.3,852.3,238C851.4,238.4,850.3,238.9,849.2,239.4C846.9,240.3,844.1,242,844.1,242C842.3,242.9,841,243.9,840.1,245C839.8,245.3,839.5,245.6,839.2,245.8C839.2,245.8,836.3,248.5,836.3,251.4L836.3,265.1L836.8,265.1L837.9,265.1L838.9,265.1L839.8,265.1L902.2,265.1C902.3,265.2,902.7,258.3,902.3,250.9" fill="#527398"/>
    <path id="_a8" class="st0" d="M976.7,250.9C976.4,245.7,971.1,242.3,968,240.7L965.8,239.7L961.5,237.8C959.5,237,957,235.8,957,235.8C955.5,233.9,953.7,232.7,953.2,232.3L953.2,231.3L953.4,231.3C964.9,230.7,968.6,228.8,969.7,227.9L967.9,226.4C967,225.8,966,225.1,965.1,224L967.9,226.4C968.7,226.9,969.5,227.3,970.1,227.5L970.1,227.4C967.7,225.7,966,219.2,966,219.2C964.6,216,963.6,204.4,963.6,204.4C963.6,201.1,962.2,197.6,962.2,197.6C959.7,190.6,954.1,187.4,954.1,187.4C953.6,187.1,953.2,186.9,952.7,186.7C952.2,186.5,949.3,185.3,945.8,184.9C943.6,184.7,942.1,184.8,942.1,184.8C940.9,184.9,939.8,185.1,938.7,185.4C937.1,185.9,935.6,186.8,934.3,188.1C934.3,188.1,934.3,188.1,934.2,188.1C929.6,186.4,926.2,195.4,926.2,195.5C925.2,197.7,924.3,201.4,924.3,201.4L923.6,208.8C923.1,215.1,920.4,223,920.4,223C919.4,225.9,917.4,227.3,917.4,227.3C917.9,227.7,918.4,228.1,919,228.4C919.4,228.2,920.2,227.8,921,227.3L922.7,225.5C922.5,226.2,921.7,226.8,921,227.3L919.6,228.8C922.7,230.2,927.1,230.8,930.3,231.1C930.6,229.2,931.2,225.2,930.9,221.7C930.8,220.8,930.7,220.3,930.7,220.3C930.8,220.7,930.8,221.2,930.9,221.7C931.2,224,931.6,228.8,931.6,231.1C933.3,231.2,934.4,231.2,934.4,231.2L934.4,233.2C932.8,233.5,930.4,236.6,930.4,236.6C930.1,236.5,928.3,237.3,926.7,238C925.8,238.4,924.7,238.9,923.6,239.4C921.3,240.3,918.5,242,918.5,242C916.7,242.9,915.4,243.9,914.5,245C914.2,245.3,913.9,245.6,913.6,245.8C913.6,245.8,910.7,248.5,910.7,251.4L910.7,265.1L911.2,265.1L912.2,265.1L913.2,265.1L914.1,265.1L976.5,265.1C976.7,265.2,977.1,258.3,976.7,250.9" fill="#527398"/>
    <path class="st1" d="M1051.1,250.9C1050.8,245.7,1045.5,242.3,1042.4,240.7L1040.2,239.7L1035.9,237.8C1033.9,237,1031.3,235.8,1031.3,235.8C1029.8,233.9,1028,232.7,1027.5,232.3L1027.5,231.3L1027.7,231.3C1039.3,230.7,1042.9,228.8,1044,227.9L1042.2,226.4C1041.3,225.8,1040.3,225.1,1039.4,224L1042.2,226.4C1043,226.9,1043.8,227.3,1044.4,227.5L1044.4,227.4C1042,225.7,1040.3,219.2,1040.3,219.2C1038.9,216,1037.9,204.4,1037.9,204.4C1037.9,201.1,1036.5,197.6,1036.5,197.6C1034,190.6,1028.4,187.4,1028.4,187.4C1027.9,187.1,1027.5,186.9,1027,186.7C1026.5,186.5,1023.6,185.3,1020.1,184.9C1017.9,184.7,1016.4,184.8,1016.4,184.8C1015.2,184.9,1014.1,185.1,1013,185.4C1011.4,185.9,1009.9,186.8,1008.6,188.1C1008.6,188.1,1008.6,188.1,1008.5,188.1C1003.9,186.4,1000.5,195.4,1000.5,195.5C999.5,197.7,998.6,201.4,998.6,201.4L997.9,208.8C997.4,215.1,994.7,223,994.7,223C993.7,225.9,991.7,227.3,991.7,227.3C992.2,227.7,992.7,228.1,993.3,228.4C993.7,228.2,994.5,227.8,995.3,227.3L997,225.5C996.8,226.2,996,226.8,995.3,227.3L993.9,228.8C997,230.2,1001.4,230.8,1004.6,231.1C1004.9,229.2,1005.5,225.2,1005.2,221.7C1005.1,220.8,1005,220.3,1005,220.3C1005.1,220.7,1005.1,221.2,1005.2,221.7C1005.5,224,1005.9,228.8,1005.9,231.1C1007.6,231.2,1008.7,231.2,1008.7,231.2L1008.7,233.2C1007.1,233.5,1004.7,236.6,1004.7,236.6C1004.4,236.5,1002.6,237.3,1001,238C1000.1,238.4,999,238.9,997.9,239.4C995.6,240.3,992.8,242,992.8,242C991,242.9,989.7,243.9,988.8,245C988.5,245.3,988.2,245.6,987.9,245.8C987.9,245.8,985,248.5,985,251.4L985,265.1L985.5,265.1L986.5,265.1L987.5,265.1L988.4,265.1L1050.8,265.1C1051.1,265.2,1051.5,258.3,1051.1,250.9" fill="#527398"/>
    <path id="_a9" class="st0" d="M381.9,481.3C381.6,476.1,376.3,472.7,373.2,471.1L371,470.1L366.7,468.2C364.7,467.4,362.2,466.2,362.2,466.2C360.7,464.3,358.9,463.1,358.4,462.7L358.4,461.7L358.6,461.7C370.1,461.1,373.8,459.2,374.9,458.3L373.1,456.8C372.2,456.2,371.2,455.5,370.3,454.4L373.1,456.8C374,457.3,374.7,457.7,375.3,457.9L375.3,457.9C372.9,456.2,371.2,449.7,371.2,449.7C369.8,446.5,368.8,434.9,368.8,434.9C368.8,431.6,367.4,428.1,367.4,428.1C364.9,421.1,359.3,417.9,359.3,417.9C358.8,417.6,358.4,417.4,357.9,417.2C357.4,417,354.5,415.8,351,415.4C348.8,415.2,347.3,415.4,347.3,415.4C346.1,415.5,345,415.7,343.9,416C342.3,416.5,340.8,417.4,339.5,418.7C339.5,418.7,339.5,418.7,339.4,418.7C334.8,417,331.4,426,331.4,426.1C330.4,428.3,329.5,432,329.5,432L328.8,439.4C328.3,445.7,325.6,453.6,325.6,453.6C324.6,456.5,322.6,457.9,322.6,457.9C323.1,458.3,323.6,458.7,324.2,459C324.6,458.8,325.4,458.4,326.2,457.9L327.9,456.1C327.7,456.8,326.9,457.4,326.2,457.9L324.8,459.4C327.9,460.8,332.3,461.4,335.5,461.7C335.8,459.7,336.4,455.8,336.1,452.3C336,451.4,335.9,450.9,335.9,450.9C336,451.4,336,451.8,336.1,452.3C336.4,454.6,336.8,459.4,336.7,461.7C338.4,461.8,339.5,461.8,339.5,461.8L339.5,463.8C337.9,464.1,335.5,467.2,335.5,467.2C335.2,467.2,333.4,467.9,331.8,468.6C330.9,469,329.8,469.5,328.7,470C326.4,470.9,323.6,472.6,323.6,472.6C321.8,473.5,320.5,474.5,319.6,475.6C319.3,475.9,319,476.2,318.7,476.4C318.7,476.4,315.8,479.1,315.8,482L315.8,495.7L316.3,495.7L317.3,495.7L318.3,495.7L319.2,495.7L381.6,495.7C381.9,495.5,382.3,488.6,381.9,481.3" fill="#527398"/>
    <path id="_a10" class="st0" d="M456.3,481.3C456,476.1,450.7,472.7,447.6,471.1L445.4,470.1L441.1,468.2C439.1,467.4,436.6,466.2,436.6,466.2C435.1,464.3,433.3,463.1,432.8,462.7L432.8,461.7L433,461.7C444.5,461.1,448.2,459.2,449.3,458.3L447.5,456.8C446.6,456.2,445.6,455.5,444.7,454.4L447.5,456.8C448.4,457.3,449.1,457.7,449.7,457.9L449.7,457.9C447.3,456.2,445.6,449.7,445.6,449.7C444.2,446.5,443.2,434.9,443.2,434.9C443.2,431.6,441.8,428.1,441.8,428.1C439.3,421.1,433.7,417.9,433.7,417.9C433.2,417.6,432.8,417.4,432.3,417.2C431.8,417,428.9,415.8,425.4,415.4C423.2,415.2,421.7,415.4,421.7,415.4C420.5,415.5,419.4,415.7,418.3,416C416.7,416.5,415.2,417.4,413.9,418.7C413.9,418.7,413.9,418.7,413.8,418.7C409.2,417,405.8,426,405.8,426.1C404.8,428.3,403.9,432,403.9,432L403.2,439.4C402.7,445.7,400,453.6,400,453.6C399,456.5,397,457.9,397,457.9C397.5,458.3,398,458.7,398.6,459C399,458.8,399.8,458.4,400.6,457.9L402.3,456.1C402.1,456.8,401.3,457.4,400.6,457.9L399.2,459.4C402.3,460.8,406.7,461.4,409.9,461.7C410.2,459.7,410.8,455.8,410.5,452.3C410.4,451.4,410.3,450.9,410.3,450.9C410.4,451.4,410.4,451.8,410.5,452.3C410.8,454.6,411.2,459.4,411.1,461.7C412.8,461.8,413.9,461.8,413.9,461.8L413.9,463.8C412.3,464.1,409.9,467.2,409.9,467.2C409.6,467.2,407.8,467.9,406.2,468.6C405.3,469,404.2,469.5,403.1,470C400.8,470.9,398,472.6,398,472.6C396.2,473.5,394.9,474.5,394,475.6C393.7,475.9,393.4,476.2,393.1,476.4C393.1,476.4,390.2,479.1,390.2,482L390.2,495.7L390.7,495.7L391.7,495.7L392.6,495.7L393.6,495.7L456,495.7C456.3,495.5,456.7,488.6,456.3,481.3" fill="#527398"/>
    <path id="_a11" class="st0" d="M530.7,481.3C530.4,476.1,525.1,472.7,522,471.1L519.8,470.1L515.5,468.2C513.5,467.4,511,466.2,511,466.2C509.5,464.3,507.7,463.1,507.2,462.7L507.2,461.7L507.4,461.7C518.9,461.1,522.6,459.2,523.7,458.3L521.9,456.8C521,456.2,520,455.5,519.1,454.4L521.9,456.8C522.7,457.3,523.5,457.7,524.1,457.9L524.1,457.9C521.7,456.2,520,449.7,520,449.7C518.6,446.5,517.6,434.9,517.6,434.9C517.6,431.6,516.2,428.1,516.2,428.1C513.7,421.1,508.1,417.9,508.1,417.9C507.6,417.6,507.2,417.4,506.7,417.2C506.2,417,503.3,415.8,499.8,415.4C497.6,415.2,496.1,415.4,496.1,415.4C494.9,415.5,493.8,415.7,492.7,416C491.1,416.5,489.6,417.4,488.3,418.7C488.3,418.7,488.3,418.7,488.2,418.7C483.6,417,480.2,426,480.2,426.1C479.2,428.3,478.3,432,478.3,432L477.6,439.4C477.1,445.7,474.4,453.6,474.4,453.6C473.4,456.5,471.4,457.9,471.4,457.9C471.9,458.3,472.4,458.7,473,459C473.4,458.8,474.2,458.4,475,457.9L476.7,456.1C476.5,456.8,475.7,457.4,475,457.9L473.6,459.4C476.7,460.8,481.1,461.4,484.3,461.7C484.6,459.7,485.2,455.8,484.9,452.3C484.8,451.4,484.7,450.9,484.7,450.9C484.8,451.4,484.8,451.8,484.9,452.3C485.2,454.6,485.6,459.4,485.5,461.7C487.2,461.8,488.3,461.8,488.3,461.8L488.3,463.8C486.7,464.1,484.3,467.2,484.3,467.2C484,467.2,482.2,467.9,480.6,468.6C479.7,469,478.6,469.5,477.5,470C475.2,470.9,472.4,472.6,472.4,472.6C470.6,473.5,469.3,474.5,468.4,475.6C468.1,475.9,467.8,476.2,467.5,476.4C467.5,476.4,464.6,479.1,464.6,482L464.6,495.7L465.1,495.7L466.1,495.7L467.1,495.7L468,495.7L530.4,495.7C530.7,495.5,531.1,488.6,530.7,481.3" fill="#527398"/>
    <path id="_a12" class="st0" d="M605.1,481.3C604.8,476.1,599.5,472.7,596.4,471.1L594.2,470.1L589.9,468.2C587.9,467.4,585.4,466.2,585.4,466.2C583.9,464.3,582.1,463.1,581.6,462.7L581.6,461.7L581.8,461.7C593.3,461.1,597,459.2,598.1,458.3L596.3,456.8C595.4,456.2,594.4,455.5,593.5,454.4L596.3,456.8C597.1,457.3,597.9,457.7,598.5,457.9L598.5,457.9C596.1,456.2,594.4,449.7,594.4,449.7C593,446.5,592,434.9,592,434.9C592,431.6,590.6,428.1,590.6,428.1C588.1,421.1,582.5,417.9,582.5,417.9C582,417.6,581.6,417.4,581.1,417.2C580.6,417,577.7,415.8,574.2,415.4C572,415.2,570.5,415.4,570.5,415.4C569.3,415.5,568.2,415.7,567.1,416C565.5,416.5,564,417.4,562.7,418.7C562.7,418.7,562.7,418.7,562.6,418.7C558,417,554.6,426,554.6,426.1C553.6,428.3,552.7,432,552.7,432L552,439.4C551.5,445.7,548.8,453.6,548.8,453.6C547.8,456.5,545.8,457.9,545.8,457.9C546.3,458.3,546.8,458.7,547.4,459C547.8,458.8,548.6,458.4,549.4,457.9L551.1,456.1C550.9,456.8,550.1,457.4,549.4,457.9L548,459.4C551.1,460.8,555.5,461.4,558.7,461.7C559,459.7,559.6,455.8,559.3,452.3C559.2,451.4,559.1,450.9,559.1,450.9C559.2,451.4,559.2,451.8,559.3,452.3C559.6,454.6,560,459.4,560,461.7C561.7,461.8,562.8,461.8,562.8,461.8L562.8,463.8C561.2,464.1,558.8,467.2,558.8,467.2C558.5,467.2,556.7,467.9,555.1,468.6C554.2,469,553.1,469.5,552,470C549.7,470.9,546.9,472.6,546.9,472.6C545.1,473.5,543.8,474.5,542.9,475.6C542.6,475.9,542.3,476.2,542,476.4C542,476.4,539.1,479.1,539.1,482L539.1,495.7L539.6,495.7L540.6,495.7L541.5,495.7L542.5,495.7L604.9,495.7C605.1,495.5,605.5,488.6,605.1,481.3" fill="#527398"/>
    <path id="_a13" class="st0" d="M679.5,481.3C679.2,476.1,673.9,472.7,670.8,471.1L668.6,470.1L664.3,468.2C662.3,467.4,659.8,466.2,659.8,466.2C658.3,464.3,656.5,463.1,656,462.7L656,461.7L656.2,461.7C667.7,461.1,671.4,459.2,672.5,458.3L670.7,456.8C669.8,456.2,668.8,455.5,667.9,454.4L670.7,456.8C671.5,457.3,672.3,457.7,672.9,457.9L672.9,457.9C670.5,456.2,668.8,449.7,668.8,449.7C667.4,446.5,666.4,434.9,666.4,434.9C666.4,431.6,665,428.1,665,428.1C662.5,421.1,656.9,417.9,656.9,417.9C656.4,417.6,656,417.4,655.5,417.2C655,417,652.1,415.8,648.6,415.4C646.4,415.2,644.9,415.4,644.9,415.4C643.7,415.5,642.6,415.7,641.5,416C639.9,416.5,638.4,417.4,637.1,418.7C637.1,418.7,637.1,418.7,637,418.7C632.4,417,629,426,629,426.1C628,428.3,627.1,432,627.1,432L626.4,439.4C625.9,445.7,623.2,453.6,623.2,453.6C622.2,456.5,620.2,457.9,620.2,457.9C620.7,458.3,621.2,458.7,621.8,459C622.2,458.8,623,458.4,623.8,457.9L625.5,456.1C625.3,456.8,624.5,457.4,623.8,457.9L622.4,459.4C625.5,460.8,629.9,461.4,633.1,461.7C633.4,459.7,634,455.8,633.7,452.3C633.6,451.4,633.5,450.9,633.5,450.9C633.6,451.4,633.6,451.8,633.7,452.3C634,454.6,634.4,459.4,634.4,461.7C636.1,461.8,637.2,461.8,637.2,461.8L637.2,463.8C635.6,464.1,633.2,467.2,633.2,467.2C632.9,467.2,631.1,467.9,629.5,468.6C628.6,469,627.5,469.5,626.4,470C624.1,470.9,621.3,472.6,621.3,472.6C619.5,473.5,618.2,474.5,617.3,475.6C617,475.9,616.7,476.2,616.4,476.4C616.4,476.4,613.5,479.1,613.5,482L613.5,495.7L614,495.7L615,495.7L616,495.7L616.9,495.7L679.3,495.7C679.5,495.5,679.9,488.6,679.5,481.3" fill="#527398"/>
    <path id="_a14" class="st0" d="M753.9,481.3C753.6,476.1,748.3,472.7,745.2,471.1L743,470.1L738.7,468.2C736.7,467.4,734.2,466.2,734.2,466.2C732.7,464.3,730.9,463.1,730.4,462.7L730.4,461.7L730.6,461.7C742.1,461.1,745.8,459.2,746.9,458.3L745.1,456.8C744.2,456.2,743.2,455.5,742.3,454.4L745.1,456.8C745.9,457.3,746.7,457.7,747.3,457.9L747.3,457.9C744.9,456.2,743.2,449.7,743.2,449.7C741.8,446.5,740.8,434.9,740.8,434.9C740.8,431.6,739.4,428.1,739.4,428.1C736.9,421.1,731.3,417.9,731.3,417.9C730.8,417.6,730.4,417.4,729.9,417.2C729.4,417,726.5,415.8,723,415.4C720.8,415.2,719.3,415.4,719.3,415.4C718.1,415.5,717,415.7,715.9,416C714.3,416.5,712.8,417.4,711.5,418.7C711.5,418.7,711.5,418.7,711.4,418.7C706.8,417,703.4,426,703.4,426.1C702.4,428.3,701.5,432,701.5,432L700.8,439.4C700.3,445.7,697.6,453.6,697.6,453.6C696.6,456.5,694.6,457.9,694.6,457.9C695.1,458.3,695.6,458.7,696.2,459C696.6,458.8,697.4,458.4,698.2,457.9L699.9,456.1C699.7,456.8,698.9,457.4,698.2,457.9L696.8,459.4C699.9,460.8,704.3,461.4,707.5,461.7C707.8,459.7,708.4,455.8,708.1,452.3C708,451.4,707.9,450.9,707.9,450.9C708,451.4,708,451.8,708.1,452.3C708.4,454.6,708.8,459.4,708.8,461.7C710.5,461.8,711.6,461.8,711.6,461.8L711.6,463.8C710,464.1,707.6,467.2,707.6,467.2C707.3,467.2,705.5,467.9,703.9,468.6C703,469,701.9,469.5,700.8,470C698.5,470.9,695.7,472.6,695.7,472.6C693.9,473.5,692.6,474.5,691.7,475.6C691.4,475.9,691.1,476.2,690.8,476.4C690.8,476.4,687.9,479.1,687.9,482L687.9,495.7L688.4,495.7L689.4,495.7L690.3,495.7L691.3,495.7L753.7,495.7C753.9,495.5,754.3,488.6,753.9,481.3" fill="#527398"/>
    <path id="_a15" class="st0" d="M828.3,481.3C828,476.1,822.7,472.7,819.6,471.1L817.4,470.1L813.1,468.2C811.1,467.4,808.6,466.2,808.6,466.2C807.1,464.3,805.3,463.1,804.8,462.7L804.8,461.7L805,461.7C816.5,461.1,820.2,459.2,821.3,458.3L819.5,456.8C818.6,456.2,817.6,455.5,816.7,454.4L819.5,456.8C820.3,457.3,821.1,457.7,821.7,457.9L821.7,457.9C819.3,456.2,817.6,449.7,817.6,449.7C816.2,446.5,815.2,434.9,815.2,434.9C815.2,431.6,813.8,428.1,813.8,428.1C811.3,421.1,805.7,417.9,805.7,417.9C805.2,417.6,804.8,417.4,804.3,417.2C803.8,417,800.9,415.8,797.4,415.4C795.2,415.2,793.7,415.4,793.7,415.4C792.5,415.5,791.4,415.7,790.3,416C788.7,416.5,787.2,417.4,785.9,418.7C785.9,418.7,785.9,418.7,785.8,418.7C781.2,417,777.8,426,777.8,426.1C776.8,428.3,775.9,432,775.9,432L775.2,439.4C774.7,445.7,772,453.6,772,453.6C771,456.5,769,457.9,769,457.9C769.5,458.3,770,458.7,770.6,459C771,458.8,771.8,458.4,772.6,457.9L774.3,456.1C774.1,456.8,773.3,457.4,772.6,457.9L771.2,459.4C774.3,460.8,778.7,461.4,781.9,461.7C782.2,459.7,782.8,455.8,782.5,452.3C782.4,451.4,782.3,450.9,782.3,450.9C782.4,451.4,782.4,451.8,782.5,452.3C782.8,454.6,783.2,459.4,783.2,461.7C784.9,461.8,786,461.8,786,461.8L786,463.8C784.4,464.1,782,467.2,782,467.2C781.7,467.2,779.9,467.9,778.3,468.6C777.4,469,776.3,469.5,775.2,470C772.9,470.9,770.1,472.6,770.1,472.6C768.3,473.5,767,474.5,766.1,475.6C765.8,475.9,765.5,476.2,765.2,476.4C765.2,476.4,762.3,479.1,762.3,482L762.3,495.7L762.8,495.7L763.8,495.7L764.8,495.7L765.7,495.7L828.1,495.7C828.3,495.5,828.7,488.6,828.3,481.3" fill="#527398"/>
    <path id="_a16" class="st0" d="M902.7,481.3C902.4,476.1,897.1,472.7,894,471.1L891.8,470.1L887.5,468.2C885.5,467.4,883,466.2,883,466.2C881.5,464.3,879.7,463.1,879.2,462.7L879.2,461.7L879.4,461.7C890.9,461.1,894.6,459.2,895.7,458.3L893.9,456.8C893,456.2,892,455.5,891.1,454.4L893.9,456.8C894.7,457.3,895.5,457.7,896.1,457.9L896.1,457.9C893.7,456.2,892,449.7,892,449.7C890.6,446.5,889.6,434.9,889.6,434.9C889.6,431.6,888.2,428.1,888.2,428.1C885.7,421.1,880.1,417.9,880.1,417.9C879.6,417.6,879.2,417.4,878.7,417.2C878.2,417,875.3,415.8,871.8,415.4C869.6,415.2,868.1,415.4,868.1,415.4C866.9,415.5,865.8,415.7,864.7,416C863.1,416.5,861.6,417.4,860.3,418.7C860.3,418.7,860.3,418.7,860.2,418.7C855.6,417,852.2,426,852.2,426.1C851.2,428.3,850.3,432,850.3,432L849.6,439.4C849.1,445.7,846.4,453.6,846.4,453.6C845.4,456.5,843.4,457.9,843.4,457.9C843.9,458.3,844.4,458.7,845,459C845.4,458.8,846.2,458.4,847,457.9L848.7,456.1C848.5,456.8,847.7,457.4,847,457.9L845.6,459.4C848.7,460.8,853.1,461.4,856.3,461.7C856.6,459.7,857.2,455.8,856.9,452.3C856.8,451.4,856.7,450.9,856.7,450.9C856.8,451.4,856.8,451.8,856.9,452.3C857.2,454.6,857.6,459.4,857.6,461.7C859.3,461.8,860.4,461.8,860.4,461.8L860.4,463.8C858.8,464.1,856.4,467.2,856.4,467.2C856.1,467.2,854.3,467.9,852.7,468.6C851.8,469,850.7,469.5,849.6,470C847.3,470.9,844.5,472.6,844.5,472.6C842.7,473.5,841.4,474.5,840.5,475.6C840.2,475.9,839.9,476.2,839.6,476.4C839.6,476.4,836.7,479.1,836.7,482L836.7,495.7L837.2,495.7L838.2,495.7L839.2,495.7L840.1,495.7L902.5,495.7C902.7,495.5,903,488.6,902.7,481.3" fill="#527398"/>
    <path class="st1" d="M977,481.3C976.7,476.1,971.4,472.7,968.3,471.1L966.1,470.1L961.8,468.2C959.8,467.4,957.3,466.2,957.3,466.2C955.8,464.3,954,463.1,953.5,462.7L953.5,461.7L953.7,461.7C965.2,461.1,968.9,459.2,970,458.3L968.2,456.8C967.3,456.2,966.3,455.5,965.4,454.4L968.2,456.8C969,457.3,969.8,457.7,970.4,457.9L970.4,457.9C968,456.2,966.3,449.7,966.3,449.7C964.9,446.5,963.9,434.9,963.9,434.9C963.9,431.6,962.5,428.1,962.5,428.1C960,421.1,954.4,417.9,954.4,417.9C953.9,417.6,953.5,417.4,953,417.2C952.5,417,949.6,415.8,946.1,415.4C943.9,415.2,942.4,415.4,942.4,415.4C941.2,415.5,940.1,415.7,939,416C937.4,416.5,935.9,417.4,934.6,418.7C934.6,418.7,934.6,418.7,934.5,418.7C929.9,417,926.5,426,926.5,426.1C925.5,428.3,924.6,432,924.6,432L923.9,439.4C923.4,445.7,920.7,453.6,920.7,453.6C919.7,456.5,917.7,457.9,917.7,457.9C918.2,458.3,918.7,458.7,919.3,459C919.7,458.8,920.5,458.4,921.3,457.9L923,456.1C922.8,456.8,922,457.4,921.3,457.9L919.9,459.4C923,460.8,927.4,461.4,930.6,461.7C930.9,459.7,931.5,455.8,931.2,452.3C931.1,451.4,931,450.9,931,450.9C931.1,451.4,931.1,451.8,931.2,452.3C931.5,454.6,931.9,459.4,931.9,461.7C933.6,461.8,934.7,461.8,934.7,461.8L934.7,463.8C933.1,464.1,930.7,467.2,930.7,467.2C930.4,467.2,928.6,467.9,927,468.6C926.1,469,925,469.5,923.9,470C921.6,470.9,918.8,472.6,918.8,472.6C917,473.5,915.7,474.5,914.8,475.6C914.5,475.9,914.2,476.2,913.9,476.4C913.9,476.4,911,479.1,911,482L911,495.7L911.5,495.7L912.5,495.7L913.5,495.7L914.4,495.7L977,495.7C977,495.5,977.4,488.6,977,481.3" fill="#527398"/>
    <path class="st1" d="M1051.4,481.3C1051.1,476.1,1045.8,472.7,1042.7,471.1L1040.5,470.1L1036.2,468.2C1034.2,467.4,1031.6,466.2,1031.6,466.2C1030.1,464.3,1028.3,463.1,1027.8,462.7L1027.8,461.7L1028,461.7C1039.6,461.1,1043.2,459.2,1044.3,458.3L1042.5,456.8C1041.6,456.2,1040.6,455.5,1039.7,454.4L1042.5,456.8C1043.3,457.3,1044.1,457.7,1044.7,457.9L1044.7,457.9C1042.3,456.2,1040.6,449.7,1040.6,449.7C1039.2,446.5,1038.2,434.9,1038.2,434.9C1038.2,431.6,1036.8,428.1,1036.8,428.1C1034.3,421.1,1028.7,417.9,1028.7,417.9C1028.2,417.6,1027.8,417.4,1027.3,417.2C1026.8,417,1023.9,415.8,1020.4,415.4C1018.2,415.2,1016.7,415.4,1016.7,415.4C1015.5,415.5,1014.4,415.7,1013.3,416C1011.7,416.5,1010.2,417.4,1008.9,418.7C1008.9,418.7,1008.9,418.7,1008.8,418.7C1004.2,417,1000.8,426,1000.8,426.1C999.8,428.3,998.9,432,998.9,432L998.2,439.4C997.7,445.7,995,453.6,995,453.6C994,456.5,992,457.9,992,457.9C992.5,458.3,993,458.7,993.6,459C994,458.8,994.8,458.4,995.6,457.9L997.3,456.1C997.1,456.8,996.3,457.4,995.6,457.9L994.2,459.4C997.3,460.8,1001.7,461.4,1004.9,461.7C1005.2,459.7,1005.8,455.8,1005.5,452.3C1005.4,451.4,1005.3,450.9,1005.3,450.9C1005.4,451.4,1005.4,451.8,1005.5,452.3C1005.8,454.6,1006.2,459.4,1006.2,461.7C1007.9,461.8,1009,461.8,1009,461.8L1009,463.8C1007.4,464.1,1005,467.2,1005,467.2C1004.7,467.2,1002.9,467.9,1001.3,468.6C1000.4,469,999.3,469.5,998.2,470C995.9,470.9,993.1,472.6,993.1,472.6C991.3,473.5,990,474.5,989.1,475.6C988.8,475.9,988.5,476.2,988.2,476.4C988.2,476.4,985.3,479.1,985.3,482L985.3,495.7L985.8,495.7L986.8,495.7L987.8,495.7L988.8,495.7L1051.2,495.7C1051.4,495.5,1051.8,488.6,1051.4,481.3" fill="#527398"/>
    <script><![CDATA[/*
 KeyshapeJS v1.1.0 (c) 2018-2019 Pixofield Ltd | pixofield.com/keyshapejs/mit-license */
window.KeyshapeJS=function(){function t(a){return"undefined"!==typeof a}function x(a,b){return a&&0==a.indexOf(b)}function H(a){if(!isFinite(a))throw Error("Non-finite value");}function R(a){if(14>=a)return 16;var b=S[a];b||(b=t(ca[a])?0|(a.toLowerCase().indexOf("color")==a.length-5?48:0):1);return b}function K(a){return 0<=a?Math.pow(a,1/3):-Math.pow(-a,1/3)}function da(a,b,c,d){if(0==a)return 0==b?b=-d/c:(a=Math.sqrt(c*c-4*b*d),d=(-c+a)/(2*b),0<=d&&1>=d?b=d:(d=(-c-a)/(2*b),b=0<=d&&1>=d?d:0)),b;
var e=c/a-b*b/(a*a)/3;c=b*b*b/(a*a*a)/13.5-b*c/(a*a)/3+d/a;var n=c*c/4+e*e*e/27;b=-b/(3*a);if(0>=n){if(0==e&&0==c)return-K(d/a);a=Math.sqrt(c*c/4-n);d=Math.acos(-c/2/a);c=Math.cos(d/3);d=Math.sqrt(3)*Math.sin(d/3);a=K(a);e=2*a*c+b;if(0<=e&&1>=e)return e;e=-a*(c+d)+b;if(0<=e&&1>=e)return e;e=a*(d-c)+b;if(0<=e&&1>=e)return e}else{a=K(-c/2+Math.sqrt(n));c=K(-c/2-Math.sqrt(n));d=a+c+b;if(0<=d&&1>=d)return d;d=-(a+c)/2+b;if(0<=d&&1>=d)return d}return 0}function ea(a,b){if(48==a&&"number"===typeof b)return"rgba("+
(b>>>24)+","+(b>>>16&255)+","+(b>>>8&255)+","+(b&255)/255+")";if(64==a)return b=b.map(function(a){return a+"px"}),b.join(",");if(96==a){a="";for(var c=b.length,d=0;d<c;d+=2)a+=b[d],a+=b[d+1].join(",");return a}if(80==a){if(0==b[0])return"none";a="";c=b.length;for(d=0;d<c;)a+=T[b[d]],1==b[d]?a+="("+b[d+1]+") ":5==b[d]?(a+="("+b[d+1]+"px "+b[d+2]+"px "+b[d+3]+"px rgba("+(b[d+4]>>>24)+","+(b[d+4]>>16&255)+","+(b[d+4]>>8&255)+","+(b[d+4]&255)/255+")) ",d+=3):a=2==b[d]?a+("("+b[d+1]+"px) "):7==b[d]?a+
("("+b[d+1]+"deg) "):a+("("+(0>b[d+1]?0:b[d+1])+") "),d+=2;return a}return 32==a?b+"px":b}function y(a){return 0>=a?0:255<=a?255:a}function fa(a,b,c,d){if(16==a||32==a)return(c-b)*d+b;if(0==a)return.5>d?b:c;if(48==a){if("number"===typeof b&&"number"===typeof c){var e=1-d;return(y(e*(b>>>24)+d*(c>>>24))<<24|y(e*(b>>>16&255)+d*(c>>>16&255))<<16|y(e*(b>>>8&255)+d*(c>>>8&255))<<8|y(e*(b&255)+d*(c&255)))>>>0}return.5>d?b:c}if(64==a){0==b.length&&(b=[0]);0==c.length&&(c=[0]);var n=b.length;b.length!=c.length&&
(n=b.length*c.length);var l=[];for(a=0;a<n;++a){var f=b[a%b.length];var h=(c[a%c.length]-f)*d+f;0>h&&(h=0);l.push(h)}return l}if(96==a){if(b.length!=c.length)return.5>d?b:c;n=b.length;l=[];for(a=0;a<n;a+=2){if(b[a]!==c[a])return.5>d?b:c;l[a]=b[a];l[a+1]=[];for(f=0;f<b[a+1].length;++f)l[a+1].push((c[a+1][f]-b[a+1][f])*d+b[a+1][f])}return l}if(80==a){n=b.length;if(n!=c.length)return.5>d?b:c;l=[];for(a=0;a<n;){if(b[a]!=c[a]||1==b[a])return.5>d?b:c;l[a]=b[a];l[a+1]=(c[a+1]-b[a+1])*d+b[a+1];if(5==b[a]){l[a+
2]=(c[a+2]-b[a+2])*d+b[a+2];l[a+3]=(c[a+3]-b[a+3])*d+b[a+3];e=1-d;var g=b[a+4],q=c[a+4];h=e*(g>>>24)+d*(q>>>24);var m=e*(g>>16&255)+d*(q>>16&255);f=e*(g>>8&255)+d*(q>>8&255);e=e*(g&255)+d*(q&255);l[a+4]=(y(m)<<16|y(f)<<8|y(e))+16777216*(y(h)|0);a+=3}a+=2}return l}return 0}function U(a,b){a:{var c=a+b[2];var d=b[4].length;for(var e=0;e<d;++e)if(c<b[4][e]){c=e;break a}c=d-1}d=b[2];e=b[4][c-1]-d;a=(a-e)/(b[4][c]-d-e);if(b[6]&&b[6].length>c-1)if(d=b[6][c-1],1==d[0])if(0>=a)a=0;else if(1<=a)a=1;else{e=
d[1];var n=d[3];a=da(3*e-3*n+1,-6*e+3*n,3*e,-a);a=3*a*(1-a)*(1-a)*d[2]+3*a*a*(1-a)*d[4]+a*a*a}else 2==d[0]?(d=d[1],a=Math.ceil(a*d)/d):3==d[0]&&(d=d[1],a=Math.floor(a*d)/d);return fa(b[1]&240,b[5][c-1],b[5][c],a)}function L(){u||(v=(new Date).getTime()+V)}function O(a){if(a||!E){for(var b=!1,c=0;c<w.length;++c)w[c].J(a)&&(b=!0);if(a)for(;0<I.length;)if(a=I.shift(),c=a[0],1==a[1])c.onfinish&&(c.onfinish(),b=!0),c.I();else if(2==a[1]&&c.onloop)c.onloop();return b}}function W(){L();O(!0)&&!u?(E=!0,M(W)):
E=!1}function N(){E||(E=!0,M(W))}function X(a,b){var c=[];a.split(b).forEach(function(a){c.push(parseFloat(a))});return c}function A(a){-1==a.indexOf(",")&&(a=a.replace(" ",","));return X(a,",")}function Y(a){a._ks||(a._ks={});if(!a._ks.transform){for(var b=a._ks.transform=[],c=0;14>=c;++c)b[c]=0;b[10]=1;b[11]=1;if(a=a.getAttribute("transform")){a=a.trim().split(") ");for(c=a.length-2;0<=c;--c)if(x(a[c],"translate(")){for(var d=0;d<c;d++)a.shift();break}c=a.shift();x(c,"translate(")&&(c=A(c.substring(10)),
b[1]=c[0],b[2]=t(c[1])?c[1]:0,c=a.shift());x(c,"rotate(")&&(c=A(c.substring(7)),b[6]=c[0],c=a.shift());x(c,"skewX(")&&(c=A(c.substring(6)),b[7]=c[0],c=a.shift());x(c,"skewY(")&&(c=A(c.substring(6)),b[8]=c[0],c=a.shift());x(c,"scale(")&&(c=A(c.substring(6)),b[10]=c[0],b[11]=t(c[1])?c[1]:c[0],c=a.shift());x(c,"translate(")&&(c=A(c.substring(10)),b[13]=c[0],b[14]=t(c[1])?c[1]:0)}}}function Z(a){this.l=a;this.A=[];this.C=[];this.v=0;this.s=this.a=this.c=null;this.h=this.f=this.g=0;this.b=1;this.i=this.F=
this.o=!1}function J(a,b,c){b=a[b];void 0===b&&(b=a[c]);return b}function ha(a){return Array.isArray(a)?a:x(a,"cubic-bezier(")?(a=a.substring(13,a.length-1).split(","),[1,parseFloat(a[0]),parseFloat(a[1]),parseFloat(a[2]),parseFloat(a[3])]):x(a,"steps(")?(a=a.substring(6,a.length-1).split(","),[a[1]&&"start"==a[1].trim()?2:3,parseFloat(a[0])]):[0]}function ia(a){a=a.trim();return x(a,"#")?(parseInt(a.substring(1),16)<<8)+255:x(a,"rgba(")?(a=a.substring(5,a.length-1),a=a.split(","),(parseInt(a[0],
10)<<24)+(parseInt(a[1],10)<<16)+(parseInt(a[2],10)<<8)+255*parseFloat(a[3])<<0):a}function aa(a){!1===a.i&&(w.push(a),a.i=!0,!1!==a.l.autoplay&&a.play());return this}function P(a){if(!0===a.i){a._cancel();var b=w.indexOf(a);-1<b&&w.splice(b,1);b=I.indexOf(a);-1<b&&I.splice(b,1);a.i=!1}return this}var Q=Error("Not in timeline list"),ba="mpath posX posY    rotate skewX skewY  scaleX scaleY  anchorX anchorY".split(" "),ja=" translate translate    rotate skewX skewY  scale scale  translate translate".split(" "),
T="none url blur brightness contrast drop-shadow grayscale hue-rotate invert opacity saturate sepia".split(" "),M=window.requestAnimationFrame||window.webkitRequestAnimationFrame||window.mozRequestAnimationFrame||window.oRequestAnimationFrame||window.msRequestAnimationFrame||null;M||(M=function(a){window.setTimeout(a,16)});var S={d:97,fill:48,fillOpacity:16,filter:80,height:33,opacity:16,offsetDistance:33,stroke:48,strokeDasharray:64,strokeDashoffset:32,strokeOpacity:16,strokeWidth:32,transform:1,
width:33},ca=window.getComputedStyle(document.documentElement),E=!1,v=(new Date).getTime(),u,V=0,w=[],I=[];Z.prototype={B:function(a){var b=0;if(null!==this.c){var c=this.j();0<this.b&&null!==c&&c>=this.f?this.h?(this.c=v-this.g/this.b,this.h--,b=2):(b=1,a?this.a=c:this.a=this.s?Math.max(this.s,this.f):this.f):0>this.b&&null!==c&&c<=this.g?this.h&&Infinity!=this.f?(this.c=v-this.f/this.b,this.h--,b=2):(this.h=0,b=1,a?this.a=c:this.a=this.s?Math.min(this.s,this.g):this.g):null!==c&&0!=this.b&&(a&&
null!==this.a&&(this.c=v-this.a/this.b),this.a=null)}this.s=this.j();return b},J:function(a){a&&(this.o&&(this.o=!1,null===this.c&&(0!=this.b&&null!==this.a?(this.c=v-this.a/this.b,this.a=null):this.c=v)),null===this.a&&null!==this.c&&(a=this.B(!1),0!=a&&I.push([this,a])));a=this.j();if(null===a)return!1;for(var b=this.A,c=this.C,d=0;d<b.length;++d){for(var e=b[d],n=!1,l=0;l<c[d].length;++l){var f=c[d][l],h=f[0];if(null!==h){var g=f[2];var q=f[4].length,m=f[4][q-1]-g;g=0==m?f[5][q-1]:a<=g?f[5][0]:
a>=g+f[3]?0==f[3]%m?f[5][q-1]:U(f[3]%m,f):U((a-g)%m,f);0==h?(e._ks.mpath=f[8],e._ks.transform[h]=g,n=!0):14>=h?(e._ks.transform[h]=g,n=!0):(g=ea(f[1]&240,g),f[1]&1?e.setAttribute(h,g):e.style[h]=g)}}if(n){Y(e);n=e._ks.transform;l="";if(f=e._ks.mpath)g=n[0],0>g&&(g=0),100<g&&(g=100),g=g*f[2]/100,h=f[1].getPointAtLength(g),l="translate("+h.x+","+h.y+") ",f[0]&&(.5>g?(g=h,h=f[1].getPointAtLength(.5)):g=f[1].getPointAtLength(g-.5),l+="rotate("+180*Math.atan2(h.y-g.y,h.x-g.x)/Math.PI+") ");for(f=1;f<n.length;++f)h=
n[f],h!=(10==f||11==f?1:0)&&(l+=" "+ja[f]+"(",l=2>=f?l+(1==f?h+",0":"0,"+h):13<=f?l+(13==f?h+",0":"0,"+h):10<=f?l+(10==f?h+",1":"1,"+h):l+h,l+=")");e.setAttribute("transform",l)}}return"running"==this.m()},I:function(){!1!==this.l.autoremove&&"finished"==this.m()&&P(this)},D:function(){if(!this.F){this.F=!0;for(var a=this.A,b=this.C,c=0;c<a.length;++c)for(var d=a[c],e=0;e<b[c].length;++e)14>=b[c][e][0]&&Y(d)}},u:function(a){if("number"==typeof a)return a;if(!t(this.l.markers)||!t(this.l.markers[a]))throw Error("Invalid marker: "+
a);return+this.l.markers[a]},play:function(a){t(a)&&null!==a&&(a=this.u(a),H(a),0>this.b&&a<this.g&&(a=this.g),0<this.b&&a>this.f&&(a=this.f),this.w(a,!0));if(!this.i)throw Q;a=this.j();if(0<this.b&&(null===a||a>=this.f))this.a=this.g;else if(0>this.b&&(null===a||a<=this.g)){if(Infinity==this.f)throw Error("Cannot seek to Infinity");this.a=this.f}else 0==this.b&&null===a&&(this.a=this.g);if(null===this.a)return this;this.c=null;this.o=!0;this.D();N();return this},pause:function(a){if(!this.i)throw Q;
t(a)&&(a=this.u(a),H(a));if("paused"!=this.m()){L();var b=this.j();if(null===b)if(0<=this.b)this.a=this.g;else{if(Infinity==this.f)throw Error("Cannot seek to Infinity");this.a=this.f}null!==this.c&&null===this.a&&(this.a=b);this.c=null;this.o=!1;this.B(!1);this.D();N()}t(a)&&this.w(a,!0);return this},range:function(a,b){if(0==arguments.length)return{"in":this.g,out:this.f};var c=this.u(a),d=this.v;t(b)&&(d=this.u(b));H(c);if(0>c||0>d||c>=d||isNaN(d))throw Error("Invalid range");var e=this.m();this.g=
c;this.f=d;"finished"==e&&"running"==this.m()&&this.play();return this},loop:function(a){if(!t(a))return{count:this.h};this.h=!0===a?Infinity:Math.floor(a);if(0>this.h||isNaN(this.h))this.h=0;return this},j:function(){return null!==this.a?this.a:null===this.c?null:(v-this.c)*this.b},w:function(a,b){b&&L();null!==a&&(this.D(),null!==this.a||null===this.c||0==this.b?(this.a=a,O(!1)):this.c=v-a/this.b,this.i||(this.c=null),this.s=null,this.B(!0),N())},G:function(){return this.j()},time:function(a){if(t(a)){if(!this.i)throw Q;
a=this.u(a);H(a);this.w(a,!0);return this}return this.G()},m:function(){var a=this.j();return this.o?"running":null===a?"idle":null===this.c?"paused":0<this.b&&a>=this.f||0>this.b&&a<=this.g?"finished":"running"},state:function(){return this.m()},duration:function(){return this.v},H:function(a){H(a);L();var b=this.j();this.b=a;null!==b&&this.w(b,!1)},rate:function(a){return t(a)?(this.H(a),this):this.b},marker:function(a){return t(this.l.markers)?this.l.markers[a]:void 0},_cancel:function(){if(!this.i||
"idle"==this.m())return this;this.c=this.a=null;this.o=!1;return this}};return{version:"1.1.0",animate:function(){var a={};if(1==arguments.length%2){a=arguments[arguments.length-1];var b={};for(c in a)b[c]=a[c];a=b}var c=new Z(a);a=arguments;for(var d=b=0;d<a.length-1;d+=2){var e=a[d];var n=e instanceof Element?e:document.getElementById(e.substring(1));if(!n)throw Error("Invalid target: "+e);e=n;n=a[d+1];e._ks||(e._ks={});for(var l=[],f=0;f<n.length;++f){var h=n[f],g=J(h,"p","property");if("string"!=
typeof g||-1!=g.indexOf("-")||""===g||!(0<S[g]||0<=ba.indexOf(g)))throw Error("Invalid property: "+g);var q=ba.indexOf(g);""!==g&&0<=q&&(g=q);q=R(g);var m=J(h,"t","times");if(!m||2>m.length)throw Error("Not enough times");m=m.slice();if(!isFinite(m[0])||0>m[0])throw Error("Invalid time: "+m[0]);for(var B=1;B<m.length;++B)if(!isFinite(m[B])||0>m[B]||m[B]<m[B-1])throw Error("Invalid time: "+m[B]);B=m[0];var v=m[m.length-1]-B,y=h.iterations||0;1>y&&(y=1);v*=y;b<v+B&&(b=v+B);var u=J(h,"v","values");if(!u||
u.length!=m.length)throw Error("Values do not match times");u=u.slice();for(var C=g,k=u,w=R(C)&240,p=0;p<k.length;++p)if(96==w){for(var G=k[p].substring(6,k[p].length-2).match(/[A-DF-Za-df-z][-+0-9eE., ]*/ig),A=[],r=0;r<G.length;++r){A.push(G[r][0]);for(var z=1<G[r].trim().length?G[r].substring(1).split(","):[],F=0;F<z.length;++F)z[F]=parseFloat(z[F]);A.push(z)}k[p]=A}else if(48==w)x(k[p],"#")?(G=9==k[p].length,k[p]=parseInt(k[p].substring(1),16),G||(k[p]=256*k[p]|255)):x(k[p],"url(")||"none"==k[p]||
(console.warn("unsupported color: "+k[p]),k[p]=0);else if(80==w){G=k;A=p;r=k[p];if("none"==r)r=[0];else{z=[];for(var D=r.indexOf("(");0<D;)if(F=T.indexOf(r.substring(0,D)),0<=F){z.push(F);var E=r.indexOf(") ");0>E&&(E=r.length-1);D=r.substring(D+1,E).split(" ");5==F?(z.push(parseFloat(D[0])),z.push(parseFloat(D[1])),z.push(parseFloat(D[2])),z.push(ia(D[3]))):1==F?z.push(D[0]):z.push(parseFloat(D[0]));r=r.substring(E+1).trim();D=r.indexOf("(")}else break;r=z}G[A]=r}else 64==w?"none"!=k[p]?/^[0-9 .]*$/.test(k[p])?
k[p]=X(k[p]," "):(console.warn("unsupported value: "+k[p]),k[p]=[0]):k[p]=[0]:32==w?(H(k[p]),k[p]=parseFloat(k[p])):0===C&&(k[p]=parseFloat(k[p]));C=J(h,"e","easing");k=m.length;for(C||(C=[]);C.length<k;)C.push([1,0,0,.58,1]);for(k=0;k<C.length;++k)C[k]=ha(C[k]);q=[g,q,B,v,m,u,C,y];m=J(h,"mp","motionPath");t(m)&&0===g&&(q[8]=[],q[8][0]=h.motionRotate,h=document.createElementNS("http://www.w3.org/2000/svg","path"),m||(m="M0,0"),h.setAttribute("d",m),q[8][1]=h,q[8][2]=h.getTotalLength());l.push(q)}0<
l.length&&(c.A.push(e),c.C.push(l))}c.v=b;c.g=0;c.f=c.v;aa(c);return c},add:aa,remove:P,removeAll:function(){for(var a=w.length-1;0<=a;--a)P(w[a]);return this},timelines:function(){return w.slice()},globalPlay:function(){u&&(V=u-(new Date).getTime(),u=void 0,N());return this},globalPause:function(){u||(u=v,O(!1));return this},globalState:function(){return u?"paused":"running"}}}();
]]></script>
    <script><![CDATA[if(KeyshapeJS.version.indexOf('1.')!=0)throw Error('Expected KeyshapeJS v1.*.*');window.ks=document.ks=KeyshapeJS;(function(ks){
ks.animate("#_a0",[{p:'fill',t:[400,600],v:['#527398','#efbb50'],e:[[0],[0]]}],
"#_a1",[{p:'fill',t:[500,700],v:['#527398','#efbb50'],e:[[0],[0]]}],
"#_a2",[{p:'fill',t:[600,800],v:['#527398','#efbb50'],e:[[0],[0]]}],
"#_a3",[{p:'fill',t:[700,900],v:['#527398','#efbb50'],e:[[0],[0]]}],
"#_a4",[{p:'fill',t:[800,1000],v:['#527398','#efbb50'],e:[[0],[0]]}],
"#_a5",[{p:'fill',t:[900,1100],v:['#527398','#efbb50'],e:[[0],[0]]}],
"#_a6",[{p:'fill',t:[1000,1200],v:['#527398','#efbb50'],e:[[0],[0]]}],
"#_a7",[{p:'fill',t:[1100,1300],v:['#527398','#efbb50'],e:[[0],[0]]}],
"#_a8",[{p:'fill',t:[1200,1400],v:['#527398','#efbb50'],e:[[0],[0]]}],
"#_a9",[{p:'fill',t:[400,600],v:['#527398','#efbb50'],e:[[0],[0]]}],
"#_a10",[{p:'fill',t:[500,700],v:['#527398','#efbb50'],e:[[0],[0]]}],
"#_a11",[{p:'fill',t:[600,800],v:['#527398','#efbb50'],e:[[0],[0]]}],
"#_a12",[{p:'fill',t:[700,900],v:['#527398','#efbb50'],e:[[0],[0]]}],
"#_a13",[{p:'fill',t:[800,1000],v:['#527398','#efbb50'],e:[[0],[0]]}],
"#_a14",[{p:'fill',t:[900,1100],v:['#527398','#efbb50'],e:[[0],[0]]}],
"#_a15",[{p:'fill',t:[1000,1200],v:['#527398','#efbb50'],e:[[0],[0]]}],
"#_a16",[{p:'fill',t:[1100,1300],v:['#527398','#efbb50'],e:[[0],[0]]}],
{autoremove:false}).range(0,1400);
if(document.location.search.substr(1).split('&').indexOf('global=paused')>=0)ks.globalPause()})(KeyshapeJS);
]]></script>
</svg>
