<?xml version="1.0" encoding="utf-8"?>
<!-- Generator: Adobe Illustrator 24.1.0, SVG Export Plug-In . SVG Version: 6.00 Build 0)  -->
<svg version="1.1" id="Layer_1" xmlns="http://www.w3.org/2000/svg" xmlns:xlink="http://www.w3.org/1999/xlink" x="0px" y="0px"
	 viewBox="0 0 66.04 80.24" style="enable-background:new 0 0 66.04 80.24;" xml:space="preserve">
<style type="text/css">
	.st0{fill:#EFBB50;}
</style>
<path class="st0" d="M65.87,65.96c-0.27-5.22-5.57-8.62-8.66-10.17l-2.19-0.97l-4.34-1.92c-1.98-0.82-4.55-2-4.55-2
	c-1.46-1.93-3.29-3.14-3.81-3.47l-0.02-1.02h0.17c11.55-0.59,15.24-2.52,16.34-3.41l-1.77-1.48c-0.9-0.56-1.9-1.33-2.84-2.38
	l2.84,2.38c0.85,0.53,1.62,0.87,2.17,1.08c0.03-0.03,0.03-0.05,0.03-0.05c-2.4-1.66-4.11-8.19-4.11-8.19
	c-1.37-3.21-2.4-14.82-2.4-14.82c0-3.32-1.37-6.75-1.37-6.75C48.87,5.81,43.28,2.6,43.28,2.6c-0.46-0.26-0.92-0.5-1.39-0.71
	c-0.47-0.2-3.36-1.37-6.92-1.79c-2.18-0.2-3.67-0.05-3.67-0.05c-1.2,0.09-2.32,0.29-3.36,0.57c-1.6,0.52-3.11,1.39-4.4,2.74
	c0,0-0.01-0.02-0.08-0.03c-4.63-1.7-8,7.34-8.01,7.36c-0.99,2.19-1.9,5.88-1.9,5.88l-0.68,7.38C12.35,30.26,9.7,38.14,9.7,38.14
	c-1.03,2.91-3,4.31-3,4.31c0.45,0.42,1.01,0.8,1.63,1.13c0.36-0.17,1.22-0.59,2.04-1.14l1.72-1.82c-0.23,0.66-0.96,1.3-1.72,1.82
	l-1.39,1.46c3.07,1.41,7.49,2.01,10.69,2.26c0.33-1.95,0.88-5.92,0.62-9.36c-0.09-0.85-0.16-1.38-0.16-1.38
	c0.07,0.45,0.12,0.91,0.16,1.38c0.26,2.34,0.73,7.06,0.65,9.44c1.68,0.1,2.79,0.1,2.79,0.1l-0.03,2.01
	c-1.63,0.3-4.03,3.35-4.03,3.35c-0.27-0.05-2.06,0.7-3.67,1.42c-0.94,0.39-2,0.86-3.12,1.39c-2.26,0.89-5.06,2.57-5.06,2.57
	c-1.84,0.86-3.13,1.94-4.05,3.04c-0.31,0.28-0.6,0.56-0.88,0.84c0,0-2.88,2.68-2.88,5.6v13.67h0.51h1.03h0.95h0.94h62.44
	C65.87,80.24,66.26,73.34,65.87,65.96"/>
</svg>
