<?xml version="1.0" encoding="UTF-8" standalone="no"?>
<!-- Created with Keyshape -->
<svg xmlns="http://www.w3.org/2000/svg" id="Layer_1" viewBox="0 0 1366 743.3" style="white-space: preserve-spaces;">
    <style>
@keyframes a0_d { 0% { d: path('M143.1,436.9C143.1,436.9,143.1,436.9,143.1,436.9C143.1,449.6,141.6,432.3,143.1,436.9C144.6,441.5,141.5,433.8,143.1,436.9C144.6,440.1,140.5,429.5,143.1,436.9C143.1,436.9,137.5,432.3,143.1,436.9C148.7,441.5,134,434.8,143.1,436.9C152.3,438.9,137.5,436.9,143.1,436.9C148.7,436.9,143.1,436.9,143.1,436.9'); } 8.3333% { d: path('M143.1,436.9C143.1,436.9,147.2,313.4,150.7,270.7C150.7,283.4,149.2,266.1,150.7,270.7C152.2,275.3,149.1,267.6,150.7,270.7C152.2,273.9,148.1,263.3,150.7,270.7C153.2,278.1,145.1,266.1,150.7,270.7C156.3,275.3,141.6,268.6,150.7,270.7C159.9,272.7,145.1,270.7,150.7,270.7C156.3,270.7,150.7,270.7,150.7,270.7'); } 16.6667% { d: path('M143.1,436.9C143.1,436.9,147.2,313.4,150.7,270.7C150.7,283.4,149.7,284.9,151.2,289.5C152.7,294.1,149.6,286.4,151.2,289.5C152.7,292.7,148.6,282.1,151.2,289.5C153.7,296.9,145.6,284.9,151.2,289.5C156.8,294.1,142.1,287.4,151.2,289.5C160.4,291.5,145.6,289.5,151.2,289.5C156.8,289.5,151.2,289.5,151.2,289.5'); } 25% { d: path('M143.1,436.9C143.1,436.9,147.2,313.4,150.7,270.7C150.7,283.4,149.7,284.9,151.2,289.5C152.7,294.1,165.9,335.2,167.5,338.3C169,341.5,164.9,330.9,167.5,338.3C170,345.7,161.9,333.7,167.5,338.3C173.1,342.9,158.4,336.2,167.5,338.3C176.7,340.3,161.9,338.3,167.5,338.3C173.1,338.3,167.5,338.3,167.5,338.3'); } 33.3333% { d: path('M143.1,436.9C143.1,436.9,147.2,313.4,150.7,270.7C150.7,283.4,149.7,284.9,151.2,289.5C152.7,294.1,165.9,335.2,167.5,338.3C169,341.5,176.1,350,178.7,357.4C181.2,364.8,173.1,352.8,178.7,357.4C184.3,362,169.6,355.3,178.7,357.4C187.9,359.4,173.1,357.4,178.7,357.4C184.3,357.4,178.7,357.4,178.7,357.4'); } 50% { d: path('M143.1,436.9C143.1,436.9,147.2,313.4,150.7,270.7C150.7,283.4,149.7,284.9,151.2,289.5C152.7,294.1,165.9,335.2,167.5,338.3C169,341.5,176.1,350,178.7,357.4C181.2,364.8,191.4,385.6,197,390.2C202.6,394.8,187.9,388.1,197,390.2C206.2,392.2,191.4,390.2,197,390.2C202.6,390.2,197,390.2,197,390.2'); } 66.6667% { d: path('M143.1,436.9C143.1,436.9,147.2,313.4,150.7,270.7C150.7,283.4,149.7,284.9,151.2,289.5C152.7,294.1,165.9,335.2,167.5,338.3C169,341.5,176.1,350,178.7,357.4C181.2,364.8,191.4,385.6,197,390.2C202.6,394.8,232.1,420.7,241.2,422.8C250.4,424.8,235.6,422.8,241.2,422.8C246.8,422.8,241.2,422.8,241.2,422.8'); } 83.3333% { d: path('M143.1,436.9C143.1,436.9,147.2,313.4,150.7,270.7C150.7,283.4,149.7,284.9,151.2,289.5C152.7,294.1,165.9,335.2,167.5,338.3C169,341.5,176.1,350,178.7,357.4C181.2,364.8,191.4,385.6,197,390.2C202.6,394.8,232.1,420.7,241.2,422.8C250.4,424.8,266.6,431.4,272.2,431.4C277.8,431.4,272.2,431.4,272.2,431.4'); } 100% { d: path('M143.1,436.9C143.1,436.9,147.2,313.4,150.7,270.7C150.7,283.4,149.7,284.9,151.2,289.5C152.7,294.1,165.9,335.2,167.5,338.3C169,341.5,176.1,350,178.7,357.4C181.2,364.8,191.4,385.6,197,390.2C202.6,394.8,232.1,420.7,241.2,422.8C250.4,424.8,266.6,431.4,272.2,431.4C277.8,431.4,305.8,433.9,305.8,433.9'); } }
@keyframes a1_d { 0% { d: path('M477.9,436.4C477.9,436.4,477.2,440.2,477.9,436.4C480.1,441.1,471.6,431.7,477.9,436.4C477.9,428.1,477.9,436.4,477.9,436.4L477.9,436.4L477.9,436.4L477.9,436.4L477.9,436.4L477.9,436.4L477.9,436.4L477.9,436.4L477.9,436.4L477.9,436.4L477.9,436.4L477.9,436.4L477.9,436.4L477.9,436.4L477.9,436.4L477.9,436.4L477.9,436.4L477.9,436.4L477.9,436.4L477.9,436.4L477.9,436.4L477.9,436.4L477.9,436.4L477.9,436.4L477.9,436.4C477.9,436.4,476.9,435,477.9,436.4C478.9,437.8,476.7,436,477.9,436.4C479.1,436.8,477.9,436.4,477.9,436.4'); } 3.3333% { d: path('M477.9,436.4C477.9,436.4,480.5,400.4,481.2,396.6C483.4,401.3,474.9,391.9,481.2,396.6C481.2,388.3,481.2,396.6,481.2,396.6L481.2,396.6L481.2,396.6L481.2,396.6L481.2,396.6L481.2,396.6L481.2,396.6L481.2,396.6L481.2,396.6L481.2,396.6L481.2,396.6L481.2,396.6L481.2,396.6L481.2,396.6L481.2,396.6L481.2,396.6L481.2,396.6L481.2,396.6L481.2,396.6L481.2,396.6L481.2,396.6L481.2,396.6L481.2,396.6L481.2,396.6L481.2,396.6C481.2,396.6,480.2,395.2,481.2,396.6C482.2,398,480,396.2,481.2,396.6C482.4,397,481.2,396.6,481.2,396.6'); } 6.6667% { d: path('M477.9,436.4C477.9,436.4,480.5,400.4,481.2,396.6C483.4,401.3,489.5,414.3,495.8,419C495.8,410.7,495.8,419,495.8,419L495.8,419L495.8,419L495.8,419L495.8,419L495.8,419L495.8,419L495.8,419L495.8,419L495.8,419L495.8,419L495.8,419L495.8,419L495.8,419L495.8,419L495.8,419L495.8,419L495.8,419L495.8,419L495.8,419L495.8,419L495.8,419L495.8,419L495.8,419L495.8,419C495.8,419,494.8,417.6,495.8,419C496.8,420.4,494.6,418.6,495.8,419C497,419.4,495.8,419,495.8,419'); } 10% { d: path('M477.9,436.4C477.9,436.4,480.5,400.4,481.2,396.6C483.4,401.3,489.5,414.3,495.8,419C495.8,410.7,497.4,381.8,497.4,381.8L497.4,381.8L497.4,381.8L497.4,381.8L497.4,381.8L497.4,381.8L497.4,381.8L497.4,381.8L497.4,381.8L497.4,381.8L497.4,381.8L497.4,381.8L497.4,381.8L497.4,381.8L497.4,381.8L497.4,381.8L497.4,381.8L497.4,381.8L497.4,381.8L497.4,381.8L497.4,381.8L497.4,381.8L497.4,381.8L497.4,381.8L497.4,381.8C497.4,381.8,496.4,380.4,497.4,381.8C498.4,383.2,496.2,381.4,497.4,381.8C498.6,382.2,497.4,381.8,497.4,381.8'); } 13.3333% { d: path('M477.9,436.4C477.9,436.4,480.5,400.4,481.2,396.6C483.4,401.3,489.5,414.3,495.8,419C495.8,410.7,497.4,381.8,497.4,381.8L511.5,412.1L511.5,412.1L511.5,412.1L511.5,412.1L511.5,412.1L511.5,412.1L511.5,412.1L511.5,412.1L511.5,412.1L511.5,412.1L511.5,412.1L511.5,412.1L511.5,412.1L511.5,412.1L511.5,412.1L511.5,412.1L511.5,412.1L511.5,412.1L511.5,412.1L511.5,412.1L511.5,412.1L511.5,412.1L511.5,412.1L511.5,412.1C511.5,412.1,510.5,410.7,511.5,412.1C512.5,413.5,510.3,411.7,511.5,412.1C512.7,412.5,511.5,412.1,511.5,412.1'); } 16.6667% { d: path('M477.9,436.4C477.9,436.4,480.5,400.4,481.2,396.6C483.4,401.3,489.5,414.3,495.8,419C495.8,410.7,497.4,381.8,497.4,381.8L511.5,412.1L513.7,378.6L513.7,378.6L513.7,378.6L513.7,378.6L513.7,378.6L513.7,378.6L513.7,378.6L513.7,378.6L513.7,378.6L513.7,378.6L513.7,378.6L513.7,378.6L513.7,378.6L513.7,378.6L513.7,378.6L513.7,378.6L513.7,378.6L513.7,378.6L513.7,378.6L513.7,378.6L513.7,378.6L513.7,378.6L513.7,378.6C513.7,378.6,512.7,377.2,513.7,378.6C514.7,380,512.5,378.2,513.7,378.6C514.9,379,513.7,378.6,513.7,378.6'); } 20% { d: path('M477.9,436.4C477.9,436.4,480.5,400.4,481.2,396.6C483.4,401.3,489.5,414.3,495.8,419C495.8,410.7,497.4,381.8,497.4,381.8L511.5,412.1L513.7,378.6L528.1,412.3L528.1,412.3L528.1,412.3L528.1,412.3L528.1,412.3L528.1,412.3L528.1,412.3L528.1,412.3L528.1,412.3L528.1,412.3L528.1,412.3L528.1,412.3L528.1,412.3L528.1,412.3L528.1,412.3L528.1,412.3L528.1,412.3L528.1,412.3L528.1,412.3L528.1,412.3L528.1,412.3L528.1,412.3C528.1,412.3,527.1,410.9,528.1,412.3C529.1,413.7,526.9,411.9,528.1,412.3C529.3,412.7,528.1,412.3,528.1,412.3'); } 23.3333% { d: path('M477.9,436.4C477.9,436.4,480.5,400.4,481.2,396.6C483.4,401.3,489.5,414.3,495.8,419C495.8,410.7,497.4,381.8,497.4,381.8L511.5,412.1L513.7,378.6L528.1,412.3L529.3,375.3L529.3,375.3L529.3,375.3L529.3,375.3L529.3,375.3L529.3,375.3L529.3,375.3L529.3,375.3L529.3,375.3L529.3,375.3L529.3,375.3L529.3,375.3L529.3,375.3L529.3,375.3L529.3,375.3L529.3,375.3L529.3,375.3L529.3,375.3L529.3,375.3L529.3,375.3L529.3,375.3C529.3,375.3,528.3,373.9,529.3,375.3C530.3,376.7,528.1,374.9,529.3,375.3C530.5,375.7,529.3,375.3,529.3,375.3'); } 26.6667% { d: path('M477.9,436.4C477.9,436.4,480.5,400.4,481.2,396.6C483.4,401.3,489.5,414.3,495.8,419C495.8,410.7,497.4,381.8,497.4,381.8L511.5,412.1L513.7,378.6L528.1,412.3L529.3,375.3L545.2,411.1L545.2,411.1L545.2,411.1L545.2,411.1L545.2,411.1L545.2,411.1L545.2,411.1L545.2,411.1L545.2,411.1L545.2,411.1L545.2,411.1L545.2,411.1L545.2,411.1L545.2,411.1L545.2,411.1L545.2,411.1L545.2,411.1L545.2,411.1L545.2,411.1L545.2,411.1C545.2,411.1,544.2,409.7,545.2,411.1C546.2,412.5,544,410.7,545.2,411.1C546.4,411.5,545.2,411.1,545.2,411.1'); } 30% { d: path('M477.9,436.4C477.9,436.4,480.5,400.4,481.2,396.6C483.4,401.3,489.5,414.3,495.8,419C495.8,410.7,497.4,381.8,497.4,381.8L511.5,412.1L513.7,378.6L528.1,412.3L529.3,375.3L545.2,411.1L545.8,375.9L545.8,375.9L545.8,375.9L545.8,375.9L545.8,375.9L545.8,375.9L545.8,375.9L545.8,375.9L545.8,375.9L545.8,375.9L545.8,375.9L545.8,375.9L545.8,375.9L545.8,375.9L545.8,375.9L545.8,375.9L545.8,375.9L545.8,375.9L545.8,375.9C545.8,375.9,544.8,374.5,545.8,375.9C546.8,377.3,544.6,375.5,545.8,375.9C547,376.3,545.8,375.9,545.8,375.9'); } 33.3333% { d: path('M477.9,436.4C477.9,436.4,480.5,400.4,481.2,396.6C483.4,401.3,489.5,414.3,495.8,419C495.8,410.7,497.4,381.8,497.4,381.8L511.5,412.1L513.7,378.6L528.1,412.3L529.3,375.3L545.2,411.1L545.8,375.9L560.2,408.8L560.2,408.8L560.2,408.8L560.2,408.8L560.2,408.8L560.2,408.8L560.2,408.8L560.2,408.8L560.2,408.8L560.2,408.8L560.2,408.8L560.2,408.8L560.2,408.8L560.2,408.8L560.2,408.8L560.2,408.8L560.2,408.8L560.2,408.8C560.2,408.8,559.2,407.4,560.2,408.8C561.2,410.2,559,408.4,560.2,408.8C561.4,409.2,560.2,408.8,560.2,408.8'); } 36.6667% { d: path('M477.9,436.4C477.9,436.4,480.5,400.4,481.2,396.6C483.4,401.3,489.5,414.3,495.8,419C495.8,410.7,497.4,381.8,497.4,381.8L511.5,412.1L513.7,378.6L528.1,412.3L529.3,375.3L545.2,411.1L545.8,375.9L560.2,408.8L562.8,375.7L562.8,375.7L562.8,375.7L562.8,375.7L562.8,375.7L562.8,375.7L562.8,375.7L562.8,375.7L562.8,375.7L562.8,375.7L562.8,375.7L562.8,375.7L562.8,375.7L562.8,375.7L562.8,375.7L562.8,375.7L562.8,375.7C562.8,375.7,561.8,374.3,562.8,375.7C563.8,377.1,561.6,375.3,562.8,375.7C564,376.1,562.8,375.7,562.8,375.7'); } 40% { d: path('M477.9,436.4C477.9,436.4,480.5,400.4,481.2,396.6C483.4,401.3,489.5,414.3,495.8,419C495.8,410.7,497.4,381.8,497.4,381.8L511.5,412.1L513.7,378.6L528.1,412.3L529.3,375.3L545.2,411.1L545.8,375.9L560.2,408.8L562.8,375.7L576.6,410.2L576.6,410.2L576.6,410.2L576.6,410.2L576.6,410.2L576.6,410.2L576.6,410.2L576.6,410.2L576.6,410.2L576.6,410.2L576.6,410.2L576.6,410.2L576.6,410.2L576.6,410.2L576.6,410.2L576.6,410.2C576.6,410.2,575.6,408.8,576.6,410.2C577.6,411.6,575.4,409.8,576.6,410.2C577.8,410.6,576.6,410.2,576.6,410.2'); } 43.3333% { d: path('M477.9,436.4C477.9,436.4,480.5,400.4,481.2,396.6C483.4,401.3,489.5,414.3,495.8,419C495.8,410.7,497.4,381.8,497.4,381.8L511.5,412.1L513.7,378.6L528.1,412.3L529.3,375.3L545.2,411.1L545.8,375.9L560.2,408.8L562.8,375.7L576.6,410.2L577.6,375L577.6,375L577.6,375L577.6,375L577.6,375L577.6,375L577.6,375L577.6,375L577.6,375L577.6,375L577.6,375L577.6,375L577.6,375L577.6,375L577.6,375C577.6,375,576.6,373.6,577.6,375C578.6,376.4,576.4,374.6,577.6,375C578.8,375.4,577.6,375,577.6,375'); } 46.6667% { d: path('M477.9,436.4C477.9,436.4,480.5,400.4,481.2,396.6C483.4,401.3,489.5,414.3,495.8,419C495.8,410.7,497.4,381.8,497.4,381.8L511.5,412.1L513.7,378.6L528.1,412.3L529.3,375.3L545.2,411.1L545.8,375.9L560.2,408.8L562.8,375.7L576.6,410.2L577.6,375L592.9,409.3L592.9,409.3L592.9,409.3L592.9,409.3L592.9,409.3L592.9,409.3L592.9,409.3L592.9,409.3L592.9,409.3L592.9,409.3L592.9,409.3L592.9,409.3L592.9,409.3L592.9,409.3C592.9,409.3,591.9,407.9,592.9,409.3C593.9,410.7,591.7,408.9,592.9,409.3C594.1,409.7,592.9,409.3,592.9,409.3'); } 50% { d: path('M477.9,436.4C477.9,436.4,480.5,400.4,481.2,396.6C483.4,401.3,489.5,414.3,495.8,419C495.8,410.7,497.4,381.8,497.4,381.8L511.5,412.1L513.7,378.6L528.1,412.3L529.3,375.3L545.2,411.1L545.8,375.9L560.2,408.8L562.8,375.7L576.6,410.2L577.6,375L592.9,409.3L594.2,373.5L594.2,373.5L594.2,373.5L594.2,373.5L594.2,373.5L594.2,373.5L594.2,373.5L594.2,373.5L594.2,373.5L594.2,373.5L594.2,373.5L594.2,373.5L594.2,373.5C594.2,373.5,593.2,372.1,594.2,373.5C595.2,374.9,593,373.1,594.2,373.5C595.4,373.9,594.2,373.5,594.2,373.5'); } 53.3333% { d: path('M477.9,436.4C477.9,436.4,480.5,400.4,481.2,396.6C483.4,401.3,489.5,414.3,495.8,419C495.8,410.7,497.4,381.8,497.4,381.8L511.5,412.1L513.7,378.6L528.1,412.3L529.3,375.3L545.2,411.1L545.8,375.9L560.2,408.8L562.8,375.7L576.6,410.2L577.6,375L592.9,409.3L594.2,373.5L609.2,408.9L609.2,408.9L609.2,408.9L609.2,408.9L609.2,408.9L609.2,408.9L609.2,408.9L609.2,408.9L609.2,408.9L609.2,408.9L609.2,408.9L609.2,408.9C609.2,408.9,608.2,407.5,609.2,408.9C610.2,410.3,608,408.5,609.2,408.9C610.4,409.3,609.2,408.9,609.2,408.9'); } 56.6667% { d: path('M477.9,436.4C477.9,436.4,480.5,400.4,481.2,396.6C483.4,401.3,489.5,414.3,495.8,419C495.8,410.7,497.4,381.8,497.4,381.8L511.5,412.1L513.7,378.6L528.1,412.3L529.3,375.3L545.2,411.1L545.8,375.9L560.2,408.8L562.8,375.7L576.6,410.2L577.6,375L592.9,409.3L594.2,373.5L609.2,408.9L611,374.7L611,374.7L611,374.7L611,374.7L611,374.7L611,374.7L611,374.7L611,374.7L611,374.7L611,374.7L611,374.7C611,374.7,610,373.3,611,374.7C612,376.1,609.8,374.3,611,374.7C612.2,375.1,611,374.7,611,374.7'); } 60% { d: path('M477.9,436.4C477.9,436.4,480.5,400.4,481.2,396.6C483.4,401.3,489.5,414.3,495.8,419C495.8,410.7,497.4,381.8,497.4,381.8L511.5,412.1L513.7,378.6L528.1,412.3L529.3,375.3L545.2,411.1L545.8,375.9L560.2,408.8L562.8,375.7L576.6,410.2L577.6,375L592.9,409.3L594.2,373.5L609.2,408.9L611,374.7L625.2,411.2L625.2,411.2L625.2,411.2L625.2,411.2L625.2,411.2L625.2,411.2L625.2,411.2L625.2,411.2L625.2,411.2L625.2,411.2C625.2,411.2,624.2,409.8,625.2,411.2C626.2,412.6,624,410.8,625.2,411.2C626.4,411.6,625.2,411.2,625.2,411.2'); } 63.3333% { d: path('M477.9,436.4C477.9,436.4,480.5,400.4,481.2,396.6C483.4,401.3,489.5,414.3,495.8,419C495.8,410.7,497.4,381.8,497.4,381.8L511.5,412.1L513.7,378.6L528.1,412.3L529.3,375.3L545.2,411.1L545.8,375.9L560.2,408.8L562.8,375.7L576.6,410.2L577.6,375L592.9,409.3L594.2,373.5L609.2,408.9L611,374.7L625.2,411.2L627,374.5L627,374.5L627,374.5L627,374.5L627,374.5L627,374.5L627,374.5L627,374.5L627,374.5C627,374.5,626,373.1,627,374.5C628,375.9,625.8,374.1,627,374.5C628.2,374.9,627,374.5,627,374.5'); } 66.6667% { d: path('M477.9,436.4C477.9,436.4,480.5,400.4,481.2,396.6C483.4,401.3,489.5,414.3,495.8,419C495.8,410.7,497.4,381.8,497.4,381.8L511.5,412.1L513.7,378.6L528.1,412.3L529.3,375.3L545.2,411.1L545.8,375.9L560.2,408.8L562.8,375.7L576.6,410.2L577.6,375L592.9,409.3L594.2,373.5L609.2,408.9L611,374.7L625.2,411.2L627,374.5L641.8,410.1L641.8,410.1L641.8,410.1L641.8,410.1L641.8,410.1L641.8,410.1L641.8,410.1L641.8,410.1C641.8,410.1,640.8,408.7,641.8,410.1C642.8,411.5,640.6,409.7,641.8,410.1C643,410.5,641.8,410.1,641.8,410.1'); } 70% { d: path('M477.9,436.4C477.9,436.4,480.5,400.4,481.2,396.6C483.4,401.3,489.5,414.3,495.8,419C495.8,410.7,497.4,381.8,497.4,381.8L511.5,412.1L513.7,378.6L528.1,412.3L529.3,375.3L545.2,411.1L545.8,375.9L560.2,408.8L562.8,375.7L576.6,410.2L577.6,375L592.9,409.3L594.2,373.5L609.2,408.9L611,374.7L625.2,411.2L627,374.5L641.8,410.1L642.8,374.7L642.8,374.7L642.8,374.7L642.8,374.7L642.8,374.7L642.8,374.7L642.8,374.7C642.8,374.7,641.8,373.3,642.8,374.7C643.8,376.1,641.6,374.3,642.8,374.7C644,375.1,642.8,374.7,642.8,374.7'); } 73.3333% { d: path('M477.9,436.4C477.9,436.4,480.5,400.4,481.2,396.6C483.4,401.3,489.5,414.3,495.8,419C495.8,410.7,497.4,381.8,497.4,381.8L511.5,412.1L513.7,378.6L528.1,412.3L529.3,375.3L545.2,411.1L545.8,375.9L560.2,408.8L562.8,375.7L576.6,410.2L577.6,375L592.9,409.3L594.2,373.5L609.2,408.9L611,374.7L625.2,411.2L627,374.5L641.8,410.1L642.8,374.7L657.6,410.7L657.6,410.7L657.6,410.7L657.6,410.7L657.6,410.7L657.6,410.7C657.6,410.7,656.6,409.3,657.6,410.7C658.6,412.1,656.4,410.3,657.6,410.7C658.8,411.1,657.6,410.7,657.6,410.7'); } 76.6667% { d: path('M477.9,436.4C477.9,436.4,480.5,400.4,481.2,396.6C483.4,401.3,489.5,414.3,495.8,419C495.8,410.7,497.4,381.8,497.4,381.8L511.5,412.1L513.7,378.6L528.1,412.3L529.3,375.3L545.2,411.1L545.8,375.9L560.2,408.8L562.8,375.7L576.6,410.2L577.6,375L592.9,409.3L594.2,373.5L609.2,408.9L611,374.7L625.2,411.2L627,374.5L641.8,410.1L642.8,374.7L657.6,410.7L659.4,372.9L659.4,372.9L659.4,372.9L659.4,372.9L659.4,372.9C659.4,372.9,658.4,371.5,659.4,372.9C660.4,374.3,658.2,372.5,659.4,372.9C660.6,373.3,659.4,372.9,659.4,372.9'); } 80% { d: path('M477.9,436.4C477.9,436.4,480.5,400.4,481.2,396.6C483.4,401.3,489.5,414.3,495.8,419C495.8,410.7,497.4,381.8,497.4,381.8L511.5,412.1L513.7,378.6L528.1,412.3L529.3,375.3L545.2,411.1L545.8,375.9L560.2,408.8L562.8,375.7L576.6,410.2L577.6,375L592.9,409.3L594.2,373.5L609.2,408.9L611,374.7L625.2,411.2L627,374.5L641.8,410.1L642.8,374.7L657.6,410.7L659.4,372.9L673.4,410.9L673.4,410.9L673.4,410.9L673.4,410.9C673.4,410.9,672.4,409.5,673.4,410.9C674.4,412.3,672.2,410.5,673.4,410.9C674.6,411.3,673.4,410.9,673.4,410.9'); } 83.3333% { d: path('M477.9,436.4C477.9,436.4,480.5,400.4,481.2,396.6C483.4,401.3,489.5,414.3,495.8,419C495.8,410.7,497.4,381.8,497.4,381.8L511.5,412.1L513.7,378.6L528.1,412.3L529.3,375.3L545.2,411.1L545.8,375.9L560.2,408.8L562.8,375.7L576.6,410.2L577.6,375L592.9,409.3L594.2,373.5L609.2,408.9L611,374.7L625.2,411.2L627,374.5L641.8,410.1L642.8,374.7L657.6,410.7L659.4,372.9L673.4,410.9L675,373.1L675,373.1L675,373.1C675,373.1,674,371.7,675,373.1C676,374.5,673.8,372.7,675,373.1C676.2,373.5,675,373.1,675,373.1'); } 86.6667% { d: path('M477.9,436.4C477.9,436.4,480.5,400.4,481.2,396.6C483.4,401.3,489.5,414.3,495.8,419C495.8,410.7,497.4,381.8,497.4,381.8L511.5,412.1L513.7,378.6L528.1,412.3L529.3,375.3L545.2,411.1L545.8,375.9L560.2,408.8L562.8,375.7L576.6,410.2L577.6,375L592.9,409.3L594.2,373.5L609.2,408.9L611,374.7L625.2,411.2L627,374.5L641.8,410.1L642.8,374.7L657.6,410.7L659.4,372.9L673.4,410.9L675,373.1L689.3,411.5L689.3,411.5C689.3,411.5,688.3,410.1,689.3,411.5C690.3,412.9,688.1,411.1,689.3,411.5C690.5,411.9,689.3,411.5,689.3,411.5'); } 90% { d: path('M477.9,436.4C477.9,436.4,480.5,400.4,481.2,396.6C483.4,401.3,489.5,414.3,495.8,419C495.8,410.7,497.4,381.8,497.4,381.8L511.5,412.1L513.7,378.6L528.1,412.3L529.3,375.3L545.2,411.1L545.8,375.9L560.2,408.8L562.8,375.7L576.6,410.2L577.6,375L592.9,409.3L594.2,373.5L609.2,408.9L611,374.7L625.2,411.2L627,374.5L641.8,410.1L642.8,374.7L657.6,410.7L659.4,372.9L673.4,410.9L675,373.1L689.3,411.5L691.5,372.5C691.5,372.5,690.5,371.1,691.5,372.5C692.5,373.9,690.3,372.1,691.5,372.5C692.7,372.9,691.5,372.5,691.5,372.5'); } 93.3333% { d: path('M477.9,436.4C477.9,436.4,480.5,400.4,481.2,396.6C483.4,401.3,489.5,414.3,495.8,419C495.8,410.7,497.4,381.8,497.4,381.8L511.5,412.1L513.7,378.6L528.1,412.3L529.3,375.3L545.2,411.1L545.8,375.9L560.2,408.8L562.8,375.7L576.6,410.2L577.6,375L592.9,409.3L594.2,373.5L609.2,408.9L611,374.7L625.2,411.2L627,374.5L641.8,410.1L642.8,374.7L657.6,410.7L659.4,372.9L673.4,410.9L675,373.1L689.3,411.5L691.5,372.5C691.5,372.5,704.9,407.9,705.9,409.3C706.9,410.7,704.7,408.9,705.9,409.3C707.1,409.7,705.9,409.3,705.9,409.3'); } 96.6667% { d: path('M477.9,436.4C477.9,436.4,480.5,400.4,481.2,396.6C483.4,401.3,489.5,414.3,495.8,419C495.8,410.7,497.4,381.8,497.4,381.8L511.5,412.1L513.7,378.6L528.1,412.3L529.3,375.3L545.2,411.1L545.8,375.9L560.2,408.8L562.8,375.7L576.6,410.2L577.6,375L592.9,409.3L594.2,373.5L609.2,408.9L611,374.7L625.2,411.2L627,374.5L641.8,410.1L642.8,374.7L657.6,410.7L659.4,372.9L673.4,410.9L675,373.1L689.3,411.5L691.5,372.5C691.5,372.5,704.9,407.9,705.9,409.3C706.9,410.7,721.8,426.6,723,427C724.2,427.4,723,427,723,427'); } 100% { d: path('M477.9,436.4C477.9,436.4,480.5,400.4,481.2,396.6C483.4,401.3,489.5,414.3,495.8,419C495.8,410.7,497.4,381.8,497.4,381.8L511.5,412.1L513.7,378.6L528.1,412.3L529.3,375.3L545.2,411.1L545.8,375.9L560.2,408.8L562.8,375.7L576.6,410.2L577.6,375L592.9,409.3L594.2,373.5L609.2,408.9L611,374.7L625.2,411.2L627,374.5L641.8,410.1L642.8,374.7L657.6,410.7L659.4,372.9L673.4,410.9L675,373.1L689.3,411.5L691.5,372.5C691.5,372.5,704.9,407.9,705.9,409.3C706.9,410.7,721.8,426.6,723,427C724.2,427.4,745.4,432.9,745.4,432.9'); } }
    </style>
    <g class="st0">
        <path class="st1" d="M293.2,294.7C293.4,294.7,293.6,294.6,293.7,294.6C293.9,294.6,294,294.6,294.2,294.6C294.7,294.6,295,294.7,295.4,294.8C295.7,294.9,296,295.1,296.3,295.4C296.6,295.7,296.7,295.9,296.8,296.2C296.9,296.5,297,296.9,297,297.2C297,297.7,296.9,298.1,296.8,298.4C296.7,298.7,296.4,299.1,296.1,299.4C295.8,299.7,295.5,299.9,295.1,300C294.7,300.1,294.3,300.2,293.8,300.2C293.5,300.2,293.3,300.2,293,300.1C292.7,300,292.5,300,292.3,299.9C292.1,299.8,291.9,299.7,291.7,299.6C291.5,299.5,291.4,299.4,291.2,299.2L291.7,298.6C291.8,298.5,291.9,298.4,292.1,298.4C292.2,298.4,292.3,298.4,292.4,298.5C292.5,298.6,292.6,298.6,292.8,298.7C292.9,298.8,293.1,298.8,293.3,298.9C293.5,299,293.7,299,293.9,299C294.2,299,294.4,299,294.6,298.9C294.8,298.8,295,298.7,295.1,298.5C295.2,298.3,295.3,298.2,295.4,297.9C295.5,297.7,295.5,297.4,295.5,297.2C295.5,296.7,295.4,296.4,295.1,296.1C294.8,295.8,294.4,295.7,293.9,295.7C293.5,295.7,293.1,295.8,292.6,295.9L291.7,295.6L292.4,291.4L296.6,291.4L296.6,292C296.6,292.2,296.5,292.4,296.4,292.5C296.3,292.6,296,292.7,295.7,292.7L293.3,292.7L293.2,294.7Z" fill="#FFFFFF"/>
    </g>
    <g class="st0">
        <path class="st1" d="M306.4,291.4L306.4,300.2L305.5,300.2C305.3,300.2,305.2,300.1,305.1,299.9L305,299.3C304.8,299.6,304.5,299.8,304.2,300C303.9,300.2,303.5,300.3,303.1,300.3C302.8,300.3,302.5,300.2,302.2,300.1C301.9,300,301.7,299.8,301.5,299.5C301.3,299.2,301.1,298.9,301,298.5C300.9,298.1,300.8,297.7,300.8,297.2C300.8,296.7,300.9,296.3,301,295.9C301.1,295.5,301.3,295.2,301.5,294.9C301.7,294.6,302,294.4,302.3,294.2C302.6,294,303,294,303.4,294C303.7,294,304,294.1,304.3,294.2C304.6,294.3,304.8,294.5,304.9,294.6L304.9,291.4L306.4,291.4ZM304.9,295.7C304.7,295.5,304.6,295.4,304.4,295.3C304.2,295.2,304,295.2,303.8,295.2C303.6,295.2,303.4,295.2,303.2,295.3C303,295.4,302.9,295.5,302.7,295.7C302.6,295.9,302.5,296.1,302.4,296.3C302.3,296.5,302.3,296.9,302.3,297.2C302.3,297.6,302.3,297.9,302.4,298.1C302.5,298.3,302.5,298.5,302.6,298.7C302.7,298.9,302.8,299,303,299C303.2,299.1,303.3,299.1,303.5,299.1C303.8,299.1,304.1,299,304.3,298.9C304.5,298.8,304.7,298.6,304.9,298.4L304.9,295.7Z" fill="#FFFFFF"/>
    </g>
    <g class="st0">
        <path class="st1" d="M307.2,295C307.9,294.4,308.7,294,309.7,294C310.1,294,310.4,294.1,310.7,294.2C311,294.3,311.2,294.5,311.4,294.7C311.6,294.9,311.7,295.2,311.8,295.4C311.9,295.7,312,296,312,296.3L312,300.1L311.3,300.1C311.2,300.1,311.1,300.1,311,300C310.9,300,310.9,299.9,310.8,299.7L310.7,299.3C310.5,299.4,310.4,299.6,310.2,299.7C310.1,299.8,309.9,299.9,309.7,300C309.5,300.1,309.4,300.1,309.2,300.2C309,300.2,308.8,300.3,308.6,300.3C308.3,300.3,308.1,300.3,307.9,300.2C307.7,300.1,307.5,300,307.3,299.9C307.1,299.8,307,299.6,306.9,299.4C306.8,299.2,306.8,299,306.8,298.7C306.8,298.5,306.8,298.4,306.9,298.2C307,298,307,297.9,307.2,297.8C307.3,297.7,307.5,297.5,307.7,297.4C307.9,297.3,308.1,297.2,308.4,297.1C308.7,297,309,296.9,309.3,296.9C309.6,296.9,310.1,296.8,310.5,296.8L310.5,296.4C310.5,296,310.4,295.7,310.2,295.5C310,295.3,309.8,295.2,309.4,295.2C309.2,295.2,309,295.2,308.8,295.3C308.6,295.4,308.5,295.4,308.4,295.5C308.3,295.6,308.2,295.6,308.1,295.7C308,295.8,307.9,295.8,307.8,295.8C307.7,295.8,307.6,295.8,307.5,295.7C307.4,295.6,307.4,295.6,307.3,295.5L307.2,295ZM310.6,297.6C310.2,297.6,309.8,297.7,309.5,297.7C309.2,297.7,309,297.8,308.8,297.9C308.6,298,308.5,298.1,308.4,298.2C308.3,298.3,308.3,298.4,308.3,298.6C308.3,298.9,308.4,299,308.5,299.2C308.7,299.3,308.9,299.4,309.1,299.4C309.4,299.4,309.7,299.3,309.9,299.2C310.1,299.1,310.3,298.9,310.5,298.7L310.5,297.6Z" fill="#FFFFFF"/>
    </g>
    <g class="st0">
        <path class="st1" d="M318.5,294.1L315.2,301.9C315.2,302,315.1,302.1,315,302.1C314.9,302.2,314.8,302.2,314.7,302.2L313.6,302.2L314.7,299.8L312.2,294.2L313.5,294.2C313.6,294.2,313.7,294.2,313.8,294.3C313.9,294.4,313.9,294.4,313.9,294.5L315.2,297.7C315.2,297.8,315.3,297.9,315.3,298C315.3,298.1,315.4,298.2,315.4,298.3C315.4,298.2,315.5,298.1,315.5,298C315.5,297.9,315.6,297.8,315.6,297.7L316.8,294.6C316.8,294.5,316.9,294.5,317,294.4C317.1,294.3,317.2,294.3,317.2,294.3L318.5,294.3Z" fill="#FFFFFF"/>
    </g>
    <g class="st0">
        <path class="st1" d="M322.6,295.3C322.6,295.4,322.5,295.4,322.5,295.4C322.5,295.4,322.4,295.4,322.3,295.4C322.2,295.4,322.2,295.4,322.1,295.3C322,295.3,321.9,295.2,321.8,295.2C321.7,295.2,321.6,295.1,321.4,295.1C321.3,295.1,321.1,295,320.9,295C320.6,295,320.4,295.1,320.2,295.2C320,295.3,320,295.5,320,295.7C320,295.8,320,295.9,320.1,296C320.2,296.1,320.3,296.2,320.4,296.2C320.5,296.3,320.7,296.3,320.9,296.4C321.1,296.5,321.3,296.5,321.4,296.6C321.6,296.7,321.8,296.7,321.9,296.8C322.1,296.9,322.2,297,322.4,297.1C322.5,297.2,322.7,297.4,322.7,297.5C322.7,297.6,322.8,297.9,322.8,298.1C322.8,298.4,322.7,298.7,322.6,298.9C322.5,299.1,322.3,299.4,322.1,299.5C321.9,299.7,321.6,299.8,321.3,299.9C321,300,320.6,300.1,320.3,300.1C320.1,300.1,319.9,300.1,319.7,300C319.5,300,319.3,299.9,319.1,299.8C318.9,299.7,318.7,299.7,318.6,299.6C318.4,299.5,318.3,299.4,318.2,299.3L318.5,298.7C318.5,298.6,318.6,298.6,318.7,298.5C318.8,298.5,318.8,298.4,318.9,298.4C319,298.4,319.1,298.4,319.2,298.5C319.3,298.6,319.4,298.6,319.5,298.7C319.6,298.8,319.7,298.8,319.9,298.9C320,299,320.2,299,320.4,299C320.6,299,320.7,299,320.8,298.9C320.9,298.9,321,298.8,321.1,298.7C321.2,298.6,321.2,298.6,321.3,298.5C321.4,298.4,321.4,298.3,321.4,298.2C321.4,298.1,321.4,297.9,321.3,297.9C321.2,297.9,321.1,297.7,321,297.7C320.9,297.6,320.7,297.6,320.5,297.5C320.3,297.4,320.1,297.4,319.9,297.3C319.7,297.2,319.5,297.2,319.3,297.1C319.1,297,319,296.9,318.8,296.8C318.7,296.7,318.5,296.5,318.5,296.3C318.4,296.1,318.4,295.9,318.4,295.6C318.4,295.4,318.4,295.1,318.5,294.9C318.6,294.7,318.7,294.5,318.9,294.3C319.1,294.1,319.3,294,319.6,293.9C319.9,293.8,320.2,293.7,320.6,293.7C321,293.7,321.4,293.8,321.7,293.9C322,294,322.3,294.2,322.6,294.4L322.6,295.3Z" fill="#FFFFFF"/>
    </g>
    <path class="st2" d="M143.1,436.9C143.1,436.9,143.1,436.9,143.1,436.9C143.1,449.6,141.6,432.3,143.1,436.9C144.6,441.5,141.5,433.8,143.1,436.9C144.6,440.1,140.5,429.5,143.1,436.9C143.1,436.9,137.5,432.3,143.1,436.9C148.7,441.5,134,434.8,143.1,436.9C152.3,438.9,137.5,436.9,143.1,436.9C148.7,436.9,143.1,436.9,143.1,436.9" stroke-width="3.374" stroke="#EFBB50" fill="none" style="animation: 1.2s linear infinite both a0_d;"/>
    <path class="st3" d="M306.4,307.3L306.4,435.4" stroke-linecap="round" stroke="#FFFFFF" stroke-width="2.249" stroke-linejoin="round" stroke-dasharray="0,4.516" fill="none"/>
    <path class="st4" d="M477.9,436.4C477.9,436.4,477.2,440.2,477.9,436.4C480.1,441.1,471.6,431.7,477.9,436.4C477.9,428.1,477.9,436.4,477.9,436.4L477.9,436.4L477.9,436.4L477.9,436.4L477.9,436.4L477.9,436.4L477.9,436.4L477.9,436.4L477.9,436.4L477.9,436.4L477.9,436.4L477.9,436.4L477.9,436.4L477.9,436.4L477.9,436.4L477.9,436.4L477.9,436.4L477.9,436.4L477.9,436.4L477.9,436.4L477.9,436.4L477.9,436.4L477.9,436.4L477.9,436.4L477.9,436.4C477.9,436.4,476.9,435,477.9,436.4C478.9,437.8,476.7,436,477.9,436.4C479.1,436.8,477.9,436.4,477.9,436.4" stroke-linecap="round" stroke-width="2.249" stroke-linejoin="round" stroke="#CFCDCD" fill="none" style="animation: 1.2s linear infinite both a1_d;"/>
</svg>
