<?xml version="1.0" encoding="UTF-8" standalone="no"?>
<!-- Created with Keyshape -->
<svg xmlns="http://www.w3.org/2000/svg" id="Layer_1" viewBox="0 0 1366 743.3" style="white-space: preserve-spaces;">
    <g class="st0">
        <path class="st1" d="M293.2,294.7C293.4,294.7,293.6,294.6,293.7,294.6C293.9,294.6,294,294.6,294.2,294.6C294.7,294.6,295,294.7,295.4,294.8C295.7,294.9,296,295.1,296.3,295.4C296.6,295.7,296.7,295.9,296.8,296.2C296.9,296.5,297,296.9,297,297.2C297,297.7,296.9,298.1,296.8,298.4C296.7,298.7,296.4,299.1,296.1,299.4C295.8,299.7,295.5,299.9,295.1,300C294.7,300.1,294.3,300.2,293.8,300.2C293.5,300.2,293.3,300.2,293,300.1C292.7,300,292.5,300,292.3,299.9C292.1,299.8,291.9,299.7,291.7,299.6C291.5,299.5,291.4,299.4,291.2,299.2L291.7,298.6C291.8,298.5,291.9,298.4,292.1,298.4C292.2,298.4,292.3,298.4,292.4,298.5C292.5,298.6,292.6,298.6,292.8,298.7C292.9,298.8,293.1,298.8,293.3,298.9C293.5,299,293.7,299,293.9,299C294.2,299,294.4,299,294.6,298.9C294.8,298.8,295,298.7,295.1,298.5C295.2,298.3,295.3,298.2,295.4,297.9C295.5,297.7,295.5,297.4,295.5,297.2C295.5,296.7,295.4,296.4,295.1,296.1C294.8,295.8,294.4,295.7,293.9,295.7C293.5,295.7,293.1,295.8,292.6,295.9L291.7,295.6L292.4,291.4L296.6,291.4L296.6,292C296.6,292.2,296.5,292.4,296.4,292.5C296.3,292.6,296,292.7,295.7,292.7L293.3,292.7L293.2,294.7Z" fill="#FFFFFF"/>
    </g>
    <g class="st0">
        <path class="st1" d="M306.4,291.4L306.4,300.2L305.5,300.2C305.3,300.2,305.2,300.1,305.1,299.9L305,299.3C304.8,299.6,304.5,299.8,304.2,300C303.9,300.2,303.5,300.3,303.1,300.3C302.8,300.3,302.5,300.2,302.2,300.1C301.9,300,301.7,299.8,301.5,299.5C301.3,299.2,301.1,298.9,301,298.5C300.9,298.1,300.8,297.7,300.8,297.2C300.8,296.7,300.9,296.3,301,295.9C301.1,295.5,301.3,295.2,301.5,294.9C301.7,294.6,302,294.4,302.3,294.2C302.6,294,303,294,303.4,294C303.7,294,304,294.1,304.3,294.2C304.6,294.3,304.8,294.5,304.9,294.6L304.9,291.4L306.4,291.4ZM304.9,295.7C304.7,295.5,304.6,295.4,304.4,295.3C304.2,295.2,304,295.2,303.8,295.2C303.6,295.2,303.4,295.2,303.2,295.3C303,295.4,302.9,295.5,302.7,295.7C302.6,295.9,302.5,296.1,302.4,296.3C302.3,296.5,302.3,296.9,302.3,297.2C302.3,297.6,302.3,297.9,302.4,298.1C302.5,298.3,302.5,298.5,302.6,298.7C302.7,298.9,302.8,299,303,299C303.2,299.1,303.3,299.1,303.5,299.1C303.8,299.1,304.1,299,304.3,298.9C304.5,298.8,304.7,298.6,304.9,298.4L304.9,295.7Z" fill="#FFFFFF"/>
    </g>
    <g class="st0">
        <path class="st1" d="M307.2,295C307.9,294.4,308.7,294,309.7,294C310.1,294,310.4,294.1,310.7,294.2C311,294.3,311.2,294.5,311.4,294.7C311.6,294.9,311.7,295.2,311.8,295.4C311.9,295.7,312,296,312,296.3L312,300.1L311.3,300.1C311.2,300.1,311.1,300.1,311,300C310.9,300,310.9,299.9,310.8,299.7L310.7,299.3C310.5,299.4,310.4,299.6,310.2,299.7C310.1,299.8,309.9,299.9,309.7,300C309.5,300.1,309.4,300.1,309.2,300.2C309,300.2,308.8,300.3,308.6,300.3C308.3,300.3,308.1,300.3,307.9,300.2C307.7,300.1,307.5,300,307.3,299.9C307.1,299.8,307,299.6,306.9,299.4C306.8,299.2,306.8,299,306.8,298.7C306.8,298.5,306.8,298.4,306.9,298.2C307,298,307,297.9,307.2,297.8C307.3,297.7,307.5,297.5,307.7,297.4C307.9,297.3,308.1,297.2,308.4,297.1C308.7,297,309,296.9,309.3,296.9C309.6,296.9,310.1,296.8,310.5,296.8L310.5,296.4C310.5,296,310.4,295.7,310.2,295.5C310,295.3,309.8,295.2,309.4,295.2C309.2,295.2,309,295.2,308.8,295.3C308.6,295.4,308.5,295.4,308.4,295.5C308.3,295.6,308.2,295.6,308.1,295.7C308,295.8,307.9,295.8,307.8,295.8C307.7,295.8,307.6,295.8,307.5,295.7C307.4,295.6,307.4,295.6,307.3,295.5L307.2,295ZM310.6,297.6C310.2,297.6,309.8,297.7,309.5,297.7C309.2,297.7,309,297.8,308.8,297.9C308.6,298,308.5,298.1,308.4,298.2C308.3,298.3,308.3,298.4,308.3,298.6C308.3,298.9,308.4,299,308.5,299.2C308.7,299.3,308.9,299.4,309.1,299.4C309.4,299.4,309.7,299.3,309.9,299.2C310.1,299.1,310.3,298.9,310.5,298.7L310.5,297.6Z" fill="#FFFFFF"/>
    </g>
    <g class="st0">
        <path class="st1" d="M318.5,294.1L315.2,301.9C315.2,302,315.1,302.1,315,302.1C314.9,302.2,314.8,302.2,314.7,302.2L313.6,302.2L314.7,299.8L312.2,294.2L313.5,294.2C313.6,294.2,313.7,294.2,313.8,294.3C313.9,294.4,313.9,294.4,313.9,294.5L315.2,297.7C315.2,297.8,315.3,297.9,315.3,298C315.3,298.1,315.4,298.2,315.4,298.3C315.4,298.2,315.5,298.1,315.5,298C315.5,297.9,315.6,297.8,315.6,297.7L316.8,294.6C316.8,294.5,316.9,294.5,317,294.4C317.1,294.3,317.2,294.3,317.2,294.3L318.5,294.3Z" fill="#FFFFFF"/>
    </g>
    <g class="st0">
        <path class="st1" d="M322.6,295.3C322.6,295.4,322.5,295.4,322.5,295.4C322.5,295.4,322.4,295.4,322.3,295.4C322.2,295.4,322.2,295.4,322.1,295.3C322,295.3,321.9,295.2,321.8,295.2C321.7,295.2,321.6,295.1,321.4,295.1C321.3,295.1,321.1,295,320.9,295C320.6,295,320.4,295.1,320.2,295.2C320,295.3,320,295.5,320,295.7C320,295.8,320,295.9,320.1,296C320.2,296.1,320.3,296.2,320.4,296.2C320.5,296.3,320.7,296.3,320.9,296.4C321.1,296.5,321.3,296.5,321.4,296.6C321.6,296.7,321.8,296.7,321.9,296.8C322.1,296.9,322.2,297,322.4,297.1C322.5,297.2,322.7,297.4,322.7,297.5C322.7,297.6,322.8,297.9,322.8,298.1C322.8,298.4,322.7,298.7,322.6,298.9C322.5,299.1,322.3,299.4,322.1,299.5C321.9,299.7,321.6,299.8,321.3,299.9C321,300,320.6,300.1,320.3,300.1C320.1,300.1,319.9,300.1,319.7,300C319.5,300,319.3,299.9,319.1,299.8C318.9,299.7,318.7,299.7,318.6,299.6C318.4,299.5,318.3,299.4,318.2,299.3L318.5,298.7C318.5,298.6,318.6,298.6,318.7,298.5C318.8,298.5,318.8,298.4,318.9,298.4C319,298.4,319.1,298.4,319.2,298.5C319.3,298.6,319.4,298.6,319.5,298.7C319.6,298.8,319.7,298.8,319.9,298.9C320,299,320.2,299,320.4,299C320.6,299,320.7,299,320.8,298.9C320.9,298.9,321,298.8,321.1,298.7C321.2,298.6,321.2,298.6,321.3,298.5C321.4,298.4,321.4,298.3,321.4,298.2C321.4,298.1,321.4,297.9,321.3,297.9C321.2,297.9,321.1,297.7,321,297.7C320.9,297.6,320.7,297.6,320.5,297.5C320.3,297.4,320.1,297.4,319.9,297.3C319.7,297.2,319.5,297.2,319.3,297.1C319.1,297,319,296.9,318.8,296.8C318.7,296.7,318.5,296.5,318.5,296.3C318.4,296.1,318.4,295.9,318.4,295.6C318.4,295.4,318.4,295.1,318.5,294.9C318.6,294.7,318.7,294.5,318.9,294.3C319.1,294.1,319.3,294,319.6,293.9C319.9,293.8,320.2,293.7,320.6,293.7C321,293.7,321.4,293.8,321.7,293.9C322,294,322.3,294.2,322.6,294.4L322.6,295.3Z" fill="#FFFFFF"/>
    </g>
    <path id="_a0" class="st2" d="M143.1,436.9C143.1,436.9,143.1,436.9,143.1,436.9C143.1,449.6,141.6,432.3,143.1,436.9C144.6,441.5,141.5,433.8,143.1,436.9C144.6,440.1,140.5,429.5,143.1,436.9C143.1,436.9,137.5,432.3,143.1,436.9C148.7,441.5,134,434.8,143.1,436.9C152.3,438.9,137.5,436.9,143.1,436.9C148.7,436.9,143.1,436.9,143.1,436.9" stroke-width="3.374" stroke="#EFBB50" fill="none"/>
    <path class="st3" d="M306.4,307.3L306.4,435.4" stroke-linecap="round" stroke="#FFFFFF" stroke-width="2.249" stroke-linejoin="round" stroke-dasharray="0,4.516" fill="none"/>
    <path id="_a1" class="st4" d="M477.9,436.4C477.9,436.4,477.2,440.2,477.9,436.4C480.1,441.1,471.6,431.7,477.9,436.4C477.9,428.1,477.9,436.4,477.9,436.4L477.9,436.4L477.9,436.4L477.9,436.4L477.9,436.4L477.9,436.4L477.9,436.4L477.9,436.4L477.9,436.4L477.9,436.4L477.9,436.4L477.9,436.4L477.9,436.4L477.9,436.4L477.9,436.4L477.9,436.4L477.9,436.4L477.9,436.4L477.9,436.4L477.9,436.4L477.9,436.4L477.9,436.4L477.9,436.4L477.9,436.4L477.9,436.4C477.9,436.4,476.9,435,477.9,436.4C478.9,437.8,476.7,436,477.9,436.4C479.1,436.8,477.9,436.4,477.9,436.4" stroke-linecap="round" stroke-width="2.249" stroke-linejoin="round" stroke="#CFCDCD" fill="none"/>
    <script><![CDATA[/*
 KeyshapeJS v1.1.0 (c) 2018-2019 Pixofield Ltd | pixofield.com/keyshapejs/mit-license */
window.KeyshapeJS=function(){function t(a){return"undefined"!==typeof a}function x(a,b){return a&&0==a.indexOf(b)}function H(a){if(!isFinite(a))throw Error("Non-finite value");}function R(a){if(14>=a)return 16;var b=S[a];b||(b=t(ca[a])?0|(a.toLowerCase().indexOf("color")==a.length-5?48:0):1);return b}function K(a){return 0<=a?Math.pow(a,1/3):-Math.pow(-a,1/3)}function da(a,b,c,d){if(0==a)return 0==b?b=-d/c:(a=Math.sqrt(c*c-4*b*d),d=(-c+a)/(2*b),0<=d&&1>=d?b=d:(d=(-c-a)/(2*b),b=0<=d&&1>=d?d:0)),b;
var e=c/a-b*b/(a*a)/3;c=b*b*b/(a*a*a)/13.5-b*c/(a*a)/3+d/a;var n=c*c/4+e*e*e/27;b=-b/(3*a);if(0>=n){if(0==e&&0==c)return-K(d/a);a=Math.sqrt(c*c/4-n);d=Math.acos(-c/2/a);c=Math.cos(d/3);d=Math.sqrt(3)*Math.sin(d/3);a=K(a);e=2*a*c+b;if(0<=e&&1>=e)return e;e=-a*(c+d)+b;if(0<=e&&1>=e)return e;e=a*(d-c)+b;if(0<=e&&1>=e)return e}else{a=K(-c/2+Math.sqrt(n));c=K(-c/2-Math.sqrt(n));d=a+c+b;if(0<=d&&1>=d)return d;d=-(a+c)/2+b;if(0<=d&&1>=d)return d}return 0}function ea(a,b){if(48==a&&"number"===typeof b)return"rgba("+
(b>>>24)+","+(b>>>16&255)+","+(b>>>8&255)+","+(b&255)/255+")";if(64==a)return b=b.map(function(a){return a+"px"}),b.join(",");if(96==a){a="";for(var c=b.length,d=0;d<c;d+=2)a+=b[d],a+=b[d+1].join(",");return a}if(80==a){if(0==b[0])return"none";a="";c=b.length;for(d=0;d<c;)a+=T[b[d]],1==b[d]?a+="("+b[d+1]+") ":5==b[d]?(a+="("+b[d+1]+"px "+b[d+2]+"px "+b[d+3]+"px rgba("+(b[d+4]>>>24)+","+(b[d+4]>>16&255)+","+(b[d+4]>>8&255)+","+(b[d+4]&255)/255+")) ",d+=3):a=2==b[d]?a+("("+b[d+1]+"px) "):7==b[d]?a+
("("+b[d+1]+"deg) "):a+("("+(0>b[d+1]?0:b[d+1])+") "),d+=2;return a}return 32==a?b+"px":b}function y(a){return 0>=a?0:255<=a?255:a}function fa(a,b,c,d){if(16==a||32==a)return(c-b)*d+b;if(0==a)return.5>d?b:c;if(48==a){if("number"===typeof b&&"number"===typeof c){var e=1-d;return(y(e*(b>>>24)+d*(c>>>24))<<24|y(e*(b>>>16&255)+d*(c>>>16&255))<<16|y(e*(b>>>8&255)+d*(c>>>8&255))<<8|y(e*(b&255)+d*(c&255)))>>>0}return.5>d?b:c}if(64==a){0==b.length&&(b=[0]);0==c.length&&(c=[0]);var n=b.length;b.length!=c.length&&
(n=b.length*c.length);var l=[];for(a=0;a<n;++a){var f=b[a%b.length];var h=(c[a%c.length]-f)*d+f;0>h&&(h=0);l.push(h)}return l}if(96==a){if(b.length!=c.length)return.5>d?b:c;n=b.length;l=[];for(a=0;a<n;a+=2){if(b[a]!==c[a])return.5>d?b:c;l[a]=b[a];l[a+1]=[];for(f=0;f<b[a+1].length;++f)l[a+1].push((c[a+1][f]-b[a+1][f])*d+b[a+1][f])}return l}if(80==a){n=b.length;if(n!=c.length)return.5>d?b:c;l=[];for(a=0;a<n;){if(b[a]!=c[a]||1==b[a])return.5>d?b:c;l[a]=b[a];l[a+1]=(c[a+1]-b[a+1])*d+b[a+1];if(5==b[a]){l[a+
2]=(c[a+2]-b[a+2])*d+b[a+2];l[a+3]=(c[a+3]-b[a+3])*d+b[a+3];e=1-d;var g=b[a+4],q=c[a+4];h=e*(g>>>24)+d*(q>>>24);var m=e*(g>>16&255)+d*(q>>16&255);f=e*(g>>8&255)+d*(q>>8&255);e=e*(g&255)+d*(q&255);l[a+4]=(y(m)<<16|y(f)<<8|y(e))+16777216*(y(h)|0);a+=3}a+=2}return l}return 0}function U(a,b){a:{var c=a+b[2];var d=b[4].length;for(var e=0;e<d;++e)if(c<b[4][e]){c=e;break a}c=d-1}d=b[2];e=b[4][c-1]-d;a=(a-e)/(b[4][c]-d-e);if(b[6]&&b[6].length>c-1)if(d=b[6][c-1],1==d[0])if(0>=a)a=0;else if(1<=a)a=1;else{e=
d[1];var n=d[3];a=da(3*e-3*n+1,-6*e+3*n,3*e,-a);a=3*a*(1-a)*(1-a)*d[2]+3*a*a*(1-a)*d[4]+a*a*a}else 2==d[0]?(d=d[1],a=Math.ceil(a*d)/d):3==d[0]&&(d=d[1],a=Math.floor(a*d)/d);return fa(b[1]&240,b[5][c-1],b[5][c],a)}function L(){u||(v=(new Date).getTime()+V)}function O(a){if(a||!E){for(var b=!1,c=0;c<w.length;++c)w[c].J(a)&&(b=!0);if(a)for(;0<I.length;)if(a=I.shift(),c=a[0],1==a[1])c.onfinish&&(c.onfinish(),b=!0),c.I();else if(2==a[1]&&c.onloop)c.onloop();return b}}function W(){L();O(!0)&&!u?(E=!0,M(W)):
E=!1}function N(){E||(E=!0,M(W))}function X(a,b){var c=[];a.split(b).forEach(function(a){c.push(parseFloat(a))});return c}function A(a){-1==a.indexOf(",")&&(a=a.replace(" ",","));return X(a,",")}function Y(a){a._ks||(a._ks={});if(!a._ks.transform){for(var b=a._ks.transform=[],c=0;14>=c;++c)b[c]=0;b[10]=1;b[11]=1;if(a=a.getAttribute("transform")){a=a.trim().split(") ");for(c=a.length-2;0<=c;--c)if(x(a[c],"translate(")){for(var d=0;d<c;d++)a.shift();break}c=a.shift();x(c,"translate(")&&(c=A(c.substring(10)),
b[1]=c[0],b[2]=t(c[1])?c[1]:0,c=a.shift());x(c,"rotate(")&&(c=A(c.substring(7)),b[6]=c[0],c=a.shift());x(c,"skewX(")&&(c=A(c.substring(6)),b[7]=c[0],c=a.shift());x(c,"skewY(")&&(c=A(c.substring(6)),b[8]=c[0],c=a.shift());x(c,"scale(")&&(c=A(c.substring(6)),b[10]=c[0],b[11]=t(c[1])?c[1]:c[0],c=a.shift());x(c,"translate(")&&(c=A(c.substring(10)),b[13]=c[0],b[14]=t(c[1])?c[1]:0)}}}function Z(a){this.l=a;this.A=[];this.C=[];this.v=0;this.s=this.a=this.c=null;this.h=this.f=this.g=0;this.b=1;this.i=this.F=
this.o=!1}function J(a,b,c){b=a[b];void 0===b&&(b=a[c]);return b}function ha(a){return Array.isArray(a)?a:x(a,"cubic-bezier(")?(a=a.substring(13,a.length-1).split(","),[1,parseFloat(a[0]),parseFloat(a[1]),parseFloat(a[2]),parseFloat(a[3])]):x(a,"steps(")?(a=a.substring(6,a.length-1).split(","),[a[1]&&"start"==a[1].trim()?2:3,parseFloat(a[0])]):[0]}function ia(a){a=a.trim();return x(a,"#")?(parseInt(a.substring(1),16)<<8)+255:x(a,"rgba(")?(a=a.substring(5,a.length-1),a=a.split(","),(parseInt(a[0],
10)<<24)+(parseInt(a[1],10)<<16)+(parseInt(a[2],10)<<8)+255*parseFloat(a[3])<<0):a}function aa(a){!1===a.i&&(w.push(a),a.i=!0,!1!==a.l.autoplay&&a.play());return this}function P(a){if(!0===a.i){a._cancel();var b=w.indexOf(a);-1<b&&w.splice(b,1);b=I.indexOf(a);-1<b&&I.splice(b,1);a.i=!1}return this}var Q=Error("Not in timeline list"),ba="mpath posX posY    rotate skewX skewY  scaleX scaleY  anchorX anchorY".split(" "),ja=" translate translate    rotate skewX skewY  scale scale  translate translate".split(" "),
T="none url blur brightness contrast drop-shadow grayscale hue-rotate invert opacity saturate sepia".split(" "),M=window.requestAnimationFrame||window.webkitRequestAnimationFrame||window.mozRequestAnimationFrame||window.oRequestAnimationFrame||window.msRequestAnimationFrame||null;M||(M=function(a){window.setTimeout(a,16)});var S={d:97,fill:48,fillOpacity:16,filter:80,height:33,opacity:16,offsetDistance:33,stroke:48,strokeDasharray:64,strokeDashoffset:32,strokeOpacity:16,strokeWidth:32,transform:1,
width:33},ca=window.getComputedStyle(document.documentElement),E=!1,v=(new Date).getTime(),u,V=0,w=[],I=[];Z.prototype={B:function(a){var b=0;if(null!==this.c){var c=this.j();0<this.b&&null!==c&&c>=this.f?this.h?(this.c=v-this.g/this.b,this.h--,b=2):(b=1,a?this.a=c:this.a=this.s?Math.max(this.s,this.f):this.f):0>this.b&&null!==c&&c<=this.g?this.h&&Infinity!=this.f?(this.c=v-this.f/this.b,this.h--,b=2):(this.h=0,b=1,a?this.a=c:this.a=this.s?Math.min(this.s,this.g):this.g):null!==c&&0!=this.b&&(a&&
null!==this.a&&(this.c=v-this.a/this.b),this.a=null)}this.s=this.j();return b},J:function(a){a&&(this.o&&(this.o=!1,null===this.c&&(0!=this.b&&null!==this.a?(this.c=v-this.a/this.b,this.a=null):this.c=v)),null===this.a&&null!==this.c&&(a=this.B(!1),0!=a&&I.push([this,a])));a=this.j();if(null===a)return!1;for(var b=this.A,c=this.C,d=0;d<b.length;++d){for(var e=b[d],n=!1,l=0;l<c[d].length;++l){var f=c[d][l],h=f[0];if(null!==h){var g=f[2];var q=f[4].length,m=f[4][q-1]-g;g=0==m?f[5][q-1]:a<=g?f[5][0]:
a>=g+f[3]?0==f[3]%m?f[5][q-1]:U(f[3]%m,f):U((a-g)%m,f);0==h?(e._ks.mpath=f[8],e._ks.transform[h]=g,n=!0):14>=h?(e._ks.transform[h]=g,n=!0):(g=ea(f[1]&240,g),f[1]&1?e.setAttribute(h,g):e.style[h]=g)}}if(n){Y(e);n=e._ks.transform;l="";if(f=e._ks.mpath)g=n[0],0>g&&(g=0),100<g&&(g=100),g=g*f[2]/100,h=f[1].getPointAtLength(g),l="translate("+h.x+","+h.y+") ",f[0]&&(.5>g?(g=h,h=f[1].getPointAtLength(.5)):g=f[1].getPointAtLength(g-.5),l+="rotate("+180*Math.atan2(h.y-g.y,h.x-g.x)/Math.PI+") ");for(f=1;f<n.length;++f)h=
n[f],h!=(10==f||11==f?1:0)&&(l+=" "+ja[f]+"(",l=2>=f?l+(1==f?h+",0":"0,"+h):13<=f?l+(13==f?h+",0":"0,"+h):10<=f?l+(10==f?h+",1":"1,"+h):l+h,l+=")");e.setAttribute("transform",l)}}return"running"==this.m()},I:function(){!1!==this.l.autoremove&&"finished"==this.m()&&P(this)},D:function(){if(!this.F){this.F=!0;for(var a=this.A,b=this.C,c=0;c<a.length;++c)for(var d=a[c],e=0;e<b[c].length;++e)14>=b[c][e][0]&&Y(d)}},u:function(a){if("number"==typeof a)return a;if(!t(this.l.markers)||!t(this.l.markers[a]))throw Error("Invalid marker: "+
a);return+this.l.markers[a]},play:function(a){t(a)&&null!==a&&(a=this.u(a),H(a),0>this.b&&a<this.g&&(a=this.g),0<this.b&&a>this.f&&(a=this.f),this.w(a,!0));if(!this.i)throw Q;a=this.j();if(0<this.b&&(null===a||a>=this.f))this.a=this.g;else if(0>this.b&&(null===a||a<=this.g)){if(Infinity==this.f)throw Error("Cannot seek to Infinity");this.a=this.f}else 0==this.b&&null===a&&(this.a=this.g);if(null===this.a)return this;this.c=null;this.o=!0;this.D();N();return this},pause:function(a){if(!this.i)throw Q;
t(a)&&(a=this.u(a),H(a));if("paused"!=this.m()){L();var b=this.j();if(null===b)if(0<=this.b)this.a=this.g;else{if(Infinity==this.f)throw Error("Cannot seek to Infinity");this.a=this.f}null!==this.c&&null===this.a&&(this.a=b);this.c=null;this.o=!1;this.B(!1);this.D();N()}t(a)&&this.w(a,!0);return this},range:function(a,b){if(0==arguments.length)return{"in":this.g,out:this.f};var c=this.u(a),d=this.v;t(b)&&(d=this.u(b));H(c);if(0>c||0>d||c>=d||isNaN(d))throw Error("Invalid range");var e=this.m();this.g=
c;this.f=d;"finished"==e&&"running"==this.m()&&this.play();return this},loop:function(a){if(!t(a))return{count:this.h};this.h=!0===a?Infinity:Math.floor(a);if(0>this.h||isNaN(this.h))this.h=0;return this},j:function(){return null!==this.a?this.a:null===this.c?null:(v-this.c)*this.b},w:function(a,b){b&&L();null!==a&&(this.D(),null!==this.a||null===this.c||0==this.b?(this.a=a,O(!1)):this.c=v-a/this.b,this.i||(this.c=null),this.s=null,this.B(!0),N())},G:function(){return this.j()},time:function(a){if(t(a)){if(!this.i)throw Q;
a=this.u(a);H(a);this.w(a,!0);return this}return this.G()},m:function(){var a=this.j();return this.o?"running":null===a?"idle":null===this.c?"paused":0<this.b&&a>=this.f||0>this.b&&a<=this.g?"finished":"running"},state:function(){return this.m()},duration:function(){return this.v},H:function(a){H(a);L();var b=this.j();this.b=a;null!==b&&this.w(b,!1)},rate:function(a){return t(a)?(this.H(a),this):this.b},marker:function(a){return t(this.l.markers)?this.l.markers[a]:void 0},_cancel:function(){if(!this.i||
"idle"==this.m())return this;this.c=this.a=null;this.o=!1;return this}};return{version:"1.1.0",animate:function(){var a={};if(1==arguments.length%2){a=arguments[arguments.length-1];var b={};for(c in a)b[c]=a[c];a=b}var c=new Z(a);a=arguments;for(var d=b=0;d<a.length-1;d+=2){var e=a[d];var n=e instanceof Element?e:document.getElementById(e.substring(1));if(!n)throw Error("Invalid target: "+e);e=n;n=a[d+1];e._ks||(e._ks={});for(var l=[],f=0;f<n.length;++f){var h=n[f],g=J(h,"p","property");if("string"!=
typeof g||-1!=g.indexOf("-")||""===g||!(0<S[g]||0<=ba.indexOf(g)))throw Error("Invalid property: "+g);var q=ba.indexOf(g);""!==g&&0<=q&&(g=q);q=R(g);var m=J(h,"t","times");if(!m||2>m.length)throw Error("Not enough times");m=m.slice();if(!isFinite(m[0])||0>m[0])throw Error("Invalid time: "+m[0]);for(var B=1;B<m.length;++B)if(!isFinite(m[B])||0>m[B]||m[B]<m[B-1])throw Error("Invalid time: "+m[B]);B=m[0];var v=m[m.length-1]-B,y=h.iterations||0;1>y&&(y=1);v*=y;b<v+B&&(b=v+B);var u=J(h,"v","values");if(!u||
u.length!=m.length)throw Error("Values do not match times");u=u.slice();for(var C=g,k=u,w=R(C)&240,p=0;p<k.length;++p)if(96==w){for(var G=k[p].substring(6,k[p].length-2).match(/[A-DF-Za-df-z][-+0-9eE., ]*/ig),A=[],r=0;r<G.length;++r){A.push(G[r][0]);for(var z=1<G[r].trim().length?G[r].substring(1).split(","):[],F=0;F<z.length;++F)z[F]=parseFloat(z[F]);A.push(z)}k[p]=A}else if(48==w)x(k[p],"#")?(G=9==k[p].length,k[p]=parseInt(k[p].substring(1),16),G||(k[p]=256*k[p]|255)):x(k[p],"url(")||"none"==k[p]||
(console.warn("unsupported color: "+k[p]),k[p]=0);else if(80==w){G=k;A=p;r=k[p];if("none"==r)r=[0];else{z=[];for(var D=r.indexOf("(");0<D;)if(F=T.indexOf(r.substring(0,D)),0<=F){z.push(F);var E=r.indexOf(") ");0>E&&(E=r.length-1);D=r.substring(D+1,E).split(" ");5==F?(z.push(parseFloat(D[0])),z.push(parseFloat(D[1])),z.push(parseFloat(D[2])),z.push(ia(D[3]))):1==F?z.push(D[0]):z.push(parseFloat(D[0]));r=r.substring(E+1).trim();D=r.indexOf("(")}else break;r=z}G[A]=r}else 64==w?"none"!=k[p]?/^[0-9 .]*$/.test(k[p])?
k[p]=X(k[p]," "):(console.warn("unsupported value: "+k[p]),k[p]=[0]):k[p]=[0]:32==w?(H(k[p]),k[p]=parseFloat(k[p])):0===C&&(k[p]=parseFloat(k[p]));C=J(h,"e","easing");k=m.length;for(C||(C=[]);C.length<k;)C.push([1,0,0,.58,1]);for(k=0;k<C.length;++k)C[k]=ha(C[k]);q=[g,q,B,v,m,u,C,y];m=J(h,"mp","motionPath");t(m)&&0===g&&(q[8]=[],q[8][0]=h.motionRotate,h=document.createElementNS("http://www.w3.org/2000/svg","path"),m||(m="M0,0"),h.setAttribute("d",m),q[8][1]=h,q[8][2]=h.getTotalLength());l.push(q)}0<
l.length&&(c.A.push(e),c.C.push(l))}c.v=b;c.g=0;c.f=c.v;aa(c);return c},add:aa,remove:P,removeAll:function(){for(var a=w.length-1;0<=a;--a)P(w[a]);return this},timelines:function(){return w.slice()},globalPlay:function(){u&&(V=u-(new Date).getTime(),u=void 0,N());return this},globalPause:function(){u||(u=v,O(!1));return this},globalState:function(){return u?"paused":"running"}}}();
]]></script>
    <script><![CDATA[if(KeyshapeJS.version.indexOf('1.')!=0)throw Error('Expected KeyshapeJS v1.*.*');window.ks=document.ks=KeyshapeJS;(function(ks){
ks.animate("#_a0",[{p:'d',t:[0,100,200,300,400,600,800,1000,1200],v:["path('M143.1,436.9C143.1,436.9,143.1,436.9,143.1,436.9C143.1,449.6,141.6,432.3,143.1,436.9C144.6,441.5,141.5,433.8,143.1,436.9C144.6,440.1,140.5,429.5,143.1,436.9C143.1,436.9,137.5,432.3,143.1,436.9C148.7,441.5,134,434.8,143.1,436.9C152.3,438.9,137.5,436.9,143.1,436.9C148.7,436.9,143.1,436.9,143.1,436.9')","path('M143.1,436.9C143.1,436.9,147.2,313.4,150.7,270.7C150.7,283.4,149.2,266.1,150.7,270.7C152.2,275.3,149.1,267.6,150.7,270.7C152.2,273.9,148.1,263.3,150.7,270.7C153.2,278.1,145.1,266.1,150.7,270.7C156.3,275.3,141.6,268.6,150.7,270.7C159.9,272.7,145.1,270.7,150.7,270.7C156.3,270.7,150.7,270.7,150.7,270.7')","path('M143.1,436.9C143.1,436.9,147.2,313.4,150.7,270.7C150.7,283.4,149.7,284.9,151.2,289.5C152.7,294.1,149.6,286.4,151.2,289.5C152.7,292.7,148.6,282.1,151.2,289.5C153.7,296.9,145.6,284.9,151.2,289.5C156.8,294.1,142.1,287.4,151.2,289.5C160.4,291.5,145.6,289.5,151.2,289.5C156.8,289.5,151.2,289.5,151.2,289.5')","path('M143.1,436.9C143.1,436.9,147.2,313.4,150.7,270.7C150.7,283.4,149.7,284.9,151.2,289.5C152.7,294.1,165.9,335.2,167.5,338.3C169,341.5,164.9,330.9,167.5,338.3C170,345.7,161.9,333.7,167.5,338.3C173.1,342.9,158.4,336.2,167.5,338.3C176.7,340.3,161.9,338.3,167.5,338.3C173.1,338.3,167.5,338.3,167.5,338.3')","path('M143.1,436.9C143.1,436.9,147.2,313.4,150.7,270.7C150.7,283.4,149.7,284.9,151.2,289.5C152.7,294.1,165.9,335.2,167.5,338.3C169,341.5,176.1,350,178.7,357.4C181.2,364.8,173.1,352.8,178.7,357.4C184.3,362,169.6,355.3,178.7,357.4C187.9,359.4,173.1,357.4,178.7,357.4C184.3,357.4,178.7,357.4,178.7,357.4')","path('M143.1,436.9C143.1,436.9,147.2,313.4,150.7,270.7C150.7,283.4,149.7,284.9,151.2,289.5C152.7,294.1,165.9,335.2,167.5,338.3C169,341.5,176.1,350,178.7,357.4C181.2,364.8,191.4,385.6,197,390.2C202.6,394.8,187.9,388.1,197,390.2C206.2,392.2,191.4,390.2,197,390.2C202.6,390.2,197,390.2,197,390.2')","path('M143.1,436.9C143.1,436.9,147.2,313.4,150.7,270.7C150.7,283.4,149.7,284.9,151.2,289.5C152.7,294.1,165.9,335.2,167.5,338.3C169,341.5,176.1,350,178.7,357.4C181.2,364.8,191.4,385.6,197,390.2C202.6,394.8,232.1,420.7,241.2,422.8C250.4,424.8,235.6,422.8,241.2,422.8C246.8,422.8,241.2,422.8,241.2,422.8')","path('M143.1,436.9C143.1,436.9,147.2,313.4,150.7,270.7C150.7,283.4,149.7,284.9,151.2,289.5C152.7,294.1,165.9,335.2,167.5,338.3C169,341.5,176.1,350,178.7,357.4C181.2,364.8,191.4,385.6,197,390.2C202.6,394.8,232.1,420.7,241.2,422.8C250.4,424.8,266.6,431.4,272.2,431.4C277.8,431.4,272.2,431.4,272.2,431.4')","path('M143.1,436.9C143.1,436.9,147.2,313.4,150.7,270.7C150.7,283.4,149.7,284.9,151.2,289.5C152.7,294.1,165.9,335.2,167.5,338.3C169,341.5,176.1,350,178.7,357.4C181.2,364.8,191.4,385.6,197,390.2C202.6,394.8,232.1,420.7,241.2,422.8C250.4,424.8,266.6,431.4,272.2,431.4C277.8,431.4,305.8,433.9,305.8,433.9')"],e:[[0],[0],[0],[0],[0],[0],[0],[0],[0]]}],
"#_a1",[{p:'d',t:[0,40,80,120,160,200,240,280,320,360,400,440,480,520,560,600,640,680,720,760,800,840,880,920,960,1000,1040,1080,1120,1160,1200],v:["path('M477.9,436.4C477.9,436.4,477.2,440.2,477.9,436.4C480.1,441.1,471.6,431.7,477.9,436.4C477.9,428.1,477.9,436.4,477.9,436.4L477.9,436.4L477.9,436.4L477.9,436.4L477.9,436.4L477.9,436.4L477.9,436.4L477.9,436.4L477.9,436.4L477.9,436.4L477.9,436.4L477.9,436.4L477.9,436.4L477.9,436.4L477.9,436.4L477.9,436.4L477.9,436.4L477.9,436.4L477.9,436.4L477.9,436.4L477.9,436.4L477.9,436.4L477.9,436.4L477.9,436.4L477.9,436.4C477.9,436.4,476.9,435,477.9,436.4C478.9,437.8,476.7,436,477.9,436.4C479.1,436.8,477.9,436.4,477.9,436.4')","path('M477.9,436.4C477.9,436.4,480.5,400.4,481.2,396.6C483.4,401.3,474.9,391.9,481.2,396.6C481.2,388.3,481.2,396.6,481.2,396.6L481.2,396.6L481.2,396.6L481.2,396.6L481.2,396.6L481.2,396.6L481.2,396.6L481.2,396.6L481.2,396.6L481.2,396.6L481.2,396.6L481.2,396.6L481.2,396.6L481.2,396.6L481.2,396.6L481.2,396.6L481.2,396.6L481.2,396.6L481.2,396.6L481.2,396.6L481.2,396.6L481.2,396.6L481.2,396.6L481.2,396.6L481.2,396.6C481.2,396.6,480.2,395.2,481.2,396.6C482.2,398,480,396.2,481.2,396.6C482.4,397,481.2,396.6,481.2,396.6')","path('M477.9,436.4C477.9,436.4,480.5,400.4,481.2,396.6C483.4,401.3,489.5,414.3,495.8,419C495.8,410.7,495.8,419,495.8,419L495.8,419L495.8,419L495.8,419L495.8,419L495.8,419L495.8,419L495.8,419L495.8,419L495.8,419L495.8,419L495.8,419L495.8,419L495.8,419L495.8,419L495.8,419L495.8,419L495.8,419L495.8,419L495.8,419L495.8,419L495.8,419L495.8,419L495.8,419L495.8,419C495.8,419,494.8,417.6,495.8,419C496.8,420.4,494.6,418.6,495.8,419C497,419.4,495.8,419,495.8,419')","path('M477.9,436.4C477.9,436.4,480.5,400.4,481.2,396.6C483.4,401.3,489.5,414.3,495.8,419C495.8,410.7,497.4,381.8,497.4,381.8L497.4,381.8L497.4,381.8L497.4,381.8L497.4,381.8L497.4,381.8L497.4,381.8L497.4,381.8L497.4,381.8L497.4,381.8L497.4,381.8L497.4,381.8L497.4,381.8L497.4,381.8L497.4,381.8L497.4,381.8L497.4,381.8L497.4,381.8L497.4,381.8L497.4,381.8L497.4,381.8L497.4,381.8L497.4,381.8L497.4,381.8L497.4,381.8C497.4,381.8,496.4,380.4,497.4,381.8C498.4,383.2,496.2,381.4,497.4,381.8C498.6,382.2,497.4,381.8,497.4,381.8')","path('M477.9,436.4C477.9,436.4,480.5,400.4,481.2,396.6C483.4,401.3,489.5,414.3,495.8,419C495.8,410.7,497.4,381.8,497.4,381.8L511.5,412.1L511.5,412.1L511.5,412.1L511.5,412.1L511.5,412.1L511.5,412.1L511.5,412.1L511.5,412.1L511.5,412.1L511.5,412.1L511.5,412.1L511.5,412.1L511.5,412.1L511.5,412.1L511.5,412.1L511.5,412.1L511.5,412.1L511.5,412.1L511.5,412.1L511.5,412.1L511.5,412.1L511.5,412.1L511.5,412.1L511.5,412.1C511.5,412.1,510.5,410.7,511.5,412.1C512.5,413.5,510.3,411.7,511.5,412.1C512.7,412.5,511.5,412.1,511.5,412.1')","path('M477.9,436.4C477.9,436.4,480.5,400.4,481.2,396.6C483.4,401.3,489.5,414.3,495.8,419C495.8,410.7,497.4,381.8,497.4,381.8L511.5,412.1L513.7,378.6L513.7,378.6L513.7,378.6L513.7,378.6L513.7,378.6L513.7,378.6L513.7,378.6L513.7,378.6L513.7,378.6L513.7,378.6L513.7,378.6L513.7,378.6L513.7,378.6L513.7,378.6L513.7,378.6L513.7,378.6L513.7,378.6L513.7,378.6L513.7,378.6L513.7,378.6L513.7,378.6L513.7,378.6L513.7,378.6C513.7,378.6,512.7,377.2,513.7,378.6C514.7,380,512.5,378.2,513.7,378.6C514.9,379,513.7,378.6,513.7,378.6')","path('M477.9,436.4C477.9,436.4,480.5,400.4,481.2,396.6C483.4,401.3,489.5,414.3,495.8,419C495.8,410.7,497.4,381.8,497.4,381.8L511.5,412.1L513.7,378.6L528.1,412.3L528.1,412.3L528.1,412.3L528.1,412.3L528.1,412.3L528.1,412.3L528.1,412.3L528.1,412.3L528.1,412.3L528.1,412.3L528.1,412.3L528.1,412.3L528.1,412.3L528.1,412.3L528.1,412.3L528.1,412.3L528.1,412.3L528.1,412.3L528.1,412.3L528.1,412.3L528.1,412.3L528.1,412.3C528.1,412.3,527.1,410.9,528.1,412.3C529.1,413.7,526.9,411.9,528.1,412.3C529.3,412.7,528.1,412.3,528.1,412.3')","path('M477.9,436.4C477.9,436.4,480.5,400.4,481.2,396.6C483.4,401.3,489.5,414.3,495.8,419C495.8,410.7,497.4,381.8,497.4,381.8L511.5,412.1L513.7,378.6L528.1,412.3L529.3,375.3L529.3,375.3L529.3,375.3L529.3,375.3L529.3,375.3L529.3,375.3L529.3,375.3L529.3,375.3L529.3,375.3L529.3,375.3L529.3,375.3L529.3,375.3L529.3,375.3L529.3,375.3L529.3,375.3L529.3,375.3L529.3,375.3L529.3,375.3L529.3,375.3L529.3,375.3L529.3,375.3C529.3,375.3,528.3,373.9,529.3,375.3C530.3,376.7,528.1,374.9,529.3,375.3C530.5,375.7,529.3,375.3,529.3,375.3')","path('M477.9,436.4C477.9,436.4,480.5,400.4,481.2,396.6C483.4,401.3,489.5,414.3,495.8,419C495.8,410.7,497.4,381.8,497.4,381.8L511.5,412.1L513.7,378.6L528.1,412.3L529.3,375.3L545.2,411.1L545.2,411.1L545.2,411.1L545.2,411.1L545.2,411.1L545.2,411.1L545.2,411.1L545.2,411.1L545.2,411.1L545.2,411.1L545.2,411.1L545.2,411.1L545.2,411.1L545.2,411.1L545.2,411.1L545.2,411.1L545.2,411.1L545.2,411.1L545.2,411.1L545.2,411.1C545.2,411.1,544.2,409.7,545.2,411.1C546.2,412.5,544,410.7,545.2,411.1C546.4,411.5,545.2,411.1,545.2,411.1')","path('M477.9,436.4C477.9,436.4,480.5,400.4,481.2,396.6C483.4,401.3,489.5,414.3,495.8,419C495.8,410.7,497.4,381.8,497.4,381.8L511.5,412.1L513.7,378.6L528.1,412.3L529.3,375.3L545.2,411.1L545.8,375.9L545.8,375.9L545.8,375.9L545.8,375.9L545.8,375.9L545.8,375.9L545.8,375.9L545.8,375.9L545.8,375.9L545.8,375.9L545.8,375.9L545.8,375.9L545.8,375.9L545.8,375.9L545.8,375.9L545.8,375.9L545.8,375.9L545.8,375.9L545.8,375.9C545.8,375.9,544.8,374.5,545.8,375.9C546.8,377.3,544.6,375.5,545.8,375.9C547,376.3,545.8,375.9,545.8,375.9')","path('M477.9,436.4C477.9,436.4,480.5,400.4,481.2,396.6C483.4,401.3,489.5,414.3,495.8,419C495.8,410.7,497.4,381.8,497.4,381.8L511.5,412.1L513.7,378.6L528.1,412.3L529.3,375.3L545.2,411.1L545.8,375.9L560.2,408.8L560.2,408.8L560.2,408.8L560.2,408.8L560.2,408.8L560.2,408.8L560.2,408.8L560.2,408.8L560.2,408.8L560.2,408.8L560.2,408.8L560.2,408.8L560.2,408.8L560.2,408.8L560.2,408.8L560.2,408.8L560.2,408.8L560.2,408.8C560.2,408.8,559.2,407.4,560.2,408.8C561.2,410.2,559,408.4,560.2,408.8C561.4,409.2,560.2,408.8,560.2,408.8')","path('M477.9,436.4C477.9,436.4,480.5,400.4,481.2,396.6C483.4,401.3,489.5,414.3,495.8,419C495.8,410.7,497.4,381.8,497.4,381.8L511.5,412.1L513.7,378.6L528.1,412.3L529.3,375.3L545.2,411.1L545.8,375.9L560.2,408.8L562.8,375.7L562.8,375.7L562.8,375.7L562.8,375.7L562.8,375.7L562.8,375.7L562.8,375.7L562.8,375.7L562.8,375.7L562.8,375.7L562.8,375.7L562.8,375.7L562.8,375.7L562.8,375.7L562.8,375.7L562.8,375.7L562.8,375.7C562.8,375.7,561.8,374.3,562.8,375.7C563.8,377.1,561.6,375.3,562.8,375.7C564,376.1,562.8,375.7,562.8,375.7')","path('M477.9,436.4C477.9,436.4,480.5,400.4,481.2,396.6C483.4,401.3,489.5,414.3,495.8,419C495.8,410.7,497.4,381.8,497.4,381.8L511.5,412.1L513.7,378.6L528.1,412.3L529.3,375.3L545.2,411.1L545.8,375.9L560.2,408.8L562.8,375.7L576.6,410.2L576.6,410.2L576.6,410.2L576.6,410.2L576.6,410.2L576.6,410.2L576.6,410.2L576.6,410.2L576.6,410.2L576.6,410.2L576.6,410.2L576.6,410.2L576.6,410.2L576.6,410.2L576.6,410.2L576.6,410.2C576.6,410.2,575.6,408.8,576.6,410.2C577.6,411.6,575.4,409.8,576.6,410.2C577.8,410.6,576.6,410.2,576.6,410.2')","path('M477.9,436.4C477.9,436.4,480.5,400.4,481.2,396.6C483.4,401.3,489.5,414.3,495.8,419C495.8,410.7,497.4,381.8,497.4,381.8L511.5,412.1L513.7,378.6L528.1,412.3L529.3,375.3L545.2,411.1L545.8,375.9L560.2,408.8L562.8,375.7L576.6,410.2L577.6,375L577.6,375L577.6,375L577.6,375L577.6,375L577.6,375L577.6,375L577.6,375L577.6,375L577.6,375L577.6,375L577.6,375L577.6,375L577.6,375L577.6,375C577.6,375,576.6,373.6,577.6,375C578.6,376.4,576.4,374.6,577.6,375C578.8,375.4,577.6,375,577.6,375')","path('M477.9,436.4C477.9,436.4,480.5,400.4,481.2,396.6C483.4,401.3,489.5,414.3,495.8,419C495.8,410.7,497.4,381.8,497.4,381.8L511.5,412.1L513.7,378.6L528.1,412.3L529.3,375.3L545.2,411.1L545.8,375.9L560.2,408.8L562.8,375.7L576.6,410.2L577.6,375L592.9,409.3L592.9,409.3L592.9,409.3L592.9,409.3L592.9,409.3L592.9,409.3L592.9,409.3L592.9,409.3L592.9,409.3L592.9,409.3L592.9,409.3L592.9,409.3L592.9,409.3L592.9,409.3C592.9,409.3,591.9,407.9,592.9,409.3C593.9,410.7,591.7,408.9,592.9,409.3C594.1,409.7,592.9,409.3,592.9,409.3')","path('M477.9,436.4C477.9,436.4,480.5,400.4,481.2,396.6C483.4,401.3,489.5,414.3,495.8,419C495.8,410.7,497.4,381.8,497.4,381.8L511.5,412.1L513.7,378.6L528.1,412.3L529.3,375.3L545.2,411.1L545.8,375.9L560.2,408.8L562.8,375.7L576.6,410.2L577.6,375L592.9,409.3L594.2,373.5L594.2,373.5L594.2,373.5L594.2,373.5L594.2,373.5L594.2,373.5L594.2,373.5L594.2,373.5L594.2,373.5L594.2,373.5L594.2,373.5L594.2,373.5L594.2,373.5C594.2,373.5,593.2,372.1,594.2,373.5C595.2,374.9,593,373.1,594.2,373.5C595.4,373.9,594.2,373.5,594.2,373.5')","path('M477.9,436.4C477.9,436.4,480.5,400.4,481.2,396.6C483.4,401.3,489.5,414.3,495.8,419C495.8,410.7,497.4,381.8,497.4,381.8L511.5,412.1L513.7,378.6L528.1,412.3L529.3,375.3L545.2,411.1L545.8,375.9L560.2,408.8L562.8,375.7L576.6,410.2L577.6,375L592.9,409.3L594.2,373.5L609.2,408.9L609.2,408.9L609.2,408.9L609.2,408.9L609.2,408.9L609.2,408.9L609.2,408.9L609.2,408.9L609.2,408.9L609.2,408.9L609.2,408.9L609.2,408.9C609.2,408.9,608.2,407.5,609.2,408.9C610.2,410.3,608,408.5,609.2,408.9C610.4,409.3,609.2,408.9,609.2,408.9')","path('M477.9,436.4C477.9,436.4,480.5,400.4,481.2,396.6C483.4,401.3,489.5,414.3,495.8,419C495.8,410.7,497.4,381.8,497.4,381.8L511.5,412.1L513.7,378.6L528.1,412.3L529.3,375.3L545.2,411.1L545.8,375.9L560.2,408.8L562.8,375.7L576.6,410.2L577.6,375L592.9,409.3L594.2,373.5L609.2,408.9L611,374.7L611,374.7L611,374.7L611,374.7L611,374.7L611,374.7L611,374.7L611,374.7L611,374.7L611,374.7L611,374.7C611,374.7,610,373.3,611,374.7C612,376.1,609.8,374.3,611,374.7C612.2,375.1,611,374.7,611,374.7')","path('M477.9,436.4C477.9,436.4,480.5,400.4,481.2,396.6C483.4,401.3,489.5,414.3,495.8,419C495.8,410.7,497.4,381.8,497.4,381.8L511.5,412.1L513.7,378.6L528.1,412.3L529.3,375.3L545.2,411.1L545.8,375.9L560.2,408.8L562.8,375.7L576.6,410.2L577.6,375L592.9,409.3L594.2,373.5L609.2,408.9L611,374.7L625.2,411.2L625.2,411.2L625.2,411.2L625.2,411.2L625.2,411.2L625.2,411.2L625.2,411.2L625.2,411.2L625.2,411.2L625.2,411.2C625.2,411.2,624.2,409.8,625.2,411.2C626.2,412.6,624,410.8,625.2,411.2C626.4,411.6,625.2,411.2,625.2,411.2')","path('M477.9,436.4C477.9,436.4,480.5,400.4,481.2,396.6C483.4,401.3,489.5,414.3,495.8,419C495.8,410.7,497.4,381.8,497.4,381.8L511.5,412.1L513.7,378.6L528.1,412.3L529.3,375.3L545.2,411.1L545.8,375.9L560.2,408.8L562.8,375.7L576.6,410.2L577.6,375L592.9,409.3L594.2,373.5L609.2,408.9L611,374.7L625.2,411.2L627,374.5L627,374.5L627,374.5L627,374.5L627,374.5L627,374.5L627,374.5L627,374.5L627,374.5C627,374.5,626,373.1,627,374.5C628,375.9,625.8,374.1,627,374.5C628.2,374.9,627,374.5,627,374.5')","path('M477.9,436.4C477.9,436.4,480.5,400.4,481.2,396.6C483.4,401.3,489.5,414.3,495.8,419C495.8,410.7,497.4,381.8,497.4,381.8L511.5,412.1L513.7,378.6L528.1,412.3L529.3,375.3L545.2,411.1L545.8,375.9L560.2,408.8L562.8,375.7L576.6,410.2L577.6,375L592.9,409.3L594.2,373.5L609.2,408.9L611,374.7L625.2,411.2L627,374.5L641.8,410.1L641.8,410.1L641.8,410.1L641.8,410.1L641.8,410.1L641.8,410.1L641.8,410.1L641.8,410.1C641.8,410.1,640.8,408.7,641.8,410.1C642.8,411.5,640.6,409.7,641.8,410.1C643,410.5,641.8,410.1,641.8,410.1')","path('M477.9,436.4C477.9,436.4,480.5,400.4,481.2,396.6C483.4,401.3,489.5,414.3,495.8,419C495.8,410.7,497.4,381.8,497.4,381.8L511.5,412.1L513.7,378.6L528.1,412.3L529.3,375.3L545.2,411.1L545.8,375.9L560.2,408.8L562.8,375.7L576.6,410.2L577.6,375L592.9,409.3L594.2,373.5L609.2,408.9L611,374.7L625.2,411.2L627,374.5L641.8,410.1L642.8,374.7L642.8,374.7L642.8,374.7L642.8,374.7L642.8,374.7L642.8,374.7L642.8,374.7C642.8,374.7,641.8,373.3,642.8,374.7C643.8,376.1,641.6,374.3,642.8,374.7C644,375.1,642.8,374.7,642.8,374.7')","path('M477.9,436.4C477.9,436.4,480.5,400.4,481.2,396.6C483.4,401.3,489.5,414.3,495.8,419C495.8,410.7,497.4,381.8,497.4,381.8L511.5,412.1L513.7,378.6L528.1,412.3L529.3,375.3L545.2,411.1L545.8,375.9L560.2,408.8L562.8,375.7L576.6,410.2L577.6,375L592.9,409.3L594.2,373.5L609.2,408.9L611,374.7L625.2,411.2L627,374.5L641.8,410.1L642.8,374.7L657.6,410.7L657.6,410.7L657.6,410.7L657.6,410.7L657.6,410.7L657.6,410.7C657.6,410.7,656.6,409.3,657.6,410.7C658.6,412.1,656.4,410.3,657.6,410.7C658.8,411.1,657.6,410.7,657.6,410.7')","path('M477.9,436.4C477.9,436.4,480.5,400.4,481.2,396.6C483.4,401.3,489.5,414.3,495.8,419C495.8,410.7,497.4,381.8,497.4,381.8L511.5,412.1L513.7,378.6L528.1,412.3L529.3,375.3L545.2,411.1L545.8,375.9L560.2,408.8L562.8,375.7L576.6,410.2L577.6,375L592.9,409.3L594.2,373.5L609.2,408.9L611,374.7L625.2,411.2L627,374.5L641.8,410.1L642.8,374.7L657.6,410.7L659.4,372.9L659.4,372.9L659.4,372.9L659.4,372.9L659.4,372.9C659.4,372.9,658.4,371.5,659.4,372.9C660.4,374.3,658.2,372.5,659.4,372.9C660.6,373.3,659.4,372.9,659.4,372.9')","path('M477.9,436.4C477.9,436.4,480.5,400.4,481.2,396.6C483.4,401.3,489.5,414.3,495.8,419C495.8,410.7,497.4,381.8,497.4,381.8L511.5,412.1L513.7,378.6L528.1,412.3L529.3,375.3L545.2,411.1L545.8,375.9L560.2,408.8L562.8,375.7L576.6,410.2L577.6,375L592.9,409.3L594.2,373.5L609.2,408.9L611,374.7L625.2,411.2L627,374.5L641.8,410.1L642.8,374.7L657.6,410.7L659.4,372.9L673.4,410.9L673.4,410.9L673.4,410.9L673.4,410.9C673.4,410.9,672.4,409.5,673.4,410.9C674.4,412.3,672.2,410.5,673.4,410.9C674.6,411.3,673.4,410.9,673.4,410.9')","path('M477.9,436.4C477.9,436.4,480.5,400.4,481.2,396.6C483.4,401.3,489.5,414.3,495.8,419C495.8,410.7,497.4,381.8,497.4,381.8L511.5,412.1L513.7,378.6L528.1,412.3L529.3,375.3L545.2,411.1L545.8,375.9L560.2,408.8L562.8,375.7L576.6,410.2L577.6,375L592.9,409.3L594.2,373.5L609.2,408.9L611,374.7L625.2,411.2L627,374.5L641.8,410.1L642.8,374.7L657.6,410.7L659.4,372.9L673.4,410.9L675,373.1L675,373.1L675,373.1C675,373.1,674,371.7,675,373.1C676,374.5,673.8,372.7,675,373.1C676.2,373.5,675,373.1,675,373.1')","path('M477.9,436.4C477.9,436.4,480.5,400.4,481.2,396.6C483.4,401.3,489.5,414.3,495.8,419C495.8,410.7,497.4,381.8,497.4,381.8L511.5,412.1L513.7,378.6L528.1,412.3L529.3,375.3L545.2,411.1L545.8,375.9L560.2,408.8L562.8,375.7L576.6,410.2L577.6,375L592.9,409.3L594.2,373.5L609.2,408.9L611,374.7L625.2,411.2L627,374.5L641.8,410.1L642.8,374.7L657.6,410.7L659.4,372.9L673.4,410.9L675,373.1L689.3,411.5L689.3,411.5C689.3,411.5,688.3,410.1,689.3,411.5C690.3,412.9,688.1,411.1,689.3,411.5C690.5,411.9,689.3,411.5,689.3,411.5')","path('M477.9,436.4C477.9,436.4,480.5,400.4,481.2,396.6C483.4,401.3,489.5,414.3,495.8,419C495.8,410.7,497.4,381.8,497.4,381.8L511.5,412.1L513.7,378.6L528.1,412.3L529.3,375.3L545.2,411.1L545.8,375.9L560.2,408.8L562.8,375.7L576.6,410.2L577.6,375L592.9,409.3L594.2,373.5L609.2,408.9L611,374.7L625.2,411.2L627,374.5L641.8,410.1L642.8,374.7L657.6,410.7L659.4,372.9L673.4,410.9L675,373.1L689.3,411.5L691.5,372.5C691.5,372.5,690.5,371.1,691.5,372.5C692.5,373.9,690.3,372.1,691.5,372.5C692.7,372.9,691.5,372.5,691.5,372.5')","path('M477.9,436.4C477.9,436.4,480.5,400.4,481.2,396.6C483.4,401.3,489.5,414.3,495.8,419C495.8,410.7,497.4,381.8,497.4,381.8L511.5,412.1L513.7,378.6L528.1,412.3L529.3,375.3L545.2,411.1L545.8,375.9L560.2,408.8L562.8,375.7L576.6,410.2L577.6,375L592.9,409.3L594.2,373.5L609.2,408.9L611,374.7L625.2,411.2L627,374.5L641.8,410.1L642.8,374.7L657.6,410.7L659.4,372.9L673.4,410.9L675,373.1L689.3,411.5L691.5,372.5C691.5,372.5,704.9,407.9,705.9,409.3C706.9,410.7,704.7,408.9,705.9,409.3C707.1,409.7,705.9,409.3,705.9,409.3')","path('M477.9,436.4C477.9,436.4,480.5,400.4,481.2,396.6C483.4,401.3,489.5,414.3,495.8,419C495.8,410.7,497.4,381.8,497.4,381.8L511.5,412.1L513.7,378.6L528.1,412.3L529.3,375.3L545.2,411.1L545.8,375.9L560.2,408.8L562.8,375.7L576.6,410.2L577.6,375L592.9,409.3L594.2,373.5L609.2,408.9L611,374.7L625.2,411.2L627,374.5L641.8,410.1L642.8,374.7L657.6,410.7L659.4,372.9L673.4,410.9L675,373.1L689.3,411.5L691.5,372.5C691.5,372.5,704.9,407.9,705.9,409.3C706.9,410.7,721.8,426.6,723,427C724.2,427.4,723,427,723,427')","path('M477.9,436.4C477.9,436.4,480.5,400.4,481.2,396.6C483.4,401.3,489.5,414.3,495.8,419C495.8,410.7,497.4,381.8,497.4,381.8L511.5,412.1L513.7,378.6L528.1,412.3L529.3,375.3L545.2,411.1L545.8,375.9L560.2,408.8L562.8,375.7L576.6,410.2L577.6,375L592.9,409.3L594.2,373.5L609.2,408.9L611,374.7L625.2,411.2L627,374.5L641.8,410.1L642.8,374.7L657.6,410.7L659.4,372.9L673.4,410.9L675,373.1L689.3,411.5L691.5,372.5C691.5,372.5,704.9,407.9,705.9,409.3C706.9,410.7,721.8,426.6,723,427C724.2,427.4,745.4,432.9,745.4,432.9')"],e:[[0],[0],[0],[0],[0],[0],[0],[0],[0],[0],[0],[0],[0],[0],[0],[0],[0],[0],[0],[0],[0],[0],[0],[0],[0],[0],[0],[0],[0],[0],[0]]}],
{autoremove:false}).range(0,1200);
if(document.location.search.substr(1).split('&').indexOf('global=paused')>=0)ks.globalPause()})(KeyshapeJS);
]]></script>
</svg>
