<?xml version="1.0" encoding="utf-8"?>
<!-- Generator: Adobe Illustrator 24.1.0, SVG Export Plug-In . SVG Version: 6.00 Build 0)  -->
<svg version="1.1" id="Layer_1" xmlns="http://www.w3.org/2000/svg" xmlns:xlink="http://www.w3.org/1999/xlink" x="0px" y="0px"
	 viewBox="0 0 1366 744.77" style="enable-background:new 0 0 1366 744.77;" xml:space="preserve">
<style type="text/css">
	.st0{clip-path:url(#SVGID_2_);fill:url(#SVGID_3_);}
	.st1{fill:#EFBB50;}
	.st2{fill:#FFFFFF;}
	.st3{fill:#F6D9A3;}
</style>
<g>
	<g>
		<defs>
			<path id="SVGID_1_" d="M0,0v717.68c0,0,183.2-20.77,379.27-20.77c274.81,0,490.15,47.86,710.32,46.33
				c220.17-1.52,276.41-15.83,276.41-15.83V0H0z"/>
		</defs>
		<clipPath id="SVGID_2_">
			<use xlink:href="#SVGID_1_"  style="overflow:visible;"/>
		</clipPath>
		
			<linearGradient id="SVGID_3_" gradientUnits="userSpaceOnUse" x1="1.365" y1="754.4837" x2="2.032" y2="754.4837" gradientTransform="matrix(0 2011.1903 2011.1903 0 -1516727.375 -3493.1995)">
			<stop  offset="0" style="stop-color:#00BEF3"/>
			<stop  offset="1" style="stop-color:#003E6A"/>
		</linearGradient>
		<rect x="0" class="st0" width="1366" height="744.77"/>
	</g>
	<g>
		<path class="st1" d="M346.05,354.84c2.42-2.22,5.34-3.33,8.75-3.33c1.23,0,2.34,0.2,3.31,0.61c0.97,0.4,1.79,0.97,2.47,1.68
			c0.67,0.72,1.18,1.58,1.53,2.58c0.35,1,0.52,2.1,0.52,3.29v13.31h-2.3c-0.48,0-0.85-0.07-1.11-0.22
			c-0.26-0.14-0.47-0.44-0.62-0.87l-0.45-1.52c-0.53,0.48-1.05,0.9-1.56,1.26c-0.51,0.36-1.03,0.67-1.58,0.91
			c-0.55,0.25-1.13,0.44-1.76,0.57c-0.62,0.13-1.31,0.19-2.06,0.19c-0.89,0-1.71-0.12-2.47-0.36c-0.75-0.24-1.4-0.6-1.95-1.08
			c-0.55-0.48-0.97-1.07-1.27-1.79c-0.3-0.71-0.45-1.54-0.45-2.49c0-0.53,0.09-1.06,0.27-1.59c0.18-0.53,0.47-1.03,0.87-1.51
			c0.4-0.48,0.93-0.93,1.57-1.36c0.64-0.42,1.43-0.79,2.37-1.11c0.94-0.31,2.03-0.57,3.28-0.77c1.25-0.2,2.67-0.32,4.27-0.36v-1.23
			c0-1.41-0.3-2.46-0.9-3.13c-0.6-0.68-1.47-1.02-2.61-1.02c-0.82,0-1.5,0.1-2.04,0.29c-0.54,0.19-1.02,0.41-1.43,0.65
			c-0.41,0.24-0.78,0.46-1.12,0.65c-0.34,0.19-0.71,0.29-1.12,0.29c-0.36,0-0.66-0.09-0.9-0.28s-0.45-0.4-0.6-0.65L346.05,354.84z
			 M357.68,363.98c-1.47,0.07-2.7,0.2-3.7,0.38c-1,0.18-1.8,0.42-2.4,0.71c-0.6,0.29-1.03,0.62-1.29,1.01
			c-0.26,0.38-0.39,0.8-0.39,1.25c0,0.89,0.26,1.53,0.79,1.91c0.53,0.38,1.22,0.58,2.06,0.58c1.04,0,1.94-0.19,2.7-0.57
			c0.76-0.38,1.5-0.95,2.23-1.72V363.98z"/>
		<path class="st1" d="M372.19,355.56c0.66-1.26,1.44-2.25,2.34-2.97c0.9-0.72,1.97-1.08,3.21-1.08c0.97,0,1.75,0.21,2.34,0.64
			l-0.33,3.8c-0.07,0.25-0.17,0.42-0.3,0.52c-0.13,0.1-0.31,0.15-0.52,0.15c-0.21,0-0.51-0.03-0.91-0.1c-0.4-0.07-0.8-0.1-1.18-0.1
			c-0.56,0-1.06,0.08-1.5,0.25c-0.44,0.16-0.83,0.4-1.18,0.71c-0.35,0.31-0.66,0.68-0.92,1.12c-0.27,0.44-0.52,0.94-0.75,1.5v12.99
			h-5.08V351.9h2.98c0.52,0,0.88,0.09,1.09,0.28c0.21,0.18,0.34,0.52,0.41,1L372.19,355.56z"/>
		<path class="st1" d="M386.05,363.08c0.08,1.08,0.27,2.02,0.58,2.8s0.7,1.44,1.19,1.95c0.49,0.51,1.08,0.9,1.76,1.15
			c0.68,0.25,1.43,0.38,2.25,0.38c0.82,0,1.53-0.1,2.13-0.29c0.6-0.19,1.12-0.4,1.56-0.64c0.44-0.23,0.84-0.44,1.17-0.64
			c0.34-0.19,0.66-0.29,0.98-0.29c0.42,0,0.74,0.16,0.95,0.47l1.46,1.85c-0.56,0.66-1.19,1.21-1.89,1.65
			c-0.7,0.45-1.43,0.8-2.19,1.07c-0.76,0.27-1.53,0.46-2.32,0.57c-0.79,0.11-1.55,0.16-2.29,0.16c-1.47,0-2.83-0.24-4.09-0.73
			c-1.26-0.49-2.36-1.21-3.29-2.16c-0.93-0.95-1.66-2.13-2.2-3.53c-0.53-1.4-0.8-3.03-0.8-4.88c0-1.44,0.23-2.79,0.7-4.06
			c0.47-1.27,1.13-2.37,2-3.31c0.87-0.94,1.93-1.68,3.18-2.23c1.25-0.55,2.67-0.82,4.24-0.82c1.33,0,2.55,0.21,3.68,0.64
			c1.12,0.42,2.09,1.04,2.9,1.86c0.81,0.82,1.44,1.82,1.9,3c0.46,1.18,0.69,2.54,0.69,4.06c0,0.77-0.08,1.28-0.25,1.55
			c-0.16,0.27-0.48,0.4-0.95,0.4H386.05z M395.73,360.01c0-0.66-0.09-1.28-0.28-1.86c-0.18-0.58-0.46-1.09-0.83-1.53
			c-0.37-0.44-0.84-0.78-1.41-1.04c-0.57-0.25-1.23-0.38-1.98-0.38c-1.47,0-2.62,0.42-3.46,1.25c-0.84,0.84-1.38,2.02-1.61,3.55
			H395.73z"/>
		<path class="st1" d="M421.11,373.31c-1.84,0-3.24-0.52-4.22-1.55c-0.98-1.03-1.47-2.46-1.47-4.28V355.7h-2.16
			c-0.27,0-0.51-0.09-0.7-0.27c-0.19-0.18-0.29-0.44-0.29-0.8v-2.01l3.39-0.55l1.07-5.75c0.07-0.27,0.2-0.49,0.39-0.64
			c0.19-0.15,0.44-0.23,0.74-0.23h2.63v6.64h5.63v3.62h-5.63v11.42c0,0.66,0.16,1.17,0.48,1.54c0.32,0.37,0.76,0.55,1.33,0.55
			c0.31,0,0.58-0.04,0.79-0.11c0.21-0.08,0.4-0.15,0.55-0.24c0.16-0.08,0.3-0.16,0.42-0.24c0.12-0.08,0.25-0.11,0.37-0.11
			c0.15,0,0.27,0.04,0.37,0.11c0.1,0.08,0.2,0.19,0.31,0.34l1.52,2.47c-0.74,0.62-1.59,1.08-2.55,1.4
			C423.13,373.15,422.13,373.31,421.11,373.31z"/>
		<path class="st1" d="M434.15,355.56c0.66-1.26,1.44-2.25,2.34-2.97c0.9-0.72,1.97-1.08,3.21-1.08c0.97,0,1.75,0.21,2.34,0.64
			l-0.33,3.8c-0.07,0.25-0.17,0.42-0.3,0.52c-0.13,0.1-0.31,0.15-0.52,0.15c-0.21,0-0.51-0.03-0.91-0.1c-0.4-0.07-0.8-0.1-1.18-0.1
			c-0.56,0-1.06,0.08-1.5,0.25c-0.44,0.16-0.83,0.4-1.18,0.71c-0.35,0.31-0.66,0.68-0.92,1.12c-0.27,0.44-0.52,0.94-0.75,1.5v12.99
			h-5.07V351.9h2.98c0.52,0,0.88,0.09,1.09,0.28c0.21,0.18,0.34,0.52,0.41,1L434.15,355.56z"/>
		<path class="st1" d="M448.02,363.08c0.08,1.08,0.27,2.02,0.58,2.8s0.7,1.44,1.19,1.95c0.49,0.51,1.08,0.9,1.76,1.15
			c0.68,0.25,1.43,0.38,2.25,0.38c0.82,0,1.53-0.1,2.13-0.29c0.6-0.19,1.12-0.4,1.56-0.64c0.45-0.23,0.84-0.44,1.17-0.64
			s0.66-0.29,0.98-0.29c0.42,0,0.74,0.16,0.95,0.47l1.46,1.85c-0.56,0.66-1.19,1.21-1.89,1.65c-0.7,0.45-1.43,0.8-2.19,1.07
			c-0.76,0.27-1.53,0.46-2.32,0.57c-0.79,0.11-1.55,0.16-2.29,0.16c-1.47,0-2.83-0.24-4.09-0.73c-1.26-0.49-2.36-1.21-3.29-2.16
			c-0.93-0.95-1.66-2.13-2.2-3.53c-0.53-1.4-0.8-3.03-0.8-4.88c0-1.44,0.23-2.79,0.7-4.06c0.47-1.27,1.13-2.37,2-3.31
			c0.87-0.94,1.93-1.68,3.18-2.23c1.25-0.55,2.67-0.82,4.24-0.82c1.33,0,2.55,0.21,3.68,0.64c1.12,0.42,2.09,1.04,2.9,1.86
			c0.81,0.82,1.44,1.82,1.9,3c0.46,1.18,0.69,2.54,0.69,4.06c0,0.77-0.08,1.28-0.25,1.55c-0.16,0.27-0.48,0.4-0.95,0.4H448.02z
			 M457.7,360.01c0-0.66-0.09-1.28-0.28-1.86c-0.18-0.58-0.46-1.09-0.83-1.53c-0.37-0.44-0.84-0.78-1.41-1.04
			c-0.57-0.25-1.23-0.38-1.98-0.38c-1.47,0-2.62,0.42-3.46,1.25c-0.84,0.84-1.38,2.02-1.61,3.55H457.7z"/>
		<path class="st1" d="M465.57,354.84c2.42-2.22,5.34-3.33,8.75-3.33c1.23,0,2.34,0.2,3.31,0.61c0.97,0.4,1.79,0.97,2.47,1.68
			c0.67,0.72,1.18,1.58,1.53,2.58c0.35,1,0.52,2.1,0.52,3.29v13.31h-2.3c-0.48,0-0.85-0.07-1.11-0.22
			c-0.26-0.14-0.47-0.44-0.62-0.87l-0.45-1.52c-0.53,0.48-1.05,0.9-1.56,1.26c-0.51,0.36-1.03,0.67-1.58,0.91
			c-0.55,0.25-1.13,0.44-1.76,0.57c-0.62,0.13-1.31,0.19-2.06,0.19c-0.89,0-1.71-0.12-2.47-0.36c-0.75-0.24-1.4-0.6-1.95-1.08
			c-0.55-0.48-0.97-1.07-1.27-1.79c-0.3-0.71-0.45-1.54-0.45-2.49c0-0.53,0.09-1.06,0.27-1.59c0.18-0.53,0.47-1.03,0.87-1.51
			c0.4-0.48,0.93-0.93,1.57-1.36c0.64-0.42,1.44-0.79,2.37-1.11c0.94-0.31,2.03-0.57,3.28-0.77c1.25-0.2,2.67-0.32,4.27-0.36v-1.23
			c0-1.41-0.3-2.46-0.9-3.13c-0.6-0.68-1.47-1.02-2.61-1.02c-0.82,0-1.5,0.1-2.04,0.29c-0.54,0.19-1.02,0.41-1.43,0.65
			c-0.41,0.24-0.78,0.46-1.12,0.65c-0.34,0.19-0.71,0.29-1.12,0.29c-0.36,0-0.66-0.09-0.9-0.28c-0.25-0.18-0.45-0.4-0.6-0.65
			L465.57,354.84z M477.2,363.98c-1.47,0.07-2.7,0.2-3.7,0.38c-1,0.18-1.8,0.42-2.4,0.71c-0.6,0.29-1.03,0.62-1.29,1.01
			c-0.26,0.38-0.39,0.8-0.39,1.25c0,0.89,0.26,1.53,0.79,1.91c0.53,0.38,1.22,0.58,2.06,0.58c1.04,0,1.94-0.19,2.7-0.57
			c0.76-0.38,1.5-0.95,2.23-1.72V363.98z"/>
		<path class="st1" d="M493.69,373.31c-1.84,0-3.24-0.52-4.22-1.55c-0.98-1.03-1.47-2.46-1.47-4.28V355.7h-2.16
			c-0.27,0-0.51-0.09-0.7-0.27c-0.19-0.18-0.29-0.44-0.29-0.8v-2.01l3.39-0.55l1.07-5.75c0.07-0.27,0.2-0.49,0.39-0.64
			c0.19-0.15,0.44-0.23,0.74-0.23h2.63v6.64h5.63v3.62h-5.63v11.42c0,0.66,0.16,1.17,0.48,1.54c0.32,0.37,0.76,0.55,1.33,0.55
			c0.31,0,0.58-0.04,0.79-0.11c0.21-0.08,0.4-0.15,0.55-0.24c0.16-0.08,0.3-0.16,0.42-0.24c0.12-0.08,0.25-0.11,0.37-0.11
			c0.15,0,0.27,0.04,0.37,0.11c0.1,0.08,0.2,0.19,0.31,0.34l1.52,2.47c-0.74,0.62-1.59,1.08-2.55,1.4
			C495.71,373.15,494.72,373.31,493.69,373.31z"/>
		<path class="st1" d="M505.73,363.08c0.08,1.08,0.27,2.02,0.58,2.8s0.7,1.44,1.19,1.95c0.49,0.51,1.08,0.9,1.76,1.15
			c0.68,0.25,1.43,0.38,2.25,0.38c0.82,0,1.53-0.1,2.13-0.29c0.6-0.19,1.12-0.4,1.56-0.64c0.44-0.23,0.84-0.44,1.17-0.64
			c0.34-0.19,0.66-0.29,0.98-0.29c0.42,0,0.74,0.16,0.95,0.47l1.46,1.85c-0.56,0.66-1.19,1.21-1.89,1.65
			c-0.7,0.45-1.43,0.8-2.19,1.07c-0.76,0.27-1.53,0.46-2.32,0.57c-0.79,0.11-1.55,0.16-2.29,0.16c-1.47,0-2.83-0.24-4.09-0.73
			c-1.26-0.49-2.36-1.21-3.29-2.16c-0.93-0.95-1.66-2.13-2.2-3.53c-0.53-1.4-0.8-3.03-0.8-4.88c0-1.44,0.23-2.79,0.7-4.06
			c0.47-1.27,1.13-2.37,2-3.31c0.87-0.94,1.93-1.68,3.18-2.23c1.25-0.55,2.67-0.82,4.24-0.82c1.33,0,2.55,0.21,3.68,0.64
			c1.12,0.42,2.09,1.04,2.9,1.86c0.81,0.82,1.44,1.82,1.9,3c0.46,1.18,0.69,2.54,0.69,4.06c0,0.77-0.08,1.28-0.25,1.55
			c-0.16,0.27-0.48,0.4-0.95,0.4H505.73z M515.41,360.01c0-0.66-0.09-1.28-0.28-1.86c-0.18-0.58-0.46-1.09-0.83-1.53
			c-0.37-0.44-0.84-0.78-1.41-1.04c-0.57-0.25-1.23-0.38-1.98-0.38c-1.47,0-2.62,0.42-3.46,1.25c-0.84,0.84-1.38,2.02-1.61,3.55
			H515.41z"/>
		<path class="st1" d="M542.08,342.45v30.53h-3.1c-0.67,0-1.1-0.31-1.27-0.92l-0.43-2.03c-0.85,0.97-1.83,1.76-2.93,2.36
			c-1.1,0.6-2.39,0.9-3.85,0.9c-1.15,0-2.21-0.24-3.16-0.72c-0.96-0.48-1.78-1.17-2.48-2.09c-0.69-0.91-1.23-2.04-1.6-3.38
			c-0.38-1.34-0.57-2.88-0.57-4.6c0-1.56,0.21-3.01,0.64-4.36c0.42-1.34,1.03-2.51,1.83-3.49c0.79-0.99,1.75-1.76,2.86-2.31
			c1.11-0.55,2.36-0.83,3.74-0.83c1.18,0,2.18,0.18,3.02,0.55c0.84,0.37,1.58,0.87,2.24,1.5v-11.12H542.08z M537,357.28
			c-0.58-0.7-1.2-1.19-1.88-1.48c-0.68-0.29-1.41-0.43-2.19-0.43c-0.77,0-1.46,0.14-2.08,0.43c-0.62,0.29-1.14,0.72-1.58,1.3
			c-0.44,0.58-0.77,1.32-1.01,2.22c-0.23,0.9-0.35,1.96-0.35,3.17c0,1.23,0.1,2.28,0.3,3.13c0.2,0.86,0.48,1.55,0.85,2.1
			c0.37,0.54,0.82,0.93,1.36,1.17c0.53,0.24,1.13,0.36,1.79,0.36c1.05,0,1.95-0.22,2.69-0.66c0.74-0.44,1.44-1.06,2.1-1.87V357.28z"
			/>
		<path class="st1" d="M558.56,372.98v-17.26l-1.83-0.29c-0.4-0.08-0.72-0.22-0.96-0.42c-0.24-0.2-0.36-0.48-0.36-0.85v-2.08h3.14
			v-1.56c0-1.21,0.18-2.29,0.54-3.25c0.36-0.96,0.88-1.77,1.56-2.45c0.68-0.67,1.5-1.18,2.48-1.54c0.97-0.36,2.07-0.53,3.29-0.53
			c0.97,0,1.88,0.13,2.71,0.39l-0.1,2.55c-0.01,0.19-0.07,0.35-0.16,0.46c-0.1,0.12-0.22,0.21-0.38,0.27
			c-0.16,0.06-0.34,0.1-0.54,0.12c-0.21,0.02-0.42,0.03-0.66,0.03c-0.6,0-1.14,0.07-1.61,0.2c-0.47,0.13-0.87,0.36-1.2,0.68
			c-0.33,0.32-0.58,0.75-0.75,1.27c-0.17,0.53-0.26,1.18-0.26,1.96v1.4h5.49v3.62h-5.32v17.28H558.56z"/>
		<path class="st1" d="M580.6,351.57c1.56,0,2.98,0.25,4.26,0.76s2.38,1.23,3.29,2.16c0.91,0.93,1.61,2.07,2.11,3.41
			c0.49,1.34,0.74,2.84,0.74,4.5c0,1.67-0.25,3.18-0.74,4.52c-0.49,1.34-1.2,2.49-2.11,3.43c-0.91,0.95-2.01,1.67-3.29,2.18
			s-2.7,0.76-4.26,0.76c-1.58,0-3.01-0.25-4.29-0.76c-1.29-0.51-2.39-1.23-3.3-2.18c-0.91-0.95-1.62-2.09-2.12-3.43
			c-0.5-1.34-0.75-2.85-0.75-4.52c0-1.66,0.25-3.16,0.75-4.5c0.5-1.34,1.21-2.48,2.12-3.41c0.91-0.93,2.01-1.65,3.3-2.16
			C577.6,351.82,579.03,351.57,580.6,351.57z M580.6,369.38c1.75,0,3.05-0.59,3.89-1.77c0.84-1.18,1.26-2.9,1.26-5.18
			c0-2.27-0.42-4.01-1.26-5.2c-0.84-1.19-2.14-1.79-3.89-1.79c-1.78,0-3.1,0.6-3.96,1.8c-0.86,1.2-1.28,2.93-1.28,5.19
			s0.43,3.98,1.28,5.17C577.5,368.79,578.82,369.38,580.6,369.38z"/>
		<path class="st1" d="M599.67,355.56c0.66-1.26,1.44-2.25,2.34-2.97c0.9-0.72,1.97-1.08,3.21-1.08c0.97,0,1.75,0.21,2.34,0.64
			l-0.33,3.8c-0.07,0.25-0.17,0.42-0.3,0.52c-0.13,0.1-0.3,0.15-0.52,0.15c-0.21,0-0.51-0.03-0.91-0.1c-0.4-0.07-0.8-0.1-1.18-0.1
			c-0.56,0-1.06,0.08-1.5,0.25c-0.44,0.16-0.83,0.4-1.18,0.71c-0.35,0.31-0.66,0.68-0.92,1.12c-0.27,0.44-0.52,0.94-0.75,1.5v12.99
			h-5.08V351.9h2.98c0.52,0,0.88,0.09,1.09,0.28c0.21,0.18,0.34,0.52,0.41,1L599.67,355.56z"/>
		<path class="st1" d="M624.45,354.49c0.85-0.89,1.79-1.6,2.83-2.13c1.03-0.53,2.22-0.79,3.54-0.79c1.22,0,2.32,0.24,3.3,0.72
			c0.98,0.48,1.81,1.17,2.51,2.06c0.69,0.9,1.22,1.98,1.59,3.26c0.37,1.27,0.55,2.71,0.55,4.29c0,1.71-0.21,3.27-0.64,4.66
			c-0.42,1.4-1.03,2.59-1.82,3.59s-1.74,1.76-2.85,2.31s-2.34,0.82-3.7,0.82c-0.66,0-1.25-0.07-1.79-0.2
			c-0.53-0.13-1.03-0.31-1.48-0.54c-0.45-0.23-0.87-0.52-1.24-0.85c-0.38-0.34-0.74-0.71-1.08-1.12l-0.23,1.42
			c-0.08,0.36-0.22,0.61-0.42,0.76c-0.2,0.15-0.47,0.23-0.81,0.23h-3.35v-30.53h5.08V354.49z M624.45,367.51
			c0.58,0.7,1.2,1.19,1.88,1.48c0.68,0.29,1.39,0.43,2.15,0.43c0.78,0,1.48-0.14,2.11-0.42c0.62-0.28,1.15-0.72,1.59-1.31
			c0.44-0.6,0.77-1.36,1.01-2.28c0.23-0.92,0.35-2.03,0.35-3.32c0-2.31-0.38-3.99-1.15-5.02c-0.77-1.03-1.87-1.55-3.31-1.55
			c-0.97,0-1.82,0.22-2.55,0.67c-0.73,0.45-1.42,1.07-2.08,1.88V367.51z"/>
		<path class="st1" d="M642.2,354.84c2.42-2.22,5.34-3.33,8.75-3.33c1.23,0,2.34,0.2,3.31,0.61c0.97,0.4,1.79,0.97,2.47,1.68
			c0.67,0.72,1.18,1.58,1.53,2.58c0.35,1,0.52,2.1,0.52,3.29v13.31h-2.3c-0.48,0-0.85-0.07-1.11-0.22
			c-0.26-0.14-0.47-0.44-0.62-0.87l-0.45-1.52c-0.53,0.48-1.05,0.9-1.56,1.26s-1.03,0.67-1.58,0.91c-0.55,0.25-1.13,0.44-1.76,0.57
			c-0.62,0.13-1.31,0.19-2.06,0.19c-0.89,0-1.71-0.12-2.47-0.36c-0.75-0.24-1.4-0.6-1.95-1.08c-0.55-0.48-0.97-1.07-1.27-1.79
			c-0.3-0.71-0.45-1.54-0.45-2.49c0-0.53,0.09-1.06,0.27-1.59c0.18-0.53,0.47-1.03,0.87-1.51c0.4-0.48,0.93-0.93,1.57-1.36
			c0.64-0.42,1.43-0.79,2.37-1.11c0.94-0.31,2.03-0.57,3.28-0.77c1.25-0.2,2.67-0.32,4.27-0.36v-1.23c0-1.41-0.3-2.46-0.9-3.13
			c-0.6-0.68-1.47-1.02-2.61-1.02c-0.82,0-1.5,0.1-2.04,0.29c-0.54,0.19-1.02,0.41-1.43,0.65c-0.41,0.24-0.78,0.46-1.12,0.65
			c-0.34,0.19-0.71,0.29-1.12,0.29c-0.36,0-0.66-0.09-0.9-0.28c-0.25-0.18-0.45-0.4-0.6-0.65L642.2,354.84z M653.83,363.98
			c-1.47,0.07-2.7,0.2-3.7,0.38c-1,0.18-1.8,0.42-2.4,0.71c-0.6,0.29-1.03,0.62-1.29,1.01c-0.26,0.38-0.39,0.8-0.39,1.25
			c0,0.89,0.26,1.53,0.79,1.91c0.53,0.38,1.22,0.58,2.06,0.58c1.04,0,1.94-0.19,2.7-0.57c0.76-0.38,1.5-0.95,2.23-1.72V363.98z"/>
		<path class="st1" d="M678.65,356.36c-0.15,0.19-0.3,0.34-0.44,0.45c-0.14,0.11-0.35,0.16-0.63,0.16c-0.26,0-0.51-0.08-0.76-0.24
			c-0.25-0.16-0.54-0.34-0.88-0.53c-0.34-0.2-0.75-0.38-1.22-0.53c-0.47-0.16-1.06-0.24-1.76-0.24c-0.89,0-1.67,0.16-2.34,0.48
			c-0.67,0.32-1.23,0.78-1.67,1.39c-0.45,0.6-0.78,1.33-1,2.19c-0.22,0.86-0.33,1.83-0.33,2.91c0,1.12,0.12,2.12,0.36,3
			c0.24,0.88,0.59,1.61,1.04,2.21c0.45,0.6,1,1.05,1.64,1.36c0.64,0.31,1.37,0.46,2.18,0.46c0.81,0,1.46-0.1,1.96-0.3
			c0.5-0.2,0.92-0.42,1.26-0.66c0.34-0.24,0.64-0.46,0.89-0.66c0.25-0.2,0.54-0.3,0.85-0.3c0.41,0,0.72,0.16,0.92,0.47l1.46,1.85
			c-0.56,0.66-1.17,1.21-1.83,1.65c-0.66,0.45-1.34,0.8-2.04,1.07c-0.71,0.27-1.43,0.46-2.18,0.57c-0.75,0.11-1.49,0.16-2.23,0.16
			c-1.3,0-2.53-0.24-3.68-0.73c-1.15-0.49-2.16-1.19-3.02-2.13c-0.86-0.93-1.54-2.07-2.04-3.42c-0.5-1.35-0.75-2.89-0.75-4.61
			c0-1.55,0.22-2.98,0.67-4.3c0.44-1.32,1.1-2.47,1.96-3.43c0.86-0.97,1.93-1.72,3.2-2.27c1.27-0.55,2.74-0.82,4.4-0.82
			c1.58,0,2.96,0.25,4.14,0.76c1.18,0.51,2.25,1.23,3.2,2.18L678.65,356.36z"/>
		<path class="st1" d="M690.38,373.31c-1.84,0-3.24-0.52-4.22-1.55c-0.98-1.03-1.47-2.46-1.47-4.28V355.7h-2.16
			c-0.27,0-0.51-0.09-0.7-0.27c-0.19-0.18-0.29-0.44-0.29-0.8v-2.01l3.39-0.55l1.07-5.75c0.07-0.27,0.2-0.49,0.39-0.64
			c0.19-0.15,0.44-0.23,0.74-0.23h2.63v6.64h5.63v3.62h-5.63v11.42c0,0.66,0.16,1.17,0.48,1.54c0.32,0.37,0.76,0.55,1.33,0.55
			c0.31,0,0.58-0.04,0.79-0.11s0.4-0.15,0.55-0.24c0.16-0.08,0.3-0.16,0.42-0.24c0.12-0.08,0.25-0.11,0.37-0.11
			c0.15,0,0.27,0.04,0.37,0.11c0.1,0.08,0.2,0.19,0.31,0.34l1.52,2.47c-0.74,0.62-1.59,1.08-2.55,1.4
			C692.4,373.15,691.41,373.31,690.38,373.31z"/>
		<path class="st1" d="M702.42,363.08c0.08,1.08,0.27,2.02,0.57,2.8c0.3,0.79,0.7,1.44,1.19,1.95c0.49,0.51,1.08,0.9,1.76,1.15
			c0.68,0.25,1.43,0.38,2.25,0.38c0.82,0,1.53-0.1,2.13-0.29c0.6-0.19,1.12-0.4,1.56-0.64c0.45-0.23,0.84-0.44,1.17-0.64
			s0.66-0.29,0.98-0.29c0.42,0,0.74,0.16,0.95,0.47l1.46,1.85c-0.56,0.66-1.19,1.21-1.89,1.65c-0.7,0.45-1.43,0.8-2.19,1.07
			c-0.76,0.27-1.53,0.46-2.32,0.57c-0.79,0.11-1.55,0.16-2.29,0.16c-1.47,0-2.83-0.24-4.09-0.73c-1.26-0.49-2.36-1.21-3.29-2.16
			c-0.93-0.95-1.66-2.13-2.2-3.53c-0.53-1.4-0.8-3.03-0.8-4.88c0-1.44,0.23-2.79,0.7-4.06c0.47-1.27,1.13-2.37,2-3.31
			c0.87-0.94,1.93-1.68,3.19-2.23c1.25-0.55,2.67-0.82,4.24-0.82c1.33,0,2.55,0.21,3.68,0.64c1.12,0.42,2.09,1.04,2.9,1.86
			c0.81,0.82,1.44,1.82,1.9,3c0.46,1.18,0.69,2.54,0.69,4.06c0,0.77-0.08,1.28-0.25,1.55c-0.16,0.27-0.48,0.4-0.95,0.4H702.42z
			 M712.1,360.01c0-0.66-0.09-1.28-0.28-1.86c-0.18-0.58-0.46-1.09-0.83-1.53c-0.37-0.44-0.84-0.78-1.41-1.04
			c-0.57-0.25-1.23-0.38-1.98-0.38c-1.47,0-2.62,0.42-3.46,1.25c-0.84,0.84-1.38,2.02-1.61,3.55H712.1z"/>
		<path class="st1" d="M725.25,355.56c0.66-1.26,1.44-2.25,2.34-2.97s1.97-1.08,3.2-1.08c0.97,0,1.75,0.21,2.34,0.64l-0.33,3.8
			c-0.07,0.25-0.17,0.42-0.3,0.52c-0.13,0.1-0.3,0.15-0.52,0.15c-0.21,0-0.51-0.03-0.91-0.1c-0.4-0.07-0.8-0.1-1.18-0.1
			c-0.56,0-1.06,0.08-1.5,0.25c-0.44,0.16-0.83,0.4-1.18,0.71c-0.35,0.31-0.66,0.68-0.92,1.12c-0.27,0.44-0.52,0.94-0.75,1.5v12.99
			h-5.08V351.9h2.98c0.52,0,0.88,0.09,1.09,0.28c0.21,0.18,0.34,0.52,0.41,1L725.25,355.56z"/>
		<path class="st1" d="M741.74,345.75c0,0.44-0.09,0.85-0.27,1.23c-0.18,0.38-0.41,0.72-0.71,1.01c-0.29,0.29-0.64,0.52-1.04,0.69
			c-0.4,0.17-0.82,0.26-1.27,0.26c-0.44,0-0.85-0.09-1.24-0.26c-0.39-0.17-0.73-0.4-1.02-0.69c-0.29-0.29-0.52-0.62-0.69-1.01
			c-0.17-0.38-0.26-0.79-0.26-1.23c0-0.45,0.09-0.88,0.26-1.27c0.17-0.4,0.4-0.74,0.69-1.03c0.29-0.29,0.63-0.52,1.02-0.69
			c0.39-0.17,0.81-0.26,1.24-0.26c0.45,0,0.88,0.09,1.27,0.26c0.4,0.17,0.74,0.4,1.04,0.69c0.29,0.29,0.53,0.63,0.71,1.03
			C741.65,344.88,741.74,345.3,741.74,345.75z M741.05,351.9v21.08h-5.1V351.9H741.05z"/>
		<path class="st1" d="M745.73,354.84c2.42-2.22,5.34-3.33,8.75-3.33c1.23,0,2.33,0.2,3.31,0.61c0.97,0.4,1.79,0.97,2.46,1.68
			c0.67,0.72,1.18,1.58,1.53,2.58c0.35,1,0.52,2.1,0.52,3.29v13.31h-2.3c-0.48,0-0.85-0.07-1.11-0.22
			c-0.26-0.14-0.47-0.44-0.62-0.87l-0.45-1.52c-0.53,0.48-1.05,0.9-1.56,1.26s-1.03,0.67-1.58,0.91c-0.55,0.25-1.13,0.44-1.76,0.57
			c-0.62,0.13-1.31,0.19-2.06,0.19c-0.89,0-1.71-0.12-2.46-0.36c-0.75-0.24-1.4-0.6-1.95-1.08c-0.55-0.48-0.97-1.07-1.27-1.79
			c-0.3-0.71-0.45-1.54-0.45-2.49c0-0.53,0.09-1.06,0.27-1.59c0.18-0.53,0.47-1.03,0.87-1.51c0.4-0.48,0.93-0.93,1.57-1.36
			c0.64-0.42,1.44-0.79,2.37-1.11c0.94-0.31,2.03-0.57,3.28-0.77c1.25-0.2,2.67-0.32,4.27-0.36v-1.23c0-1.41-0.3-2.46-0.9-3.13
			c-0.6-0.68-1.47-1.02-2.61-1.02c-0.82,0-1.5,0.1-2.04,0.29c-0.54,0.19-1.02,0.41-1.43,0.65c-0.41,0.24-0.78,0.46-1.12,0.65
			c-0.34,0.19-0.71,0.29-1.12,0.29c-0.36,0-0.66-0.09-0.9-0.28c-0.25-0.18-0.45-0.4-0.6-0.65L745.73,354.84z M757.36,363.98
			c-1.47,0.07-2.7,0.2-3.7,0.38c-1,0.18-1.8,0.42-2.4,0.71c-0.6,0.29-1.03,0.62-1.29,1.01c-0.26,0.38-0.39,0.8-0.39,1.25
			c0,0.89,0.26,1.53,0.79,1.91c0.53,0.38,1.22,0.58,2.06,0.58c1.04,0,1.94-0.19,2.7-0.57c0.76-0.38,1.5-0.95,2.23-1.72V363.98z"/>
		<path class="st1" d="M772.21,342.45v30.53h-5.08v-30.53H772.21z"/>
		<path class="st1" d="M805.33,351.9l-8.36,21.08h-4.6l-8.36-21.08h4.19c0.38,0,0.7,0.09,0.95,0.27c0.25,0.18,0.42,0.4,0.5,0.68
			l4.07,11.26c0.22,0.66,0.41,1.3,0.58,1.93c0.16,0.63,0.31,1.26,0.43,1.89c0.14-0.63,0.29-1.26,0.45-1.89
			c0.16-0.63,0.36-1.27,0.6-1.93l4.15-11.26c0.1-0.27,0.27-0.5,0.51-0.68c0.25-0.18,0.54-0.27,0.88-0.27H805.33z"/>
		<path class="st1" d="M807.04,354.84c2.42-2.22,5.34-3.33,8.75-3.33c1.23,0,2.34,0.2,3.31,0.61c0.97,0.4,1.8,0.97,2.47,1.68
			c0.67,0.72,1.18,1.58,1.53,2.58c0.35,1,0.52,2.1,0.52,3.29v13.31h-2.3c-0.48,0-0.85-0.07-1.11-0.22
			c-0.26-0.14-0.47-0.44-0.62-0.87l-0.45-1.52c-0.53,0.48-1.06,0.9-1.56,1.26c-0.51,0.36-1.03,0.67-1.58,0.91
			c-0.55,0.25-1.13,0.44-1.76,0.57c-0.62,0.13-1.31,0.19-2.06,0.19c-0.89,0-1.71-0.12-2.47-0.36c-0.75-0.24-1.4-0.6-1.95-1.08
			c-0.55-0.48-0.97-1.07-1.27-1.79c-0.3-0.71-0.45-1.54-0.45-2.49c0-0.53,0.09-1.06,0.27-1.59c0.18-0.53,0.47-1.03,0.87-1.51
			c0.4-0.48,0.93-0.93,1.57-1.36c0.64-0.42,1.43-0.79,2.37-1.11c0.94-0.31,2.03-0.57,3.28-0.77c1.25-0.2,2.67-0.32,4.27-0.36v-1.23
			c0-1.41-0.3-2.46-0.9-3.13c-0.6-0.68-1.47-1.02-2.61-1.02c-0.82,0-1.5,0.1-2.04,0.29c-0.54,0.19-1.02,0.41-1.43,0.65
			c-0.41,0.24-0.78,0.46-1.12,0.65c-0.34,0.19-0.71,0.29-1.12,0.29c-0.36,0-0.66-0.09-0.9-0.28s-0.45-0.4-0.6-0.65L807.04,354.84z
			 M818.67,363.98c-1.47,0.07-2.7,0.2-3.7,0.38c-1,0.18-1.8,0.42-2.4,0.71c-0.6,0.29-1.03,0.62-1.29,1.01
			c-0.26,0.38-0.39,0.8-0.39,1.25c0,0.89,0.26,1.53,0.79,1.91c0.53,0.38,1.22,0.58,2.06,0.58c1.04,0,1.94-0.19,2.7-0.57
			c0.76-0.38,1.5-0.95,2.23-1.72V363.98z"/>
		<path class="st1" d="M846.88,352.62v1.89c0,0.6-0.36,0.97-1.09,1.11l-1.89,0.35c0.29,0.73,0.43,1.52,0.43,2.38
			c0,1.04-0.21,1.98-0.63,2.83c-0.42,0.84-1,1.56-1.74,2.15c-0.74,0.59-1.61,1.04-2.62,1.37c-1.01,0.32-2.09,0.48-3.26,0.48
			c-0.41,0-0.81-0.02-1.19-0.06c-0.38-0.04-0.76-0.1-1.13-0.16c-0.66,0.4-0.99,0.84-0.99,1.34c0,0.42,0.2,0.74,0.58,0.93
			c0.39,0.2,0.91,0.34,1.55,0.42c0.64,0.08,1.38,0.13,2.2,0.15c0.82,0.02,1.66,0.07,2.53,0.13c0.86,0.07,1.71,0.19,2.53,0.36
			c0.82,0.17,1.55,0.44,2.2,0.81c0.64,0.37,1.16,0.87,1.55,1.51c0.39,0.64,0.59,1.46,0.59,2.46c0,0.93-0.23,1.83-0.69,2.71
			c-0.46,0.88-1.12,1.66-1.99,2.34c-0.87,0.68-1.94,1.24-3.21,1.65c-1.27,0.42-2.71,0.63-4.32,0.63c-1.59,0-2.97-0.15-4.15-0.46
			c-1.18-0.31-2.16-0.72-2.94-1.23c-0.78-0.51-1.36-1.11-1.75-1.78c-0.38-0.67-0.57-1.37-0.57-2.1c0-0.99,0.3-1.81,0.89-2.48
			c0.6-0.66,1.41-1.2,2.45-1.59c-0.56-0.29-1.01-0.67-1.34-1.15c-0.33-0.48-0.49-1.11-0.49-1.89c0-0.31,0.06-0.64,0.17-0.98
			c0.12-0.34,0.29-0.67,0.51-1c0.23-0.33,0.51-0.64,0.85-0.94c0.34-0.29,0.75-0.56,1.21-0.79c-1.07-0.58-1.91-1.34-2.52-2.3
			c-0.61-0.96-0.91-2.08-0.91-3.37c0-1.04,0.21-1.98,0.63-2.83c0.42-0.84,1-1.56,1.75-2.16c0.75-0.6,1.63-1.05,2.65-1.37
			c1.02-0.31,2.13-0.47,3.34-0.47c0.9,0,1.75,0.09,2.55,0.28c0.79,0.18,1.52,0.46,2.18,0.81H846.88z M841.82,373.92
			c0-0.41-0.12-0.75-0.37-1.01c-0.25-0.26-0.58-0.46-1.01-0.61c-0.42-0.14-0.92-0.25-1.49-0.32c-0.57-0.07-1.17-0.12-1.81-0.15
			c-0.64-0.03-1.29-0.06-1.97-0.09c-0.68-0.03-1.34-0.08-1.98-0.16c-0.56,0.32-1.02,0.69-1.37,1.11c-0.35,0.42-0.52,0.92-0.52,1.48
			c0,0.37,0.09,0.72,0.28,1.04c0.18,0.32,0.48,0.6,0.88,0.83c0.4,0.23,0.93,0.41,1.57,0.54c0.64,0.13,1.43,0.2,2.36,0.2
			c0.95,0,1.76-0.07,2.45-0.22c0.69-0.14,1.25-0.34,1.69-0.6c0.45-0.25,0.77-0.55,0.98-0.9
			C841.72,374.71,841.82,374.33,841.82,373.92z M836.09,361.92c0.63,0,1.18-0.09,1.64-0.26c0.47-0.17,0.85-0.41,1.16-0.71
			c0.31-0.3,0.54-0.66,0.7-1.09c0.16-0.42,0.24-0.89,0.24-1.4c0-1.04-0.31-1.87-0.93-2.48c-0.62-0.61-1.56-0.91-2.8-0.91
			s-2.18,0.3-2.8,0.91c-0.62,0.61-0.93,1.44-0.93,2.48c0,0.49,0.08,0.95,0.24,1.38c0.16,0.42,0.39,0.79,0.7,1.1
			c0.31,0.31,0.7,0.55,1.17,0.72C834.93,361.84,835.47,361.92,836.09,361.92z"/>
		<path class="st1" d="M856.04,345.75c0,0.44-0.09,0.85-0.27,1.23c-0.18,0.38-0.41,0.72-0.71,1.01c-0.29,0.29-0.64,0.52-1.04,0.69
			c-0.4,0.17-0.82,0.26-1.27,0.26c-0.44,0-0.85-0.09-1.24-0.26c-0.39-0.17-0.73-0.4-1.02-0.69c-0.29-0.29-0.52-0.62-0.69-1.01
			c-0.17-0.38-0.26-0.79-0.26-1.23c0-0.45,0.08-0.88,0.26-1.27c0.17-0.4,0.4-0.74,0.69-1.03c0.29-0.29,0.63-0.52,1.02-0.69
			c0.39-0.17,0.8-0.26,1.24-0.26c0.45,0,0.88,0.09,1.27,0.26c0.4,0.17,0.74,0.4,1.04,0.69c0.29,0.29,0.53,0.63,0.71,1.03
			C855.95,344.88,856.04,345.3,856.04,345.75z M855.34,351.9v21.08h-5.1V351.9H855.34z"/>
		<path class="st1" d="M865.26,354.49c0.42-0.42,0.87-0.82,1.35-1.18c0.47-0.36,0.97-0.67,1.5-0.92c0.53-0.25,1.09-0.45,1.69-0.6
			c0.6-0.14,1.26-0.22,1.97-0.22c1.15,0,2.17,0.2,3.06,0.59c0.89,0.39,1.63,0.94,2.23,1.64c0.6,0.71,1.05,1.55,1.36,2.53
			c0.31,0.98,0.46,2.06,0.46,3.24v13.42h-5.08v-13.42c0-1.29-0.29-2.28-0.88-2.99c-0.59-0.71-1.49-1.06-2.69-1.06
			c-0.88,0-1.7,0.2-2.47,0.6c-0.77,0.4-1.49,0.94-2.18,1.62v15.25h-5.08V351.9h3.1c0.66,0,1.09,0.31,1.29,0.92L865.26,354.49z"/>
		<path class="st1" d="M893.02,351.57c1.56,0,2.98,0.25,4.26,0.76s2.38,1.23,3.29,2.16c0.91,0.93,1.61,2.07,2.11,3.41
			c0.49,1.34,0.74,2.84,0.74,4.5c0,1.67-0.25,3.18-0.74,4.52c-0.49,1.34-1.19,2.49-2.11,3.43c-0.91,0.95-2.01,1.67-3.29,2.18
			s-2.7,0.76-4.26,0.76c-1.58,0-3.01-0.25-4.29-0.76c-1.29-0.51-2.39-1.23-3.3-2.18c-0.91-0.95-1.62-2.09-2.12-3.43
			c-0.5-1.34-0.75-2.85-0.75-4.52c0-1.66,0.25-3.16,0.75-4.5c0.5-1.34,1.21-2.48,2.12-3.41c0.91-0.93,2.01-1.65,3.3-2.16
			C890.02,351.82,891.45,351.57,893.02,351.57z M893.02,369.38c1.75,0,3.05-0.59,3.89-1.77c0.84-1.18,1.26-2.9,1.26-5.18
			c0-2.27-0.42-4.01-1.26-5.2c-0.84-1.19-2.14-1.79-3.89-1.79c-1.78,0-3.1,0.6-3.96,1.8c-0.86,1.2-1.28,2.93-1.28,5.19
			s0.43,3.98,1.28,5.17C889.92,368.79,891.24,369.38,893.02,369.38z"/>
		<path class="st1" d="M920.16,356.01c-0.14,0.22-0.28,0.37-0.43,0.46c-0.15,0.09-0.34,0.13-0.58,0.13c-0.25,0-0.51-0.07-0.79-0.21
			c-0.28-0.14-0.61-0.29-0.98-0.46c-0.37-0.17-0.79-0.33-1.26-0.46c-0.47-0.14-1.03-0.21-1.67-0.21c-1,0-1.78,0.21-2.35,0.64
			c-0.57,0.42-0.85,0.98-0.85,1.66c0,0.45,0.15,0.83,0.44,1.14c0.29,0.31,0.69,0.58,1.17,0.81c0.49,0.23,1.04,0.44,1.65,0.63
			c0.62,0.18,1.24,0.39,1.88,0.61c0.64,0.22,1.26,0.47,1.88,0.75s1.17,0.64,1.65,1.07c0.49,0.43,0.88,0.95,1.17,1.55
			c0.29,0.6,0.44,1.33,0.44,2.18c0,1.01-0.18,1.95-0.54,2.8c-0.36,0.86-0.9,1.6-1.61,2.22c-0.71,0.62-1.59,1.11-2.64,1.46
			c-1.05,0.35-2.26,0.52-3.63,0.52c-0.73,0-1.43-0.07-2.13-0.19c-0.69-0.13-1.36-0.31-1.99-0.54c-0.64-0.23-1.23-0.51-1.77-0.82
			c-0.54-0.31-1.02-0.66-1.43-1.03l1.17-1.93c0.15-0.23,0.33-0.41,0.53-0.53c0.21-0.12,0.47-0.18,0.78-0.18
			c0.32,0,0.61,0.09,0.89,0.27c0.28,0.18,0.61,0.37,0.98,0.58c0.37,0.21,0.81,0.4,1.31,0.58c0.5,0.18,1.13,0.27,1.9,0.27
			c0.6,0,1.12-0.07,1.55-0.22c0.43-0.14,0.79-0.33,1.07-0.56c0.28-0.23,0.49-0.5,0.62-0.81c0.13-0.31,0.19-0.63,0.19-0.96
			c0-0.49-0.15-0.9-0.44-1.21c-0.29-0.31-0.68-0.59-1.17-0.82c-0.49-0.23-1.04-0.44-1.66-0.63c-0.62-0.18-1.26-0.39-1.91-0.61
			c-0.65-0.22-1.29-0.48-1.91-0.77c-0.62-0.29-1.18-0.67-1.66-1.12c-0.49-0.45-0.88-1.01-1.17-1.66c-0.29-0.66-0.44-1.45-0.44-2.38
			c0-0.86,0.17-1.68,0.51-2.47c0.34-0.78,0.85-1.46,1.51-2.04c0.66-0.58,1.49-1.05,2.49-1.4c0.99-0.35,2.14-0.52,3.44-0.52
			c1.45,0,2.77,0.24,3.96,0.72c1.19,0.48,2.18,1.11,2.98,1.89L920.16,356.01z"/>
		<path class="st1" d="M931.32,345.75c0,0.44-0.09,0.85-0.27,1.23c-0.18,0.38-0.41,0.72-0.71,1.01c-0.29,0.29-0.64,0.52-1.04,0.69
			c-0.4,0.17-0.82,0.26-1.27,0.26c-0.44,0-0.85-0.09-1.24-0.26c-0.39-0.17-0.73-0.4-1.02-0.69c-0.29-0.29-0.52-0.62-0.69-1.01
			c-0.17-0.38-0.26-0.79-0.26-1.23c0-0.45,0.08-0.88,0.26-1.27c0.17-0.4,0.4-0.74,0.69-1.03c0.29-0.29,0.63-0.52,1.02-0.69
			c0.39-0.17,0.8-0.26,1.24-0.26c0.45,0,0.88,0.09,1.27,0.26c0.4,0.17,0.74,0.4,1.04,0.69c0.29,0.29,0.53,0.63,0.71,1.03
			C931.23,344.88,931.32,345.3,931.32,345.75z M930.62,351.9v21.08h-5.1V351.9H930.62z"/>
		<path class="st1" d="M948.66,356.01c-0.14,0.22-0.28,0.37-0.43,0.46c-0.15,0.09-0.34,0.13-0.58,0.13c-0.25,0-0.51-0.07-0.79-0.21
			c-0.28-0.14-0.61-0.29-0.98-0.46c-0.37-0.17-0.79-0.33-1.26-0.46c-0.47-0.14-1.03-0.21-1.67-0.21c-1,0-1.78,0.21-2.35,0.64
			c-0.57,0.42-0.85,0.98-0.85,1.66c0,0.45,0.15,0.83,0.44,1.14c0.29,0.31,0.69,0.58,1.17,0.81c0.49,0.23,1.04,0.44,1.65,0.63
			s1.24,0.39,1.88,0.61c0.64,0.22,1.26,0.47,1.88,0.75c0.62,0.28,1.17,0.64,1.65,1.07c0.49,0.43,0.88,0.95,1.17,1.55
			c0.29,0.6,0.44,1.33,0.44,2.18c0,1.01-0.18,1.95-0.54,2.8c-0.36,0.86-0.9,1.6-1.61,2.22c-0.71,0.62-1.59,1.11-2.64,1.46
			c-1.05,0.35-2.26,0.52-3.63,0.52c-0.73,0-1.43-0.07-2.13-0.19c-0.69-0.13-1.36-0.31-1.99-0.54c-0.64-0.23-1.23-0.51-1.77-0.82
			c-0.54-0.31-1.02-0.66-1.43-1.03l1.17-1.93c0.15-0.23,0.33-0.41,0.53-0.53c0.21-0.12,0.47-0.18,0.78-0.18
			c0.32,0,0.61,0.09,0.89,0.27c0.28,0.18,0.61,0.37,0.98,0.58c0.37,0.21,0.81,0.4,1.31,0.58c0.5,0.18,1.13,0.27,1.9,0.27
			c0.6,0,1.12-0.07,1.55-0.22c0.43-0.14,0.79-0.33,1.07-0.56c0.28-0.23,0.49-0.5,0.62-0.81c0.13-0.31,0.19-0.63,0.19-0.96
			c0-0.49-0.15-0.9-0.44-1.21c-0.29-0.31-0.68-0.59-1.17-0.82c-0.49-0.23-1.04-0.44-1.66-0.63c-0.62-0.18-1.26-0.39-1.91-0.61
			c-0.65-0.22-1.29-0.48-1.91-0.77c-0.62-0.29-1.18-0.67-1.66-1.12c-0.49-0.45-0.88-1.01-1.17-1.66c-0.29-0.66-0.44-1.45-0.44-2.38
			c0-0.86,0.17-1.68,0.51-2.47c0.34-0.78,0.85-1.46,1.51-2.04c0.66-0.58,1.49-1.05,2.49-1.4c0.99-0.35,2.14-0.52,3.44-0.52
			c1.45,0,2.77,0.24,3.96,0.72c1.19,0.48,2.18,1.11,2.98,1.89L948.66,356.01z"/>
		<path class="st1" d="M967.23,360.1c0,2.82,0.34,5.6,1.03,8.32c0.68,2.73,1.66,5.29,2.94,7.68c0.14,0.27,0.21,0.52,0.24,0.73
			c0.02,0.21,0,0.4-0.05,0.55c-0.05,0.16-0.14,0.29-0.26,0.41c-0.12,0.12-0.24,0.22-0.38,0.3l-2.26,1.38
			c-1.01-1.56-1.88-3.13-2.59-4.71c-0.71-1.58-1.29-3.16-1.75-4.77c-0.45-1.6-0.78-3.23-1-4.87c-0.21-1.64-0.32-3.32-0.32-5.03
			c0-1.71,0.11-3.39,0.32-5.04c0.21-1.65,0.54-3.28,1-4.88c0.45-1.6,1.03-3.19,1.75-4.76c0.71-1.57,1.58-3.13,2.59-4.69l2.26,1.36
			c0.14,0.08,0.26,0.18,0.38,0.3c0.12,0.12,0.2,0.25,0.26,0.41c0.05,0.16,0.07,0.34,0.05,0.55c-0.02,0.21-0.1,0.46-0.24,0.75
			c-1.27,2.38-2.25,4.94-2.94,7.67C967.58,354.5,967.23,357.27,967.23,360.1z"/>
		<path class="st1" d="M986.16,343.27c1.95,0,3.61,0.18,4.99,0.55c1.38,0.37,2.52,0.9,3.4,1.58c0.88,0.68,1.53,1.51,1.94,2.49
			c0.41,0.97,0.62,2.07,0.62,3.29c0,0.7-0.1,1.37-0.31,2c-0.21,0.64-0.52,1.23-0.95,1.79s-0.98,1.06-1.64,1.51
			c-0.66,0.45-1.46,0.84-2.37,1.15c4.08,0.92,6.12,3.12,6.12,6.62c0,1.26-0.24,2.42-0.72,3.49c-0.48,1.07-1.18,1.99-2.09,2.76
			c-0.92,0.77-2.05,1.38-3.39,1.82c-1.34,0.44-2.88,0.66-4.6,0.66h-11.22v-29.71H986.16z M981.45,347.54v8.59h4.4
			c1.89,0,3.32-0.34,4.28-1.03c0.97-0.68,1.45-1.77,1.45-3.27c0-1.55-0.44-2.65-1.31-3.31c-0.88-0.66-2.25-0.99-4.11-0.99H981.45z
			 M987.04,368.66c1.03,0,1.89-0.12,2.59-0.37s1.26-0.58,1.67-0.99c0.42-0.41,0.72-0.89,0.9-1.44c0.18-0.55,0.28-1.13,0.28-1.75
			c0-0.64-0.1-1.22-0.31-1.74c-0.21-0.51-0.53-0.95-0.97-1.31c-0.44-0.36-1-0.64-1.69-0.83c-0.69-0.19-1.52-0.29-2.5-0.29h-5.57
			v8.71H987.04z"/>
		<path class="st1" d="M1027.87,343.27l-12,29.71h-4.99l-12-29.71h4.44c0.48,0,0.87,0.12,1.17,0.35c0.3,0.23,0.53,0.53,0.68,0.9
			l7.01,18.12c0.23,0.59,0.45,1.24,0.67,1.94c0.21,0.71,0.41,1.44,0.61,2.21c0.17-0.77,0.34-1.5,0.53-2.21
			c0.19-0.71,0.4-1.35,0.64-1.94l6.97-18.12c0.11-0.31,0.32-0.6,0.65-0.86c0.32-0.26,0.72-0.39,1.18-0.39H1027.87z"/>
		<path class="st1" d="M1033.37,360.1c0-2.82-0.34-5.6-1.02-8.33c-0.68-2.73-1.65-5.29-2.93-7.67c-0.15-0.29-0.24-0.54-0.26-0.75
			c-0.02-0.21,0-0.4,0.05-0.55c0.05-0.16,0.14-0.29,0.26-0.41c0.12-0.12,0.25-0.22,0.4-0.3l2.26-1.36c1.01,1.56,1.88,3.13,2.59,4.69
			c0.71,1.57,1.3,3.15,1.75,4.76c0.45,1.6,0.78,3.23,0.99,4.88c0.21,1.65,0.31,3.33,0.31,5.04c0,1.71-0.1,3.39-0.31,5.03
			c-0.21,1.64-0.53,3.27-0.99,4.87c-0.45,1.6-1.03,3.19-1.75,4.77c-0.71,1.58-1.58,3.14-2.59,4.71l-2.26-1.38
			c-0.15-0.08-0.28-0.18-0.4-0.3c-0.12-0.12-0.2-0.25-0.26-0.41c-0.05-0.16-0.07-0.34-0.05-0.55c0.02-0.21,0.11-0.46,0.26-0.73
			c1.27-2.4,2.25-4.96,2.93-7.68C1033.03,365.69,1033.37,362.92,1033.37,360.1z"/>
		<path class="st1" d="M1055.68,363.08c0.08,1.08,0.27,2.02,0.58,2.8c0.3,0.79,0.7,1.44,1.19,1.95c0.49,0.51,1.08,0.9,1.76,1.15
			c0.68,0.25,1.43,0.38,2.25,0.38s1.53-0.1,2.13-0.29c0.6-0.19,1.12-0.4,1.56-0.64c0.44-0.23,0.84-0.44,1.17-0.64
			c0.33-0.19,0.66-0.29,0.98-0.29c0.42,0,0.74,0.16,0.94,0.47l1.46,1.85c-0.56,0.66-1.19,1.21-1.89,1.65
			c-0.7,0.45-1.43,0.8-2.19,1.07c-0.76,0.27-1.53,0.46-2.32,0.57c-0.79,0.11-1.55,0.16-2.29,0.16c-1.47,0-2.83-0.24-4.09-0.73
			c-1.26-0.49-2.36-1.21-3.29-2.16c-0.93-0.95-1.66-2.13-2.2-3.53c-0.53-1.4-0.8-3.03-0.8-4.88c0-1.44,0.23-2.79,0.7-4.06
			c0.47-1.27,1.13-2.37,2-3.31c0.87-0.94,1.93-1.68,3.18-2.23c1.25-0.55,2.67-0.82,4.24-0.82c1.33,0,2.55,0.21,3.68,0.64
			c1.12,0.42,2.09,1.04,2.9,1.86c0.81,0.82,1.44,1.82,1.9,3c0.46,1.18,0.69,2.54,0.69,4.06c0,0.77-0.08,1.28-0.25,1.55
			c-0.16,0.27-0.48,0.4-0.94,0.4H1055.68z M1065.36,360.01c0-0.66-0.09-1.28-0.28-1.86c-0.18-0.58-0.46-1.09-0.83-1.53
			c-0.37-0.44-0.84-0.78-1.41-1.04c-0.57-0.25-1.23-0.38-1.98-0.38c-1.47,0-2.62,0.42-3.46,1.25c-0.84,0.84-1.38,2.02-1.61,3.55
			H1065.36z"/>
		<path class="st1" d="M1073.23,354.84c2.42-2.22,5.34-3.33,8.75-3.33c1.23,0,2.34,0.2,3.31,0.61c0.97,0.4,1.8,0.97,2.47,1.68
			c0.67,0.72,1.18,1.58,1.53,2.58c0.35,1,0.52,2.1,0.52,3.29v13.31h-2.3c-0.48,0-0.85-0.07-1.11-0.22
			c-0.26-0.14-0.47-0.44-0.62-0.87l-0.45-1.52c-0.53,0.48-1.06,0.9-1.56,1.26c-0.51,0.36-1.03,0.67-1.58,0.91
			c-0.55,0.25-1.13,0.44-1.76,0.57c-0.62,0.13-1.31,0.19-2.06,0.19c-0.89,0-1.71-0.12-2.47-0.36c-0.75-0.24-1.4-0.6-1.95-1.08
			c-0.55-0.48-0.97-1.07-1.27-1.79c-0.3-0.71-0.45-1.54-0.45-2.49c0-0.53,0.09-1.06,0.27-1.59c0.18-0.53,0.47-1.03,0.87-1.51
			c0.4-0.48,0.93-0.93,1.57-1.36c0.64-0.42,1.43-0.79,2.37-1.11c0.94-0.31,2.03-0.57,3.28-0.77c1.25-0.2,2.67-0.32,4.27-0.36v-1.23
			c0-1.41-0.3-2.46-0.9-3.13c-0.6-0.68-1.47-1.02-2.61-1.02c-0.82,0-1.5,0.1-2.04,0.29c-0.54,0.19-1.02,0.41-1.43,0.65
			c-0.41,0.24-0.78,0.46-1.12,0.65c-0.34,0.19-0.71,0.29-1.12,0.29c-0.36,0-0.66-0.09-0.9-0.28c-0.25-0.18-0.45-0.4-0.6-0.65
			L1073.23,354.84z M1084.86,363.98c-1.47,0.07-2.7,0.2-3.7,0.38c-1,0.18-1.8,0.42-2.4,0.71c-0.6,0.29-1.03,0.62-1.29,1.01
			c-0.26,0.38-0.39,0.8-0.39,1.25c0,0.89,0.26,1.53,0.79,1.91c0.53,0.38,1.22,0.58,2.06,0.58c1.04,0,1.94-0.19,2.7-0.57
			c0.76-0.38,1.5-0.95,2.23-1.72V363.98z"/>
		<path class="st1" d="M1109.68,356.36c-0.15,0.19-0.3,0.34-0.44,0.45c-0.14,0.11-0.35,0.16-0.63,0.16c-0.26,0-0.51-0.08-0.76-0.24
			c-0.25-0.16-0.54-0.34-0.88-0.53c-0.34-0.2-0.75-0.38-1.22-0.53c-0.47-0.16-1.06-0.24-1.76-0.24c-0.89,0-1.67,0.16-2.34,0.48
			c-0.67,0.32-1.23,0.78-1.68,1.39c-0.45,0.6-0.78,1.33-1,2.19c-0.22,0.86-0.33,1.83-0.33,2.91c0,1.12,0.12,2.12,0.36,3
			c0.24,0.88,0.58,1.61,1.04,2.21c0.45,0.6,1,1.05,1.64,1.36c0.64,0.31,1.37,0.46,2.18,0.46c0.81,0,1.46-0.1,1.96-0.3
			c0.5-0.2,0.92-0.42,1.26-0.66c0.34-0.24,0.64-0.46,0.89-0.66c0.25-0.2,0.54-0.3,0.85-0.3c0.41,0,0.72,0.16,0.92,0.47l1.46,1.85
			c-0.56,0.66-1.17,1.21-1.83,1.65c-0.66,0.45-1.34,0.8-2.04,1.07c-0.71,0.27-1.43,0.46-2.18,0.57c-0.75,0.11-1.49,0.16-2.23,0.16
			c-1.3,0-2.53-0.24-3.68-0.73s-2.16-1.19-3.02-2.13c-0.86-0.93-1.55-2.07-2.04-3.42c-0.5-1.35-0.75-2.89-0.75-4.61
			c0-1.55,0.22-2.98,0.67-4.3c0.45-1.32,1.1-2.47,1.96-3.43c0.86-0.97,1.93-1.72,3.2-2.27c1.27-0.55,2.74-0.82,4.4-0.82
			c1.58,0,2.95,0.25,4.14,0.76c1.18,0.51,2.25,1.23,3.19,2.18L1109.68,356.36z"/>
		<path class="st1" d="M1119.46,354.16c0.82-0.77,1.72-1.39,2.71-1.87c0.99-0.48,2.14-0.72,3.47-0.72c1.15,0,2.17,0.2,3.06,0.59
			c0.89,0.39,1.63,0.94,2.23,1.64c0.6,0.71,1.05,1.55,1.36,2.53c0.31,0.98,0.46,2.06,0.46,3.24v13.42h-5.08v-13.42
			c0-1.29-0.29-2.28-0.88-2.99c-0.59-0.71-1.49-1.06-2.69-1.06c-0.88,0-1.7,0.2-2.47,0.6c-0.77,0.4-1.49,0.94-2.18,1.62v15.25h-5.08
			v-30.53h5.08V354.16z"/>
		<path class="st1" d="M1165.67,351.9l-11.49,26.87c-0.15,0.36-0.35,0.63-0.58,0.81c-0.24,0.18-0.61,0.28-1.1,0.28h-3.78l3.94-8.46
			l-8.53-19.5h4.46c0.4,0,0.71,0.1,0.93,0.29c0.23,0.19,0.39,0.41,0.5,0.66l4.48,10.93c0.15,0.37,0.28,0.74,0.38,1.11
			c0.1,0.37,0.2,0.75,0.3,1.13c0.12-0.38,0.25-0.76,0.37-1.14c0.12-0.38,0.26-0.75,0.41-1.12l4.23-10.91
			c0.11-0.27,0.29-0.5,0.54-0.68c0.25-0.18,0.54-0.27,0.85-0.27H1165.67z"/>
		<path class="st1" d="M1171.44,363.08c0.08,1.08,0.27,2.02,0.57,2.8c0.3,0.79,0.7,1.44,1.19,1.95c0.49,0.51,1.08,0.9,1.76,1.15
			c0.68,0.25,1.43,0.38,2.25,0.38c0.82,0,1.53-0.1,2.13-0.29c0.6-0.19,1.12-0.4,1.56-0.64c0.45-0.23,0.84-0.44,1.17-0.64
			c0.34-0.19,0.66-0.29,0.98-0.29c0.42,0,0.74,0.16,0.95,0.47l1.46,1.85c-0.56,0.66-1.19,1.21-1.89,1.65
			c-0.7,0.45-1.43,0.8-2.19,1.07c-0.76,0.27-1.53,0.46-2.32,0.57c-0.79,0.11-1.55,0.16-2.29,0.16c-1.47,0-2.83-0.24-4.09-0.73
			s-2.36-1.21-3.29-2.16c-0.93-0.95-1.67-2.13-2.2-3.53c-0.53-1.4-0.8-3.03-0.8-4.88c0-1.44,0.23-2.79,0.7-4.06
			c0.47-1.27,1.13-2.37,2-3.31c0.87-0.94,1.93-1.68,3.19-2.23c1.25-0.55,2.67-0.82,4.24-0.82c1.33,0,2.55,0.21,3.68,0.64
			c1.12,0.42,2.09,1.04,2.9,1.86c0.81,0.82,1.44,1.82,1.9,3c0.46,1.18,0.69,2.54,0.69,4.06c0,0.77-0.08,1.28-0.25,1.55
			c-0.16,0.27-0.48,0.4-0.95,0.4H1171.44z M1181.12,360.01c0-0.66-0.09-1.28-0.28-1.86c-0.19-0.58-0.46-1.09-0.83-1.53
			c-0.37-0.44-0.84-0.78-1.41-1.04c-0.57-0.25-1.23-0.38-1.98-0.38c-1.47,0-2.62,0.42-3.46,1.25c-0.84,0.84-1.38,2.02-1.61,3.55
			H1181.12z"/>
		<path class="st1" d="M1188.99,354.84c2.42-2.22,5.34-3.33,8.75-3.33c1.23,0,2.33,0.2,3.31,0.61c0.97,0.4,1.79,0.97,2.46,1.68
			c0.67,0.72,1.18,1.58,1.53,2.58c0.35,1,0.52,2.1,0.52,3.29v13.31h-2.3c-0.48,0-0.85-0.07-1.11-0.22
			c-0.26-0.14-0.47-0.44-0.62-0.87l-0.45-1.52c-0.53,0.48-1.05,0.9-1.56,1.26c-0.51,0.36-1.03,0.67-1.58,0.91
			c-0.55,0.25-1.13,0.44-1.76,0.57c-0.62,0.13-1.31,0.19-2.06,0.19c-0.89,0-1.71-0.12-2.46-0.36c-0.75-0.24-1.4-0.6-1.95-1.08
			c-0.55-0.48-0.97-1.07-1.27-1.79c-0.3-0.71-0.45-1.54-0.45-2.49c0-0.53,0.09-1.06,0.27-1.59c0.18-0.53,0.47-1.03,0.87-1.51
			c0.4-0.48,0.93-0.93,1.57-1.36c0.64-0.42,1.44-0.79,2.37-1.11c0.94-0.31,2.03-0.57,3.28-0.77c1.25-0.2,2.67-0.32,4.27-0.36v-1.23
			c0-1.41-0.3-2.46-0.9-3.13c-0.6-0.68-1.47-1.02-2.61-1.02c-0.82,0-1.5,0.1-2.04,0.29c-0.54,0.19-1.02,0.41-1.43,0.65
			c-0.41,0.24-0.78,0.46-1.12,0.65c-0.34,0.19-0.71,0.29-1.12,0.29c-0.36,0-0.66-0.09-0.9-0.28c-0.25-0.18-0.45-0.4-0.6-0.65
			L1188.99,354.84z M1200.62,363.98c-1.47,0.07-2.7,0.2-3.7,0.38c-1,0.18-1.8,0.42-2.4,0.71c-0.6,0.29-1.03,0.62-1.29,1.01
			c-0.26,0.38-0.39,0.8-0.39,1.25c0,0.89,0.26,1.53,0.79,1.91c0.53,0.38,1.22,0.58,2.06,0.58c1.04,0,1.94-0.19,2.7-0.57
			c0.76-0.38,1.5-0.95,2.23-1.72V363.98z"/>
		<path class="st1" d="M1215.12,355.56c0.66-1.26,1.44-2.25,2.34-2.97c0.9-0.72,1.97-1.08,3.21-1.08c0.97,0,1.75,0.21,2.34,0.64
			l-0.33,3.8c-0.07,0.25-0.17,0.42-0.3,0.52c-0.13,0.1-0.3,0.15-0.52,0.15c-0.2,0-0.51-0.03-0.91-0.1c-0.4-0.07-0.8-0.1-1.18-0.1
			c-0.56,0-1.06,0.08-1.5,0.25c-0.44,0.16-0.83,0.4-1.18,0.71c-0.35,0.31-0.66,0.68-0.92,1.12c-0.27,0.44-0.52,0.94-0.75,1.5v12.99
			h-5.07V351.9h2.98c0.52,0,0.88,0.09,1.09,0.28c0.21,0.18,0.34,0.52,0.41,1L1215.12,355.56z"/>
		<path class="st1" d="M1223.32,370.18c0-0.42,0.08-0.83,0.24-1.21c0.16-0.38,0.37-0.71,0.65-0.99c0.27-0.27,0.6-0.49,0.99-0.66
			c0.38-0.16,0.79-0.25,1.23-0.25c0.44,0,0.85,0.08,1.22,0.25c0.38,0.16,0.71,0.38,0.99,0.66c0.28,0.27,0.5,0.6,0.67,0.99
			c0.16,0.38,0.25,0.79,0.25,1.21c0,0.44-0.08,0.85-0.25,1.22s-0.39,0.7-0.67,0.98c-0.28,0.27-0.61,0.49-0.99,0.65
			c-0.38,0.16-0.78,0.24-1.22,0.24c-0.44,0-0.85-0.08-1.23-0.24c-0.38-0.16-0.71-0.37-0.99-0.65c-0.27-0.27-0.49-0.6-0.65-0.98
			S1223.32,370.62,1223.32,370.18z"/>
	</g>
	<g>
		<path class="st1" d="M1243.38,357.08v2.22h-9.58v-2.22h3.51v-10.1c0-0.4,0.01-0.81,0.04-1.23l-2.49,2.08
			c-0.14,0.11-0.29,0.18-0.42,0.21c-0.14,0.03-0.27,0.03-0.4,0.01c-0.12-0.02-0.23-0.07-0.33-0.13c-0.1-0.06-0.17-0.13-0.21-0.2
			l-0.93-1.28l5.28-4.49h2.43v15.13H1243.38z"/>
	</g>
	<g>
		<path class="st1" d="M411.05,274.74v10.46c0,0.92-0.31,1.72-0.93,2.4c-0.62,0.68-1.51,1.02-2.67,1.02h-5.41v20.13h-16.23v-20.13
			h-35.22c-1.16,0-2.21-0.36-3.16-1.08c-0.94-0.72-1.53-1.62-1.77-2.7l-1.92-9.2l40.51-54.45h17.79v53.55H411.05z M385.81,274.74
			V251.9c0-1.4,0.05-2.91,0.15-4.54c0.1-1.62,0.25-3.32,0.45-5.08l-23.14,32.46H385.81z"/>
		<path class="st1" d="M447.83,308.75v-62.33h11.54c2.32,0,3.85,1.04,4.57,3.13l1.02,3.37c1.04-1.08,2.12-2.07,3.25-2.98
			c1.12-0.9,2.33-1.68,3.64-2.34c1.3-0.66,2.7-1.18,4.21-1.56c1.5-0.38,3.16-0.57,4.96-0.57c3.77,0,6.88,0.97,9.35,2.91
			c2.46,1.94,4.34,4.54,5.62,7.78c1.04-1.92,2.31-3.57,3.82-4.93c1.5-1.36,3.13-2.46,4.87-3.31c1.74-0.84,3.59-1.46,5.53-1.86
			c1.94-0.4,3.88-0.6,5.8-0.6c3.57,0,6.73,0.53,9.5,1.59c2.76,1.06,5.08,2.61,6.94,4.63c1.86,2.02,3.28,4.51,4.24,7.45
			c0.96,2.95,1.44,6.28,1.44,10.01v39.61h-18.63v-39.61c0-6.45-2.76-9.68-8.29-9.68c-2.52,0-4.62,0.83-6.28,2.49
			c-1.66,1.66-2.49,4.06-2.49,7.18v39.61h-18.63v-39.61c0-3.57-0.7-6.07-2.1-7.51c-1.4-1.44-3.47-2.16-6.19-2.16
			c-1.68,0-3.28,0.38-4.78,1.14c-1.5,0.76-2.91,1.78-4.24,3.07v45.08H447.83z"/>
		<path class="st1" d="M571.11,229.36c0,1.48-0.3,2.88-0.9,4.18c-0.6,1.3-1.42,2.44-2.46,3.43c-1.04,0.98-2.25,1.76-3.64,2.34
			c-1.38,0.58-2.86,0.87-4.42,0.87c-1.52,0-2.94-0.29-4.27-0.87c-1.32-0.58-2.49-1.36-3.52-2.34c-1.02-0.98-1.82-2.12-2.4-3.43
			c-0.58-1.3-0.87-2.69-0.87-4.18c0-1.52,0.29-2.94,0.87-4.27c0.58-1.32,1.38-2.48,2.4-3.49c1.02-1,2.19-1.78,3.52-2.34
			c1.32-0.56,2.74-0.84,4.27-0.84c1.56,0,3.04,0.28,4.42,0.84c1.38,0.56,2.59,1.34,3.64,2.34c1.04,1,1.86,2.16,2.46,3.49
			C570.81,226.41,571.11,227.84,571.11,229.36z M569.18,246.43v62.33h-18.63v-62.33H569.18z"/>
		<path class="st1" d="M600.86,218.78v89.98h-18.63v-89.98H600.86z"/>
		<path class="st1" d="M632.11,218.78v89.98h-18.63v-89.98H632.11z"/>
		<path class="st1" d="M665.71,229.36c0,1.48-0.3,2.88-0.9,4.18c-0.6,1.3-1.42,2.44-2.46,3.43c-1.04,0.98-2.25,1.76-3.64,2.34
			c-1.38,0.58-2.86,0.87-4.42,0.87c-1.52,0-2.94-0.29-4.27-0.87c-1.32-0.58-2.49-1.36-3.52-2.34c-1.02-0.98-1.82-2.12-2.4-3.43
			c-0.58-1.3-0.87-2.69-0.87-4.18c0-1.52,0.29-2.94,0.87-4.27c0.58-1.32,1.38-2.48,2.4-3.49c1.02-1,2.19-1.78,3.52-2.34
			c1.32-0.56,2.74-0.84,4.27-0.84c1.56,0,3.04,0.28,4.42,0.84c1.38,0.56,2.59,1.34,3.64,2.34c1.04,1,1.86,2.16,2.46,3.49
			C665.41,226.41,665.71,227.84,665.71,229.36z M663.79,246.43v62.33h-18.63v-62.33H663.79z"/>
		<path class="st1" d="M705.56,245.47c4.73,0,9.04,0.74,12.92,2.22c3.89,1.48,7.22,3.61,10.01,6.37c2.78,2.76,4.95,6.12,6.49,10.07
			c1.54,3.95,2.32,8.38,2.32,13.31c0,4.97-0.77,9.45-2.32,13.43c-1.54,3.99-3.71,7.37-6.49,10.16c-2.79,2.79-6.12,4.93-10.01,6.43
			c-3.89,1.5-8.19,2.25-12.92,2.25c-4.77,0-9.11-0.75-13.01-2.25c-3.91-1.5-7.27-3.65-10.1-6.43c-2.83-2.78-5.01-6.17-6.55-10.16
			c-1.54-3.99-2.31-8.46-2.31-13.43c0-4.93,0.77-9.37,2.31-13.31c1.54-3.95,3.73-7.3,6.55-10.07c2.82-2.76,6.19-4.89,10.1-6.37
			C696.45,246.21,700.79,245.47,705.56,245.47z M705.56,295.89c4.29,0,7.44-1.51,9.47-4.54c2.02-3.03,3.03-7.62,3.03-13.79
			c0-6.17-1.01-10.76-3.03-13.76c-2.02-3.01-5.18-4.51-9.47-4.51c-4.41,0-7.63,1.5-9.68,4.51c-2.04,3.01-3.07,7.59-3.07,13.76
			c0,6.17,1.02,10.77,3.07,13.79C697.92,294.38,701.15,295.89,705.56,295.89z"/>
		<path class="st1" d="M763.86,253.16c1.2-1.12,2.44-2.16,3.73-3.13c1.28-0.96,2.66-1.77,4.12-2.43c1.46-0.66,3.04-1.18,4.75-1.56
			c1.7-0.38,3.56-0.57,5.56-0.57c3.41,0,6.42,0.59,9.05,1.77c2.62,1.18,4.84,2.82,6.64,4.93c1.8,2.1,3.16,4.61,4.09,7.51
			c0.92,2.91,1.38,6.06,1.38,9.47v39.61h-18.63v-39.61c0-3.04-0.7-5.42-2.1-7.12c-1.4-1.7-3.47-2.55-6.19-2.55
			c-2.04,0-3.96,0.43-5.74,1.29c-1.78,0.86-3.52,2.03-5.2,3.52v44.48h-18.63v-62.33h11.54c2.32,0,3.85,1.04,4.57,3.13L763.86,253.16
			z"/>
		<path class="st1" d="M932.39,246.43l-19.35,62.33h-15.15c-0.8,0-1.48-0.24-2.04-0.72c-0.56-0.48-1-1.28-1.32-2.4l-8.9-31.07
			c-0.44-1.4-0.83-2.78-1.17-4.15c-0.34-1.36-0.65-2.74-0.93-4.15c-0.28,1.4-0.59,2.81-0.93,4.21c-0.34,1.4-0.73,2.81-1.17,4.21
			l-9.02,30.95c-0.6,2.08-1.92,3.13-3.97,3.13h-14.43l-19.35-62.33h14.91c1.32,0,2.43,0.31,3.34,0.93c0.9,0.62,1.51,1.39,1.83,2.31
			l6.25,27.95c0.52,2.12,0.98,4.18,1.38,6.16c0.4,1.98,0.76,3.98,1.08,5.98c0.52-2,1.07-4,1.65-5.98c0.58-1.98,1.21-4.04,1.89-6.16
			l7.81-28.01c0.32-0.92,0.92-1.69,1.8-2.31c0.88-0.62,1.92-0.93,3.13-0.93h8.29c1.32,0,2.43,0.31,3.34,0.93
			c0.9,0.62,1.51,1.39,1.83,2.31l7.45,28.01c0.6,2.12,1.19,4.19,1.77,6.19c0.58,2,1.11,4.03,1.59,6.07c0.32-2,0.7-4.01,1.14-6.01
			c0.44-2,0.94-4.09,1.5-6.25l6.61-27.95c0.32-0.92,0.92-1.69,1.8-2.31c0.88-0.62,1.92-0.93,3.13-0.93H932.39z"/>
		<path class="st1" d="M966.64,245.47c4.73,0,9.04,0.74,12.92,2.22c3.89,1.48,7.22,3.61,10.01,6.37c2.78,2.76,4.95,6.12,6.49,10.07
			c1.54,3.95,2.32,8.38,2.32,13.31c0,4.97-0.77,9.45-2.32,13.43c-1.54,3.99-3.71,7.37-6.49,10.16c-2.79,2.79-6.12,4.93-10.01,6.43
			c-3.89,1.5-8.19,2.25-12.92,2.25c-4.77,0-9.11-0.75-13.01-2.25c-3.91-1.5-7.27-3.65-10.1-6.43c-2.83-2.78-5.01-6.17-6.55-10.16
			c-1.54-3.99-2.31-8.46-2.31-13.43c0-4.93,0.77-9.37,2.31-13.31c1.54-3.95,3.73-7.3,6.55-10.07c2.82-2.76,6.19-4.89,10.1-6.37
			C957.54,246.21,961.88,245.47,966.64,245.47z M966.64,295.89c4.29,0,7.44-1.51,9.47-4.54c2.02-3.03,3.03-7.62,3.03-13.79
			c0-6.17-1.01-10.76-3.03-13.76c-2.02-3.01-5.18-4.51-9.47-4.51c-4.41,0-7.63,1.5-9.68,4.51c-2.04,3.01-3.07,7.59-3.07,13.76
			c0,6.17,1.02,10.77,3.07,13.79C959.01,294.38,962.24,295.89,966.64,295.89z"/>
		<path class="st1" d="M1007.76,308.75v-62.33h11.54c2.32,0,3.85,1.04,4.57,3.13l1.02,3.37c1.04-1.08,2.12-2.07,3.25-2.98
			c1.12-0.9,2.33-1.68,3.64-2.34c1.3-0.66,2.7-1.18,4.21-1.56c1.5-0.38,3.16-0.57,4.96-0.57c3.77,0,6.88,0.97,9.35,2.91
			c2.46,1.94,4.34,4.54,5.62,7.78c1.04-1.92,2.31-3.57,3.82-4.93c1.5-1.36,3.13-2.46,4.87-3.31c1.74-0.84,3.59-1.46,5.53-1.86
			c1.94-0.4,3.88-0.6,5.8-0.6c3.57,0,6.73,0.53,9.5,1.59c2.76,1.06,5.08,2.61,6.94,4.63c1.86,2.02,3.28,4.51,4.24,7.45
			c0.96,2.95,1.44,6.28,1.44,10.01v39.61h-18.63v-39.61c0-6.45-2.76-9.68-8.29-9.68c-2.52,0-4.62,0.83-6.28,2.49
			c-1.66,1.66-2.49,4.06-2.49,7.18v39.61h-18.63v-39.61c0-3.57-0.7-6.07-2.1-7.51c-1.4-1.44-3.47-2.16-6.19-2.16
			c-1.68,0-3.28,0.38-4.78,1.14c-1.5,0.76-2.92,1.78-4.24,3.07v45.08H1007.76z"/>
		<path class="st1" d="M1125.38,280.93c0.6,5.21,2.18,8.99,4.75,11.33c2.56,2.34,5.87,3.52,9.92,3.52c2.16,0,4.03-0.26,5.59-0.78
			c1.56-0.52,2.95-1.1,4.18-1.74c1.22-0.64,2.34-1.22,3.37-1.74c1.02-0.52,2.09-0.78,3.22-0.78c1.48,0,2.6,0.54,3.37,1.62l5.41,6.67
			c-1.92,2.2-4,4-6.22,5.38c-2.22,1.38-4.51,2.46-6.85,3.25c-2.34,0.78-4.69,1.32-7.03,1.62c-2.34,0.3-4.58,0.45-6.7,0.45
			c-4.37,0-8.46-0.71-12.29-2.13c-3.83-1.42-7.17-3.54-10.04-6.34c-2.86-2.8-5.13-6.29-6.79-10.46c-1.66-4.17-2.49-9.02-2.49-14.55
			c0-4.17,0.71-8.11,2.13-11.84c1.42-3.73,3.47-6.99,6.13-9.8c2.66-2.8,5.89-5.03,9.68-6.67c3.79-1.64,8.06-2.46,12.83-2.46
			c4.13,0,7.9,0.64,11.33,1.92c3.43,1.28,6.37,3.15,8.84,5.59c2.46,2.44,4.39,5.44,5.77,8.99c1.38,3.55,2.07,7.56,2.07,12.05
			c0,1.4-0.06,2.54-0.18,3.43c-0.12,0.88-0.34,1.58-0.66,2.1c-0.32,0.52-0.75,0.88-1.29,1.08c-0.54,0.2-1.23,0.3-2.07,0.3H1125.38z
			 M1148.82,270.11c0-1.48-0.19-2.92-0.57-4.33c-0.38-1.4-1-2.65-1.86-3.76c-0.86-1.1-1.99-1.99-3.4-2.67
			c-1.4-0.68-3.11-1.02-5.11-1.02c-3.53,0-6.29,1.01-8.29,3.04c-2.01,2.02-3.33,4.94-3.97,8.75H1148.82z"/>
		<path class="st1" d="M1192.03,253.16c1.2-1.12,2.44-2.16,3.73-3.13c1.28-0.96,2.65-1.77,4.12-2.43c1.46-0.66,3.04-1.18,4.75-1.56
			c1.7-0.38,3.56-0.57,5.56-0.57c3.41,0,6.42,0.59,9.05,1.77c2.62,1.18,4.84,2.82,6.64,4.93c1.8,2.1,3.17,4.61,4.09,7.51
			c0.92,2.91,1.38,6.06,1.38,9.47v39.61h-18.63v-39.61c0-3.04-0.7-5.42-2.1-7.12c-1.4-1.7-3.47-2.55-6.19-2.55
			c-2.04,0-3.96,0.43-5.74,1.29c-1.78,0.86-3.51,2.03-5.2,3.52v44.48h-18.63v-62.33h11.54c2.32,0,3.85,1.04,4.57,3.13
			L1192.03,253.16z"/>
	</g>
	<polygon class="st1" points="356.84,420.36 346.06,411.37 346.06,429.35 	"/>
	<path class="st2" d="M368.38,429.34h-2.76v-18.52h2.76V429.34z M376.15,429.55c-1.06,0-1.87-0.3-2.44-0.89
		c-0.57-0.59-0.86-1.44-0.86-2.54v-7.84h-1.52c-0.15,0-0.27-0.05-0.37-0.14c-0.1-0.09-0.15-0.23-0.15-0.41v-1.02l2.13-0.3l0.57-3.91
		c0.03-0.15,0.1-0.26,0.2-0.34c0.1-0.08,0.23-0.12,0.38-0.12h1.28v4.4h3.71v1.83h-3.71v7.67c0,0.52,0.13,0.9,0.38,1.15
		c0.25,0.25,0.58,0.38,0.97,0.38c0.23,0,0.43-0.03,0.6-0.09c0.17-0.06,0.31-0.13,0.43-0.2c0.12-0.07,0.22-0.14,0.31-0.2
		c0.09-0.06,0.16-0.09,0.23-0.09c0.09,0,0.15,0.02,0.2,0.06c0.05,0.04,0.1,0.1,0.15,0.19l0.75,1.21c-0.41,0.38-0.9,0.67-1.47,0.88
		C377.35,429.45,376.76,429.55,376.15,429.55z M383.1,409.59c0.38,0.63,0.63,1.29,0.77,1.98c0.13,0.69,0.15,1.38,0.05,2.05
		c-0.1,0.67-0.33,1.32-0.67,1.95c-0.34,0.62-0.8,1.18-1.37,1.67l-0.77-0.49c-0.15-0.09-0.21-0.21-0.19-0.34
		c0.02-0.13,0.06-0.24,0.14-0.32c0.21-0.26,0.4-0.58,0.56-0.96c0.16-0.38,0.26-0.8,0.32-1.25c0.05-0.45,0.03-0.92-0.05-1.4
		c-0.09-0.48-0.27-0.95-0.54-1.42c-0.12-0.2-0.15-0.37-0.1-0.53c0.05-0.15,0.16-0.27,0.34-0.34L383.1,409.59z M394.08,418.5
		c-0.07,0.11-0.14,0.19-0.22,0.24c-0.08,0.05-0.18,0.07-0.3,0.07c-0.14,0-0.29-0.05-0.46-0.14c-0.17-0.09-0.37-0.2-0.61-0.31
		c-0.24-0.11-0.51-0.21-0.83-0.31c-0.32-0.09-0.7-0.14-1.13-0.14c-0.36,0-0.69,0.05-0.99,0.14c-0.3,0.09-0.55,0.21-0.75,0.37
		c-0.21,0.16-0.37,0.35-0.48,0.57c-0.11,0.22-0.17,0.45-0.17,0.7c0,0.33,0.1,0.6,0.29,0.81c0.19,0.21,0.45,0.4,0.76,0.55
		c0.31,0.15,0.67,0.29,1.07,0.42c0.4,0.12,0.81,0.26,1.23,0.39c0.42,0.14,0.83,0.29,1.23,0.47c0.4,0.18,0.76,0.4,1.07,0.66
		c0.31,0.26,0.57,0.58,0.76,0.95c0.19,0.37,0.29,0.82,0.29,1.35c0,0.61-0.11,1.18-0.33,1.7c-0.22,0.52-0.54,0.97-0.97,1.35
		c-0.43,0.38-0.95,0.67-1.58,0.89c-0.63,0.21-1.35,0.32-2.15,0.32c-0.9,0-1.74-0.15-2.5-0.45c-0.77-0.3-1.41-0.68-1.92-1.15
		l0.59-0.97c0.07-0.12,0.15-0.21,0.26-0.28s0.24-0.1,0.41-0.1c0.16,0,0.33,0.06,0.5,0.18c0.17,0.12,0.38,0.25,0.62,0.39
		c0.24,0.14,0.53,0.27,0.88,0.39c0.34,0.12,0.77,0.17,1.29,0.17c0.43,0,0.8-0.05,1.12-0.16c0.32-0.11,0.58-0.25,0.79-0.44
		c0.21-0.18,0.37-0.4,0.47-0.64c0.1-0.24,0.15-0.49,0.15-0.76c0-0.34-0.1-0.63-0.29-0.86c-0.19-0.23-0.45-0.42-0.76-0.59
		c-0.31-0.16-0.67-0.31-1.08-0.43c-0.4-0.12-0.82-0.25-1.24-0.39c-0.42-0.14-0.83-0.3-1.24-0.48c-0.4-0.18-0.76-0.41-1.08-0.68
		c-0.31-0.28-0.57-0.61-0.76-1.01c-0.19-0.4-0.29-0.88-0.29-1.44c0-0.51,0.11-0.99,0.32-1.46c0.21-0.46,0.52-0.87,0.92-1.23
		c0.4-0.35,0.89-0.63,1.48-0.84c0.59-0.21,1.26-0.32,2.02-0.32c0.87,0,1.65,0.14,2.35,0.41c0.7,0.28,1.3,0.65,1.8,1.13L394.08,418.5
		z M414.8,427.47c-0.31,0.36-0.67,0.67-1.07,0.93c-0.4,0.26-0.83,0.48-1.29,0.64c-0.46,0.16-0.93,0.28-1.41,0.36
		c-0.49,0.08-0.97,0.12-1.44,0.12c-0.9,0-1.74-0.15-2.51-0.46c-0.77-0.31-1.44-0.75-2-1.34c-0.56-0.59-1-1.32-1.32-2.19
		c-0.31-0.87-0.47-1.88-0.47-3.01c0-0.91,0.14-1.76,0.43-2.55c0.28-0.79,0.69-1.47,1.22-2.06c0.53-0.58,1.18-1.04,1.94-1.38
		c0.77-0.34,1.62-0.5,2.58-0.5c0.8,0,1.54,0.13,2.21,0.39c0.67,0.26,1.26,0.64,1.75,1.14c0.49,0.5,0.87,1.11,1.15,1.84
		c0.28,0.73,0.42,1.56,0.42,2.5c0,0.39-0.04,0.65-0.13,0.78c-0.09,0.13-0.24,0.2-0.48,0.2h-8.59c0.03,0.78,0.14,1.46,0.34,2.04
		c0.2,0.58,0.47,1.06,0.82,1.45c0.35,0.39,0.76,0.67,1.24,0.86c0.48,0.19,1.02,0.28,1.61,0.28c0.56,0,1.04-0.06,1.45-0.19
		c0.41-0.13,0.76-0.27,1.06-0.42c0.3-0.15,0.55-0.29,0.75-0.42c0.2-0.13,0.38-0.19,0.54-0.19c0.21,0,0.37,0.08,0.48,0.23
		L414.8,427.47z M412.72,421.34c0-0.5-0.07-0.96-0.21-1.38c-0.14-0.42-0.35-0.79-0.63-1.1c-0.28-0.31-0.61-0.55-1.01-0.72
		c-0.4-0.17-0.85-0.26-1.37-0.26c-1.06,0-1.89,0.31-2.5,0.92c-0.61,0.61-0.99,1.46-1.15,2.54H412.72z M425.41,418.5
		c-0.07,0.11-0.14,0.19-0.22,0.24c-0.08,0.05-0.18,0.07-0.3,0.07c-0.14,0-0.29-0.05-0.46-0.14c-0.17-0.09-0.37-0.2-0.61-0.31
		c-0.24-0.11-0.51-0.21-0.83-0.31c-0.32-0.09-0.7-0.14-1.13-0.14c-0.36,0-0.69,0.05-0.99,0.14c-0.3,0.09-0.55,0.21-0.75,0.37
		c-0.21,0.16-0.37,0.35-0.48,0.57c-0.11,0.22-0.17,0.45-0.17,0.7c0,0.33,0.1,0.6,0.29,0.81c0.19,0.21,0.45,0.4,0.76,0.55
		c0.31,0.15,0.67,0.29,1.07,0.42c0.4,0.12,0.81,0.26,1.23,0.39c0.42,0.14,0.83,0.29,1.23,0.47c0.4,0.18,0.76,0.4,1.07,0.66
		c0.31,0.26,0.57,0.58,0.76,0.95c0.19,0.37,0.29,0.82,0.29,1.35c0,0.61-0.11,1.18-0.33,1.7c-0.22,0.52-0.54,0.97-0.97,1.35
		c-0.43,0.38-0.95,0.67-1.58,0.89c-0.63,0.21-1.35,0.32-2.15,0.32c-0.9,0-1.74-0.15-2.5-0.45c-0.77-0.3-1.41-0.68-1.92-1.15
		l0.59-0.97c0.07-0.12,0.15-0.21,0.26-0.28c0.1-0.06,0.24-0.1,0.41-0.1c0.16,0,0.33,0.06,0.5,0.18c0.17,0.12,0.38,0.25,0.62,0.39
		c0.24,0.14,0.53,0.27,0.88,0.39c0.34,0.12,0.77,0.17,1.29,0.17c0.43,0,0.8-0.05,1.12-0.16c0.32-0.11,0.58-0.25,0.79-0.44
		c0.21-0.18,0.37-0.4,0.47-0.64c0.1-0.24,0.15-0.49,0.15-0.76c0-0.34-0.1-0.63-0.29-0.86c-0.19-0.23-0.45-0.42-0.76-0.59
		c-0.31-0.16-0.67-0.31-1.08-0.43c-0.4-0.12-0.82-0.25-1.24-0.39c-0.42-0.14-0.83-0.3-1.24-0.48c-0.4-0.18-0.76-0.41-1.08-0.68
		c-0.31-0.28-0.57-0.61-0.76-1.01c-0.19-0.4-0.29-0.88-0.29-1.44c0-0.51,0.11-0.99,0.32-1.46c0.21-0.46,0.52-0.87,0.92-1.23
		c0.4-0.35,0.89-0.63,1.48-0.84c0.59-0.21,1.26-0.32,2.02-0.32c0.87,0,1.65,0.14,2.35,0.41c0.7,0.28,1.3,0.65,1.8,1.13L425.41,418.5
		z M441.3,429.34h-2.53v-11.06h-6.58v7.67c0,0.52,0.13,0.9,0.38,1.15c0.25,0.25,0.58,0.38,0.97,0.38c0.23,0,0.43-0.03,0.6-0.09
		c0.17-0.06,0.31-0.13,0.43-0.2c0.12-0.07,0.22-0.14,0.31-0.2c0.09-0.06,0.16-0.09,0.23-0.09c0.09,0,0.15,0.02,0.2,0.06
		c0.05,0.04,0.1,0.1,0.15,0.19l0.75,1.21c-0.41,0.38-0.9,0.67-1.47,0.88c-0.57,0.21-1.16,0.31-1.77,0.31c-1.06,0-1.87-0.3-2.44-0.89
		c-0.57-0.59-0.86-1.44-0.86-2.54v-7.84h-1.52c-0.15,0-0.27-0.05-0.37-0.14c-0.1-0.09-0.15-0.23-0.15-0.41v-1.02l2.14-0.3l0.55-3.91
		c0.03-0.15,0.1-0.26,0.2-0.34c0.1-0.08,0.23-0.12,0.38-0.12h1.28v4.4h9.1V429.34z M441.86,412.12c0,0.23-0.05,0.45-0.14,0.66
		c-0.09,0.21-0.22,0.4-0.38,0.55c-0.16,0.16-0.35,0.28-0.56,0.37c-0.22,0.09-0.44,0.14-0.67,0.14c-0.23,0-0.45-0.05-0.66-0.14
		c-0.21-0.09-0.39-0.21-0.55-0.37c-0.16-0.16-0.28-0.34-0.37-0.55c-0.09-0.21-0.14-0.43-0.14-0.66c0-0.24,0.05-0.47,0.14-0.68
		c0.09-0.21,0.21-0.4,0.37-0.56c0.16-0.16,0.34-0.28,0.55-0.37c0.21-0.09,0.43-0.14,0.66-0.14c0.23,0,0.46,0.05,0.67,0.14
		c0.21,0.09,0.4,0.21,0.56,0.37c0.16,0.16,0.29,0.35,0.38,0.56C441.82,411.65,441.86,411.88,441.86,412.12z M444.95,429.34v-13.1
		h1.51c0.35,0,0.57,0.17,0.66,0.5l0.18,1.25c0.48-0.58,1.02-1.05,1.61-1.41c0.59-0.37,1.28-0.55,2.07-0.55
		c0.87,0,1.57,0.24,2.11,0.72c0.54,0.48,0.94,1.12,1.19,1.94c0.19-0.46,0.43-0.86,0.74-1.2c0.3-0.34,0.64-0.61,1.01-0.83
		c0.37-0.21,0.76-0.37,1.18-0.48c0.42-0.1,0.84-0.15,1.27-0.15c0.7,0,1.32,0.11,1.86,0.33c0.55,0.22,1.01,0.54,1.39,0.96
		c0.38,0.42,0.67,0.94,0.86,1.56c0.2,0.62,0.3,1.32,0.3,2.11v8.34h-2.53V421c0-0.98-0.21-1.72-0.64-2.22
		c-0.43-0.5-1.05-0.75-1.86-0.75c-0.36,0-0.7,0.06-1.03,0.19c-0.33,0.12-0.61,0.31-0.86,0.56c-0.24,0.25-0.44,0.56-0.58,0.93
		c-0.14,0.37-0.21,0.8-0.21,1.29v8.34h-2.53V421c0-1.01-0.2-1.76-0.61-2.24c-0.4-0.48-1-0.72-1.78-0.72c-0.54,0-1.04,0.14-1.51,0.43
		c-0.46,0.28-0.89,0.67-1.28,1.16v9.72H444.95z M465.91,418.07c0.73-0.7,1.52-1.22,2.38-1.56c0.86-0.34,1.79-0.52,2.82-0.52
		c0.75,0,1.41,0.12,1.99,0.37c0.58,0.24,1.06,0.59,1.46,1.03c0.4,0.44,0.69,0.96,0.9,1.57c0.2,0.61,0.3,1.29,0.3,2.02v8.36h-1.12
		c-0.25,0-0.44-0.04-0.57-0.12c-0.13-0.08-0.23-0.23-0.31-0.46l-0.27-1.15c-0.34,0.31-0.67,0.58-0.99,0.82
		c-0.33,0.24-0.67,0.44-1.03,0.61c-0.36,0.17-0.74,0.29-1.14,0.38c-0.4,0.09-0.85,0.13-1.34,0.13c-0.52,0-1-0.07-1.45-0.21
		c-0.45-0.14-0.84-0.36-1.18-0.65c-0.34-0.29-0.6-0.66-0.79-1.1c-0.19-0.44-0.29-0.95-0.29-1.53c0-0.52,0.14-1.01,0.42-1.49
		c0.28-0.48,0.74-0.9,1.37-1.28c0.63-0.38,1.46-0.69,2.48-0.93c1.02-0.24,2.27-0.38,3.76-0.41v-0.95c0-0.99-0.21-1.73-0.63-2.22
		c-0.42-0.49-1.04-0.74-1.86-0.74c-0.55,0-1.01,0.07-1.39,0.21c-0.37,0.14-0.7,0.29-0.97,0.46c-0.27,0.17-0.51,0.32-0.71,0.46
		c-0.2,0.14-0.41,0.21-0.63,0.21c-0.17,0-0.32-0.05-0.44-0.14c-0.12-0.09-0.23-0.21-0.3-0.34L465.91,418.07z M473.29,423.53
		c-1.02,0.03-1.89,0.11-2.6,0.24c-0.71,0.12-1.29,0.29-1.74,0.5c-0.45,0.21-0.77,0.45-0.97,0.73c-0.2,0.28-0.3,0.59-0.3,0.93
		c0,0.33,0.05,0.61,0.16,0.84c0.11,0.24,0.25,0.43,0.44,0.58c0.18,0.15,0.4,0.26,0.65,0.33c0.25,0.07,0.52,0.1,0.81,0.1
		c0.39,0,0.74-0.04,1.06-0.12c0.32-0.08,0.63-0.19,0.91-0.33c0.28-0.14,0.55-0.32,0.81-0.52c0.26-0.21,0.51-0.44,0.76-0.71V423.53z
		 M483.06,429.55c-1.06,0-1.87-0.3-2.44-0.89c-0.57-0.59-0.86-1.44-0.86-2.54v-7.84h-1.52c-0.15,0-0.27-0.05-0.37-0.14
		c-0.1-0.09-0.15-0.23-0.15-0.41v-1.02l2.13-0.3l0.57-3.91c0.03-0.15,0.1-0.26,0.2-0.34c0.1-0.08,0.23-0.12,0.38-0.12h1.28v4.4h3.71
		v1.83h-3.71v7.67c0,0.52,0.13,0.9,0.38,1.15c0.25,0.25,0.58,0.38,0.97,0.38c0.23,0,0.43-0.03,0.6-0.09
		c0.17-0.06,0.31-0.13,0.43-0.2c0.12-0.07,0.22-0.14,0.31-0.2c0.09-0.06,0.16-0.09,0.23-0.09c0.09,0,0.15,0.02,0.2,0.06
		c0.05,0.04,0.1,0.1,0.15,0.19l0.75,1.21c-0.41,0.38-0.9,0.67-1.47,0.88C484.26,429.45,483.67,429.55,483.06,429.55z M498.98,427.47
		c-0.31,0.36-0.67,0.67-1.07,0.93c-0.4,0.26-0.83,0.48-1.29,0.64c-0.46,0.16-0.93,0.28-1.41,0.36c-0.49,0.08-0.97,0.12-1.44,0.12
		c-0.9,0-1.74-0.15-2.51-0.46c-0.77-0.31-1.44-0.75-2-1.34c-0.56-0.59-1-1.32-1.32-2.19c-0.31-0.87-0.47-1.88-0.47-3.01
		c0-0.91,0.14-1.76,0.43-2.55c0.28-0.79,0.69-1.47,1.22-2.06c0.53-0.58,1.18-1.04,1.94-1.38c0.77-0.34,1.62-0.5,2.58-0.5
		c0.8,0,1.54,0.13,2.21,0.39c0.67,0.26,1.26,0.64,1.75,1.14c0.49,0.5,0.87,1.11,1.15,1.84c0.28,0.73,0.42,1.56,0.42,2.5
		c0,0.39-0.04,0.65-0.13,0.78c-0.09,0.13-0.24,0.2-0.48,0.2h-8.59c0.03,0.78,0.14,1.46,0.34,2.04c0.2,0.58,0.47,1.06,0.82,1.45
		c0.35,0.39,0.76,0.67,1.24,0.86c0.48,0.19,1.02,0.28,1.61,0.28c0.56,0,1.04-0.06,1.45-0.19c0.41-0.13,0.76-0.27,1.06-0.42
		c0.3-0.15,0.55-0.29,0.75-0.42c0.2-0.13,0.38-0.19,0.54-0.19c0.21,0,0.37,0.08,0.48,0.23L498.98,427.47z M496.9,421.34
		c0-0.5-0.07-0.96-0.21-1.38c-0.14-0.42-0.35-0.79-0.63-1.1c-0.28-0.31-0.61-0.55-1.01-0.72c-0.4-0.17-0.85-0.26-1.37-0.26
		c-1.06,0-1.89,0.31-2.5,0.92c-0.61,0.61-0.99,1.46-1.15,2.54H496.9z M512.84,410.31v19.03h-1.52c-0.35,0-0.57-0.17-0.66-0.5
		l-0.22-1.51c-0.56,0.66-1.19,1.19-1.9,1.59c-0.71,0.4-1.53,0.6-2.46,0.6c-0.75,0-1.42-0.15-2.03-0.44
		c-0.61-0.29-1.12-0.72-1.55-1.28c-0.43-0.56-0.76-1.26-0.99-2.1c-0.23-0.83-0.35-1.79-0.35-2.88c0-0.97,0.13-1.87,0.39-2.71
		c0.26-0.83,0.63-1.56,1.12-2.17c0.49-0.61,1.08-1.09,1.78-1.44c0.7-0.35,1.48-0.52,2.36-0.52c0.79,0,1.46,0.13,2.02,0.39
		s1.05,0.62,1.49,1.1v-7.17H512.84z M510.31,419.42c-0.41-0.54-0.86-0.92-1.33-1.13c-0.48-0.21-1.01-0.32-1.61-0.32
		c-1.15,0-2.04,0.41-2.68,1.24c-0.63,0.83-0.95,2.04-0.95,3.63c0,0.83,0.07,1.55,0.21,2.13c0.14,0.59,0.35,1.07,0.62,1.44
		c0.27,0.37,0.6,0.65,1,0.83c0.4,0.18,0.84,0.26,1.34,0.26c0.73,0,1.36-0.16,1.9-0.49c0.53-0.33,1.03-0.79,1.5-1.38V419.42z
		 M526.96,429.55c-1.06,0-1.87-0.3-2.44-0.89c-0.57-0.59-0.86-1.44-0.86-2.54v-7.84h-1.52c-0.15,0-0.27-0.05-0.37-0.14
		c-0.1-0.09-0.15-0.23-0.15-0.41v-1.02l2.13-0.3l0.57-3.91c0.03-0.15,0.1-0.26,0.2-0.34c0.1-0.08,0.23-0.12,0.38-0.12h1.28v4.4h3.71
		v1.83h-3.71v7.67c0,0.52,0.13,0.9,0.38,1.15c0.25,0.25,0.58,0.38,0.97,0.38c0.23,0,0.43-0.03,0.6-0.09
		c0.17-0.06,0.31-0.13,0.43-0.2c0.12-0.07,0.22-0.14,0.31-0.2c0.09-0.06,0.16-0.09,0.23-0.09c0.09,0,0.15,0.02,0.2,0.06
		c0.05,0.04,0.1,0.1,0.15,0.19l0.75,1.21c-0.41,0.38-0.9,0.67-1.47,0.88C528.16,429.45,527.57,429.55,526.96,429.55z M534.71,417.91
		c0.55-0.56,1.16-1.01,1.82-1.35c0.67-0.34,1.43-0.52,2.3-0.52c0.72,0,1.36,0.12,1.9,0.36c0.55,0.24,1,0.58,1.37,1.01
		c0.37,0.43,0.65,0.96,0.84,1.57c0.19,0.61,0.28,1.29,0.28,2.02v8.34h-2.53V421c0-0.94-0.22-1.67-0.64-2.19
		c-0.43-0.52-1.09-0.78-1.97-0.78c-0.64,0-1.25,0.15-1.81,0.46c-0.56,0.31-1.09,0.72-1.57,1.24v9.61h-2.51v-19.03h2.51V417.91z
		 M546.28,418.07c0.73-0.7,1.52-1.22,2.38-1.56c0.86-0.34,1.79-0.52,2.82-0.52c0.75,0,1.41,0.12,1.99,0.37
		c0.58,0.24,1.06,0.59,1.46,1.03c0.4,0.44,0.69,0.96,0.9,1.57c0.2,0.61,0.3,1.29,0.3,2.02v8.36h-1.12c-0.25,0-0.44-0.04-0.57-0.12
		c-0.13-0.08-0.23-0.23-0.31-0.46l-0.27-1.15c-0.34,0.31-0.67,0.58-0.99,0.82c-0.33,0.24-0.67,0.44-1.03,0.61
		c-0.36,0.17-0.74,0.29-1.14,0.38c-0.4,0.09-0.85,0.13-1.34,0.13c-0.52,0-1-0.07-1.45-0.21s-0.84-0.36-1.18-0.65
		c-0.34-0.29-0.6-0.66-0.79-1.1c-0.19-0.44-0.29-0.95-0.29-1.53c0-0.52,0.14-1.01,0.42-1.49c0.28-0.48,0.73-0.9,1.37-1.28
		c0.63-0.38,1.46-0.69,2.48-0.93c1.02-0.24,2.27-0.38,3.76-0.41v-0.95c0-0.99-0.21-1.73-0.63-2.22c-0.42-0.49-1.04-0.74-1.86-0.74
		c-0.55,0-1.01,0.07-1.39,0.21c-0.37,0.14-0.7,0.29-0.97,0.46s-0.51,0.32-0.71,0.46c-0.2,0.14-0.41,0.21-0.63,0.21
		c-0.17,0-0.32-0.05-0.44-0.14c-0.12-0.09-0.23-0.21-0.3-0.34L546.28,418.07z M553.65,423.53c-1.02,0.03-1.89,0.11-2.6,0.24
		c-0.71,0.12-1.29,0.29-1.74,0.5c-0.45,0.21-0.77,0.45-0.97,0.73c-0.2,0.28-0.3,0.59-0.3,0.93c0,0.33,0.05,0.61,0.16,0.84
		c0.11,0.24,0.25,0.43,0.44,0.58c0.18,0.15,0.4,0.26,0.65,0.33c0.25,0.07,0.52,0.1,0.81,0.1c0.39,0,0.74-0.04,1.06-0.12
		s0.63-0.19,0.91-0.33c0.28-0.14,0.55-0.32,0.81-0.52c0.26-0.21,0.51-0.44,0.76-0.71V423.53z M563.43,429.55
		c-1.06,0-1.87-0.3-2.44-0.89c-0.57-0.59-0.86-1.44-0.86-2.54v-7.84h-1.52c-0.15,0-0.27-0.05-0.37-0.14
		c-0.1-0.09-0.15-0.23-0.15-0.41v-1.02l2.13-0.3l0.57-3.91c0.03-0.15,0.1-0.26,0.2-0.34c0.1-0.08,0.23-0.12,0.38-0.12h1.28v4.4h3.71
		v1.83h-3.71v7.67c0,0.52,0.13,0.9,0.38,1.15c0.25,0.25,0.58,0.38,0.97,0.38c0.23,0,0.43-0.03,0.6-0.09
		c0.17-0.06,0.31-0.13,0.43-0.2c0.12-0.07,0.22-0.14,0.31-0.2c0.09-0.06,0.16-0.09,0.23-0.09c0.09,0,0.15,0.02,0.2,0.06
		c0.05,0.04,0.1,0.1,0.15,0.19l0.75,1.21c-0.41,0.38-0.9,0.67-1.47,0.88C564.63,429.45,564.04,429.55,563.43,429.55z M580.75,416.04
		c0.96,0,1.83,0.16,2.61,0.47c0.78,0.31,1.44,0.77,1.99,1.35c0.55,0.59,0.96,1.3,1.26,2.13c0.29,0.83,0.44,1.76,0.44,2.79
		c0,1.03-0.15,1.96-0.44,2.8c-0.29,0.83-0.71,1.54-1.26,2.13c-0.55,0.58-1.21,1.03-1.99,1.35c-0.78,0.31-1.65,0.47-2.61,0.47
		c-0.97,0-1.85-0.16-2.62-0.47c-0.78-0.31-1.44-0.76-1.99-1.35c-0.55-0.58-0.97-1.29-1.27-2.13c-0.3-0.83-0.44-1.77-0.44-2.8
		c0-1.03,0.15-1.96,0.44-2.79c0.3-0.83,0.72-1.54,1.27-2.13c0.55-0.59,1.21-1.04,1.99-1.35
		C578.9,416.19,579.77,416.04,580.75,416.04z M580.75,427.57c1.24,0,2.16-0.42,2.77-1.25c0.61-0.83,0.92-2.01,0.92-3.52
		c0-1.51-0.31-2.69-0.92-3.53c-0.61-0.84-1.53-1.26-2.77-1.26c-1.26,0-2.19,0.42-2.8,1.26c-0.61,0.84-0.92,2.01-0.92,3.53
		c0,1.51,0.31,2.69,0.92,3.52C578.56,427.15,579.49,427.57,580.75,427.57z M592.2,418.06c0.28-0.3,0.58-0.58,0.89-0.83
		c0.31-0.25,0.64-0.46,0.99-0.64c0.35-0.18,0.72-0.31,1.12-0.41c0.4-0.1,0.83-0.15,1.28-0.15c0.72,0,1.36,0.12,1.9,0.36
		c0.55,0.24,1,0.58,1.37,1.01c0.37,0.43,0.65,0.96,0.84,1.57c0.19,0.61,0.28,1.29,0.28,2.02v8.34h-2.53V421
		c0-0.94-0.22-1.67-0.64-2.19c-0.43-0.52-1.09-0.78-1.97-0.78c-0.64,0-1.25,0.15-1.81,0.46c-0.56,0.31-1.09,0.72-1.57,1.24v9.61
		h-2.51v-13.1h1.51c0.35,0,0.57,0.17,0.66,0.5L592.2,418.06z M606.83,410.31v19.03h-2.53v-19.03H606.83z M621.87,416.24l-7.27,16.91
		c-0.08,0.19-0.18,0.34-0.31,0.44c-0.13,0.1-0.32,0.15-0.57,0.15h-1.87l2.4-5.22l-5.38-12.28h2.19c0.21,0,0.38,0.05,0.5,0.15
		c0.12,0.1,0.21,0.22,0.26,0.35l3.33,7.87c0.07,0.2,0.14,0.4,0.2,0.6c0.06,0.2,0.12,0.4,0.16,0.6c0.06-0.21,0.12-0.41,0.19-0.61
		c0.07-0.2,0.14-0.4,0.22-0.6l3.21-7.85c0.06-0.15,0.15-0.27,0.28-0.36c0.13-0.09,0.28-0.14,0.44-0.14H621.87z"/>
	<g>
		<path class="st2" d="M635.09,414.36c0.43-0.08,0.85-0.14,1.25-0.17c0.4-0.03,0.79-0.05,1.17-0.05c1.22,0,2.29,0.18,3.22,0.56
			c0.93,0.37,1.71,0.88,2.35,1.52c0.64,0.64,1.11,1.39,1.44,2.25c0.32,0.86,0.48,1.79,0.48,2.77c0,1.24-0.22,2.37-0.66,3.39
			c-0.44,1.02-1.05,1.9-1.83,2.64s-1.72,1.31-2.8,1.72c-1.08,0.41-2.27,0.61-3.56,0.61c-0.75,0-1.47-0.08-2.15-0.24
			c-0.68-0.16-1.32-0.37-1.92-0.64c-0.6-0.27-1.15-0.58-1.66-0.94c-0.51-0.35-0.97-0.73-1.38-1.13l1.52-2.03
			c0.16-0.21,0.34-0.37,0.56-0.48c0.21-0.11,0.44-0.17,0.68-0.17c0.32,0,0.62,0.09,0.9,0.26c0.28,0.17,0.59,0.37,0.92,0.57
			c0.33,0.21,0.72,0.39,1.17,0.56c0.44,0.17,0.99,0.25,1.65,0.25c0.66,0,1.22-0.11,1.68-0.33s0.84-0.51,1.13-0.89
			c0.29-0.38,0.5-0.81,0.64-1.32c0.13-0.5,0.2-1.04,0.2-1.61c0-1.12-0.32-1.98-0.95-2.56c-0.64-0.59-1.53-0.88-2.7-0.88
			c-1.04,0-2.05,0.2-3.05,0.59l-3.05-0.83l1.97-11.57h11.84v2.03c0,0.34-0.05,0.65-0.16,0.92c-0.11,0.27-0.27,0.52-0.5,0.72
			c-0.23,0.21-0.53,0.37-0.9,0.48c-0.37,0.11-0.81,0.17-1.33,0.17h-5.52L635.09,414.36z"/>
		<path class="st2" d="M664.22,417.77c0,2.02-0.22,3.77-0.65,5.25c-0.43,1.48-1.03,2.71-1.8,3.68c-0.77,0.97-1.68,1.7-2.73,2.17
			c-1.05,0.48-2.19,0.71-3.42,0.71c-1.23,0-2.36-0.24-3.4-0.71c-1.04-0.48-1.94-1.2-2.71-2.17c-0.76-0.97-1.36-2.2-1.79-3.68
			c-0.43-1.48-0.64-3.23-0.64-5.25c0-2.02,0.21-3.77,0.64-5.25c0.43-1.48,1.02-2.71,1.79-3.68c0.76-0.97,1.66-1.7,2.71-2.17
			c1.04-0.47,2.18-0.71,3.4-0.71c1.23,0,2.37,0.24,3.42,0.71c1.05,0.47,1.96,1.19,2.73,2.17c0.77,0.97,1.37,2.2,1.8,3.68
			S664.22,415.75,664.22,417.77z M659.15,417.77c0-1.6-0.1-2.91-0.3-3.93c-0.2-1.02-0.47-1.82-0.8-2.4
			c-0.33-0.58-0.71-0.98-1.13-1.2c-0.42-0.22-0.85-0.33-1.29-0.33c-0.43,0-0.86,0.11-1.28,0.33c-0.42,0.22-0.79,0.62-1.11,1.2
			c-0.32,0.58-0.58,1.38-0.78,2.4c-0.2,1.02-0.29,2.33-0.29,3.93c0,1.61,0.1,2.92,0.29,3.94c0.2,1.02,0.45,1.82,0.78,2.4
			c0.32,0.59,0.69,0.99,1.11,1.21c0.42,0.22,0.84,0.33,1.28,0.33c0.43,0,0.86-0.11,1.29-0.33c0.42-0.22,0.8-0.62,1.13-1.21
			c0.33-0.59,0.6-1.39,0.8-2.4C659.05,420.7,659.15,419.38,659.15,417.77z"/>
		<path class="st2" d="M677.02,411.82c0,0.85-0.15,1.62-0.46,2.32c-0.31,0.7-0.71,1.3-1.22,1.8c-0.51,0.5-1.1,0.89-1.77,1.17
			c-0.67,0.27-1.37,0.41-2.1,0.41c-0.8,0-1.54-0.14-2.21-0.41c-0.67-0.27-1.25-0.66-1.75-1.17c-0.49-0.5-0.88-1.1-1.15-1.8
			c-0.27-0.7-0.41-1.47-0.41-2.32c0-0.88,0.14-1.67,0.41-2.39c0.27-0.71,0.66-1.33,1.15-1.83c0.49-0.51,1.07-0.9,1.75-1.18
			c0.67-0.28,1.41-0.42,2.21-0.42c0.8,0,1.55,0.14,2.23,0.42c0.68,0.28,1.27,0.67,1.76,1.18c0.49,0.51,0.88,1.12,1.15,1.83
			C676.88,410.15,677.02,410.95,677.02,411.82z M684.28,406.95c0.16-0.18,0.35-0.35,0.59-0.5c0.23-0.15,0.56-0.23,0.97-0.23h3.59
			L672,428.65c-0.16,0.2-0.36,0.37-0.6,0.5c-0.24,0.13-0.53,0.2-0.87,0.2h-3.68L684.28,406.95z M673.24,411.82
			c0-0.54-0.04-0.99-0.13-1.34c-0.09-0.35-0.21-0.64-0.37-0.85c-0.16-0.21-0.35-0.36-0.56-0.44c-0.22-0.08-0.45-0.13-0.71-0.13
			c-0.25,0-0.49,0.04-0.7,0.13c-0.21,0.08-0.39,0.23-0.54,0.44c-0.15,0.21-0.26,0.5-0.35,0.85c-0.08,0.35-0.13,0.8-0.13,1.34
			c0,0.51,0.04,0.93,0.13,1.27c0.08,0.34,0.2,0.61,0.35,0.81c0.15,0.2,0.33,0.34,0.54,0.43c0.21,0.08,0.44,0.13,0.7,0.13
			c0.25,0,0.49-0.04,0.71-0.13c0.22-0.08,0.4-0.23,0.56-0.43c0.16-0.2,0.28-0.47,0.37-0.81
			C673.19,412.75,673.24,412.33,673.24,411.82z M690.32,423.92c0,0.85-0.15,1.62-0.46,2.33c-0.31,0.7-0.71,1.31-1.22,1.81
			c-0.51,0.5-1.1,0.89-1.77,1.17c-0.67,0.27-1.37,0.41-2.1,0.41c-0.8,0-1.54-0.14-2.21-0.41c-0.67-0.27-1.25-0.66-1.75-1.17
			c-0.49-0.5-0.88-1.11-1.15-1.81c-0.27-0.7-0.41-1.48-0.41-2.33c0-0.88,0.14-1.67,0.41-2.39c0.28-0.71,0.66-1.32,1.15-1.83
			c0.49-0.51,1.07-0.9,1.75-1.18c0.67-0.28,1.41-0.42,2.21-0.42c0.8,0,1.55,0.14,2.23,0.42c0.68,0.28,1.27,0.67,1.76,1.18
			c0.49,0.51,0.88,1.12,1.15,1.83C690.18,422.24,690.32,423.04,690.32,423.92z M686.54,423.92c0-0.53-0.05-0.97-0.14-1.32
			c-0.09-0.35-0.21-0.64-0.37-0.85c-0.16-0.21-0.35-0.36-0.56-0.44c-0.22-0.08-0.45-0.13-0.71-0.13s-0.49,0.04-0.7,0.13
			c-0.21,0.08-0.39,0.23-0.54,0.44c-0.15,0.21-0.26,0.5-0.35,0.85c-0.08,0.35-0.13,0.8-0.13,1.32c0,0.51,0.04,0.93,0.13,1.27
			c0.08,0.34,0.2,0.61,0.35,0.81c0.15,0.2,0.33,0.34,0.54,0.43c0.21,0.08,0.44,0.13,0.7,0.13s0.49-0.04,0.71-0.13
			c0.22-0.08,0.4-0.23,0.56-0.43c0.16-0.2,0.28-0.47,0.37-0.81C686.49,424.85,686.54,424.43,686.54,423.92z"/>
	</g>
	<path class="st2" d="M705.24,416.04c0.96,0,1.83,0.16,2.61,0.47c0.78,0.31,1.44,0.77,1.99,1.35c0.55,0.59,0.96,1.3,1.26,2.13
		c0.29,0.83,0.44,1.76,0.44,2.79c0,1.03-0.15,1.96-0.44,2.8c-0.29,0.83-0.71,1.54-1.26,2.13c-0.55,0.58-1.21,1.03-1.99,1.35
		c-0.78,0.31-1.65,0.47-2.61,0.47c-0.97,0-1.85-0.16-2.62-0.47c-0.78-0.31-1.44-0.76-1.99-1.35c-0.55-0.58-0.97-1.29-1.27-2.13
		c-0.3-0.83-0.44-1.77-0.44-2.8c0-1.03,0.15-1.96,0.44-2.79c0.3-0.83,0.72-1.54,1.27-2.13c0.55-0.59,1.21-1.04,1.99-1.35
		C703.4,416.19,704.27,416.04,705.24,416.04z M705.24,427.57c1.24,0,2.16-0.42,2.77-1.25c0.61-0.83,0.92-2.01,0.92-3.52
		c0-1.51-0.31-2.69-0.92-3.53c-0.61-0.84-1.53-1.26-2.77-1.26c-1.26,0-2.19,0.42-2.8,1.26c-0.61,0.84-0.92,2.01-0.92,3.53
		c0,1.51,0.31,2.69,0.92,3.52C703.05,427.15,703.99,427.57,705.24,427.57z M714.9,429.34v-11.04l-1.37-0.17
		c-0.2-0.04-0.36-0.11-0.48-0.21c-0.12-0.1-0.19-0.24-0.19-0.43v-1.04h2.04v-1.19c0-0.75,0.11-1.41,0.32-2
		c0.21-0.58,0.52-1.08,0.92-1.49c0.4-0.41,0.88-0.72,1.44-0.93c0.56-0.21,1.2-0.32,1.9-0.32c0.59,0,1.14,0.09,1.64,0.26l-0.05,1.26
		c-0.01,0.11-0.04,0.2-0.1,0.25c-0.06,0.06-0.14,0.1-0.24,0.12c-0.1,0.03-0.22,0.04-0.36,0.05c-0.14,0-0.29,0.01-0.46,0.01
		c-0.39,0-0.74,0.05-1.06,0.14c-0.32,0.09-0.59,0.25-0.81,0.48c-0.22,0.22-0.4,0.52-0.52,0.88c-0.12,0.37-0.18,0.82-0.18,1.36v1.11
		h3.67v1.83h-3.6v11.06H714.9z M735.7,410.83c1.16,0,2.16,0.11,2.99,0.34c0.83,0.22,1.51,0.55,2.04,0.97
		c0.53,0.42,0.93,0.93,1.18,1.53c0.25,0.6,0.38,1.27,0.38,2.03c0,0.45-0.07,0.88-0.21,1.29c-0.14,0.41-0.35,0.8-0.63,1.15
		c-0.28,0.36-0.64,0.68-1.07,0.96c-0.43,0.28-0.94,0.52-1.52,0.71c2.69,0.53,4.04,1.94,4.04,4.22c0,0.79-0.15,1.51-0.44,2.16
		c-0.29,0.65-0.72,1.21-1.28,1.68c-0.56,0.47-1.25,0.84-2.06,1.1c-0.82,0.26-1.75,0.39-2.79,0.39h-6.67v-18.52H735.7z
		 M732.41,412.98v6.06h3.16c1.35,0,2.35-0.27,3.01-0.82c0.66-0.55,0.99-1.28,0.99-2.21c0-1.06-0.31-1.83-0.94-2.31
		c-0.63-0.48-1.6-0.72-2.93-0.72H732.41z M736.28,427.17c0.7,0,1.29-0.08,1.79-0.24c0.49-0.16,0.9-0.39,1.21-0.67
		c0.31-0.28,0.54-0.62,0.69-1.01c0.15-0.39,0.22-0.82,0.22-1.28c0-0.92-0.32-1.64-0.95-2.17c-0.64-0.53-1.62-0.79-2.95-0.79h-3.87
		v6.18H736.28z M761.32,410.83l-7.53,18.52h-2.46l-7.53-18.52h2.19c0.24,0,0.44,0.06,0.59,0.18c0.15,0.12,0.26,0.28,0.34,0.46
		l5,12.59c0.12,0.31,0.24,0.65,0.35,1.02c0.12,0.37,0.22,0.76,0.32,1.16c0.09-0.4,0.18-0.79,0.28-1.16c0.1-0.37,0.21-0.71,0.34-1.02
		l4.99-12.59c0.06-0.17,0.17-0.32,0.33-0.45c0.16-0.13,0.35-0.19,0.59-0.19H761.32z M771.07,418.2c0.28-0.33,0.57-0.63,0.88-0.9
		c0.31-0.27,0.65-0.5,1.01-0.7c0.36-0.19,0.75-0.34,1.15-0.45c0.41-0.11,0.84-0.16,1.31-0.16c0.75,0,1.42,0.15,2.03,0.44
		c0.61,0.29,1.12,0.72,1.55,1.29c0.43,0.57,0.76,1.27,1,2.1c0.24,0.83,0.35,1.79,0.35,2.88c0,0.97-0.13,1.87-0.39,2.7
		c-0.26,0.83-0.64,1.55-1.12,2.16c-0.49,0.61-1.08,1.09-1.78,1.44c-0.7,0.35-1.49,0.52-2.37,0.52c-0.78,0-1.45-0.13-2.01-0.39
		c-0.56-0.26-1.06-0.62-1.5-1.08v5.69h-2.51v-17.5h1.51c0.35,0,0.57,0.17,0.66,0.5L771.07,418.2z M771.2,426.12
		c0.41,0.54,0.86,0.92,1.33,1.13c0.48,0.21,1.01,0.32,1.61,0.32c1.15,0,2.04-0.41,2.68-1.24c0.63-0.83,0.95-2.04,0.95-3.63
		c0-0.83-0.07-1.55-0.21-2.13c-0.14-0.59-0.35-1.07-0.62-1.44c-0.27-0.37-0.6-0.65-1-0.83c-0.4-0.18-0.84-0.26-1.34-0.26
		c-0.73,0-1.36,0.16-1.9,0.49c-0.54,0.33-1.03,0.79-1.49,1.39V426.12z M782.86,418.07c0.73-0.7,1.52-1.22,2.38-1.56
		c0.86-0.34,1.79-0.52,2.82-0.52c0.75,0,1.41,0.12,1.99,0.37c0.58,0.24,1.06,0.59,1.46,1.03c0.4,0.44,0.69,0.96,0.9,1.57
		c0.2,0.61,0.3,1.29,0.3,2.02v8.36h-1.12c-0.25,0-0.44-0.04-0.57-0.12c-0.13-0.08-0.23-0.23-0.31-0.46l-0.27-1.15
		c-0.34,0.31-0.67,0.58-0.99,0.82c-0.33,0.24-0.67,0.44-1.03,0.61c-0.36,0.17-0.74,0.29-1.14,0.38c-0.4,0.09-0.85,0.13-1.34,0.13
		c-0.52,0-1-0.07-1.45-0.21s-0.84-0.36-1.18-0.65c-0.34-0.29-0.6-0.66-0.79-1.1c-0.19-0.44-0.29-0.95-0.29-1.53
		c0-0.52,0.14-1.01,0.42-1.49c0.28-0.48,0.73-0.9,1.37-1.28c0.63-0.38,1.46-0.69,2.48-0.93c1.02-0.24,2.27-0.38,3.76-0.41v-0.95
		c0-0.99-0.21-1.73-0.63-2.22c-0.42-0.49-1.04-0.74-1.86-0.74c-0.55,0-1.01,0.07-1.39,0.21c-0.37,0.14-0.7,0.29-0.97,0.46
		s-0.51,0.32-0.71,0.46c-0.2,0.14-0.41,0.21-0.63,0.21c-0.17,0-0.32-0.05-0.44-0.14c-0.12-0.09-0.23-0.21-0.3-0.34L782.86,418.07z
		 M790.23,423.53c-1.02,0.03-1.89,0.11-2.6,0.24c-0.71,0.12-1.29,0.29-1.74,0.5c-0.45,0.21-0.77,0.45-0.97,0.73
		c-0.2,0.28-0.3,0.59-0.3,0.93c0,0.33,0.05,0.61,0.16,0.84c0.11,0.24,0.25,0.43,0.44,0.58c0.18,0.15,0.4,0.26,0.65,0.33
		c0.25,0.07,0.52,0.1,0.81,0.1c0.39,0,0.74-0.04,1.06-0.12c0.32-0.08,0.63-0.19,0.91-0.33c0.28-0.14,0.55-0.32,0.81-0.52
		c0.26-0.21,0.51-0.44,0.76-0.71V423.53z M808.33,429.34h-2.53v-11.06h-6.58v7.67c0,0.52,0.13,0.9,0.38,1.15
		c0.25,0.25,0.58,0.38,0.97,0.38c0.23,0,0.43-0.03,0.6-0.09c0.17-0.06,0.31-0.13,0.43-0.2c0.12-0.07,0.22-0.14,0.31-0.2
		c0.09-0.06,0.16-0.09,0.23-0.09c0.09,0,0.15,0.02,0.2,0.06c0.05,0.04,0.1,0.1,0.15,0.19l0.75,1.21c-0.41,0.38-0.9,0.67-1.47,0.88
		c-0.57,0.21-1.16,0.31-1.77,0.31c-1.06,0-1.87-0.3-2.44-0.89c-0.57-0.59-0.86-1.44-0.86-2.54v-7.84h-1.52
		c-0.15,0-0.27-0.05-0.37-0.14c-0.1-0.09-0.15-0.23-0.15-0.41v-1.02l2.14-0.3l0.55-3.91c0.03-0.15,0.1-0.26,0.2-0.34
		c0.1-0.08,0.23-0.12,0.38-0.12h1.28v4.4h9.1V429.34z M808.89,412.12c0,0.23-0.05,0.45-0.14,0.66c-0.09,0.21-0.22,0.4-0.38,0.55
		c-0.16,0.16-0.35,0.28-0.56,0.37c-0.21,0.09-0.44,0.14-0.67,0.14c-0.23,0-0.45-0.05-0.66-0.14c-0.21-0.09-0.39-0.21-0.55-0.37
		c-0.16-0.16-0.28-0.34-0.37-0.55c-0.09-0.21-0.14-0.43-0.14-0.66c0-0.24,0.05-0.47,0.14-0.68c0.09-0.21,0.21-0.4,0.37-0.56
		c0.16-0.16,0.34-0.28,0.55-0.37c0.21-0.09,0.43-0.14,0.66-0.14c0.23,0,0.46,0.05,0.67,0.14c0.21,0.09,0.4,0.21,0.56,0.37
		c0.16,0.16,0.29,0.35,0.38,0.56C808.85,411.65,808.89,411.88,808.89,412.12z M822.73,427.47c-0.31,0.36-0.67,0.67-1.07,0.93
		c-0.4,0.26-0.83,0.48-1.29,0.64c-0.46,0.16-0.93,0.28-1.41,0.36c-0.49,0.08-0.97,0.12-1.44,0.12c-0.9,0-1.74-0.15-2.51-0.46
		c-0.77-0.31-1.44-0.75-2-1.34c-0.56-0.59-1-1.32-1.32-2.19c-0.31-0.87-0.47-1.88-0.47-3.01c0-0.91,0.14-1.76,0.43-2.55
		c0.28-0.79,0.69-1.47,1.22-2.06c0.53-0.58,1.18-1.04,1.94-1.38c0.77-0.34,1.62-0.5,2.58-0.5c0.8,0,1.54,0.13,2.21,0.39
		c0.67,0.26,1.26,0.64,1.75,1.14c0.49,0.5,0.87,1.11,1.15,1.84c0.28,0.73,0.42,1.56,0.42,2.5c0,0.39-0.04,0.65-0.13,0.78
		c-0.09,0.13-0.24,0.2-0.48,0.2h-8.59c0.03,0.78,0.14,1.46,0.34,2.04c0.2,0.58,0.47,1.06,0.82,1.45c0.35,0.39,0.76,0.67,1.24,0.86
		c0.48,0.19,1.02,0.28,1.61,0.28c0.56,0,1.04-0.06,1.45-0.19c0.41-0.13,0.76-0.27,1.06-0.42c0.3-0.15,0.55-0.29,0.75-0.42
		c0.2-0.13,0.38-0.19,0.54-0.19c0.21,0,0.37,0.08,0.48,0.23L822.73,427.47z M820.65,421.34c0-0.5-0.07-0.96-0.21-1.38
		c-0.14-0.42-0.35-0.79-0.63-1.1c-0.28-0.31-0.61-0.55-1.01-0.72c-0.4-0.17-0.85-0.26-1.37-0.26c-1.06,0-1.89,0.31-2.5,0.92
		c-0.61,0.61-0.99,1.46-1.15,2.54H820.65z M827.98,418.06c0.28-0.3,0.58-0.58,0.89-0.83c0.31-0.25,0.64-0.46,0.99-0.64
		c0.35-0.18,0.72-0.31,1.12-0.41c0.4-0.1,0.83-0.15,1.28-0.15c0.72,0,1.36,0.12,1.9,0.36c0.55,0.24,1,0.58,1.37,1.01
		c0.37,0.43,0.65,0.96,0.84,1.57c0.19,0.61,0.28,1.29,0.28,2.02v8.34h-2.53V421c0-0.94-0.22-1.67-0.64-2.19
		c-0.43-0.52-1.09-0.78-1.97-0.78c-0.64,0-1.25,0.15-1.81,0.46c-0.56,0.31-1.09,0.72-1.57,1.24v9.61h-2.51v-13.1h1.51
		c0.35,0,0.57,0.17,0.66,0.5L827.98,418.06z M843.97,429.55c-1.06,0-1.87-0.3-2.44-0.89c-0.57-0.59-0.86-1.44-0.86-2.54v-7.84h-1.52
		c-0.15,0-0.27-0.05-0.37-0.14c-0.1-0.09-0.15-0.23-0.15-0.41v-1.02l2.13-0.3l0.57-3.91c0.03-0.15,0.1-0.26,0.2-0.34
		c0.1-0.08,0.23-0.12,0.38-0.12h1.28v4.4h3.71v1.83h-3.71v7.67c0,0.52,0.13,0.9,0.38,1.15c0.25,0.25,0.58,0.38,0.97,0.38
		c0.23,0,0.43-0.03,0.6-0.09c0.17-0.06,0.31-0.13,0.43-0.2c0.12-0.07,0.22-0.14,0.31-0.2c0.09-0.06,0.16-0.09,0.23-0.09
		c0.09,0,0.15,0.02,0.2,0.06c0.05,0.04,0.1,0.1,0.15,0.19l0.75,1.21c-0.41,0.38-0.9,0.67-1.47,0.88
		C845.17,429.45,844.58,429.55,843.97,429.55z M856.93,418.5c-0.07,0.11-0.14,0.19-0.22,0.24c-0.08,0.05-0.18,0.07-0.3,0.07
		c-0.14,0-0.29-0.05-0.46-0.14c-0.17-0.09-0.37-0.2-0.61-0.31c-0.24-0.11-0.51-0.21-0.83-0.31c-0.32-0.09-0.7-0.14-1.13-0.14
		c-0.36,0-0.69,0.05-0.99,0.14c-0.3,0.09-0.55,0.21-0.75,0.37c-0.21,0.16-0.37,0.35-0.48,0.57c-0.11,0.22-0.17,0.45-0.17,0.7
		c0,0.33,0.1,0.6,0.29,0.81c0.19,0.21,0.45,0.4,0.76,0.55c0.31,0.15,0.67,0.29,1.07,0.42c0.4,0.12,0.81,0.26,1.23,0.39
		c0.42,0.14,0.83,0.29,1.22,0.47c0.4,0.18,0.76,0.4,1.07,0.66c0.31,0.26,0.57,0.58,0.76,0.95c0.19,0.37,0.29,0.82,0.29,1.35
		c0,0.61-0.11,1.18-0.33,1.7c-0.22,0.52-0.54,0.97-0.97,1.35c-0.43,0.38-0.95,0.67-1.58,0.89c-0.63,0.21-1.35,0.32-2.15,0.32
		c-0.9,0-1.74-0.15-2.5-0.45c-0.77-0.3-1.41-0.68-1.92-1.15l0.59-0.97c0.07-0.12,0.15-0.21,0.26-0.28c0.1-0.06,0.24-0.1,0.41-0.1
		c0.16,0,0.33,0.06,0.5,0.18c0.17,0.12,0.38,0.25,0.62,0.39c0.24,0.14,0.53,0.27,0.88,0.39c0.34,0.12,0.77,0.17,1.29,0.17
		c0.43,0,0.8-0.05,1.12-0.16c0.32-0.11,0.58-0.25,0.79-0.44c0.21-0.18,0.37-0.4,0.47-0.64c0.1-0.24,0.15-0.49,0.15-0.76
		c0-0.34-0.1-0.63-0.29-0.86c-0.19-0.23-0.45-0.42-0.76-0.59c-0.31-0.16-0.67-0.31-1.08-0.43c-0.4-0.12-0.82-0.25-1.24-0.39
		c-0.42-0.14-0.83-0.3-1.24-0.48c-0.4-0.18-0.76-0.41-1.08-0.68c-0.31-0.28-0.57-0.61-0.76-1.01c-0.19-0.4-0.29-0.88-0.29-1.44
		c0-0.51,0.11-0.99,0.32-1.46c0.21-0.46,0.52-0.87,0.92-1.23c0.4-0.35,0.89-0.63,1.48-0.84c0.59-0.21,1.26-0.32,2.02-0.32
		c0.87,0,1.65,0.14,2.35,0.41c0.7,0.28,1.3,0.65,1.8,1.13L856.93,418.5z M876.08,418.69c-0.08,0.09-0.15,0.17-0.23,0.23
		c-0.07,0.06-0.18,0.08-0.32,0.08c-0.14,0-0.28-0.05-0.43-0.16c-0.15-0.11-0.34-0.22-0.57-0.35c-0.23-0.12-0.5-0.24-0.83-0.35
		c-0.32-0.11-0.72-0.16-1.19-0.16c-0.62,0-1.16,0.11-1.64,0.34c-0.47,0.22-0.87,0.54-1.18,0.95c-0.31,0.41-0.55,0.92-0.72,1.51
		c-0.16,0.59-0.25,1.26-0.25,2c0,0.77,0.09,1.45,0.26,2.04c0.17,0.6,0.42,1.1,0.74,1.51c0.32,0.41,0.7,0.72,1.16,0.93
		c0.46,0.21,0.96,0.32,1.52,0.32c0.54,0,0.99-0.07,1.34-0.2c0.35-0.13,0.64-0.28,0.88-0.43c0.23-0.15,0.43-0.3,0.58-0.43
		c0.15-0.13,0.31-0.2,0.48-0.2c0.21,0,0.37,0.08,0.48,0.23l0.72,0.93c-0.3,0.37-0.64,0.68-1.01,0.94c-0.37,0.26-0.77,0.47-1.19,0.63
		c-0.42,0.16-0.86,0.28-1.32,0.36c-0.46,0.08-0.93,0.12-1.4,0.12c-0.82,0-1.58-0.15-2.29-0.45c-0.71-0.3-1.32-0.74-1.84-1.32
		c-0.52-0.58-0.93-1.28-1.23-2.12c-0.3-0.84-0.45-1.79-0.45-2.86c0-0.97,0.14-1.87,0.41-2.7c0.27-0.83,0.67-1.54,1.2-2.13
		c0.53-0.6,1.18-1.07,1.95-1.41c0.77-0.34,1.66-0.51,2.66-0.51c0.94,0,1.76,0.15,2.48,0.45c0.71,0.3,1.35,0.73,1.91,1.28
		L876.08,418.69z M884.59,416.04c0.96,0,1.83,0.16,2.61,0.47c0.78,0.31,1.44,0.77,1.99,1.35c0.55,0.59,0.96,1.3,1.26,2.13
		c0.29,0.83,0.44,1.76,0.44,2.79c0,1.03-0.15,1.96-0.44,2.8c-0.29,0.83-0.71,1.54-1.26,2.13c-0.55,0.58-1.21,1.03-1.99,1.35
		c-0.78,0.31-1.65,0.47-2.61,0.47c-0.97,0-1.85-0.16-2.62-0.47c-0.78-0.31-1.44-0.76-1.99-1.35c-0.55-0.58-0.97-1.29-1.27-2.13
		c-0.3-0.83-0.44-1.77-0.44-2.8c0-1.03,0.15-1.96,0.44-2.79c0.3-0.83,0.72-1.54,1.27-2.13c0.55-0.59,1.21-1.04,1.99-1.35
		C882.74,416.19,883.62,416.04,884.59,416.04z M884.59,427.57c1.24,0,2.16-0.42,2.77-1.25c0.61-0.83,0.92-2.01,0.92-3.52
		c0-1.51-0.31-2.69-0.92-3.53c-0.61-0.84-1.53-1.26-2.77-1.26c-1.26,0-2.19,0.42-2.8,1.26c-0.61,0.84-0.92,2.01-0.92,3.53
		c0,1.51,0.31,2.69,0.92,3.52C882.4,427.15,883.33,427.57,884.59,427.57z M893.68,429.34v-13.1h1.51c0.35,0,0.57,0.17,0.66,0.5
		l0.18,1.25c0.48-0.58,1.02-1.05,1.61-1.41c0.59-0.37,1.28-0.55,2.07-0.55c0.87,0,1.57,0.24,2.11,0.72
		c0.54,0.48,0.94,1.12,1.19,1.94c0.19-0.46,0.43-0.86,0.74-1.2c0.3-0.34,0.64-0.61,1.01-0.83c0.37-0.21,0.76-0.37,1.18-0.48
		c0.42-0.1,0.84-0.15,1.27-0.15c0.7,0,1.32,0.11,1.86,0.33c0.55,0.22,1.01,0.54,1.39,0.96c0.38,0.42,0.67,0.94,0.86,1.56
		s0.3,1.32,0.3,2.11v8.34h-2.53V421c0-0.98-0.21-1.72-0.64-2.22c-0.43-0.5-1.05-0.75-1.86-0.75c-0.36,0-0.71,0.06-1.03,0.19
		c-0.33,0.12-0.61,0.31-0.86,0.56c-0.24,0.25-0.44,0.56-0.58,0.93c-0.14,0.37-0.21,0.8-0.21,1.29v8.34h-2.53V421
		c0-1.01-0.2-1.76-0.61-2.24c-0.4-0.48-1-0.72-1.78-0.72c-0.54,0-1.04,0.14-1.51,0.43s-0.89,0.67-1.28,1.16v9.72H893.68z
		 M917.37,418.2c0.28-0.33,0.57-0.63,0.88-0.9c0.31-0.27,0.65-0.5,1.01-0.7c0.36-0.19,0.75-0.34,1.15-0.45
		c0.41-0.11,0.84-0.16,1.31-0.16c0.75,0,1.42,0.15,2.03,0.44c0.61,0.29,1.12,0.72,1.55,1.29c0.43,0.57,0.76,1.27,1,2.1
		c0.24,0.83,0.35,1.79,0.35,2.88c0,0.97-0.13,1.87-0.39,2.7c-0.26,0.83-0.64,1.55-1.12,2.16c-0.49,0.61-1.08,1.09-1.78,1.44
		c-0.7,0.35-1.49,0.52-2.37,0.52c-0.78,0-1.45-0.13-2.01-0.39c-0.56-0.26-1.06-0.62-1.5-1.08v5.69h-2.51v-17.5h1.51
		c0.35,0,0.57,0.17,0.66,0.5L917.37,418.2z M917.5,426.12c0.41,0.54,0.86,0.92,1.33,1.13c0.48,0.21,1.01,0.32,1.61,0.32
		c1.15,0,2.04-0.41,2.68-1.24c0.63-0.83,0.95-2.04,0.95-3.63c0-0.83-0.07-1.55-0.21-2.13c-0.14-0.59-0.35-1.07-0.62-1.44
		c-0.27-0.37-0.6-0.65-1-0.83c-0.4-0.18-0.84-0.26-1.34-0.26c-0.73,0-1.36,0.16-1.9,0.49c-0.54,0.33-1.03,0.79-1.49,1.39V426.12z
		 M932.07,410.31v19.03h-2.53v-19.03H932.07z M946.41,427.47c-0.31,0.36-0.67,0.67-1.07,0.93c-0.4,0.26-0.83,0.48-1.29,0.64
		c-0.46,0.16-0.93,0.28-1.41,0.36c-0.49,0.08-0.97,0.12-1.44,0.12c-0.9,0-1.74-0.15-2.51-0.46c-0.77-0.31-1.44-0.75-2-1.34
		c-0.56-0.59-1-1.32-1.32-2.19c-0.31-0.87-0.47-1.88-0.47-3.01c0-0.91,0.14-1.76,0.43-2.55c0.28-0.79,0.69-1.47,1.22-2.06
		c0.53-0.58,1.18-1.04,1.94-1.38c0.77-0.34,1.62-0.5,2.58-0.5c0.8,0,1.54,0.13,2.21,0.39c0.67,0.26,1.26,0.64,1.75,1.14
		c0.49,0.5,0.87,1.11,1.15,1.84c0.28,0.73,0.42,1.56,0.42,2.5c0,0.39-0.04,0.65-0.13,0.78c-0.09,0.13-0.24,0.2-0.48,0.2h-8.59
		c0.03,0.78,0.14,1.46,0.34,2.04c0.2,0.58,0.47,1.06,0.82,1.45c0.35,0.39,0.76,0.67,1.24,0.86c0.48,0.19,1.02,0.28,1.61,0.28
		c0.56,0,1.04-0.06,1.45-0.19c0.41-0.13,0.76-0.27,1.06-0.42c0.3-0.15,0.55-0.29,0.75-0.42c0.2-0.13,0.38-0.19,0.54-0.19
		c0.21,0,0.37,0.08,0.48,0.23L946.41,427.47z M944.33,421.34c0-0.5-0.07-0.96-0.21-1.38c-0.14-0.42-0.35-0.79-0.63-1.1
		c-0.28-0.31-0.61-0.55-1.01-0.72c-0.4-0.17-0.85-0.26-1.37-0.26c-1.06,0-1.89,0.31-2.5,0.92c-0.61,0.61-0.99,1.46-1.15,2.54H944.33
		z M953.31,429.55c-1.06,0-1.87-0.3-2.44-0.89c-0.57-0.59-0.86-1.44-0.86-2.54v-7.84h-1.52c-0.15,0-0.27-0.05-0.37-0.14
		c-0.1-0.09-0.15-0.23-0.15-0.41v-1.02l2.13-0.3l0.57-3.91c0.03-0.15,0.1-0.26,0.2-0.34c0.1-0.08,0.23-0.12,0.38-0.12h1.28v4.4h3.71
		v1.83h-3.71v7.67c0,0.52,0.13,0.9,0.38,1.15c0.25,0.25,0.58,0.38,0.97,0.38c0.23,0,0.43-0.03,0.6-0.09
		c0.17-0.06,0.31-0.13,0.43-0.2c0.12-0.07,0.22-0.14,0.31-0.2c0.09-0.06,0.16-0.09,0.23-0.09c0.09,0,0.15,0.02,0.2,0.06
		c0.05,0.04,0.1,0.1,0.15,0.19l0.75,1.21c-0.41,0.38-0.9,0.67-1.47,0.88C954.5,429.45,953.92,429.55,953.31,429.55z M969.22,427.47
		c-0.31,0.36-0.67,0.67-1.07,0.93c-0.4,0.26-0.83,0.48-1.29,0.64c-0.46,0.16-0.93,0.28-1.41,0.36c-0.49,0.08-0.97,0.12-1.44,0.12
		c-0.9,0-1.74-0.15-2.51-0.46c-0.77-0.31-1.44-0.75-2-1.34c-0.56-0.59-1-1.32-1.32-2.19c-0.31-0.87-0.47-1.88-0.47-3.01
		c0-0.91,0.14-1.76,0.43-2.55c0.28-0.79,0.69-1.47,1.22-2.06c0.53-0.58,1.18-1.04,1.94-1.38c0.77-0.34,1.62-0.5,2.58-0.5
		c0.8,0,1.54,0.13,2.21,0.39c0.67,0.26,1.26,0.64,1.75,1.14c0.49,0.5,0.87,1.11,1.15,1.84c0.28,0.73,0.42,1.56,0.42,2.5
		c0,0.39-0.04,0.65-0.13,0.78c-0.09,0.13-0.24,0.2-0.48,0.2h-8.59c0.03,0.78,0.14,1.46,0.34,2.04c0.2,0.58,0.47,1.06,0.82,1.45
		c0.35,0.39,0.76,0.67,1.24,0.86c0.48,0.19,1.02,0.28,1.61,0.28c0.56,0,1.04-0.06,1.45-0.19c0.41-0.13,0.76-0.27,1.06-0.42
		c0.3-0.15,0.55-0.29,0.75-0.42c0.2-0.13,0.38-0.19,0.54-0.19c0.21,0,0.37,0.08,0.48,0.23L969.22,427.47z M967.14,421.34
		c0-0.5-0.07-0.96-0.21-1.38c-0.14-0.42-0.35-0.79-0.63-1.1c-0.28-0.31-0.61-0.55-1.01-0.72c-0.4-0.17-0.85-0.26-1.37-0.26
		c-1.06,0-1.89,0.31-2.5,0.92c-0.61,0.61-0.99,1.46-1.15,2.54H967.14z M981.65,417.74c0.95-0.2,1.8-0.3,2.57-0.3
		c0.96,0,1.81,0.14,2.55,0.43c0.74,0.29,1.36,0.68,1.86,1.19c0.5,0.5,0.88,1.1,1.13,1.78c0.25,0.68,0.38,1.42,0.38,2.22
		c0,0.98-0.17,1.87-0.52,2.67c-0.34,0.8-0.82,1.48-1.42,2.05c-0.6,0.57-1.31,1-2.13,1.31c-0.82,0.31-1.7,0.46-2.65,0.46
		c-0.56,0-1.09-0.06-1.59-0.17c-0.5-0.11-0.97-0.26-1.41-0.44c-0.44-0.18-0.84-0.4-1.22-0.64c-0.37-0.24-0.71-0.49-1-0.76l0.77-1.08
		c0.16-0.24,0.38-0.36,0.66-0.36c0.18,0,0.38,0.07,0.6,0.2c0.22,0.13,0.48,0.28,0.78,0.44c0.3,0.16,0.66,0.31,1.07,0.44
		c0.41,0.13,0.9,0.2,1.47,0.2c0.63,0,1.19-0.1,1.7-0.3c0.5-0.2,0.93-0.49,1.28-0.86c0.35-0.37,0.61-0.81,0.8-1.33
		c0.18-0.52,0.28-1.09,0.28-1.72c0-0.56-0.08-1.06-0.24-1.51c-0.16-0.45-0.41-0.83-0.74-1.15c-0.33-0.32-0.73-0.56-1.23-0.73
		c-0.49-0.17-1.06-0.25-1.72-0.25c-0.91,0-1.88,0.16-2.91,0.49l-1.59-0.46l1.51-8.74h8.87v1.1c0,0.36-0.11,0.66-0.34,0.88
		c-0.23,0.23-0.61,0.34-1.14,0.34h-5.64L981.65,417.74z M1004.16,429.55c-1.06,0-1.87-0.3-2.44-0.89c-0.57-0.59-0.86-1.44-0.86-2.54
		v-7.84h-1.52c-0.15,0-0.27-0.05-0.37-0.14c-0.1-0.09-0.15-0.23-0.15-0.41v-1.02l2.13-0.3l0.57-3.91c0.03-0.15,0.1-0.26,0.2-0.34
		c0.1-0.08,0.23-0.12,0.38-0.12h1.28v4.4h3.71v1.83h-3.71v7.67c0,0.52,0.13,0.9,0.38,1.15c0.25,0.25,0.58,0.38,0.97,0.38
		c0.23,0,0.43-0.03,0.6-0.09c0.17-0.06,0.31-0.13,0.43-0.2c0.12-0.07,0.22-0.14,0.31-0.2c0.09-0.06,0.16-0.09,0.23-0.09
		c0.09,0,0.15,0.02,0.2,0.06c0.05,0.04,0.1,0.1,0.15,0.19l0.75,1.21c-0.41,0.38-0.9,0.67-1.47,0.88
		C1005.36,429.45,1004.77,429.55,1004.16,429.55z M1014.9,416.04c0.96,0,1.83,0.16,2.61,0.47c0.78,0.31,1.44,0.77,1.99,1.35
		c0.55,0.59,0.96,1.3,1.26,2.13c0.29,0.83,0.44,1.76,0.44,2.79c0,1.03-0.15,1.96-0.44,2.8c-0.29,0.83-0.71,1.54-1.26,2.13
		c-0.55,0.58-1.21,1.03-1.99,1.35c-0.78,0.31-1.65,0.47-2.61,0.47c-0.97,0-1.85-0.16-2.62-0.47c-0.78-0.31-1.44-0.76-1.99-1.35
		c-0.55-0.58-0.97-1.29-1.27-2.13c-0.3-0.83-0.44-1.77-0.44-2.8c0-1.03,0.15-1.96,0.44-2.79c0.3-0.83,0.72-1.54,1.27-2.13
		c0.55-0.59,1.21-1.04,1.99-1.35C1013.06,416.19,1013.93,416.04,1014.9,416.04z M1014.9,427.57c1.24,0,2.16-0.42,2.77-1.25
		c0.61-0.83,0.92-2.01,0.92-3.52c0-1.51-0.31-2.69-0.92-3.53c-0.61-0.84-1.53-1.26-2.77-1.26c-1.26,0-2.19,0.42-2.8,1.26
		c-0.61,0.84-0.92,2.01-0.92,3.53c0,1.51,0.31,2.69,0.92,3.52C1012.71,427.15,1013.65,427.57,1014.9,427.57z M1042.71,410.83v1.12
		c0,0.33-0.04,0.59-0.11,0.79c-0.07,0.2-0.14,0.38-0.21,0.52l-7.5,15.19c-0.12,0.25-0.29,0.46-0.5,0.63
		c-0.21,0.17-0.5,0.26-0.86,0.26h-1.81l7.62-14.97c0.13-0.24,0.26-0.46,0.39-0.66c0.13-0.2,0.27-0.39,0.43-0.56h-9.46
		c-0.16,0-0.31-0.06-0.43-0.18c-0.12-0.12-0.18-0.26-0.18-0.43v-1.72H1042.71z M1045.26,420.52h6.45v2.14h-6.45V420.52z
		 M1066.02,410.31v19.03h-1.52c-0.35,0-0.57-0.17-0.66-0.5l-0.22-1.51c-0.56,0.66-1.19,1.19-1.9,1.59c-0.71,0.4-1.53,0.6-2.46,0.6
		c-0.75,0-1.42-0.15-2.03-0.44c-0.61-0.29-1.12-0.72-1.55-1.28c-0.43-0.56-0.76-1.26-0.99-2.1c-0.23-0.83-0.35-1.79-0.35-2.88
		c0-0.97,0.13-1.87,0.39-2.71c0.26-0.83,0.63-1.56,1.12-2.17c0.49-0.61,1.08-1.09,1.78-1.44c0.7-0.35,1.48-0.52,2.36-0.52
		c0.79,0,1.46,0.13,2.02,0.39s1.05,0.62,1.49,1.1v-7.17H1066.02z M1063.49,419.42c-0.41-0.54-0.86-0.92-1.33-1.13
		c-0.48-0.21-1.01-0.32-1.61-0.32c-1.15,0-2.04,0.41-2.68,1.24c-0.63,0.83-0.95,2.04-0.95,3.63c0,0.83,0.07,1.55,0.21,2.13
		c0.14,0.59,0.35,1.07,0.62,1.44c0.27,0.37,0.6,0.65,1,0.83c0.4,0.18,0.84,0.26,1.34,0.26c0.73,0,1.36-0.16,1.9-0.49
		c0.53-0.33,1.03-0.79,1.5-1.38V419.42z M1069.2,418.07c0.73-0.7,1.52-1.22,2.38-1.56c0.86-0.34,1.79-0.52,2.82-0.52
		c0.75,0,1.41,0.12,1.99,0.37c0.58,0.24,1.06,0.59,1.46,1.03c0.4,0.44,0.69,0.96,0.9,1.57c0.2,0.61,0.3,1.29,0.3,2.02v8.36h-1.12
		c-0.25,0-0.44-0.04-0.57-0.12c-0.13-0.08-0.23-0.23-0.31-0.46l-0.27-1.15c-0.34,0.31-0.67,0.58-0.99,0.82
		c-0.33,0.24-0.67,0.44-1.03,0.61c-0.36,0.17-0.74,0.29-1.14,0.38c-0.4,0.09-0.85,0.13-1.34,0.13c-0.52,0-1-0.07-1.45-0.21
		c-0.45-0.14-0.84-0.36-1.18-0.65c-0.34-0.29-0.6-0.66-0.79-1.1c-0.19-0.44-0.29-0.95-0.29-1.53c0-0.52,0.14-1.01,0.42-1.49
		c0.28-0.48,0.74-0.9,1.37-1.28c0.63-0.38,1.46-0.69,2.48-0.93c1.02-0.24,2.27-0.38,3.76-0.41v-0.95c0-0.99-0.21-1.73-0.63-2.22
		c-0.42-0.49-1.04-0.74-1.86-0.74c-0.55,0-1.01,0.07-1.39,0.21c-0.37,0.14-0.7,0.29-0.97,0.46c-0.27,0.17-0.51,0.32-0.71,0.46
		c-0.2,0.14-0.41,0.21-0.63,0.21c-0.17,0-0.32-0.05-0.44-0.14c-0.12-0.09-0.23-0.21-0.3-0.34L1069.2,418.07z M1076.58,423.53
		c-1.02,0.03-1.89,0.11-2.6,0.24c-0.71,0.12-1.29,0.29-1.74,0.5c-0.45,0.21-0.77,0.45-0.97,0.73c-0.2,0.28-0.3,0.59-0.3,0.93
		c0,0.33,0.05,0.61,0.16,0.84c0.11,0.24,0.25,0.43,0.44,0.58c0.18,0.15,0.4,0.26,0.65,0.33c0.25,0.07,0.52,0.1,0.81,0.1
		c0.39,0,0.74-0.04,1.06-0.12c0.32-0.08,0.63-0.19,0.91-0.33c0.28-0.14,0.55-0.32,0.81-0.52c0.26-0.21,0.51-0.44,0.76-0.71V423.53z
		 M1093.54,416.24l-7.27,16.91c-0.08,0.19-0.18,0.34-0.31,0.44s-0.32,0.15-0.57,0.15h-1.87l2.4-5.22l-5.38-12.28h2.19
		c0.21,0,0.38,0.05,0.5,0.15c0.12,0.1,0.21,0.22,0.26,0.35l3.33,7.87c0.07,0.2,0.14,0.4,0.2,0.6c0.06,0.2,0.12,0.4,0.16,0.6
		c0.06-0.21,0.12-0.41,0.19-0.61c0.07-0.2,0.14-0.4,0.22-0.6l3.21-7.85c0.06-0.15,0.15-0.27,0.28-0.36
		c0.13-0.09,0.28-0.14,0.44-0.14H1093.54z M1105.43,429.55c-1.06,0-1.87-0.3-2.44-0.89c-0.57-0.59-0.86-1.44-0.86-2.54v-7.84h-1.52
		c-0.15,0-0.27-0.05-0.37-0.14c-0.1-0.09-0.15-0.23-0.15-0.41v-1.02l2.13-0.3l0.57-3.91c0.03-0.15,0.1-0.26,0.2-0.34
		c0.1-0.08,0.23-0.12,0.38-0.12h1.28v4.4h3.71v1.83h-3.71v7.67c0,0.52,0.13,0.9,0.38,1.15c0.25,0.25,0.58,0.38,0.97,0.38
		c0.23,0,0.43-0.03,0.6-0.09c0.17-0.06,0.31-0.13,0.43-0.2c0.12-0.07,0.22-0.14,0.31-0.2c0.09-0.06,0.16-0.09,0.23-0.09
		c0.09,0,0.15,0.02,0.2,0.06c0.05,0.04,0.1,0.1,0.15,0.19l0.75,1.21c-0.41,0.38-0.9,0.67-1.47,0.88
		C1106.63,429.45,1106.04,429.55,1105.43,429.55z M1113.03,418.76c0.42-0.86,0.93-1.53,1.52-2.02c0.59-0.49,1.31-0.74,2.14-0.74
		c0.28,0,0.55,0.03,0.81,0.1c0.25,0.06,0.47,0.16,0.66,0.29l-0.17,1.9c-0.06,0.23-0.2,0.35-0.43,0.35c-0.12,0-0.3-0.02-0.54-0.07
		c-0.24-0.05-0.5-0.07-0.77-0.07c-0.4,0-0.76,0.06-1.07,0.17c-0.31,0.12-0.59,0.29-0.83,0.52c-0.24,0.23-0.46,0.51-0.65,0.84
		c-0.19,0.33-0.37,0.71-0.53,1.13v8.2h-2.51v-13.1h1.44c0.28,0,0.46,0.05,0.56,0.15c0.1,0.1,0.17,0.27,0.21,0.52L1113.03,418.76z
		 M1130.38,427.47c-0.31,0.36-0.67,0.67-1.07,0.93c-0.4,0.26-0.83,0.48-1.29,0.64c-0.46,0.16-0.93,0.28-1.41,0.36
		c-0.49,0.08-0.97,0.12-1.44,0.12c-0.9,0-1.74-0.15-2.51-0.46c-0.77-0.31-1.44-0.75-2-1.34c-0.56-0.59-1-1.32-1.32-2.19
		c-0.31-0.87-0.47-1.88-0.47-3.01c0-0.91,0.14-1.76,0.43-2.55c0.28-0.79,0.69-1.47,1.22-2.06c0.53-0.58,1.18-1.04,1.94-1.38
		c0.77-0.34,1.62-0.5,2.58-0.5c0.8,0,1.54,0.13,2.21,0.39c0.67,0.26,1.26,0.64,1.75,1.14c0.49,0.5,0.87,1.11,1.15,1.84
		c0.28,0.73,0.42,1.56,0.42,2.5c0,0.39-0.04,0.65-0.13,0.78c-0.09,0.13-0.24,0.2-0.48,0.2h-8.59c0.03,0.78,0.14,1.46,0.34,2.04
		c0.2,0.58,0.47,1.06,0.82,1.45c0.35,0.39,0.76,0.67,1.24,0.86c0.48,0.19,1.02,0.28,1.61,0.28c0.56,0,1.04-0.06,1.45-0.19
		c0.41-0.13,0.76-0.27,1.06-0.42c0.3-0.15,0.55-0.29,0.75-0.42c0.2-0.13,0.38-0.19,0.54-0.19c0.21,0,0.37,0.08,0.48,0.23
		L1130.38,427.47z M1128.3,421.34c0-0.5-0.07-0.96-0.21-1.38c-0.14-0.42-0.35-0.79-0.63-1.1c-0.28-0.31-0.61-0.55-1.01-0.72
		c-0.4-0.17-0.85-0.26-1.37-0.26c-1.06,0-1.89,0.31-2.5,0.92c-0.61,0.61-0.99,1.46-1.15,2.54H1128.3z M1132.93,418.07
		c0.73-0.7,1.52-1.22,2.38-1.56c0.86-0.34,1.79-0.52,2.82-0.52c0.75,0,1.41,0.12,1.99,0.37s1.06,0.59,1.46,1.03
		c0.4,0.44,0.69,0.96,0.9,1.57c0.2,0.61,0.3,1.29,0.3,2.02v8.36h-1.12c-0.25,0-0.44-0.04-0.57-0.12c-0.13-0.08-0.23-0.23-0.31-0.46
		l-0.27-1.15c-0.34,0.31-0.67,0.58-0.99,0.82c-0.33,0.24-0.67,0.44-1.03,0.61c-0.36,0.17-0.74,0.29-1.14,0.38
		c-0.4,0.09-0.85,0.13-1.34,0.13c-0.52,0-1-0.07-1.45-0.21s-0.84-0.36-1.18-0.65c-0.34-0.29-0.6-0.66-0.79-1.1
		c-0.19-0.44-0.29-0.95-0.29-1.53c0-0.52,0.14-1.01,0.42-1.49c0.28-0.48,0.73-0.9,1.37-1.28c0.63-0.38,1.46-0.69,2.48-0.93
		c1.02-0.24,2.27-0.38,3.76-0.41v-0.95c0-0.99-0.21-1.73-0.63-2.22c-0.42-0.49-1.04-0.74-1.86-0.74c-0.55,0-1.01,0.07-1.39,0.21
		c-0.37,0.14-0.7,0.29-0.97,0.46c-0.27,0.17-0.51,0.32-0.71,0.46c-0.2,0.14-0.41,0.21-0.63,0.21c-0.17,0-0.32-0.05-0.44-0.14
		c-0.12-0.09-0.23-0.21-0.3-0.34L1132.93,418.07z M1140.31,423.53c-1.02,0.03-1.89,0.11-2.6,0.24c-0.71,0.12-1.29,0.29-1.74,0.5
		c-0.45,0.21-0.77,0.45-0.97,0.73c-0.2,0.28-0.3,0.59-0.3,0.93c0,0.33,0.05,0.61,0.16,0.84c0.11,0.24,0.25,0.43,0.44,0.58
		c0.18,0.15,0.4,0.26,0.65,0.33c0.25,0.07,0.52,0.1,0.81,0.1c0.39,0,0.74-0.04,1.06-0.12c0.32-0.08,0.63-0.19,0.91-0.33
		c0.28-0.14,0.55-0.32,0.81-0.52c0.26-0.21,0.51-0.44,0.76-0.71V423.53z M1150.08,429.55c-1.06,0-1.87-0.3-2.44-0.89
		c-0.57-0.59-0.86-1.44-0.86-2.54v-7.84h-1.52c-0.15,0-0.27-0.05-0.37-0.14c-0.1-0.09-0.15-0.23-0.15-0.41v-1.02l2.13-0.3l0.57-3.91
		c0.03-0.15,0.1-0.26,0.2-0.34c0.1-0.08,0.23-0.12,0.38-0.12h1.28v4.4h3.71v1.83h-3.71v7.67c0,0.52,0.13,0.9,0.38,1.15
		c0.25,0.25,0.58,0.38,0.97,0.38c0.23,0,0.43-0.03,0.6-0.09c0.17-0.06,0.31-0.13,0.43-0.2c0.12-0.07,0.22-0.14,0.31-0.2
		c0.09-0.06,0.16-0.09,0.23-0.09c0.09,0,0.15,0.02,0.2,0.06c0.05,0.04,0.1,0.1,0.15,0.19l0.75,1.21c-0.41,0.38-0.9,0.67-1.47,0.88
		C1151.28,429.45,1150.69,429.55,1150.08,429.55z M1155.32,429.34v-13.1h1.51c0.35,0,0.57,0.17,0.66,0.5l0.18,1.25
		c0.48-0.58,1.02-1.05,1.61-1.41c0.59-0.37,1.28-0.55,2.07-0.55c0.87,0,1.57,0.24,2.11,0.72c0.54,0.48,0.94,1.12,1.19,1.94
		c0.19-0.46,0.43-0.86,0.73-1.2c0.3-0.34,0.64-0.61,1.01-0.83c0.37-0.21,0.76-0.37,1.18-0.48c0.42-0.1,0.84-0.15,1.27-0.15
		c0.7,0,1.32,0.11,1.86,0.33c0.55,0.22,1.01,0.54,1.39,0.96c0.38,0.42,0.67,0.94,0.86,1.56s0.3,1.32,0.3,2.11v8.34h-2.53V421
		c0-0.98-0.21-1.72-0.64-2.22c-0.43-0.5-1.05-0.75-1.86-0.75c-0.36,0-0.71,0.06-1.03,0.19c-0.33,0.12-0.61,0.31-0.86,0.56
		c-0.24,0.25-0.44,0.56-0.58,0.93c-0.14,0.37-0.21,0.8-0.21,1.29v8.34H1163V421c0-1.01-0.2-1.76-0.61-2.24
		c-0.4-0.48-1-0.72-1.78-0.72c-0.54,0-1.04,0.14-1.51,0.43s-0.89,0.67-1.28,1.16v9.72H1155.32z M1187.37,427.47
		c-0.31,0.36-0.67,0.67-1.07,0.93c-0.4,0.26-0.83,0.48-1.29,0.64c-0.46,0.16-0.93,0.28-1.41,0.36c-0.49,0.08-0.97,0.12-1.44,0.12
		c-0.9,0-1.74-0.15-2.51-0.46c-0.77-0.31-1.44-0.75-2-1.34c-0.56-0.59-1-1.32-1.32-2.19c-0.31-0.87-0.47-1.88-0.47-3.01
		c0-0.91,0.14-1.76,0.43-2.55c0.28-0.79,0.69-1.47,1.22-2.06c0.53-0.58,1.18-1.04,1.94-1.38c0.77-0.34,1.62-0.5,2.58-0.5
		c0.8,0,1.54,0.13,2.21,0.39c0.67,0.26,1.26,0.64,1.75,1.14c0.49,0.5,0.87,1.11,1.15,1.84c0.28,0.73,0.42,1.56,0.42,2.5
		c0,0.39-0.04,0.65-0.13,0.78c-0.09,0.13-0.24,0.2-0.48,0.2h-8.59c0.03,0.78,0.14,1.46,0.34,2.04c0.2,0.58,0.47,1.06,0.82,1.45
		c0.35,0.39,0.76,0.67,1.24,0.86c0.48,0.19,1.02,0.28,1.61,0.28c0.56,0,1.04-0.06,1.45-0.19c0.41-0.13,0.76-0.27,1.06-0.42
		c0.3-0.15,0.55-0.29,0.75-0.42c0.2-0.13,0.38-0.19,0.54-0.19c0.21,0,0.37,0.08,0.48,0.23L1187.37,427.47z M1185.3,421.34
		c0-0.5-0.07-0.96-0.21-1.38c-0.14-0.42-0.35-0.79-0.63-1.1c-0.28-0.31-0.61-0.55-1.01-0.72c-0.4-0.17-0.85-0.26-1.37-0.26
		c-1.06,0-1.89,0.31-2.5,0.92c-0.61,0.61-0.99,1.46-1.15,2.54H1185.3z M1192.62,418.06c0.28-0.3,0.58-0.58,0.89-0.83
		c0.31-0.25,0.64-0.46,0.99-0.64c0.35-0.18,0.72-0.31,1.12-0.41c0.4-0.1,0.83-0.15,1.28-0.15c0.72,0,1.36,0.12,1.9,0.36
		c0.55,0.24,1,0.58,1.37,1.01c0.37,0.43,0.65,0.96,0.84,1.57c0.19,0.61,0.28,1.29,0.28,2.02v8.34h-2.53V421
		c0-0.94-0.22-1.67-0.64-2.19c-0.43-0.52-1.09-0.78-1.97-0.78c-0.64,0-1.25,0.15-1.81,0.46c-0.56,0.31-1.09,0.72-1.57,1.24v9.61
		h-2.51v-13.1h1.51c0.35,0,0.57,0.17,0.66,0.5L1192.62,418.06z M1208.61,429.55c-1.06,0-1.87-0.3-2.44-0.89
		c-0.57-0.59-0.86-1.44-0.86-2.54v-7.84h-1.52c-0.15,0-0.27-0.05-0.37-0.14c-0.1-0.09-0.15-0.23-0.15-0.41v-1.02l2.13-0.3l0.57-3.91
		c0.03-0.15,0.1-0.26,0.2-0.34c0.1-0.08,0.23-0.12,0.38-0.12h1.28v4.4h3.71v1.83h-3.71v7.67c0,0.52,0.13,0.9,0.38,1.15
		c0.25,0.25,0.58,0.38,0.97,0.38c0.23,0,0.43-0.03,0.6-0.09c0.17-0.06,0.31-0.13,0.43-0.2c0.12-0.07,0.22-0.14,0.31-0.2
		c0.09-0.06,0.16-0.09,0.23-0.09c0.09,0,0.15,0.02,0.2,0.06c0.05,0.04,0.1,0.1,0.15,0.19l0.75,1.21c-0.41,0.38-0.9,0.67-1.47,0.88
		C1209.81,429.45,1209.22,429.55,1208.61,429.55z M1221.57,418.5c-0.07,0.11-0.14,0.19-0.22,0.24c-0.08,0.05-0.18,0.07-0.3,0.07
		c-0.14,0-0.29-0.05-0.46-0.14c-0.17-0.09-0.37-0.2-0.61-0.31c-0.24-0.11-0.51-0.21-0.83-0.31c-0.32-0.09-0.7-0.14-1.13-0.14
		c-0.36,0-0.69,0.05-0.99,0.14c-0.3,0.09-0.55,0.21-0.75,0.37c-0.21,0.16-0.37,0.35-0.48,0.57c-0.11,0.22-0.17,0.45-0.17,0.7
		c0,0.33,0.1,0.6,0.29,0.81c0.19,0.21,0.45,0.4,0.76,0.55c0.31,0.15,0.67,0.29,1.07,0.42c0.4,0.12,0.81,0.26,1.22,0.39
		c0.42,0.14,0.83,0.29,1.23,0.47c0.4,0.18,0.76,0.4,1.07,0.66c0.31,0.26,0.57,0.58,0.76,0.95c0.19,0.37,0.29,0.82,0.29,1.35
		c0,0.61-0.11,1.18-0.33,1.7c-0.22,0.52-0.54,0.97-0.97,1.35c-0.43,0.38-0.95,0.67-1.58,0.89c-0.63,0.21-1.35,0.32-2.15,0.32
		c-0.9,0-1.74-0.15-2.5-0.45c-0.77-0.3-1.41-0.68-1.92-1.15l0.59-0.97c0.07-0.12,0.15-0.21,0.26-0.28s0.24-0.1,0.41-0.1
		c0.16,0,0.33,0.06,0.5,0.18c0.17,0.12,0.38,0.25,0.62,0.39c0.24,0.14,0.53,0.27,0.88,0.39c0.34,0.12,0.77,0.17,1.29,0.17
		c0.43,0,0.8-0.05,1.12-0.16c0.32-0.11,0.58-0.25,0.79-0.44c0.21-0.18,0.37-0.4,0.47-0.64c0.1-0.24,0.15-0.49,0.15-0.76
		c0-0.34-0.1-0.63-0.29-0.86c-0.19-0.23-0.45-0.42-0.76-0.59c-0.31-0.16-0.67-0.31-1.08-0.43c-0.4-0.12-0.82-0.25-1.24-0.39
		c-0.42-0.14-0.83-0.3-1.24-0.48c-0.4-0.18-0.76-0.41-1.08-0.68c-0.31-0.28-0.57-0.61-0.76-1.01c-0.19-0.4-0.29-0.88-0.29-1.44
		c0-0.51,0.11-0.99,0.32-1.46c0.21-0.46,0.52-0.87,0.92-1.23c0.4-0.35,0.89-0.63,1.48-0.84c0.59-0.21,1.26-0.32,2.02-0.32
		c0.87,0,1.65,0.14,2.35,0.41c0.7,0.28,1.3,0.65,1.8,1.13L1221.57,418.5z M1224.63,427.84c0-0.23,0.04-0.45,0.13-0.66
		c0.09-0.21,0.2-0.39,0.35-0.54c0.15-0.15,0.33-0.28,0.54-0.37c0.21-0.09,0.43-0.14,0.67-0.14c0.23,0,0.45,0.05,0.66,0.14
		c0.21,0.09,0.39,0.21,0.54,0.37c0.15,0.15,0.28,0.34,0.37,0.54c0.09,0.21,0.14,0.43,0.14,0.66c0,0.24-0.05,0.46-0.14,0.67
		c-0.09,0.21-0.21,0.39-0.37,0.54s-0.34,0.28-0.54,0.36c-0.21,0.09-0.43,0.13-0.66,0.13c-0.24,0-0.46-0.04-0.67-0.13
		c-0.21-0.09-0.38-0.21-0.54-0.36s-0.27-0.34-0.35-0.54C1224.67,428.3,1224.63,428.08,1224.63,427.84z"/>
	<g>
		<path class="st2" d="M1236.97,419.37c0.16,0,0.29,0.05,0.38,0.14c0.09,0.09,0.14,0.21,0.14,0.36v0.89h-7.25v-0.5
			c0-0.1,0.02-0.21,0.06-0.32c0.04-0.11,0.11-0.21,0.2-0.3l3.41-3.42c0.29-0.29,0.54-0.56,0.77-0.83c0.23-0.27,0.43-0.53,0.59-0.79
			c0.16-0.26,0.29-0.53,0.37-0.81s0.13-0.57,0.13-0.87c0-0.3-0.05-0.56-0.14-0.79c-0.1-0.23-0.23-0.42-0.39-0.57
			c-0.17-0.15-0.36-0.26-0.59-0.34c-0.23-0.08-0.47-0.11-0.73-0.11c-0.26,0-0.5,0.04-0.72,0.11c-0.22,0.07-0.41,0.18-0.58,0.32
			c-0.17,0.14-0.31,0.3-0.43,0.48c-0.11,0.19-0.2,0.39-0.25,0.6c-0.07,0.19-0.16,0.32-0.27,0.38c-0.11,0.07-0.26,0.08-0.47,0.04
			l-0.77-0.14c0.07-0.5,0.21-0.94,0.41-1.32c0.21-0.38,0.46-0.7,0.77-0.96c0.31-0.26,0.67-0.45,1.07-0.58c0.4-0.13,0.84-0.2,1.3-0.2
			c0.47,0,0.91,0.07,1.3,0.21c0.4,0.14,0.74,0.34,1.03,0.6c0.29,0.26,0.52,0.58,0.68,0.95c0.17,0.37,0.25,0.8,0.25,1.27
			c0,0.4-0.06,0.77-0.18,1.12c-0.12,0.34-0.28,0.67-0.48,0.98c-0.2,0.31-0.44,0.61-0.71,0.91c-0.27,0.29-0.55,0.59-0.85,0.89
			l-2.74,2.8c0.21-0.05,0.42-0.1,0.64-0.14c0.21-0.03,0.41-0.05,0.6-0.05H1236.97z"/>
		<path class="st2" d="M1239.97,420.76c-0.14,0-0.26-0.03-0.37-0.08c-0.11-0.05-0.21-0.12-0.29-0.21c-0.08-0.09-0.15-0.19-0.19-0.31
			c-0.05-0.12-0.07-0.25-0.07-0.39c0-0.12,0.02-0.23,0.07-0.34c0.04-0.11,0.11-0.2,0.19-0.28c0.08-0.08,0.18-0.14,0.3-0.19
			c0.11-0.05,0.24-0.07,0.38-0.07c0.16,0,0.3,0.03,0.42,0.09c0.12,0.06,0.23,0.14,0.31,0.24c0.08,0.1,0.14,0.22,0.18,0.36
			c0.04,0.14,0.06,0.28,0.06,0.44c0,0.23-0.03,0.46-0.1,0.71c-0.07,0.25-0.16,0.5-0.29,0.74c-0.12,0.24-0.28,0.48-0.47,0.71
			c-0.18,0.23-0.4,0.44-0.63,0.64l-0.25-0.23c-0.08-0.07-0.11-0.15-0.11-0.23c0-0.03,0.01-0.07,0.03-0.11
			c0.02-0.04,0.05-0.07,0.09-0.11c0.05-0.06,0.11-0.13,0.2-0.22c0.08-0.09,0.16-0.19,0.24-0.31c0.08-0.12,0.15-0.25,0.22-0.39
			c0.07-0.14,0.12-0.29,0.15-0.45H1239.97z"/>
		<path class="st2" d="M1242.65,412.9c0.07-0.5,0.21-0.94,0.42-1.32c0.21-0.38,0.46-0.7,0.77-0.96c0.31-0.26,0.67-0.45,1.07-0.58
			c0.4-0.13,0.84-0.2,1.3-0.2c0.47,0,0.89,0.07,1.29,0.2c0.39,0.13,0.72,0.32,1,0.56c0.28,0.24,0.49,0.53,0.65,0.88
			s0.23,0.72,0.23,1.13c0,0.35-0.04,0.65-0.13,0.92c-0.09,0.27-0.21,0.5-0.36,0.7c-0.16,0.2-0.35,0.37-0.57,0.51
			c-0.23,0.14-0.48,0.25-0.76,0.34c0.69,0.19,1.2,0.5,1.55,0.93c0.35,0.43,0.52,0.97,0.52,1.63c0,0.51-0.1,0.96-0.29,1.36
			c-0.19,0.4-0.45,0.74-0.78,1.02s-0.72,0.49-1.15,0.64c-0.44,0.15-0.91,0.22-1.4,0.22c-0.57,0-1.05-0.07-1.46-0.21
			c-0.41-0.14-0.75-0.33-1.04-0.58c-0.29-0.25-0.52-0.55-0.71-0.89c-0.19-0.35-0.35-0.73-0.48-1.15l0.64-0.27
			c0.17-0.07,0.33-0.09,0.48-0.06c0.16,0.03,0.27,0.12,0.34,0.26c0.08,0.15,0.16,0.32,0.26,0.51c0.1,0.19,0.23,0.37,0.39,0.53
			c0.17,0.17,0.37,0.31,0.62,0.42c0.25,0.12,0.56,0.17,0.94,0.17c0.36,0,0.68-0.06,0.95-0.18c0.27-0.12,0.5-0.27,0.68-0.46
			c0.18-0.19,0.32-0.4,0.41-0.63c0.09-0.23,0.14-0.46,0.14-0.68c0-0.28-0.04-0.54-0.11-0.77c-0.07-0.24-0.2-0.44-0.4-0.61
			c-0.2-0.17-0.47-0.3-0.82-0.39c-0.35-0.1-0.81-0.14-1.37-0.14v-1.07c0.46,0,0.85-0.05,1.17-0.14c0.32-0.09,0.58-0.22,0.77-0.38
			c0.2-0.16,0.34-0.35,0.42-0.57c0.09-0.22,0.13-0.47,0.13-0.74c0-0.3-0.05-0.55-0.14-0.77c-0.09-0.22-0.22-0.4-0.38-0.55
			c-0.16-0.15-0.36-0.26-0.58-0.33c-0.22-0.07-0.47-0.11-0.73-0.11c-0.26,0-0.5,0.04-0.72,0.11c-0.22,0.07-0.42,0.18-0.59,0.32
			c-0.17,0.14-0.31,0.3-0.43,0.48c-0.11,0.19-0.2,0.39-0.25,0.6c-0.07,0.19-0.16,0.32-0.27,0.38c-0.11,0.07-0.26,0.08-0.46,0.04
			L1242.65,412.9z"/>
	</g>
	<path class="st3" d="M140.59,245.07h22.3c2.17,0,4.13,1.34,4.94,3.38l25.38,63.5l-0.03,0.02c-2.83,1.94-6.7,0.98-8.32-2.08
		l-19.28-36.31l-1.79,8.45l19.46,48.38l-18.22,1.2l-8.46,63.72h-9.3l-8.47-63.75l-18.3-1.04l18.78-47.4l-1.02-9.56l-19.19,36.23
		c-1.65,3.11-5.56,4.1-8.45,2.14l25.38-63.74C136.76,246.31,138.58,245.07,140.59,245.07"/>
	<path class="st3" d="M167.9,223.89c0,9.38-7.5,16.98-16.7,16.98c-9.21,0-16.66-7.6-16.66-16.98c0-9.3,7.46-16.94,16.66-16.94
		C160.39,206.94,167.9,214.58,167.9,223.89"/>
	<path class="st3" d="M227.86,245.07h22.3c2.17,0,4.13,1.34,4.94,3.38l25.38,63.5l-0.03,0.02c-2.83,1.94-6.7,0.98-8.32-2.08
		l-19.28-36.31l-1.79,8.45l19.46,48.38l-18.22,1.2l-8.46,63.72h-9.3l-8.47-63.75l-18.3-1.04l18.78-47.4l-1.02-9.56l-19.19,36.23
		c-1.65,3.11-5.56,4.1-8.45,2.14l25.38-63.74C224.03,246.31,225.85,245.07,227.86,245.07"/>
	<path class="st3" d="M255.17,223.89c0,9.38-7.5,16.98-16.7,16.98c-9.21,0-16.66-7.6-16.66-16.98c0-9.3,7.46-16.94,16.66-16.94
		C247.67,206.94,255.17,214.58,255.17,223.89"/>
	<path class="st1" d="M184.27,278.38h22.3c2.17,0,4.13,1.34,4.94,3.38l25.38,63.5l-0.03,0.02c-2.83,1.94-6.7,0.98-8.32-2.08
		l-19.28-36.31l-1.79,8.45l19.46,48.38l-18.22,1.2l-8.46,63.72h-9.3l-8.47-63.75l-18.3-1.04l18.78-47.4l-1.02-9.56l-19.19,36.23
		c-1.65,3.11-5.56,4.1-8.45,2.14l25.38-63.74C180.44,279.62,182.25,278.38,184.27,278.38"/>
	<path class="st1" d="M211.58,257.2c0,9.38-7.5,16.98-16.7,16.98c-9.21,0-16.66-7.6-16.66-16.98c0-9.3,7.46-16.94,16.66-16.94
		C204.07,240.25,211.58,247.89,211.58,257.2"/>
	<path class="st1" d="M271.54,278.38h22.3c2.17,0,4.13,1.34,4.94,3.38l25.38,63.5l-0.03,0.02c-2.83,1.94-6.7,0.98-8.32-2.08
		l-19.28-36.31l-1.79,8.45l19.46,48.38l-18.22,1.2l-8.46,63.72h-9.3l-8.47-63.75l-18.3-1.04l18.78-47.4l-1.02-9.56l-19.19,36.23
		c-1.65,3.11-5.56,4.1-8.45,2.14l25.38-63.74C267.71,279.62,269.53,278.38,271.54,278.38"/>
	<path class="st1" d="M298.85,257.2c0,9.38-7.5,16.98-16.7,16.98c-9.21,0-16.66-7.6-16.66-16.98c0-9.3,7.46-16.94,16.66-16.94
		C291.35,240.25,298.85,247.89,298.85,257.2"/>
</g>
</svg>
