<?xml version="1.0" encoding="utf-8"?>
<!-- Generator: Adobe Illustrator 24.1.0, SVG Export Plug-In . SVG Version: 6.00 Build 0)  -->
<svg version="1.1" id="Layer_1" xmlns="http://www.w3.org/2000/svg" xmlns:xlink="http://www.w3.org/1999/xlink" x="0px" y="0px"
	 viewBox="0 0 460.2 200.02" style="enable-background:new 0 0 460.2 200.02;" xml:space="preserve">
<style type="text/css">
	.st0{fill:#337092;}
	.st1{fill:#EFBB50;}
</style>
<path class="st0" d="M11.99,0C5.37,0,0,5.37,0,11.99v176.04c0,6.62,5.37,11.99,11.99,11.99H448.2c6.62,0,11.99-5.37,11.99-11.99
	V11.99C460.2,5.37,454.83,0,448.2,0H11.99z"/>
<path class="st1" d="M104.82,75.39h-49.2V64.22c0.86,0.06,1.76,0.09,2.74,0.09c0.6,0,1.22-0.01,2.01-0.04
	c1.22-0.05,2.46-0.1,3.73-0.1c3.16,0,5.7,0.32,8.25,1.03c1.15,0.32,2.41,0.49,3.63,0.49c3.1,0,5.65-1.04,7.02-2.86
	c0.78-1.04,1.55-2.84,0.78-5.53c-1.59-5.49-9.96-6.41-12.49-6.56c-1.58-0.1-3.65-0.49-4.58-1.84c-0.71-1.03-0.57-2.36-0.42-2.86
	c0,0,0.04-0.06,0.17-0.15l21.63,0h16.75V75.39z M46.18,58.05c-0.19-0.13-0.34-0.24-0.48-0.32l-1.59-0.99
	c-4.55-2.85-8-5.02-11.47-5.55V32.62c4.24,1.09,7.46,1.9,10.62,2.45l0.77-0.06c2.03-0.66,4.33-1.58,6.78-2.54
	c4.89-1.93,10.43-4.12,13.53-4.12c0.43,0,0.78,0.04,1.05,0.13c3.42,1.05,14.04,8.56,16.94,10.85c1.07,0.85,2.11,2.2,2.89,3.37
	l-19.26,0l-0.76,0.19c-1.05,0.57-1.71,1.29-1.98,2.14c-0.45,1.43-0.5,3.78,0.82,5.69c1.34,1.94,3.7,3.02,7.03,3.22
	c4.25,0.26,8.86,1.67,9.61,4.26c0.33,1.15,0.25,2.04-0.26,2.71c-0.73,0.97-2.44,1.58-4.46,1.58c-0.94,0-1.89-0.13-2.77-0.37
	c-2.84-0.79-5.65-1.15-9.11-1.15c-1.31,0-2.59,0.05-3.99,0.1C51.12,61.43,47.6,59.04,46.18,58.05 M106.42,42.7H89.01
	c-0.82-1.42-2.62-4.25-4.67-5.88c-2.06-1.63-13.72-10.09-17.99-11.4c-0.59-0.18-1.24-0.27-1.99-0.27c-3.71,0-9.3,2.21-14.71,4.35
	c-2.24,0.89-4.37,1.73-6.22,2.35c-3.23-0.59-6.63-1.46-11.26-2.66L31.45,29l-2,1.55v22.12l1.6,1.6c3.11,0,6.58,2.17,11.37,5.18
	l1.6,1c0.1,0.06,0.22,0.14,0.35,0.24c1.16,0.8,3.46,2.37,8.05,3.16v13.14l1.6,1.6h52.4l1.6-1.6V44.3L106.42,42.7z"/>
<path class="st1" d="M170.74,148.58v23.35h-4.36v-10.21h-10.96v10.21h-4.36v-23.35h4.36v10.04h10.96v-10.04H170.74z M177.55,164.15
	c0.06,0.85,0.22,1.59,0.45,2.2c0.24,0.62,0.55,1.13,0.94,1.53c0.39,0.4,0.85,0.71,1.38,0.9c0.53,0.2,1.12,0.3,1.77,0.3
	c0.65,0,1.2-0.08,1.67-0.23c0.47-0.15,0.88-0.32,1.23-0.5c0.35-0.18,0.66-0.35,0.92-0.5c0.26-0.15,0.52-0.23,0.77-0.23
	c0.33,0,0.58,0.12,0.74,0.37l1.15,1.45c-0.44,0.52-0.94,0.95-1.49,1.3c-0.55,0.35-1.12,0.63-1.72,0.84
	c-0.6,0.21-1.21,0.36-1.82,0.44c-0.62,0.09-1.22,0.13-1.8,0.13c-1.15,0-2.22-0.19-3.21-0.57c-0.99-0.38-1.85-0.95-2.58-1.7
	c-0.73-0.75-1.31-1.67-1.73-2.78c-0.42-1.1-0.63-2.38-0.63-3.84c0-1.13,0.18-2.19,0.55-3.19c0.37-1,0.89-1.86,1.57-2.6
	c0.68-0.74,1.52-1.32,2.5-1.75c0.98-0.43,2.1-0.65,3.33-0.65c1.04,0,2.01,0.17,2.89,0.5c0.88,0.33,1.64,0.82,2.28,1.46
	c0.64,0.64,1.13,1.43,1.49,2.36c0.36,0.93,0.54,1.99,0.54,3.19c0,0.6-0.06,1.01-0.19,1.22c-0.13,0.21-0.38,0.31-0.74,0.31H177.55z
	 M185.16,161.74c0-0.52-0.07-1-0.22-1.46c-0.15-0.46-0.36-0.86-0.65-1.2c-0.29-0.34-0.66-0.62-1.11-0.82
	c-0.45-0.2-0.97-0.3-1.56-0.3c-1.15,0-2.06,0.33-2.72,0.99c-0.66,0.66-1.08,1.59-1.27,2.79H185.16z M195.45,147.94v24h-3.99v-24
	H195.45z M202.87,157.63c0.68-0.76,1.45-1.38,2.31-1.86c0.86-0.47,1.87-0.71,3.04-0.71c0.9,0,1.73,0.19,2.48,0.57
	c0.75,0.38,1.39,0.92,1.94,1.64c0.54,0.72,0.96,1.6,1.26,2.65c0.3,1.05,0.44,2.25,0.44,3.61c0,1.24-0.17,2.38-0.5,3.44
	c-0.33,1.06-0.81,1.97-1.43,2.75c-0.62,0.78-1.37,1.38-2.24,1.82c-0.88,0.44-1.86,0.65-2.95,0.65c-0.93,0-1.72-0.14-2.37-0.43
	c-0.66-0.29-1.24-0.68-1.76-1.19v6.78h-3.99v-21.98h2.44c0.52,0,0.86,0.24,1.02,0.73L202.87,157.63z M203.08,167.64
	c0.45,0.55,0.94,0.94,1.48,1.16c0.53,0.23,1.11,0.34,1.74,0.34c0.6,0,1.15-0.11,1.63-0.34c0.48-0.23,0.9-0.57,1.24-1.03
	c0.34-0.46,0.6-1.05,0.78-1.75c0.18-0.7,0.27-1.54,0.27-2.49c0-0.97-0.08-1.79-0.23-2.46c-0.16-0.67-0.38-1.22-0.67-1.64
	c-0.29-0.42-0.64-0.73-1.06-0.92c-0.41-0.19-0.89-0.29-1.41-0.29c-0.83,0-1.53,0.18-2.12,0.52c-0.58,0.35-1.13,0.84-1.65,1.48
	V167.64z M232.86,148.58c1.56,0,2.91,0.18,4.05,0.55c1.14,0.37,2.08,0.88,2.83,1.53c0.74,0.66,1.29,1.44,1.66,2.36
	c0.36,0.92,0.54,1.92,0.54,3c0,1.13-0.19,2.17-0.57,3.11c-0.38,0.94-0.94,1.75-1.7,2.43c-0.75,0.68-1.7,1.21-2.83,1.58
	c-1.14,0.38-2.46,0.57-3.98,0.57h-3.25v8.22h-4.34v-23.35H232.86z M232.86,160.32c0.8,0,1.49-0.1,2.08-0.3
	c0.59-0.2,1.08-0.48,1.48-0.86c0.39-0.37,0.69-0.82,0.88-1.36c0.19-0.53,0.29-1.13,0.29-1.78c0-0.62-0.1-1.19-0.29-1.7
	c-0.19-0.51-0.48-0.94-0.87-1.29c-0.39-0.36-0.88-0.63-1.47-0.82c-0.59-0.19-1.29-0.28-2.1-0.28h-3.25v8.38H232.86z M243.42,157.67
	c1.91-1.74,4.2-2.62,6.88-2.62c0.97,0,1.84,0.16,2.6,0.48c0.76,0.32,1.41,0.76,1.94,1.32c0.53,0.57,0.93,1.24,1.2,2.03
	c0.27,0.79,0.41,1.65,0.41,2.58v10.46h-1.81c-0.38,0-0.67-0.06-0.87-0.17c-0.2-0.11-0.37-0.34-0.48-0.69l-0.36-1.19
	c-0.42,0.38-0.83,0.71-1.23,0.99c-0.4,0.29-0.81,0.52-1.24,0.72c-0.43,0.19-0.89,0.34-1.38,0.44c-0.49,0.1-1.03,0.15-1.62,0.15
	c-0.7,0-1.35-0.09-1.94-0.28c-0.59-0.19-1.1-0.47-1.53-0.85c-0.43-0.38-0.76-0.84-1-1.4c-0.24-0.56-0.36-1.21-0.36-1.95
	c0-0.42,0.07-0.84,0.21-1.25c0.14-0.41,0.37-0.81,0.69-1.19c0.32-0.38,0.73-0.73,1.24-1.07c0.51-0.33,1.13-0.62,1.87-0.87
	c0.74-0.25,1.6-0.45,2.58-0.61c0.98-0.16,2.1-0.25,3.36-0.28v-0.97c0-1.11-0.24-1.93-0.71-2.46c-0.47-0.53-1.16-0.8-2.05-0.8
	c-0.65,0-1.18,0.08-1.61,0.23c-0.43,0.15-0.8,0.32-1.12,0.51c-0.32,0.19-0.62,0.36-0.88,0.51c-0.26,0.15-0.56,0.23-0.88,0.23
	c-0.28,0-0.52-0.07-0.71-0.22c-0.19-0.15-0.35-0.31-0.47-0.51L243.42,157.67z M252.56,164.86c-1.15,0.05-2.12,0.15-2.91,0.3
	c-0.79,0.15-1.42,0.33-1.89,0.56c-0.47,0.23-0.81,0.49-1.02,0.79c-0.2,0.3-0.31,0.63-0.31,0.99c0,0.7,0.21,1.2,0.62,1.5
	c0.41,0.3,0.96,0.45,1.62,0.45c0.82,0,1.53-0.15,2.12-0.44c0.6-0.3,1.18-0.75,1.75-1.35V164.86z M276.36,171.93h-3.99v-13.58h-7.69
	v8.98c0,0.52,0.13,0.92,0.38,1.21c0.25,0.29,0.6,0.44,1.04,0.44c0.25,0,0.45-0.03,0.62-0.09c0.17-0.06,0.31-0.12,0.44-0.19
	c0.12-0.06,0.23-0.13,0.33-0.19c0.1-0.06,0.19-0.09,0.29-0.09c0.12,0,0.22,0.03,0.29,0.09c0.08,0.06,0.16,0.15,0.24,0.27l1.19,1.94
	c-0.58,0.48-1.25,0.85-2,1.1c-0.75,0.25-1.53,0.37-2.34,0.37c-1.44,0-2.55-0.41-3.32-1.22c-0.77-0.81-1.15-1.93-1.15-3.37v-9.25H259
	c-0.22,0-0.4-0.07-0.55-0.21c-0.15-0.14-0.23-0.35-0.23-0.63v-1.58l2.66-0.45l0.84-4.51c0.05-0.22,0.16-0.38,0.31-0.5
	c0.15-0.12,0.34-0.18,0.58-0.18h2.07v5.22h11.67V171.93z M277.06,150.47c0,0.34-0.07,0.67-0.21,0.98c-0.14,0.31-0.33,0.57-0.56,0.8
	c-0.23,0.23-0.51,0.41-0.82,0.54c-0.32,0.13-0.65,0.2-1.01,0.2c-0.34,0-0.67-0.07-0.97-0.2c-0.3-0.13-0.57-0.31-0.79-0.54
	c-0.23-0.23-0.41-0.49-0.54-0.8c-0.13-0.31-0.2-0.63-0.2-0.98c0-0.36,0.07-0.69,0.2-0.99c0.13-0.31,0.31-0.58,0.54-0.81
	c0.23-0.23,0.49-0.41,0.79-0.55c0.3-0.13,0.62-0.2,0.97-0.2c0.36,0,0.69,0.07,1.01,0.2c0.32,0.13,0.59,0.32,0.82,0.55
	c0.23,0.23,0.42,0.5,0.56,0.81C276.99,149.79,277.06,150.12,277.06,150.47z M283.16,164.15c0.06,0.85,0.22,1.59,0.45,2.2
	c0.24,0.62,0.55,1.13,0.94,1.53c0.39,0.4,0.85,0.71,1.38,0.9c0.53,0.2,1.12,0.3,1.77,0.3c0.65,0,1.2-0.08,1.67-0.23
	c0.47-0.15,0.88-0.32,1.23-0.5c0.35-0.18,0.66-0.35,0.92-0.5c0.26-0.15,0.52-0.23,0.77-0.23c0.33,0,0.58,0.12,0.74,0.37l1.15,1.45
	c-0.44,0.52-0.94,0.95-1.49,1.3c-0.55,0.35-1.12,0.63-1.72,0.84c-0.6,0.21-1.21,0.36-1.82,0.44c-0.62,0.09-1.22,0.13-1.8,0.13
	c-1.15,0-2.22-0.19-3.21-0.57c-0.99-0.38-1.85-0.95-2.58-1.7c-0.73-0.75-1.31-1.67-1.73-2.78c-0.42-1.1-0.63-2.38-0.63-3.84
	c0-1.13,0.18-2.19,0.55-3.19c0.37-1,0.89-1.86,1.57-2.6c0.68-0.74,1.52-1.32,2.5-1.75c0.99-0.43,2.1-0.65,3.33-0.65
	c1.04,0,2.01,0.17,2.89,0.5c0.88,0.33,1.64,0.82,2.28,1.46c0.64,0.64,1.13,1.43,1.49,2.36c0.36,0.93,0.54,1.99,0.54,3.19
	c0,0.6-0.06,1.01-0.19,1.22c-0.13,0.21-0.38,0.31-0.74,0.31H283.16z M290.77,161.74c0-0.52-0.07-1-0.22-1.46
	c-0.15-0.46-0.36-0.86-0.65-1.2c-0.29-0.34-0.66-0.62-1.11-0.82c-0.45-0.2-0.97-0.3-1.56-0.3c-1.15,0-2.06,0.33-2.72,0.99
	c-0.66,0.66-1.08,1.59-1.27,2.79H290.77z M300.75,157.4c0.33-0.33,0.69-0.64,1.06-0.93c0.37-0.29,0.76-0.53,1.18-0.73
	c0.41-0.2,0.86-0.36,1.33-0.47c0.47-0.11,0.99-0.17,1.55-0.17c0.9,0,1.71,0.15,2.41,0.46c0.7,0.31,1.28,0.74,1.75,1.29
	c0.47,0.55,0.82,1.22,1.07,1.99c0.24,0.77,0.36,1.62,0.36,2.54v10.54h-3.99v-10.54c0-1.01-0.23-1.79-0.69-2.35
	c-0.46-0.55-1.17-0.83-2.12-0.83c-0.69,0-1.34,0.16-1.94,0.47c-0.6,0.31-1.17,0.74-1.71,1.28v11.98h-3.99v-16.57h2.44
	c0.52,0,0.86,0.24,1.02,0.73L300.75,157.4z M320.2,172.19c-1.44,0-2.55-0.41-3.32-1.22c-0.77-0.81-1.15-1.93-1.15-3.37v-9.25h-1.7
	c-0.22,0-0.4-0.07-0.55-0.21c-0.15-0.14-0.23-0.35-0.23-0.63v-1.58l2.66-0.44l0.84-4.52c0.05-0.22,0.16-0.38,0.31-0.5
	c0.15-0.12,0.34-0.18,0.58-0.18h2.07v5.22h4.42v2.84h-4.42v8.98c0,0.52,0.13,0.92,0.38,1.21c0.25,0.29,0.6,0.44,1.04,0.44
	c0.25,0,0.45-0.03,0.62-0.09c0.17-0.06,0.31-0.12,0.44-0.19c0.12-0.06,0.23-0.13,0.33-0.19c0.1-0.06,0.19-0.09,0.29-0.09
	c0.12,0,0.22,0.03,0.29,0.09c0.08,0.06,0.16,0.15,0.24,0.27l1.19,1.94c-0.58,0.48-1.25,0.85-2,1.1
	C321.79,172.07,321.01,172.19,320.2,172.19z M336.48,158.59c-0.11,0.17-0.22,0.29-0.34,0.36c-0.12,0.07-0.27,0.1-0.45,0.1
	c-0.19,0-0.4-0.05-0.62-0.16c-0.22-0.11-0.48-0.23-0.77-0.36c-0.29-0.13-0.62-0.26-0.99-0.36c-0.37-0.11-0.81-0.16-1.32-0.16
	c-0.79,0-1.4,0.17-1.85,0.5c-0.45,0.33-0.67,0.77-0.67,1.31c0,0.36,0.12,0.65,0.35,0.9c0.23,0.24,0.54,0.45,0.92,0.64
	c0.38,0.18,0.82,0.35,1.3,0.49c0.48,0.15,0.98,0.3,1.48,0.48c0.5,0.17,0.99,0.37,1.48,0.59c0.48,0.22,0.92,0.5,1.3,0.84
	c0.38,0.34,0.69,0.75,0.92,1.22c0.23,0.47,0.35,1.04,0.35,1.71c0,0.8-0.14,1.53-0.43,2.2c-0.29,0.67-0.71,1.25-1.27,1.74
	c-0.56,0.49-1.25,0.87-2.08,1.15c-0.82,0.27-1.77,0.41-2.85,0.41c-0.57,0-1.13-0.05-1.67-0.15c-0.54-0.1-1.07-0.24-1.57-0.43
	c-0.5-0.18-0.96-0.4-1.39-0.65c-0.43-0.25-0.8-0.52-1.12-0.81l0.92-1.52c0.12-0.18,0.26-0.32,0.42-0.42
	c0.16-0.1,0.37-0.15,0.61-0.15c0.25,0,0.48,0.07,0.7,0.21c0.22,0.14,0.48,0.29,0.77,0.45c0.29,0.16,0.63,0.31,1.03,0.45
	c0.39,0.14,0.89,0.21,1.49,0.21c0.47,0,0.88-0.06,1.22-0.17c0.34-0.11,0.62-0.26,0.84-0.44c0.22-0.18,0.38-0.4,0.48-0.64
	c0.1-0.24,0.15-0.49,0.15-0.75c0-0.39-0.12-0.7-0.35-0.95c-0.23-0.25-0.54-0.46-0.92-0.65c-0.38-0.18-0.82-0.35-1.31-0.49
	c-0.49-0.15-0.99-0.3-1.5-0.48c-0.51-0.17-1.01-0.37-1.5-0.61c-0.49-0.23-0.93-0.52-1.31-0.88c-0.38-0.36-0.69-0.79-0.92-1.31
	c-0.23-0.52-0.35-1.14-0.35-1.87c0-0.68,0.13-1.32,0.4-1.94c0.27-0.61,0.66-1.15,1.19-1.61c0.52-0.46,1.17-0.82,1.95-1.1
	c0.78-0.27,1.68-0.41,2.7-0.41c1.14,0,2.18,0.19,3.12,0.57c0.94,0.38,1.72,0.87,2.34,1.49L336.48,158.59z M360.82,152.83
	c-0.13,0.23-0.27,0.39-0.41,0.49c-0.15,0.1-0.33,0.15-0.54,0.15c-0.23,0-0.47-0.08-0.73-0.25c-0.26-0.17-0.58-0.35-0.94-0.56
	c-0.37-0.2-0.79-0.39-1.28-0.56c-0.49-0.17-1.07-0.25-1.74-0.25c-0.6,0-1.13,0.07-1.58,0.22c-0.45,0.15-0.83,0.35-1.14,0.61
	c-0.31,0.26-0.54,0.57-0.69,0.93c-0.15,0.36-0.23,0.76-0.23,1.19c0,0.55,0.15,1.01,0.46,1.37c0.31,0.37,0.71,0.68,1.22,0.94
	c0.51,0.26,1.08,0.49,1.73,0.69c0.65,0.2,1.31,0.42,1.99,0.65c0.68,0.23,1.34,0.5,1.99,0.81c0.65,0.31,1.22,0.69,1.73,1.16
	c0.51,0.47,0.91,1.04,1.22,1.72c0.31,0.68,0.46,1.5,0.46,2.47c0,1.06-0.18,2.04-0.54,2.96c-0.36,0.92-0.89,1.72-1.58,2.41
	c-0.69,0.68-1.54,1.22-2.54,1.61c-1,0.39-2.15,0.59-3.44,0.59c-0.74,0-1.48-0.07-2.2-0.22c-0.72-0.15-1.41-0.35-2.08-0.62
	c-0.66-0.27-1.28-0.59-1.87-0.97c-0.58-0.38-1.1-0.8-1.55-1.26l1.28-2.08c0.11-0.15,0.25-0.28,0.42-0.38
	c0.17-0.1,0.36-0.15,0.55-0.15c0.27,0,0.56,0.11,0.87,0.33c0.31,0.22,0.68,0.47,1.11,0.73c0.43,0.27,0.93,0.51,1.51,0.73
	c0.58,0.22,1.27,0.33,2.07,0.33c1.24,0,2.2-0.29,2.87-0.88c0.68-0.59,1.02-1.43,1.02-2.53c0-0.61-0.15-1.11-0.46-1.5
	c-0.31-0.39-0.71-0.71-1.22-0.98c-0.51-0.26-1.08-0.49-1.73-0.67c-0.65-0.18-1.3-0.38-1.97-0.6c-0.67-0.22-1.32-0.47-1.97-0.78
	c-0.65-0.3-1.22-0.69-1.73-1.18c-0.51-0.48-0.91-1.09-1.22-1.82c-0.31-0.73-0.46-1.62-0.46-2.69c0-0.85,0.17-1.68,0.51-2.49
	s0.83-1.52,1.48-2.15c0.65-0.62,1.44-1.12,2.39-1.5c0.95-0.38,2.03-0.57,3.26-0.57c1.38,0,2.65,0.22,3.81,0.65
	c1.16,0.43,2.15,1.03,2.97,1.81L360.82,152.83z M364.55,157.67c1.91-1.74,4.2-2.62,6.88-2.62c0.97,0,1.84,0.16,2.6,0.48
	c0.76,0.32,1.41,0.76,1.94,1.32c0.53,0.57,0.93,1.24,1.2,2.03c0.27,0.79,0.41,1.65,0.41,2.58v10.46h-1.81
	c-0.38,0-0.67-0.06-0.87-0.17c-0.2-0.11-0.37-0.34-0.48-0.69l-0.36-1.19c-0.42,0.38-0.83,0.71-1.23,0.99
	c-0.4,0.29-0.81,0.52-1.24,0.72c-0.43,0.19-0.89,0.34-1.38,0.44c-0.49,0.1-1.03,0.15-1.62,0.15c-0.7,0-1.35-0.09-1.94-0.28
	c-0.59-0.19-1.1-0.47-1.53-0.85c-0.43-0.38-0.76-0.84-1-1.4c-0.24-0.56-0.36-1.21-0.36-1.95c0-0.42,0.07-0.84,0.21-1.25
	c0.14-0.41,0.37-0.81,0.69-1.19c0.32-0.38,0.73-0.73,1.24-1.07c0.51-0.33,1.13-0.62,1.87-0.87c0.74-0.25,1.6-0.45,2.58-0.61
	c0.98-0.16,2.1-0.25,3.36-0.28v-0.97c0-1.11-0.24-1.93-0.71-2.46c-0.47-0.53-1.16-0.8-2.05-0.8c-0.65,0-1.18,0.08-1.61,0.23
	c-0.43,0.15-0.8,0.32-1.12,0.51c-0.32,0.19-0.62,0.36-0.88,0.51c-0.26,0.15-0.56,0.23-0.88,0.23c-0.28,0-0.52-0.07-0.71-0.22
	c-0.19-0.15-0.35-0.31-0.47-0.51L364.55,157.67z M373.69,164.86c-1.15,0.05-2.12,0.15-2.91,0.3c-0.79,0.15-1.42,0.33-1.89,0.56
	c-0.47,0.23-0.81,0.49-1.02,0.79c-0.2,0.3-0.31,0.63-0.31,0.99c0,0.7,0.21,1.2,0.62,1.5c0.41,0.3,0.96,0.45,1.62,0.45
	c0.82,0,1.53-0.15,2.12-0.44c0.6-0.3,1.18-0.75,1.75-1.35V164.86z M395.55,155.36l-6.57,16.57h-3.62l-6.57-16.57h3.29
	c0.3,0,0.55,0.07,0.75,0.21c0.2,0.14,0.33,0.32,0.4,0.53l3.2,8.85c0.17,0.52,0.32,1.02,0.45,1.52c0.13,0.5,0.24,0.99,0.34,1.49
	c0.11-0.5,0.23-0.99,0.36-1.49c0.13-0.5,0.29-1,0.47-1.52l3.26-8.85c0.08-0.22,0.21-0.39,0.4-0.53c0.19-0.14,0.43-0.21,0.69-0.21
	H395.55z M399.89,164.15c0.06,0.85,0.22,1.59,0.45,2.2c0.24,0.62,0.55,1.13,0.94,1.53c0.39,0.4,0.85,0.71,1.38,0.9
	c0.53,0.2,1.12,0.3,1.77,0.3c0.65,0,1.2-0.08,1.67-0.23c0.47-0.15,0.88-0.32,1.23-0.5c0.35-0.18,0.66-0.35,0.92-0.5
	c0.26-0.15,0.52-0.23,0.77-0.23c0.33,0,0.58,0.12,0.74,0.37l1.15,1.45c-0.44,0.52-0.94,0.95-1.49,1.3
	c-0.55,0.35-1.12,0.63-1.72,0.84c-0.6,0.21-1.21,0.36-1.82,0.44c-0.62,0.09-1.22,0.13-1.8,0.13c-1.15,0-2.22-0.19-3.21-0.57
	c-0.99-0.38-1.85-0.95-2.58-1.7c-0.73-0.75-1.31-1.67-1.73-2.78c-0.42-1.1-0.63-2.38-0.63-3.84c0-1.13,0.18-2.19,0.55-3.19
	c0.37-1,0.89-1.86,1.57-2.6c0.68-0.74,1.52-1.32,2.5-1.75c0.98-0.43,2.1-0.65,3.33-0.65c1.04,0,2.01,0.17,2.89,0.5
	c0.88,0.33,1.64,0.82,2.28,1.46c0.64,0.64,1.13,1.43,1.49,2.36c0.36,0.93,0.54,1.99,0.54,3.19c0,0.6-0.06,1.01-0.19,1.22
	c-0.13,0.21-0.38,0.31-0.74,0.31H399.89z M407.5,161.74c0-0.52-0.07-1-0.22-1.46c-0.15-0.46-0.36-0.86-0.65-1.2
	c-0.29-0.34-0.66-0.62-1.11-0.82c-0.45-0.2-0.97-0.3-1.56-0.3c-1.15,0-2.06,0.33-2.72,0.99c-0.66,0.66-1.08,1.59-1.27,2.79H407.5z"
	/>
<polygon class="st1" points="425,176.95 422.13,174.08 432.38,163.83 422.13,153.58 425,150.71 438.12,163.83 "/>
</svg>
