<?xml version="1.0" encoding="utf-8"?>
<!-- Generator: Adobe Illustrator 24.1.0, SVG Export Plug-In . SVG Version: 6.00 Build 0)  -->
<svg version="1.1" id="Layer_1" xmlns="http://www.w3.org/2000/svg" xmlns:xlink="http://www.w3.org/1999/xlink" x="0px" y="0px"
	 viewBox="0 0 460.2 200.02" style="enable-background:new 0 0 460.2 200.02;" xml:space="preserve">
<style type="text/css">
	.st0{fill:#337092;}
	.st1{fill:#EFBB50;}
</style>
<path class="st0" d="M11.99,0C5.37,0,0,5.37,0,11.99v176.04c0,6.62,5.37,11.99,11.99,11.99H448.2c6.62,0,11.99-5.37,11.99-11.99
	V11.99C460.2,5.37,454.83,0,448.2,0H11.99z"/>
<path class="st1" d="M107.77,160.95v9.45c-1.18,0.87-2.45,1.51-3.79,1.91c-1.34,0.4-2.77,0.61-4.3,0.61c-1.91,0-3.63-0.3-5.18-0.89
	c-1.54-0.59-2.86-1.42-3.96-2.47c-1.09-1.05-1.94-2.31-2.53-3.78c-0.59-1.46-0.89-3.06-0.89-4.8c0-1.75,0.29-3.36,0.86-4.83
	c0.57-1.46,1.38-2.72,2.43-3.78c1.05-1.05,2.32-1.87,3.82-2.45c1.5-0.58,3.18-0.87,5.04-0.87c0.95,0,1.83,0.08,2.66,0.23
	c0.82,0.15,1.59,0.36,2.29,0.62c0.7,0.26,1.35,0.58,1.93,0.96c0.58,0.38,1.11,0.79,1.6,1.24l-1.24,1.97
	c-0.19,0.31-0.45,0.5-0.76,0.57c-0.31,0.07-0.65-0.01-1.02-0.23c-0.36-0.2-0.71-0.41-1.07-0.61c-0.36-0.2-0.75-0.38-1.19-0.53
	c-0.44-0.15-0.93-0.27-1.47-0.37c-0.54-0.1-1.17-0.15-1.88-0.15c-1.15,0-2.19,0.19-3.12,0.58c-0.93,0.39-1.73,0.94-2.38,1.66
	c-0.66,0.72-1.16,1.59-1.52,2.6c-0.36,1.01-0.53,2.14-0.53,3.39c0,1.33,0.19,2.53,0.57,3.58c0.38,1.05,0.92,1.94,1.61,2.66
	c0.69,0.73,1.53,1.28,2.51,1.66c0.98,0.38,2.07,0.57,3.28,0.57c0.86,0,1.63-0.09,2.31-0.27c0.68-0.18,1.34-0.43,1.99-0.74v-4.23
	h-2.94c-0.28,0-0.5-0.08-0.65-0.23c-0.16-0.16-0.23-0.35-0.23-0.57v-2.45H107.77z M113.89,164.88c0.06,0.85,0.22,1.59,0.45,2.2
	c0.24,0.62,0.55,1.13,0.94,1.53c0.39,0.4,0.85,0.71,1.38,0.9c0.53,0.2,1.12,0.3,1.77,0.3c0.65,0,1.2-0.08,1.67-0.23
	c0.47-0.15,0.88-0.32,1.23-0.5c0.35-0.18,0.66-0.35,0.92-0.5c0.26-0.15,0.52-0.23,0.77-0.23c0.33,0,0.58,0.12,0.74,0.37l1.15,1.45
	c-0.44,0.52-0.94,0.95-1.49,1.3c-0.55,0.35-1.12,0.63-1.72,0.84c-0.6,0.21-1.21,0.36-1.82,0.44c-0.62,0.09-1.22,0.13-1.8,0.13
	c-1.15,0-2.22-0.19-3.21-0.57c-0.99-0.38-1.85-0.95-2.58-1.7c-0.73-0.75-1.31-1.67-1.73-2.78c-0.42-1.1-0.63-2.38-0.63-3.84
	c0-1.13,0.18-2.19,0.55-3.19c0.37-1,0.89-1.86,1.57-2.6c0.68-0.74,1.52-1.32,2.5-1.75c0.99-0.43,2.1-0.65,3.33-0.65
	c1.04,0,2.01,0.17,2.89,0.5c0.88,0.33,1.64,0.82,2.28,1.46c0.64,0.64,1.13,1.43,1.49,2.36c0.36,0.93,0.54,1.99,0.54,3.19
	c0,0.6-0.06,1.01-0.19,1.22c-0.13,0.21-0.38,0.31-0.74,0.31H113.89z M121.5,162.47c0-0.52-0.07-1-0.22-1.46
	c-0.15-0.46-0.36-0.86-0.65-1.2c-0.29-0.34-0.66-0.62-1.11-0.82c-0.45-0.2-0.97-0.3-1.56-0.3c-1.15,0-2.06,0.33-2.72,0.99
	c-0.66,0.66-1.08,1.59-1.27,2.79H121.5z M133.11,172.92c-1.44,0-2.55-0.41-3.32-1.22c-0.77-0.81-1.15-1.93-1.15-3.37v-9.25h-1.7
	c-0.22,0-0.4-0.07-0.55-0.21c-0.15-0.14-0.23-0.35-0.23-0.63v-1.58l2.66-0.44l0.84-4.52c0.05-0.22,0.16-0.38,0.31-0.5
	c0.15-0.12,0.34-0.18,0.58-0.18h2.07v5.22h4.42v2.84h-4.42v8.98c0,0.52,0.13,0.92,0.38,1.21c0.25,0.29,0.6,0.44,1.04,0.44
	c0.25,0,0.45-0.03,0.62-0.09c0.17-0.06,0.31-0.12,0.44-0.19c0.12-0.06,0.23-0.13,0.33-0.19c0.1-0.06,0.19-0.09,0.29-0.09
	c0.12,0,0.22,0.03,0.29,0.09c0.08,0.06,0.16,0.15,0.24,0.27l1.19,1.94c-0.58,0.48-1.25,0.85-2,1.1
	C134.69,172.8,133.91,172.92,133.11,172.92z M168.16,160.99c0,1.71-0.29,3.28-0.86,4.72c-0.57,1.43-1.37,2.66-2.41,3.7
	c-1.03,1.03-2.28,1.84-3.73,2.41c-1.45,0.57-3.07,0.86-4.84,0.86h-8.9v-23.35h8.9c1.78,0,3.39,0.29,4.84,0.86
	c1.45,0.58,2.7,1.38,3.73,2.41c1.03,1.03,1.84,2.26,2.41,3.69C167.88,157.7,168.16,159.27,168.16,160.99z M163.71,160.99
	c0-1.28-0.17-2.43-0.51-3.45c-0.34-1.02-0.83-1.88-1.47-2.58c-0.64-0.7-1.42-1.25-2.33-1.62c-0.91-0.38-1.94-0.57-3.08-0.57h-4.54
	v16.44h4.54c1.14,0,2.17-0.19,3.08-0.57c0.91-0.38,1.68-0.92,2.33-1.62c0.64-0.7,1.13-1.57,1.47-2.58
	C163.54,163.42,163.71,162.27,163.71,160.99z M178.16,155.83c1.23,0,2.34,0.2,3.35,0.6c1.01,0.4,1.87,0.96,2.58,1.7
	c0.72,0.73,1.27,1.63,1.66,2.68c0.39,1.06,0.58,2.23,0.58,3.54c0,1.31-0.19,2.5-0.58,3.55c-0.39,1.06-0.94,1.95-1.66,2.7
	c-0.72,0.74-1.58,1.31-2.58,1.71c-1.01,0.4-2.12,0.6-3.35,0.6c-1.24,0-2.36-0.2-3.37-0.6c-1.01-0.4-1.88-0.97-2.59-1.71
	c-0.72-0.74-1.27-1.64-1.66-2.7c-0.39-1.05-0.59-2.24-0.59-3.55c0-1.3,0.2-2.48,0.59-3.54c0.39-1.05,0.95-1.95,1.66-2.68
	c0.72-0.73,1.58-1.3,2.59-1.7C175.8,156.03,176.92,155.83,178.16,155.83z M178.16,169.84c1.38,0,2.4-0.46,3.06-1.39
	c0.66-0.93,0.99-2.28,0.99-4.07c0-1.79-0.33-3.15-0.99-4.09c-0.66-0.94-1.68-1.4-3.06-1.4c-1.4,0-2.44,0.47-3.11,1.41
	c-0.67,0.94-1.01,2.3-1.01,4.08s0.34,3.13,1.01,4.06C175.72,169.37,176.76,169.84,178.16,169.84z M199.15,159.32
	c-0.11,0.17-0.22,0.29-0.34,0.36c-0.12,0.07-0.27,0.1-0.45,0.1c-0.19,0-0.4-0.05-0.62-0.16c-0.22-0.11-0.48-0.23-0.77-0.36
	c-0.29-0.13-0.62-0.26-0.99-0.36c-0.37-0.11-0.81-0.16-1.32-0.16c-0.79,0-1.4,0.17-1.85,0.5c-0.45,0.33-0.67,0.77-0.67,1.31
	c0,0.36,0.12,0.65,0.35,0.9c0.23,0.24,0.54,0.45,0.92,0.64c0.38,0.18,0.82,0.35,1.3,0.49c0.48,0.15,0.98,0.3,1.48,0.48
	c0.5,0.17,0.99,0.37,1.48,0.59c0.48,0.22,0.92,0.5,1.3,0.84c0.38,0.34,0.69,0.75,0.92,1.22c0.23,0.47,0.35,1.04,0.35,1.71
	c0,0.8-0.14,1.53-0.43,2.2c-0.29,0.67-0.71,1.25-1.27,1.74c-0.56,0.49-1.25,0.87-2.07,1.15c-0.82,0.27-1.77,0.41-2.85,0.41
	c-0.57,0-1.13-0.05-1.67-0.15c-0.54-0.1-1.07-0.24-1.57-0.43c-0.5-0.18-0.96-0.4-1.39-0.65c-0.43-0.25-0.8-0.52-1.12-0.81l0.92-1.52
	c0.12-0.18,0.26-0.32,0.42-0.42c0.16-0.1,0.37-0.15,0.61-0.15c0.25,0,0.48,0.07,0.7,0.21c0.22,0.14,0.48,0.29,0.77,0.45
	c0.29,0.16,0.63,0.31,1.03,0.45c0.39,0.14,0.89,0.21,1.49,0.21c0.47,0,0.88-0.06,1.22-0.17c0.34-0.11,0.62-0.26,0.84-0.44
	c0.22-0.18,0.38-0.4,0.48-0.64c0.1-0.24,0.15-0.49,0.15-0.75c0-0.39-0.12-0.7-0.35-0.95c-0.23-0.25-0.54-0.46-0.92-0.65
	c-0.38-0.18-0.82-0.35-1.31-0.49c-0.49-0.15-0.99-0.3-1.5-0.48c-0.51-0.17-1.01-0.37-1.5-0.61c-0.49-0.23-0.93-0.52-1.31-0.88
	c-0.38-0.36-0.69-0.79-0.92-1.31c-0.23-0.52-0.35-1.14-0.35-1.87c0-0.68,0.13-1.32,0.4-1.94c0.27-0.61,0.66-1.15,1.19-1.61
	c0.52-0.46,1.17-0.82,1.95-1.1c0.78-0.27,1.68-0.41,2.7-0.41c1.14,0,2.18,0.19,3.12,0.57c0.94,0.38,1.72,0.87,2.34,1.49
	L199.15,159.32z M207.58,151.27c0,0.34-0.07,0.67-0.21,0.97c-0.14,0.3-0.33,0.57-0.56,0.79c-0.23,0.23-0.5,0.41-0.82,0.54
	c-0.31,0.13-0.65,0.2-1,0.2c-0.34,0-0.67-0.07-0.98-0.2c-0.31-0.13-0.57-0.31-0.8-0.54c-0.23-0.23-0.41-0.49-0.54-0.79
	c-0.13-0.3-0.2-0.62-0.2-0.97c0-0.36,0.07-0.69,0.2-1c0.13-0.31,0.31-0.58,0.54-0.81c0.23-0.23,0.49-0.41,0.8-0.54
	c0.31-0.13,0.63-0.2,0.98-0.2c0.36,0,0.69,0.07,1,0.2c0.31,0.13,0.58,0.31,0.82,0.54c0.23,0.23,0.42,0.5,0.56,0.81
	C207.51,150.58,207.58,150.91,207.58,151.27z M207.03,156.09v16.57h-4v-16.57H207.03z M214.51,158.13c0.33-0.33,0.69-0.64,1.06-0.93
	c0.37-0.29,0.76-0.53,1.18-0.73c0.41-0.2,0.86-0.36,1.33-0.47c0.47-0.11,0.99-0.17,1.55-0.17c0.9,0,1.71,0.15,2.41,0.46
	c0.7,0.31,1.28,0.74,1.75,1.29c0.47,0.55,0.82,1.22,1.07,1.99c0.24,0.77,0.36,1.62,0.36,2.54v10.54h-3.99v-10.54
	c0-1.01-0.23-1.79-0.69-2.35c-0.46-0.55-1.17-0.83-2.12-0.83c-0.69,0-1.33,0.16-1.94,0.47c-0.6,0.31-1.17,0.74-1.71,1.28v11.98
	h-3.99v-16.57h2.44c0.52,0,0.86,0.24,1.02,0.73L214.51,158.13z M243.2,156.66v1.49c0,0.47-0.29,0.76-0.86,0.87l-1.49,0.27
	c0.23,0.57,0.34,1.19,0.34,1.87c0,0.82-0.16,1.56-0.49,2.22c-0.33,0.66-0.78,1.22-1.36,1.69c-0.58,0.46-1.27,0.82-2.06,1.07
	c-0.79,0.25-1.64,0.38-2.56,0.38c-0.32,0-0.64-0.02-0.94-0.05c-0.3-0.03-0.6-0.08-0.89-0.13c-0.52,0.31-0.78,0.66-0.78,1.05
	c0,0.33,0.15,0.58,0.46,0.73c0.31,0.16,0.71,0.27,1.22,0.33c0.51,0.06,1.08,0.1,1.73,0.12c0.65,0.02,1.31,0.05,1.99,0.1
	c0.68,0.05,1.34,0.15,1.99,0.28c0.65,0.13,1.22,0.35,1.73,0.64c0.51,0.29,0.91,0.69,1.22,1.19c0.31,0.5,0.46,1.14,0.46,1.93
	c0,0.73-0.18,1.44-0.54,2.13c-0.36,0.69-0.88,1.3-1.57,1.84c-0.68,0.54-1.52,0.97-2.52,1.3c-1,0.33-2.13,0.49-3.4,0.49
	c-1.25,0-2.34-0.12-3.26-0.36c-0.93-0.24-1.7-0.57-2.31-0.97c-0.61-0.4-1.07-0.87-1.37-1.4c-0.3-0.53-0.45-1.08-0.45-1.65
	c0-0.78,0.23-1.42,0.7-1.95c0.47-0.52,1.11-0.94,1.93-1.25c-0.44-0.23-0.79-0.53-1.05-0.9c-0.26-0.38-0.39-0.87-0.39-1.49
	c0-0.25,0.05-0.5,0.14-0.77c0.09-0.26,0.23-0.52,0.4-0.78c0.18-0.26,0.4-0.5,0.67-0.73c0.27-0.23,0.59-0.44,0.95-0.62
	c-0.84-0.45-1.5-1.05-1.98-1.81c-0.48-0.75-0.72-1.64-0.72-2.65c0-0.82,0.16-1.56,0.49-2.22c0.33-0.66,0.79-1.23,1.37-1.7
	c0.59-0.47,1.28-0.83,2.08-1.07c0.8-0.25,1.68-0.37,2.62-0.37c0.71,0,1.38,0.07,2,0.22c0.62,0.15,1.19,0.36,1.71,0.64H243.2z
	 M239.23,173.4c0-0.32-0.1-0.59-0.29-0.79c-0.19-0.2-0.46-0.36-0.79-0.48c-0.33-0.11-0.72-0.2-1.17-0.25
	c-0.45-0.05-0.92-0.09-1.42-0.12c-0.5-0.03-1.02-0.05-1.55-0.07c-0.53-0.02-1.05-0.06-1.56-0.13c-0.44,0.25-0.8,0.54-1.07,0.87
	s-0.41,0.72-0.41,1.16c0,0.29,0.07,0.56,0.22,0.82c0.15,0.25,0.38,0.47,0.69,0.65c0.32,0.18,0.73,0.33,1.24,0.43
	c0.51,0.1,1.12,0.15,1.86,0.15c0.74,0,1.38-0.06,1.92-0.17c0.54-0.11,0.98-0.27,1.33-0.47c0.35-0.2,0.61-0.44,0.77-0.71
	C239.15,174.03,239.23,173.73,239.23,173.4z M234.73,163.97c0.5,0,0.93-0.07,1.29-0.2c0.37-0.13,0.67-0.32,0.91-0.56
	c0.24-0.24,0.43-0.52,0.55-0.86c0.12-0.33,0.19-0.7,0.19-1.1c0-0.82-0.24-1.47-0.73-1.95c-0.49-0.48-1.22-0.72-2.2-0.72
	c-0.98,0-1.71,0.24-2.2,0.72c-0.49,0.48-0.73,1.13-0.73,1.95c0,0.39,0.06,0.75,0.19,1.08c0.12,0.33,0.31,0.62,0.55,0.86
	c0.24,0.24,0.55,0.43,0.92,0.57C233.81,163.91,234.24,163.97,234.73,163.97z M257.91,172.66h-4.36v-23.35h4.36V172.66z
	 M265.67,158.13c0.33-0.33,0.69-0.64,1.06-0.93c0.37-0.29,0.76-0.53,1.18-0.73c0.41-0.2,0.86-0.36,1.33-0.47
	c0.47-0.11,0.99-0.17,1.55-0.17c0.9,0,1.71,0.15,2.41,0.46c0.7,0.31,1.28,0.74,1.75,1.29c0.47,0.55,0.82,1.22,1.07,1.99
	c0.24,0.77,0.36,1.62,0.36,2.54v10.54h-3.99v-10.54c0-1.01-0.23-1.79-0.69-2.35c-0.46-0.55-1.17-0.83-2.12-0.83
	c-0.69,0-1.33,0.16-1.94,0.47c-0.6,0.31-1.17,0.74-1.71,1.28v11.98h-3.99v-16.57h2.44c0.52,0,0.86,0.24,1.02,0.73L265.67,158.13z
	 M280.7,172.66V159.1l-1.44-0.23c-0.31-0.06-0.56-0.17-0.75-0.33c-0.19-0.16-0.28-0.38-0.28-0.67v-1.63h2.47v-1.23
	c0-0.95,0.14-1.8,0.43-2.55c0.29-0.75,0.69-1.39,1.23-1.92c0.53-0.53,1.18-0.93,1.95-1.21c0.76-0.28,1.63-0.42,2.58-0.42
	c0.76,0,1.47,0.1,2.13,0.31l-0.08,2c-0.01,0.15-0.05,0.27-0.13,0.36c-0.08,0.09-0.18,0.16-0.3,0.21c-0.12,0.05-0.27,0.08-0.43,0.1
	c-0.16,0.02-0.33,0.02-0.52,0.02c-0.47,0-0.9,0.05-1.27,0.15c-0.37,0.1-0.69,0.28-0.94,0.53c-0.26,0.25-0.45,0.59-0.59,1
	c-0.13,0.41-0.2,0.93-0.2,1.54v1.1h4.31v2.84h-4.18v13.58H280.7z M297.69,155.83c1.23,0,2.34,0.2,3.35,0.6
	c1.01,0.4,1.87,0.96,2.58,1.7c0.72,0.73,1.27,1.63,1.66,2.68c0.39,1.06,0.58,2.23,0.58,3.54c0,1.31-0.19,2.5-0.58,3.55
	c-0.39,1.06-0.94,1.95-1.66,2.7c-0.72,0.74-1.58,1.31-2.58,1.71c-1.01,0.4-2.12,0.6-3.35,0.6c-1.24,0-2.36-0.2-3.37-0.6
	c-1.01-0.4-1.88-0.97-2.59-1.71c-0.72-0.74-1.27-1.64-1.66-2.7c-0.39-1.05-0.59-2.24-0.59-3.55c0-1.3,0.2-2.48,0.59-3.54
	c0.39-1.05,0.95-1.95,1.66-2.68c0.72-0.73,1.58-1.3,2.59-1.7C295.32,156.03,296.45,155.83,297.69,155.83z M297.69,169.84
	c1.38,0,2.4-0.46,3.06-1.39c0.66-0.93,0.99-2.28,0.99-4.07c0-1.79-0.33-3.15-0.99-4.09c-0.66-0.94-1.68-1.4-3.06-1.4
	c-1.4,0-2.44,0.47-3.11,1.41c-0.67,0.94-1.01,2.3-1.01,4.08s0.34,3.13,1.01,4.06C295.25,169.37,296.29,169.84,297.69,169.84z
	 M312.33,158.97c0.52-0.99,1.13-1.77,1.84-2.33c0.71-0.57,1.55-0.85,2.52-0.85c0.76,0,1.38,0.17,1.84,0.5l-0.26,2.99
	c-0.05,0.19-0.13,0.33-0.23,0.41c-0.1,0.08-0.24,0.12-0.41,0.12c-0.16,0-0.4-0.03-0.72-0.08c-0.32-0.05-0.63-0.08-0.93-0.08
	c-0.44,0-0.83,0.06-1.18,0.19c-0.34,0.13-0.65,0.31-0.93,0.56c-0.27,0.24-0.52,0.54-0.73,0.88c-0.21,0.34-0.41,0.74-0.59,1.18v10.21
	h-3.99v-16.57h2.34c0.41,0,0.69,0.07,0.86,0.22c0.16,0.15,0.27,0.41,0.32,0.78L312.33,158.97z M320.29,172.66v-16.57h2.44
	c0.52,0,0.86,0.24,1.02,0.73l0.26,1.23c0.29-0.32,0.59-0.62,0.91-0.89c0.32-0.27,0.66-0.5,1.02-0.69c0.36-0.19,0.75-0.35,1.16-0.46
	c0.41-0.11,0.87-0.17,1.36-0.17c1.04,0,1.9,0.28,2.58,0.85c0.67,0.57,1.18,1.32,1.51,2.25c0.26-0.55,0.58-1.02,0.97-1.41
	c0.39-0.39,0.81-0.71,1.28-0.96c0.46-0.25,0.96-0.43,1.48-0.55c0.52-0.12,1.05-0.18,1.57-0.18c0.91,0,1.73,0.14,2.44,0.42
	c0.71,0.28,1.31,0.69,1.79,1.23c0.48,0.54,0.85,1.19,1.11,1.97c0.25,0.78,0.38,1.66,0.38,2.66v10.54h-3.99v-10.54
	c0-1.05-0.23-1.85-0.69-2.38c-0.46-0.53-1.14-0.8-2.03-0.8c-0.41,0-0.79,0.07-1.14,0.21c-0.35,0.14-0.66,0.34-0.92,0.61
	c-0.26,0.26-0.47,0.59-0.62,0.99c-0.15,0.4-0.23,0.86-0.23,1.37v10.54h-4v-10.54c0-1.11-0.22-1.92-0.67-2.42
	c-0.45-0.51-1.1-0.76-1.96-0.76c-0.58,0-1.12,0.14-1.62,0.43c-0.5,0.29-0.97,0.68-1.4,1.17v12.13H320.29z M346.62,158.4
	c1.91-1.74,4.2-2.62,6.88-2.62c0.97,0,1.84,0.16,2.6,0.48c0.76,0.32,1.41,0.76,1.94,1.32c0.53,0.57,0.93,1.24,1.2,2.03
	c0.27,0.79,0.41,1.65,0.41,2.58v10.46h-1.81c-0.38,0-0.67-0.06-0.87-0.17c-0.2-0.11-0.37-0.34-0.48-0.69l-0.36-1.19
	c-0.42,0.38-0.83,0.71-1.23,0.99c-0.4,0.29-0.81,0.52-1.24,0.72c-0.43,0.19-0.89,0.34-1.38,0.44c-0.49,0.1-1.03,0.15-1.62,0.15
	c-0.7,0-1.35-0.09-1.94-0.28c-0.59-0.19-1.1-0.47-1.53-0.85c-0.43-0.38-0.76-0.84-1-1.4c-0.24-0.56-0.36-1.21-0.36-1.95
	c0-0.42,0.07-0.84,0.21-1.25c0.14-0.41,0.37-0.81,0.69-1.19c0.32-0.38,0.73-0.73,1.24-1.07c0.51-0.33,1.13-0.62,1.87-0.87
	c0.74-0.25,1.6-0.45,2.58-0.61c0.98-0.16,2.1-0.25,3.36-0.28v-0.97c0-1.11-0.24-1.93-0.71-2.46c-0.47-0.53-1.16-0.8-2.05-0.8
	c-0.65,0-1.18,0.08-1.61,0.23c-0.43,0.15-0.8,0.32-1.12,0.51c-0.32,0.19-0.62,0.36-0.88,0.51c-0.26,0.15-0.56,0.23-0.88,0.23
	c-0.28,0-0.52-0.07-0.71-0.22c-0.19-0.15-0.35-0.31-0.47-0.51L346.62,158.4z M355.76,165.59c-1.15,0.05-2.12,0.15-2.91,0.3
	c-0.79,0.15-1.42,0.33-1.89,0.56c-0.47,0.23-0.81,0.49-1.02,0.79c-0.2,0.3-0.31,0.63-0.31,0.99c0,0.7,0.21,1.2,0.62,1.5
	c0.41,0.3,0.96,0.45,1.62,0.45c0.82,0,1.53-0.15,2.12-0.44c0.6-0.3,1.18-0.75,1.75-1.35V165.59z M379.56,172.66h-3.99v-13.58h-7.69
	v8.98c0,0.52,0.13,0.92,0.38,1.21c0.25,0.29,0.6,0.44,1.04,0.44c0.25,0,0.45-0.03,0.62-0.09c0.17-0.06,0.31-0.12,0.44-0.19
	c0.12-0.06,0.23-0.13,0.33-0.19c0.1-0.06,0.19-0.09,0.29-0.09c0.12,0,0.22,0.03,0.29,0.09c0.08,0.06,0.16,0.15,0.24,0.27l1.19,1.94
	c-0.58,0.48-1.25,0.85-2,1.1c-0.75,0.25-1.53,0.37-2.34,0.37c-1.44,0-2.55-0.41-3.32-1.22c-0.77-0.81-1.15-1.93-1.15-3.37v-9.25
	h-1.7c-0.22,0-0.4-0.07-0.55-0.21c-0.15-0.14-0.23-0.35-0.23-0.63v-1.58l2.66-0.45l0.84-4.51c0.05-0.22,0.16-0.38,0.31-0.5
	c0.15-0.12,0.34-0.18,0.58-0.18h2.07v5.22h11.67V172.66z M380.25,151.2c0,0.34-0.07,0.67-0.21,0.98c-0.14,0.31-0.33,0.57-0.56,0.8
	c-0.23,0.23-0.51,0.41-0.82,0.54c-0.32,0.13-0.65,0.2-1.01,0.2c-0.34,0-0.67-0.07-0.97-0.2c-0.3-0.13-0.57-0.31-0.79-0.54
	c-0.23-0.23-0.41-0.49-0.54-0.8c-0.13-0.31-0.2-0.63-0.2-0.98c0-0.36,0.07-0.69,0.2-0.99c0.13-0.31,0.31-0.58,0.54-0.81
	c0.23-0.23,0.49-0.41,0.79-0.55c0.3-0.13,0.62-0.2,0.97-0.2c0.36,0,0.69,0.07,1.01,0.2c0.32,0.13,0.59,0.32,0.82,0.55
	c0.23,0.23,0.42,0.5,0.56,0.81C380.18,150.51,380.25,150.85,380.25,151.2z M390.62,155.83c1.23,0,2.34,0.2,3.35,0.6
	c1.01,0.4,1.87,0.96,2.58,1.7c0.72,0.73,1.27,1.63,1.66,2.68c0.39,1.06,0.58,2.23,0.58,3.54c0,1.31-0.19,2.5-0.58,3.55
	c-0.39,1.06-0.94,1.95-1.66,2.7c-0.72,0.74-1.58,1.31-2.58,1.71c-1.01,0.4-2.12,0.6-3.35,0.6c-1.24,0-2.36-0.2-3.37-0.6
	c-1.01-0.4-1.88-0.97-2.59-1.71c-0.72-0.74-1.27-1.64-1.66-2.7c-0.39-1.05-0.59-2.24-0.59-3.55c0-1.3,0.2-2.48,0.59-3.54
	c0.39-1.05,0.95-1.95,1.66-2.68c0.72-0.73,1.58-1.3,2.59-1.7C388.26,156.03,389.38,155.83,390.62,155.83z M390.62,169.84
	c1.38,0,2.4-0.46,3.06-1.39c0.66-0.93,0.99-2.28,0.99-4.07c0-1.79-0.33-3.15-0.99-4.09c-0.66-0.94-1.68-1.4-3.06-1.4
	c-1.4,0-2.44,0.47-3.11,1.41c-0.67,0.94-1.01,2.3-1.01,4.08s0.34,3.13,1.01,4.06C388.18,169.37,389.22,169.84,390.62,169.84z
	 M405.23,158.13c0.33-0.33,0.69-0.64,1.06-0.93c0.37-0.29,0.76-0.53,1.18-0.73c0.41-0.2,0.86-0.36,1.33-0.47
	c0.47-0.11,0.99-0.17,1.55-0.17c0.9,0,1.71,0.15,2.41,0.46c0.7,0.31,1.28,0.74,1.75,1.29c0.47,0.55,0.82,1.22,1.07,1.99
	c0.24,0.77,0.36,1.62,0.36,2.54v10.54h-3.99v-10.54c0-1.01-0.23-1.79-0.69-2.35c-0.46-0.55-1.17-0.83-2.12-0.83
	c-0.69,0-1.33,0.16-1.94,0.47c-0.6,0.31-1.17,0.74-1.71,1.28v11.98h-3.99v-16.57h2.44c0.52,0,0.86,0.24,1.02,0.73L405.23,158.13z"/>
<polygon class="st1" points="434.69,176.95 431.82,174.08 442.07,163.83 431.82,153.58 434.69,150.71 447.82,163.83 "/>
<path class="st1" d="M60.89,89.91c-16.98,0-30.79-13.81-30.79-30.79c0-16.98,13.81-30.79,30.79-30.79s30.79,13.81,30.79,30.79
	C91.68,76.1,77.87,89.91,60.89,89.91z M60.89,33.13c-14.33,0-25.99,11.66-25.99,25.99c0,14.33,11.66,25.99,25.99,25.99
	s25.99-11.66,25.99-25.99C86.87,44.79,75.21,33.13,60.89,33.13z"/>
<rect x="58.71" y="46.58" class="st1" width="5.92" height="26.14"/>
<rect x="52.37" y="48.61" transform="matrix(0.7072 -0.707 0.707 0.7072 -19.6377 55.735)" class="st1" width="10.19" height="5.92"/>
</svg>
