<?xml version="1.0" encoding="utf-8"?>
<!-- Generator: Adobe Illustrator 24.1.0, SVG Export Plug-In . SVG Version: 6.00 Build 0)  -->
<svg version="1.1" id="Layer_1" xmlns="http://www.w3.org/2000/svg" xmlns:xlink="http://www.w3.org/1999/xlink" x="0px" y="0px"
	 viewBox="0 0 460.2 200.02" style="enable-background:new 0 0 460.2 200.02;" xml:space="preserve">
<style type="text/css">
	.st0{fill:#337092;}
	.st1{fill:#EFBB50;}
</style>
<path class="st0" d="M11.99,0C5.37,0,0,5.37,0,11.99v176.04c0,6.62,5.37,11.99,11.99,11.99H448.2c6.62,0,11.99-5.37,11.99-11.99
	V11.99C460.2,5.37,454.83,0,448.2,0H11.99z"/>
<g>
	<path class="st1" d="M148.16,133.92v3.58h-13.68v-23.35h4.34v19.77H148.16z"/>
	<path class="st1" d="M152.57,129.72c0.06,0.85,0.21,1.58,0.45,2.2c0.24,0.62,0.55,1.13,0.94,1.53c0.39,0.4,0.85,0.71,1.38,0.9
		s1.12,0.3,1.77,0.3c0.65,0,1.2-0.08,1.67-0.23c0.47-0.15,0.88-0.32,1.23-0.5c0.35-0.18,0.66-0.35,0.92-0.5s0.52-0.23,0.77-0.23
		c0.33,0,0.58,0.12,0.74,0.37l1.15,1.45c-0.44,0.52-0.94,0.95-1.49,1.3s-1.12,0.63-1.72,0.84s-1.21,0.36-1.83,0.44
		c-0.62,0.09-1.22,0.13-1.8,0.13c-1.15,0-2.22-0.19-3.21-0.57s-1.85-0.95-2.58-1.7c-0.73-0.75-1.31-1.67-1.73-2.78
		c-0.42-1.1-0.63-2.38-0.63-3.83c0-1.13,0.18-2.19,0.55-3.19c0.37-1,0.89-1.86,1.57-2.6c0.68-0.74,1.52-1.32,2.5-1.75
		c0.98-0.43,2.1-0.65,3.33-0.65c1.04,0,2.01,0.17,2.89,0.5c0.88,0.33,1.64,0.82,2.28,1.46c0.63,0.64,1.13,1.43,1.49,2.36
		c0.36,0.93,0.54,1.99,0.54,3.19c0,0.6-0.06,1.01-0.19,1.22c-0.13,0.21-0.38,0.32-0.74,0.32H152.57z M160.17,127.31
		c0-0.52-0.07-1-0.22-1.46c-0.15-0.46-0.36-0.86-0.65-1.2c-0.29-0.34-0.66-0.62-1.11-0.82c-0.45-0.2-0.97-0.3-1.56-0.3
		c-1.15,0-2.06,0.33-2.72,0.98c-0.66,0.66-1.08,1.59-1.27,2.79H160.17z"/>
	<path class="st1" d="M166.07,123.24c1.91-1.74,4.2-2.62,6.88-2.62c0.97,0,1.83,0.16,2.6,0.48c0.76,0.32,1.41,0.76,1.94,1.32
		s0.93,1.24,1.2,2.03c0.27,0.79,0.41,1.65,0.41,2.58v10.46h-1.81c-0.38,0-0.67-0.06-0.87-0.17c-0.21-0.11-0.37-0.34-0.48-0.69
		l-0.36-1.19c-0.42,0.38-0.83,0.71-1.23,0.99s-0.81,0.52-1.24,0.72c-0.43,0.19-0.89,0.34-1.38,0.44s-1.03,0.15-1.62,0.15
		c-0.7,0-1.35-0.09-1.94-0.28s-1.1-0.47-1.53-0.85s-0.76-0.84-1-1.41c-0.24-0.56-0.36-1.21-0.36-1.95c0-0.42,0.07-0.84,0.21-1.25
		s0.37-0.81,0.69-1.19s0.73-0.73,1.24-1.07c0.51-0.33,1.13-0.62,1.87-0.87c0.74-0.25,1.6-0.45,2.58-0.61
		c0.98-0.16,2.1-0.25,3.36-0.28v-0.97c0-1.11-0.24-1.93-0.71-2.46s-1.16-0.8-2.05-0.8c-0.65,0-1.18,0.08-1.61,0.23
		c-0.43,0.15-0.8,0.32-1.12,0.51c-0.32,0.19-0.62,0.36-0.88,0.51s-0.56,0.23-0.88,0.23c-0.28,0-0.52-0.07-0.71-0.22
		c-0.19-0.15-0.35-0.31-0.47-0.51L166.07,123.24z M175.21,130.43c-1.15,0.05-2.12,0.15-2.91,0.3s-1.42,0.33-1.89,0.56
		c-0.47,0.23-0.81,0.49-1.02,0.79c-0.21,0.3-0.31,0.63-0.31,0.98c0,0.7,0.21,1.2,0.62,1.5c0.41,0.3,0.96,0.45,1.62,0.45
		c0.82,0,1.53-0.15,2.12-0.44c0.6-0.3,1.18-0.75,1.75-1.35V130.43z"/>
	<path class="st1" d="M186.28,123.81c0.52-0.99,1.13-1.77,1.84-2.33c0.71-0.56,1.55-0.85,2.52-0.85c0.76,0,1.38,0.17,1.84,0.5
		l-0.26,2.99c-0.05,0.19-0.13,0.33-0.23,0.41c-0.1,0.08-0.24,0.12-0.41,0.12c-0.16,0-0.4-0.03-0.72-0.08s-0.63-0.08-0.93-0.08
		c-0.44,0-0.83,0.06-1.18,0.19c-0.34,0.13-0.65,0.31-0.93,0.56s-0.52,0.54-0.73,0.88c-0.21,0.34-0.41,0.74-0.59,1.18v10.21h-3.99
		v-16.57h2.34c0.41,0,0.69,0.07,0.86,0.22c0.16,0.14,0.27,0.41,0.32,0.78L186.28,123.81z"/>
	<path class="st1" d="M198,122.97c0.33-0.33,0.69-0.64,1.06-0.93s0.76-0.53,1.18-0.73s0.86-0.36,1.33-0.47
		c0.47-0.11,0.99-0.17,1.55-0.17c0.9,0,1.71,0.15,2.41,0.46c0.7,0.31,1.28,0.74,1.75,1.29c0.47,0.55,0.82,1.22,1.07,1.99
		s0.36,1.62,0.36,2.54v10.54h-3.99v-10.54c0-1.01-0.23-1.79-0.69-2.35c-0.46-0.55-1.17-0.83-2.12-0.83c-0.69,0-1.33,0.16-1.94,0.47
		c-0.6,0.31-1.17,0.74-1.71,1.28v11.98h-3.99v-16.57h2.44c0.52,0,0.86,0.24,1.02,0.73L198,122.97z"/>
	<path class="st1" d="M239.3,137.5h-3.36c-0.38,0-0.68-0.09-0.92-0.28c-0.24-0.19-0.42-0.42-0.53-0.7l-1.74-4.76h-9.67l-1.74,4.76
		c-0.09,0.25-0.25,0.47-0.5,0.68c-0.25,0.2-0.55,0.31-0.92,0.31h-3.39l9.19-23.35h4.42L239.3,137.5z M231.62,128.68l-2.84-7.77
		c-0.14-0.34-0.29-0.75-0.44-1.23c-0.15-0.47-0.3-0.99-0.45-1.53c-0.14,0.55-0.29,1.06-0.44,1.54c-0.15,0.48-0.3,0.9-0.44,1.25
		l-2.83,7.73H231.62z"/>
	<path class="st1" d="M244.75,122.97c0.67-0.7,1.41-1.26,2.22-1.67c0.81-0.41,1.74-0.62,2.79-0.62c0.96,0,1.82,0.19,2.59,0.57
		c0.77,0.38,1.43,0.92,1.97,1.62c0.54,0.71,0.96,1.56,1.25,2.56c0.29,1,0.44,2.13,0.44,3.37c0,1.35-0.17,2.57-0.5,3.67
		c-0.33,1.1-0.81,2.04-1.43,2.82c-0.62,0.78-1.36,1.39-2.24,1.82c-0.87,0.43-1.84,0.65-2.91,0.65c-0.52,0-0.98-0.05-1.4-0.15
		c-0.42-0.1-0.81-0.25-1.16-0.43c-0.36-0.18-0.68-0.41-0.98-0.67c-0.3-0.26-0.58-0.56-0.85-0.88l-0.18,1.11
		c-0.06,0.28-0.18,0.48-0.33,0.6c-0.16,0.12-0.37,0.18-0.64,0.18h-2.63v-24h3.99V122.97z M244.75,133.21
		c0.45,0.55,0.94,0.94,1.48,1.16c0.53,0.23,1.09,0.34,1.69,0.34c0.61,0,1.17-0.11,1.65-0.33c0.49-0.22,0.91-0.57,1.25-1.03
		c0.34-0.47,0.61-1.07,0.79-1.79c0.18-0.73,0.27-1.6,0.27-2.61c0-1.82-0.3-3.14-0.9-3.95c-0.6-0.81-1.47-1.22-2.6-1.22
		c-0.76,0-1.43,0.17-2,0.52c-0.57,0.35-1.11,0.84-1.63,1.48V133.21z"/>
	<path class="st1" d="M266.1,120.68c1.23,0,2.34,0.2,3.35,0.6c1.01,0.4,1.87,0.96,2.58,1.7s1.27,1.62,1.66,2.68
		c0.39,1.05,0.58,2.23,0.58,3.54c0,1.31-0.19,2.5-0.58,3.55s-0.94,1.95-1.66,2.7c-0.72,0.74-1.58,1.31-2.58,1.71
		c-1.01,0.4-2.12,0.6-3.35,0.6c-1.24,0-2.36-0.2-3.37-0.6c-1.01-0.4-1.88-0.97-2.59-1.71c-0.72-0.74-1.27-1.64-1.66-2.7
		c-0.39-1.05-0.59-2.24-0.59-3.55c0-1.3,0.2-2.48,0.59-3.54c0.39-1.06,0.95-1.95,1.66-2.68c0.72-0.73,1.58-1.3,2.59-1.7
		C263.74,120.87,264.86,120.68,266.1,120.68z M266.1,134.68c1.38,0,2.4-0.46,3.06-1.39s0.99-2.28,0.99-4.07
		c0-1.79-0.33-3.15-0.99-4.08s-1.68-1.41-3.06-1.41c-1.4,0-2.44,0.47-3.11,1.41s-1.01,2.3-1.01,4.08c0,1.78,0.34,3.13,1.01,4.06
		C263.66,134.21,264.7,134.68,266.1,134.68z"/>
	<path class="st1" d="M291.27,120.93v16.57h-2.44c-0.53,0-0.86-0.24-1-0.73l-0.27-1.32c-0.68,0.69-1.43,1.25-2.25,1.67
		c-0.82,0.43-1.78,0.64-2.89,0.64c-0.9,0-1.7-0.15-2.4-0.46s-1.28-0.74-1.75-1.3c-0.47-0.56-0.83-1.22-1.07-1.99
		s-0.36-1.62-0.36-2.54v-10.53h3.99v10.53c0,1.01,0.23,1.8,0.7,2.35c0.47,0.55,1.17,0.83,2.11,0.83c0.69,0,1.33-0.15,1.94-0.46
		c0.6-0.31,1.17-0.73,1.71-1.27v-11.98H291.27z"/>
	<path class="st1" d="M300.45,137.76c-1.44,0-2.55-0.41-3.32-1.22s-1.15-1.94-1.15-3.37v-9.25h-1.7c-0.22,0-0.4-0.07-0.55-0.21
		c-0.15-0.14-0.23-0.35-0.23-0.63v-1.58l2.67-0.44l0.84-4.52c0.05-0.22,0.16-0.38,0.31-0.5c0.15-0.12,0.34-0.18,0.58-0.18h2.07v5.22
		h4.42v2.84h-4.42v8.98c0,0.52,0.13,0.92,0.38,1.21c0.25,0.29,0.6,0.44,1.04,0.44c0.25,0,0.45-0.03,0.62-0.09s0.31-0.12,0.44-0.19
		c0.12-0.06,0.23-0.13,0.33-0.19c0.1-0.06,0.19-0.09,0.29-0.09c0.12,0,0.22,0.03,0.29,0.09c0.08,0.06,0.16,0.15,0.24,0.27l1.2,1.94
		c-0.58,0.48-1.25,0.85-2,1.1S301.25,137.76,300.45,137.76z"/>
	<path class="st1" d="M328.51,133.92v3.58h-13.68v-23.35h4.34v19.77H328.51z"/>
	<path class="st1" d="M330.27,123.24c1.91-1.74,4.2-2.62,6.88-2.62c0.97,0,1.83,0.16,2.6,0.48c0.76,0.32,1.41,0.76,1.94,1.32
		s0.93,1.24,1.2,2.03c0.27,0.79,0.41,1.65,0.41,2.58v10.46h-1.81c-0.38,0-0.67-0.06-0.87-0.17c-0.21-0.11-0.37-0.34-0.48-0.69
		l-0.36-1.19c-0.42,0.38-0.83,0.71-1.23,0.99s-0.81,0.52-1.24,0.72c-0.43,0.19-0.89,0.34-1.38,0.44s-1.03,0.15-1.62,0.15
		c-0.7,0-1.35-0.09-1.94-0.28s-1.1-0.47-1.53-0.85s-0.76-0.84-1-1.41c-0.24-0.56-0.36-1.21-0.36-1.95c0-0.42,0.07-0.84,0.21-1.25
		s0.37-0.81,0.69-1.19s0.73-0.73,1.24-1.07c0.51-0.33,1.13-0.62,1.87-0.87c0.74-0.25,1.6-0.45,2.58-0.61
		c0.98-0.16,2.1-0.25,3.36-0.28v-0.97c0-1.11-0.24-1.93-0.71-2.46s-1.16-0.8-2.05-0.8c-0.65,0-1.18,0.08-1.61,0.23
		c-0.43,0.15-0.8,0.32-1.12,0.51c-0.32,0.19-0.62,0.36-0.88,0.51s-0.56,0.23-0.88,0.23c-0.28,0-0.52-0.07-0.71-0.22
		c-0.19-0.15-0.35-0.31-0.47-0.51L330.27,123.24z M339.41,130.43c-1.15,0.05-2.12,0.15-2.91,0.3s-1.42,0.33-1.89,0.56
		c-0.47,0.23-0.81,0.49-1.02,0.79c-0.21,0.3-0.31,0.63-0.31,0.98c0,0.7,0.21,1.2,0.62,1.5c0.41,0.3,0.96,0.45,1.62,0.45
		c0.82,0,1.53-0.15,2.12-0.44c0.6-0.3,1.18-0.75,1.75-1.35V130.43z"/>
	<path class="st1" d="M358.59,124.44c-0.12,0.15-0.23,0.27-0.35,0.35c-0.11,0.09-0.28,0.13-0.49,0.13c-0.2,0-0.4-0.06-0.6-0.19
		c-0.19-0.12-0.42-0.26-0.69-0.42c-0.27-0.16-0.59-0.3-0.96-0.42c-0.37-0.12-0.83-0.19-1.38-0.19c-0.7,0-1.31,0.13-1.84,0.38
		c-0.53,0.25-0.97,0.62-1.32,1.09s-0.61,1.05-0.78,1.72c-0.17,0.67-0.26,1.43-0.26,2.29c0,0.88,0.09,1.67,0.28,2.36
		c0.19,0.69,0.46,1.27,0.82,1.74c0.36,0.47,0.79,0.82,1.29,1.07c0.51,0.24,1.08,0.36,1.71,0.36c0.64,0,1.15-0.08,1.54-0.23
		c0.39-0.16,0.72-0.33,0.99-0.52c0.27-0.19,0.5-0.36,0.7-0.52s0.42-0.23,0.67-0.23c0.32,0,0.57,0.12,0.73,0.37l1.15,1.45
		c-0.44,0.52-0.92,0.95-1.44,1.3c-0.52,0.35-1.05,0.63-1.61,0.84s-1.12,0.36-1.71,0.44c-0.59,0.09-1.17,0.13-1.75,0.13
		c-1.02,0-1.99-0.19-2.89-0.57s-1.7-0.94-2.37-1.67c-0.68-0.73-1.21-1.63-1.61-2.69c-0.39-1.06-0.59-2.27-0.59-3.62
		c0-1.22,0.17-2.34,0.52-3.38s0.86-1.94,1.54-2.7c0.68-0.76,1.52-1.35,2.52-1.78s2.15-0.65,3.46-0.65c1.24,0,2.32,0.2,3.25,0.6
		c0.93,0.4,1.77,0.97,2.51,1.71L358.59,124.44z"/>
	<path class="st1" d="M365.99,113.51v13.74h0.74c0.27,0,0.48-0.04,0.64-0.11c0.16-0.07,0.32-0.21,0.48-0.43l4.12-5.09
		c0.17-0.23,0.36-0.4,0.57-0.52c0.21-0.12,0.48-0.18,0.82-0.18H377l-5.15,6.15c-0.37,0.48-0.76,0.86-1.2,1.11
		c0.23,0.16,0.43,0.35,0.61,0.57c0.18,0.22,0.35,0.45,0.51,0.69l5.52,8.04h-3.6c-0.31,0-0.58-0.05-0.81-0.15
		c-0.23-0.1-0.41-0.29-0.56-0.56l-4.23-6.28c-0.15-0.25-0.31-0.41-0.47-0.48c-0.16-0.08-0.4-0.11-0.73-0.11h-0.9v7.59H362v-24
		H365.99z"/>
	<path class="st1" d="M393.83,120.68c1.23,0,2.34,0.2,3.35,0.6c1.01,0.4,1.87,0.96,2.58,1.7s1.27,1.62,1.66,2.68
		c0.39,1.05,0.58,2.23,0.58,3.54c0,1.31-0.19,2.5-0.58,3.55s-0.94,1.95-1.66,2.7c-0.72,0.74-1.58,1.31-2.58,1.71
		c-1.01,0.4-2.12,0.6-3.35,0.6c-1.24,0-2.36-0.2-3.37-0.6c-1.01-0.4-1.88-0.97-2.59-1.71c-0.72-0.74-1.27-1.64-1.66-2.7
		c-0.39-1.05-0.59-2.24-0.59-3.55c0-1.3,0.2-2.48,0.59-3.54c0.39-1.06,0.95-1.95,1.66-2.68c0.72-0.73,1.58-1.3,2.59-1.7
		C391.46,120.87,392.59,120.68,393.83,120.68z M393.83,134.68c1.38,0,2.4-0.46,3.06-1.39s0.99-2.28,0.99-4.07
		c0-1.79-0.33-3.15-0.99-4.08s-1.68-1.41-3.06-1.41c-1.4,0-2.44,0.47-3.11,1.41s-1.01,2.3-1.01,4.08c0,1.78,0.34,3.13,1.01,4.06
		C391.39,134.21,392.43,134.68,393.83,134.68z"/>
	<path class="st1" d="M405.5,137.5v-13.56l-1.44-0.23c-0.31-0.06-0.56-0.17-0.75-0.33c-0.19-0.16-0.28-0.38-0.28-0.67v-1.63h2.47
		v-1.23c0-0.95,0.14-1.8,0.43-2.55s0.69-1.39,1.23-1.92c0.53-0.53,1.18-0.93,1.95-1.21s1.63-0.42,2.58-0.42
		c0.76,0,1.47,0.1,2.13,0.31l-0.08,2c-0.01,0.15-0.05,0.27-0.13,0.36c-0.08,0.09-0.18,0.16-0.3,0.21c-0.12,0.05-0.27,0.08-0.43,0.1
		c-0.16,0.02-0.33,0.02-0.52,0.02c-0.47,0-0.9,0.05-1.27,0.15c-0.37,0.1-0.69,0.28-0.94,0.53c-0.26,0.25-0.46,0.59-0.59,1
		c-0.13,0.41-0.2,0.93-0.2,1.54v1.1h4.31v2.84h-4.18v13.58H405.5z"/>
</g>
<path class="st1" d="M167.66,171.19h-3.36c-0.38,0-0.68-0.09-0.92-0.28c-0.24-0.19-0.41-0.42-0.53-0.7l-1.74-4.76h-9.67l-1.74,4.76
	c-0.09,0.25-0.25,0.47-0.5,0.68c-0.25,0.2-0.55,0.31-0.92,0.31h-3.39l9.19-23.35h4.42L167.66,171.19z M159.99,162.37l-2.84-7.77
	c-0.14-0.34-0.29-0.75-0.44-1.23c-0.15-0.47-0.3-0.98-0.45-1.53c-0.14,0.55-0.29,1.06-0.44,1.54c-0.15,0.48-0.3,0.9-0.44,1.25
	l-2.83,7.73H159.99z M173.14,147.19v24h-3.99v-24H173.14z M188.66,158.12c-0.12,0.15-0.23,0.27-0.35,0.36
	c-0.11,0.09-0.28,0.13-0.49,0.13c-0.2,0-0.4-0.06-0.6-0.19c-0.19-0.12-0.43-0.26-0.69-0.42c-0.27-0.16-0.59-0.3-0.96-0.42
	c-0.37-0.12-0.83-0.19-1.38-0.19c-0.7,0-1.31,0.13-1.84,0.38c-0.53,0.25-0.97,0.62-1.32,1.09c-0.35,0.47-0.61,1.05-0.78,1.72
	c-0.17,0.67-0.26,1.43-0.26,2.28c0,0.88,0.09,1.67,0.28,2.36c0.19,0.69,0.46,1.27,0.82,1.74c0.36,0.47,0.79,0.82,1.29,1.07
	c0.51,0.24,1.08,0.36,1.71,0.36c0.64,0,1.15-0.08,1.54-0.23c0.39-0.16,0.72-0.33,0.99-0.52c0.27-0.19,0.5-0.36,0.7-0.52
	c0.2-0.16,0.42-0.23,0.67-0.23c0.32,0,0.57,0.12,0.73,0.37l1.15,1.45c-0.44,0.52-0.92,0.95-1.44,1.3c-0.52,0.35-1.05,0.63-1.61,0.84
	c-0.55,0.21-1.13,0.36-1.71,0.44c-0.59,0.09-1.17,0.13-1.75,0.13c-1.02,0-1.99-0.19-2.89-0.57c-0.9-0.38-1.7-0.94-2.37-1.67
	c-0.68-0.73-1.21-1.63-1.61-2.69c-0.39-1.06-0.59-2.27-0.59-3.63c0-1.22,0.17-2.34,0.52-3.38c0.35-1.04,0.86-1.94,1.54-2.7
	c0.68-0.76,1.52-1.35,2.52-1.78c1-0.43,2.15-0.65,3.46-0.65c1.24,0,2.32,0.2,3.25,0.6c0.93,0.4,1.77,0.97,2.51,1.71L188.66,158.12z
	 M199.07,154.36c1.23,0,2.34,0.2,3.35,0.6c1.01,0.4,1.87,0.96,2.58,1.7c0.72,0.73,1.27,1.63,1.66,2.68
	c0.39,1.06,0.58,2.23,0.58,3.54c0,1.31-0.19,2.5-0.58,3.55c-0.39,1.06-0.94,1.95-1.66,2.7c-0.72,0.74-1.58,1.31-2.58,1.71
	c-1.01,0.4-2.12,0.6-3.35,0.6c-1.24,0-2.36-0.2-3.37-0.6c-1.01-0.4-1.88-0.97-2.59-1.71c-0.72-0.74-1.27-1.64-1.66-2.7
	c-0.39-1.05-0.59-2.24-0.59-3.55c0-1.3,0.2-2.48,0.59-3.54c0.39-1.05,0.95-1.95,1.66-2.68c0.72-0.73,1.58-1.3,2.59-1.7
	C196.71,154.56,197.83,154.36,199.07,154.36z M199.07,168.36c1.38,0,2.4-0.46,3.06-1.39c0.66-0.93,0.99-2.28,0.99-4.07
	c0-1.79-0.33-3.15-0.99-4.09c-0.66-0.94-1.68-1.4-3.06-1.4c-1.4,0-2.44,0.47-3.11,1.41c-0.67,0.94-1.01,2.3-1.01,4.08
	c0,1.78,0.34,3.13,1.01,4.06C196.64,167.89,197.67,168.36,199.07,168.36z M213.94,156.39c0.65-0.6,1.36-1.09,2.13-1.47
	c0.78-0.38,1.68-0.57,2.73-0.57c0.9,0,1.71,0.15,2.41,0.46c0.7,0.31,1.28,0.74,1.75,1.29c0.47,0.55,0.82,1.22,1.07,1.99
	c0.24,0.77,0.36,1.62,0.36,2.54v10.54h-3.99v-10.54c0-1.01-0.23-1.79-0.69-2.35c-0.46-0.55-1.17-0.83-2.12-0.83
	c-0.69,0-1.34,0.16-1.94,0.47c-0.6,0.31-1.17,0.74-1.71,1.28v11.98h-3.99v-24h3.99V156.39z M235.18,154.36c1.23,0,2.34,0.2,3.35,0.6
	c1.01,0.4,1.87,0.96,2.58,1.7c0.72,0.73,1.27,1.63,1.66,2.68c0.39,1.06,0.58,2.23,0.58,3.54c0,1.31-0.19,2.5-0.58,3.55
	c-0.39,1.06-0.94,1.95-1.66,2.7c-0.72,0.74-1.58,1.31-2.58,1.71c-1.01,0.4-2.12,0.6-3.35,0.6c-1.24,0-2.36-0.2-3.37-0.6
	c-1.01-0.4-1.88-0.97-2.59-1.71c-0.72-0.74-1.27-1.64-1.66-2.7c-0.39-1.05-0.59-2.24-0.59-3.55c0-1.3,0.2-2.48,0.59-3.54
	c0.39-1.05,0.95-1.95,1.66-2.68c0.72-0.73,1.58-1.3,2.59-1.7C232.82,154.56,233.94,154.36,235.18,154.36z M235.18,168.36
	c1.38,0,2.4-0.46,3.06-1.39c0.66-0.93,0.99-2.28,0.99-4.07c0-1.79-0.33-3.15-0.99-4.09c-0.66-0.94-1.68-1.4-3.06-1.4
	c-1.4,0-2.44,0.47-3.11,1.41c-0.67,0.94-1.01,2.3-1.01,4.08c0,1.78,0.34,3.13,1.01,4.06C232.74,167.89,233.78,168.36,235.18,168.36z
	 M250.1,147.19v24h-3.99v-24H250.1z M280.14,171.19h-3.92c-0.74,0-1.28-0.29-1.61-0.87l-4.91-7.48c-0.18-0.28-0.38-0.48-0.61-0.6
	c-0.22-0.12-0.55-0.18-0.98-0.18h-1.86v9.12h-4.34v-23.35h7.12c1.58,0,2.94,0.16,4.08,0.49c1.14,0.33,2.07,0.79,2.79,1.38
	c0.73,0.59,1.26,1.3,1.61,2.12c0.34,0.82,0.52,1.73,0.52,2.72c0,0.79-0.12,1.53-0.35,2.23c-0.23,0.7-0.57,1.33-1,1.91
	c-0.44,0.57-0.97,1.07-1.61,1.5c-0.64,0.43-1.37,0.77-2.19,1.02c0.28,0.16,0.54,0.35,0.78,0.57c0.24,0.22,0.45,0.48,0.65,0.78
	L280.14,171.19z M268.96,158.95c0.82,0,1.53-0.1,2.14-0.31c0.61-0.2,1.11-0.49,1.5-0.85c0.39-0.36,0.69-0.79,0.88-1.28
	c0.19-0.5,0.29-1.04,0.29-1.63c0-1.18-0.39-2.09-1.17-2.73c-0.78-0.64-1.97-0.95-3.58-0.95h-2.78v7.75H268.96z M283.7,163.4
	c0.06,0.85,0.22,1.59,0.45,2.2c0.24,0.62,0.55,1.13,0.94,1.53c0.39,0.4,0.85,0.71,1.38,0.9c0.53,0.2,1.12,0.3,1.77,0.3
	c0.65,0,1.2-0.08,1.67-0.23c0.47-0.15,0.88-0.32,1.23-0.5c0.35-0.18,0.66-0.35,0.92-0.5c0.26-0.15,0.52-0.23,0.77-0.23
	c0.33,0,0.58,0.12,0.74,0.37l1.15,1.45c-0.44,0.52-0.94,0.95-1.49,1.3c-0.55,0.35-1.12,0.63-1.72,0.84
	c-0.6,0.21-1.21,0.36-1.82,0.44c-0.62,0.09-1.22,0.13-1.8,0.13c-1.15,0-2.22-0.19-3.21-0.57c-0.99-0.38-1.85-0.95-2.58-1.7
	c-0.73-0.75-1.31-1.67-1.73-2.78c-0.42-1.1-0.63-2.38-0.63-3.84c0-1.13,0.18-2.19,0.55-3.19c0.37-1,0.89-1.86,1.57-2.6
	c0.68-0.74,1.52-1.32,2.5-1.75c0.98-0.43,2.1-0.65,3.33-0.65c1.04,0,2.01,0.17,2.89,0.5c0.88,0.33,1.64,0.82,2.28,1.46
	c0.64,0.64,1.13,1.43,1.49,2.36c0.36,0.93,0.54,1.99,0.54,3.19c0,0.6-0.06,1.01-0.19,1.22c-0.13,0.21-0.38,0.31-0.74,0.31H283.7z
	 M291.31,161c0-0.52-0.07-1-0.22-1.46c-0.15-0.46-0.36-0.86-0.65-1.2c-0.29-0.34-0.66-0.62-1.11-0.82c-0.45-0.2-0.97-0.3-1.56-0.3
	c-1.15,0-2.06,0.33-2.72,0.99c-0.66,0.66-1.08,1.59-1.27,2.79H291.31z M307.67,157.85c-0.11,0.17-0.22,0.29-0.34,0.36
	c-0.12,0.07-0.27,0.1-0.45,0.1c-0.19,0-0.4-0.05-0.62-0.16c-0.22-0.11-0.48-0.23-0.77-0.36c-0.29-0.13-0.62-0.26-0.99-0.36
	c-0.37-0.11-0.81-0.16-1.32-0.16c-0.79,0-1.4,0.17-1.85,0.5c-0.45,0.33-0.67,0.77-0.67,1.31c0,0.36,0.12,0.65,0.35,0.9
	c0.23,0.24,0.54,0.45,0.92,0.64c0.38,0.18,0.82,0.35,1.3,0.49s0.98,0.3,1.48,0.48c0.5,0.17,0.99,0.37,1.48,0.59
	c0.48,0.22,0.92,0.5,1.3,0.84c0.38,0.34,0.69,0.75,0.92,1.22c0.23,0.47,0.35,1.04,0.35,1.71c0,0.8-0.14,1.53-0.43,2.2
	c-0.29,0.67-0.71,1.25-1.27,1.74c-0.56,0.49-1.25,0.87-2.08,1.15c-0.82,0.27-1.77,0.41-2.85,0.41c-0.57,0-1.13-0.05-1.67-0.15
	c-0.54-0.1-1.07-0.24-1.57-0.43c-0.5-0.18-0.96-0.4-1.39-0.65c-0.43-0.25-0.8-0.52-1.12-0.81l0.92-1.52
	c0.12-0.18,0.26-0.32,0.42-0.42c0.16-0.1,0.37-0.15,0.61-0.15c0.25,0,0.48,0.07,0.7,0.21c0.22,0.14,0.48,0.29,0.77,0.45
	c0.29,0.16,0.63,0.31,1.03,0.45c0.39,0.14,0.89,0.21,1.49,0.21c0.47,0,0.88-0.06,1.22-0.17s0.62-0.26,0.84-0.44
	c0.22-0.18,0.38-0.4,0.48-0.64c0.1-0.24,0.15-0.49,0.15-0.75c0-0.39-0.12-0.71-0.35-0.95c-0.23-0.25-0.54-0.46-0.92-0.65
	c-0.38-0.18-0.82-0.35-1.31-0.49c-0.49-0.15-0.99-0.3-1.5-0.48c-0.51-0.17-1.01-0.37-1.5-0.61c-0.49-0.23-0.93-0.52-1.31-0.88
	c-0.38-0.36-0.69-0.79-0.92-1.31c-0.23-0.52-0.35-1.14-0.35-1.87c0-0.68,0.13-1.32,0.4-1.94c0.27-0.61,0.66-1.15,1.19-1.61
	c0.52-0.46,1.17-0.82,1.95-1.1c0.78-0.27,1.68-0.41,2.7-0.41c1.14,0,2.18,0.19,3.12,0.57c0.94,0.38,1.72,0.87,2.34,1.49
	L307.67,157.85z M316.94,171.44c-1.44,0-2.55-0.41-3.32-1.22c-0.77-0.81-1.15-1.93-1.15-3.37v-9.25h-1.7c-0.22,0-0.4-0.07-0.55-0.21
	c-0.15-0.14-0.23-0.35-0.23-0.63v-1.58l2.66-0.44l0.84-4.52c0.05-0.22,0.16-0.38,0.31-0.5c0.15-0.12,0.34-0.18,0.58-0.18h2.07v5.22
	h4.42v2.84h-4.42v8.98c0,0.52,0.13,0.92,0.38,1.21c0.25,0.29,0.6,0.44,1.04,0.44c0.25,0,0.45-0.03,0.62-0.09
	c0.17-0.06,0.31-0.12,0.44-0.19c0.12-0.06,0.23-0.13,0.33-0.19c0.1-0.06,0.19-0.09,0.29-0.09c0.12,0,0.22,0.03,0.29,0.09
	c0.08,0.06,0.16,0.15,0.24,0.27l1.19,1.94c-0.58,0.48-1.25,0.85-2,1.1C318.52,171.32,317.74,171.44,316.94,171.44z M326.87,157.49
	c0.52-0.99,1.13-1.77,1.84-2.33c0.71-0.57,1.55-0.85,2.52-0.85c0.76,0,1.38,0.17,1.84,0.5l-0.26,2.99
	c-0.05,0.19-0.13,0.33-0.23,0.41c-0.1,0.08-0.24,0.12-0.41,0.12c-0.16,0-0.4-0.03-0.72-0.08c-0.32-0.05-0.63-0.08-0.93-0.08
	c-0.44,0-0.83,0.06-1.18,0.19c-0.34,0.13-0.65,0.31-0.93,0.56c-0.27,0.24-0.52,0.54-0.73,0.88c-0.21,0.34-0.41,0.74-0.59,1.18v10.21
	h-3.99v-16.57h2.34c0.41,0,0.69,0.07,0.86,0.22c0.16,0.15,0.27,0.41,0.32,0.78L326.87,157.49z M339.51,149.79
	c0,0.34-0.07,0.67-0.21,0.97c-0.14,0.3-0.33,0.57-0.56,0.79c-0.23,0.23-0.5,0.41-0.82,0.54c-0.31,0.13-0.65,0.2-1,0.2
	c-0.34,0-0.67-0.07-0.98-0.2c-0.31-0.13-0.57-0.31-0.8-0.54c-0.23-0.23-0.41-0.49-0.54-0.79c-0.13-0.3-0.2-0.62-0.2-0.97
	c0-0.36,0.07-0.69,0.2-1c0.13-0.31,0.31-0.58,0.54-0.81c0.23-0.23,0.49-0.41,0.8-0.54c0.31-0.13,0.63-0.2,0.98-0.2
	c0.36,0,0.69,0.07,1,0.2c0.31,0.13,0.58,0.31,0.82,0.54c0.23,0.23,0.42,0.5,0.56,0.81C339.44,149.1,339.51,149.43,339.51,149.79z
	 M338.96,154.62v16.57h-4v-16.57H338.96z M354.58,158.12c-0.12,0.15-0.23,0.27-0.35,0.36c-0.11,0.09-0.28,0.13-0.49,0.13
	c-0.2,0-0.4-0.06-0.6-0.19c-0.19-0.12-0.43-0.26-0.69-0.42c-0.27-0.16-0.59-0.3-0.96-0.42c-0.37-0.12-0.83-0.19-1.38-0.19
	c-0.7,0-1.31,0.13-1.84,0.38c-0.53,0.25-0.97,0.62-1.32,1.09c-0.35,0.47-0.61,1.05-0.78,1.72c-0.17,0.67-0.26,1.43-0.26,2.28
	c0,0.88,0.09,1.67,0.28,2.36c0.19,0.69,0.46,1.27,0.82,1.74c0.36,0.47,0.79,0.82,1.29,1.07c0.51,0.24,1.08,0.36,1.71,0.36
	c0.64,0,1.15-0.08,1.54-0.23c0.39-0.16,0.72-0.33,0.99-0.52c0.27-0.19,0.5-0.36,0.7-0.52c0.2-0.16,0.42-0.23,0.67-0.23
	c0.32,0,0.57,0.12,0.73,0.37l1.15,1.45c-0.44,0.52-0.92,0.95-1.44,1.3c-0.52,0.35-1.05,0.63-1.61,0.84
	c-0.55,0.21-1.13,0.36-1.71,0.44c-0.59,0.09-1.17,0.13-1.75,0.13c-1.02,0-1.99-0.19-2.89-0.57c-0.9-0.38-1.7-0.94-2.37-1.67
	c-0.68-0.73-1.21-1.63-1.61-2.69c-0.39-1.06-0.59-2.27-0.59-3.63c0-1.22,0.17-2.34,0.52-3.38c0.35-1.04,0.86-1.94,1.54-2.7
	c0.68-0.76,1.52-1.35,2.52-1.78c1-0.43,2.15-0.65,3.46-0.65c1.24,0,2.32,0.2,3.25,0.6c0.93,0.4,1.77,0.97,2.51,1.71L354.58,158.12z
	 M374.67,171.19h-3.99v-13.58h-7.69v8.98c0,0.52,0.13,0.92,0.38,1.21c0.25,0.29,0.6,0.44,1.04,0.44c0.25,0,0.45-0.03,0.62-0.09
	c0.17-0.06,0.31-0.12,0.44-0.19c0.12-0.06,0.23-0.13,0.33-0.19c0.1-0.06,0.19-0.09,0.29-0.09c0.12,0,0.22,0.03,0.29,0.09
	c0.08,0.06,0.16,0.15,0.24,0.27l1.19,1.94c-0.58,0.48-1.25,0.85-2,1.1c-0.75,0.25-1.53,0.37-2.34,0.37c-1.44,0-2.55-0.41-3.32-1.22
	c-0.77-0.81-1.15-1.93-1.15-3.37v-9.25h-1.7c-0.22,0-0.4-0.07-0.55-0.21c-0.15-0.14-0.23-0.35-0.23-0.63v-1.58l2.66-0.45l0.84-4.51
	c0.05-0.22,0.16-0.38,0.31-0.5c0.15-0.12,0.34-0.18,0.58-0.18h2.07v5.22h11.67V171.19z M375.36,149.73c0,0.34-0.07,0.67-0.21,0.98
	c-0.14,0.31-0.33,0.57-0.56,0.8c-0.23,0.23-0.51,0.41-0.82,0.54c-0.32,0.13-0.65,0.2-1.01,0.2c-0.34,0-0.67-0.07-0.97-0.2
	c-0.3-0.13-0.57-0.31-0.79-0.54c-0.23-0.23-0.41-0.49-0.54-0.8c-0.13-0.31-0.2-0.63-0.2-0.98c0-0.36,0.07-0.69,0.2-0.99
	c0.13-0.31,0.31-0.58,0.54-0.81c0.23-0.23,0.49-0.41,0.79-0.55c0.3-0.13,0.62-0.2,0.97-0.2c0.36,0,0.69,0.07,1.01,0.2
	c0.32,0.13,0.59,0.32,0.82,0.55c0.23,0.23,0.42,0.5,0.56,0.81C375.29,149.04,375.36,149.37,375.36,149.73z M385.73,154.36
	c1.23,0,2.34,0.2,3.35,0.6c1.01,0.4,1.87,0.96,2.58,1.7c0.72,0.73,1.27,1.63,1.66,2.68c0.39,1.06,0.58,2.23,0.58,3.54
	c0,1.31-0.19,2.5-0.58,3.55c-0.39,1.06-0.94,1.95-1.66,2.7c-0.72,0.74-1.58,1.31-2.58,1.71c-1.01,0.4-2.12,0.6-3.35,0.6
	c-1.24,0-2.36-0.2-3.37-0.6c-1.01-0.4-1.88-0.97-2.59-1.71c-0.72-0.74-1.27-1.64-1.66-2.7c-0.39-1.05-0.59-2.24-0.59-3.55
	c0-1.3,0.2-2.48,0.59-3.54c0.39-1.05,0.95-1.95,1.66-2.68c0.72-0.73,1.58-1.3,2.59-1.7C383.36,154.56,384.49,154.36,385.73,154.36z
	 M385.73,168.36c1.38,0,2.4-0.46,3.06-1.39c0.66-0.93,0.99-2.28,0.99-4.07c0-1.79-0.33-3.15-0.99-4.09c-0.66-0.94-1.68-1.4-3.06-1.4
	c-1.4,0-2.44,0.47-3.11,1.41c-0.67,0.94-1.01,2.3-1.01,4.08c0,1.78,0.34,3.13,1.01,4.06C383.29,167.89,384.33,168.36,385.73,168.36z
	 M400.34,156.65c0.33-0.33,0.69-0.64,1.06-0.93c0.37-0.29,0.76-0.53,1.18-0.73c0.41-0.2,0.86-0.36,1.33-0.47
	c0.47-0.11,0.99-0.17,1.55-0.17c0.9,0,1.71,0.15,2.41,0.46c0.7,0.31,1.28,0.74,1.75,1.29c0.47,0.55,0.82,1.22,1.07,1.99
	c0.24,0.77,0.36,1.62,0.36,2.54v10.54h-3.99v-10.54c0-1.01-0.23-1.79-0.69-2.35c-0.46-0.55-1.17-0.83-2.12-0.83
	c-0.69,0-1.34,0.16-1.94,0.47c-0.6,0.31-1.17,0.74-1.71,1.28v11.98h-3.99v-16.57h2.44c0.52,0,0.86,0.24,1.02,0.73L400.34,156.65z"/>
<path class="st1" d="M64.92,53.87c-5.11,0-9.27,4.16-9.27,9.27c0,5.11,4.16,9.27,9.27,9.27c5.11,0,9.27-4.16,9.27-9.27
	C74.2,58.03,70.04,53.87,64.92,53.87 M64.92,74.76c-6.4,0-11.62-5.21-11.62-11.62c0-6.4,5.21-11.62,11.62-11.62
	c6.4,0,11.62,5.21,11.62,11.62C76.54,69.55,71.33,74.76,64.92,74.76"/>
<path class="st1" d="M64.92,39.86c-1.07,0-2.07,0.42-2.83,1.17c-0.75,0.75-1.17,1.76-1.17,2.83c0,1.07,0.42,2.07,1.17,2.83
	c1.56,1.56,4.09,1.56,5.65,0c0.75-0.75,1.17-1.76,1.17-2.83c0-1.07-0.42-2.07-1.17-2.83C66.99,40.28,65.99,39.86,64.92,39.86
	 M64.92,50.19c-1.62,0-3.25-0.62-4.48-1.85c-1.2-1.2-1.86-2.79-1.86-4.48c0-1.69,0.66-3.29,1.86-4.48c1.2-1.2,2.79-1.86,4.48-1.86
	c1.69,0,3.28,0.66,4.48,1.86c1.2,1.2,1.86,2.79,1.86,4.48c0,1.69-0.66,3.29-1.86,4.48C68.17,49.57,66.55,50.19,64.92,50.19"/>
<path class="st1" d="M51.29,45.51c-2.2,0-4,1.79-4,4s1.79,4,4,4c2.2,0,4-1.79,4-4S53.49,45.51,51.29,45.51 M51.29,55.84
	c-3.49,0-6.34-2.84-6.34-6.34c0-3.5,2.84-6.34,6.34-6.34c3.49,0,6.34,2.84,6.34,6.34C57.63,53,54.78,55.84,51.29,55.84"/>
<path class="st1" d="M41.99,59.49L41.99,59.49L41.99,59.49z M45.64,59.14c-1.07,0-2.07,0.42-2.83,1.17
	c-0.75,0.75-1.17,1.76-1.17,2.83s0.42,2.07,1.17,2.82c0.75,0.75,1.76,1.17,2.83,1.17c1.07,0,2.07-0.42,2.83-1.17
	c1.56-1.56,1.56-4.09,0-5.65C47.71,59.56,46.71,59.14,45.64,59.14 M45.64,69.48c-1.69,0-3.29-0.66-4.48-1.86
	c-1.2-1.2-1.86-2.79-1.86-4.48c0-1.69,0.66-3.29,1.86-4.48c1.2-1.2,2.79-1.86,4.48-1.86c1.69,0,3.28,0.66,4.48,1.86
	c2.47,2.47,2.47,6.49,0,8.96C48.92,68.82,47.33,69.48,45.64,69.48"/>
<path class="st1" d="M51.29,72.78c-2.2,0-4,1.79-4,4c0,2.2,1.79,4,4,4c2.2,0,4-1.79,4-4C55.28,74.57,53.49,72.78,51.29,72.78
	 M51.29,83.11c-3.49,0-6.34-2.84-6.34-6.34c0-3.5,2.84-6.34,6.34-6.34c3.49,0,6.34,2.84,6.34,6.34
	C57.63,80.27,54.78,83.11,51.29,83.11"/>
<path class="st1" d="M64.92,78.43c-1.02,0-2.05,0.39-2.83,1.17c-0.75,0.75-1.17,1.76-1.17,2.83s0.42,2.07,1.17,2.82
	c0.75,0.75,1.76,1.17,2.83,1.17c1.07,0,2.07-0.42,2.83-1.17c0.75-0.75,1.17-1.76,1.17-2.82s-0.42-2.07-1.17-2.83
	C66.97,78.82,65.95,78.43,64.92,78.43 M64.92,88.76c-1.69,0-3.29-0.66-4.48-1.86s-1.86-2.79-1.86-4.48c0-1.69,0.66-3.29,1.86-4.48
	c2.47-2.47,6.49-2.47,8.96,0c1.2,1.2,1.86,2.79,1.86,4.48c0,1.69-0.66,3.28-1.86,4.48S66.62,88.76,64.92,88.76"/>
<path class="st1" d="M78.56,72.78c-2.2,0-4,1.79-4,4c0,2.2,1.79,4,4,4c2.2,0,4-1.79,4-4C82.56,74.57,80.76,72.78,78.56,72.78
	 M78.56,83.11c-3.49,0-6.34-2.84-6.34-6.34c0-3.5,2.84-6.34,6.34-6.34c3.49,0,6.34,2.84,6.34,6.34
	C84.9,80.27,82.05,83.11,78.56,83.11"/>
<path class="st1" d="M84.21,59.14c-1.07,0-2.07,0.42-2.83,1.17c-1.56,1.56-1.56,4.09,0,5.65c0.75,0.75,1.76,1.17,2.83,1.17
	c1.07,0,2.07-0.42,2.83-1.17v0c0.75-0.75,1.17-1.76,1.17-2.82s-0.42-2.07-1.17-2.83C86.28,59.56,85.27,59.14,84.21,59.14
	 M84.21,69.48c-1.69,0-3.29-0.66-4.48-1.86c-2.47-2.47-2.47-6.49,0-8.96c1.2-1.2,2.79-1.86,4.48-1.86c1.69,0,3.28,0.66,4.48,1.86
	c1.2,1.2,1.86,2.79,1.86,4.48c0,1.69-0.66,3.28-1.86,4.48C87.49,68.82,85.9,69.48,84.21,69.48"/>
<path class="st1" d="M78.56,45.51c-2.2,0-4,1.79-4,4s1.79,4,4,4c2.2,0,4-1.79,4-4S80.76,45.51,78.56,45.51 M78.56,55.84
	c-3.49,0-6.34-2.84-6.34-6.34c0-3.5,2.84-6.34,6.34-6.34c3.49,0,6.34,2.84,6.34,6.34C84.9,53,82.05,55.84,78.56,55.84"/>
<path class="st1" d="M64.92,30.01c-0.49,0-0.98,0.19-1.36,0.56c-0.75,0.75-0.75,1.97,0,2.71c0.36,0.36,0.84,0.56,1.36,0.56
	c0.51,0,0.99-0.2,1.36-0.56c0.75-0.75,0.75-1.97,0-2.71C65.91,30.19,65.41,30.01,64.92,30.01 M64.92,36.19
	c-1.14,0-2.21-0.44-3.01-1.25c-1.66-1.66-1.66-4.36,0-6.03c1.66-1.66,4.36-1.66,6.03,0c1.66,1.66,1.66,4.36,0,6.03
	C67.13,35.74,66.06,36.19,64.92,36.19"/>
<path class="st1" d="M42.85,39.15c-1.06,0-1.92,0.86-1.92,1.92s0.86,1.92,1.92,1.92c1.06,0,1.92-0.86,1.92-1.92
	S43.91,39.15,42.85,39.15 M42.85,45.33c-2.35,0-4.26-1.91-4.26-4.26s1.91-4.26,4.26-4.26c2.35,0,4.26,1.91,4.26,4.26
	S45.2,45.33,42.85,45.33"/>
<path class="st1" d="M32.35,61.78c-0.75,0.75-0.75,1.97,0,2.71c0.75,0.75,1.97,0.75,2.71,0c0.36-0.36,0.56-0.84,0.56-1.36
	s-0.2-0.99-0.56-1.36C34.32,61.04,33.1,61.04,32.35,61.78L32.35,61.78z M33.71,67.4c-1.09,0-2.18-0.42-3.01-1.25
	c-0.81-0.8-1.25-1.87-1.25-3.01c0-1.14,0.44-2.21,1.25-3.01c1.66-1.66,4.36-1.66,6.03,0c0.81,0.8,1.25,1.87,1.25,3.01
	c0,1.14-0.44,2.21-1.25,3.01C35.89,66.98,34.8,67.4,33.71,67.4"/>
<path class="st1" d="M42.85,83.29c-1.06,0-1.92,0.86-1.92,1.92c0,1.06,0.86,1.92,1.92,1.92c1.06,0,1.92-0.86,1.92-1.92
	C44.77,84.15,43.91,83.29,42.85,83.29 M42.85,89.47c-2.35,0-4.26-1.91-4.26-4.26c0-2.35,1.91-4.26,4.26-4.26
	c2.35,0,4.26,1.91,4.26,4.26C47.11,87.56,45.2,89.47,42.85,89.47"/>
<path class="st1" d="M63.57,95.71c0.75,0.75,1.97,0.75,2.71,0c0.75-0.75,0.75-1.97,0-2.71c-0.36-0.36-0.84-0.56-1.36-0.56
	c-0.51,0-0.99,0.2-1.36,0.56C62.82,93.75,62.82,94.96,63.57,95.71z M64.92,98.61c-1.09,0-2.18-0.42-3.01-1.25
	c-1.66-1.66-1.66-4.36,0-6.03c0.8-0.8,1.87-1.25,3.01-1.25c1.14,0,2.21,0.44,3.01,1.25c1.66,1.66,1.66,4.36,0,6.03
	C67.11,98.2,66.01,98.61,64.92,98.61"/>
<path class="st1" d="M87,83.29c-1.06,0-1.92,0.86-1.92,1.92c0,1.06,0.86,1.92,1.92,1.92c1.06,0,1.92-0.86,1.92-1.92
	C88.91,84.15,88.05,83.29,87,83.29 M87,89.47c-2.35,0-4.26-1.91-4.26-4.26c0-2.35,1.91-4.26,4.26-4.26c2.35,0,4.26,1.91,4.26,4.26
	C91.26,87.56,89.34,89.47,87,89.47"/>
<path class="st1" d="M96.14,61.22c-0.49,0-0.98,0.19-1.36,0.56c-0.36,0.36-0.56,0.84-0.56,1.36s0.2,0.99,0.56,1.36
	c0.75,0.75,1.96,0.75,2.71,0c0.75-0.75,0.75-1.97,0-2.71C97.12,61.41,96.63,61.22,96.14,61.22 M98.32,65.33L98.32,65.33L98.32,65.33
	z M96.14,67.4c-1.09,0-2.18-0.42-3.01-1.25c-0.81-0.8-1.25-1.87-1.25-3.01c0-1.14,0.44-2.21,1.25-3.01c1.66-1.66,4.36-1.66,6.03,0
	c0.8,0.8,1.25,1.87,1.25,3.01c0,1.14-0.44,2.21-1.25,3.01C98.32,66.98,97.23,67.4,96.14,67.4"/>
<path class="st1" d="M87,39.15c-1.06,0-1.92,0.86-1.92,1.92s0.86,1.92,1.92,1.92c1.06,0,1.92-0.86,1.92-1.92S88.05,39.15,87,39.15
	 M87,45.33c-2.35,0-4.26-1.91-4.26-4.26s1.91-4.26,4.26-4.26c2.35,0,4.26,1.91,4.26,4.26S89.34,45.33,87,45.33"/>
<polygon class="st1" points="425,175.89 422.13,173.02 432.38,162.77 422.13,152.52 425,149.64 438.12,162.77 "/>
</svg>
