<?xml version="1.0" encoding="utf-8"?>
<!-- Generator: Adobe Illustrator 24.1.0, SVG Export Plug-In . SVG Version: 6.00 Build 0)  -->
<svg version="1.1" id="Layer_1" xmlns="http://www.w3.org/2000/svg" xmlns:xlink="http://www.w3.org/1999/xlink" x="0px" y="0px"
	 viewBox="0 0 460.2 200.02" style="enable-background:new 0 0 460.2 200.02;" xml:space="preserve">
<style type="text/css">
	.st0{fill:#337092;}
	.st1{fill:#EFBB50;}
</style>
<path class="st0" d="M11.99,0C5.37,0,0,5.37,0,11.99v176.04c0,6.62,5.37,11.99,11.99,11.99H448.2c6.62,0,11.99-5.37,11.99-11.99
	V11.99C460.2,5.37,454.83,0,448.2,0H11.99z"/>
<path class="st1" d="M190.58,153.57c-0.13,0.23-0.27,0.39-0.41,0.49c-0.15,0.1-0.33,0.15-0.54,0.15c-0.23,0-0.47-0.08-0.73-0.25
	s-0.58-0.35-0.94-0.56c-0.37-0.2-0.79-0.39-1.28-0.56s-1.07-0.25-1.74-0.25c-0.6,0-1.13,0.07-1.58,0.22s-0.83,0.35-1.14,0.61
	s-0.54,0.57-0.69,0.93c-0.15,0.36-0.23,0.76-0.23,1.19c0,0.55,0.15,1.01,0.46,1.37c0.31,0.37,0.71,0.68,1.22,0.94
	c0.51,0.26,1.08,0.49,1.73,0.69s1.31,0.42,1.99,0.65c0.68,0.23,1.34,0.5,1.99,0.81c0.65,0.31,1.22,0.69,1.73,1.16
	s0.91,1.04,1.22,1.72c0.31,0.68,0.46,1.5,0.46,2.47c0,1.06-0.18,2.04-0.54,2.96c-0.36,0.92-0.89,1.72-1.58,2.41
	c-0.69,0.68-1.54,1.22-2.54,1.61s-2.15,0.59-3.44,0.59c-0.74,0-1.48-0.07-2.2-0.22s-1.41-0.35-2.08-0.62
	c-0.66-0.27-1.28-0.59-1.87-0.97c-0.58-0.38-1.1-0.8-1.55-1.26l1.28-2.08c0.11-0.15,0.25-0.28,0.42-0.38s0.36-0.15,0.55-0.15
	c0.27,0,0.56,0.11,0.87,0.33s0.68,0.47,1.11,0.73c0.43,0.27,0.93,0.51,1.51,0.73s1.27,0.33,2.08,0.33c1.24,0,2.2-0.29,2.87-0.88
	c0.68-0.59,1.02-1.43,1.02-2.53c0-0.61-0.15-1.11-0.46-1.5c-0.31-0.39-0.71-0.71-1.22-0.98c-0.51-0.26-1.08-0.49-1.73-0.67
	s-1.3-0.38-1.97-0.6s-1.32-0.47-1.97-0.78c-0.65-0.3-1.22-0.69-1.73-1.18c-0.51-0.48-0.91-1.09-1.22-1.82
	c-0.31-0.73-0.46-1.62-0.46-2.69c0-0.85,0.17-1.68,0.51-2.49c0.34-0.81,0.83-1.52,1.48-2.15c0.65-0.62,1.44-1.12,2.39-1.5
	s2.03-0.57,3.26-0.57c1.38,0,2.65,0.22,3.81,0.65s2.15,1.03,2.97,1.81L190.58,153.57z M197.92,164.89c0.06,0.85,0.22,1.59,0.45,2.2
	c0.24,0.62,0.55,1.13,0.94,1.53s0.85,0.71,1.38,0.9c0.53,0.2,1.12,0.3,1.77,0.3c0.65,0,1.2-0.08,1.67-0.23s0.88-0.32,1.23-0.5
	c0.35-0.18,0.66-0.35,0.92-0.5s0.52-0.23,0.77-0.23c0.33,0,0.58,0.12,0.74,0.37l1.15,1.45c-0.44,0.52-0.94,0.95-1.49,1.3
	s-1.12,0.63-1.72,0.84c-0.6,0.21-1.21,0.36-1.82,0.44c-0.62,0.09-1.22,0.13-1.8,0.13c-1.15,0-2.22-0.19-3.21-0.57
	s-1.85-0.95-2.58-1.7s-1.31-1.67-1.73-2.78c-0.42-1.1-0.63-2.38-0.63-3.84c0-1.13,0.18-2.19,0.55-3.19c0.37-1,0.89-1.86,1.57-2.6
	c0.68-0.74,1.52-1.32,2.5-1.75c0.99-0.43,2.1-0.65,3.33-0.65c1.04,0,2.01,0.17,2.89,0.5s1.64,0.82,2.28,1.46s1.13,1.43,1.49,2.36
	c0.36,0.93,0.54,1.99,0.54,3.19c0,0.6-0.06,1.01-0.19,1.22s-0.38,0.31-0.74,0.31h-10.26V164.89z M205.53,162.48
	c0-0.52-0.07-1-0.22-1.46s-0.36-0.86-0.65-1.2s-0.66-0.62-1.11-0.82c-0.45-0.2-0.97-0.3-1.56-0.3c-1.15,0-2.06,0.33-2.72,0.99
	s-1.08,1.59-1.27,2.79L205.53,162.48L205.53,162.48z M214.85,164.89c0.06,0.85,0.22,1.59,0.45,2.2c0.24,0.62,0.55,1.13,0.94,1.53
	s0.85,0.71,1.38,0.9c0.53,0.2,1.12,0.3,1.77,0.3c0.65,0,1.2-0.08,1.67-0.23s0.88-0.32,1.23-0.5c0.35-0.18,0.66-0.35,0.92-0.5
	s0.52-0.23,0.77-0.23c0.33,0,0.58,0.12,0.74,0.37l1.15,1.45c-0.44,0.52-0.94,0.95-1.49,1.3s-1.12,0.63-1.72,0.84
	c-0.6,0.21-1.21,0.36-1.82,0.44c-0.62,0.09-1.22,0.13-1.8,0.13c-1.15,0-2.22-0.19-3.21-0.57s-1.85-0.95-2.58-1.7
	s-1.31-1.67-1.73-2.78c-0.42-1.1-0.63-2.38-0.63-3.84c0-1.13,0.18-2.19,0.55-3.19c0.37-1,0.89-1.86,1.57-2.6
	c0.68-0.74,1.52-1.32,2.5-1.75c0.99-0.43,2.1-0.65,3.33-0.65c1.04,0,2.01,0.17,2.89,0.5s1.64,0.82,2.28,1.46s1.13,1.43,1.49,2.36
	c0.36,0.93,0.54,1.99,0.54,3.19c0,0.6-0.06,1.01-0.19,1.22s-0.38,0.31-0.74,0.31h-10.26V164.89z M222.45,162.48
	c0-0.52-0.07-1-0.22-1.46s-0.36-0.86-0.65-1.2s-0.66-0.62-1.11-0.82c-0.45-0.2-0.97-0.3-1.56-0.3c-1.15,0-2.06,0.33-2.72,0.99
	s-1.08,1.59-1.27,2.79L222.45,162.48L222.45,162.48z M241.22,152.78v6.48h8.17v3.34h-8.17v6.6h10.37v3.47h-14.73v-23.35h14.73v3.46
	H241.22z M255.06,172.67v-13.56l-1.44-0.23c-0.31-0.06-0.56-0.17-0.75-0.33s-0.28-0.38-0.28-0.67v-1.63h2.47v-0.94
	c0-0.95,0.14-1.8,0.43-2.55s0.69-1.39,1.23-1.92c0.53-0.53,1.18-0.93,1.95-1.21c0.76-0.28,1.63-0.42,2.58-0.42
	c0.75,0,1.46,0.1,2.12,0.31l-0.08,1.99c-0.02,0.31-0.16,0.51-0.43,0.59c-0.26,0.08-0.57,0.12-0.93,0.12c-0.47,0-0.9,0.05-1.27,0.15
	c-0.37,0.1-0.69,0.28-0.94,0.53c-0.26,0.25-0.45,0.59-0.59,1c-0.13,0.41-0.2,0.93-0.2,1.54v0.81h6.59v-0.53
	c0-1.01,0.17-1.95,0.5-2.82c0.33-0.87,0.84-1.62,1.52-2.25c0.68-0.64,1.54-1.13,2.58-1.49c1.04-0.36,2.26-0.54,3.67-0.54
	c0.45,0,0.91,0.02,1.39,0.07c0.47,0.05,0.88,0.13,1.23,0.23l-0.13,2.07c-0.02,0.25-0.16,0.4-0.4,0.44
	c-0.25,0.05-0.55,0.07-0.92,0.07c-1.04,0-1.92,0.09-2.62,0.27c-0.71,0.18-1.28,0.45-1.71,0.82c-0.44,0.36-0.75,0.81-0.94,1.36
	c-0.19,0.54-0.28,1.18-0.28,1.9v0.4h10.27v16.42h-3.99v-13.58h-6.15v13.58h-4v-13.58h-6.46v13.58L255.06,172.67L255.06,172.67z
	 M295.26,159.61c-0.12,0.15-0.23,0.27-0.35,0.36c-0.11,0.09-0.28,0.13-0.49,0.13c-0.2,0-0.4-0.06-0.6-0.19
	c-0.19-0.12-0.43-0.26-0.69-0.42c-0.27-0.16-0.59-0.3-0.96-0.42s-0.83-0.19-1.38-0.19c-0.7,0-1.31,0.13-1.84,0.38
	s-0.97,0.62-1.32,1.09s-0.61,1.05-0.78,1.72s-0.26,1.43-0.26,2.28c0,0.88,0.09,1.67,0.28,2.36s0.46,1.27,0.82,1.74
	c0.36,0.47,0.79,0.82,1.29,1.07c0.51,0.24,1.08,0.36,1.71,0.36c0.64,0,1.15-0.08,1.54-0.23c0.39-0.16,0.72-0.33,0.99-0.52
	s0.5-0.36,0.7-0.52s0.42-0.23,0.67-0.23c0.32,0,0.57,0.12,0.73,0.37l1.15,1.45c-0.44,0.52-0.92,0.95-1.44,1.3s-1.05,0.63-1.61,0.84
	c-0.55,0.21-1.13,0.36-1.71,0.44c-0.59,0.09-1.17,0.13-1.75,0.13c-1.02,0-1.99-0.19-2.89-0.57c-0.9-0.38-1.7-0.94-2.37-1.67
	c-0.68-0.73-1.21-1.63-1.61-2.69c-0.39-1.06-0.59-2.27-0.59-3.63c0-1.22,0.17-2.34,0.52-3.38c0.35-1.04,0.86-1.94,1.54-2.7
	c0.68-0.76,1.52-1.35,2.52-1.78s2.15-0.65,3.46-0.65c1.24,0,2.32,0.2,3.25,0.6c0.93,0.4,1.77,0.97,2.51,1.71L295.26,159.61z
	 M298.25,158.41c1.91-1.74,4.2-2.62,6.88-2.62c0.97,0,1.84,0.16,2.6,0.48c0.76,0.32,1.41,0.76,1.94,1.32
	c0.53,0.57,0.93,1.24,1.2,2.03c0.27,0.79,0.41,1.65,0.41,2.58v10.46h-1.81c-0.38,0-0.67-0.06-0.87-0.17
	c-0.2-0.11-0.37-0.34-0.48-0.69l-0.36-1.19c-0.42,0.38-0.83,0.71-1.23,0.99c-0.4,0.29-0.81,0.52-1.24,0.72
	c-0.43,0.19-0.89,0.34-1.38,0.44s-1.03,0.15-1.62,0.15c-0.7,0-1.35-0.09-1.94-0.28s-1.1-0.47-1.53-0.85s-0.76-0.85-1-1.4
	c-0.24-0.56-0.36-1.21-0.36-1.95c0-0.42,0.07-0.84,0.21-1.25c0.14-0.41,0.37-0.81,0.69-1.19s0.73-0.73,1.24-1.07
	c0.51-0.33,1.13-0.62,1.87-0.87s1.6-0.45,2.58-0.61c0.98-0.16,2.1-0.25,3.36-0.28v-0.97c0-1.11-0.24-1.93-0.71-2.46
	c-0.47-0.53-1.16-0.8-2.05-0.8c-0.65,0-1.18,0.08-1.61,0.23s-0.8,0.32-1.12,0.51c-0.32,0.19-0.62,0.36-0.88,0.51
	s-0.56,0.23-0.88,0.23c-0.28,0-0.52-0.07-0.71-0.22s-0.35-0.31-0.47-0.51L298.25,158.41z M307.39,165.6
	c-1.15,0.05-2.12,0.15-2.91,0.3c-0.79,0.15-1.42,0.33-1.89,0.56s-0.81,0.49-1.02,0.79c-0.2,0.3-0.31,0.63-0.31,0.99
	c0,0.7,0.21,1.2,0.62,1.5s0.96,0.45,1.62,0.45c0.82,0,1.53-0.15,2.12-0.44c0.6-0.3,1.18-0.75,1.75-1.35v-2.8H307.39z M326.56,159.61
	c-0.12,0.15-0.23,0.27-0.35,0.36c-0.11,0.09-0.28,0.13-0.49,0.13c-0.2,0-0.4-0.06-0.6-0.19c-0.19-0.12-0.43-0.26-0.69-0.42
	c-0.27-0.16-0.59-0.3-0.96-0.42s-0.83-0.19-1.38-0.19c-0.7,0-1.31,0.13-1.84,0.38s-0.97,0.62-1.32,1.09s-0.61,1.05-0.78,1.72
	s-0.26,1.43-0.26,2.28c0,0.88,0.09,1.67,0.28,2.36s0.46,1.27,0.82,1.74c0.36,0.47,0.79,0.82,1.29,1.07
	c0.51,0.24,1.08,0.36,1.71,0.36c0.64,0,1.15-0.08,1.54-0.23c0.39-0.16,0.72-0.33,0.99-0.52s0.5-0.36,0.7-0.52s0.42-0.23,0.67-0.23
	c0.32,0,0.57,0.12,0.73,0.37l1.15,1.45c-0.44,0.52-0.92,0.95-1.44,1.3s-1.05,0.63-1.61,0.84c-0.55,0.21-1.13,0.36-1.71,0.44
	c-0.59,0.09-1.17,0.13-1.75,0.13c-1.02,0-1.99-0.19-2.89-0.57c-0.9-0.38-1.7-0.94-2.37-1.67c-0.68-0.73-1.21-1.63-1.61-2.69
	c-0.39-1.06-0.59-2.27-0.59-3.63c0-1.22,0.17-2.34,0.52-3.38c0.35-1.04,0.86-1.94,1.54-2.7c0.68-0.76,1.52-1.35,2.52-1.78
	s2.15-0.65,3.46-0.65c1.24,0,2.32,0.2,3.25,0.6c0.93,0.4,1.77,0.97,2.51,1.71L326.56,159.61z M344.98,156.1l-9.03,21.12
	c-0.12,0.28-0.27,0.49-0.46,0.64s-0.48,0.22-0.86,0.22h-2.97l3.1-6.65l-6.7-15.32h3.5c0.31,0,0.56,0.08,0.73,0.23
	c0.18,0.15,0.31,0.32,0.4,0.52l3.52,8.59c0.12,0.29,0.22,0.58,0.3,0.87s0.16,0.59,0.23,0.89c0.1-0.3,0.19-0.6,0.29-0.9
	c0.1-0.3,0.2-0.59,0.32-0.88l3.33-8.57c0.09-0.22,0.23-0.39,0.43-0.53c0.2-0.14,0.42-0.21,0.67-0.21h3.2V156.1z M374.73,161
	c0,1.71-0.29,3.28-0.86,4.72c-0.57,1.43-1.37,2.66-2.41,3.7c-1.03,1.03-2.28,1.84-3.73,2.41s-3.07,0.86-4.84,0.86h-8.9v-23.35h8.9
	c1.78,0,3.39,0.29,4.84,0.86c1.45,0.58,2.7,1.38,3.73,2.41s1.84,2.26,2.41,3.69C374.44,157.71,374.73,159.28,374.73,161z
	 M370.27,161c0-1.28-0.17-2.43-0.51-3.45s-0.83-1.88-1.47-2.58s-1.42-1.25-2.33-1.62c-0.91-0.38-1.94-0.57-3.08-0.57h-4.54v16.44
	h4.54c1.14,0,2.17-0.19,3.08-0.57c0.91-0.38,1.68-0.92,2.33-1.62c0.64-0.7,1.13-1.57,1.47-2.58
	C370.1,163.43,370.27,162.28,370.27,161z M376.81,158.41c1.91-1.74,4.2-2.62,6.88-2.62c0.97,0,1.84,0.16,2.6,0.48
	c0.76,0.32,1.41,0.76,1.94,1.32c0.53,0.57,0.93,1.24,1.2,2.03c0.27,0.79,0.41,1.65,0.41,2.58v10.46h-1.81
	c-0.38,0-0.67-0.06-0.87-0.17c-0.2-0.11-0.37-0.34-0.48-0.69l-0.36-1.19c-0.42,0.38-0.83,0.71-1.23,0.99
	c-0.4,0.29-0.81,0.52-1.24,0.72c-0.43,0.19-0.89,0.34-1.38,0.44s-1.03,0.15-1.62,0.15c-0.7,0-1.35-0.09-1.94-0.28
	s-1.1-0.47-1.53-0.85s-0.76-0.85-1-1.4c-0.24-0.56-0.36-1.21-0.36-1.95c0-0.42,0.07-0.84,0.21-1.25c0.14-0.41,0.37-0.81,0.69-1.19
	s0.73-0.73,1.24-1.07c0.51-0.33,1.13-0.62,1.87-0.87s1.6-0.45,2.58-0.61c0.98-0.16,2.1-0.25,3.36-0.28v-0.97
	c0-1.11-0.24-1.93-0.71-2.46c-0.47-0.53-1.16-0.8-2.05-0.8c-0.65,0-1.18,0.08-1.61,0.23s-0.8,0.32-1.12,0.51
	c-0.32,0.19-0.62,0.36-0.88,0.51s-0.56,0.23-0.88,0.23c-0.28,0-0.52-0.07-0.71-0.22s-0.35-0.31-0.47-0.51L376.81,158.41z
	 M385.95,165.6c-1.15,0.05-2.12,0.15-2.91,0.3c-0.79,0.15-1.42,0.33-1.89,0.56s-0.81,0.49-1.02,0.79c-0.2,0.3-0.31,0.63-0.31,0.99
	c0,0.7,0.21,1.2,0.62,1.5s0.96,0.45,1.62,0.45c0.82,0,1.53-0.15,2.12-0.44c0.6-0.3,1.18-0.75,1.75-1.35v-2.8H385.95z M398.56,172.93
	c-1.44,0-2.55-0.41-3.32-1.22c-0.77-0.81-1.15-1.93-1.15-3.37v-9.25h-1.7c-0.22,0-0.4-0.07-0.55-0.21s-0.23-0.35-0.23-0.63v-1.58
	l2.66-0.44l0.84-4.52c0.05-0.22,0.16-0.38,0.31-0.5s0.34-0.18,0.58-0.18h2.07v5.22h4.42v2.84h-4.42v8.98c0,0.52,0.13,0.92,0.38,1.21
	c0.25,0.29,0.6,0.44,1.04,0.44c0.25,0,0.45-0.03,0.62-0.09c0.17-0.06,0.31-0.12,0.44-0.19c0.12-0.06,0.23-0.13,0.33-0.19
	c0.1-0.06,0.19-0.09,0.29-0.09c0.12,0,0.22,0.03,0.29,0.09c0.08,0.06,0.16,0.15,0.24,0.27l1.19,1.94c-0.58,0.48-1.25,0.85-2,1.1
	C400.15,172.81,399.37,172.93,398.56,172.93z M404.34,158.41c1.91-1.74,4.2-2.62,6.88-2.62c0.97,0,1.84,0.16,2.6,0.48
	c0.76,0.32,1.41,0.76,1.94,1.32c0.53,0.57,0.93,1.24,1.2,2.03c0.27,0.79,0.41,1.65,0.41,2.58v10.46h-1.81
	c-0.38,0-0.67-0.06-0.87-0.17c-0.2-0.11-0.37-0.34-0.48-0.69l-0.36-1.19c-0.42,0.38-0.83,0.71-1.23,0.99
	c-0.4,0.29-0.81,0.52-1.24,0.72c-0.43,0.19-0.89,0.34-1.38,0.44s-1.03,0.15-1.62,0.15c-0.7,0-1.35-0.09-1.94-0.28
	s-1.1-0.47-1.53-0.85s-0.76-0.85-1-1.4c-0.24-0.56-0.36-1.21-0.36-1.95c0-0.42,0.07-0.84,0.21-1.25c0.14-0.41,0.37-0.81,0.69-1.19
	s0.73-0.73,1.24-1.07c0.51-0.33,1.13-0.62,1.87-0.87s1.6-0.45,2.58-0.61c0.98-0.16,2.1-0.25,3.36-0.28v-0.97
	c0-1.11-0.24-1.93-0.71-2.46c-0.47-0.53-1.16-0.8-2.05-0.8c-0.65,0-1.18,0.08-1.61,0.23s-0.8,0.32-1.12,0.51
	c-0.32,0.19-0.62,0.36-0.88,0.51s-0.56,0.23-0.88,0.23c-0.28,0-0.52-0.07-0.71-0.22s-0.35-0.31-0.47-0.51L404.34,158.41z
	 M413.48,165.6c-1.15,0.05-2.12,0.15-2.91,0.3c-0.79,0.15-1.42,0.33-1.89,0.56s-0.81,0.49-1.02,0.79c-0.2,0.3-0.31,0.63-0.31,0.99
	c0,0.7,0.21,1.2,0.62,1.5s0.96,0.45,1.62,0.45c0.82,0,1.53-0.15,2.12-0.44c0.6-0.3,1.18-0.75,1.75-1.35v-2.8H413.48z"/>
<polygon class="st1" points="95.6,92.8 30.89,92.8 30.89,33.62 33.71,33.62 33.71,89.99 95.6,89.99 "/>
<polygon class="st1" points="39.91,79.04 38.78,76.47 44.75,73.86 48.53,57.34 56.89,67.11 62.5,62.52 65.55,66.43 73.08,50.99 
	81.52,47.94 82.51,50.58 75.12,53.22 66.1,71.71 62.05,66.52 56.55,71.03 50.02,63.42 47.18,75.86 "/>
<path class="st1" d="M90.33,44.97c-0.78-2.14-2.12-4.05-3.88-5.53c-5.52-4.63-13.79-3.91-18.42,1.61
	c-2.99,3.57-3.86,8.51-2.27,12.89c0.78,2.14,2.12,4.05,3.88,5.53c2.68,2.25,6.06,3.31,9.54,3.01c3.48-0.3,6.63-1.95,8.88-4.62
	C91.06,54.29,91.93,49.35,90.33,44.97 M63.04,54.93L63.04,54.93c-1.95-5.35-0.89-11.39,2.77-15.75c5.66-6.75,15.76-7.63,22.51-1.97
	c2.15,1.8,3.79,4.14,4.74,6.76c1.95,5.35,0.89,11.39-2.77,15.75c-2.74,3.27-6.6,5.27-10.85,5.65c-4.25,0.37-8.39-0.93-11.66-3.68
	C65.63,59.89,63.99,57.55,63.04,54.93"/>
<path class="st1" d="M96.41,61.06c-0.48,0.84-1.04,1.65-1.66,2.4c-0.63,0.75-1.32,1.44-2.07,2.05L104,75.02
	c1.23,1.03,3.06,0.87,4.09-0.36c0.99-1.18,0.83-3.09-0.36-4.09L96.41,61.06z M87.87,65.27l1.67-1.06c1.12-0.71,2.12-1.6,2.98-2.62
	s1.55-2.16,2.06-3.39l0.76-1.83l14.27,11.97c0.78,0.65,1.38,1.51,1.72,2.46c0.71,1.95,0.32,4.14-1.01,5.73
	c-2.06,2.45-5.73,2.78-8.19,0.72L87.87,65.27z"/>
<polygon class="st1" points="434.7,175.9 431.82,173.02 442.07,162.77 431.82,152.52 434.7,149.64 447.81,162.77 "/>
</svg>
