<?xml version="1.0" encoding="utf-8"?>
<!-- Generator: Adobe Illustrator 24.1.0, SVG Export Plug-In . SVG Version: 6.00 Build 0)  -->
<svg version="1.1" id="Layer_1" xmlns="http://www.w3.org/2000/svg" xmlns:xlink="http://www.w3.org/1999/xlink" x="0px" y="0px"
	 viewBox="0 0 1366 743.28" style="enable-background:new 0 0 1366 743.28;" xml:space="preserve">
<style type="text/css">
	.st0{clip-path:url(#SVGID_2_);fill:url(#SVGID_3_);}
	.st1{fill:#FFFFFF;}
	.st2{fill:#EFBB50;}
	.st3{fill:#003E6A;}
	.st4{fill:#00AB4E;}
</style>
<g>
	<g>
		<defs>
			<path id="SVGID_1_" d="M0,0v717.68c0,0,183.2-20.77,379.27-20.77c274.81,0,490.15,47.86,710.32,46.33
				c220.17-1.52,276.41-15.83,276.41-15.83V0H0z"/>
		</defs>
		<clipPath id="SVGID_2_">
			<use xlink:href="#SVGID_1_"  style="overflow:visible;"/>
		</clipPath>
		
			<linearGradient id="SVGID_3_" gradientUnits="userSpaceOnUse" x1="1.3655" y1="753.446" x2="2.0325" y2="753.446" gradientTransform="matrix(0 2011.1903 2011.1903 0 -1514640.25 -3494.2373)">
			<stop  offset="0" style="stop-color:#00BEF3"/>
			<stop  offset="1" style="stop-color:#003E6A"/>
		</linearGradient>
		<rect x="0" class="st0" width="1366" height="744.77"/>
	</g>
	<path class="st1" d="M186.95,338.95v18.03h-4.21v-7.62h-7.33v7.62h-4.21v-18.03h4.21v7.54h7.33v-7.54H186.95z M193.89,340.63
		c0,0.31-0.06,0.59-0.19,0.86c-0.12,0.27-0.29,0.5-0.51,0.71c-0.21,0.2-0.46,0.36-0.75,0.48c-0.28,0.12-0.59,0.18-0.91,0.18
		c-0.31,0-0.61-0.06-0.88-0.18c-0.27-0.12-0.51-0.28-0.72-0.48c-0.21-0.2-0.38-0.44-0.5-0.71c-0.12-0.27-0.18-0.55-0.18-0.86
		c0-0.31,0.06-0.61,0.18-0.88c0.12-0.27,0.28-0.51,0.5-0.72c0.21-0.21,0.45-0.37,0.72-0.48c0.27-0.12,0.57-0.17,0.88-0.17
		c0.32,0,0.63,0.06,0.91,0.17c0.28,0.12,0.53,0.28,0.75,0.48c0.21,0.21,0.38,0.45,0.51,0.72
		C193.83,340.02,193.89,340.32,193.89,340.63z M193.5,344.15v12.84h-3.84v-12.84H193.5z M207.58,344.54v1.4
		c0,0.21-0.06,0.38-0.18,0.51c-0.12,0.12-0.32,0.22-0.61,0.28l-0.93,0.21c0.05,0.18,0.09,0.37,0.12,0.56
		c0.03,0.19,0.04,0.39,0.04,0.59c0,0.64-0.13,1.22-0.4,1.73c-0.27,0.51-0.64,0.95-1.1,1.31c-0.47,0.36-1.02,0.64-1.65,0.83
		c-0.64,0.19-1.32,0.29-2.04,0.29c-0.2,0-0.39-0.01-0.58-0.02c-0.19-0.01-0.38-0.04-0.56-0.07c-0.28,0.17-0.42,0.37-0.42,0.58
		c0,0.21,0.12,0.37,0.35,0.46c0.23,0.09,0.54,0.16,0.92,0.2c0.38,0.04,0.81,0.06,1.29,0.07c0.48,0.01,0.98,0.04,1.48,0.09
		c0.5,0.05,1,0.12,1.48,0.23c0.48,0.11,0.91,0.28,1.29,0.52c0.38,0.24,0.68,0.56,0.92,0.96c0.23,0.4,0.35,0.91,0.35,1.53
		c0,0.58-0.14,1.14-0.42,1.7c-0.28,0.55-0.69,1.04-1.24,1.47c-0.54,0.43-1.21,0.77-2.01,1.03s-1.7,0.39-2.72,0.39
		c-1.01,0-1.88-0.09-2.61-0.28c-0.73-0.19-1.34-0.44-1.82-0.75s-0.84-0.67-1.07-1.07c-0.23-0.4-0.35-0.83-0.35-1.26
		c0-0.57,0.16-1.04,0.5-1.42c0.33-0.38,0.79-0.68,1.39-0.92c-0.31-0.19-0.56-0.43-0.74-0.73c-0.18-0.3-0.27-0.68-0.27-1.15
		c0-0.19,0.03-0.39,0.1-0.6c0.07-0.21,0.17-0.42,0.32-0.62c0.14-0.2,0.32-0.39,0.54-0.58c0.21-0.18,0.47-0.34,0.77-0.48
		c-0.67-0.35-1.2-0.82-1.58-1.4c-0.39-0.58-0.58-1.26-0.58-2.04c0-0.64,0.14-1.22,0.41-1.74c0.27-0.52,0.65-0.95,1.12-1.31
		c0.47-0.36,1.03-0.64,1.68-0.83c0.64-0.19,1.34-0.29,2.09-0.29c1.09,0,2.05,0.21,2.9,0.62H207.58z M203.79,357.45
		c0-0.31-0.14-0.53-0.41-0.66c-0.27-0.14-0.63-0.23-1.06-0.29c-0.44-0.06-0.93-0.09-1.47-0.11c-0.54-0.01-1.08-0.04-1.62-0.09
		c-0.24,0.17-0.44,0.35-0.59,0.55c-0.15,0.2-0.23,0.43-0.23,0.69c0,0.18,0.04,0.35,0.12,0.5c0.08,0.15,0.22,0.28,0.41,0.38
		c0.2,0.11,0.46,0.19,0.8,0.25c0.33,0.06,0.76,0.09,1.27,0.09c0.55,0,1.01-0.03,1.36-0.1c0.35-0.07,0.64-0.16,0.85-0.27
		c0.21-0.12,0.36-0.25,0.44-0.41C203.75,357.82,203.79,357.64,203.79,357.45z M200.82,349.89c0.64,0,1.1-0.16,1.38-0.48
		c0.28-0.32,0.43-0.73,0.43-1.23c0-0.52-0.14-0.93-0.43-1.23c-0.28-0.3-0.74-0.45-1.38-0.45c-0.64,0-1.1,0.15-1.38,0.45
		c-0.28,0.3-0.43,0.71-0.43,1.23c0,0.25,0.03,0.47,0.11,0.68c0.07,0.21,0.18,0.39,0.33,0.54c0.15,0.15,0.34,0.27,0.56,0.36
		C200.24,349.85,200.51,349.89,200.82,349.89z M212.77,345.27c0.46-0.4,0.96-0.72,1.5-0.96c0.54-0.24,1.19-0.37,1.94-0.37
		c0.7,0,1.32,0.12,1.86,0.37c0.54,0.24,1,0.58,1.37,1.02c0.37,0.43,0.65,0.95,0.84,1.55c0.19,0.6,0.28,1.25,0.28,1.95v8.16h-3.84
		v-8.16c0-0.63-0.14-1.12-0.43-1.47c-0.29-0.35-0.71-0.53-1.27-0.53c-0.42,0-0.81,0.09-1.18,0.27c-0.37,0.18-0.72,0.42-1.07,0.72
		v9.16h-3.84v-18.53h3.84V345.27z M222.78,347.91h6.68V351h-6.68V347.91z M256.33,338.95l-5.57,18.03h-3.79l-3.39-11.18
		c-0.07-0.17-0.13-0.37-0.19-0.58c-0.06-0.21-0.12-0.43-0.17-0.66c-0.06,0.23-0.12,0.45-0.17,0.66c-0.06,0.21-0.12,0.4-0.19,0.58
		l-3.44,11.18h-3.79l-5.57-18.03h3.52c0.36,0,0.67,0.08,0.91,0.25c0.24,0.17,0.4,0.38,0.48,0.66l2.48,9.41
		c0.07,0.3,0.15,0.62,0.22,0.97c0.07,0.35,0.15,0.72,0.22,1.1c0.15-0.78,0.33-1.46,0.54-2.07l2.92-9.41
		c0.07-0.23,0.23-0.44,0.48-0.63c0.24-0.19,0.54-0.28,0.89-0.28h1.24c0.36,0,0.66,0.08,0.88,0.25c0.22,0.17,0.39,0.39,0.51,0.65
		l2.9,9.41c0.21,0.58,0.4,1.23,0.54,1.97c0.07-0.37,0.13-0.72,0.2-1.05c0.07-0.33,0.14-0.63,0.22-0.92l2.48-9.41
		c0.07-0.24,0.22-0.45,0.47-0.63c0.25-0.18,0.54-0.27,0.89-0.27H256.33z M259.79,346.13c0.4-0.69,0.85-1.24,1.37-1.63
		c0.52-0.4,1.11-0.59,1.78-0.59c0.58,0,1.05,0.14,1.41,0.41l-0.25,2.82c-0.04,0.18-0.11,0.31-0.2,0.37c-0.09,0.07-0.22,0.1-0.39,0.1
		c-0.07,0-0.15,0-0.26-0.01c-0.11-0.01-0.22-0.02-0.33-0.03c-0.12-0.01-0.23-0.02-0.35-0.04c-0.12-0.01-0.23-0.02-0.33-0.02
		c-0.56,0-1.01,0.15-1.34,0.45c-0.33,0.3-0.62,0.71-0.85,1.24v7.8h-3.84v-12.84h2.28c0.19,0,0.35,0.02,0.48,0.05
		c0.13,0.03,0.24,0.08,0.32,0.15c0.09,0.07,0.15,0.16,0.2,0.28c0.05,0.12,0.08,0.26,0.12,0.42L259.79,346.13z M269.71,340.63
		c0,0.31-0.06,0.59-0.19,0.86c-0.12,0.27-0.29,0.5-0.51,0.71c-0.21,0.2-0.46,0.36-0.75,0.48c-0.28,0.12-0.59,0.18-0.91,0.18
		c-0.31,0-0.61-0.06-0.88-0.18c-0.27-0.12-0.51-0.28-0.72-0.48c-0.21-0.2-0.38-0.44-0.5-0.71c-0.12-0.27-0.18-0.55-0.18-0.86
		c0-0.31,0.06-0.61,0.18-0.88c0.12-0.27,0.28-0.51,0.5-0.72c0.21-0.21,0.45-0.37,0.72-0.48c0.27-0.12,0.57-0.17,0.88-0.17
		c0.32,0,0.63,0.06,0.91,0.17c0.28,0.12,0.53,0.28,0.75,0.48c0.21,0.21,0.38,0.45,0.51,0.72
		C269.65,340.02,269.71,340.32,269.71,340.63z M269.31,344.15v12.84h-3.84v-12.84H269.31z M285.63,356.98h-3.84v-10.19h-5.37v6.37
		c0,0.3,0.07,0.54,0.22,0.74c0.14,0.19,0.35,0.29,0.63,0.29c0.14,0,0.26-0.01,0.35-0.04c0.09-0.03,0.18-0.06,0.25-0.1
		c0.07-0.04,0.14-0.07,0.2-0.1c0.06-0.03,0.13-0.04,0.22-0.04c0.12,0,0.21,0.03,0.28,0.08c0.07,0.05,0.14,0.14,0.22,0.25l1.16,1.82
		c-0.5,0.37-1.05,0.65-1.67,0.84c-0.62,0.19-1.26,0.28-1.92,0.28c-0.61,0-1.15-0.09-1.62-0.27c-0.47-0.18-0.86-0.43-1.18-0.76
		c-0.32-0.33-0.56-0.72-0.72-1.18c-0.17-0.46-0.25-0.98-0.25-1.55v-6.63h-1.09c-0.2,0-0.37-0.06-0.51-0.19
		c-0.14-0.13-0.21-0.32-0.21-0.56v-1.5l2.04-0.41l0.76-3.12c0.1-0.4,0.38-0.59,0.84-0.59h2.01v3.75h9.21V356.98z M286.16,340.62
		c0,0.31-0.06,0.59-0.19,0.87c-0.12,0.27-0.29,0.51-0.51,0.71c-0.21,0.2-0.46,0.36-0.75,0.48c-0.28,0.12-0.59,0.17-0.91,0.17
		c-0.31,0-0.61-0.06-0.88-0.17c-0.27-0.12-0.51-0.27-0.72-0.48c-0.21-0.2-0.38-0.44-0.5-0.71c-0.12-0.27-0.18-0.56-0.18-0.87
		c0-0.31,0.06-0.6,0.18-0.87c0.12-0.28,0.28-0.52,0.5-0.72c0.21-0.2,0.45-0.36,0.72-0.48c0.27-0.12,0.57-0.18,0.88-0.18
		c0.32,0,0.63,0.06,0.91,0.18c0.28,0.12,0.53,0.28,0.75,0.48c0.21,0.2,0.38,0.44,0.51,0.72
		C286.1,340.02,286.16,340.31,286.16,340.62z M291.6,345.53c0.25-0.23,0.5-0.45,0.77-0.64c0.26-0.2,0.55-0.37,0.85-0.5
		c0.3-0.14,0.63-0.24,0.98-0.32c0.35-0.08,0.73-0.12,1.14-0.12c0.7,0,1.32,0.12,1.86,0.37c0.54,0.24,1,0.58,1.37,1.02
		c0.37,0.43,0.65,0.95,0.84,1.55c0.19,0.6,0.28,1.25,0.28,1.95v8.16h-3.84v-8.16c0-0.63-0.14-1.12-0.43-1.47
		c-0.29-0.35-0.71-0.53-1.27-0.53c-0.42,0-0.81,0.09-1.18,0.27c-0.37,0.18-0.72,0.42-1.07,0.72v9.16h-3.84v-12.84h2.38
		c0.48,0,0.79,0.21,0.94,0.64L291.6,345.53z M313.58,344.54v1.4c0,0.21-0.06,0.38-0.18,0.51c-0.12,0.12-0.32,0.22-0.61,0.28
		l-0.93,0.21c0.05,0.18,0.09,0.37,0.12,0.56c0.03,0.19,0.04,0.39,0.04,0.59c0,0.64-0.13,1.22-0.4,1.73
		c-0.27,0.51-0.64,0.95-1.1,1.31c-0.47,0.36-1.02,0.64-1.65,0.83c-0.64,0.19-1.32,0.29-2.04,0.29c-0.2,0-0.39-0.01-0.58-0.02
		c-0.19-0.01-0.38-0.04-0.56-0.07c-0.28,0.17-0.42,0.37-0.42,0.58c0,0.21,0.12,0.37,0.35,0.46c0.23,0.09,0.54,0.16,0.92,0.2
		c0.38,0.04,0.81,0.06,1.29,0.07c0.48,0.01,0.98,0.04,1.48,0.09c0.5,0.05,1,0.12,1.48,0.23c0.48,0.11,0.91,0.28,1.29,0.52
		c0.38,0.24,0.68,0.56,0.92,0.96c0.23,0.4,0.35,0.91,0.35,1.53c0,0.58-0.14,1.14-0.42,1.7c-0.28,0.55-0.69,1.04-1.24,1.47
		c-0.54,0.43-1.21,0.77-2.01,1.03s-1.7,0.39-2.72,0.39c-1.01,0-1.88-0.09-2.61-0.28c-0.73-0.19-1.34-0.44-1.82-0.75
		c-0.48-0.31-0.84-0.67-1.07-1.07c-0.23-0.4-0.35-0.83-0.35-1.26c0-0.57,0.16-1.04,0.5-1.42c0.33-0.38,0.79-0.68,1.39-0.92
		c-0.31-0.19-0.56-0.43-0.74-0.73c-0.18-0.3-0.27-0.68-0.27-1.15c0-0.19,0.03-0.39,0.1-0.6c0.07-0.21,0.17-0.42,0.32-0.62
		c0.14-0.2,0.32-0.39,0.54-0.58c0.21-0.18,0.47-0.34,0.77-0.48c-0.67-0.35-1.2-0.82-1.58-1.4c-0.39-0.58-0.58-1.26-0.58-2.04
		c0-0.64,0.14-1.22,0.41-1.74c0.27-0.52,0.65-0.95,1.12-1.31c0.47-0.36,1.03-0.64,1.68-0.83c0.64-0.19,1.34-0.29,2.09-0.29
		c1.09,0,2.05,0.21,2.9,0.62H313.58z M309.79,357.45c0-0.31-0.14-0.53-0.41-0.66c-0.27-0.14-0.63-0.23-1.06-0.29
		c-0.44-0.06-0.93-0.09-1.47-0.11c-0.54-0.01-1.08-0.04-1.62-0.09c-0.24,0.17-0.44,0.35-0.59,0.55c-0.15,0.2-0.23,0.43-0.23,0.69
		c0,0.18,0.04,0.35,0.12,0.5c0.08,0.15,0.22,0.28,0.41,0.38c0.2,0.11,0.46,0.19,0.8,0.25c0.33,0.06,0.76,0.09,1.27,0.09
		c0.55,0,1.01-0.03,1.36-0.1c0.35-0.07,0.64-0.16,0.85-0.27c0.21-0.12,0.36-0.25,0.44-0.41
		C309.75,357.82,309.79,357.64,309.79,357.45z M306.82,349.89c0.64,0,1.1-0.16,1.38-0.48c0.28-0.32,0.43-0.73,0.43-1.23
		c0-0.52-0.14-0.93-0.43-1.23c-0.28-0.3-0.74-0.45-1.38-0.45c-0.64,0-1.1,0.15-1.38,0.45c-0.28,0.3-0.43,0.71-0.43,1.23
		c0,0.25,0.04,0.47,0.11,0.68c0.07,0.21,0.18,0.39,0.33,0.54c0.15,0.15,0.34,0.27,0.56,0.36
		C306.23,349.85,306.5,349.89,306.82,349.89z M333,352.31c0.1,0,0.2,0.02,0.3,0.06c0.1,0.04,0.19,0.1,0.28,0.19l1.66,1.75
		c-0.73,0.95-1.64,1.66-2.73,2.15c-1.09,0.48-2.39,0.72-3.88,0.72c-1.37,0-2.6-0.23-3.68-0.7c-1.09-0.47-2.01-1.11-2.76-1.93
		c-0.76-0.82-1.33-1.79-1.74-2.92c-0.4-1.13-0.61-2.35-0.61-3.67c0-1.34,0.22-2.58,0.66-3.71c0.44-1.13,1.05-2.1,1.84-2.92
		c0.79-0.82,1.74-1.45,2.85-1.91c1.11-0.45,2.32-0.68,3.65-0.68c0.68,0,1.31,0.06,1.91,0.18c0.6,0.12,1.16,0.28,1.68,0.5
		c0.52,0.21,1,0.46,1.44,0.76c0.44,0.3,0.83,0.62,1.16,0.97l-1.41,1.89c-0.09,0.12-0.2,0.22-0.32,0.32
		c-0.12,0.09-0.3,0.14-0.52,0.14c-0.15,0-0.29-0.03-0.42-0.1c-0.13-0.07-0.27-0.15-0.42-0.24c-0.15-0.09-0.31-0.2-0.49-0.31
		c-0.18-0.11-0.39-0.21-0.63-0.31c-0.24-0.09-0.53-0.18-0.85-0.24c-0.33-0.07-0.71-0.1-1.14-0.1c-0.69,0-1.33,0.13-1.9,0.38
		c-0.57,0.26-1.07,0.63-1.49,1.12c-0.42,0.49-0.74,1.09-0.97,1.81c-0.23,0.71-0.34,1.53-0.34,2.44c0,0.92,0.13,1.75,0.38,2.46
		c0.25,0.72,0.59,1.32,1.03,1.81c0.43,0.49,0.94,0.86,1.52,1.12c0.58,0.26,1.2,0.38,1.86,0.38c0.38,0,0.73-0.02,1.04-0.06
		c0.31-0.04,0.61-0.1,0.88-0.19s0.53-0.2,0.77-0.35c0.24-0.14,0.48-0.33,0.73-0.55c0.1-0.08,0.21-0.15,0.32-0.2
		C332.75,352.34,332.87,352.31,333,352.31z M342.02,343.95c0.97,0,1.86,0.15,2.66,0.46c0.8,0.31,1.49,0.74,2.06,1.31
		c0.57,0.57,1.02,1.26,1.34,2.07c0.32,0.81,0.48,1.73,0.48,2.74c0,1.02-0.16,1.95-0.48,2.77c-0.32,0.82-0.76,1.52-1.34,2.09
		c-0.57,0.57-1.26,1.01-2.06,1.32c-0.8,0.31-1.69,0.46-2.66,0.46c-0.98,0-1.88-0.15-2.68-0.46c-0.8-0.31-1.5-0.75-2.08-1.32
		c-0.58-0.57-1.03-1.27-1.35-2.09c-0.32-0.82-0.48-1.74-0.48-2.77c0-1.01,0.16-1.93,0.48-2.74c0.32-0.81,0.77-1.5,1.35-2.07
		s1.27-1.01,2.08-1.31C340.14,344.1,341.04,343.95,342.02,343.95z M342.02,354.33c0.88,0,1.53-0.31,1.95-0.93
		c0.42-0.62,0.63-1.57,0.63-2.84c0-1.27-0.21-2.22-0.63-2.83c-0.42-0.62-1.07-0.93-1.95-0.93c-0.91,0-1.57,0.31-1.99,0.93
		c-0.42,0.62-0.63,1.56-0.63,2.83c0,1.27,0.21,2.22,0.63,2.84C340.45,354.02,341.11,354.33,342.02,354.33z M353.78,345.53
		c0.25-0.23,0.5-0.45,0.77-0.64c0.26-0.2,0.55-0.37,0.85-0.5c0.3-0.14,0.63-0.24,0.98-0.32c0.35-0.08,0.73-0.12,1.14-0.12
		c0.7,0,1.32,0.12,1.86,0.37c0.54,0.24,1,0.58,1.37,1.02c0.37,0.43,0.65,0.95,0.84,1.55c0.19,0.6,0.28,1.25,0.28,1.95v8.16h-3.84
		v-8.16c0-0.63-0.14-1.12-0.43-1.47c-0.29-0.35-0.71-0.53-1.27-0.53c-0.42,0-0.82,0.09-1.18,0.27c-0.37,0.18-0.72,0.42-1.07,0.72
		v9.16h-3.84v-12.84h2.38c0.48,0,0.79,0.21,0.94,0.64L353.78,345.53z M368.52,357.18c-0.61,0-1.15-0.09-1.62-0.27
		c-0.47-0.18-0.86-0.43-1.18-0.76c-0.32-0.33-0.56-0.72-0.72-1.18c-0.17-0.46-0.25-0.98-0.25-1.55v-6.63h-1.09
		c-0.2,0-0.37-0.06-0.51-0.19c-0.14-0.13-0.21-0.32-0.21-0.56v-1.5l2.04-0.4l0.76-3.13c0.1-0.4,0.38-0.59,0.84-0.59h2.01v3.75h3.18
		v2.62h-3.18v6.37c0,0.3,0.07,0.54,0.22,0.74c0.14,0.19,0.35,0.29,0.63,0.29c0.14,0,0.26-0.01,0.35-0.04
		c0.09-0.03,0.18-0.06,0.25-0.1c0.07-0.04,0.14-0.07,0.2-0.1c0.06-0.03,0.13-0.04,0.22-0.04c0.12,0,0.21,0.03,0.28,0.08
		c0.07,0.05,0.14,0.14,0.22,0.25l1.16,1.82c-0.5,0.37-1.05,0.65-1.67,0.84C369.82,357.09,369.18,357.18,368.52,357.18z
		 M376.78,346.13c0.4-0.69,0.85-1.24,1.37-1.63c0.52-0.4,1.11-0.59,1.78-0.59c0.58,0,1.05,0.14,1.41,0.41l-0.25,2.82
		c-0.04,0.18-0.11,0.31-0.2,0.37c-0.09,0.07-0.22,0.1-0.39,0.1c-0.07,0-0.15,0-0.26-0.01c-0.11-0.01-0.22-0.02-0.33-0.03
		c-0.12-0.01-0.23-0.02-0.35-0.04c-0.12-0.01-0.23-0.02-0.33-0.02c-0.56,0-1.01,0.15-1.34,0.45c-0.33,0.3-0.62,0.71-0.85,1.24v7.8
		h-3.84v-12.84h2.28c0.19,0,0.35,0.02,0.48,0.05c0.13,0.03,0.24,0.08,0.32,0.15c0.09,0.07,0.15,0.16,0.2,0.28
		c0.05,0.12,0.08,0.26,0.12,0.42L376.78,346.13z M388.08,343.95c0.97,0,1.86,0.15,2.66,0.46c0.8,0.31,1.49,0.74,2.06,1.31
		c0.57,0.57,1.02,1.26,1.34,2.07c0.32,0.81,0.48,1.73,0.48,2.74c0,1.02-0.16,1.95-0.48,2.77c-0.32,0.82-0.76,1.52-1.34,2.09
		c-0.57,0.57-1.26,1.01-2.06,1.32c-0.8,0.31-1.69,0.46-2.66,0.46c-0.98,0-1.88-0.15-2.68-0.46c-0.8-0.31-1.5-0.75-2.08-1.32
		c-0.58-0.57-1.03-1.27-1.35-2.09c-0.32-0.82-0.48-1.74-0.48-2.77c0-1.01,0.16-1.93,0.48-2.74c0.32-0.81,0.77-1.5,1.35-2.07
		c0.58-0.57,1.27-1.01,2.08-1.31C386.2,344.1,387.09,343.95,388.08,343.95z M388.08,354.33c0.88,0,1.53-0.31,1.95-0.93
		c0.42-0.62,0.63-1.57,0.63-2.84c0-1.27-0.21-2.22-0.63-2.83c-0.42-0.62-1.07-0.93-1.95-0.93c-0.91,0-1.57,0.31-1.99,0.93
		c-0.42,0.62-0.63,1.56-0.63,2.83c0,1.27,0.21,2.22,0.63,2.84C386.5,354.02,387.17,354.33,388.08,354.33z M400.13,338.45v18.53
		h-3.84v-18.53H400.13z M406.32,338.45v18.53h-3.84v-18.53H406.32z M411.83,351.25c0.12,1.07,0.45,1.85,0.98,2.33
		c0.53,0.48,1.21,0.72,2.04,0.72c0.45,0,0.83-0.05,1.15-0.16c0.32-0.11,0.61-0.23,0.86-0.36c0.25-0.13,0.48-0.25,0.69-0.36
		c0.21-0.11,0.43-0.16,0.66-0.16c0.31,0,0.54,0.11,0.69,0.33l1.11,1.37c-0.4,0.45-0.82,0.82-1.28,1.11
		c-0.46,0.28-0.93,0.51-1.41,0.67c-0.48,0.16-0.97,0.27-1.45,0.33c-0.48,0.06-0.94,0.09-1.38,0.09c-0.9,0-1.74-0.15-2.53-0.44
		c-0.79-0.29-1.48-0.73-2.07-1.31c-0.59-0.58-1.06-1.3-1.4-2.15c-0.34-0.86-0.51-1.86-0.51-3c0-0.86,0.15-1.67,0.44-2.44
		c0.29-0.77,0.71-1.44,1.26-2.02c0.55-0.58,1.21-1.04,1.99-1.37c0.78-0.34,1.66-0.51,2.64-0.51c0.85,0,1.63,0.13,2.33,0.4
		c0.71,0.26,1.31,0.65,1.82,1.15c0.51,0.5,0.9,1.12,1.19,1.85c0.28,0.73,0.43,1.56,0.43,2.48c0,0.29-0.01,0.52-0.04,0.71
		c-0.02,0.18-0.07,0.33-0.14,0.43c-0.07,0.11-0.15,0.18-0.27,0.22c-0.11,0.04-0.25,0.06-0.43,0.06H411.83z M416.66,349.02
		c0-0.31-0.04-0.6-0.12-0.89c-0.08-0.29-0.21-0.55-0.38-0.77c-0.18-0.23-0.41-0.41-0.7-0.55c-0.29-0.14-0.64-0.21-1.05-0.21
		c-0.73,0-1.3,0.21-1.71,0.63c-0.41,0.42-0.69,1.02-0.82,1.8H416.66z M425.36,346.13c0.4-0.69,0.85-1.24,1.37-1.63
		c0.52-0.4,1.11-0.59,1.78-0.59c0.58,0,1.05,0.14,1.41,0.41l-0.25,2.82c-0.04,0.18-0.11,0.31-0.2,0.37c-0.09,0.07-0.22,0.1-0.39,0.1
		c-0.07,0-0.15,0-0.26-0.01c-0.11-0.01-0.22-0.02-0.33-0.03c-0.12-0.01-0.23-0.02-0.35-0.04c-0.12-0.01-0.23-0.02-0.33-0.02
		c-0.56,0-1.01,0.15-1.34,0.45c-0.33,0.3-0.62,0.71-0.85,1.24v7.8h-3.84v-12.84h2.28c0.19,0,0.35,0.02,0.48,0.05
		c0.13,0.03,0.24,0.08,0.32,0.15c0.09,0.07,0.15,0.16,0.2,0.28c0.05,0.12,0.08,0.26,0.12,0.42L425.36,346.13z M439.11,346.95
		c-0.1,0.16-0.2,0.27-0.32,0.33c-0.11,0.07-0.25,0.1-0.43,0.1c-0.18,0-0.36-0.04-0.54-0.12c-0.18-0.08-0.38-0.16-0.59-0.25
		c-0.21-0.09-0.45-0.18-0.71-0.25c-0.26-0.08-0.57-0.12-0.9-0.12c-0.49,0-0.86,0.09-1.12,0.28c-0.26,0.19-0.39,0.44-0.39,0.77
		c0,0.24,0.08,0.44,0.25,0.59c0.17,0.16,0.39,0.3,0.67,0.41c0.28,0.12,0.6,0.23,0.95,0.34c0.35,0.11,0.72,0.23,1.09,0.36
		c0.37,0.13,0.73,0.29,1.09,0.46c0.35,0.18,0.67,0.4,0.95,0.66c0.28,0.26,0.51,0.58,0.67,0.95c0.17,0.37,0.25,0.82,0.25,1.34
		c0,0.64-0.12,1.22-0.35,1.76c-0.23,0.54-0.58,1-1.03,1.39c-0.46,0.39-1.02,0.69-1.7,0.9c-0.67,0.21-1.45,0.32-2.32,0.32
		c-0.44,0-0.87-0.04-1.31-0.12c-0.44-0.08-0.86-0.19-1.27-0.33c-0.41-0.14-0.79-0.31-1.13-0.5c-0.35-0.19-0.64-0.4-0.89-0.63
		l0.89-1.41c0.1-0.16,0.22-0.29,0.38-0.39c0.15-0.09,0.35-0.14,0.59-0.14c0.22,0,0.42,0.05,0.6,0.15c0.18,0.1,0.37,0.21,0.58,0.32
		c0.21,0.12,0.45,0.22,0.72,0.32c0.28,0.1,0.63,0.15,1.05,0.15c0.3,0,0.55-0.03,0.76-0.09c0.21-0.06,0.37-0.15,0.5-0.25
		c0.12-0.11,0.21-0.23,0.27-0.36c0.06-0.13,0.09-0.27,0.09-0.41c0-0.26-0.09-0.47-0.26-0.63c-0.17-0.16-0.4-0.31-0.68-0.43
		c-0.28-0.12-0.6-0.23-0.96-0.33c-0.36-0.1-0.72-0.22-1.1-0.35c-0.37-0.13-0.74-0.29-1.1-0.48s-0.68-0.42-0.96-0.71
		c-0.28-0.28-0.51-0.63-0.68-1.05c-0.17-0.41-0.26-0.91-0.26-1.5c0-0.54,0.11-1.06,0.32-1.55c0.21-0.49,0.53-0.92,0.95-1.29
		c0.42-0.37,0.95-0.67,1.58-0.88c0.64-0.22,1.38-0.33,2.23-0.33c0.46,0,0.91,0.04,1.34,0.12c0.43,0.08,0.84,0.2,1.22,0.35
		c0.38,0.15,0.73,0.32,1.04,0.53c0.31,0.2,0.59,0.42,0.83,0.66L439.11,346.95z"/>
	<g>
		<path class="st2" d="M608.31,67.74v2.74h-8.91V55.7h3.43v12.04H608.31z"/>
		<path class="st2" d="M615.74,67.77c0.46,0,0.87-0.08,1.23-0.23c0.36-0.15,0.67-0.37,0.92-0.65c0.25-0.28,0.44-0.63,0.57-1.04
			c0.13-0.41,0.2-0.87,0.2-1.39V55.7h3.43v8.76c0,0.91-0.15,1.74-0.44,2.5c-0.29,0.76-0.72,1.41-1.26,1.96
			c-0.55,0.55-1.21,0.97-2,1.28c-0.78,0.3-1.67,0.46-2.65,0.46c-0.99,0-1.87-0.15-2.66-0.46c-0.78-0.3-1.45-0.73-2-1.28
			c-0.55-0.55-0.97-1.2-1.26-1.96c-0.29-0.76-0.44-1.59-0.44-2.5V55.7h3.43v8.75c0,0.52,0.07,0.99,0.2,1.39
			c0.13,0.41,0.32,0.76,0.57,1.05c0.25,0.29,0.56,0.51,0.92,0.66C614.87,67.69,615.28,67.77,615.74,67.77z"/>
		<path class="st2" d="M629.8,55.7c1.04,0,1.94,0.12,2.68,0.37c0.75,0.25,1.36,0.59,1.85,1.02c0.48,0.43,0.84,0.94,1.07,1.53
			c0.23,0.59,0.35,1.22,0.35,1.91c0,0.74-0.12,1.41-0.36,2.03c-0.24,0.62-0.6,1.14-1.09,1.58c-0.49,0.44-1.1,0.78-1.85,1.03
			c-0.75,0.25-1.63,0.37-2.65,0.37h-1.79v4.94h-3.43V55.7H629.8z M629.8,62.95c0.89,0,1.54-0.21,1.93-0.64
			c0.39-0.43,0.59-1.02,0.59-1.79c0-0.34-0.05-0.65-0.15-0.92c-0.1-0.28-0.26-0.52-0.46-0.72c-0.21-0.2-0.47-0.35-0.78-0.46
			s-0.69-0.16-1.12-0.16h-1.79v4.69H629.8z"/>
		<path class="st2" d="M640.76,70.48h-3.45V55.7h3.45V70.48z"/>
		<path class="st2" d="M656.34,55.7v14.78h-1.79c-0.26,0-0.49-0.04-0.66-0.13c-0.18-0.08-0.36-0.23-0.53-0.44l-6.97-8.82
			c0.03,0.26,0.05,0.52,0.06,0.77c0.01,0.25,0.02,0.48,0.02,0.7v7.92h-3.02V55.7h1.81c0.15,0,0.27,0.01,0.38,0.02
			c0.1,0.01,0.19,0.04,0.27,0.08c0.08,0.04,0.16,0.09,0.23,0.16c0.07,0.07,0.16,0.16,0.25,0.27l7.03,8.88
			c-0.03-0.28-0.06-0.56-0.07-0.83c-0.01-0.27-0.02-0.52-0.02-0.76V55.7H656.34z"/>
		<path class="st2" d="M669.69,67.77c0.46,0,0.87-0.08,1.23-0.23c0.36-0.15,0.67-0.37,0.92-0.65c0.25-0.28,0.44-0.63,0.57-1.04
			c0.13-0.41,0.2-0.87,0.2-1.39V55.7h3.43v8.76c0,0.91-0.15,1.74-0.44,2.5c-0.29,0.76-0.72,1.41-1.26,1.96
			c-0.55,0.55-1.21,0.97-2,1.28c-0.78,0.3-1.67,0.46-2.65,0.46c-0.99,0-1.87-0.15-2.66-0.46c-0.78-0.3-1.45-0.73-2-1.28
			c-0.55-0.55-0.97-1.2-1.26-1.96c-0.29-0.76-0.44-1.59-0.44-2.5V55.7h3.43v8.75c0,0.52,0.07,0.99,0.2,1.39
			c0.13,0.41,0.32,0.76,0.57,1.05c0.25,0.29,0.56,0.51,0.92,0.66C668.82,67.69,669.23,67.77,669.69,67.77z"/>
		<path class="st2" d="M686.71,58.7c-0.1,0.16-0.21,0.28-0.32,0.37c-0.11,0.08-0.26,0.12-0.43,0.12c-0.16,0-0.32-0.05-0.5-0.15
			c-0.18-0.1-0.38-0.21-0.61-0.33s-0.49-0.23-0.78-0.33c-0.29-0.1-0.62-0.15-0.99-0.15c-0.64,0-1.12,0.14-1.44,0.41
			c-0.31,0.27-0.47,0.64-0.47,1.11c0,0.3,0.09,0.54,0.28,0.74c0.19,0.2,0.44,0.37,0.75,0.51c0.31,0.14,0.66,0.27,1.06,0.39
			c0.4,0.12,0.8,0.25,1.21,0.4c0.41,0.15,0.82,0.32,1.21,0.51c0.4,0.2,0.75,0.45,1.06,0.75c0.31,0.3,0.56,0.67,0.75,1.11
			c0.19,0.44,0.28,0.96,0.28,1.58c0,0.68-0.12,1.32-0.36,1.92c-0.24,0.6-0.58,1.11-1.03,1.56c-0.45,0.44-1,0.79-1.66,1.05
			c-0.66,0.25-1.41,0.38-2.25,0.38c-0.46,0-0.93-0.05-1.41-0.14c-0.48-0.09-0.94-0.23-1.38-0.4c-0.45-0.17-0.87-0.38-1.26-0.61
			c-0.39-0.24-0.73-0.5-1.02-0.79l1.01-1.6c0.08-0.11,0.19-0.21,0.32-0.29c0.13-0.08,0.28-0.12,0.43-0.12c0.2,0,0.41,0.06,0.61,0.19
			c0.21,0.13,0.44,0.27,0.7,0.43c0.26,0.16,0.56,0.3,0.9,0.43c0.34,0.13,0.74,0.19,1.2,0.19c0.62,0,1.11-0.14,1.45-0.41
			c0.34-0.27,0.52-0.71,0.52-1.3c0-0.34-0.09-0.63-0.28-0.84c-0.19-0.22-0.44-0.4-0.75-0.54c-0.31-0.14-0.66-0.27-1.05-0.38
			c-0.39-0.11-0.79-0.23-1.21-0.36c-0.41-0.13-0.81-0.29-1.21-0.49c-0.39-0.19-0.74-0.45-1.05-0.76c-0.31-0.31-0.56-0.71-0.75-1.18
			c-0.19-0.47-0.28-1.05-0.28-1.74c0-0.55,0.11-1.1,0.33-1.62c0.22-0.53,0.55-1,0.98-1.41c0.43-0.41,0.96-0.74,1.59-0.99
			c0.63-0.25,1.35-0.37,2.16-0.37c0.45,0,0.89,0.04,1.32,0.11c0.43,0.07,0.84,0.18,1.22,0.31c0.39,0.14,0.75,0.3,1.08,0.5
			c0.33,0.19,0.63,0.41,0.9,0.65L686.71,58.7z"/>
		<path class="st2" d="M693.05,58.33v3.45h4.65v2.54h-4.65v3.52h6.07v2.64h-9.52V55.7h9.52v2.64H693.05z"/>
		<path class="st2" d="M720.06,63.08c0,1.07-0.18,2.06-0.55,2.98c-0.37,0.92-0.89,1.72-1.56,2.4c-0.67,0.68-1.48,1.21-2.42,1.6
			c-0.94,0.39-1.99,0.58-3.14,0.58s-2.2-0.19-3.15-0.58c-0.95-0.39-1.76-0.92-2.43-1.6c-0.67-0.68-1.19-1.48-1.56-2.4
			c-0.37-0.92-0.55-1.91-0.55-2.98c0-1.07,0.18-2.06,0.55-2.98c0.37-0.92,0.89-1.72,1.56-2.39c0.67-0.68,1.48-1.21,2.43-1.59
			c0.95-0.39,2-0.58,3.15-0.58s2.2,0.19,3.14,0.58c0.94,0.39,1.75,0.92,2.42,1.6s1.19,1.47,1.56,2.39
			C719.88,61.03,720.06,62.02,720.06,63.08z M716.55,63.08c0-0.73-0.1-1.39-0.28-1.97c-0.19-0.59-0.46-1.08-0.82-1.49
			c-0.36-0.41-0.79-0.72-1.3-0.93c-0.51-0.22-1.1-0.32-1.76-0.32c-0.66,0-1.25,0.11-1.77,0.32c-0.52,0.22-0.95,0.53-1.31,0.93
			c-0.36,0.41-0.63,0.9-0.82,1.49c-0.19,0.58-0.28,1.24-0.28,1.97c0,0.74,0.1,1.4,0.28,1.98c0.19,0.58,0.46,1.08,0.82,1.49
			c0.36,0.41,0.79,0.72,1.31,0.93s1.11,0.32,1.77,0.32c0.66,0,1.24-0.11,1.76-0.32c0.51-0.21,0.95-0.52,1.3-0.93
			c0.36-0.41,0.63-0.9,0.82-1.49C716.46,64.48,716.55,63.82,716.55,63.08z"/>
		<path class="st2" d="M734.78,55.7v14.78H733c-0.26,0-0.49-0.04-0.66-0.13c-0.18-0.08-0.36-0.23-0.53-0.44l-6.97-8.82
			c0.03,0.26,0.05,0.52,0.06,0.77c0.01,0.25,0.01,0.48,0.01,0.7v7.92h-3.02V55.7h1.81c0.15,0,0.27,0.01,0.38,0.02
			c0.1,0.01,0.19,0.04,0.27,0.08c0.08,0.04,0.16,0.09,0.23,0.16c0.07,0.07,0.16,0.16,0.25,0.27l7.03,8.88
			c-0.03-0.28-0.06-0.56-0.07-0.83c-0.01-0.27-0.02-0.52-0.02-0.76V55.7H734.78z"/>
		<path class="st2" d="M746.37,67.74v2.74h-8.91V55.7h3.43v12.04H746.37z"/>
		<path class="st2" d="M753.07,64.86v5.62h-3.43v-5.62l-5.36-9.16h3.02c0.3,0,0.53,0.07,0.71,0.21c0.17,0.14,0.32,0.32,0.43,0.53
			l2.09,4.3c0.18,0.34,0.33,0.65,0.48,0.95c0.14,0.29,0.27,0.58,0.38,0.87c0.1-0.29,0.22-0.58,0.35-0.88
			c0.13-0.29,0.29-0.61,0.46-0.94l2.07-4.3c0.05-0.09,0.1-0.18,0.17-0.26c0.07-0.09,0.15-0.17,0.24-0.24
			c0.09-0.07,0.2-0.13,0.31-0.17c0.12-0.04,0.25-0.07,0.39-0.07h3.04L753.07,64.86z"/>
	</g>
	<g>
		<path class="st1" d="M618.49,353.64v3.34h-10.87v-18.03h4.18v14.69H618.49z"/>
		<path class="st1" d="M625.45,343.95c0.97,0,1.86,0.15,2.66,0.46c0.8,0.31,1.49,0.74,2.06,1.31c0.57,0.57,1.02,1.26,1.34,2.07
			c0.32,0.81,0.48,1.73,0.48,2.74c0,1.02-0.16,1.95-0.48,2.77c-0.32,0.82-0.76,1.52-1.34,2.09c-0.57,0.57-1.26,1.02-2.06,1.32
			c-0.8,0.31-1.69,0.46-2.66,0.46c-0.98,0-1.88-0.15-2.68-0.46c-0.8-0.31-1.5-0.75-2.08-1.32c-0.58-0.57-1.03-1.27-1.35-2.09
			c-0.32-0.82-0.48-1.74-0.48-2.77c0-1.02,0.16-1.93,0.48-2.74c0.32-0.81,0.77-1.5,1.35-2.07c0.58-0.57,1.27-1.01,2.08-1.31
			C623.57,344.1,624.47,343.95,625.45,343.95z M625.45,354.33c0.88,0,1.53-0.31,1.95-0.93c0.42-0.62,0.63-1.57,0.63-2.84
			c0-1.27-0.21-2.22-0.63-2.83c-0.42-0.62-1.07-0.93-1.95-0.93c-0.91,0-1.57,0.31-1.99,0.93c-0.42,0.62-0.63,1.56-0.63,2.83
			c0,1.27,0.21,2.22,0.63,2.84C623.88,354.02,624.54,354.33,625.45,354.33z"/>
		<path class="st1" d="M652.33,344.14l-3.99,12.84h-3.12c-0.16,0-0.3-0.05-0.42-0.15c-0.12-0.1-0.21-0.26-0.27-0.5l-1.83-6.4
			c-0.09-0.29-0.17-0.57-0.24-0.85c-0.07-0.28-0.13-0.57-0.19-0.85c-0.06,0.29-0.12,0.58-0.19,0.87c-0.07,0.29-0.15,0.58-0.24,0.87
			l-1.86,6.37c-0.12,0.43-0.4,0.64-0.82,0.64h-2.97l-3.99-12.84h3.07c0.27,0,0.5,0.06,0.69,0.19c0.19,0.13,0.31,0.29,0.38,0.48
			l1.29,5.76c0.11,0.44,0.2,0.86,0.28,1.27c0.08,0.41,0.16,0.82,0.22,1.23c0.11-0.41,0.22-0.82,0.34-1.23
			c0.12-0.41,0.25-0.83,0.39-1.27l1.61-5.77c0.07-0.19,0.19-0.35,0.37-0.48c0.18-0.13,0.4-0.19,0.64-0.19h1.71
			c0.27,0,0.5,0.06,0.69,0.19c0.19,0.13,0.31,0.29,0.38,0.48l1.54,5.77c0.12,0.44,0.24,0.86,0.36,1.27
			c0.12,0.41,0.23,0.83,0.33,1.25c0.07-0.41,0.14-0.83,0.24-1.24c0.09-0.41,0.19-0.84,0.31-1.29l1.36-5.76
			c0.07-0.19,0.19-0.35,0.37-0.48c0.18-0.13,0.4-0.19,0.64-0.19H652.33z"/>
		<path class="st1" d="M653.46,347.91h6.68V351h-6.68V347.91z"/>
		<path class="st1" d="M678.32,338.95l-7.23,18.03h-3.79l-7.23-18.03h3.37c0.36,0,0.66,0.08,0.88,0.25
			c0.22,0.17,0.39,0.39,0.51,0.65l3.49,9.65c0.17,0.42,0.33,0.88,0.48,1.38c0.16,0.5,0.3,1.02,0.45,1.57
			c0.12-0.54,0.24-1.07,0.39-1.57c0.14-0.5,0.3-0.96,0.46-1.38l3.47-9.65c0.09-0.23,0.25-0.44,0.49-0.63
			c0.24-0.19,0.53-0.28,0.87-0.28H678.32z"/>
		<path class="st1" d="M682.91,343.95c0.97,0,1.86,0.15,2.66,0.46c0.8,0.31,1.49,0.74,2.06,1.31c0.57,0.57,1.02,1.26,1.34,2.07
			c0.32,0.81,0.48,1.73,0.48,2.74c0,1.02-0.16,1.95-0.48,2.77c-0.32,0.82-0.76,1.52-1.34,2.09c-0.57,0.57-1.26,1.02-2.06,1.32
			c-0.8,0.31-1.69,0.46-2.66,0.46c-0.98,0-1.88-0.15-2.68-0.46c-0.8-0.31-1.5-0.75-2.08-1.32c-0.58-0.57-1.03-1.27-1.35-2.09
			c-0.32-0.82-0.48-1.74-0.48-2.77c0-1.02,0.16-1.93,0.48-2.74c0.32-0.81,0.77-1.5,1.35-2.07c0.58-0.57,1.27-1.01,2.08-1.31
			C681.03,344.1,681.93,343.95,682.91,343.95z M682.91,354.33c0.88,0,1.53-0.31,1.95-0.93c0.42-0.62,0.63-1.57,0.63-2.84
			c0-1.27-0.21-2.22-0.63-2.83c-0.42-0.62-1.07-0.93-1.95-0.93c-0.91,0-1.57,0.31-1.99,0.93c-0.42,0.62-0.63,1.56-0.63,2.83
			c0,1.27,0.21,2.22,0.63,2.84C681.34,354.02,682,354.33,682.91,354.33z"/>
		<path class="st1" d="M694.99,338.45v18.53h-3.84v-18.53H694.99z"/>
		<path class="st1" d="M708.88,344.14v12.84h-2.38c-0.48,0-0.79-0.21-0.94-0.64l-0.22-0.74c-0.25,0.24-0.5,0.46-0.77,0.65
			c-0.26,0.19-0.55,0.36-0.85,0.5c-0.3,0.14-0.63,0.24-0.98,0.32c-0.35,0.08-0.73,0.12-1.15,0.12c-0.7,0-1.32-0.12-1.86-0.37
			c-0.54-0.24-1-0.58-1.37-1.02c-0.37-0.44-0.65-0.95-0.84-1.55c-0.19-0.59-0.28-1.25-0.28-1.96v-8.14h3.84v8.14
			c0,0.64,0.14,1.13,0.43,1.47c0.29,0.35,0.71,0.52,1.27,0.52c0.42,0,0.81-0.09,1.18-0.27c0.37-0.18,0.72-0.42,1.07-0.72v-9.15
			H708.88z"/>
		<path class="st1" d="M711.25,356.98v-12.84h2.38c0.48,0,0.79,0.21,0.94,0.64l0.21,0.69c0.21-0.22,0.44-0.43,0.67-0.61
			c0.23-0.19,0.48-0.35,0.75-0.48c0.27-0.14,0.56-0.24,0.87-0.32c0.31-0.08,0.65-0.12,1.02-0.12c0.78,0,1.42,0.2,1.92,0.6
			c0.51,0.4,0.89,0.93,1.16,1.6c0.21-0.4,0.48-0.73,0.79-1.01s0.64-0.51,1-0.68c0.36-0.17,0.74-0.3,1.14-0.38
			c0.4-0.08,0.8-0.12,1.19-0.12c0.73,0,1.39,0.11,1.96,0.33c0.57,0.22,1.05,0.54,1.43,0.95s0.67,0.93,0.87,1.53
			c0.2,0.61,0.3,1.29,0.3,2.06v8.16h-3.84v-8.16c0-1.33-0.57-1.99-1.71-1.99c-0.52,0-0.95,0.17-1.29,0.51
			c-0.34,0.34-0.51,0.84-0.51,1.48v8.16h-3.84v-8.16c0-0.73-0.14-1.25-0.43-1.55c-0.29-0.3-0.71-0.45-1.28-0.45
			c-0.35,0-0.67,0.08-0.98,0.24c-0.31,0.16-0.6,0.37-0.87,0.63v9.28H711.25z"/>
		<path class="st1" d="M735.25,351.25c0.12,1.07,0.45,1.85,0.98,2.33c0.53,0.48,1.21,0.72,2.04,0.72c0.45,0,0.83-0.05,1.15-0.16
			c0.32-0.11,0.61-0.23,0.86-0.36c0.25-0.13,0.48-0.25,0.69-0.36c0.21-0.11,0.43-0.16,0.66-0.16c0.31,0,0.54,0.11,0.69,0.33
			l1.11,1.37c-0.4,0.45-0.82,0.82-1.28,1.11c-0.46,0.28-0.93,0.51-1.41,0.67c-0.48,0.16-0.97,0.27-1.45,0.33
			c-0.48,0.06-0.94,0.09-1.38,0.09c-0.9,0-1.74-0.15-2.53-0.44c-0.79-0.29-1.48-0.73-2.07-1.31c-0.59-0.58-1.06-1.3-1.4-2.15
			c-0.34-0.86-0.51-1.86-0.51-3c0-0.86,0.15-1.67,0.44-2.44c0.29-0.77,0.71-1.44,1.26-2.02c0.55-0.58,1.21-1.04,1.99-1.37
			c0.78-0.34,1.66-0.51,2.64-0.51c0.85,0,1.63,0.13,2.33,0.4c0.71,0.26,1.31,0.65,1.82,1.15c0.51,0.5,0.9,1.12,1.19,1.85
			c0.28,0.73,0.43,1.56,0.43,2.48c0,0.29-0.01,0.52-0.04,0.71c-0.02,0.18-0.07,0.33-0.14,0.43c-0.07,0.11-0.15,0.18-0.27,0.22
			c-0.11,0.04-0.25,0.06-0.43,0.06H735.25z M740.08,349.02c0-0.31-0.04-0.6-0.12-0.89c-0.08-0.29-0.21-0.55-0.38-0.77
			c-0.18-0.23-0.41-0.41-0.7-0.55c-0.29-0.14-0.64-0.21-1.05-0.21c-0.73,0-1.3,0.21-1.71,0.62c-0.41,0.42-0.69,1.02-0.82,1.8H740.08
			z"/>
	</g>
	<path class="st1" d="M546.67,378.23c-0.45-0.7-0.75-1.43-0.9-2.18c-0.16-0.76-0.17-1.5-0.03-2.23c0.14-0.73,0.41-1.43,0.83-2.1
		c0.42-0.67,0.98-1.27,1.69-1.82l1.21,0.72c0.11,0.07,0.18,0.14,0.22,0.22c0.04,0.08,0.06,0.17,0.06,0.25
		c0,0.09-0.02,0.17-0.06,0.25c-0.04,0.08-0.08,0.15-0.14,0.2c-0.14,0.15-0.29,0.38-0.45,0.69c-0.16,0.31-0.28,0.67-0.35,1.08
		c-0.07,0.41-0.08,0.86-0.01,1.36c0.07,0.49,0.27,1,0.6,1.52c0.18,0.29,0.23,0.54,0.14,0.74c-0.09,0.21-0.25,0.35-0.5,0.45
		L546.67,378.23z M551.1,378.23c-0.45-0.7-0.75-1.43-0.9-2.18c-0.16-0.76-0.17-1.5-0.03-2.23c0.14-0.73,0.41-1.43,0.83-2.1
		c0.42-0.67,0.98-1.27,1.69-1.82l1.21,0.72c0.11,0.07,0.18,0.14,0.22,0.22c0.04,0.08,0.06,0.17,0.06,0.25
		c0,0.09-0.02,0.17-0.06,0.25c-0.04,0.08-0.08,0.15-0.14,0.2c-0.14,0.15-0.29,0.38-0.45,0.69s-0.28,0.67-0.35,1.08
		c-0.07,0.41-0.08,0.86-0.01,1.36c0.07,0.49,0.27,1,0.6,1.52c0.18,0.29,0.23,0.54,0.14,0.74c-0.09,0.21-0.25,0.35-0.5,0.45
		L551.1,378.23z M567.28,386.19v3.34h-10.87v-18.03h4.18v14.69H567.28z M571.47,383.8c0.12,1.07,0.45,1.85,0.98,2.33
		c0.53,0.48,1.21,0.72,2.04,0.72c0.45,0,0.83-0.05,1.15-0.16c0.32-0.11,0.61-0.23,0.86-0.36c0.25-0.13,0.48-0.25,0.69-0.36
		c0.21-0.11,0.43-0.16,0.66-0.16c0.31,0,0.54,0.11,0.69,0.33l1.11,1.37c-0.4,0.45-0.82,0.82-1.28,1.11
		c-0.46,0.28-0.93,0.51-1.41,0.67c-0.48,0.16-0.97,0.27-1.45,0.33s-0.94,0.09-1.38,0.09c-0.9,0-1.74-0.15-2.53-0.44
		c-0.79-0.29-1.48-0.73-2.07-1.31c-0.59-0.58-1.06-1.3-1.4-2.15c-0.34-0.86-0.51-1.86-0.51-3c0-0.86,0.15-1.67,0.44-2.44
		c0.29-0.77,0.71-1.44,1.26-2.02c0.55-0.58,1.21-1.04,1.99-1.37c0.78-0.34,1.66-0.51,2.64-0.51c0.85,0,1.63,0.13,2.33,0.4
		c0.71,0.26,1.31,0.65,1.82,1.15c0.51,0.5,0.9,1.12,1.19,1.85c0.28,0.73,0.43,1.56,0.43,2.48c0,0.29-0.01,0.52-0.04,0.71
		c-0.02,0.18-0.07,0.33-0.14,0.43c-0.07,0.11-0.15,0.18-0.27,0.22c-0.11,0.04-0.25,0.06-0.43,0.06H571.47z M576.29,381.57
		c0-0.31-0.04-0.6-0.12-0.89c-0.08-0.29-0.21-0.55-0.38-0.77c-0.18-0.23-0.41-0.41-0.7-0.55c-0.29-0.14-0.64-0.21-1.05-0.21
		c-0.73,0-1.3,0.21-1.71,0.63c-0.41,0.42-0.69,1.02-0.82,1.8H576.29z M581.12,378.48c0.78-0.68,1.64-1.19,2.58-1.53
		c0.94-0.33,1.96-0.5,3.04-0.5c0.78,0,1.47,0.13,2.1,0.38c0.62,0.25,1.15,0.6,1.58,1.05c0.43,0.45,0.77,0.98,1,1.6
		c0.23,0.62,0.35,1.3,0.35,2.03v8.02h-1.76c-0.36,0-0.64-0.05-0.82-0.15s-0.34-0.31-0.46-0.62l-0.27-0.71
		c-0.32,0.27-0.63,0.51-0.93,0.72c-0.3,0.21-0.6,0.38-0.92,0.53c-0.32,0.14-0.66,0.25-1.02,0.32c-0.36,0.07-0.76,0.11-1.19,0.11
		c-0.59,0-1.12-0.08-1.6-0.23c-0.48-0.15-0.89-0.38-1.22-0.67s-0.59-0.67-0.77-1.11c-0.18-0.44-0.27-0.95-0.27-1.53
		c0-0.46,0.12-0.93,0.35-1.4c0.23-0.47,0.63-0.91,1.2-1.3c0.57-0.39,1.34-0.72,2.3-0.98c0.97-0.26,2.18-0.41,3.65-0.45v-0.54
		c0-0.75-0.15-1.29-0.46-1.63c-0.31-0.33-0.75-0.5-1.32-0.5c-0.45,0-0.83,0.05-1.11,0.15c-0.29,0.1-0.55,0.21-0.77,0.33
		c-0.23,0.12-0.45,0.24-0.66,0.33c-0.21,0.1-0.47,0.15-0.77,0.15c-0.26,0-0.49-0.07-0.67-0.2c-0.18-0.13-0.33-0.29-0.45-0.47
		L581.12,378.48z M588.03,384.31c-0.77,0.03-1.4,0.1-1.89,0.2c-0.5,0.1-0.89,0.22-1.18,0.37c-0.29,0.15-0.49,0.32-0.6,0.51
		c-0.11,0.19-0.17,0.4-0.17,0.62c0,0.44,0.12,0.74,0.36,0.92c0.24,0.18,0.59,0.27,1.05,0.27c0.5,0,0.93-0.09,1.3-0.26
		c0.37-0.17,0.75-0.45,1.13-0.84V384.31z M605.72,376.69l-4.98,12.84h-3.49l-4.98-12.84h3.19c0.27,0,0.5,0.06,0.69,0.19
		c0.19,0.13,0.31,0.29,0.38,0.48l1.78,5.76c0.16,0.47,0.29,0.93,0.41,1.37c0.12,0.45,0.22,0.89,0.32,1.34
		c0.18-0.89,0.43-1.79,0.76-2.71l1.86-5.76c0.07-0.19,0.19-0.35,0.37-0.48c0.18-0.13,0.4-0.19,0.64-0.19H605.72z M609.44,383.8
		c0.12,1.07,0.45,1.85,0.98,2.33c0.53,0.48,1.21,0.72,2.04,0.72c0.45,0,0.83-0.05,1.15-0.16c0.32-0.11,0.61-0.23,0.86-0.36
		c0.25-0.13,0.48-0.25,0.69-0.36c0.21-0.11,0.43-0.16,0.66-0.16c0.31,0,0.54,0.11,0.69,0.33l1.11,1.37
		c-0.4,0.45-0.82,0.82-1.28,1.11c-0.46,0.28-0.93,0.51-1.41,0.67c-0.48,0.16-0.97,0.27-1.45,0.33s-0.94,0.09-1.38,0.09
		c-0.9,0-1.74-0.15-2.53-0.44c-0.79-0.29-1.48-0.73-2.07-1.31c-0.59-0.58-1.06-1.3-1.4-2.15c-0.34-0.86-0.51-1.86-0.51-3
		c0-0.86,0.15-1.67,0.44-2.44c0.29-0.77,0.71-1.44,1.26-2.02c0.55-0.58,1.21-1.04,1.99-1.37c0.78-0.34,1.66-0.51,2.64-0.51
		c0.85,0,1.63,0.13,2.33,0.4c0.71,0.26,1.31,0.65,1.82,1.15c0.51,0.5,0.9,1.12,1.19,1.85c0.28,0.73,0.43,1.56,0.43,2.48
		c0,0.29-0.01,0.52-0.04,0.71c-0.02,0.18-0.07,0.33-0.14,0.43c-0.07,0.11-0.15,0.18-0.27,0.22c-0.11,0.04-0.25,0.06-0.43,0.06
		H609.44z M614.27,381.57c0-0.31-0.04-0.6-0.12-0.89c-0.08-0.29-0.21-0.55-0.38-0.77c-0.18-0.23-0.41-0.41-0.7-0.55
		c-0.29-0.14-0.64-0.21-1.05-0.21c-0.73,0-1.3,0.21-1.71,0.63c-0.41,0.42-0.69,1.02-0.82,1.8H614.27z M629.17,373.18
		c0,0.31-0.06,0.59-0.19,0.86c-0.12,0.27-0.29,0.5-0.51,0.71c-0.21,0.2-0.46,0.36-0.75,0.48c-0.28,0.12-0.59,0.18-0.91,0.18
		c-0.31,0-0.61-0.06-0.88-0.18c-0.27-0.12-0.51-0.28-0.72-0.48c-0.21-0.2-0.38-0.44-0.5-0.71c-0.12-0.27-0.18-0.55-0.18-0.86
		c0-0.31,0.06-0.61,0.18-0.88c0.12-0.27,0.28-0.51,0.5-0.72c0.21-0.21,0.45-0.37,0.72-0.48c0.27-0.12,0.57-0.17,0.88-0.17
		c0.32,0,0.62,0.06,0.91,0.17c0.28,0.12,0.53,0.28,0.75,0.48c0.21,0.21,0.38,0.45,0.51,0.72
		C629.11,372.57,629.17,372.86,629.17,373.18z M628.77,376.69v12.84h-3.84v-12.84H628.77z M635.8,389.73
		c-0.61,0-1.15-0.09-1.62-0.27c-0.47-0.18-0.86-0.43-1.18-0.76c-0.32-0.33-0.56-0.72-0.72-1.18c-0.17-0.46-0.25-0.98-0.25-1.55
		v-6.63h-1.09c-0.2,0-0.37-0.06-0.51-0.19c-0.14-0.13-0.21-0.32-0.21-0.56v-1.5l2.04-0.4l0.76-3.13c0.1-0.4,0.38-0.59,0.84-0.59
		h2.01v3.75h3.18v2.62h-3.18v6.37c0,0.3,0.07,0.54,0.22,0.74c0.14,0.19,0.35,0.29,0.63,0.29c0.14,0,0.26-0.01,0.35-0.04
		c0.09-0.03,0.18-0.06,0.25-0.1c0.07-0.04,0.14-0.07,0.2-0.1c0.06-0.03,0.13-0.04,0.22-0.04c0.12,0,0.21,0.03,0.28,0.08
		c0.07,0.05,0.14,0.14,0.22,0.25l1.16,1.82c-0.5,0.37-1.05,0.65-1.67,0.84C637.1,389.63,636.46,389.73,635.8,389.73z M650.53,389.73
		c-0.61,0-1.15-0.09-1.62-0.27c-0.47-0.18-0.86-0.43-1.18-0.76c-0.32-0.33-0.56-0.72-0.72-1.18c-0.17-0.46-0.25-0.98-0.25-1.55
		v-6.63h-1.09c-0.2,0-0.37-0.06-0.51-0.19c-0.14-0.13-0.21-0.32-0.21-0.56v-1.5l2.04-0.4l0.76-3.13c0.1-0.4,0.38-0.59,0.84-0.59
		h2.01v3.75h3.18v2.62h-3.18v6.37c0,0.3,0.07,0.54,0.22,0.74c0.14,0.19,0.35,0.29,0.63,0.29c0.14,0,0.26-0.01,0.35-0.04
		c0.09-0.03,0.18-0.06,0.25-0.1c0.07-0.04,0.14-0.07,0.2-0.1c0.06-0.03,0.13-0.04,0.22-0.04c0.12,0,0.21,0.03,0.28,0.08
		c0.07,0.05,0.14,0.14,0.22,0.25l1.16,1.82c-0.5,0.37-1.05,0.65-1.67,0.84C651.83,389.63,651.19,389.73,650.53,389.73z
		 M660.99,376.5c0.97,0,1.86,0.15,2.66,0.46c0.8,0.31,1.49,0.74,2.06,1.31c0.57,0.57,1.02,1.26,1.34,2.07
		c0.32,0.81,0.48,1.73,0.48,2.74c0,1.02-0.16,1.95-0.48,2.77c-0.32,0.82-0.76,1.52-1.34,2.09c-0.57,0.57-1.26,1.01-2.06,1.32
		c-0.8,0.31-1.69,0.46-2.66,0.46c-0.98,0-1.88-0.15-2.68-0.46c-0.8-0.31-1.5-0.75-2.08-1.32c-0.58-0.57-1.03-1.27-1.35-2.09
		c-0.32-0.82-0.48-1.74-0.48-2.77c0-1.01,0.16-1.93,0.48-2.74c0.32-0.81,0.77-1.5,1.35-2.07s1.27-1.01,2.08-1.31
		C659.12,376.65,660.01,376.5,660.99,376.5z M660.99,386.88c0.88,0,1.53-0.31,1.95-0.93c0.42-0.62,0.63-1.57,0.63-2.84
		c0-1.27-0.21-2.22-0.63-2.83c-0.42-0.62-1.07-0.93-1.95-0.93c-0.91,0-1.57,0.31-1.99,0.93c-0.42,0.62-0.63,1.56-0.63,2.83
		c0,1.27,0.21,2.22,0.63,2.84C659.42,386.57,660.08,386.88,660.99,386.88z M679.27,389.73c-0.61,0-1.15-0.09-1.62-0.27
		c-0.47-0.18-0.86-0.43-1.18-0.76c-0.32-0.33-0.56-0.72-0.72-1.18c-0.17-0.46-0.25-0.98-0.25-1.55v-6.63h-1.09
		c-0.2,0-0.37-0.06-0.51-0.19c-0.14-0.13-0.21-0.32-0.21-0.56v-1.5l2.04-0.4l0.76-3.13c0.1-0.4,0.38-0.59,0.84-0.59h2.01v3.75h3.18
		v2.62h-3.18v6.37c0,0.3,0.07,0.54,0.22,0.74c0.14,0.19,0.35,0.29,0.63,0.29c0.14,0,0.26-0.01,0.35-0.04
		c0.09-0.03,0.18-0.06,0.25-0.1c0.07-0.04,0.14-0.07,0.2-0.1c0.06-0.03,0.13-0.04,0.22-0.04c0.12,0,0.21,0.03,0.28,0.08
		c0.07,0.05,0.14,0.14,0.22,0.25l1.16,1.82c-0.5,0.37-1.05,0.65-1.67,0.84C680.57,389.63,679.93,389.73,679.27,389.73z
		 M687.78,377.82c0.46-0.4,0.96-0.72,1.5-0.96c0.54-0.24,1.19-0.37,1.94-0.37c0.7,0,1.32,0.12,1.86,0.37c0.54,0.24,1,0.58,1.37,1.02
		c0.37,0.43,0.65,0.95,0.84,1.55c0.19,0.6,0.28,1.25,0.28,1.95v8.16h-3.84v-8.16c0-0.63-0.14-1.12-0.43-1.47
		c-0.29-0.35-0.71-0.53-1.27-0.53c-0.42,0-0.82,0.09-1.18,0.27c-0.37,0.18-0.72,0.42-1.07,0.72v9.16h-3.84V371h3.84V377.82z
		 M700.96,383.8c0.12,1.07,0.45,1.85,0.98,2.33c0.53,0.48,1.21,0.72,2.04,0.72c0.45,0,0.83-0.05,1.15-0.16
		c0.32-0.11,0.61-0.23,0.86-0.36c0.25-0.13,0.48-0.25,0.69-0.36c0.21-0.11,0.43-0.16,0.66-0.16c0.31,0,0.54,0.11,0.69,0.33
		l1.11,1.37c-0.4,0.45-0.82,0.82-1.28,1.11c-0.46,0.28-0.93,0.51-1.41,0.67c-0.48,0.16-0.97,0.27-1.45,0.33s-0.94,0.09-1.38,0.09
		c-0.9,0-1.74-0.15-2.53-0.44c-0.79-0.29-1.48-0.73-2.07-1.31c-0.59-0.58-1.06-1.3-1.4-2.15c-0.34-0.86-0.51-1.86-0.51-3
		c0-0.86,0.15-1.67,0.44-2.44c0.29-0.77,0.71-1.44,1.26-2.02c0.55-0.58,1.21-1.04,1.99-1.37c0.78-0.34,1.66-0.51,2.64-0.51
		c0.85,0,1.63,0.13,2.33,0.4c0.71,0.26,1.31,0.65,1.82,1.15c0.51,0.5,0.9,1.12,1.19,1.85c0.28,0.73,0.43,1.56,0.43,2.48
		c0,0.29-0.01,0.52-0.04,0.71c-0.02,0.18-0.07,0.33-0.14,0.43c-0.07,0.11-0.15,0.18-0.27,0.22c-0.11,0.04-0.25,0.06-0.43,0.06
		H700.96z M705.79,381.57c0-0.31-0.04-0.6-0.12-0.89c-0.08-0.29-0.21-0.55-0.38-0.77c-0.18-0.23-0.41-0.41-0.7-0.55
		c-0.29-0.14-0.64-0.21-1.05-0.21c-0.73,0-1.3,0.21-1.71,0.63c-0.41,0.42-0.68,1.02-0.82,1.8H705.79z M723.18,371.49
		c1.27,0,2.36,0.15,3.27,0.45c0.91,0.3,1.66,0.72,2.25,1.24c0.59,0.53,1.03,1.15,1.31,1.87c0.28,0.72,0.42,1.49,0.42,2.33
		c0,0.9-0.14,1.72-0.43,2.48c-0.29,0.75-0.73,1.39-1.32,1.93c-0.59,0.54-1.35,0.96-2.26,1.26c-0.91,0.3-1.99,0.45-3.24,0.45H721
		v6.03h-4.18v-18.03H723.18z M723.18,380.35c1.09,0,1.87-0.26,2.35-0.78c0.48-0.52,0.72-1.25,0.72-2.18c0-0.41-0.06-0.79-0.19-1.13
		c-0.12-0.34-0.31-0.63-0.56-0.87c-0.25-0.24-0.57-0.43-0.95-0.56c-0.38-0.13-0.84-0.2-1.37-0.2H721v5.72H723.18z M731.22,378.48
		c0.78-0.68,1.64-1.19,2.58-1.53s1.96-0.5,3.04-0.5c0.78,0,1.47,0.13,2.1,0.38c0.62,0.25,1.15,0.6,1.58,1.05
		c0.43,0.45,0.77,0.98,1,1.6c0.23,0.62,0.35,1.3,0.35,2.03v8.02h-1.76c-0.36,0-0.64-0.05-0.82-0.15c-0.19-0.1-0.34-0.31-0.46-0.62
		l-0.27-0.71c-0.32,0.27-0.63,0.51-0.93,0.72c-0.3,0.21-0.6,0.38-0.92,0.53c-0.32,0.14-0.66,0.25-1.02,0.32
		c-0.36,0.07-0.76,0.11-1.19,0.11c-0.59,0-1.12-0.08-1.6-0.23c-0.48-0.15-0.89-0.38-1.22-0.67c-0.33-0.3-0.59-0.67-0.77-1.11
		c-0.18-0.44-0.27-0.95-0.27-1.53c0-0.46,0.12-0.93,0.35-1.4c0.23-0.47,0.63-0.91,1.2-1.3c0.57-0.39,1.34-0.72,2.3-0.98
		c0.97-0.26,2.18-0.41,3.65-0.45v-0.54c0-0.75-0.15-1.29-0.46-1.63s-0.75-0.5-1.32-0.5c-0.45,0-0.83,0.05-1.11,0.15
		c-0.29,0.1-0.55,0.21-0.77,0.33c-0.23,0.12-0.45,0.24-0.66,0.33c-0.21,0.1-0.47,0.15-0.77,0.15c-0.26,0-0.49-0.07-0.67-0.2
		c-0.18-0.13-0.33-0.29-0.45-0.47L731.22,378.48z M738.13,384.31c-0.77,0.03-1.4,0.1-1.89,0.2c-0.5,0.1-0.89,0.22-1.18,0.37
		c-0.29,0.15-0.49,0.32-0.6,0.51c-0.11,0.19-0.17,0.4-0.17,0.62c0,0.44,0.12,0.74,0.36,0.92c0.24,0.18,0.59,0.27,1.05,0.27
		c0.5,0,0.93-0.09,1.3-0.26c0.37-0.17,0.75-0.45,1.13-0.84V384.31z M757.75,389.53h-3.84v-10.19h-5.37v6.37
		c0,0.3,0.07,0.54,0.22,0.74c0.14,0.19,0.35,0.29,0.63,0.29c0.14,0,0.26-0.01,0.35-0.04c0.09-0.03,0.18-0.06,0.25-0.1
		c0.07-0.04,0.14-0.07,0.2-0.1c0.06-0.03,0.13-0.04,0.22-0.04c0.12,0,0.21,0.03,0.28,0.08c0.07,0.05,0.14,0.14,0.22,0.25l1.16,1.82
		c-0.5,0.37-1.05,0.65-1.67,0.84c-0.62,0.19-1.26,0.28-1.92,0.28c-0.61,0-1.15-0.09-1.62-0.27c-0.47-0.18-0.86-0.43-1.18-0.76
		c-0.32-0.33-0.56-0.72-0.72-1.18c-0.17-0.46-0.25-0.98-0.25-1.55v-6.63h-1.09c-0.2,0-0.37-0.06-0.51-0.19
		c-0.14-0.13-0.21-0.32-0.21-0.56v-1.5l2.04-0.41l0.76-3.12c0.1-0.4,0.38-0.59,0.84-0.59h2.01v3.75h9.21V389.53z M758.28,373.17
		c0,0.31-0.06,0.59-0.19,0.87c-0.12,0.27-0.29,0.51-0.51,0.71c-0.21,0.2-0.46,0.36-0.75,0.48c-0.28,0.12-0.59,0.17-0.91,0.17
		c-0.31,0-0.61-0.06-0.88-0.17c-0.27-0.12-0.51-0.27-0.72-0.48c-0.21-0.2-0.38-0.44-0.5-0.71c-0.12-0.27-0.18-0.56-0.18-0.87
		c0-0.31,0.06-0.6,0.18-0.87c0.12-0.28,0.28-0.52,0.5-0.72c0.21-0.2,0.45-0.36,0.72-0.48c0.27-0.12,0.57-0.18,0.88-0.18
		c0.32,0,0.62,0.06,0.91,0.18c0.28,0.12,0.53,0.28,0.75,0.48c0.21,0.2,0.38,0.44,0.51,0.72
		C758.22,372.57,758.28,372.86,758.28,373.17z M763.34,383.8c0.12,1.07,0.45,1.85,0.98,2.33c0.53,0.48,1.21,0.72,2.04,0.72
		c0.45,0,0.83-0.05,1.15-0.16c0.32-0.11,0.61-0.23,0.86-0.36c0.25-0.13,0.48-0.25,0.69-0.36c0.21-0.11,0.43-0.16,0.66-0.16
		c0.31,0,0.54,0.11,0.69,0.33l1.11,1.37c-0.4,0.45-0.82,0.82-1.28,1.11c-0.46,0.28-0.93,0.51-1.41,0.67
		c-0.48,0.16-0.97,0.27-1.45,0.33c-0.48,0.06-0.94,0.09-1.38,0.09c-0.9,0-1.74-0.15-2.53-0.44c-0.79-0.29-1.48-0.73-2.07-1.31
		c-0.59-0.58-1.06-1.3-1.4-2.15c-0.34-0.86-0.51-1.86-0.51-3c0-0.86,0.15-1.67,0.44-2.44c0.29-0.77,0.71-1.44,1.26-2.02
		c0.55-0.58,1.21-1.04,1.99-1.37c0.78-0.34,1.66-0.51,2.64-0.51c0.85,0,1.63,0.13,2.33,0.4c0.71,0.26,1.31,0.65,1.82,1.15
		c0.51,0.5,0.9,1.12,1.19,1.85c0.28,0.73,0.43,1.56,0.43,2.48c0,0.29-0.01,0.52-0.04,0.71c-0.02,0.18-0.07,0.33-0.14,0.43
		c-0.07,0.11-0.15,0.18-0.27,0.22c-0.11,0.04-0.25,0.06-0.43,0.06H763.34z M768.17,381.57c0-0.31-0.04-0.6-0.12-0.89
		c-0.08-0.29-0.21-0.55-0.38-0.77c-0.18-0.23-0.41-0.41-0.7-0.55c-0.29-0.14-0.64-0.21-1.05-0.21c-0.73,0-1.3,0.21-1.71,0.63
		c-0.41,0.42-0.68,1.02-0.82,1.8H768.17z M776.82,378.08c0.25-0.23,0.5-0.45,0.77-0.64c0.26-0.2,0.55-0.37,0.85-0.5
		c0.3-0.14,0.63-0.24,0.98-0.32c0.35-0.08,0.73-0.12,1.15-0.12c0.7,0,1.32,0.12,1.86,0.37c0.54,0.24,1,0.58,1.37,1.02
		c0.37,0.43,0.65,0.95,0.84,1.55c0.19,0.6,0.28,1.25,0.28,1.95v8.16h-3.84v-8.16c0-0.63-0.14-1.12-0.43-1.47
		c-0.29-0.35-0.71-0.53-1.27-0.53c-0.42,0-0.82,0.09-1.18,0.27c-0.37,0.18-0.72,0.42-1.07,0.72v9.16h-3.84v-12.84h2.38
		c0.48,0,0.79,0.21,0.94,0.64L776.82,378.08z M791.57,389.73c-0.61,0-1.15-0.09-1.62-0.27c-0.47-0.18-0.86-0.43-1.18-0.76
		c-0.32-0.33-0.56-0.72-0.72-1.18c-0.17-0.46-0.25-0.98-0.25-1.55v-6.63h-1.09c-0.2,0-0.37-0.06-0.51-0.19
		c-0.14-0.13-0.21-0.32-0.21-0.56v-1.5l2.04-0.4l0.76-3.13c0.1-0.4,0.38-0.59,0.84-0.59h2.01v3.75h3.18v2.62h-3.18v6.37
		c0,0.3,0.07,0.54,0.22,0.74c0.14,0.19,0.35,0.29,0.63,0.29c0.14,0,0.26-0.01,0.35-0.04c0.09-0.03,0.18-0.06,0.25-0.1
		c0.07-0.04,0.14-0.07,0.2-0.1c0.06-0.03,0.13-0.04,0.22-0.04c0.12,0,0.21,0.03,0.28,0.08c0.07,0.05,0.14,0.14,0.22,0.25l1.16,1.82
		c-0.5,0.37-1.05,0.65-1.67,0.84C792.87,389.63,792.23,389.73,791.57,389.73z M798.82,370.31c0.45,0.71,0.75,1.44,0.9,2.19
		c0.16,0.75,0.17,1.49,0.03,2.22c-0.14,0.73-0.41,1.43-0.84,2.1s-0.98,1.27-1.68,1.82l-1.21-0.72c-0.11-0.06-0.18-0.13-0.22-0.22
		c-0.04-0.09-0.06-0.17-0.06-0.26c0-0.09,0.02-0.17,0.06-0.25c0.04-0.08,0.08-0.15,0.14-0.2c0.09-0.1,0.19-0.24,0.3-0.41
		c0.11-0.17,0.21-0.38,0.3-0.61c0.09-0.23,0.16-0.48,0.22-0.76c0.05-0.28,0.07-0.57,0.06-0.88c-0.02-0.31-0.07-0.63-0.17-0.97
		c-0.1-0.33-0.26-0.67-0.48-1.02c-0.18-0.29-0.23-0.54-0.14-0.74c0.09-0.21,0.25-0.35,0.5-0.45L798.82,370.31z M803.25,370.31
		c0.45,0.71,0.75,1.44,0.9,2.19c0.16,0.75,0.17,1.49,0.03,2.22c-0.14,0.73-0.41,1.43-0.84,2.1c-0.42,0.67-0.98,1.27-1.68,1.82
		l-1.21-0.72c-0.11-0.06-0.18-0.13-0.22-0.22c-0.04-0.09-0.06-0.17-0.06-0.26c0-0.09,0.02-0.17,0.06-0.25
		c0.04-0.08,0.08-0.15,0.14-0.2c0.09-0.1,0.19-0.24,0.3-0.41c0.11-0.17,0.21-0.38,0.3-0.61c0.09-0.23,0.16-0.48,0.22-0.76
		c0.05-0.28,0.07-0.57,0.06-0.88c-0.02-0.31-0.07-0.63-0.17-0.97c-0.1-0.33-0.26-0.67-0.48-1.02c-0.18-0.29-0.23-0.54-0.14-0.74
		c0.09-0.21,0.25-0.35,0.5-0.45L803.25,370.31z"/>
	<g>
		<path class="st1" d="M985.53,341.84h-5.25v14.96h-3.73v-14.96h-5.25v-3h14.22V341.84z"/>
		<path class="st1" d="M989.86,343.84c0.96,0,1.83,0.15,2.61,0.46c0.78,0.31,1.46,0.74,2.02,1.31c0.56,0.57,0.99,1.25,1.3,2.06
			c0.31,0.81,0.46,1.72,0.46,2.74c0,1.01-0.15,1.93-0.46,2.74c-0.3,0.81-0.74,1.5-1.3,2.07c-0.56,0.57-1.23,1.01-2.02,1.31
			c-0.78,0.31-1.65,0.46-2.61,0.46c-0.97,0-1.84-0.15-2.63-0.46s-1.46-0.74-2.02-1.31c-0.56-0.57-1-1.26-1.31-2.07
			c-0.31-0.81-0.46-1.73-0.46-2.74c0-1.02,0.16-1.93,0.46-2.74c0.31-0.81,0.74-1.5,1.31-2.06c0.56-0.57,1.24-1,2.02-1.31
			C988.02,344,988.9,343.84,989.86,343.84z M989.86,354.43c0.97,0,1.7-0.34,2.17-1.01c0.47-0.67,0.71-1.67,0.71-3
			c0-1.32-0.24-2.32-0.71-2.99c-0.47-0.67-1.19-1.01-2.17-1.01c-1,0-1.73,0.34-2.2,1.01c-0.47,0.67-0.71,1.67-0.71,2.99
			c0,1.33,0.24,2.33,0.71,3C988.13,354.09,988.87,354.43,989.86,354.43z"/>
		<path class="st1" d="M1001.38,345.71c0.26-0.28,0.53-0.54,0.82-0.77c0.29-0.24,0.6-0.44,0.93-0.61c0.33-0.17,0.69-0.3,1.06-0.4
			c0.38-0.09,0.79-0.14,1.24-0.14c0.68,0,1.31,0.15,1.89,0.44c0.57,0.29,1.07,0.72,1.48,1.28c0.41,0.56,0.73,1.24,0.97,2.05
			c0.23,0.81,0.35,1.73,0.35,2.77c0,0.96-0.13,1.84-0.39,2.66c-0.26,0.81-0.63,1.52-1.11,2.11c-0.48,0.59-1.05,1.06-1.73,1.39
			c-0.67,0.33-1.42,0.5-2.25,0.5c-0.69,0-1.28-0.1-1.76-0.31c-0.48-0.21-0.91-0.49-1.29-0.84v5.09h-3.42v-16.88h2.1
			c0.43,0,0.71,0.2,0.85,0.59L1001.38,345.71z M1001.57,353.44c0.32,0.37,0.67,0.63,1.05,0.78c0.38,0.15,0.78,0.22,1.21,0.22
			c0.41,0,0.79-0.08,1.13-0.24c0.34-0.16,0.63-0.4,0.87-0.74c0.24-0.33,0.43-0.76,0.56-1.28c0.13-0.52,0.2-1.14,0.2-1.86
			c0-0.71-0.06-1.31-0.17-1.81s-0.27-0.9-0.47-1.2c-0.2-0.31-0.45-0.53-0.74-0.66c-0.29-0.14-0.61-0.2-0.97-0.2
			c-0.6,0-1.11,0.12-1.52,0.35c-0.41,0.24-0.79,0.58-1.16,1.03V353.44z"/>
		<path class="st1" d="M1015.97,340.41c0,0.29-0.06,0.56-0.17,0.8c-0.12,0.25-0.27,0.47-0.46,0.66c-0.19,0.19-0.42,0.34-0.68,0.45
			s-0.54,0.16-0.84,0.16c-0.28,0-0.55-0.05-0.8-0.16c-0.25-0.11-0.47-0.26-0.66-0.45c-0.19-0.19-0.34-0.41-0.45-0.66
			s-0.17-0.52-0.17-0.8c0-0.29,0.06-0.56,0.17-0.81s0.26-0.47,0.45-0.66c0.19-0.19,0.41-0.34,0.66-0.45
			c0.25-0.11,0.52-0.16,0.8-0.16c0.3,0,0.58,0.05,0.84,0.16c0.26,0.11,0.49,0.26,0.68,0.45c0.19,0.19,0.35,0.41,0.46,0.66
			C1015.91,339.85,1015.97,340.12,1015.97,340.41z M1015.56,344.04v12.76h-3.42v-12.76H1015.56z"/>
		<path class="st1" d="M1027.49,346.89c-0.1,0.13-0.2,0.23-0.3,0.3c-0.1,0.07-0.24,0.11-0.42,0.11c-0.17,0-0.32-0.05-0.48-0.14
			c-0.15-0.09-0.33-0.2-0.53-0.31c-0.2-0.11-0.43-0.21-0.71-0.31c-0.27-0.09-0.61-0.14-1.02-0.14c-0.51,0-0.95,0.09-1.33,0.28
			c-0.38,0.19-0.69,0.45-0.93,0.8c-0.25,0.35-0.43,0.77-0.55,1.26c-0.12,0.5-0.18,1.05-0.18,1.67c0,1.3,0.26,2.3,0.79,3
			c0.52,0.69,1.24,1.04,2.15,1.04c0.31,0,0.58-0.03,0.81-0.08c0.23-0.05,0.42-0.12,0.59-0.2c0.17-0.08,0.32-0.17,0.44-0.27
			c0.12-0.1,0.24-0.19,0.35-0.27c0.11-0.08,0.22-0.15,0.33-0.2c0.11-0.05,0.24-0.08,0.38-0.08c0.26,0,0.47,0.1,0.62,0.3l0.98,1.24
			c-0.36,0.42-0.75,0.77-1.16,1.05c-0.41,0.28-0.84,0.5-1.28,0.66s-0.89,0.27-1.34,0.33c-0.45,0.06-0.9,0.09-1.35,0.09
			c-0.78,0-1.53-0.15-2.23-0.44c-0.7-0.29-1.32-0.72-1.84-1.28c-0.53-0.56-0.95-1.25-1.26-2.07c-0.31-0.82-0.46-1.75-0.46-2.8
			c0-0.93,0.14-1.8,0.41-2.6s0.67-1.49,1.2-2.08c0.53-0.59,1.18-1.05,1.96-1.38c0.78-0.33,1.68-0.5,2.7-0.5
			c0.97,0,1.83,0.16,2.56,0.47c0.73,0.31,1.39,0.77,1.98,1.36L1027.49,346.89z"/>
		<path class="st1" d="M1029.68,345.81c0.75-0.68,1.58-1.18,2.49-1.52c0.91-0.33,1.89-0.5,2.95-0.5c0.76,0,1.44,0.12,2.04,0.37
			c0.6,0.25,1.11,0.59,1.52,1.03c0.42,0.44,0.74,0.97,0.96,1.58c0.22,0.61,0.33,1.28,0.33,2.01v8.02h-1.56
			c-0.32,0-0.57-0.05-0.74-0.14s-0.31-0.28-0.41-0.57l-0.27-0.82c-0.32,0.28-0.63,0.53-0.93,0.74c-0.3,0.21-0.61,0.39-0.93,0.54
			s-0.67,0.25-1.03,0.33c-0.37,0.07-0.78,0.11-1.23,0.11c-0.56,0-1.07-0.07-1.53-0.22c-0.46-0.15-0.86-0.37-1.19-0.66
			c-0.33-0.29-0.59-0.66-0.77-1.1c-0.18-0.44-0.27-0.94-0.27-1.51c0-0.47,0.12-0.94,0.36-1.41c0.24-0.47,0.65-0.9,1.23-1.28
			c0.58-0.38,1.36-0.7,2.33-0.95c0.97-0.25,2.18-0.39,3.65-0.43v-0.66c0-0.8-0.17-1.39-0.51-1.76c-0.34-0.38-0.83-0.56-1.46-0.56
			c-0.47,0-0.86,0.06-1.18,0.17c-0.31,0.11-0.59,0.23-0.82,0.36c-0.24,0.13-0.46,0.25-0.66,0.36c-0.21,0.11-0.45,0.17-0.72,0.17
			c-0.24,0-0.44-0.06-0.6-0.18s-0.3-0.26-0.4-0.43L1029.68,345.81z M1036.64,351.47c-0.83,0.04-1.53,0.11-2.08,0.22
			c-0.55,0.1-0.99,0.24-1.32,0.4c-0.33,0.17-0.56,0.35-0.69,0.56c-0.14,0.21-0.2,0.44-0.2,0.69c0,0.5,0.14,0.85,0.41,1.05
			c0.28,0.21,0.66,0.31,1.16,0.31c0.57,0,1.06-0.1,1.48-0.3c0.42-0.2,0.83-0.52,1.24-0.95V351.47z"/>
		<path class="st1" d="M1045.86,338.35v18.46h-3.42v-18.46H1045.86z"/>
		<path class="st1" d="M1065.22,353.78v3.02h-10.66v-17.96h3.71v14.94H1065.22z"/>
		<path class="st1" d="M1072,343.84c0.96,0,1.83,0.15,2.61,0.46c0.78,0.31,1.46,0.74,2.02,1.31c0.56,0.57,0.99,1.25,1.3,2.06
			c0.31,0.81,0.46,1.72,0.46,2.74c0,1.01-0.15,1.93-0.46,2.74c-0.3,0.81-0.74,1.5-1.3,2.07c-0.56,0.57-1.23,1.01-2.02,1.31
			c-0.78,0.31-1.65,0.46-2.61,0.46c-0.97,0-1.84-0.15-2.63-0.46s-1.46-0.74-2.02-1.31c-0.56-0.57-1-1.26-1.31-2.07
			c-0.31-0.81-0.46-1.73-0.46-2.74c0-1.02,0.16-1.93,0.46-2.74c0.31-0.81,0.74-1.5,1.31-2.06c0.56-0.57,1.24-1,2.02-1.31
			C1070.16,344,1071.04,343.84,1072,343.84z M1072,354.43c0.97,0,1.7-0.34,2.17-1.01c0.47-0.67,0.71-1.67,0.71-3
			c0-1.32-0.24-2.32-0.71-2.99c-0.47-0.67-1.19-1.01-2.17-1.01c-1,0-1.73,0.34-2.2,1.01c-0.47,0.67-0.71,1.67-0.71,2.99
			c0,1.33,0.24,2.33,0.71,3C1070.27,354.09,1071,354.43,1072,354.43z"/>
		<path class="st1" d="M1091.66,344.04l-6.88,16.19c-0.11,0.23-0.24,0.4-0.39,0.52c-0.15,0.12-0.39,0.17-0.72,0.17h-2.54l2.41-5.15
			l-5.12-11.73h3c0.27,0,0.48,0.06,0.63,0.19c0.15,0.12,0.26,0.27,0.32,0.43l2.43,6.1c0.09,0.24,0.17,0.48,0.24,0.72
			c0.07,0.24,0.14,0.48,0.2,0.72c0.15-0.49,0.32-0.97,0.51-1.46l2.25-6.09c0.07-0.18,0.19-0.33,0.36-0.45
			c0.17-0.12,0.36-0.17,0.57-0.17H1091.66z"/>
		<path class="st1" d="M1092.19,345.81c0.75-0.68,1.58-1.18,2.49-1.52c0.91-0.33,1.89-0.5,2.95-0.5c0.76,0,1.44,0.12,2.04,0.37
			c0.6,0.25,1.11,0.59,1.52,1.03c0.42,0.44,0.74,0.97,0.96,1.58c0.22,0.61,0.33,1.28,0.33,2.01v8.02h-1.56
			c-0.32,0-0.57-0.05-0.74-0.14c-0.17-0.09-0.31-0.28-0.41-0.57l-0.27-0.82c-0.32,0.28-0.63,0.53-0.93,0.74
			c-0.3,0.21-0.61,0.39-0.93,0.54s-0.67,0.25-1.03,0.33c-0.37,0.07-0.78,0.11-1.23,0.11c-0.56,0-1.07-0.07-1.53-0.22
			c-0.46-0.15-0.86-0.37-1.19-0.66c-0.33-0.29-0.59-0.66-0.77-1.1c-0.18-0.44-0.27-0.94-0.27-1.51c0-0.47,0.12-0.94,0.36-1.41
			c0.24-0.47,0.65-0.9,1.23-1.28c0.58-0.38,1.36-0.7,2.33-0.95c0.97-0.25,2.18-0.39,3.65-0.43v-0.66c0-0.8-0.17-1.39-0.51-1.76
			c-0.34-0.38-0.83-0.56-1.46-0.56c-0.47,0-0.86,0.06-1.18,0.17c-0.31,0.11-0.59,0.23-0.82,0.36c-0.24,0.13-0.46,0.25-0.66,0.36
			c-0.21,0.11-0.45,0.17-0.72,0.17c-0.24,0-0.44-0.06-0.6-0.18s-0.3-0.26-0.4-0.43L1092.19,345.81z M1099.15,351.47
			c-0.83,0.04-1.53,0.11-2.08,0.22c-0.55,0.1-0.99,0.24-1.32,0.4c-0.33,0.17-0.56,0.35-0.69,0.56c-0.14,0.21-0.2,0.44-0.2,0.69
			c0,0.5,0.14,0.85,0.41,1.05c0.28,0.21,0.66,0.31,1.16,0.31c0.57,0,1.06-0.1,1.48-0.3c0.42-0.2,0.83-0.52,1.24-0.95V351.47z"/>
		<path class="st1" d="M1108.35,338.35v18.46h-3.42v-18.46H1108.35z"/>
		<path class="st1" d="M1114.87,340.41c0,0.29-0.06,0.56-0.17,0.8c-0.12,0.25-0.27,0.47-0.46,0.66c-0.19,0.19-0.42,0.34-0.68,0.45
			s-0.54,0.16-0.84,0.16c-0.28,0-0.55-0.05-0.8-0.16c-0.25-0.11-0.47-0.26-0.66-0.45c-0.19-0.19-0.34-0.41-0.45-0.66
			c-0.11-0.25-0.17-0.52-0.17-0.8c0-0.29,0.06-0.56,0.17-0.81c0.11-0.25,0.26-0.47,0.45-0.66c0.19-0.19,0.41-0.34,0.66-0.45
			c0.25-0.11,0.52-0.16,0.8-0.16c0.3,0,0.58,0.05,0.84,0.16c0.26,0.11,0.49,0.26,0.68,0.45c0.19,0.19,0.35,0.41,0.46,0.66
			C1114.81,339.85,1114.87,340.12,1114.87,340.41z M1114.46,344.04v12.76h-3.42v-12.76H1114.46z"/>
		<path class="st1" d="M1125.09,346.66c-0.09,0.14-0.18,0.24-0.28,0.3c-0.1,0.06-0.22,0.09-0.39,0.09c-0.17,0-0.33-0.04-0.51-0.12
			c-0.17-0.08-0.37-0.17-0.58-0.27c-0.21-0.09-0.46-0.18-0.74-0.27c-0.28-0.08-0.6-0.12-0.96-0.12c-0.55,0-0.98,0.11-1.29,0.34
			c-0.31,0.23-0.46,0.53-0.46,0.9c0,0.26,0.09,0.47,0.26,0.64c0.17,0.17,0.4,0.32,0.69,0.45c0.28,0.13,0.61,0.25,0.97,0.36
			c0.36,0.11,0.74,0.23,1.12,0.37c0.38,0.13,0.76,0.28,1.12,0.46c0.36,0.17,0.69,0.39,0.97,0.65c0.28,0.26,0.51,0.57,0.69,0.94
			c0.17,0.37,0.26,0.81,0.26,1.33c0,0.62-0.11,1.19-0.34,1.71c-0.23,0.52-0.56,0.98-1,1.36c-0.44,0.38-0.98,0.68-1.63,0.89
			c-0.65,0.21-1.4,0.32-2.25,0.32c-0.44,0-0.87-0.04-1.3-0.12c-0.43-0.08-0.84-0.19-1.23-0.33c-0.39-0.14-0.75-0.31-1.09-0.5
			c-0.34-0.19-0.63-0.4-0.88-0.62l0.79-1.27c0.09-0.15,0.2-0.26,0.34-0.35s0.31-0.12,0.53-0.12c0.21,0,0.4,0.05,0.57,0.15
			c0.17,0.1,0.37,0.21,0.58,0.33c0.21,0.12,0.47,0.23,0.76,0.33c0.29,0.1,0.66,0.15,1.1,0.15c0.33,0,0.61-0.04,0.85-0.11
			c0.24-0.07,0.43-0.18,0.58-0.3c0.15-0.13,0.26-0.27,0.33-0.43c0.07-0.16,0.1-0.33,0.1-0.5c0-0.28-0.09-0.51-0.27-0.69
			c-0.18-0.18-0.41-0.33-0.69-0.46c-0.28-0.13-0.61-0.25-0.98-0.36c-0.37-0.11-0.75-0.23-1.13-0.36c-0.38-0.13-0.76-0.29-1.13-0.47
			c-0.37-0.18-0.69-0.41-0.98-0.69s-0.52-0.62-0.69-1.02c-0.18-0.4-0.27-0.9-0.27-1.47c0-0.53,0.1-1.03,0.31-1.5
			c0.21-0.47,0.52-0.89,0.93-1.26c0.41-0.36,0.93-0.65,1.54-0.87c0.61-0.21,1.33-0.32,2.14-0.32c0.91,0,1.73,0.15,2.48,0.45
			c0.74,0.3,1.35,0.69,1.83,1.16L1125.09,346.66z"/>
		<path class="st1" d="M1132.27,357c-0.58,0-1.09-0.08-1.53-0.25s-0.82-0.41-1.13-0.72c-0.31-0.31-0.54-0.69-0.69-1.14
			c-0.16-0.45-0.24-0.95-0.24-1.51v-6.88h-1.2c-0.18,0-0.34-0.06-0.46-0.17c-0.13-0.12-0.19-0.29-0.19-0.52v-1.34l2.04-0.37
			l0.69-3.3c0.09-0.37,0.34-0.56,0.76-0.56h1.78v3.89h3.29v2.38h-3.29v6.66c0,0.35,0.08,0.64,0.25,0.84
			c0.17,0.21,0.41,0.31,0.72,0.31c0.16,0,0.31-0.02,0.42-0.06c0.12-0.04,0.21-0.08,0.3-0.12c0.08-0.05,0.16-0.09,0.23-0.12
			c0.07-0.04,0.14-0.06,0.22-0.06c0.1,0,0.18,0.02,0.25,0.07c0.07,0.05,0.13,0.12,0.2,0.23l1.03,1.63c-0.47,0.37-1,0.65-1.6,0.84
			C1133.52,356.91,1132.91,357,1132.27,357z"/>
		<path class="st1" d="M1144.9,346.66c-0.09,0.14-0.18,0.24-0.28,0.3c-0.1,0.06-0.22,0.09-0.39,0.09c-0.17,0-0.33-0.04-0.51-0.12
			c-0.17-0.08-0.37-0.17-0.58-0.27c-0.21-0.09-0.46-0.18-0.74-0.27c-0.28-0.08-0.6-0.12-0.96-0.12c-0.55,0-0.98,0.11-1.29,0.34
			c-0.31,0.23-0.46,0.53-0.46,0.9c0,0.26,0.09,0.47,0.26,0.64s0.4,0.32,0.69,0.45c0.28,0.13,0.61,0.25,0.97,0.36
			c0.36,0.11,0.74,0.23,1.12,0.37c0.38,0.13,0.76,0.28,1.12,0.46c0.36,0.17,0.69,0.39,0.97,0.65c0.28,0.26,0.51,0.57,0.69,0.94
			c0.17,0.37,0.26,0.81,0.26,1.33c0,0.62-0.11,1.19-0.34,1.71c-0.23,0.52-0.56,0.98-1,1.36c-0.44,0.38-0.98,0.68-1.63,0.89
			c-0.65,0.21-1.4,0.32-2.25,0.32c-0.44,0-0.87-0.04-1.3-0.12c-0.43-0.08-0.84-0.19-1.23-0.33c-0.39-0.14-0.75-0.31-1.09-0.5
			c-0.34-0.19-0.63-0.4-0.88-0.62l0.79-1.27c0.09-0.15,0.2-0.26,0.34-0.35s0.31-0.12,0.53-0.12c0.21,0,0.4,0.05,0.57,0.15
			c0.17,0.1,0.37,0.21,0.58,0.33c0.21,0.12,0.47,0.23,0.76,0.33c0.29,0.1,0.66,0.15,1.1,0.15c0.33,0,0.61-0.04,0.85-0.11
			c0.24-0.07,0.43-0.18,0.58-0.3c0.15-0.13,0.26-0.27,0.33-0.43c0.07-0.16,0.1-0.33,0.1-0.5c0-0.28-0.09-0.51-0.27-0.69
			c-0.18-0.18-0.41-0.33-0.69-0.46c-0.28-0.13-0.61-0.25-0.98-0.36c-0.37-0.11-0.75-0.23-1.13-0.36c-0.38-0.13-0.76-0.29-1.13-0.47
			c-0.37-0.18-0.69-0.41-0.98-0.69s-0.52-0.62-0.69-1.02c-0.18-0.4-0.27-0.9-0.27-1.47c0-0.53,0.1-1.03,0.31-1.5
			c0.21-0.47,0.52-0.89,0.93-1.26c0.41-0.36,0.93-0.65,1.54-0.87c0.61-0.21,1.33-0.32,2.14-0.32c0.91,0,1.73,0.15,2.48,0.45
			c0.74,0.3,1.35,0.69,1.83,1.16L1144.9,346.66z"/>
	</g>
	<rect x="493.08" y="174.21" class="st1" width="1.96" height="372.81"/>
	<rect x="864.27" y="174.21" class="st1" width="1.96" height="372.81"/>
	<path class="st1" d="M143.05,52.33c-0.11,0.17-0.22,0.3-0.33,0.38c-0.12,0.08-0.26,0.12-0.43,0.12c-0.18,0-0.39-0.08-0.61-0.23
		c-0.23-0.15-0.5-0.32-0.84-0.51c-0.33-0.19-0.72-0.36-1.17-0.52c-0.45-0.16-0.99-0.24-1.61-0.24c-0.58,0-1.08,0.07-1.52,0.22
		c-0.44,0.14-0.8,0.35-1.1,0.6c-0.3,0.26-0.52,0.56-0.67,0.91c-0.15,0.35-0.22,0.73-0.22,1.14c0,0.53,0.14,0.97,0.42,1.32
		c0.28,0.35,0.65,0.65,1.1,0.9c0.46,0.25,0.98,0.47,1.56,0.66c0.59,0.19,1.18,0.39,1.79,0.6c0.61,0.21,1.21,0.45,1.79,0.72
		c0.59,0.27,1.11,0.61,1.56,1.02c0.46,0.41,0.82,0.92,1.1,1.51c0.28,0.6,0.42,1.32,0.42,2.17c0,0.92-0.16,1.79-0.48,2.59
		c-0.32,0.81-0.78,1.51-1.38,2.11c-0.6,0.6-1.34,1.07-2.22,1.42c-0.88,0.35-1.88,0.52-3,0.52c-0.66,0-1.31-0.06-1.94-0.19
		c-0.63-0.13-1.23-0.31-1.8-0.55c-0.57-0.24-1.11-0.52-1.61-0.86c-0.5-0.34-0.95-0.71-1.34-1.12l0.98-1.61
		c0.09-0.13,0.2-0.24,0.33-0.32c0.13-0.08,0.28-0.12,0.45-0.12c0.22,0,0.47,0.1,0.73,0.31c0.27,0.21,0.59,0.43,0.97,0.68
		c0.38,0.24,0.84,0.47,1.38,0.68c0.54,0.21,1.18,0.31,1.93,0.31c1.22,0,2.16-0.3,2.83-0.89c0.67-0.6,1-1.42,1-2.46
		c0-0.59-0.14-1.06-0.42-1.43c-0.28-0.37-0.65-0.68-1.1-0.93c-0.46-0.25-0.98-0.46-1.56-0.63c-0.59-0.17-1.18-0.36-1.79-0.55
		c-0.6-0.2-1.2-0.43-1.79-0.69c-0.59-0.26-1.11-0.61-1.56-1.04c-0.46-0.43-0.82-0.96-1.1-1.58c-0.28-0.63-0.42-1.41-0.42-2.35
		c0-0.75,0.15-1.47,0.44-2.17c0.29-0.7,0.72-1.32,1.28-1.87c0.56-0.54,1.26-0.98,2.08-1.3c0.83-0.33,1.77-0.49,2.82-0.49
		c1.19,0,2.28,0.19,3.28,0.56c0.99,0.37,1.85,0.91,2.57,1.6L143.05,52.33z M149.53,62.43c0.04,0.84,0.17,1.56,0.39,2.17
		c0.22,0.61,0.52,1.12,0.89,1.52c0.37,0.4,0.81,0.7,1.32,0.9c0.51,0.2,1.09,0.3,1.72,0.3c0.6,0,1.13-0.07,1.57-0.21
		c0.44-0.14,0.83-0.29,1.15-0.46c0.33-0.17,0.6-0.32,0.84-0.46c0.23-0.14,0.44-0.21,0.63-0.21c0.25,0,0.44,0.1,0.58,0.29l0.88,1.14
		c-0.36,0.43-0.78,0.8-1.24,1.09c-0.46,0.3-0.95,0.54-1.47,0.73c-0.52,0.19-1.05,0.32-1.6,0.4c-0.55,0.08-1.08,0.12-1.6,0.12
		c-1.02,0-1.96-0.17-2.83-0.51c-0.87-0.34-1.62-0.84-2.26-1.5c-0.64-0.66-1.14-1.48-1.5-2.46c-0.36-0.98-0.54-2.11-0.54-3.38
		c0-1.02,0.16-1.97,0.48-2.85c0.32-0.88,0.78-1.65,1.38-2.3c0.6-0.65,1.33-1.17,2.19-1.55c0.86-0.38,1.83-0.57,2.92-0.57
		c0.9,0,1.74,0.15,2.51,0.44c0.77,0.29,1.43,0.72,1.99,1.29c0.56,0.57,0.99,1.26,1.3,2.08c0.31,0.82,0.47,1.75,0.47,2.8
		c0,0.48-0.05,0.8-0.16,0.96c-0.11,0.16-0.3,0.24-0.58,0.24H149.53z M156.92,60.53c0-0.52-0.07-1-0.22-1.45
		c-0.15-0.45-0.37-0.84-0.66-1.17c-0.29-0.33-0.65-0.59-1.07-0.78c-0.43-0.19-0.92-0.28-1.48-0.28c-1.12,0-2.01,0.32-2.65,0.96
		c-0.64,0.64-1.05,1.55-1.22,2.71H156.92z M175.24,55.37v1.15c0,0.38-0.23,0.62-0.69,0.71l-1.47,0.24c0.25,0.56,0.37,1.18,0.37,1.86
		c0,0.72-0.14,1.37-0.42,1.96c-0.28,0.59-0.67,1.09-1.17,1.5c-0.5,0.41-1.09,0.73-1.79,0.95c-0.69,0.22-1.44,0.33-2.25,0.33
		c-0.31,0-0.61-0.02-0.9-0.05c-0.29-0.03-0.58-0.08-0.86-0.14c-0.28,0.16-0.48,0.34-0.62,0.52c-0.13,0.18-0.2,0.37-0.2,0.56
		c0,0.32,0.14,0.55,0.42,0.71c0.28,0.15,0.65,0.26,1.1,0.33c0.46,0.07,0.98,0.11,1.56,0.13c0.59,0.02,1.18,0.05,1.79,0.1
		c0.6,0.05,1.2,0.13,1.79,0.24c0.59,0.11,1.11,0.29,1.56,0.55c0.46,0.25,0.82,0.6,1.1,1.03c0.28,0.43,0.42,0.99,0.42,1.68
		c0,0.63-0.16,1.25-0.48,1.86c-0.32,0.6-0.78,1.14-1.38,1.61c-0.6,0.47-1.33,0.85-2.2,1.13c-0.86,0.28-1.85,0.42-2.95,0.42
		c-1.09,0-2.05-0.11-2.86-0.32c-0.81-0.21-1.49-0.5-2.03-0.86c-0.54-0.36-0.95-0.78-1.21-1.25c-0.26-0.47-0.4-0.96-0.4-1.47
		c0-0.69,0.22-1.28,0.66-1.77c0.44-0.49,1.03-0.87,1.78-1.15c-0.4-0.19-0.73-0.46-0.97-0.79c-0.24-0.34-0.37-0.78-0.37-1.32
		c0-0.43,0.16-0.88,0.48-1.35c0.32-0.47,0.79-0.87,1.43-1.2c-0.73-0.4-1.31-0.94-1.73-1.61c-0.42-0.67-0.63-1.45-0.63-2.34
		c0-0.73,0.14-1.39,0.42-1.97c0.28-0.59,0.68-1.08,1.19-1.5c0.51-0.41,1.11-0.73,1.81-0.95c0.7-0.22,1.46-0.33,2.28-0.33
		c1.27,0,2.37,0.26,3.31,0.79H175.24z M172.13,70.25c0-0.33-0.09-0.59-0.28-0.78c-0.19-0.2-0.44-0.35-0.76-0.46
		c-0.32-0.11-0.69-0.19-1.11-0.24c-0.42-0.05-0.87-0.09-1.35-0.12c-0.48-0.02-0.96-0.05-1.45-0.07c-0.49-0.02-0.97-0.07-1.43-0.14
		c-0.46,0.24-0.84,0.53-1.13,0.86c-0.29,0.34-0.44,0.72-0.44,1.17c0,0.29,0.07,0.56,0.22,0.81c0.15,0.25,0.38,0.47,0.69,0.65
		c0.31,0.18,0.71,0.33,1.2,0.43c0.48,0.11,1.07,0.16,1.75,0.16c1.36,0,2.39-0.21,3.07-0.63C171.79,71.45,172.13,70.91,172.13,70.25z
		 M167.82,62.05c0.96,0,1.68-0.24,2.16-0.73c0.48-0.49,0.72-1.13,0.72-1.92c0-0.81-0.24-1.44-0.72-1.92
		c-0.48-0.47-1.2-0.71-2.16-0.71c-0.95,0-1.67,0.24-2.15,0.71c-0.48,0.47-0.73,1.11-0.73,1.92c0,0.38,0.06,0.74,0.19,1.07
		c0.12,0.33,0.31,0.61,0.55,0.84c0.24,0.24,0.54,0.42,0.9,0.55C166.93,61.99,167.35,62.05,167.82,62.05z M177.67,69.53V54.84h1.87
		c0.42,0,0.69,0.2,0.81,0.59l0.2,1.28c0.27-0.31,0.55-0.59,0.84-0.84c0.29-0.25,0.6-0.48,0.93-0.66c0.33-0.19,0.69-0.33,1.07-0.44
		c0.38-0.11,0.79-0.16,1.23-0.16c0.47,0,0.9,0.07,1.3,0.2c0.39,0.13,0.74,0.33,1.04,0.58c0.3,0.25,0.56,0.55,0.78,0.91
		c0.22,0.36,0.4,0.75,0.55,1.2c0.22-0.51,0.5-0.95,0.84-1.31c0.34-0.36,0.71-0.66,1.12-0.89c0.41-0.23,0.85-0.4,1.32-0.51
		c0.47-0.11,0.94-0.17,1.42-0.17c0.79,0,1.49,0.12,2.11,0.37c0.62,0.25,1.14,0.61,1.57,1.09c0.43,0.48,0.75,1.06,0.97,1.75
		c0.22,0.69,0.33,1.48,0.33,2.36v9.35h-3.1v-9.35c0-1.04-0.22-1.82-0.67-2.34c-0.45-0.52-1.11-0.78-1.98-0.78
		c-0.39,0-0.76,0.07-1.11,0.2c-0.35,0.13-0.65,0.33-0.91,0.59c-0.26,0.26-0.46,0.58-0.61,0.97c-0.15,0.39-0.22,0.84-0.22,1.36v9.35
		h-3.1v-9.35c0-1.08-0.22-1.87-0.65-2.37c-0.43-0.5-1.07-0.76-1.9-0.76c-0.58,0-1.11,0.15-1.6,0.44c-0.49,0.29-0.94,0.69-1.35,1.2
		v10.83H177.67z M203.85,62.43c0.04,0.84,0.17,1.56,0.39,2.17c0.22,0.61,0.52,1.12,0.89,1.52c0.37,0.4,0.81,0.7,1.32,0.9
		c0.51,0.2,1.09,0.3,1.72,0.3c0.6,0,1.13-0.07,1.57-0.21c0.44-0.14,0.83-0.29,1.15-0.46c0.33-0.17,0.6-0.32,0.84-0.46
		c0.23-0.14,0.44-0.21,0.63-0.21c0.25,0,0.44,0.1,0.58,0.29l0.88,1.14c-0.36,0.43-0.78,0.8-1.24,1.09c-0.46,0.3-0.95,0.54-1.47,0.73
		c-0.52,0.19-1.05,0.32-1.6,0.4c-0.55,0.08-1.08,0.12-1.6,0.12c-1.02,0-1.96-0.17-2.83-0.51c-0.87-0.34-1.62-0.84-2.26-1.5
		c-0.64-0.66-1.14-1.48-1.5-2.46c-0.36-0.98-0.54-2.11-0.54-3.38c0-1.02,0.16-1.97,0.48-2.85c0.32-0.88,0.78-1.65,1.38-2.3
		c0.6-0.65,1.33-1.17,2.19-1.55c0.86-0.38,1.83-0.57,2.92-0.57c0.9,0,1.74,0.15,2.51,0.44c0.77,0.29,1.43,0.72,1.99,1.29
		c0.56,0.57,0.99,1.26,1.3,2.08c0.31,0.82,0.47,1.75,0.47,2.8c0,0.48-0.05,0.8-0.16,0.96c-0.11,0.16-0.3,0.24-0.58,0.24H203.85z
		 M211.24,60.53c0-0.52-0.07-1-0.22-1.45c-0.15-0.45-0.37-0.84-0.66-1.17c-0.29-0.33-0.65-0.59-1.07-0.78
		c-0.43-0.19-0.92-0.28-1.48-0.28c-1.12,0-2.01,0.32-2.65,0.96c-0.64,0.64-1.05,1.55-1.22,2.71H211.24z M219.8,56.78
		c0.32-0.33,0.65-0.62,0.99-0.89c0.34-0.26,0.7-0.49,1.09-0.68c0.38-0.19,0.79-0.34,1.22-0.45c0.43-0.11,0.9-0.16,1.41-0.16
		c0.81,0,1.51,0.13,2.12,0.4c0.61,0.27,1.12,0.65,1.54,1.14c0.42,0.49,0.73,1.08,0.94,1.76c0.21,0.69,0.32,1.44,0.32,2.27v9.35
		h-3.08v-9.35c0-0.99-0.23-1.76-0.68-2.3c-0.46-0.55-1.15-0.82-2.08-0.82c-0.69,0-1.33,0.16-1.92,0.48
		c-0.59,0.32-1.14,0.75-1.66,1.3v10.7h-3.1V54.84h1.87c0.42,0,0.69,0.2,0.81,0.59L219.8,56.78z M237.57,69.76
		c-1.22,0-2.16-0.34-2.82-1.03c-0.66-0.69-0.99-1.65-0.99-2.9v-8.55h-1.61c-0.17,0-0.32-0.06-0.45-0.17
		c-0.12-0.11-0.19-0.28-0.19-0.5v-1.25l2.38-0.35l0.68-4.25c0.05-0.16,0.13-0.3,0.24-0.4c0.12-0.1,0.27-0.15,0.46-0.15h1.58v4.82
		h4.08v2.23h-4.08v8.34c0,0.53,0.13,0.93,0.39,1.21c0.26,0.28,0.6,0.42,1.04,0.42c0.24,0,0.45-0.03,0.62-0.09
		c0.17-0.06,0.32-0.13,0.45-0.2c0.12-0.07,0.23-0.14,0.32-0.2c0.09-0.06,0.18-0.09,0.27-0.09c0.17,0,0.31,0.1,0.42,0.29l0.92,1.51
		c-0.48,0.42-1.05,0.75-1.7,0.97C238.93,69.64,238.26,69.76,237.57,69.76z M268.29,48.79v20.74h-1.71c-0.26,0-0.48-0.05-0.66-0.14
		c-0.18-0.09-0.36-0.24-0.52-0.45L254,54.3c0.03,0.28,0.05,0.55,0.06,0.83c0.01,0.27,0.02,0.53,0.02,0.76v13.64h-2.97V48.79h1.76
		c0.14,0,0.27,0.01,0.37,0.02c0.1,0.01,0.19,0.04,0.28,0.08c0.09,0.04,0.17,0.1,0.24,0.17c0.08,0.08,0.16,0.17,0.24,0.29L265.42,64
		c-0.03-0.3-0.05-0.59-0.06-0.88s-0.02-0.56-0.02-0.81V48.79H268.29z M271.89,56.88c1.66-1.55,3.64-2.32,5.93-2.32
		c0.84,0,1.6,0.14,2.25,0.41c0.66,0.27,1.21,0.66,1.66,1.16c0.45,0.5,0.79,1.09,1.02,1.78c0.24,0.69,0.35,1.45,0.35,2.28v9.33h-1.38
		c-0.3,0-0.52-0.05-0.68-0.14c-0.15-0.09-0.28-0.28-0.39-0.55l-0.3-1.2c-0.37,0.34-0.74,0.64-1.11,0.9
		c-0.37,0.26-0.74,0.49-1.13,0.67c-0.39,0.18-0.81,0.32-1.25,0.41c-0.45,0.09-0.94,0.14-1.48,0.14c-0.6,0-1.15-0.08-1.66-0.24
		c-0.51-0.16-0.96-0.41-1.33-0.74c-0.37-0.33-0.67-0.74-0.89-1.23c-0.22-0.49-0.32-1.07-0.32-1.73c0-0.57,0.15-1.12,0.45-1.66
		c0.3-0.54,0.8-1.02,1.5-1.45c0.7-0.43,1.61-0.78,2.75-1.06c1.14-0.28,2.54-0.44,4.21-0.48v-0.98c0-1.06-0.23-1.84-0.68-2.36
		c-0.45-0.52-1.11-0.78-1.99-0.78c-0.6,0-1.09,0.07-1.5,0.22c-0.4,0.15-0.75,0.31-1.05,0.48c-0.3,0.17-0.56,0.33-0.79,0.48
		c-0.23,0.15-0.48,0.22-0.73,0.22c-0.21,0-0.39-0.06-0.54-0.17c-0.15-0.11-0.27-0.25-0.37-0.41L271.89,56.88z M280.1,63.1
		c-1.1,0.04-2.04,0.13-2.79,0.27c-0.76,0.14-1.37,0.32-1.84,0.53c-0.47,0.22-0.81,0.47-1.02,0.77c-0.21,0.3-0.31,0.62-0.31,0.98
		c0,0.35,0.06,0.64,0.17,0.89c0.11,0.24,0.26,0.45,0.46,0.6c0.2,0.16,0.43,0.27,0.69,0.35c0.26,0.07,0.55,0.11,0.87,0.11
		c0.81,0,1.5-0.15,2.08-0.45c0.58-0.3,1.14-0.74,1.69-1.32V63.1z M289.63,57.56c0.46-0.93,1.02-1.66,1.67-2.2
		c0.65-0.53,1.44-0.8,2.35-0.8c0.32,0,0.61,0.04,0.89,0.11c0.28,0.07,0.53,0.18,0.75,0.32l-0.22,2.33c-0.04,0.16-0.1,0.28-0.18,0.34
		c-0.08,0.06-0.19,0.09-0.32,0.09c-0.14,0-0.35-0.03-0.62-0.08c-0.27-0.05-0.55-0.08-0.85-0.08c-0.43,0-0.81,0.06-1.14,0.19
		c-0.33,0.12-0.63,0.31-0.89,0.55c-0.26,0.24-0.5,0.53-0.7,0.88c-0.2,0.35-0.39,0.74-0.56,1.18v9.13h-3.1V54.84h1.8
		c0.33,0,0.55,0.06,0.68,0.18c0.12,0.12,0.21,0.33,0.26,0.63L289.63,57.56z M300.26,57.56c0.46-0.93,1.02-1.66,1.67-2.2
		c0.65-0.53,1.44-0.8,2.35-0.8c0.32,0,0.61,0.04,0.89,0.11c0.28,0.07,0.53,0.18,0.75,0.32l-0.22,2.33c-0.04,0.16-0.1,0.28-0.18,0.34
		c-0.08,0.06-0.19,0.09-0.32,0.09c-0.14,0-0.35-0.03-0.62-0.08c-0.27-0.05-0.55-0.08-0.85-0.08c-0.43,0-0.81,0.06-1.14,0.19
		c-0.33,0.12-0.63,0.31-0.89,0.55c-0.26,0.24-0.5,0.53-0.7,0.88c-0.2,0.35-0.39,0.74-0.56,1.18v9.13h-3.1V54.84h1.8
		c0.33,0,0.55,0.06,0.68,0.18c0.12,0.12,0.21,0.33,0.26,0.63L300.26,57.56z M307.39,56.88c1.66-1.55,3.64-2.32,5.93-2.32
		c0.84,0,1.6,0.14,2.25,0.41c0.66,0.27,1.21,0.66,1.66,1.16c0.45,0.5,0.79,1.09,1.02,1.78c0.24,0.69,0.35,1.45,0.35,2.28v9.33h-1.38
		c-0.3,0-0.52-0.05-0.68-0.14c-0.15-0.09-0.28-0.28-0.39-0.55l-0.3-1.2c-0.37,0.34-0.74,0.64-1.11,0.9
		c-0.37,0.26-0.74,0.49-1.13,0.67c-0.39,0.18-0.81,0.32-1.25,0.41c-0.45,0.09-0.94,0.14-1.48,0.14c-0.6,0-1.15-0.08-1.66-0.24
		c-0.51-0.16-0.96-0.41-1.33-0.74c-0.37-0.33-0.67-0.74-0.89-1.23c-0.22-0.49-0.32-1.07-0.32-1.73c0-0.57,0.15-1.12,0.45-1.66
		c0.3-0.54,0.8-1.02,1.5-1.45c0.7-0.43,1.61-0.78,2.75-1.06c1.14-0.28,2.54-0.44,4.21-0.48v-0.98c0-1.06-0.23-1.84-0.68-2.36
		c-0.45-0.52-1.11-0.78-1.99-0.78c-0.6,0-1.09,0.07-1.5,0.22c-0.4,0.15-0.75,0.31-1.05,0.48c-0.3,0.17-0.56,0.33-0.79,0.48
		c-0.23,0.15-0.48,0.22-0.73,0.22c-0.21,0-0.39-0.06-0.54-0.17c-0.15-0.11-0.27-0.25-0.37-0.41L307.39,56.88z M315.6,63.1
		c-1.1,0.04-2.04,0.13-2.79,0.27c-0.76,0.14-1.37,0.32-1.84,0.53c-0.47,0.22-0.81,0.47-1.02,0.77c-0.21,0.3-0.31,0.62-0.31,0.98
		c0,0.35,0.06,0.64,0.17,0.89c0.11,0.24,0.26,0.45,0.46,0.6c0.2,0.16,0.43,0.27,0.69,0.35c0.26,0.07,0.55,0.11,0.87,0.11
		c0.81,0,1.5-0.15,2.08-0.45c0.58-0.3,1.14-0.74,1.69-1.32V63.1z M336.28,69.53h-3.1V57.27h-7.16v8.34c0,0.53,0.13,0.93,0.39,1.21
		c0.26,0.28,0.6,0.42,1.04,0.42c0.24,0,0.45-0.03,0.62-0.09c0.17-0.06,0.32-0.13,0.45-0.2c0.12-0.07,0.23-0.14,0.32-0.2
		c0.09-0.06,0.18-0.09,0.27-0.09c0.17,0,0.31,0.1,0.42,0.29l0.92,1.51c-0.48,0.42-1.05,0.75-1.7,0.97
		c-0.65,0.23-1.32,0.34-2.02,0.34c-1.22,0-2.16-0.34-2.82-1.03c-0.66-0.69-0.99-1.65-0.99-2.9v-8.55h-1.61
		c-0.17,0-0.32-0.06-0.45-0.17c-0.12-0.11-0.19-0.28-0.19-0.5v-1.25l2.38-0.35l0.68-4.25c0.05-0.16,0.13-0.3,0.24-0.4
		c0.12-0.1,0.27-0.15,0.46-0.15h1.58v4.82h10.25V69.53z M336.91,50.33c0,0.28-0.06,0.54-0.17,0.78c-0.11,0.24-0.26,0.46-0.45,0.65
		c-0.19,0.19-0.42,0.34-0.67,0.45c-0.25,0.11-0.52,0.17-0.8,0.17c-0.28,0-0.54-0.06-0.78-0.17c-0.24-0.11-0.46-0.26-0.65-0.45
		c-0.19-0.19-0.34-0.4-0.45-0.65c-0.11-0.24-0.17-0.51-0.17-0.78c0-0.29,0.06-0.56,0.17-0.81c0.11-0.25,0.26-0.48,0.45-0.66
		c0.19-0.19,0.4-0.34,0.65-0.45c0.24-0.11,0.51-0.17,0.78-0.17c0.28,0,0.54,0.06,0.8,0.17c0.25,0.11,0.48,0.26,0.67,0.45
		c0.19,0.19,0.34,0.41,0.45,0.66C336.86,49.77,336.91,50.04,336.91,50.33z M353.1,54.84l-5.9,14.69h-2.79l-5.9-14.69h2.55
		c0.24,0,0.44,0.06,0.6,0.18c0.16,0.12,0.26,0.26,0.31,0.42l3.25,8.55c0.13,0.4,0.25,0.8,0.36,1.2c0.11,0.39,0.2,0.79,0.27,1.2
		c0.08-0.4,0.17-0.8,0.28-1.19c0.11-0.39,0.23-0.79,0.37-1.2l3.31-8.55c0.06-0.17,0.16-0.32,0.32-0.43
		c0.15-0.12,0.34-0.17,0.56-0.17H353.1z M357.05,62.43c0.04,0.84,0.17,1.56,0.39,2.17c0.22,0.61,0.52,1.12,0.89,1.52
		c0.37,0.4,0.81,0.7,1.32,0.9c0.51,0.2,1.09,0.3,1.72,0.3c0.6,0,1.13-0.07,1.57-0.21c0.44-0.14,0.83-0.29,1.15-0.46
		c0.33-0.17,0.6-0.32,0.84-0.46c0.23-0.14,0.44-0.21,0.63-0.21c0.25,0,0.44,0.1,0.58,0.29l0.88,1.14c-0.37,0.43-0.78,0.8-1.24,1.09
		c-0.46,0.3-0.95,0.54-1.47,0.73c-0.52,0.19-1.05,0.32-1.6,0.4c-0.55,0.08-1.08,0.12-1.6,0.12c-1.02,0-1.96-0.17-2.83-0.51
		c-0.87-0.34-1.62-0.84-2.26-1.5c-0.64-0.66-1.14-1.48-1.5-2.46c-0.36-0.98-0.54-2.11-0.54-3.38c0-1.02,0.16-1.97,0.48-2.85
		c0.32-0.88,0.78-1.65,1.38-2.3c0.6-0.65,1.33-1.17,2.19-1.55c0.86-0.38,1.83-0.57,2.92-0.57c0.9,0,1.74,0.15,2.51,0.44
		c0.77,0.29,1.43,0.72,1.99,1.29c0.56,0.57,0.99,1.26,1.3,2.08c0.31,0.82,0.47,1.75,0.47,2.8c0,0.48-0.05,0.8-0.16,0.96
		c-0.11,0.16-0.3,0.24-0.58,0.24H357.05z M364.44,60.53c0-0.52-0.07-1-0.22-1.45c-0.15-0.45-0.37-0.84-0.66-1.17
		c-0.29-0.33-0.65-0.59-1.07-0.78c-0.43-0.19-0.92-0.28-1.48-0.28c-1.12,0-2.01,0.32-2.65,0.96c-0.64,0.64-1.05,1.55-1.22,2.71
		H364.44z M378.87,57.5c-0.08,0.13-0.16,0.23-0.26,0.29c-0.1,0.06-0.22,0.09-0.36,0.09c-0.16,0-0.34-0.05-0.53-0.15
		c-0.19-0.1-0.42-0.21-0.68-0.34c-0.26-0.12-0.56-0.24-0.91-0.34c-0.35-0.1-0.76-0.15-1.23-0.15c-0.38,0-0.73,0.05-1.04,0.14
		c-0.31,0.09-0.58,0.22-0.79,0.39c-0.22,0.17-0.38,0.36-0.5,0.59c-0.12,0.23-0.17,0.47-0.17,0.73c0,0.35,0.11,0.63,0.32,0.86
		c0.21,0.23,0.49,0.43,0.84,0.6c0.35,0.17,0.74,0.32,1.18,0.45c0.44,0.13,0.89,0.28,1.35,0.43c0.46,0.15,0.91,0.33,1.35,0.53
		c0.44,0.2,0.84,0.45,1.18,0.74c0.35,0.29,0.62,0.65,0.84,1.07c0.21,0.42,0.32,0.92,0.32,1.52c0,0.69-0.12,1.33-0.37,1.92
		c-0.25,0.59-0.61,1.09-1.09,1.53c-0.48,0.43-1.08,0.77-1.79,1.01c-0.72,0.24-1.53,0.36-2.46,0.36c-0.51,0-1-0.05-1.48-0.14
		c-0.48-0.09-0.93-0.22-1.35-0.37c-0.43-0.16-0.83-0.35-1.2-0.57c-0.37-0.22-0.7-0.46-0.99-0.72l0.72-1.18
		c0.09-0.14,0.19-0.26,0.32-0.34c0.13-0.08,0.29-0.12,0.48-0.12c0.2,0,0.4,0.06,0.6,0.19c0.2,0.13,0.43,0.27,0.69,0.42
		c0.26,0.15,0.58,0.3,0.96,0.42c0.37,0.13,0.84,0.19,1.4,0.19c0.46,0,0.86-0.06,1.2-0.17c0.34-0.11,0.61-0.26,0.84-0.45
		c0.22-0.19,0.38-0.41,0.49-0.66c0.11-0.24,0.16-0.51,0.16-0.78c0-0.37-0.11-0.68-0.32-0.92c-0.21-0.24-0.49-0.45-0.84-0.62
		c-0.35-0.17-0.75-0.33-1.2-0.46c-0.45-0.13-0.9-0.28-1.36-0.43c-0.46-0.15-0.91-0.33-1.36-0.53c-0.45-0.2-0.84-0.46-1.2-0.77
		c-0.35-0.31-0.63-0.69-0.84-1.14c-0.21-0.45-0.32-0.99-0.32-1.63c0-0.59,0.12-1.14,0.35-1.67c0.24-0.53,0.58-0.99,1.04-1.4
		c0.46-0.4,1.02-0.72,1.68-0.96c0.67-0.24,1.44-0.35,2.31-0.35c0.99,0,1.89,0.16,2.69,0.48c0.81,0.32,1.48,0.75,2.03,1.3
		L378.87,57.5z"/>
	<path class="st2" d="M918.67,451.38c-4.8,0-8.69,3.89-8.69,8.69v42.52c0,4.8,3.89,8.69,8.69,8.69h259.97c4.8,0,8.69-3.89,8.69-8.69
		v-42.52c0-4.8-3.89-8.69-8.69-8.69H918.67z"/>
	<path class="st2" d="M551.11,451.55c-4.8,0-8.69,3.89-8.69,8.69v42.52c0,4.8,3.89,8.69,8.69,8.69h259.97c4.8,0,8.69-3.89,8.69-8.69
		v-42.52c0-4.8-3.89-8.69-8.69-8.69H551.11z"/>
	<path class="st2" d="M174.93,451.55c-4.8,0-8.69,3.89-8.69,8.69v42.52c0,4.8,3.89,8.69,8.69,8.69H434.9c4.8,0,8.69-3.89,8.69-8.69
		v-42.52c0-4.8-3.89-8.69-8.69-8.69H174.93z"/>
	<polygon class="st3" points="1155.22,493.92 1152.46,491.16 1162.32,481.31 1152.46,471.45 1155.22,468.7 1167.83,481.31 	"/>
	<polygon class="st3" points="787.66,494.09 784.9,491.33 794.76,481.48 784.9,471.62 787.66,468.86 800.27,481.48 	"/>
	<polygon class="st3" points="411.49,494.09 408.73,491.33 418.58,481.48 408.73,471.62 411.49,468.86 424.1,481.48 	"/>
	<g>
		<path class="st3" d="M1011.21,473.83v4.96h6.26v2.56h-6.26v5.06h7.95v2.66h-11.29v-17.9h11.29v2.65H1011.21z"/>
		<path class="st3" d="M1032.73,489.08h-2.95c-0.22,0-0.4-0.06-0.54-0.17c-0.14-0.12-0.25-0.25-0.34-0.4l-2.69-4.42
			c-0.04,0.14-0.09,0.27-0.14,0.4c-0.05,0.12-0.11,0.24-0.18,0.35l-2.38,3.68c-0.09,0.14-0.2,0.27-0.33,0.39
			c-0.13,0.12-0.3,0.18-0.5,0.18h-2.74l4.36-6.55l-4.18-6.15h2.95c0.22,0,0.39,0.03,0.5,0.09c0.11,0.06,0.2,0.16,0.28,0.3l2.66,4.23
			c0.09-0.28,0.22-0.56,0.38-0.83l2.14-3.34c0.18-0.31,0.42-0.46,0.71-0.46h2.81l-4.17,6.02L1032.73,489.08z"/>
		<path class="st3" d="M1036.99,478.12c0.52-0.59,1.11-1.06,1.77-1.42c0.66-0.36,1.44-0.54,2.33-0.54c0.69,0,1.33,0.14,1.9,0.43
			c0.57,0.29,1.07,0.71,1.49,1.26c0.42,0.55,0.74,1.23,0.97,2.03c0.23,0.8,0.34,1.73,0.34,2.77c0,0.95-0.13,1.83-0.38,2.64
			c-0.26,0.81-0.62,1.51-1.09,2.1c-0.47,0.59-1.05,1.06-1.72,1.39c-0.67,0.33-1.43,0.5-2.26,0.5c-0.71,0-1.32-0.11-1.82-0.33
			c-0.5-0.22-0.95-0.52-1.35-0.91v5.2h-3.06v-16.85h1.87c0.4,0,0.66,0.18,0.78,0.56L1036.99,478.12z M1037.15,485.79
			c0.35,0.42,0.72,0.72,1.13,0.89c0.41,0.17,0.85,0.26,1.33,0.26c0.46,0,0.88-0.09,1.25-0.26c0.37-0.17,0.69-0.44,0.95-0.79
			c0.26-0.36,0.46-0.8,0.6-1.34c0.14-0.54,0.21-1.18,0.21-1.91c0-0.74-0.06-1.37-0.18-1.89c-0.12-0.52-0.29-0.93-0.51-1.26
			c-0.22-0.32-0.49-0.56-0.81-0.71c-0.32-0.15-0.68-0.22-1.08-0.22c-0.64,0-1.18,0.13-1.62,0.4s-0.87,0.65-1.26,1.13V485.79z"/>
		<path class="st3" d="M1051,470.69v18.39h-3.06v-18.39H1051z"/>
		<path class="st3" d="M1059.43,476.19c0.94,0,1.8,0.15,2.57,0.46c0.77,0.31,1.43,0.74,1.98,1.3c0.55,0.56,0.97,1.25,1.27,2.05
			c0.3,0.81,0.45,1.71,0.45,2.71c0,1.01-0.15,1.91-0.45,2.72c-0.3,0.81-0.72,1.5-1.27,2.07c-0.55,0.57-1.21,1.01-1.98,1.31
			c-0.77,0.3-1.63,0.46-2.57,0.46c-0.95,0-1.81-0.15-2.59-0.46c-0.78-0.31-1.44-0.74-1.99-1.31c-0.55-0.57-0.97-1.26-1.27-2.07
			c-0.3-0.81-0.45-1.72-0.45-2.72c0-1,0.15-1.9,0.45-2.71c0.3-0.81,0.73-1.49,1.27-2.05c0.55-0.56,1.21-0.99,1.99-1.3
			C1057.62,476.34,1058.48,476.19,1059.43,476.19z M1059.43,486.92c1.06,0,1.84-0.35,2.35-1.06c0.51-0.71,0.76-1.75,0.76-3.12
			c0-1.37-0.25-2.41-0.76-3.13s-1.29-1.08-2.35-1.08c-1.07,0-1.87,0.36-2.38,1.08c-0.52,0.72-0.77,1.76-0.77,3.13
			c0,1.36,0.26,2.4,0.77,3.11C1057.56,486.56,1058.36,486.92,1059.43,486.92z"/>
		<path class="st3" d="M1070.67,478.59c0.4-0.76,0.87-1.35,1.41-1.79c0.54-0.43,1.19-0.65,1.93-0.65c0.59,0,1.06,0.13,1.41,0.38
			l-0.2,2.29c-0.04,0.15-0.1,0.25-0.18,0.32c-0.08,0.06-0.18,0.09-0.32,0.09c-0.12,0-0.31-0.02-0.55-0.06
			c-0.24-0.04-0.48-0.06-0.71-0.06c-0.34,0-0.64,0.05-0.9,0.15c-0.26,0.1-0.5,0.24-0.71,0.43c-0.21,0.19-0.4,0.41-0.56,0.67
			c-0.16,0.26-0.31,0.57-0.45,0.9v7.82h-3.06v-12.7h1.8c0.31,0,0.53,0.06,0.66,0.17s0.21,0.31,0.25,0.6L1070.67,478.59z"/>
		<path class="st3" d="M1078.78,483.12c0.05,0.65,0.16,1.21,0.35,1.69c0.18,0.48,0.42,0.87,0.72,1.18c0.3,0.31,0.65,0.54,1.06,0.69
			c0.41,0.15,0.86,0.23,1.35,0.23c0.5,0,0.92-0.06,1.28-0.17c0.36-0.12,0.67-0.24,0.94-0.38c0.27-0.14,0.5-0.27,0.71-0.38
			c0.2-0.12,0.4-0.17,0.59-0.17c0.26,0,0.45,0.09,0.57,0.28l0.88,1.11c-0.34,0.4-0.72,0.73-1.14,1c-0.42,0.27-0.86,0.48-1.32,0.64
			c-0.46,0.16-0.92,0.27-1.4,0.34c-0.47,0.07-0.93,0.1-1.38,0.1c-0.88,0-1.7-0.15-2.46-0.44c-0.76-0.29-1.42-0.73-1.98-1.3
			c-0.56-0.57-1-1.28-1.32-2.13s-0.48-1.83-0.48-2.94c0-0.87,0.14-1.68,0.42-2.44c0.28-0.76,0.68-1.43,1.21-1.99
			c0.52-0.57,1.16-1.01,1.92-1.34c0.75-0.33,1.61-0.5,2.56-0.5c0.8,0,1.54,0.13,2.22,0.38c0.68,0.26,1.26,0.63,1.74,1.12
			c0.49,0.49,0.87,1.09,1.15,1.81c0.28,0.71,0.41,1.53,0.41,2.45c0,0.46-0.05,0.77-0.15,0.93c-0.1,0.16-0.29,0.24-0.57,0.24H1078.78
			z M1084.61,481.27c0-0.4-0.06-0.77-0.17-1.12c-0.11-0.35-0.28-0.66-0.5-0.92c-0.22-0.26-0.51-0.47-0.85-0.63
			c-0.34-0.15-0.74-0.23-1.19-0.23c-0.88,0-1.58,0.25-2.09,0.75c-0.51,0.5-0.83,1.22-0.97,2.14H1084.61z"/>
	</g>
	<g>
		<path class="st3" d="M643.66,474.01v4.96h6.26v2.56h-6.26v5.06h7.95v2.66h-11.29v-17.9h11.29v2.65H643.66z"/>
		<path class="st3" d="M665.16,489.26h-2.95c-0.22,0-0.4-0.06-0.54-0.17c-0.14-0.12-0.25-0.25-0.34-0.4l-2.69-4.42
			c-0.04,0.14-0.09,0.27-0.14,0.4c-0.05,0.12-0.11,0.24-0.18,0.35l-2.38,3.68c-0.09,0.14-0.2,0.27-0.33,0.39
			c-0.13,0.12-0.3,0.18-0.5,0.18h-2.74l4.36-6.55l-4.18-6.15h2.95c0.22,0,0.39,0.03,0.5,0.09c0.11,0.06,0.2,0.16,0.28,0.3l2.66,4.23
			c0.09-0.28,0.22-0.56,0.38-0.83l2.14-3.34c0.18-0.31,0.42-0.46,0.71-0.46h2.81l-4.17,6.02L665.16,489.26z"/>
		<path class="st3" d="M669.41,478.29c0.52-0.59,1.11-1.06,1.77-1.42c0.66-0.36,1.44-0.54,2.33-0.54c0.69,0,1.33,0.14,1.9,0.43
			c0.57,0.29,1.07,0.71,1.49,1.26c0.42,0.55,0.74,1.23,0.97,2.03c0.23,0.8,0.34,1.73,0.34,2.77c0,0.95-0.13,1.83-0.38,2.64
			c-0.26,0.81-0.62,1.51-1.1,2.1c-0.47,0.59-1.05,1.06-1.72,1.39c-0.67,0.33-1.43,0.5-2.26,0.5c-0.71,0-1.32-0.11-1.82-0.33
			c-0.5-0.22-0.95-0.52-1.35-0.91v5.2h-3.06v-16.85h1.87c0.4,0,0.66,0.18,0.78,0.56L669.41,478.29z M669.57,485.96
			c0.35,0.42,0.72,0.72,1.13,0.89c0.41,0.17,0.85,0.26,1.33,0.26c0.46,0,0.88-0.09,1.25-0.26c0.37-0.17,0.69-0.44,0.95-0.79
			c0.26-0.36,0.46-0.8,0.6-1.34c0.14-0.54,0.21-1.18,0.21-1.91c0-0.74-0.06-1.37-0.18-1.89c-0.12-0.52-0.29-0.93-0.51-1.26
			c-0.22-0.32-0.49-0.56-0.81-0.71c-0.32-0.15-0.68-0.22-1.08-0.22c-0.64,0-1.18,0.13-1.62,0.4c-0.45,0.27-0.87,0.65-1.26,1.13
			V485.96z"/>
		<path class="st3" d="M683.43,470.86v18.39h-3.06v-18.39H683.43z"/>
		<path class="st3" d="M691.85,476.36c0.94,0,1.8,0.15,2.57,0.46c0.77,0.31,1.43,0.74,1.98,1.3c0.55,0.56,0.97,1.25,1.27,2.05
			c0.3,0.81,0.45,1.71,0.45,2.71c0,1.01-0.15,1.91-0.45,2.72c-0.3,0.81-0.72,1.5-1.27,2.07c-0.55,0.57-1.21,1.01-1.98,1.31
			c-0.77,0.3-1.63,0.46-2.57,0.46c-0.95,0-1.81-0.15-2.59-0.46c-0.78-0.31-1.44-0.74-1.99-1.31c-0.55-0.57-0.97-1.26-1.27-2.07
			c-0.3-0.81-0.45-1.72-0.45-2.72c0-1,0.15-1.9,0.45-2.71c0.3-0.81,0.73-1.49,1.27-2.05c0.55-0.56,1.21-0.99,1.99-1.3
			C690.04,476.51,690.9,476.36,691.85,476.36z M691.85,487.09c1.06,0,1.84-0.35,2.35-1.06c0.51-0.71,0.76-1.75,0.76-3.12
			s-0.25-2.41-0.76-3.13c-0.51-0.72-1.29-1.08-2.35-1.08c-1.07,0-1.87,0.36-2.38,1.08c-0.52,0.72-0.77,1.76-0.77,3.13
			c0,1.36,0.26,2.4,0.77,3.11C689.99,486.73,690.78,487.09,691.85,487.09z"/>
		<path class="st3" d="M703.09,478.76c0.4-0.76,0.87-1.35,1.41-1.79c0.54-0.43,1.19-0.65,1.93-0.65c0.59,0,1.06,0.13,1.41,0.38
			l-0.2,2.29c-0.04,0.15-0.1,0.25-0.18,0.32c-0.08,0.06-0.18,0.09-0.32,0.09c-0.12,0-0.31-0.02-0.55-0.06
			c-0.24-0.04-0.48-0.06-0.71-0.06c-0.34,0-0.64,0.05-0.9,0.15c-0.26,0.1-0.5,0.24-0.71,0.43c-0.21,0.19-0.4,0.41-0.56,0.67
			c-0.16,0.26-0.31,0.57-0.45,0.9v7.82h-3.06v-12.7h1.8c0.31,0,0.53,0.06,0.66,0.17c0.12,0.11,0.21,0.31,0.25,0.6L703.09,478.76z"/>
		<path class="st3" d="M711.2,483.29c0.05,0.65,0.16,1.21,0.35,1.69c0.18,0.48,0.42,0.87,0.72,1.18c0.3,0.31,0.65,0.54,1.06,0.69
			c0.41,0.15,0.86,0.23,1.35,0.23c0.5,0,0.92-0.06,1.28-0.17c0.36-0.12,0.67-0.24,0.94-0.38c0.27-0.14,0.5-0.27,0.71-0.38
			c0.2-0.12,0.4-0.17,0.59-0.17c0.26,0,0.45,0.09,0.57,0.28l0.88,1.11c-0.34,0.4-0.72,0.73-1.14,1c-0.42,0.27-0.86,0.48-1.32,0.64
			s-0.92,0.27-1.4,0.34c-0.47,0.07-0.93,0.1-1.38,0.1c-0.88,0-1.7-0.15-2.46-0.44c-0.76-0.29-1.42-0.73-1.98-1.3
			c-0.56-0.57-1-1.28-1.32-2.13s-0.48-1.83-0.48-2.94c0-0.87,0.14-1.68,0.42-2.44c0.28-0.76,0.68-1.43,1.21-1.99
			c0.52-0.57,1.16-1.01,1.92-1.34c0.75-0.33,1.61-0.5,2.56-0.5c0.8,0,1.54,0.13,2.22,0.38c0.68,0.26,1.26,0.63,1.75,1.12
			c0.49,0.49,0.87,1.09,1.15,1.81c0.28,0.71,0.41,1.53,0.41,2.45c0,0.46-0.05,0.77-0.15,0.93c-0.1,0.16-0.29,0.24-0.57,0.24H711.2z
			 M717.03,481.45c0-0.4-0.06-0.77-0.17-1.12c-0.11-0.35-0.28-0.66-0.5-0.92c-0.22-0.26-0.51-0.47-0.85-0.63
			c-0.34-0.15-0.74-0.23-1.19-0.23c-0.88,0-1.58,0.25-2.09,0.75c-0.51,0.5-0.83,1.22-0.97,2.14H717.03z"/>
	</g>
	<g>
		<path class="st3" d="M267.49,474.01v4.96h6.26v2.56h-6.26v5.06h7.95v2.66h-11.29v-17.9h11.29v2.65H267.49z"/>
		<path class="st3" d="M288.99,489.26h-2.95c-0.22,0-0.4-0.06-0.54-0.17c-0.14-0.12-0.25-0.25-0.34-0.4l-2.69-4.42
			c-0.04,0.14-0.09,0.27-0.14,0.4c-0.05,0.12-0.11,0.24-0.18,0.35l-2.38,3.68c-0.09,0.14-0.2,0.27-0.33,0.39
			c-0.13,0.12-0.3,0.18-0.5,0.18h-2.74l4.36-6.55l-4.18-6.15h2.95c0.22,0,0.39,0.03,0.5,0.09s0.2,0.16,0.28,0.3l2.66,4.23
			c0.09-0.28,0.22-0.56,0.38-0.83l2.14-3.34c0.18-0.31,0.42-0.46,0.71-0.46h2.81l-4.17,6.02L288.99,489.26z"/>
		<path class="st3" d="M293.25,478.29c0.52-0.59,1.11-1.06,1.77-1.42c0.66-0.36,1.44-0.54,2.33-0.54c0.69,0,1.33,0.14,1.9,0.43
			c0.57,0.29,1.07,0.71,1.49,1.26c0.42,0.55,0.74,1.23,0.97,2.03c0.23,0.8,0.34,1.73,0.34,2.77c0,0.95-0.13,1.83-0.38,2.64
			c-0.26,0.81-0.62,1.51-1.1,2.1c-0.47,0.59-1.05,1.06-1.72,1.39c-0.67,0.33-1.43,0.5-2.26,0.5c-0.71,0-1.32-0.11-1.82-0.33
			c-0.5-0.22-0.95-0.52-1.35-0.91v5.2h-3.06v-16.85h1.87c0.4,0,0.66,0.18,0.78,0.56L293.25,478.29z M293.41,485.96
			c0.35,0.42,0.72,0.72,1.13,0.89c0.41,0.17,0.85,0.26,1.33,0.26c0.46,0,0.88-0.09,1.25-0.26c0.37-0.17,0.69-0.44,0.95-0.79
			c0.26-0.36,0.46-0.8,0.6-1.34c0.14-0.54,0.21-1.18,0.21-1.91c0-0.74-0.06-1.37-0.18-1.89c-0.12-0.52-0.29-0.93-0.51-1.26
			c-0.22-0.32-0.49-0.56-0.81-0.71c-0.32-0.15-0.68-0.22-1.08-0.22c-0.64,0-1.18,0.13-1.62,0.4s-0.87,0.65-1.26,1.13V485.96z"/>
		<path class="st3" d="M307.28,470.86v18.39h-3.06v-18.39H307.28z"/>
		<path class="st3" d="M315.71,476.36c0.94,0,1.8,0.15,2.57,0.46c0.77,0.31,1.43,0.74,1.98,1.3c0.55,0.56,0.97,1.25,1.27,2.05
			c0.3,0.81,0.45,1.71,0.45,2.71c0,1.01-0.15,1.91-0.45,2.72c-0.3,0.81-0.72,1.5-1.27,2.07s-1.21,1.01-1.98,1.31
			c-0.77,0.3-1.63,0.46-2.57,0.46c-0.95,0-1.81-0.15-2.59-0.46c-0.78-0.31-1.44-0.74-1.99-1.31s-0.97-1.26-1.28-2.07
			c-0.3-0.81-0.45-1.72-0.45-2.72c0-1,0.15-1.9,0.45-2.71c0.3-0.81,0.73-1.49,1.28-2.05c0.55-0.56,1.21-0.99,1.99-1.3
			C313.9,476.51,314.76,476.36,315.71,476.36z M315.71,487.09c1.06,0,1.84-0.35,2.35-1.06c0.51-0.71,0.76-1.75,0.76-3.12
			s-0.25-2.41-0.76-3.13c-0.51-0.72-1.29-1.08-2.35-1.08c-1.07,0-1.87,0.36-2.38,1.08c-0.52,0.72-0.77,1.76-0.77,3.13
			c0,1.36,0.26,2.4,0.77,3.11C313.85,486.73,314.64,487.09,315.71,487.09z"/>
		<path class="st3" d="M326.95,478.76c0.4-0.76,0.87-1.35,1.41-1.79c0.54-0.43,1.19-0.65,1.93-0.65c0.59,0,1.06,0.13,1.41,0.38
			l-0.2,2.29c-0.04,0.15-0.1,0.25-0.18,0.32c-0.08,0.06-0.18,0.09-0.32,0.09c-0.12,0-0.31-0.02-0.55-0.06
			c-0.24-0.04-0.48-0.06-0.71-0.06c-0.34,0-0.64,0.05-0.9,0.15c-0.26,0.1-0.5,0.24-0.71,0.43c-0.21,0.19-0.4,0.41-0.56,0.67
			c-0.16,0.26-0.31,0.57-0.45,0.9v7.82h-3.06v-12.7h1.79c0.31,0,0.53,0.06,0.66,0.17c0.12,0.11,0.21,0.31,0.25,0.6L326.95,478.76z"
			/>
		<path class="st3" d="M335.06,483.29c0.05,0.65,0.17,1.21,0.35,1.69c0.18,0.48,0.42,0.87,0.72,1.18c0.3,0.31,0.65,0.54,1.06,0.69
			c0.41,0.15,0.86,0.23,1.36,0.23s0.92-0.06,1.28-0.17c0.36-0.12,0.67-0.24,0.94-0.38c0.27-0.14,0.5-0.27,0.71-0.38
			c0.2-0.12,0.4-0.17,0.59-0.17c0.26,0,0.45,0.09,0.57,0.28l0.88,1.11c-0.34,0.4-0.72,0.73-1.14,1c-0.42,0.27-0.86,0.48-1.32,0.64
			c-0.46,0.16-0.92,0.27-1.4,0.34c-0.47,0.07-0.93,0.1-1.38,0.1c-0.88,0-1.7-0.15-2.46-0.44c-0.76-0.29-1.42-0.73-1.98-1.3
			c-0.56-0.57-1-1.28-1.32-2.13c-0.32-0.85-0.48-1.83-0.48-2.94c0-0.87,0.14-1.68,0.42-2.44c0.28-0.76,0.68-1.43,1.21-1.99
			s1.16-1.01,1.92-1.34c0.75-0.33,1.61-0.5,2.56-0.5c0.8,0,1.54,0.13,2.22,0.38c0.68,0.26,1.26,0.63,1.75,1.12
			c0.49,0.49,0.87,1.09,1.14,1.81c0.28,0.71,0.41,1.53,0.41,2.45c0,0.46-0.05,0.77-0.15,0.93c-0.1,0.16-0.29,0.24-0.57,0.24H335.06z
			 M340.89,481.45c0-0.4-0.06-0.77-0.17-1.12c-0.11-0.35-0.28-0.66-0.5-0.92c-0.22-0.26-0.51-0.47-0.85-0.63
			c-0.34-0.15-0.74-0.23-1.19-0.23c-0.88,0-1.58,0.25-2.09,0.75c-0.51,0.5-0.83,1.22-0.97,2.14H340.89z"/>
	</g>
	<path class="st1" d="M329.47,276.77l-5.53-6.65c8.94-7.45,14.08-18.38,14.08-30c0-21.5-17.49-39-39-39c-21.5,0-39,17.5-39,39
		c0,11.62,5.14,22.56,14.08,30l-5.53,6.65c-10.94-9.09-17.21-22.46-17.21-36.66c0-26.29,21.39-47.67,47.66-47.67
		c26.28,0,47.66,21.38,47.66,47.67C346.68,254.31,340.41,267.68,329.47,276.77"/>
	<rect x="294.85" y="183.78" class="st1" width="8.67" height="17.33"/>
	
		<rect x="261.15" y="197.75" transform="matrix(0.7071 -0.7071 0.7071 0.7071 -68.196 248.1974)" class="st1" width="8.67" height="17.33"/>
	
		<rect x="328.55" y="265.14" transform="matrix(0.7071 -0.7071 0.7071 0.7071 -96.1172 315.5821)" class="st1" width="8.66" height="17.34"/>
	<rect x="242.86" y="235.78" class="st1" width="17.33" height="8.67"/>
	<rect x="338.18" y="235.78" class="st1" width="17.34" height="8.67"/>
	
		<rect x="256.81" y="269.47" transform="matrix(0.7067 -0.7075 0.7075 0.7067 -115.8609 268.1448)" class="st1" width="17.33" height="8.67"/>
	<path class="st1" d="M312.18,240.11c0,7.18-5.82,13-13,13c-7.18,0-13-5.82-13-13c0-7.18,5.82-13,13-13
		C306.36,227.11,312.18,232.93,312.18,240.11"/>
	
		<rect x="284.08" y="214.11" transform="matrix(0.7071 -0.7071 0.7071 0.7071 -60.4953 290.8321)" class="st4" width="73.53" height="8.67"/>
	<path class="st1" d="M644.64,276.77l5.53-6.65c-8.94-7.45-14.08-18.38-14.08-30c0-21.5,17.49-39,39-39c21.5,0,39,17.5,39,39
		c0,11.62-5.14,22.56-14.08,30l5.54,6.65c10.94-9.09,17.21-22.46,17.21-36.66c0-26.29-21.39-47.67-47.66-47.67
		c-26.28,0-47.66,21.38-47.66,47.67C627.43,254.31,633.7,267.68,644.64,276.77"/>
	<rect x="670.6" y="183.78" class="st1" width="8.67" height="17.33"/>
	
		<rect x="699.97" y="202.08" transform="matrix(0.7071 -0.7071 0.7071 0.7071 61.5767 561.4962)" class="st1" width="17.33" height="8.67"/>
	
		<rect x="632.56" y="269.48" transform="matrix(0.7071 -0.7071 0.7071 0.7071 -5.8057 533.6133)" class="st1" width="17.34" height="8.66"/>
	<rect x="713.92" y="235.78" class="st1" width="17.33" height="8.67"/>
	<rect x="618.59" y="235.78" class="st1" width="17.34" height="8.67"/>
	
		<rect x="704.3" y="265.15" transform="matrix(0.7075 -0.7067 0.7067 0.7075 13.7554 580.8585)" class="st1" width="8.67" height="17.33"/>
	<path class="st1" d="M661.93,240.11c0,7.18,5.82,13,13,13c7.18,0,13-5.82,13-13c0-7.18-5.82-13-13-13
		C667.75,227.11,661.93,232.93,661.93,240.11"/>
	
		<rect x="648.93" y="181.68" transform="matrix(0.7071 -0.7071 0.7071 0.7071 36.8913 525.9476)" class="st4" width="8.67" height="73.53"/>
	<path class="st1" d="M1018.37,276.6l5.53-6.65c-8.94-7.45-14.08-18.38-14.08-30c0-21.5,17.49-39,39-39c21.5,0,39,17.5,39,39
		c0,11.62-5.14,22.56-14.08,30l5.54,6.65c10.94-9.09,17.21-22.46,17.21-36.66c0-26.29-21.39-47.67-47.66-47.67
		c-26.28,0-47.66,21.38-47.66,47.67C1001.16,254.14,1007.43,267.52,1018.37,276.6"/>
	<rect x="1044.33" y="183.61" class="st1" width="8.67" height="17.33"/>
	
		<rect x="1073.69" y="201.91" transform="matrix(0.7071 -0.7071 0.7071 0.7071 171.1417 825.6958)" class="st1" width="17.33" height="8.67"/>
	
		<rect x="1006.28" y="269.31" transform="matrix(0.7071 -0.7071 0.7071 0.7071 103.7725 797.8248)" class="st1" width="17.34" height="8.66"/>
	<rect x="1087.65" y="235.61" class="st1" width="17.33" height="8.67"/>
	<rect x="992.32" y="235.61" class="st1" width="17.34" height="8.67"/>
	
		<rect x="1078.03" y="264.98" transform="matrix(0.7075 -0.7067 0.7067 0.7075 123.1766 844.9143)" class="st1" width="8.67" height="17.33"/>
	<path class="st1" d="M1035.66,239.94c0,7.18,5.82,13,13,13c7.18,0,13-5.82,13-13c0-7.18-5.82-13-13-13
		C1041.48,226.94,1035.66,232.76,1035.66,239.94"/>
	<rect x="1044.32" y="174.04" class="st4" width="8.67" height="73.53"/>
	
		<rect x="1007.71" y="197.58" transform="matrix(0.7071 -0.7071 0.7071 0.7071 150.6152 776.0782)" class="st1" width="8.67" height="17.33"/>
</g>
</svg>
