<?xml version="1.0" encoding="utf-8"?>
<!-- Generator: Adobe Illustrator 24.1.2, SVG Export Plug-In . SVG Version: 6.00 Build 0)  -->
<svg version="1.1" id="Layer_1" xmlns="http://www.w3.org/2000/svg" xmlns:xlink="http://www.w3.org/1999/xlink" x="0px" y="0px"
	 viewBox="0 0 1365.3 744.4" style="enable-background:new 0 0 1365.3 744.4;" xml:space="preserve">
<style type="text/css">
	.st0{fill:#D1E1E8;}
	.st1{clip-path:url(#SVGID_3_);fill:#D1E1E8;}
	.st2{fill:#0F3E6A;}
	.st3{fill:#003E6A;}
</style>
<g>
	<g>
		<path id="SVGID_1_" class="st0" d="M0,0v717.3c0,0,183.1-20.8,379.1-20.8c274.7,0,489.9,47.8,710,46.3s276.3-15.8,276.3-15.8V0H0z
			"/>
	</g>
	<g>
		<g>
			<g>
				<defs>
					<path id="SVGID_2_"
                          d="M0,0v717.3c0,0,183.1-20.8,379.1-20.8c274.7,0,489.9,47.8,710,46.3s276.3-15.8,276.3-15.8V0H0z"/>
				</defs>
                <clipPath id="SVGID_3_">
					<use xlink:href="#SVGID_2_" style="overflow:visible;"/>
				</clipPath>
                <rect class="st1" width="1365.3" height="744.4"/>
			</g>
		</g>
	</g>
</g>
<path class="st2" d="M135.1,112.6h-3.5c-0.7,0-1.2-0.3-1.6-0.8l-6.6-9.3c-0.2-0.3-0.4-0.5-0.7-0.7c-0.2-0.1-0.6-0.2-1.1-0.2H119v11
	h-4V85.8h7.7c1.7,0,3.2,0.2,4.5,0.5c1.2,0.3,2.3,0.9,3.1,1.5s1.4,1.4,1.8,2.4s0.6,1.9,0.6,3.1c0,0.9-0.1,1.8-0.4,2.6
	s-0.7,1.6-1.3,2.2c-0.6,0.7-1.2,1.2-2,1.7s-1.7,0.8-2.7,1.1c0.5,0.3,0.9,0.7,1.3,1.2L135.1,112.6z M122.6,98.7c1,0,1.9-0.1,2.7-0.4
	s1.4-0.6,1.9-1.1c0.5-0.4,0.9-1,1.2-1.6s0.4-1.3,0.4-2.1c0-1.5-0.5-2.7-1.5-3.5s-2.5-1.2-4.6-1.2H119v9.8L122.6,98.7L122.6,98.7z
	 M151.3,109.9c-0.4,0.5-1,1-1.6,1.3c-0.6,0.4-1.2,0.7-1.9,0.9c-0.7,0.2-1.3,0.4-2,0.5s-1.4,0.2-2.1,0.2c-1.3,0-2.5-0.2-3.6-0.7
	s-2.1-1.1-2.9-1.9c-0.8-0.8-1.4-1.9-1.9-3.2c-0.4-1.3-0.7-2.7-0.7-4.3c0-1.3,0.2-2.5,0.6-3.7s1-2.1,1.8-3c0.8-0.8,1.7-1.5,2.8-2
	s2.4-0.7,3.7-0.7c1.1,0,2.2,0.2,3.2,0.6s1.8,0.9,2.5,1.7c0.7,0.7,1.3,1.6,1.7,2.7s0.6,2.3,0.6,3.6c0,0.6-0.1,0.9-0.2,1.1
	c-0.1,0.2-0.4,0.3-0.7,0.3h-12.4c0,1.1,0.2,2.1,0.5,2.9s0.7,1.5,1.2,2.1s1.1,1,1.8,1.2c0.7,0.3,1.5,0.4,2.3,0.4s1.5-0.1,2.1-0.3
	c0.6-0.2,1.1-0.4,1.5-0.6s0.8-0.4,1.1-0.6s0.6-0.3,0.8-0.3c0.3,0,0.5,0.1,0.7,0.3L151.3,109.9z M148.3,101c0-0.7-0.1-1.4-0.3-2
	s-0.5-1.1-0.9-1.6c-0.4-0.4-0.9-0.8-1.4-1c-0.6-0.2-1.2-0.4-2-0.4c-1.5,0-2.7,0.4-3.6,1.3c-0.9,0.9-1.4,2.1-1.7,3.7H148.3L148.3,101
	z M154.3,96.3c1.1-1,2.2-1.8,3.4-2.2c1.2-0.5,2.6-0.7,4.1-0.7c1.1,0,2,0.2,2.9,0.5s1.5,0.8,2.1,1.5c0.6,0.6,1,1.4,1.3,2.3
	s0.4,1.9,0.4,2.9v12.1h-1.6c-0.4,0-0.6-0.1-0.8-0.2s-0.3-0.3-0.4-0.7l-0.4-1.7c-0.5,0.4-1,0.8-1.4,1.2c-0.5,0.3-1,0.6-1.5,0.9
	c-0.5,0.2-1.1,0.4-1.6,0.6c-0.6,0.1-1.2,0.2-1.9,0.2s-1.4-0.1-2.1-0.3c-0.6-0.2-1.2-0.5-1.7-0.9s-0.9-0.9-1.1-1.6
	c-0.3-0.6-0.4-1.4-0.4-2.2c0-0.7,0.2-1.5,0.6-2.2c0.4-0.7,1.1-1.3,2-1.8c0.9-0.6,2.1-1,3.6-1.3s3.3-0.6,5.4-0.6v-1.4
	c0-1.4-0.3-2.5-0.9-3.2c-0.6-0.7-1.5-1.1-2.7-1.1c-0.8,0-1.5,0.1-2,0.3c-0.5,0.2-1,0.4-1.4,0.7s-0.7,0.5-1,0.7s-0.6,0.3-0.9,0.3
	c-0.2,0-0.5-0.1-0.6-0.2c-0.2-0.1-0.3-0.3-0.4-0.5L154.3,96.3z M164.9,104.2c-1.5,0.1-2.7,0.2-3.8,0.3c-1,0.2-1.9,0.4-2.5,0.7
	c-0.6,0.3-1.1,0.7-1.4,1.1s-0.4,0.8-0.4,1.3s0.1,0.9,0.2,1.2c0.2,0.3,0.4,0.6,0.6,0.8c0.3,0.2,0.6,0.4,0.9,0.5
	c0.4,0.1,0.8,0.2,1.2,0.2c0.6,0,1.1-0.1,1.5-0.2c0.5-0.1,0.9-0.3,1.3-0.5c0.4-0.2,0.8-0.5,1.2-0.8s0.7-0.6,1.1-1L164.9,104.2
	L164.9,104.2z M176.3,85.1v27.5h-3.6V85.1H176.3z M204,90.2c-0.1,0.2-0.2,0.4-0.4,0.5s-0.3,0.2-0.5,0.2s-0.5-0.1-0.8-0.3
	c-0.3-0.2-0.6-0.4-1.1-0.7c-0.4-0.2-0.9-0.5-1.5-0.7s-1.3-0.3-2.1-0.3s-1.5,0.1-2.1,0.3c-0.6,0.2-1.1,0.5-1.5,0.8s-0.7,0.8-0.9,1.2
	s-0.3,1-0.3,1.6c0,0.7,0.2,1.3,0.6,1.8c0.4,0.5,0.9,0.9,1.4,1.2c0.6,0.3,1.3,0.6,2,0.9s1.5,0.5,2.3,0.8s1.6,0.6,2.3,0.9
	s1.4,0.8,2,1.3s1.1,1.2,1.4,1.9c0.4,0.8,0.6,1.7,0.6,2.8c0,1.2-0.2,2.3-0.6,3.3c-0.4,1-1,1.9-1.8,2.7c-0.8,0.8-1.7,1.4-2.8,1.8
	s-2.4,0.7-3.8,0.7c-0.9,0-1.7-0.1-2.5-0.2s-1.6-0.4-2.3-0.7c-0.7-0.3-1.4-0.7-2-1.1s-1.2-0.9-1.7-1.4l1.1-1.9
	c0.1-0.2,0.2-0.3,0.4-0.4s0.3-0.2,0.5-0.2c0.3,0,0.6,0.1,0.9,0.4c0.3,0.3,0.8,0.6,1.3,0.9s1.1,0.6,1.8,0.9s1.6,0.4,2.6,0.4
	c0.8,0,1.6-0.1,2.2-0.3s1.2-0.5,1.6-0.9s0.8-0.9,1-1.5s0.4-1.2,0.4-1.9c0-0.8-0.2-1.4-0.5-1.9s-0.8-0.9-1.4-1.2
	c-0.6-0.3-1.3-0.6-2-0.9s-1.5-0.5-2.3-0.7s-1.6-0.6-2.3-0.9c-0.8-0.3-1.4-0.8-2-1.3s-1.1-1.2-1.4-2c-0.4-0.8-0.5-1.8-0.5-3
	c0-1,0.2-1.9,0.6-2.8s0.9-1.7,1.6-2.4c0.7-0.7,1.6-1.2,2.6-1.7c1-0.4,2.2-0.6,3.6-0.6c1.5,0,2.9,0.2,4.1,0.7s2.4,1.2,3.3,2.1
	L204,90.2z M216.9,93.4c1.4,0,2.6,0.2,3.8,0.7c1.1,0.4,2.1,1.1,2.9,2s1.4,1.9,1.8,3.1c0.4,1.2,0.6,2.5,0.6,4s-0.2,2.8-0.6,4
	c-0.4,1.2-1,2.2-1.8,3.1c-0.8,0.8-1.7,1.5-2.9,1.9c-1.1,0.4-2.4,0.7-3.8,0.7c-1.4,0-2.7-0.2-3.8-0.7s-2.1-1.1-2.9-1.9
	c-0.8-0.8-1.4-1.9-1.8-3.1c-0.4-1.2-0.6-2.6-0.6-4s0.2-2.8,0.6-4s1-2.2,1.8-3.1c0.8-0.8,1.8-1.5,2.9-2
	C214.2,93.6,215.5,93.4,216.9,93.4z M216.9,110c1.8,0,3.1-0.6,4-1.8c0.9-1.2,1.3-2.9,1.3-5.1s-0.4-3.9-1.3-5.1
	c-0.9-1.2-2.2-1.8-4-1.8s-3.2,0.6-4.1,1.8s-1.3,2.9-1.3,5.1s0.4,3.9,1.3,5.1C213.7,109.4,215.1,110,216.9,110z M233,85.1v27.5h-3.6
	V85.1H233z M245.5,93.4c1.4,0,2.6,0.2,3.8,0.7c1.1,0.4,2.1,1.1,2.9,2s1.4,1.9,1.8,3.1c0.4,1.2,0.6,2.5,0.6,4s-0.2,2.8-0.6,4
	c-0.4,1.2-1,2.2-1.8,3.1c-0.8,0.8-1.7,1.5-2.9,1.9c-1.1,0.4-2.4,0.7-3.8,0.7c-1.4,0-2.7-0.2-3.8-0.7s-2.1-1.1-2.9-1.9
	c-0.8-0.8-1.4-1.9-1.8-3.1c-0.4-1.2-0.6-2.6-0.6-4s0.2-2.8,0.6-4s1-2.2,1.8-3.1c0.8-0.8,1.8-1.5,2.9-2
	C242.8,93.6,244.1,93.4,245.5,93.4z M245.5,110c1.8,0,3.1-0.6,4-1.8c0.9-1.2,1.3-2.9,1.3-5.1s-0.4-3.9-1.3-5.1
	c-0.9-1.2-2.2-1.8-4-1.8s-3.2,0.6-4.1,1.8s-1.3,2.9-1.3,5.1s0.4,3.9,1.3,5.1C242.3,109.4,243.7,110,245.5,110z M269,96.9
	c-0.1,0.2-0.2,0.3-0.3,0.3c-0.1,0.1-0.2,0.1-0.4,0.1c-0.2,0-0.4-0.1-0.7-0.2c-0.2-0.1-0.5-0.3-0.9-0.4c-0.3-0.2-0.7-0.3-1.2-0.4
	s-1-0.2-1.6-0.2c-0.5,0-1,0.1-1.4,0.2s-0.8,0.3-1.1,0.5s-0.5,0.5-0.7,0.8s-0.2,0.7-0.2,1c0,0.5,0.1,0.9,0.4,1.2s0.6,0.6,1.1,0.8
	s1,0.4,1.5,0.6s1.2,0.4,1.8,0.6c0.6,0.2,1.2,0.4,1.8,0.7s1.1,0.6,1.5,0.9c0.5,0.4,0.8,0.8,1.1,1.4c0.3,0.5,0.4,1.2,0.4,2
	c0,0.9-0.2,1.7-0.5,2.4c-0.3,0.8-0.8,1.4-1.4,1.9c-0.6,0.6-1.4,1-2.3,1.3s-1.9,0.5-3.1,0.5c-1.3,0-2.5-0.2-3.6-0.7
	c-1.1-0.4-2-1-2.8-1.7l0.9-1.4c0.1-0.2,0.2-0.3,0.4-0.4c0.1-0.1,0.4-0.1,0.6-0.1s0.5,0.1,0.7,0.3c0.2,0.2,0.5,0.4,0.9,0.6
	s0.8,0.4,1.3,0.6s1.1,0.2,1.9,0.2c0.6,0,1.2-0.1,1.6-0.2c0.5-0.2,0.8-0.4,1.1-0.6c0.3-0.3,0.5-0.6,0.7-0.9s0.2-0.7,0.2-1.1
	c0-0.5-0.1-0.9-0.4-1.2c-0.3-0.3-0.6-0.6-1.1-0.8s-1-0.4-1.6-0.6s-1.2-0.4-1.8-0.6c-0.6-0.2-1.2-0.4-1.8-0.7c-0.6-0.3-1.1-0.6-1.6-1
	s-0.8-0.9-1.1-1.4s-0.4-1.3-0.4-2.1c0-0.7,0.1-1.4,0.5-2.1c0.3-0.7,0.7-1.3,1.3-1.8c0.6-0.5,1.3-0.9,2.1-1.2s1.8-0.5,2.9-0.5
	c1.2,0,2.4,0.2,3.4,0.6s1.9,0.9,2.6,1.6L269,96.9z M288.8,109.9c-0.5,0.5-1,1-1.5,1.3c-0.6,0.4-1.2,0.7-1.9,0.9
	c-0.7,0.2-1.3,0.4-2,0.5s-1.4,0.2-2.1,0.2c-1.3,0-2.5-0.2-3.6-0.7s-2.1-1.1-2.9-1.9s-1.5-1.9-1.9-3.2c-0.5-1.3-0.7-2.7-0.7-4.3
	c0-1.3,0.2-2.5,0.6-3.7c0.4-1.1,1-2.1,1.8-3c0.8-0.8,1.7-1.5,2.8-2c1.1-0.5,2.4-0.7,3.7-0.7c1.1,0,2.2,0.2,3.2,0.6s1.8,0.9,2.5,1.7
	c0.7,0.7,1.3,1.6,1.7,2.7c0.4,1.1,0.6,2.3,0.6,3.6c0,0.6-0.1,0.9-0.2,1.1s-0.4,0.3-0.7,0.3h-12.4c0,1.1,0.2,2.1,0.5,2.9
	s0.7,1.5,1.2,2.1s1.1,1,1.8,1.2c0.7,0.3,1.5,0.4,2.3,0.4s1.5-0.1,2.1-0.3s1.1-0.4,1.5-0.6s0.8-0.4,1.1-0.6c0.3-0.2,0.5-0.3,0.8-0.3
	s0.5,0.1,0.7,0.3L288.8,109.9z M285.8,101c0-0.7-0.1-1.4-0.3-2c-0.2-0.6-0.5-1.1-0.9-1.6c-0.4-0.4-0.9-0.8-1.5-1s-1.2-0.4-2-0.4
	c-1.5,0-2.7,0.4-3.6,1.3s-1.4,2.1-1.7,3.7H285.8L285.8,101z M305.5,97.2c-0.1,0.1-0.2,0.2-0.3,0.3s-0.3,0.1-0.5,0.1
	s-0.4-0.1-0.6-0.2c-0.2-0.2-0.5-0.3-0.8-0.5s-0.7-0.3-1.2-0.5s-1-0.2-1.7-0.2c-0.9,0-1.7,0.2-2.4,0.5c-0.7,0.3-1.2,0.8-1.7,1.4
	s-0.8,1.3-1,2.2c-0.2,0.9-0.4,1.8-0.4,2.9s0.1,2.1,0.4,2.9s0.6,1.6,1.1,2.2s1,1,1.7,1.3s1.4,0.5,2.2,0.5c0.8,0,1.4-0.1,1.9-0.3
	s0.9-0.4,1.3-0.6s0.6-0.4,0.8-0.6c0.2-0.2,0.5-0.3,0.7-0.3c0.3,0,0.5,0.1,0.7,0.3l1,1.3c-0.4,0.5-0.9,1-1.5,1.4
	c-0.5,0.4-1.1,0.7-1.7,0.9c-0.6,0.2-1.2,0.4-1.9,0.5c-0.7,0.1-1.3,0.2-2,0.2c-1.2,0-2.3-0.2-3.3-0.7c-1-0.4-1.9-1.1-2.7-1.9
	s-1.3-1.8-1.8-3.1c-0.4-1.2-0.6-2.6-0.6-4.1c0-1.4,0.2-2.7,0.6-3.9c0.4-1.2,1-2.2,1.7-3.1s1.7-1.5,2.8-2s2.4-0.7,3.8-0.7
	s2.5,0.2,3.6,0.7s2,1.1,2.8,1.8L305.5,97.2z M326.8,85.8c1.7,0,3.2,0.2,4.5,0.6s2.3,1,3.1,1.7s1.5,1.6,1.9,2.6s0.6,2.2,0.6,3.4
	c0,1.2-0.2,2.4-0.6,3.4c-0.4,1.1-1.1,1.9-1.9,2.7c-0.8,0.8-1.9,1.3-3.2,1.8c-1.3,0.4-2.7,0.6-4.4,0.6h-4.1v9.8h-4V85.8H326.8z
	 M326.8,99.6c1,0,1.9-0.1,2.6-0.4c0.8-0.3,1.4-0.6,1.9-1.1s0.9-1.1,1.2-1.7c0.3-0.7,0.4-1.4,0.4-2.2c0-1.6-0.5-2.9-1.5-3.8
	s-2.5-1.4-4.6-1.4h-4.1v10.7L326.8,99.6L326.8,99.6z M338.6,96.3c1.1-1,2.2-1.8,3.4-2.2c1.2-0.5,2.6-0.7,4.1-0.7
	c1.1,0,2,0.2,2.9,0.5s1.5,0.8,2.1,1.5c0.6,0.6,1,1.4,1.3,2.3s0.4,1.9,0.4,2.9v12.1h-1.6c-0.4,0-0.6-0.1-0.8-0.2s-0.3-0.3-0.5-0.7
	l-0.4-1.7c-0.5,0.4-1,0.8-1.4,1.2c-0.5,0.3-1,0.6-1.5,0.9c-0.5,0.2-1.1,0.4-1.6,0.6c-0.6,0.1-1.2,0.2-1.9,0.2
	c-0.7,0-1.4-0.1-2.1-0.3c-0.6-0.2-1.2-0.5-1.7-0.9s-0.9-0.9-1.1-1.6c-0.3-0.6-0.4-1.4-0.4-2.2c0-0.7,0.2-1.5,0.6-2.2s1.1-1.3,2-1.8
	c0.9-0.6,2.1-1,3.6-1.3s3.3-0.6,5.4-0.6v-1.4c0-1.4-0.3-2.5-0.9-3.2s-1.5-1.1-2.7-1.1c-0.8,0-1.5,0.1-2,0.3c-0.5,0.2-1,0.4-1.4,0.7
	s-0.7,0.5-1,0.7s-0.6,0.3-0.9,0.3c-0.2,0-0.5-0.1-0.6-0.2c-0.2-0.1-0.3-0.3-0.4-0.5L338.6,96.3z M349.3,104.2
	c-1.5,0.1-2.7,0.2-3.8,0.3c-1,0.2-1.9,0.4-2.5,0.7c-0.6,0.3-1.1,0.7-1.4,1.1s-0.4,0.8-0.4,1.3s0.1,0.9,0.2,1.2
	c0.2,0.3,0.4,0.6,0.6,0.8c0.3,0.2,0.6,0.4,0.9,0.5c0.4,0.1,0.8,0.2,1.2,0.2c0.6,0,1.1-0.1,1.5-0.2s0.9-0.3,1.3-0.5s0.8-0.5,1.2-0.8
	c0.4-0.3,0.7-0.6,1.1-1L349.3,104.2L349.3,104.2z M374.7,112.6H371v-16h-9.5v11.1c0,0.7,0.2,1.3,0.5,1.7c0.4,0.4,0.8,0.6,1.4,0.6
	c0.3,0,0.6,0,0.9-0.1c0.2-0.1,0.5-0.2,0.6-0.3c0.2-0.1,0.3-0.2,0.5-0.3c0.1-0.1,0.2-0.1,0.3-0.1c0.1,0,0.2,0,0.3,0.1
	c0.1,0.1,0.1,0.2,0.2,0.3l1.1,1.8c-0.6,0.6-1.3,1-2.1,1.3c-0.8,0.3-1.7,0.4-2.5,0.4c-1.5,0-2.7-0.4-3.5-1.3s-1.2-2.1-1.2-3.7V96.6
	h-2.2c-0.2,0-0.4-0.1-0.5-0.2s-0.2-0.3-0.2-0.6v-1.5l3.1-0.4l0.8-5.6c0-0.2,0.1-0.4,0.3-0.5c0.1-0.1,0.3-0.2,0.5-0.2h1.8V94h13.1
	L374.7,112.6L374.7,112.6z M375.5,87.7c0,0.3-0.1,0.7-0.2,1s-0.3,0.6-0.5,0.8c-0.2,0.2-0.5,0.4-0.8,0.5s-0.6,0.2-1,0.2
	s-0.6-0.1-1-0.2c-0.3-0.1-0.6-0.3-0.8-0.5s-0.4-0.5-0.5-0.8s-0.2-0.6-0.2-1c0-0.3,0.1-0.7,0.2-1s0.3-0.6,0.5-0.8
	c0.2-0.2,0.5-0.4,0.8-0.5s0.6-0.2,1-0.2s0.7,0.1,1,0.2s0.6,0.3,0.8,0.5s0.4,0.5,0.5,0.8S375.5,87.4,375.5,87.7z M394.7,109.9
	c-0.5,0.5-1,1-1.5,1.3c-0.6,0.4-1.2,0.7-1.9,0.9c-0.7,0.2-1.3,0.4-2,0.5s-1.4,0.2-2.1,0.2c-1.3,0-2.5-0.2-3.6-0.7s-2.1-1.1-2.9-1.9
	s-1.5-1.9-1.9-3.2c-0.5-1.3-0.7-2.7-0.7-4.3c0-1.3,0.2-2.5,0.6-3.7c0.4-1.1,1-2.1,1.8-3c0.8-0.8,1.7-1.5,2.8-2
	c1.1-0.5,2.4-0.7,3.7-0.7c1.1,0,2.2,0.2,3.2,0.6s1.8,0.9,2.5,1.7c0.7,0.7,1.3,1.6,1.7,2.7c0.4,1.1,0.6,2.3,0.6,3.6
	c0,0.6-0.1,0.9-0.2,1.1s-0.4,0.3-0.7,0.3h-12.4c0,1.1,0.2,2.1,0.5,2.9s0.7,1.5,1.2,2.1s1.1,1,1.8,1.2c0.7,0.3,1.5,0.4,2.3,0.4
	s1.5-0.1,2.1-0.3s1.1-0.4,1.5-0.6s0.8-0.4,1.1-0.6c0.3-0.2,0.5-0.3,0.8-0.3s0.5,0.1,0.7,0.3L394.7,109.9z M391.8,101
	c0-0.7-0.1-1.4-0.3-2c-0.2-0.6-0.5-1.1-0.9-1.6c-0.4-0.4-0.9-0.8-1.5-1s-1.2-0.4-2-0.4c-1.5,0-2.7,0.4-3.6,1.3s-1.4,2.1-1.7,3.7
	H391.8L391.8,101z M401.6,96.3c0.4-0.4,0.8-0.8,1.3-1.2s0.9-0.7,1.4-0.9s1-0.4,1.6-0.6c0.6-0.1,1.2-0.2,1.9-0.2c1,0,2,0.2,2.8,0.5
	s1.5,0.8,2,1.5c0.5,0.6,0.9,1.4,1.2,2.3c0.3,0.9,0.4,1.9,0.4,2.9v12.1h-3.6v-12.1c0-1.3-0.3-2.4-0.9-3.2s-1.6-1.1-2.9-1.1
	c-0.9,0-1.8,0.2-2.6,0.7c-0.8,0.4-1.6,1-2.3,1.8v13.9h-3.6v-19h2.2c0.5,0,0.8,0.2,1,0.7L401.6,96.3z M423.9,112.9
	c-1.5,0-2.7-0.4-3.5-1.3s-1.2-2.1-1.2-3.7V96.6H417c-0.2,0-0.4-0.1-0.5-0.2s-0.2-0.3-0.2-0.6v-1.5l3.1-0.4l0.8-5.6
	c0-0.2,0.1-0.4,0.3-0.5c0.1-0.1,0.3-0.2,0.5-0.2h1.8V94h5.4v2.6h-5.4v11.1c0,0.7,0.2,1.3,0.5,1.7c0.4,0.4,0.8,0.6,1.4,0.6
	c0.3,0,0.6,0,0.9-0.1c0.2-0.1,0.5-0.2,0.6-0.3c0.2-0.1,0.3-0.2,0.5-0.3c0.1-0.1,0.2-0.1,0.3-0.1c0.1,0,0.2,0,0.3,0.1
	c0.1,0.1,0.1,0.2,0.2,0.3l1.1,1.8c-0.6,0.6-1.3,1-2.1,1.3C425.7,112.7,424.8,112.9,423.9,112.9z M430.1,110.4c0-0.3,0.1-0.7,0.2-0.9
	c0.1-0.3,0.3-0.6,0.5-0.8s0.5-0.4,0.8-0.5s0.6-0.2,1-0.2c0.3,0,0.6,0.1,1,0.2c0.3,0.1,0.6,0.3,0.8,0.5s0.4,0.5,0.5,0.8
	s0.2,0.6,0.2,0.9s-0.1,0.7-0.2,1s-0.3,0.6-0.5,0.8s-0.5,0.4-0.8,0.5s-0.6,0.2-1,0.2s-0.7-0.1-1-0.2s-0.6-0.3-0.8-0.5
	c-0.2-0.2-0.4-0.5-0.5-0.8S430.1,110.8,430.1,110.4z M468.2,112.6h-3.5c-0.7,0-1.2-0.3-1.5-0.8l-6.6-9.3c-0.2-0.3-0.4-0.5-0.7-0.7
	c-0.2-0.1-0.6-0.2-1.1-0.2h-2.6v11h-4V85.8h7.7c1.7,0,3.2,0.2,4.5,0.5s2.3,0.9,3.1,1.5s1.4,1.4,1.8,2.4c0.4,0.9,0.6,1.9,0.6,3.1
	c0,0.9-0.1,1.8-0.4,2.6c-0.3,0.8-0.7,1.6-1.3,2.2c-0.5,0.7-1.2,1.2-2,1.7s-1.7,0.8-2.7,1.1c0.5,0.3,0.9,0.7,1.3,1.2L468.2,112.6z
	 M455.8,98.7c1,0,1.9-0.1,2.7-0.4s1.4-0.6,2-1.1c0.5-0.4,0.9-1,1.2-1.6c0.3-0.6,0.4-1.3,0.4-2.1c0-1.5-0.5-2.7-1.5-3.5
	s-2.5-1.2-4.5-1.2h-3.7v9.8L455.8,98.7L455.8,98.7z M484.5,109.9c-0.5,0.5-1,1-1.5,1.3c-0.6,0.4-1.2,0.7-1.9,0.9
	c-0.7,0.2-1.3,0.4-2,0.5s-1.4,0.2-2.1,0.2c-1.3,0-2.5-0.2-3.6-0.7s-2.1-1.1-2.9-1.9s-1.5-1.9-1.9-3.2c-0.5-1.3-0.7-2.7-0.7-4.3
	c0-1.3,0.2-2.5,0.6-3.7s1-2.1,1.8-3c0.8-0.8,1.7-1.5,2.8-2c1.1-0.5,2.4-0.7,3.7-0.7c1.1,0,2.2,0.2,3.2,0.6s1.8,0.9,2.5,1.7
	c0.7,0.7,1.3,1.6,1.7,2.7c0.4,1.1,0.6,2.3,0.6,3.6c0,0.6-0.1,0.9-0.2,1.1s-0.4,0.3-0.7,0.3h-12.4c0,1.1,0.2,2.1,0.5,2.9
	s0.7,1.5,1.2,2.1s1.1,1,1.8,1.2c0.7,0.3,1.5,0.4,2.3,0.4s1.5-0.1,2.1-0.3s1.1-0.4,1.5-0.6s0.8-0.4,1.1-0.6c0.3-0.2,0.5-0.3,0.8-0.3
	s0.5,0.1,0.7,0.3L484.5,109.9z M481.5,101c0-0.7-0.1-1.4-0.3-2c-0.2-0.6-0.5-1.1-0.9-1.6c-0.4-0.4-0.9-0.8-1.5-1s-1.2-0.4-2-0.4
	c-1.5,0-2.7,0.4-3.6,1.3s-1.4,2.1-1.7,3.7H481.5L481.5,101z M487.4,96.3c1.1-1,2.2-1.8,3.4-2.2c1.2-0.5,2.6-0.7,4.1-0.7
	c1.1,0,2,0.2,2.9,0.5s1.5,0.8,2.1,1.5c0.6,0.6,1,1.4,1.3,2.3s0.4,1.9,0.4,2.9v12.1H500c-0.4,0-0.6-0.1-0.8-0.2s-0.3-0.3-0.5-0.7
	l-0.4-1.7c-0.5,0.4-1,0.8-1.4,1.2c-0.5,0.3-1,0.6-1.5,0.9c-0.5,0.2-1.1,0.4-1.6,0.6c-0.6,0.1-1.2,0.2-1.9,0.2
	c-0.7,0-1.4-0.1-2.1-0.3c-0.6-0.2-1.2-0.5-1.7-0.9s-0.9-0.9-1.1-1.6c-0.3-0.6-0.4-1.4-0.4-2.2c0-0.7,0.2-1.5,0.6-2.2s1.1-1.3,2-1.8
	c0.9-0.6,2.1-1,3.6-1.3s3.3-0.6,5.4-0.6v-1.4c0-1.4-0.3-2.5-0.9-3.2s-1.5-1.1-2.7-1.1c-0.8,0-1.5,0.1-2,0.3c-0.5,0.2-1,0.4-1.4,0.7
	s-0.7,0.5-1,0.7s-0.6,0.3-0.9,0.3c-0.2,0-0.5-0.1-0.6-0.2c-0.2-0.1-0.3-0.3-0.4-0.5L487.4,96.3z M498.1,104.2
	c-1.5,0.1-2.7,0.2-3.8,0.3c-1,0.2-1.9,0.4-2.5,0.7c-0.6,0.3-1.1,0.7-1.4,1.1s-0.4,0.8-0.4,1.3s0.1,0.9,0.2,1.2
	c0.2,0.3,0.4,0.6,0.6,0.8c0.3,0.2,0.6,0.4,0.9,0.5c0.4,0.1,0.8,0.2,1.2,0.2c0.6,0,1.1-0.1,1.5-0.2s0.9-0.3,1.3-0.5s0.8-0.5,1.2-0.8
	c0.4-0.3,0.7-0.6,1.1-1L498.1,104.2L498.1,104.2z M509.5,85.1v27.5h-3.6V85.1H509.5z M537.1,90.2c-0.1,0.2-0.2,0.4-0.4,0.5
	s-0.3,0.2-0.5,0.2s-0.5-0.1-0.8-0.3c-0.3-0.2-0.6-0.4-1.1-0.7c-0.4-0.2-0.9-0.5-1.5-0.7s-1.3-0.3-2.1-0.3s-1.5,0.1-2.1,0.3
	c-0.6,0.2-1.1,0.5-1.5,0.8s-0.7,0.8-0.9,1.2s-0.3,1-0.3,1.6c0,0.7,0.2,1.3,0.5,1.8s0.8,0.9,1.4,1.2s1.3,0.6,2,0.9s1.5,0.5,2.3,0.8
	s1.6,0.6,2.3,0.9s1.4,0.8,2,1.3s1.1,1.2,1.4,1.9c0.4,0.8,0.5,1.7,0.5,2.8c0,1.2-0.2,2.3-0.6,3.3c-0.4,1-1,1.9-1.8,2.7
	s-1.7,1.4-2.8,1.8s-2.4,0.7-3.8,0.7c-0.9,0-1.7-0.1-2.5-0.2s-1.6-0.4-2.3-0.7c-0.7-0.3-1.4-0.7-2-1.1s-1.2-0.9-1.7-1.4l1.1-1.9
	c0.1-0.2,0.2-0.3,0.4-0.4s0.3-0.2,0.5-0.2c0.3,0,0.6,0.1,0.9,0.4c0.3,0.3,0.8,0.6,1.3,0.9s1.1,0.6,1.8,0.9s1.6,0.4,2.6,0.4
	c0.8,0,1.5-0.1,2.2-0.3s1.2-0.5,1.6-0.9s0.8-0.9,1-1.5s0.3-1.2,0.3-1.9c0-0.8-0.2-1.4-0.5-1.9s-0.8-0.9-1.4-1.2s-1.3-0.6-2-0.9
	s-1.5-0.5-2.3-0.7s-1.6-0.6-2.3-0.9c-0.8-0.3-1.4-0.8-2-1.3s-1.1-1.2-1.4-2s-0.5-1.8-0.5-3c0-1,0.2-1.9,0.6-2.8s0.9-1.7,1.6-2.4
	c0.7-0.7,1.6-1.2,2.6-1.7c1-0.4,2.2-0.6,3.6-0.6c1.5,0,2.9,0.2,4.1,0.7s2.4,1.2,3.3,2.1L537.1,90.2z M550,93.4
	c1.4,0,2.7,0.2,3.8,0.7s2.1,1.1,2.9,2s1.4,1.9,1.8,3.1c0.4,1.2,0.6,2.5,0.6,4s-0.2,2.8-0.6,4c-0.4,1.2-1,2.2-1.8,3.1
	s-1.7,1.5-2.9,1.9c-1.1,0.4-2.4,0.7-3.8,0.7c-1.4,0-2.7-0.2-3.8-0.7s-2.1-1.1-2.9-1.9c-0.8-0.8-1.4-1.9-1.8-3.1
	c-0.4-1.2-0.6-2.6-0.6-4s0.2-2.8,0.6-4s1-2.2,1.8-3.1c0.8-0.8,1.8-1.5,2.9-2C547.4,93.6,548.6,93.4,550,93.4z M550,110
	c1.8,0,3.1-0.6,4-1.8c0.9-1.2,1.3-2.9,1.3-5.1s-0.4-3.9-1.3-5.1c-0.9-1.2-2.2-1.8-4-1.8s-3.2,0.6-4,1.8s-1.3,2.9-1.3,5.1
	s0.4,3.9,1.3,5.1C546.9,109.4,548.2,110,550,110z M566.1,85.1v27.5h-3.7V85.1H566.1z M578.6,93.4c1.4,0,2.7,0.2,3.8,0.7
	s2.1,1.1,2.9,2s1.4,1.9,1.8,3.1c0.4,1.2,0.6,2.5,0.6,4s-0.2,2.8-0.6,4c-0.4,1.2-1,2.2-1.8,3.1s-1.7,1.5-2.9,1.9
	c-1.1,0.4-2.4,0.7-3.8,0.7c-1.4,0-2.7-0.2-3.8-0.7s-2.1-1.1-2.9-1.9c-0.8-0.8-1.4-1.9-1.8-3.1c-0.4-1.2-0.6-2.6-0.6-4s0.2-2.8,0.6-4
	s1-2.2,1.8-3.1c0.8-0.8,1.8-1.5,2.9-2C576,93.6,577.2,93.4,578.6,93.4z M578.6,110c1.8,0,3.1-0.6,4-1.8c0.9-1.2,1.3-2.9,1.3-5.1
	s-0.4-3.9-1.3-5.1c-0.9-1.2-2.2-1.8-4-1.8s-3.2,0.6-4,1.8s-1.3,2.9-1.3,5.1s0.4,3.9,1.3,5.1C575.5,109.4,576.8,110,578.6,110z
	 M602.2,96.9c-0.1,0.2-0.2,0.3-0.3,0.3c-0.1,0.1-0.2,0.1-0.4,0.1s-0.4-0.1-0.7-0.2c-0.2-0.1-0.5-0.3-0.9-0.4
	c-0.3-0.2-0.7-0.3-1.2-0.4s-1-0.2-1.6-0.2c-0.5,0-1,0.1-1.4,0.2s-0.8,0.3-1.1,0.5s-0.5,0.5-0.7,0.8s-0.2,0.7-0.2,1
	c0,0.5,0.1,0.9,0.4,1.2c0.3,0.3,0.7,0.6,1.1,0.8c0.5,0.2,1,0.4,1.5,0.6s1.2,0.4,1.8,0.6s1.2,0.4,1.8,0.7s1.1,0.6,1.5,0.9
	c0.5,0.4,0.8,0.8,1.1,1.4c0.3,0.5,0.4,1.2,0.4,2c0,0.9-0.2,1.7-0.5,2.4c-0.3,0.8-0.8,1.4-1.4,1.9c-0.6,0.6-1.4,1-2.3,1.3
	c-0.9,0.3-1.9,0.5-3.1,0.5c-1.3,0-2.5-0.2-3.6-0.7c-1.1-0.4-2-1-2.8-1.7l0.9-1.4c0.1-0.2,0.2-0.3,0.4-0.4s0.3-0.1,0.6-0.1
	c0.2,0,0.5,0.1,0.7,0.3c0.2,0.2,0.5,0.4,0.9,0.6c0.3,0.2,0.8,0.4,1.3,0.6s1.1,0.2,1.9,0.2c0.6,0,1.2-0.1,1.6-0.2
	c0.5-0.2,0.8-0.4,1.2-0.6c0.3-0.3,0.5-0.6,0.7-0.9s0.2-0.7,0.2-1.1c0-0.5-0.1-0.9-0.4-1.2c-0.3-0.3-0.7-0.6-1.1-0.8
	c-0.5-0.2-1-0.4-1.6-0.6s-1.2-0.4-1.8-0.6s-1.2-0.4-1.8-0.7c-0.6-0.3-1.1-0.6-1.6-1s-0.8-0.9-1.1-1.4c-0.3-0.6-0.4-1.3-0.4-2.1
	c0-0.7,0.2-1.4,0.5-2.1s0.7-1.3,1.3-1.8s1.3-0.9,2.1-1.2c0.8-0.3,1.8-0.5,2.9-0.5c1.2,0,2.4,0.2,3.4,0.6s1.9,0.9,2.6,1.6L602.2,96.9
	z M622,109.9c-0.5,0.5-1,1-1.5,1.3c-0.6,0.4-1.2,0.7-1.9,0.9c-0.7,0.2-1.3,0.4-2,0.5s-1.4,0.2-2.1,0.2c-1.3,0-2.5-0.2-3.6-0.7
	s-2.1-1.1-2.9-1.9c-0.8-0.8-1.5-1.9-1.9-3.2c-0.5-1.3-0.7-2.7-0.7-4.3c0-1.3,0.2-2.5,0.6-3.7s1-2.1,1.8-3c0.8-0.8,1.7-1.5,2.8-2
	s2.3-0.7,3.7-0.7c1.2,0,2.2,0.2,3.2,0.6s1.8,0.9,2.5,1.7c0.7,0.7,1.3,1.6,1.7,2.7s0.6,2.3,0.6,3.6c0,0.6-0.1,0.9-0.2,1.1
	c-0.1,0.2-0.3,0.3-0.7,0.3H609c0,1.1,0.2,2.1,0.5,2.9s0.7,1.5,1.2,2.1s1.1,1,1.8,1.2c0.7,0.3,1.5,0.4,2.3,0.4s1.5-0.1,2.1-0.3
	c0.6-0.2,1.1-0.4,1.5-0.6s0.8-0.4,1.1-0.6s0.5-0.3,0.8-0.3s0.5,0.1,0.7,0.3L622,109.9z M619,101c0-0.7-0.1-1.4-0.3-2
	s-0.5-1.1-0.9-1.6c-0.4-0.4-0.9-0.8-1.5-1s-1.2-0.4-2-0.4c-1.5,0-2.7,0.4-3.6,1.3c-0.9,0.9-1.4,2.1-1.7,3.7H619L619,101z
	 M638.7,97.2c-0.1,0.1-0.2,0.2-0.3,0.3c-0.1,0.1-0.3,0.1-0.5,0.1s-0.4-0.1-0.6-0.2c-0.2-0.2-0.5-0.3-0.8-0.5s-0.7-0.3-1.2-0.5
	s-1-0.2-1.7-0.2c-0.9,0-1.7,0.2-2.4,0.5s-1.2,0.8-1.7,1.4s-0.8,1.3-1,2.2c-0.2,0.9-0.3,1.8-0.3,2.9s0.1,2.1,0.4,2.9s0.6,1.6,1.1,2.2
	s1,1,1.7,1.3s1.4,0.5,2.2,0.5s1.4-0.1,1.9-0.3s0.9-0.4,1.3-0.6s0.6-0.4,0.8-0.6s0.5-0.3,0.7-0.3c0.3,0,0.5,0.1,0.7,0.3l1,1.3
	c-0.4,0.5-0.9,1-1.5,1.4c-0.5,0.4-1.1,0.7-1.7,0.9c-0.6,0.2-1.2,0.4-1.9,0.5s-1.3,0.2-2,0.2c-1.2,0-2.3-0.2-3.3-0.7
	c-1-0.4-1.9-1.1-2.7-1.9s-1.3-1.8-1.8-3.1c-0.4-1.2-0.7-2.6-0.7-4.1c0-1.4,0.2-2.7,0.6-3.9s1-2.2,1.7-3.1s1.7-1.5,2.8-2
	s2.4-0.7,3.8-0.7c1.3,0,2.5,0.2,3.6,0.7c1,0.4,2,1.1,2.8,1.8L638.7,97.2z M668.4,109.4v3.2h-16.6V85.8h16.6V89h-12.6v8.5h10.1v3.1
	h-10.1v8.7h12.6V109.4z M687.7,112.6h-3.5c-0.3,0-0.5-0.1-0.7-0.2c-0.2-0.2-0.3-0.3-0.4-0.5l-4.6-7.2c-0.1,0.2-0.1,0.4-0.2,0.5
	c-0.1,0.2-0.1,0.3-0.2,0.5l-4.2,6.2c-0.1,0.2-0.3,0.3-0.4,0.5c-0.2,0.2-0.4,0.2-0.6,0.2h-3.2l6.6-9.7l-6.3-9.2h3.5
	c0.3,0,0.5,0,0.6,0.1s0.2,0.2,0.3,0.4l4.5,6.9c0.1-0.2,0.1-0.4,0.2-0.6s0.2-0.4,0.3-0.6l3.8-5.7c0.2-0.4,0.5-0.6,0.9-0.6h3.3l-6.3,9
	L687.7,112.6z M693.3,96.5c0.4-0.5,0.8-0.9,1.3-1.3s0.9-0.7,1.5-1s1.1-0.5,1.7-0.7c0.6-0.2,1.2-0.2,1.9-0.2c1.1,0,2.1,0.2,2.9,0.6
	c0.9,0.4,1.6,1,2.2,1.9s1.1,1.8,1.4,3c0.3,1.2,0.5,2.6,0.5,4.2c0,1.4-0.2,2.7-0.6,3.9c-0.4,1.2-0.9,2.2-1.6,3.1
	c-0.7,0.9-1.6,1.6-2.6,2.1s-2.2,0.8-3.4,0.8c-1.1,0-2.1-0.2-2.9-0.6c-0.8-0.4-1.5-0.9-2.2-1.6v8.2h-3.6V93.7h2.2
	c0.5,0,0.8,0.2,1,0.7L693.3,96.5z M693.5,107.9c0.6,0.8,1.2,1.3,1.9,1.6s1.5,0.5,2.3,0.5c1.7,0,3-0.6,3.9-1.8
	c0.9-1.2,1.4-2.9,1.4-5.2c0-1.2-0.1-2.2-0.3-3.1c-0.2-0.8-0.5-1.6-0.9-2.1s-0.9-0.9-1.4-1.2s-1.2-0.4-1.9-0.4c-1.1,0-2,0.2-2.8,0.7
	s-1.5,1.1-2.2,2V107.9L693.5,107.9z M725.6,109.9c-0.5,0.5-1,1-1.5,1.3c-0.6,0.4-1.2,0.7-1.9,0.9c-0.7,0.2-1.3,0.4-2,0.5
	s-1.4,0.2-2.1,0.2c-1.3,0-2.5-0.2-3.6-0.7s-2.1-1.1-2.9-1.9c-0.8-0.8-1.5-1.9-1.9-3.2c-0.5-1.3-0.7-2.7-0.7-4.3
	c0-1.3,0.2-2.5,0.6-3.7s1-2.1,1.8-3c0.8-0.8,1.7-1.5,2.8-2s2.3-0.7,3.7-0.7c1.2,0,2.2,0.2,3.2,0.6s1.8,0.9,2.5,1.7
	c0.7,0.7,1.3,1.6,1.7,2.7s0.6,2.3,0.6,3.6c0,0.6-0.1,0.9-0.2,1.1c-0.1,0.2-0.3,0.3-0.7,0.3h-12.4c0,1.1,0.2,2.1,0.5,2.9
	s0.7,1.5,1.2,2.1s1.1,1,1.8,1.2c0.7,0.3,1.5,0.4,2.3,0.4s1.5-0.1,2.1-0.3c0.6-0.2,1.1-0.4,1.5-0.6s0.8-0.4,1.1-0.6s0.5-0.3,0.8-0.3
	s0.5,0.1,0.7,0.3L725.6,109.9z M722.6,101c0-0.7-0.1-1.4-0.3-2s-0.5-1.1-0.9-1.6c-0.4-0.4-0.9-0.8-1.5-1s-1.2-0.4-2-0.4
	c-1.5,0-2.7,0.4-3.6,1.3c-0.9,0.9-1.4,2.1-1.7,3.7H722.6L722.6,101z M732.5,97.3c0.6-1.2,1.3-2.2,2.2-2.9c0.9-0.7,1.9-1.1,3.1-1.1
	c0.4,0,0.8,0.1,1.2,0.1c0.4,0.1,0.7,0.2,1,0.4l-0.2,2.7c-0.1,0.3-0.3,0.5-0.6,0.5c-0.2,0-0.4,0-0.8-0.1c-0.3-0.1-0.7-0.1-1.1-0.1
	c-0.6,0-1.1,0.1-1.5,0.2s-0.8,0.4-1.2,0.7c-0.3,0.3-0.7,0.7-0.9,1.2c-0.3,0.5-0.5,1-0.8,1.6v11.8H729V93.7h2.1
	c0.4,0,0.7,0.1,0.8,0.2s0.2,0.4,0.3,0.8L732.5,97.3z M746.4,87.8c0,0.3-0.1,0.7-0.2,1c-0.1,0.3-0.3,0.6-0.5,0.8s-0.5,0.4-0.8,0.5
	s-0.6,0.2-1,0.2c-0.3,0-0.7-0.1-1-0.2s-0.6-0.3-0.8-0.5s-0.4-0.5-0.5-0.8s-0.2-0.6-0.2-1c0-0.3,0.1-0.7,0.2-1
	c0.1-0.3,0.3-0.6,0.5-0.8s0.5-0.4,0.8-0.5s0.6-0.2,1-0.2s0.7,0.1,1,0.2s0.6,0.3,0.8,0.5s0.4,0.5,0.5,0.8
	C746.3,87.2,746.4,87.5,746.4,87.8z M745.7,93.7v18.9h-3.6V93.7H745.7z M765.8,109.9c-0.5,0.5-1,1-1.5,1.3c-0.6,0.4-1.2,0.7-1.9,0.9
	c-0.7,0.2-1.3,0.4-2,0.5s-1.4,0.2-2.1,0.2c-1.3,0-2.5-0.2-3.6-0.7s-2.1-1.1-2.9-1.9c-0.8-0.8-1.5-1.9-1.9-3.2
	c-0.5-1.3-0.7-2.7-0.7-4.3c0-1.3,0.2-2.5,0.6-3.7s1-2.1,1.8-3c0.8-0.8,1.7-1.5,2.8-2s2.3-0.7,3.7-0.7c1.2,0,2.2,0.2,3.2,0.6
	s1.8,0.9,2.5,1.7c0.7,0.7,1.3,1.6,1.7,2.7s0.6,2.3,0.6,3.6c0,0.6-0.1,0.9-0.2,1.1c-0.1,0.2-0.3,0.3-0.7,0.3h-12.4
	c0,1.1,0.2,2.1,0.5,2.9s0.7,1.5,1.2,2.1s1.1,1,1.8,1.2c0.7,0.3,1.5,0.4,2.3,0.4s1.5-0.1,2.1-0.3c0.6-0.2,1.1-0.4,1.5-0.6
	s0.8-0.4,1.1-0.6s0.5-0.3,0.8-0.3s0.5,0.1,0.7,0.3L765.8,109.9z M762.8,101c0-0.7-0.1-1.4-0.3-2s-0.5-1.1-0.9-1.6
	c-0.4-0.4-0.9-0.8-1.5-1s-1.2-0.4-2-0.4c-1.5,0-2.7,0.4-3.6,1.3c-0.9,0.9-1.4,2.1-1.7,3.7H762.8L762.8,101z M772.6,96.3
	c0.4-0.4,0.8-0.8,1.3-1.2c0.5-0.4,0.9-0.7,1.4-0.9s1-0.4,1.6-0.6c0.6-0.1,1.2-0.2,1.8-0.2c1,0,2,0.2,2.8,0.5s1.5,0.8,2,1.5
	c0.5,0.6,0.9,1.4,1.2,2.3s0.4,1.9,0.4,2.9v12.1h-3.7v-12.1c0-1.3-0.3-2.4-0.9-3.2s-1.6-1.1-2.8-1.1c-0.9,0-1.8,0.2-2.6,0.7
	c-0.8,0.4-1.6,1-2.3,1.8v13.9h-3.6v-19h2.2c0.5,0,0.8,0.2,1,0.7L772.6,96.3z M802.5,97.2c-0.1,0.1-0.2,0.2-0.3,0.3
	c-0.1,0.1-0.3,0.1-0.5,0.1s-0.4-0.1-0.6-0.2c-0.2-0.2-0.5-0.3-0.8-0.5s-0.7-0.3-1.2-0.5s-1-0.2-1.7-0.2c-0.9,0-1.7,0.2-2.4,0.5
	s-1.2,0.8-1.7,1.4s-0.8,1.3-1,2.2c-0.2,0.9-0.3,1.8-0.3,2.9s0.1,2.1,0.4,2.9s0.6,1.6,1.1,2.2s1,1,1.7,1.3s1.4,0.5,2.2,0.5
	s1.4-0.1,1.9-0.3s0.9-0.4,1.3-0.6s0.6-0.4,0.8-0.6s0.5-0.3,0.7-0.3c0.3,0,0.5,0.1,0.7,0.3l1,1.3c-0.4,0.5-0.9,1-1.5,1.4
	c-0.5,0.4-1.1,0.7-1.7,0.9c-0.6,0.2-1.2,0.4-1.9,0.5s-1.3,0.2-2,0.2c-1.2,0-2.3-0.2-3.3-0.7c-1-0.4-1.9-1.1-2.7-1.9
	s-1.3-1.8-1.8-3.1c-0.4-1.2-0.7-2.6-0.7-4.1c0-1.4,0.2-2.7,0.6-3.9s1-2.2,1.7-3.1s1.7-1.5,2.8-2s2.4-0.7,3.8-0.7
	c1.3,0,2.5,0.2,3.6,0.7c1,0.4,2,1.1,2.8,1.8L802.5,97.2z M821.6,109.9c-0.5,0.5-1,1-1.5,1.3c-0.6,0.4-1.2,0.7-1.9,0.9
	c-0.7,0.2-1.3,0.4-2,0.5s-1.4,0.2-2.1,0.2c-1.3,0-2.5-0.2-3.6-0.7s-2.1-1.1-2.9-1.9c-0.8-0.8-1.5-1.9-1.9-3.2
	c-0.5-1.3-0.7-2.7-0.7-4.3c0-1.3,0.2-2.5,0.6-3.7s1-2.1,1.8-3c0.8-0.8,1.7-1.5,2.8-2s2.3-0.7,3.7-0.7c1.2,0,2.2,0.2,3.2,0.6
	s1.8,0.9,2.5,1.7c0.7,0.7,1.3,1.6,1.7,2.7s0.6,2.3,0.6,3.6c0,0.6-0.1,0.9-0.2,1.1c-0.1,0.2-0.3,0.3-0.7,0.3h-12.4
	c0,1.1,0.2,2.1,0.5,2.9s0.7,1.5,1.2,2.1s1.1,1,1.8,1.2c0.7,0.3,1.5,0.4,2.3,0.4s1.5-0.1,2.1-0.3c0.6-0.2,1.1-0.4,1.5-0.6
	s0.8-0.4,1.1-0.6s0.5-0.3,0.8-0.3s0.5,0.1,0.7,0.3L821.6,109.9z M818.6,101c0-0.7-0.1-1.4-0.3-2s-0.5-1.1-0.9-1.6
	c-0.4-0.4-0.9-0.8-1.5-1s-1.2-0.4-2-0.4c-1.5,0-2.7,0.4-3.6,1.3c-0.9,0.9-1.4,2.1-1.7,3.7H818.6L818.6,101z M824.4,110.4
	c0-0.3,0.1-0.7,0.2-0.9c0.1-0.3,0.3-0.6,0.5-0.8c0.2-0.2,0.5-0.4,0.8-0.5s0.6-0.2,1-0.2c0.3,0,0.7,0.1,1,0.2s0.6,0.3,0.8,0.5
	s0.4,0.5,0.5,0.8s0.2,0.6,0.2,0.9s-0.1,0.7-0.2,1s-0.3,0.6-0.5,0.8c-0.2,0.2-0.5,0.4-0.8,0.5s-0.6,0.2-1,0.2c-0.3,0-0.7-0.1-1-0.2
	s-0.6-0.3-0.8-0.5s-0.4-0.5-0.5-0.8C824.5,111.1,824.4,110.8,824.4,110.4z M844.1,92.9l-0.9,1.5l-3.2-1.8c-0.2-0.1-0.4-0.3-0.6-0.4
	c-0.2-0.1-0.3-0.3-0.5-0.5c0.2,0.4,0.3,0.9,0.3,1.4v3.6h-1.8v-3.6c0-0.2,0-0.5,0-0.7s0.1-0.4,0.2-0.6c-0.1,0.2-0.3,0.3-0.5,0.5
	c-0.2,0.1-0.4,0.3-0.6,0.4l-3.1,1.8l-0.9-1.5l3.1-1.8c0.2-0.1,0.4-0.2,0.7-0.3c0.2-0.1,0.4-0.1,0.7-0.2c-0.5-0.1-0.9-0.2-1.3-0.5
	l-3.2-1.8l0.9-1.5l3.2,1.8c0.2,0.1,0.4,0.3,0.6,0.4s0.3,0.3,0.5,0.5c-0.1-0.2-0.2-0.4-0.2-0.7c0-0.2-0.1-0.5-0.1-0.7v-3.6h1.8v3.6
	c0,0.2,0,0.5,0,0.7s-0.1,0.4-0.2,0.7c0.1-0.2,0.3-0.3,0.5-0.5c0.2-0.1,0.4-0.3,0.6-0.4l3.1-1.8l0.9,1.5l-3.1,1.8
	c-0.2,0.1-0.4,0.2-0.6,0.3s-0.4,0.1-0.6,0.2c0.4,0.1,0.8,0.2,1.3,0.5L844.1,92.9z"/>
<path class="st3" d="M136.8,664.1l-0.3,0.5l-1.2-0.7c-0.1-0.1-0.2-0.1-0.2-0.2c-0.1-0.1-0.1-0.1-0.2-0.2c0.1,0.2,0.1,0.3,0.1,0.5
	v1.4h-0.6v-1.3c0-0.1,0-0.2,0-0.3s0-0.2,0.1-0.2c-0.1,0.1-0.1,0.1-0.2,0.2c-0.1,0.1-0.1,0.1-0.2,0.1l-1.2,0.7l-0.3-0.5l1.2-0.7
	c0.2-0.1,0.3-0.2,0.5-0.2c-0.1,0-0.2,0-0.3-0.1c-0.1,0-0.2-0.1-0.3-0.1l-1.2-0.7l0.3-0.5l1.2,0.7c0.1,0.1,0.2,0.1,0.2,0.2
	c0.1,0.1,0.1,0.1,0.2,0.2c-0.1-0.2-0.1-0.3-0.1-0.5V661h0.6v1.3c0,0.1,0,0.2,0,0.3s0,0.2-0.1,0.2c0.1-0.1,0.1-0.1,0.2-0.2
	c0.1-0.1,0.1-0.1,0.2-0.2l1.2-0.7l0.3,0.5l-1.2,0.7c-0.1,0.1-0.2,0.1-0.2,0.1c-0.1,0-0.2,0-0.2,0.1c0.1,0,0.2,0,0.2,0.1
	c0.1,0,0.2,0.1,0.2,0.1L136.8,664.1z M146.9,661.6l-4,9.8h-1.2l-4-9.8h1.1c0.1,0,0.2,0,0.3,0.1s0.1,0.1,0.2,0.2l2.8,6.9
	c0.1,0.2,0.1,0.3,0.2,0.5c0.1,0.2,0.1,0.4,0.2,0.6c0-0.2,0.1-0.4,0.1-0.6c0.1-0.2,0.1-0.4,0.2-0.5l2.8-6.9c0-0.1,0.1-0.1,0.2-0.2
	c0.1-0.1,0.2-0.1,0.3-0.1H146.9z M149.5,662.3c0,0.1,0,0.2-0.1,0.3c0,0.1-0.1,0.2-0.2,0.3c-0.1,0.1-0.2,0.1-0.3,0.2
	c-0.1,0-0.2,0.1-0.3,0.1s-0.2,0-0.3-0.1c-0.1,0-0.2-0.1-0.3-0.2c-0.1-0.1-0.1-0.2-0.2-0.3c0-0.1-0.1-0.2-0.1-0.3s0-0.2,0.1-0.3
	c0-0.1,0.1-0.2,0.2-0.3c0.1-0.1,0.2-0.1,0.3-0.2c0.1,0,0.2-0.1,0.3-0.1s0.2,0,0.3,0.1c0.1,0,0.2,0.1,0.3,0.2
	c0.1,0.1,0.1,0.2,0.2,0.3C149.4,662,149.5,662.2,149.5,662.3z M149.2,664.5v6.9H148v-6.9H149.2z M156.9,661.3v10.1h-0.7
	c-0.2,0-0.3-0.1-0.3-0.3l-0.1-0.8c-0.3,0.4-0.6,0.6-1,0.9c-0.4,0.2-0.8,0.3-1.3,0.3c-0.4,0-0.8-0.1-1.1-0.2
	c-0.3-0.2-0.6-0.4-0.8-0.7s-0.4-0.7-0.5-1.1c-0.1-0.4-0.2-1-0.2-1.5s0.1-1,0.2-1.4c0.1-0.4,0.3-0.8,0.6-1.1s0.6-0.6,0.9-0.8
	c0.4-0.2,0.8-0.3,1.3-0.3c0.4,0,0.8,0.1,1.1,0.2c0.3,0.1,0.6,0.3,0.8,0.6v-3.8h1.1V661.3z M155.7,666.1c-0.2-0.3-0.5-0.5-0.7-0.6
	c-0.3-0.1-0.6-0.2-0.9-0.2c-0.6,0-1.1,0.2-1.5,0.7c-0.3,0.5-0.5,1.1-0.5,2c0,0.5,0,0.8,0.1,1.2c0.1,0.3,0.2,0.6,0.3,0.8
	c0.2,0.2,0.3,0.4,0.6,0.5c0.2,0.1,0.5,0.1,0.7,0.1c0.4,0,0.8-0.1,1.1-0.3s0.6-0.4,0.8-0.8L155.7,666.1L155.7,666.1z M164.5,670.4
	c-0.2,0.2-0.3,0.3-0.5,0.5c-0.2,0.1-0.4,0.2-0.7,0.3c-0.2,0.1-0.5,0.2-0.7,0.2c-0.3,0-0.5,0.1-0.8,0.1c-0.5,0-0.9-0.1-1.3-0.2
	c-0.4-0.2-0.8-0.4-1-0.7c-0.3-0.3-0.5-0.7-0.7-1.2s-0.2-1-0.2-1.6c0-0.5,0.1-0.9,0.2-1.4c0.1-0.4,0.4-0.8,0.6-1.1
	c0.3-0.3,0.6-0.5,1-0.7s0.9-0.3,1.4-0.3c0.4,0,0.8,0.1,1.2,0.2c0.4,0.1,0.7,0.3,0.9,0.6c0.3,0.3,0.5,0.6,0.6,1s0.2,0.8,0.2,1.3
	c0,0.2,0,0.3-0.1,0.4c0,0.1-0.1,0.1-0.2,0.1h-4.6c0,0.4,0.1,0.8,0.2,1.1c0.1,0.3,0.3,0.6,0.4,0.8c0.2,0.2,0.4,0.4,0.7,0.5
	s0.6,0.2,0.9,0.2c0.3,0,0.6,0,0.8-0.1s0.4-0.1,0.6-0.2c0.2-0.1,0.3-0.2,0.4-0.2c0.1-0.1,0.2-0.1,0.3-0.1s0.2,0,0.2,0.1L164.5,670.4z
	 M163.5,667.2c0-0.3,0-0.5-0.1-0.8c-0.1-0.2-0.2-0.4-0.3-0.6c-0.2-0.2-0.3-0.3-0.6-0.4c-0.2-0.1-0.5-0.1-0.7-0.1
	c-0.6,0-1,0.2-1.4,0.5c-0.3,0.3-0.6,0.8-0.6,1.4L163.5,667.2L163.5,667.2z M169,664.3c0.5,0,1,0.1,1.4,0.3s0.8,0.4,1,0.7
	c0.3,0.3,0.5,0.7,0.7,1.1c0.2,0.4,0.2,0.9,0.2,1.5c0,0.5-0.1,1-0.2,1.5c-0.2,0.4-0.4,0.8-0.7,1.1s-0.6,0.5-1,0.7s-0.9,0.2-1.4,0.2
	s-1-0.1-1.4-0.2c-0.4-0.2-0.8-0.4-1-0.7c-0.3-0.3-0.5-0.7-0.7-1.1c-0.2-0.4-0.2-0.9-0.2-1.5c0-0.5,0.1-1,0.2-1.5
	c0.2-0.4,0.4-0.8,0.7-1.1s0.6-0.5,1-0.7C168.1,664.4,168.5,664.3,169,664.3z M169,670.5c0.7,0,1.2-0.2,1.5-0.7s0.5-1.1,0.5-1.9
	c0-0.8-0.2-1.5-0.5-1.9c-0.3-0.5-0.8-0.7-1.5-0.7c-0.3,0-0.6,0.1-0.9,0.2c-0.3,0.1-0.5,0.3-0.6,0.5c-0.2,0.2-0.3,0.5-0.4,0.8
	c-0.1,0.3-0.1,0.7-0.1,1.1c0,0.8,0.2,1.5,0.5,1.9C167.8,670.3,168.3,670.5,169,670.5z M177.8,671.4v-5.9l-0.8-0.1
	c-0.1,0-0.2-0.1-0.2-0.1s-0.1-0.1-0.1-0.2v-0.5h1.1v-0.7c0-0.4,0.1-0.7,0.2-1.1c0.1-0.3,0.3-0.6,0.5-0.8s0.5-0.4,0.7-0.5
	c0.3-0.1,0.6-0.2,1-0.2c0.3,0,0.6,0,0.9,0.1v0.6c0,0.1-0.1,0.2-0.2,0.2c-0.1,0-0.3,0-0.4,0c-0.2,0-0.4,0-0.6,0.1
	c-0.2,0.1-0.3,0.1-0.4,0.3c-0.1,0.1-0.2,0.3-0.3,0.5s-0.1,0.4-0.1,0.7v0.6h2v0.9h-2v5.9h-1.3L177.8,671.4L177.8,671.4z M187.6,670.4
	c-0.2,0.2-0.3,0.3-0.5,0.5c-0.2,0.1-0.4,0.2-0.7,0.3c-0.2,0.1-0.5,0.2-0.7,0.2c-0.3,0-0.5,0.1-0.8,0.1c-0.5,0-0.9-0.1-1.3-0.2
	c-0.4-0.2-0.8-0.4-1-0.7c-0.3-0.3-0.5-0.7-0.7-1.2s-0.2-1-0.2-1.6c0-0.5,0.1-0.9,0.2-1.4c0.1-0.4,0.4-0.8,0.6-1.1
	c0.3-0.3,0.6-0.5,1-0.7s0.9-0.3,1.4-0.3c0.4,0,0.8,0.1,1.2,0.2c0.4,0.1,0.7,0.3,0.9,0.6c0.3,0.3,0.5,0.6,0.6,1s0.2,0.8,0.2,1.3
	c0,0.2,0,0.3-0.1,0.4c0,0.1-0.1,0.1-0.2,0.1h-4.6c0,0.4,0.1,0.8,0.2,1.1c0.1,0.3,0.3,0.6,0.4,0.8c0.2,0.2,0.4,0.4,0.7,0.5
	s0.6,0.2,0.9,0.2c0.3,0,0.6,0,0.8-0.1s0.4-0.1,0.6-0.2c0.2-0.1,0.3-0.2,0.4-0.2c0.1-0.1,0.2-0.1,0.3-0.1s0.2,0,0.2,0.1L187.6,670.4z
	 M186.6,667.2c0-0.3,0-0.5-0.1-0.8c-0.1-0.2-0.2-0.4-0.3-0.6c-0.2-0.2-0.3-0.3-0.6-0.4c-0.2-0.1-0.5-0.1-0.7-0.1
	c-0.6,0-1,0.2-1.4,0.5c-0.3,0.3-0.6,0.8-0.6,1.4L186.6,667.2L186.6,667.2z M189,665.4c0.4-0.4,0.8-0.6,1.2-0.8s0.9-0.3,1.5-0.3
	c0.4,0,0.7,0.1,1,0.2c0.3,0.1,0.6,0.3,0.8,0.5s0.4,0.5,0.5,0.8s0.2,0.7,0.2,1.1v4.4h-0.5c-0.1,0-0.2,0-0.3-0.1
	c-0.1,0-0.1-0.1-0.2-0.2l-0.1-0.7c-0.2,0.2-0.4,0.3-0.5,0.4c-0.2,0.1-0.4,0.2-0.5,0.3s-0.4,0.2-0.6,0.2c-0.2,0-0.5,0.1-0.7,0.1
	c-0.3,0-0.5,0-0.8-0.1c-0.2-0.1-0.4-0.2-0.6-0.3c-0.2-0.2-0.3-0.3-0.4-0.6c-0.1-0.2-0.2-0.5-0.2-0.8s0.1-0.5,0.2-0.8
	c0.2-0.3,0.4-0.5,0.7-0.7s0.8-0.4,1.3-0.5s1.2-0.2,2-0.2V667c0-0.5-0.1-0.9-0.3-1.2s-0.6-0.4-1-0.4c-0.3,0-0.6,0-0.8,0.1
	s-0.4,0.2-0.5,0.3s-0.3,0.2-0.4,0.3c-0.1,0.1-0.2,0.1-0.3,0.1s-0.2,0-0.2-0.1c-0.1,0-0.1-0.1-0.2-0.2L189,665.4z M192.9,668.3
	c-0.6,0-1,0.1-1.4,0.1c-0.4,0.1-0.7,0.2-1,0.3c-0.2,0.1-0.4,0.2-0.5,0.4s-0.2,0.3-0.2,0.5s0,0.3,0.1,0.5c0.1,0.1,0.1,0.2,0.2,0.3
	c0.1,0.1,0.2,0.1,0.4,0.2c0.1,0,0.3,0.1,0.4,0.1c0.2,0,0.4,0,0.6-0.1c0.2,0,0.3-0.1,0.5-0.2c0.2-0.1,0.3-0.2,0.5-0.3
	c0.1-0.1,0.3-0.2,0.4-0.4V668.3z M198,671.5c-0.5,0-1-0.2-1.3-0.5s-0.4-0.7-0.4-1.3v-4.2h-0.8c-0.1,0-0.1,0-0.2-0.1
	c-0.1,0-0.1-0.1-0.1-0.2v-0.5l1.1-0.1l0.3-2.1c0-0.1,0-0.1,0.1-0.2c0,0,0.1-0.1,0.2-0.1h0.6v2.4h2v0.9h-2v4.2c0,0.3,0.1,0.5,0.2,0.7
	c0.1,0.1,0.3,0.2,0.5,0.2c0.1,0,0.2,0,0.3-0.1c0.1,0,0.2-0.1,0.2-0.1s0.1-0.1,0.2-0.1l0.1-0.1c0.1,0,0.1,0,0.2,0.1l0.4,0.6
	c-0.2,0.2-0.5,0.4-0.8,0.5C198.6,671.4,198.3,671.5,198,671.5z M206.5,664.5v6.9h-0.7c-0.2,0-0.3-0.1-0.3-0.3l-0.1-0.7
	c-0.3,0.3-0.6,0.6-1,0.8s-0.8,0.3-1.3,0.3c-0.4,0-0.7-0.1-1-0.2c-0.3-0.1-0.5-0.3-0.7-0.5s-0.3-0.5-0.4-0.8
	c-0.1-0.3-0.1-0.7-0.1-1.1v-4.4h1.2v4.4c0,0.5,0.1,0.9,0.4,1.2c0.2,0.3,0.6,0.4,1.1,0.4c0.4,0,0.7-0.1,1-0.3s0.6-0.4,0.9-0.7v-5.1
	L206.5,664.5L206.5,664.5z M209.6,665.8c0.2-0.5,0.5-0.8,0.8-1.1s0.7-0.4,1.2-0.4c0.1,0,0.3,0,0.4,0c0.1,0,0.3,0.1,0.4,0.2l-0.1,0.9
	c0,0.1-0.1,0.2-0.2,0.2c-0.1,0-0.2,0-0.3,0s-0.3,0-0.4,0c-0.2,0-0.4,0-0.6,0.1c-0.2,0.1-0.3,0.2-0.5,0.3c-0.1,0.1-0.3,0.3-0.4,0.5
	c-0.1,0.2-0.2,0.4-0.3,0.6v4.4h-1.2v-6.9h0.7c0.1,0,0.2,0,0.3,0.1s0.1,0.1,0.1,0.3L209.6,665.8z M218.7,670.4
	c-0.2,0.2-0.3,0.3-0.5,0.5c-0.2,0.1-0.4,0.2-0.7,0.3c-0.2,0.1-0.5,0.2-0.7,0.2c-0.3,0-0.5,0.1-0.8,0.1c-0.5,0-0.9-0.1-1.3-0.2
	c-0.4-0.2-0.8-0.4-1-0.7c-0.3-0.3-0.5-0.7-0.7-1.2s-0.2-1-0.2-1.6c0-0.5,0.1-0.9,0.2-1.4c0.1-0.4,0.4-0.8,0.6-1.1
	c0.3-0.3,0.6-0.5,1-0.7s0.9-0.3,1.4-0.3c0.4,0,0.8,0.1,1.2,0.2c0.4,0.1,0.7,0.3,0.9,0.6c0.3,0.3,0.5,0.6,0.6,1s0.2,0.8,0.2,1.3
	c0,0.2,0,0.3-0.1,0.4c0,0.1-0.1,0.1-0.2,0.1H214c0,0.4,0.1,0.8,0.2,1.1c0.1,0.3,0.3,0.6,0.4,0.8c0.2,0.2,0.4,0.4,0.7,0.5
	s0.6,0.2,0.9,0.2c0.3,0,0.6,0,0.8-0.1s0.4-0.1,0.6-0.2c0.2-0.1,0.3-0.2,0.4-0.2c0.1-0.1,0.2-0.1,0.3-0.1s0.2,0,0.2,0.1L218.7,670.4z
	 M217.8,667.2c0-0.3,0-0.5-0.1-0.8c-0.1-0.2-0.2-0.4-0.3-0.6c-0.2-0.2-0.3-0.3-0.6-0.4c-0.2-0.1-0.5-0.1-0.7-0.1
	c-0.6,0-1,0.2-1.4,0.5c-0.3,0.3-0.6,0.8-0.6,1.4L217.8,667.2L217.8,667.2z M224.4,665.6c-0.1,0.1-0.1,0.2-0.3,0.2
	c-0.1,0-0.1,0-0.2-0.1c-0.1-0.1-0.2-0.1-0.3-0.2c-0.1-0.1-0.3-0.1-0.4-0.2c-0.2-0.1-0.4-0.1-0.6-0.1c-0.2,0-0.4,0-0.6,0.1
	c-0.2,0.1-0.3,0.1-0.4,0.2c-0.1,0.1-0.2,0.2-0.3,0.3s-0.1,0.3-0.1,0.4c0,0.2,0.1,0.3,0.2,0.4c0.1,0.1,0.2,0.2,0.4,0.3
	s0.4,0.2,0.6,0.2c0.2,0.1,0.4,0.1,0.7,0.2c0.2,0.1,0.4,0.2,0.7,0.2c0.2,0.1,0.4,0.2,0.6,0.3c0.2,0.1,0.3,0.3,0.4,0.5
	c0.1,0.2,0.2,0.4,0.2,0.7s-0.1,0.6-0.2,0.9c-0.1,0.3-0.3,0.5-0.5,0.7s-0.5,0.4-0.8,0.5s-0.7,0.2-1.1,0.2c-0.5,0-0.9-0.1-1.3-0.2
	c-0.4-0.2-0.7-0.4-1-0.6l0.3-0.5c0-0.1,0.1-0.1,0.1-0.1c0.1,0,0.1,0,0.2,0c0.1,0,0.2,0,0.3,0.1s0.2,0.1,0.3,0.2
	c0.1,0.1,0.3,0.1,0.5,0.2c0.2,0.1,0.4,0.1,0.7,0.1c0.2,0,0.4,0,0.6-0.1c0.2-0.1,0.3-0.1,0.4-0.2c0.1-0.1,0.2-0.2,0.3-0.4
	c0.1-0.1,0.1-0.3,0.1-0.4c0-0.2-0.1-0.4-0.2-0.5c-0.1-0.1-0.2-0.2-0.4-0.3s-0.4-0.2-0.6-0.2c-0.2-0.1-0.4-0.1-0.7-0.2
	c-0.2-0.1-0.4-0.2-0.7-0.2c-0.2-0.1-0.4-0.2-0.6-0.4c-0.2-0.1-0.3-0.3-0.4-0.5c-0.1-0.2-0.2-0.5-0.2-0.8s0.1-0.5,0.2-0.8
	c0.1-0.2,0.3-0.5,0.5-0.6c0.2-0.2,0.5-0.3,0.8-0.4c0.3-0.1,0.7-0.2,1-0.2c0.5,0,0.9,0.1,1.2,0.2s0.7,0.3,0.9,0.6L224.4,665.6z
	 M229.6,665.4c0.4-0.4,0.8-0.6,1.2-0.8s0.9-0.3,1.5-0.3c0.4,0,0.7,0.1,1,0.2c0.3,0.1,0.6,0.3,0.8,0.5s0.4,0.5,0.5,0.8
	s0.2,0.7,0.2,1.1v4.4h-0.5c-0.1,0-0.2,0-0.3-0.1c-0.1,0-0.1-0.1-0.2-0.2l-0.1-0.7c-0.2,0.2-0.4,0.3-0.5,0.4
	c-0.2,0.1-0.4,0.2-0.5,0.3c-0.2,0.1-0.4,0.2-0.6,0.2c-0.2,0-0.5,0.1-0.7,0.1c-0.3,0-0.5,0-0.8-0.1c-0.2-0.1-0.4-0.2-0.6-0.3
	c-0.2-0.2-0.3-0.3-0.4-0.6c-0.1-0.2-0.2-0.5-0.2-0.8s0.1-0.5,0.2-0.8c0.2-0.3,0.4-0.5,0.7-0.7s0.8-0.4,1.3-0.5s1.2-0.2,2-0.2V667
	c0-0.5-0.1-0.9-0.3-1.2s-0.6-0.4-1-0.4c-0.3,0-0.6,0-0.8,0.1s-0.4,0.2-0.5,0.3s-0.3,0.2-0.4,0.3c-0.1,0.1-0.2,0.1-0.3,0.1
	s-0.2,0-0.2-0.1c-0.1,0-0.1-0.1-0.2-0.2L229.6,665.4z M233.5,668.3c-0.6,0-1,0.1-1.4,0.1c-0.4,0.1-0.7,0.2-1,0.3
	c-0.2,0.1-0.4,0.2-0.5,0.4s-0.2,0.3-0.2,0.5s0,0.3,0.1,0.5c0.1,0.1,0.1,0.2,0.2,0.3c0.1,0.1,0.2,0.1,0.4,0.2c0.1,0,0.3,0.1,0.4,0.1
	c0.2,0,0.4,0,0.6-0.1c0.2,0,0.3-0.1,0.5-0.2s0.3-0.2,0.5-0.3c0.1-0.1,0.3-0.2,0.4-0.4V668.3z M237.7,665.5c0.2-0.2,0.3-0.3,0.5-0.5
	c0.2-0.1,0.3-0.3,0.5-0.4c0.2-0.1,0.4-0.2,0.6-0.2c0.2-0.1,0.4-0.1,0.7-0.1c0.4,0,0.7,0.1,1,0.2c0.3,0.1,0.5,0.3,0.7,0.5
	s0.3,0.5,0.4,0.8c0.1,0.3,0.2,0.7,0.2,1.1v4.4h-1.2V667c0-0.5-0.1-0.9-0.4-1.2c-0.2-0.3-0.6-0.4-1.1-0.4c-0.4,0-0.7,0.1-1,0.3
	s-0.6,0.4-0.9,0.7v5.1h-1.2v-6.9h0.7c0.2,0,0.3,0.1,0.3,0.3L237.7,665.5z M247.5,665.4c0.4-0.4,0.8-0.6,1.2-0.8s0.9-0.3,1.5-0.3
	c0.4,0,0.7,0.1,1,0.2c0.3,0.1,0.6,0.3,0.8,0.5s0.4,0.5,0.5,0.8s0.2,0.7,0.2,1.1v4.4h-0.5c-0.1,0-0.2,0-0.3-0.1
	c-0.1,0-0.1-0.1-0.2-0.2l-0.1-0.7c-0.2,0.2-0.4,0.3-0.5,0.4c-0.2,0.1-0.4,0.2-0.5,0.3c-0.2,0.1-0.4,0.2-0.6,0.2
	c-0.2,0-0.5,0.1-0.7,0.1c-0.3,0-0.5,0-0.8-0.1c-0.2-0.1-0.4-0.2-0.6-0.3c-0.2-0.2-0.3-0.3-0.4-0.6c-0.1-0.2-0.2-0.5-0.2-0.8
	s0.1-0.5,0.2-0.8c0.2-0.3,0.4-0.5,0.7-0.7s0.8-0.4,1.3-0.5s1.2-0.2,2-0.2V667c0-0.5-0.1-0.9-0.3-1.2s-0.6-0.4-1-0.4
	c-0.3,0-0.6,0-0.8,0.1s-0.4,0.2-0.5,0.3s-0.3,0.2-0.4,0.3c-0.1,0.1-0.2,0.1-0.3,0.1s-0.2,0-0.2-0.1c-0.1,0-0.1-0.1-0.2-0.2
	L247.5,665.4z M251.5,668.3c-0.6,0-1,0.1-1.4,0.1c-0.4,0.1-0.7,0.2-1,0.3c-0.2,0.1-0.4,0.2-0.5,0.4s-0.2,0.3-0.2,0.5s0,0.3,0.1,0.5
	c0.1,0.1,0.1,0.2,0.2,0.3c0.1,0.1,0.2,0.1,0.4,0.2c0.1,0,0.3,0.1,0.4,0.1c0.2,0,0.4,0,0.6-0.1c0.2,0,0.3-0.1,0.5-0.2
	s0.3-0.2,0.5-0.3c0.1-0.1,0.3-0.2,0.4-0.4V668.3z M259.4,665.7c0,0.1-0.1,0.1-0.1,0.1s-0.1,0-0.2,0s-0.1,0-0.2-0.1s-0.2-0.1-0.3-0.2
	c-0.1-0.1-0.3-0.1-0.4-0.2c-0.2-0.1-0.4-0.1-0.6-0.1c-0.3,0-0.6,0.1-0.9,0.2c-0.3,0.1-0.5,0.3-0.7,0.5s-0.3,0.5-0.4,0.8
	c-0.1,0.3-0.1,0.7-0.1,1.1c0,0.4,0,0.8,0.1,1.1s0.2,0.6,0.4,0.8s0.4,0.4,0.6,0.5c0.2,0.1,0.5,0.2,0.8,0.2s0.5,0,0.7-0.1
	s0.4-0.1,0.5-0.2c0.1-0.1,0.2-0.2,0.3-0.2c0.1-0.1,0.2-0.1,0.2-0.1c0.1,0,0.2,0,0.2,0.1l0.3,0.4c-0.2,0.2-0.3,0.3-0.5,0.5
	c-0.2,0.1-0.4,0.2-0.6,0.3s-0.5,0.2-0.7,0.2s-0.5,0.1-0.7,0.1c-0.4,0-0.8-0.1-1.2-0.2c-0.4-0.2-0.7-0.4-1-0.7s-0.5-0.7-0.6-1.1
	c-0.2-0.4-0.2-0.9-0.2-1.5c0-0.5,0.1-1,0.2-1.4c0.1-0.4,0.4-0.8,0.6-1.1c0.3-0.3,0.6-0.6,1-0.7c0.4-0.2,0.9-0.3,1.4-0.3
	s0.9,0.1,1.3,0.2c0.4,0.2,0.7,0.4,1,0.7L259.4,665.7z M263.2,671.5c-0.5,0-1-0.2-1.3-0.5s-0.4-0.7-0.4-1.3v-4.2h-0.8
	c-0.1,0-0.1,0-0.2-0.1c-0.1,0-0.1-0.1-0.1-0.2v-0.5l1.1-0.1l0.3-2.1c0-0.1,0-0.1,0.1-0.2c0,0,0.1-0.1,0.2-0.1h0.6v2.4h2v0.9h-2v4.2
	c0,0.3,0.1,0.5,0.2,0.7c0.1,0.1,0.3,0.2,0.5,0.2c0.1,0,0.2,0,0.3-0.1c0.1,0,0.2-0.1,0.2-0.1c0.1,0,0.1-0.1,0.2-0.1l0.1-0.1
	c0.1,0,0.1,0,0.2,0.1l0.4,0.6c-0.2,0.2-0.5,0.4-0.8,0.5C263.8,671.4,263.5,671.5,263.2,671.5z M271.7,664.5v6.9H271
	c-0.2,0-0.3-0.1-0.3-0.3l-0.1-0.7c-0.3,0.3-0.6,0.6-1,0.8s-0.8,0.3-1.3,0.3c-0.4,0-0.7-0.1-1-0.2c-0.3-0.1-0.5-0.3-0.7-0.5
	s-0.3-0.5-0.4-0.8s-0.1-0.7-0.1-1.1v-4.4h1.2v4.4c0,0.5,0.1,0.9,0.4,1.2c0.2,0.3,0.6,0.4,1.1,0.4c0.4,0,0.7-0.1,1-0.3
	s0.6-0.4,0.9-0.7v-5.1L271.7,664.5L271.7,664.5z M273.4,665.4c0.4-0.4,0.8-0.6,1.2-0.8c0.4-0.2,0.9-0.3,1.5-0.3c0.4,0,0.7,0.1,1,0.2
	c0.3,0.1,0.6,0.3,0.8,0.5c0.2,0.2,0.4,0.5,0.5,0.8s0.2,0.7,0.2,1.1v4.4H278c-0.1,0-0.2,0-0.3-0.1c-0.1,0-0.1-0.1-0.2-0.2l-0.1-0.7
	c-0.2,0.2-0.4,0.3-0.5,0.4c-0.2,0.1-0.4,0.2-0.5,0.3c-0.2,0.1-0.4,0.2-0.6,0.2s-0.5,0.1-0.7,0.1c-0.3,0-0.5,0-0.8-0.1
	c-0.2-0.1-0.4-0.2-0.6-0.3c-0.2-0.2-0.3-0.3-0.4-0.6c-0.1-0.2-0.2-0.5-0.2-0.8s0.1-0.5,0.2-0.8c0.2-0.3,0.4-0.5,0.7-0.7
	c0.3-0.2,0.8-0.4,1.3-0.5s1.2-0.2,2-0.2V667c0-0.5-0.1-0.9-0.3-1.2c-0.2-0.3-0.6-0.4-1-0.4c-0.3,0-0.6,0-0.8,0.1
	c-0.2,0.1-0.4,0.2-0.5,0.3s-0.3,0.2-0.4,0.3s-0.2,0.1-0.3,0.1c-0.1,0-0.2,0-0.2-0.1c-0.1,0-0.1-0.1-0.2-0.2L273.4,665.4z
	 M277.3,668.3c-0.6,0-1,0.1-1.4,0.1c-0.4,0.1-0.7,0.2-1,0.3c-0.2,0.1-0.4,0.2-0.5,0.4s-0.2,0.3-0.2,0.5s0,0.3,0.1,0.5
	c0.1,0.1,0.1,0.2,0.2,0.3s0.2,0.1,0.4,0.2c0.1,0,0.3,0.1,0.4,0.1c0.2,0,0.4,0,0.6-0.1c0.2,0,0.3-0.1,0.5-0.2s0.3-0.2,0.5-0.3
	c0.1-0.1,0.3-0.2,0.4-0.4V668.3z M281.7,661.3v10.1h-1.2v-10.1H281.7z M292.4,663.1c0,0.1-0.1,0.1-0.1,0.2c0,0-0.1,0.1-0.2,0.1
	s-0.2,0-0.3-0.1c-0.1-0.1-0.2-0.2-0.4-0.3c-0.2-0.1-0.3-0.2-0.6-0.3c-0.2-0.1-0.5-0.1-0.8-0.1s-0.6,0-0.8,0.1
	c-0.2,0.1-0.4,0.2-0.6,0.3s-0.3,0.3-0.3,0.5c-0.1,0.2-0.1,0.4-0.1,0.6c0,0.3,0.1,0.5,0.2,0.7s0.3,0.3,0.5,0.5
	c0.2,0.1,0.5,0.2,0.8,0.3s0.6,0.2,0.9,0.3s0.6,0.2,0.9,0.3s0.5,0.3,0.8,0.5c0.2,0.2,0.4,0.4,0.5,0.7s0.2,0.6,0.2,1s-0.1,0.8-0.2,1.2
	s-0.4,0.7-0.6,1c-0.3,0.3-0.6,0.5-1,0.7s-0.9,0.2-1.4,0.2c-0.6,0-1.2-0.1-1.7-0.3s-1-0.5-1.3-0.9l0.4-0.6c0-0.1,0.1-0.1,0.1-0.1
	c0.1,0,0.1-0.1,0.2-0.1s0.1,0,0.2,0.1c0.1,0,0.2,0.1,0.3,0.2c0.1,0.1,0.2,0.2,0.3,0.2c0.1,0.1,0.3,0.2,0.4,0.2s0.3,0.1,0.5,0.2
	c0.2,0,0.4,0.1,0.7,0.1c0.3,0,0.6,0,0.8-0.1c0.2-0.1,0.5-0.2,0.6-0.4c0.2-0.2,0.3-0.3,0.4-0.6c0.1-0.2,0.1-0.5,0.1-0.7
	c0-0.3-0.1-0.5-0.2-0.7s-0.3-0.3-0.5-0.5c-0.2-0.1-0.5-0.2-0.8-0.3s-0.6-0.2-0.9-0.3s-0.6-0.2-0.9-0.3s-0.5-0.3-0.8-0.5
	c-0.2-0.2-0.4-0.4-0.5-0.7s-0.2-0.7-0.2-1.1c0-0.3,0.1-0.7,0.2-1s0.3-0.6,0.6-0.9c0.3-0.3,0.6-0.5,1-0.6c0.4-0.2,0.8-0.2,1.3-0.2
	s1,0.1,1.5,0.3c0.4,0.2,0.8,0.4,1.2,0.8L292.4,663.1z M297.4,664.3c0.5,0,1,0.1,1.4,0.3s0.8,0.4,1,0.7c0.3,0.3,0.5,0.7,0.7,1.1
	c0.2,0.4,0.2,0.9,0.2,1.5c0,0.5-0.1,1-0.2,1.5c-0.2,0.4-0.4,0.8-0.7,1.1c-0.3,0.3-0.6,0.5-1,0.7s-0.9,0.2-1.4,0.2s-1-0.1-1.4-0.2
	c-0.4-0.2-0.8-0.4-1-0.7c-0.3-0.3-0.5-0.7-0.7-1.1c-0.2-0.4-0.2-0.9-0.2-1.5c0-0.5,0.1-1,0.2-1.5c0.2-0.4,0.4-0.8,0.7-1.1
	c0.3-0.3,0.6-0.5,1-0.7C296.5,664.4,296.9,664.3,297.4,664.3z M297.4,670.5c0.7,0,1.2-0.2,1.5-0.7s0.5-1.1,0.5-1.9
	c0-0.8-0.2-1.5-0.5-1.9c-0.3-0.5-0.8-0.7-1.5-0.7c-0.3,0-0.6,0.1-0.9,0.2c-0.3,0.1-0.5,0.3-0.6,0.5c-0.2,0.2-0.3,0.5-0.4,0.8
	s-0.1,0.7-0.1,1.1c0,0.8,0.2,1.5,0.5,1.9C296.2,670.3,296.7,670.5,297.4,670.5z M303.5,661.3v10.1h-1.2v-10.1H303.5z M308.4,664.3
	c0.5,0,1,0.1,1.4,0.3s0.8,0.4,1,0.7c0.3,0.3,0.5,0.7,0.7,1.1c0.2,0.4,0.2,0.9,0.2,1.5c0,0.5-0.1,1-0.2,1.5c-0.2,0.4-0.4,0.8-0.7,1.1
	c-0.3,0.3-0.6,0.5-1,0.7s-0.9,0.2-1.4,0.2s-1-0.1-1.4-0.2c-0.4-0.2-0.8-0.4-1-0.7c-0.3-0.3-0.5-0.7-0.7-1.1
	c-0.2-0.4-0.2-0.9-0.2-1.5c0-0.5,0.1-1,0.2-1.5c0.2-0.4,0.4-0.8,0.7-1.1c0.3-0.3,0.6-0.5,1-0.7C307.5,664.4,307.9,664.3,308.4,664.3
	z M308.4,670.5c0.7,0,1.2-0.2,1.5-0.7s0.5-1.1,0.5-1.9c0-0.8-0.2-1.5-0.5-1.9c-0.3-0.5-0.8-0.7-1.5-0.7c-0.3,0-0.6,0.1-0.9,0.2
	c-0.3,0.1-0.5,0.3-0.6,0.5c-0.2,0.2-0.3,0.5-0.4,0.8s-0.1,0.7-0.1,1.1c0,0.8,0.2,1.5,0.5,1.9C307.2,670.3,307.7,670.5,308.4,670.5z
	 M317.3,665.6c-0.1,0.1-0.1,0.2-0.3,0.2c-0.1,0-0.1,0-0.2-0.1s-0.2-0.1-0.3-0.2c-0.1-0.1-0.3-0.1-0.4-0.2c-0.2-0.1-0.4-0.1-0.6-0.1
	s-0.4,0-0.6,0.1s-0.3,0.1-0.4,0.2c-0.1,0.1-0.2,0.2-0.3,0.3c-0.1,0.1-0.1,0.3-0.1,0.4c0,0.2,0.1,0.3,0.2,0.4
	c0.1,0.1,0.2,0.2,0.4,0.3c0.2,0.1,0.4,0.2,0.6,0.2c0.2,0.1,0.4,0.1,0.7,0.2c0.2,0.1,0.4,0.2,0.7,0.2c0.2,0.1,0.4,0.2,0.6,0.3
	s0.3,0.3,0.4,0.5s0.2,0.4,0.2,0.7s-0.1,0.6-0.2,0.9c-0.1,0.3-0.3,0.5-0.5,0.7s-0.5,0.4-0.8,0.5s-0.7,0.2-1.1,0.2
	c-0.5,0-0.9-0.1-1.3-0.2c-0.4-0.2-0.7-0.4-1-0.6l0.3-0.5c0-0.1,0.1-0.1,0.1-0.1c0.1,0,0.1,0,0.2,0s0.2,0,0.3,0.1
	c0.1,0.1,0.2,0.1,0.3,0.2c0.1,0.1,0.3,0.1,0.5,0.2c0.2,0.1,0.4,0.1,0.7,0.1c0.2,0,0.4,0,0.6-0.1s0.3-0.1,0.4-0.2
	c0.1-0.1,0.2-0.2,0.3-0.4c0.1-0.1,0.1-0.3,0.1-0.4c0-0.2-0.1-0.4-0.2-0.5s-0.2-0.2-0.4-0.3c-0.2-0.1-0.4-0.2-0.6-0.2
	c-0.2-0.1-0.4-0.1-0.7-0.2c-0.2-0.1-0.4-0.2-0.7-0.2c-0.2-0.1-0.4-0.2-0.6-0.4c-0.2-0.1-0.3-0.3-0.4-0.5s-0.2-0.5-0.2-0.8
	s0.1-0.5,0.2-0.8c0.1-0.2,0.3-0.5,0.5-0.6c0.2-0.2,0.5-0.3,0.8-0.4c0.3-0.1,0.7-0.2,1-0.2c0.5,0,0.9,0.1,1.2,0.2s0.7,0.3,0.9,0.6
	L317.3,665.6z M324.8,670.4c-0.2,0.2-0.3,0.3-0.5,0.5c-0.2,0.1-0.4,0.2-0.7,0.3c-0.2,0.1-0.5,0.2-0.7,0.2c-0.3,0-0.5,0.1-0.8,0.1
	c-0.5,0-0.9-0.1-1.3-0.2s-0.8-0.4-1-0.7c-0.3-0.3-0.5-0.7-0.7-1.2s-0.2-1-0.2-1.6c0-0.5,0.1-0.9,0.2-1.4c0.1-0.4,0.4-0.8,0.6-1.1
	c0.3-0.3,0.6-0.5,1-0.7s0.9-0.3,1.4-0.3c0.4,0,0.8,0.1,1.2,0.2c0.4,0.1,0.7,0.3,0.9,0.6c0.3,0.3,0.5,0.6,0.6,1s0.2,0.8,0.2,1.3
	c0,0.2,0,0.3-0.1,0.4c0,0.1-0.1,0.1-0.2,0.1H320c0,0.4,0.1,0.8,0.2,1.1s0.3,0.6,0.4,0.8c0.2,0.2,0.4,0.4,0.7,0.5
	c0.3,0.1,0.6,0.2,0.9,0.2s0.6,0,0.8-0.1c0.2-0.1,0.4-0.1,0.6-0.2c0.2-0.1,0.3-0.2,0.4-0.2c0.1-0.1,0.2-0.1,0.3-0.1
	c0.1,0,0.2,0,0.2,0.1L324.8,670.4z M323.8,667.2c0-0.3,0-0.5-0.1-0.8c-0.1-0.2-0.2-0.4-0.3-0.6c-0.2-0.2-0.3-0.3-0.6-0.4
	c-0.2-0.1-0.5-0.1-0.7-0.1c-0.6,0-1,0.2-1.4,0.5c-0.3,0.3-0.6,0.8-0.6,1.4L323.8,667.2L323.8,667.2z M331.2,665.7
	c0,0.1-0.1,0.1-0.1,0.1s-0.1,0-0.2,0s-0.1,0-0.2-0.1s-0.2-0.1-0.3-0.2c-0.1-0.1-0.3-0.1-0.4-0.2c-0.2-0.1-0.4-0.1-0.6-0.1
	c-0.3,0-0.6,0.1-0.9,0.2c-0.3,0.1-0.5,0.3-0.7,0.5s-0.3,0.5-0.4,0.8s-0.1,0.7-0.1,1.1c0,0.4,0,0.8,0.1,1.1s0.2,0.6,0.4,0.8
	c0.2,0.2,0.4,0.4,0.6,0.5s0.5,0.2,0.8,0.2s0.5,0,0.7-0.1s0.4-0.1,0.5-0.2c0.1-0.1,0.2-0.2,0.3-0.2c0.1-0.1,0.2-0.1,0.2-0.1
	c0.1,0,0.2,0,0.2,0.1l0.3,0.4c-0.2,0.2-0.3,0.3-0.5,0.5c-0.2,0.1-0.4,0.2-0.6,0.3s-0.5,0.2-0.7,0.2s-0.5,0.1-0.7,0.1
	c-0.4,0-0.8-0.1-1.2-0.2c-0.4-0.2-0.7-0.4-1-0.7s-0.5-0.7-0.6-1.1c-0.2-0.4-0.2-0.9-0.2-1.5c0-0.5,0.1-1,0.2-1.4s0.4-0.8,0.6-1.1
	c0.3-0.3,0.6-0.6,1-0.7s0.9-0.3,1.4-0.3s0.9,0.1,1.3,0.2c0.4,0.2,0.7,0.4,1,0.7L331.2,665.7z M337.6,665.5c0.3-0.4,0.6-0.7,1-0.9
	s0.8-0.3,1.3-0.3c0.4,0,0.8,0.1,1.1,0.2c0.3,0.2,0.6,0.4,0.8,0.7c0.2,0.3,0.4,0.7,0.5,1.1c0.1,0.4,0.2,1,0.2,1.5s-0.1,1-0.2,1.4
	s-0.3,0.8-0.6,1.1c-0.3,0.3-0.6,0.6-0.9,0.8c-0.4,0.2-0.8,0.3-1.3,0.3c-0.4,0-0.8-0.1-1.1-0.2c-0.3-0.1-0.6-0.3-0.8-0.6v3.1h-1.2
	v-9.3h0.7c0.2,0,0.3,0.1,0.3,0.3L337.6,665.5z M337.7,669.7c0.2,0.3,0.5,0.5,0.7,0.6c0.3,0.1,0.6,0.2,0.9,0.2c0.6,0,1.1-0.2,1.5-0.7
	c0.3-0.5,0.5-1.1,0.5-2c0-0.5,0-0.8-0.1-1.2c-0.1-0.3-0.2-0.6-0.3-0.8c-0.2-0.2-0.3-0.4-0.6-0.5c-0.2-0.1-0.5-0.1-0.7-0.1
	c-0.4,0-0.7,0.1-1,0.3s-0.6,0.4-0.8,0.8v3.4H337.7z M343.9,665.4c0.4-0.4,0.8-0.6,1.2-0.8c0.4-0.2,0.9-0.3,1.5-0.3
	c0.4,0,0.7,0.1,1,0.2c0.3,0.1,0.6,0.3,0.8,0.5c0.2,0.2,0.4,0.5,0.5,0.8s0.2,0.7,0.2,1.1v4.4h-0.5c-0.1,0-0.2,0-0.3-0.1
	c-0.1,0-0.1-0.1-0.2-0.2l-0.1-0.7c-0.2,0.2-0.4,0.3-0.5,0.4c-0.2,0.1-0.4,0.2-0.5,0.3c-0.2,0.1-0.4,0.2-0.6,0.2s-0.5,0.1-0.7,0.1
	c-0.3,0-0.5,0-0.8-0.1c-0.2-0.1-0.4-0.2-0.6-0.3c-0.2-0.2-0.3-0.3-0.4-0.6c-0.1-0.2-0.2-0.5-0.2-0.8s0.1-0.5,0.2-0.8
	c0.2-0.3,0.4-0.5,0.7-0.7c0.3-0.2,0.8-0.4,1.3-0.5s1.2-0.2,2-0.2V667c0-0.5-0.1-0.9-0.3-1.2c-0.2-0.3-0.6-0.4-1-0.4
	c-0.3,0-0.6,0-0.8,0.1c-0.2,0.1-0.4,0.2-0.5,0.3s-0.3,0.2-0.4,0.3s-0.2,0.1-0.3,0.1c-0.1,0-0.2,0-0.2-0.1c-0.1,0-0.1-0.1-0.2-0.2
	L343.9,665.4z M347.9,668.3c-0.6,0-1,0.1-1.4,0.1c-0.4,0.1-0.7,0.2-1,0.3c-0.2,0.1-0.4,0.2-0.5,0.4s-0.2,0.3-0.2,0.5s0,0.3,0.1,0.5
	c0.1,0.1,0.1,0.2,0.2,0.3s0.2,0.1,0.4,0.2c0.1,0,0.3,0.1,0.4,0.1c0.2,0,0.4,0,0.6-0.1c0.2,0,0.3-0.1,0.5-0.2s0.3-0.2,0.5-0.3
	c0.1-0.1,0.3-0.2,0.4-0.4V668.3z M357.3,671.4h-1.2v-5.9h-3.6v4.2c0,0.3,0.1,0.5,0.2,0.7c0.1,0.1,0.3,0.2,0.5,0.2
	c0.1,0,0.2,0,0.3-0.1c0.1,0,0.2-0.1,0.2-0.1c0.1,0,0.1-0.1,0.2-0.1l0.1-0.1c0.1,0,0.1,0,0.2,0.1l0.4,0.6c-0.2,0.2-0.5,0.4-0.8,0.5
	s-0.6,0.2-0.9,0.2c-0.5,0-1-0.2-1.3-0.5s-0.4-0.7-0.4-1.3v-4.2h-0.8c-0.1,0-0.1,0-0.2-0.1c-0.1,0-0.1-0.1-0.1-0.2v-0.5l1.1-0.2
	l0.3-2.1c0-0.1,0-0.1,0.1-0.2c0,0,0.1-0.1,0.2-0.1h0.6v2.4h4.8L357.3,671.4L357.3,671.4z M357.6,662.2c0,0.1,0,0.2-0.1,0.3
	c0,0.1-0.1,0.2-0.2,0.3s-0.2,0.1-0.3,0.2c-0.1,0-0.2,0.1-0.3,0.1c-0.1,0-0.2,0-0.3-0.1c-0.1,0-0.2-0.1-0.3-0.2
	c-0.1-0.1-0.1-0.2-0.2-0.3c0-0.1-0.1-0.2-0.1-0.3s0-0.2,0.1-0.3c0-0.1,0.1-0.2,0.2-0.3s0.2-0.1,0.3-0.2c0.1,0,0.2-0.1,0.3-0.1
	c0.1,0,0.2,0,0.3,0.1c0.1,0,0.2,0.1,0.3,0.2c0.1,0.1,0.1,0.2,0.2,0.3S357.6,662.1,357.6,662.2z M364.9,670.4
	c-0.2,0.2-0.3,0.3-0.5,0.5c-0.2,0.1-0.4,0.2-0.7,0.3c-0.2,0.1-0.5,0.2-0.7,0.2c-0.3,0-0.5,0.1-0.8,0.1c-0.5,0-0.9-0.1-1.3-0.2
	s-0.8-0.4-1-0.7c-0.3-0.3-0.5-0.7-0.7-1.2s-0.2-1-0.2-1.6c0-0.5,0.1-0.9,0.2-1.4c0.1-0.4,0.4-0.8,0.6-1.1c0.3-0.3,0.6-0.5,1-0.7
	s0.9-0.3,1.4-0.3c0.4,0,0.8,0.1,1.2,0.2c0.4,0.1,0.7,0.3,0.9,0.6c0.3,0.3,0.5,0.6,0.6,1s0.2,0.8,0.2,1.3c0,0.2,0,0.3-0.1,0.4
	c0,0.1-0.1,0.1-0.2,0.1h-4.6c0,0.4,0.1,0.8,0.2,1.1s0.3,0.6,0.4,0.8c0.2,0.2,0.4,0.4,0.7,0.5c0.3,0.1,0.6,0.2,0.9,0.2s0.6,0,0.8-0.1
	c0.2-0.1,0.4-0.1,0.6-0.2c0.2-0.1,0.3-0.2,0.4-0.2c0.1-0.1,0.2-0.1,0.3-0.1c0.1,0,0.2,0,0.2,0.1L364.9,670.4z M363.9,667.2
	c0-0.3,0-0.5-0.1-0.8c-0.1-0.2-0.2-0.4-0.3-0.6c-0.2-0.2-0.3-0.3-0.6-0.4c-0.2-0.1-0.5-0.1-0.7-0.1c-0.6,0-1,0.2-1.4,0.5
	c-0.3,0.3-0.6,0.8-0.6,1.4L363.9,667.2L363.9,667.2z M367.7,665.5c0.2-0.2,0.3-0.3,0.5-0.5c0.2-0.1,0.3-0.3,0.5-0.4
	c0.2-0.1,0.4-0.2,0.6-0.2c0.2-0.1,0.4-0.1,0.7-0.1c0.4,0,0.7,0.1,1,0.2c0.3,0.1,0.5,0.3,0.7,0.5s0.3,0.5,0.4,0.8s0.2,0.7,0.2,1.1
	v4.4h-1.2V667c0-0.5-0.1-0.9-0.4-1.2c-0.2-0.3-0.6-0.4-1.1-0.4c-0.4,0-0.7,0.1-1,0.3s-0.6,0.4-0.9,0.7v5.1h-1.2v-6.9h0.7
	c0.2,0,0.3,0.1,0.3,0.3L367.7,665.5z M376.2,671.5c-0.5,0-1-0.2-1.3-0.5s-0.4-0.7-0.4-1.3v-4.2h-0.8c-0.1,0-0.1,0-0.2-0.1
	c-0.1,0-0.1-0.1-0.1-0.2v-0.5l1.1-0.1l0.3-2.1c0-0.1,0-0.1,0.1-0.2c0,0,0.1-0.1,0.2-0.1h0.6v2.4h2v0.9h-2v4.2c0,0.3,0.1,0.5,0.2,0.7
	c0.1,0.1,0.3,0.2,0.5,0.2c0.1,0,0.2,0,0.3-0.1c0.1,0,0.2-0.1,0.2-0.1c0.1,0,0.1-0.1,0.2-0.1l0.1-0.1c0.1,0,0.1,0,0.2,0.1l0.4,0.6
	c-0.2,0.2-0.5,0.4-0.8,0.5C376.8,671.4,376.5,671.5,376.2,671.5z M391.7,664.5l-2.2,6.9h-1c-0.1,0-0.2-0.1-0.2-0.2l-1.5-4.7
	c0-0.1-0.1-0.2-0.1-0.3s0-0.2-0.1-0.3c0,0.1,0,0.2-0.1,0.3c0,0.1-0.1,0.2-0.1,0.3l-1.6,4.7c0,0.2-0.1,0.2-0.3,0.2h-0.9l-2.2-6.9h1
	c0.1,0,0.2,0,0.2,0.1c0.1,0.1,0.1,0.1,0.1,0.2l1.3,4.5c0.1,0.3,0.1,0.6,0.2,0.9c0-0.2,0.1-0.3,0.1-0.5s0.1-0.3,0.1-0.5l1.5-4.5
	c0-0.1,0.1-0.1,0.1-0.2c0.1,0,0.1-0.1,0.2-0.1h0.5c0.1,0,0.2,0,0.2,0.1c0.1,0,0.1,0.1,0.1,0.2l1.4,4.5c0.1,0.2,0.1,0.3,0.1,0.5
	s0.1,0.3,0.1,0.5c0-0.2,0.1-0.3,0.1-0.5s0.1-0.3,0.1-0.5l1.4-4.5c0-0.1,0.1-0.1,0.1-0.2c0.1,0,0.1-0.1,0.2-0.1L391.7,664.5
	L391.7,664.5z M394.1,665.4c0.3-0.3,0.6-0.6,1-0.8s0.8-0.3,1.2-0.3c0.4,0,0.7,0.1,1,0.2c0.3,0.1,0.5,0.3,0.7,0.5s0.3,0.5,0.4,0.8
	s0.2,0.7,0.2,1.1v4.4h-1.2V667c0-0.5-0.1-0.9-0.4-1.2c-0.2-0.3-0.6-0.4-1.1-0.4c-0.4,0-0.7,0.1-1,0.3s-0.6,0.4-0.9,0.7v5.1h-1.2
	v-10.1h1.2L394.1,665.4L394.1,665.4z M403.5,664.3c0.5,0,1,0.1,1.4,0.3s0.8,0.4,1,0.7c0.3,0.3,0.5,0.7,0.7,1.1
	c0.2,0.4,0.2,0.9,0.2,1.5c0,0.5-0.1,1-0.2,1.5c-0.2,0.4-0.4,0.8-0.7,1.1c-0.3,0.3-0.6,0.5-1,0.7s-0.9,0.2-1.4,0.2s-1-0.1-1.4-0.2
	c-0.4-0.2-0.8-0.4-1-0.7c-0.3-0.3-0.5-0.7-0.7-1.1c-0.2-0.4-0.2-0.9-0.2-1.5c0-0.5,0.1-1,0.2-1.5c0.2-0.4,0.4-0.8,0.7-1.1
	c0.3-0.3,0.6-0.5,1-0.7C402.5,664.4,403,664.3,403.5,664.3z M403.5,670.5c0.7,0,1.2-0.2,1.5-0.7s0.5-1.1,0.5-1.9
	c0-0.8-0.2-1.5-0.5-1.9c-0.3-0.5-0.8-0.7-1.5-0.7c-0.3,0-0.6,0.1-0.9,0.2c-0.3,0.1-0.5,0.3-0.6,0.5c-0.2,0.2-0.3,0.5-0.4,0.8
	s-0.1,0.7-0.1,1.1c0,0.8,0.2,1.5,0.5,1.9C402.3,670.3,402.8,670.5,403.5,670.5z M421.1,664.5l-2.2,6.9h-1c-0.1,0-0.2-0.1-0.2-0.2
	l-1.5-4.7c0-0.1-0.1-0.2-0.1-0.3s0-0.2-0.1-0.3c0,0.1,0,0.2-0.1,0.3c0,0.1-0.1,0.2-0.1,0.3l-1.6,4.7c0,0.2-0.1,0.2-0.3,0.2H413
	l-2.2-6.9h1c0.1,0,0.2,0,0.2,0.1c0.1,0.1,0.1,0.1,0.1,0.2l1.3,4.5c0.1,0.3,0.1,0.6,0.2,0.9c0-0.2,0.1-0.3,0.1-0.5s0.1-0.3,0.1-0.5
	l1.5-4.5c0-0.1,0.1-0.1,0.1-0.2c0.1,0,0.1-0.1,0.2-0.1h0.5c0.1,0,0.2,0,0.2,0.1c0.1,0,0.1,0.1,0.1,0.2l1.4,4.5
	c0.1,0.2,0.1,0.3,0.1,0.5s0.1,0.3,0.1,0.5c0-0.2,0.1-0.3,0.1-0.5s0.1-0.3,0.1-0.5l1.4-4.5c0-0.1,0.1-0.1,0.1-0.2
	c0.1,0,0.1-0.1,0.2-0.1L421.1,664.5L421.1,664.5z M422,665.4c0.4-0.4,0.8-0.6,1.2-0.8c0.4-0.2,0.9-0.3,1.5-0.3c0.4,0,0.7,0.1,1,0.2
	c0.3,0.1,0.6,0.3,0.8,0.5c0.2,0.2,0.4,0.5,0.5,0.8s0.2,0.7,0.2,1.1v4.4h-0.5c-0.1,0-0.2,0-0.3-0.1c-0.1,0-0.1-0.1-0.2-0.2l-0.1-0.7
	c-0.2,0.2-0.4,0.3-0.5,0.4c-0.2,0.1-0.4,0.2-0.5,0.3c-0.2,0.1-0.4,0.2-0.6,0.2s-0.5,0.1-0.7,0.1c-0.3,0-0.5,0-0.8-0.1
	c-0.2-0.1-0.4-0.2-0.6-0.3c-0.2-0.2-0.3-0.3-0.4-0.6c-0.1-0.2-0.2-0.5-0.2-0.8s0.1-0.5,0.2-0.8c0.2-0.3,0.4-0.5,0.7-0.7
	c0.3-0.2,0.8-0.4,1.3-0.5s1.2-0.2,2-0.2V667c0-0.5-0.1-0.9-0.3-1.2c-0.2-0.3-0.6-0.4-1-0.4c-0.3,0-0.6,0-0.8,0.1
	c-0.2,0.1-0.4,0.2-0.5,0.3s-0.3,0.2-0.4,0.3s-0.2,0.1-0.3,0.1c-0.1,0-0.2,0-0.2-0.1c-0.1,0-0.1-0.1-0.2-0.2L422,665.4z M426,668.3
	c-0.6,0-1,0.1-1.4,0.1c-0.4,0.1-0.7,0.2-1,0.3c-0.2,0.1-0.4,0.2-0.5,0.4s-0.2,0.3-0.2,0.5s0,0.3,0.1,0.5c0.1,0.1,0.1,0.2,0.2,0.3
	s0.2,0.1,0.4,0.2c0.1,0,0.3,0.1,0.4,0.1c0.2,0,0.4,0,0.6-0.1c0.2,0,0.3-0.1,0.5-0.2c0.2-0.1,0.3-0.2,0.5-0.3
	c0.1-0.1,0.3-0.2,0.4-0.4V668.3z M433.1,665.6c-0.1,0.1-0.1,0.2-0.3,0.2c-0.1,0-0.1,0-0.2-0.1s-0.2-0.1-0.3-0.2
	c-0.1-0.1-0.3-0.1-0.4-0.2c-0.2-0.1-0.4-0.1-0.6-0.1s-0.4,0-0.6,0.1s-0.3,0.1-0.4,0.2c-0.1,0.1-0.2,0.2-0.3,0.3
	c-0.1,0.1-0.1,0.3-0.1,0.4c0,0.2,0.1,0.3,0.2,0.4c0.1,0.1,0.2,0.2,0.4,0.3c0.2,0.1,0.4,0.2,0.6,0.2c0.2,0.1,0.4,0.1,0.7,0.2
	c0.2,0.1,0.4,0.2,0.7,0.2c0.2,0.1,0.4,0.2,0.6,0.3s0.3,0.3,0.4,0.5s0.2,0.4,0.2,0.7s-0.1,0.6-0.2,0.9c-0.1,0.3-0.3,0.5-0.5,0.7
	s-0.5,0.4-0.8,0.5s-0.7,0.2-1.1,0.2c-0.5,0-0.9-0.1-1.3-0.2c-0.4-0.2-0.7-0.4-1-0.6l0.3-0.5c0-0.1,0.1-0.1,0.1-0.1
	c0.1,0,0.1,0,0.2,0s0.2,0,0.3,0.1c0.1,0.1,0.2,0.1,0.3,0.2c0.1,0.1,0.3,0.1,0.5,0.2c0.2,0.1,0.4,0.1,0.7,0.1c0.2,0,0.4,0,0.6-0.1
	s0.3-0.1,0.4-0.2c0.1-0.1,0.2-0.2,0.3-0.4c0.1-0.1,0.1-0.3,0.1-0.4c0-0.2-0.1-0.4-0.2-0.5s-0.2-0.2-0.4-0.3
	c-0.2-0.1-0.4-0.2-0.6-0.2c-0.2-0.1-0.4-0.1-0.7-0.2c-0.2-0.1-0.4-0.2-0.7-0.2c-0.2-0.1-0.4-0.2-0.6-0.4c-0.2-0.1-0.3-0.3-0.4-0.5
	s-0.2-0.5-0.2-0.8s0.1-0.5,0.2-0.8c0.1-0.2,0.3-0.5,0.5-0.6c0.2-0.2,0.5-0.3,0.8-0.4c0.3-0.1,0.7-0.2,1-0.2c0.5,0,0.9,0.1,1.2,0.2
	c0.4,0.1,0.7,0.3,0.9,0.6L433.1,665.6z M443.3,665.7c0,0.1-0.1,0.1-0.1,0.1s-0.1,0-0.2,0s-0.1,0-0.2-0.1s-0.2-0.1-0.3-0.2
	c-0.1-0.1-0.3-0.1-0.4-0.2c-0.2-0.1-0.4-0.1-0.6-0.1c-0.3,0-0.6,0.1-0.9,0.2c-0.3,0.1-0.5,0.3-0.7,0.5s-0.3,0.5-0.4,0.8
	s-0.1,0.7-0.1,1.1c0,0.4,0,0.8,0.1,1.1s0.2,0.6,0.4,0.8c0.2,0.2,0.4,0.4,0.6,0.5s0.5,0.2,0.8,0.2s0.5,0,0.7-0.1s0.4-0.1,0.5-0.2
	c0.1-0.1,0.2-0.2,0.3-0.2c0.1-0.1,0.2-0.1,0.2-0.1c0.1,0,0.2,0,0.2,0.1l0.3,0.4c-0.2,0.2-0.3,0.3-0.5,0.5c-0.2,0.1-0.4,0.2-0.6,0.3
	s-0.5,0.2-0.7,0.2s-0.5,0.1-0.7,0.1c-0.4,0-0.8-0.1-1.2-0.2c-0.4-0.2-0.7-0.4-1-0.7s-0.5-0.7-0.6-1.1c-0.2-0.4-0.2-0.9-0.2-1.5
	c0-0.5,0.1-1,0.2-1.4s0.4-0.8,0.6-1.1c0.3-0.3,0.6-0.6,1-0.7c0.4-0.2,0.9-0.3,1.4-0.3s0.9,0.1,1.3,0.2c0.4,0.2,0.7,0.4,1,0.7
	L443.3,665.7z M447.8,664.3c0.5,0,1,0.1,1.4,0.3s0.8,0.4,1,0.7c0.3,0.3,0.5,0.7,0.7,1.1c0.2,0.4,0.2,0.9,0.2,1.5
	c0,0.5-0.1,1-0.2,1.5c-0.2,0.4-0.4,0.8-0.7,1.1c-0.3,0.3-0.6,0.5-1,0.7s-0.9,0.2-1.4,0.2s-1-0.1-1.4-0.2c-0.4-0.2-0.8-0.4-1-0.7
	c-0.3-0.3-0.5-0.7-0.7-1.1c-0.2-0.4-0.2-0.9-0.2-1.5c0-0.5,0.1-1,0.2-1.5c0.2-0.4,0.4-0.8,0.7-1.1c0.3-0.3,0.6-0.5,1-0.7
	C446.8,664.4,447.3,664.3,447.8,664.3z M447.8,670.5c0.7,0,1.2-0.2,1.5-0.7s0.5-1.1,0.5-1.9c0-0.8-0.2-1.5-0.5-1.9
	c-0.3-0.5-0.8-0.7-1.5-0.7c-0.3,0-0.6,0.1-0.9,0.2c-0.3,0.1-0.5,0.3-0.6,0.5c-0.2,0.2-0.3,0.5-0.4,0.8s-0.1,0.7-0.1,1.1
	c0,0.8,0.2,1.5,0.5,1.9C446.6,670.3,447.1,670.5,447.8,670.5z M452.6,671.4v-6.9h0.7c0.2,0,0.3,0.1,0.3,0.3l0.1,0.7
	c0.3-0.3,0.5-0.6,0.9-0.8c0.3-0.2,0.7-0.3,1.1-0.3c0.5,0,0.8,0.1,1.1,0.4c0.3,0.3,0.5,0.6,0.6,1.1c0.1-0.3,0.2-0.5,0.4-0.7
	c0.2-0.2,0.3-0.3,0.5-0.5c0.2-0.1,0.4-0.2,0.6-0.3s0.4-0.1,0.7-0.1c0.4,0,0.7,0.1,1,0.2c0.3,0.1,0.5,0.3,0.7,0.5s0.4,0.5,0.5,0.8
	s0.2,0.7,0.2,1.1v4.4h-1.2V667c0-0.5-0.1-1-0.4-1.2c-0.2-0.3-0.6-0.4-1-0.4c-0.2,0-0.4,0-0.6,0.1s-0.3,0.2-0.5,0.3
	c-0.1,0.1-0.2,0.3-0.3,0.5c-0.1,0.2-0.1,0.4-0.1,0.7v4.4h-1.2V667c0-0.6-0.1-1-0.3-1.2c-0.2-0.3-0.5-0.4-1-0.4
	c-0.3,0-0.6,0.1-0.8,0.2c-0.3,0.2-0.5,0.4-0.7,0.7v5.2L452.6,671.4L452.6,671.4z M465,665.5c0.3-0.4,0.6-0.7,1-0.9s0.8-0.3,1.3-0.3
	c0.4,0,0.8,0.1,1.1,0.2c0.3,0.2,0.6,0.4,0.8,0.7c0.2,0.3,0.4,0.7,0.5,1.1c0.1,0.4,0.2,1,0.2,1.5s-0.1,1-0.2,1.4s-0.3,0.8-0.6,1.1
	c-0.3,0.3-0.6,0.6-0.9,0.8c-0.4,0.2-0.8,0.3-1.3,0.3c-0.4,0-0.8-0.1-1.1-0.2c-0.3-0.1-0.6-0.3-0.8-0.6v3.1h-1.2v-9.3h0.7
	c0.2,0,0.3,0.1,0.3,0.3L465,665.5z M465.1,669.7c0.2,0.3,0.5,0.5,0.7,0.6c0.3,0.1,0.6,0.2,0.9,0.2c0.6,0,1.1-0.2,1.5-0.7
	c0.3-0.5,0.5-1.1,0.5-2c0-0.5,0-0.8-0.1-1.2c-0.1-0.3-0.2-0.6-0.3-0.8c-0.2-0.2-0.3-0.4-0.6-0.5c-0.2-0.1-0.5-0.1-0.7-0.1
	c-0.4,0-0.7,0.1-1,0.3s-0.6,0.4-0.8,0.8v3.4H465.1z M477.2,670.4c-0.2,0.2-0.3,0.3-0.5,0.5c-0.2,0.1-0.4,0.2-0.7,0.3
	c-0.2,0.1-0.5,0.2-0.7,0.2c-0.3,0-0.5,0.1-0.8,0.1c-0.5,0-0.9-0.1-1.3-0.2c-0.4-0.2-0.8-0.4-1-0.7c-0.3-0.3-0.5-0.7-0.7-1.2
	s-0.2-1-0.2-1.6c0-0.5,0.1-0.9,0.2-1.4c0.1-0.4,0.4-0.8,0.6-1.1c0.3-0.3,0.6-0.5,1-0.7s0.9-0.3,1.4-0.3c0.4,0,0.8,0.1,1.2,0.2
	c0.4,0.1,0.7,0.3,0.9,0.6c0.3,0.3,0.5,0.6,0.6,1s0.2,0.8,0.2,1.3c0,0.2,0,0.3-0.1,0.4c0,0.1-0.1,0.1-0.2,0.1h-4.6
	c0,0.4,0.1,0.8,0.2,1.1s0.3,0.6,0.4,0.8c0.2,0.2,0.4,0.4,0.7,0.5c0.3,0.1,0.6,0.2,0.9,0.2s0.6,0,0.8-0.1c0.2-0.1,0.4-0.1,0.6-0.2
	c0.2-0.1,0.3-0.2,0.4-0.2c0.1-0.1,0.2-0.1,0.3-0.1c0.1,0,0.2,0,0.2,0.1L477.2,670.4z M476.2,667.2c0-0.3,0-0.5-0.1-0.8
	c-0.1-0.2-0.2-0.4-0.3-0.6c-0.2-0.2-0.3-0.3-0.6-0.4c-0.2-0.1-0.5-0.1-0.7-0.1c-0.6,0-1,0.2-1.4,0.5c-0.3,0.3-0.6,0.8-0.6,1.4
	L476.2,667.2L476.2,667.2z M479.9,665.5c0.2-0.2,0.3-0.3,0.5-0.5c0.2-0.1,0.3-0.3,0.5-0.4c0.2-0.1,0.4-0.2,0.6-0.2
	c0.2-0.1,0.4-0.1,0.7-0.1c0.4,0,0.7,0.1,1,0.2c0.3,0.1,0.5,0.3,0.7,0.5s0.3,0.5,0.4,0.8s0.2,0.7,0.2,1.1v4.4h-1.2V667
	c0-0.5-0.1-0.9-0.4-1.2c-0.2-0.3-0.6-0.4-1.1-0.4c-0.4,0-0.7,0.1-1,0.3s-0.6,0.4-0.9,0.7v5.1h-1.2v-6.9h0.7c0.2,0,0.3,0.1,0.3,0.3
	L479.9,665.5z M490.5,665.6c-0.1,0.1-0.1,0.2-0.3,0.2c-0.1,0-0.1,0-0.2-0.1s-0.2-0.1-0.3-0.2c-0.1-0.1-0.3-0.1-0.4-0.2
	c-0.2-0.1-0.4-0.1-0.6-0.1s-0.4,0-0.6,0.1s-0.3,0.1-0.4,0.2c-0.1,0.1-0.2,0.2-0.3,0.3c-0.1,0.1-0.1,0.3-0.1,0.4
	c0,0.2,0.1,0.3,0.2,0.4c0.1,0.1,0.2,0.2,0.4,0.3c0.2,0.1,0.4,0.2,0.6,0.2c0.2,0.1,0.4,0.1,0.7,0.2c0.2,0.1,0.4,0.2,0.7,0.2
	c0.2,0.1,0.4,0.2,0.6,0.3s0.3,0.3,0.4,0.5s0.2,0.4,0.2,0.7s-0.1,0.6-0.2,0.9c-0.1,0.3-0.3,0.5-0.5,0.7s-0.5,0.4-0.8,0.5
	s-0.7,0.2-1.1,0.2c-0.5,0-0.9-0.1-1.3-0.2c-0.4-0.2-0.7-0.4-1-0.6l0.3-0.5c0-0.1,0.1-0.1,0.1-0.1c0.1,0,0.1,0,0.2,0s0.2,0,0.3,0.1
	c0.1,0.1,0.2,0.1,0.3,0.2c0.1,0.1,0.3,0.1,0.5,0.2c0.2,0.1,0.4,0.1,0.7,0.1c0.2,0,0.4,0,0.6-0.1s0.3-0.1,0.4-0.2
	c0.1-0.1,0.2-0.2,0.3-0.4c0.1-0.1,0.1-0.3,0.1-0.4c0-0.2-0.1-0.4-0.2-0.5s-0.2-0.2-0.4-0.3c-0.2-0.1-0.4-0.2-0.6-0.2
	c-0.2-0.1-0.4-0.1-0.7-0.2c-0.2-0.1-0.4-0.2-0.7-0.2c-0.2-0.1-0.4-0.2-0.6-0.4c-0.2-0.1-0.3-0.3-0.4-0.5s-0.2-0.5-0.2-0.8
	s0.1-0.5,0.2-0.8c0.1-0.2,0.3-0.5,0.5-0.6c0.2-0.2,0.5-0.3,0.8-0.4c0.3-0.1,0.7-0.2,1-0.2c0.5,0,0.9,0.1,1.2,0.2
	c0.4,0.1,0.7,0.3,0.9,0.6L490.5,665.6z M492.2,665.4c0.4-0.4,0.8-0.6,1.2-0.8c0.4-0.2,0.9-0.3,1.5-0.3c0.4,0,0.7,0.1,1,0.2
	c0.3,0.1,0.6,0.3,0.8,0.5c0.2,0.2,0.4,0.5,0.5,0.8s0.2,0.7,0.2,1.1v4.4h-0.5c-0.1,0-0.2,0-0.3-0.1c-0.1,0-0.1-0.1-0.2-0.2l-0.1-0.7
	c-0.2,0.2-0.4,0.3-0.5,0.4c-0.2,0.1-0.4,0.2-0.5,0.3c-0.2,0.1-0.4,0.2-0.6,0.2s-0.5,0.1-0.7,0.1c-0.3,0-0.5,0-0.8-0.1
	c-0.2-0.1-0.4-0.2-0.6-0.3c-0.2-0.2-0.3-0.3-0.4-0.6c-0.1-0.2-0.2-0.5-0.2-0.8s0.1-0.5,0.2-0.8c0.2-0.3,0.4-0.5,0.7-0.7
	c0.3-0.2,0.8-0.4,1.3-0.5s1.2-0.2,2-0.2V667c0-0.5-0.1-0.9-0.3-1.2c-0.2-0.3-0.6-0.4-1-0.4c-0.3,0-0.6,0-0.8,0.1
	c-0.2,0.1-0.4,0.2-0.5,0.3s-0.3,0.2-0.4,0.3s-0.2,0.1-0.3,0.1c-0.1,0-0.2,0-0.2-0.1c-0.1,0-0.1-0.1-0.2-0.2L492.2,665.4z
	 M496.1,668.3c-0.6,0-1,0.1-1.4,0.1c-0.4,0.1-0.7,0.2-1,0.3c-0.2,0.1-0.4,0.2-0.5,0.4s-0.2,0.3-0.2,0.5s0,0.3,0.1,0.5
	c0.1,0.1,0.1,0.2,0.2,0.3s0.2,0.1,0.4,0.2c0.1,0,0.3,0.1,0.4,0.1c0.2,0,0.4,0,0.6-0.1c0.2,0,0.3-0.1,0.5-0.2s0.3-0.2,0.5-0.3
	c0.1-0.1,0.3-0.2,0.4-0.4V668.3z M501.2,671.5c-0.5,0-1-0.2-1.3-0.5s-0.4-0.7-0.4-1.3v-4.2h-0.8c-0.1,0-0.1,0-0.2-0.1
	c-0.1,0-0.1-0.1-0.1-0.2v-0.5l1.1-0.1l0.3-2.1c0-0.1,0-0.1,0.1-0.2c0,0,0.1-0.1,0.2-0.1h0.6v2.4h2v0.9h-2v4.2c0,0.3,0.1,0.5,0.2,0.7
	c0.1,0.1,0.3,0.2,0.5,0.2c0.1,0,0.2,0,0.3-0.1c0.1,0,0.2-0.1,0.2-0.1c0.1,0,0.1-0.1,0.2-0.1l0.1-0.1c0.1,0,0.1,0,0.2,0.1l0.4,0.6
	c-0.2,0.2-0.5,0.4-0.8,0.5C501.8,671.4,501.5,671.5,501.2,671.5z M509.6,670.4c-0.2,0.2-0.3,0.3-0.5,0.5c-0.2,0.1-0.4,0.2-0.7,0.3
	c-0.2,0.1-0.5,0.2-0.7,0.2c-0.3,0-0.5,0.1-0.8,0.1c-0.5,0-0.9-0.1-1.3-0.2s-0.8-0.4-1-0.7c-0.3-0.3-0.5-0.7-0.7-1.2s-0.2-1-0.2-1.6
	c0-0.5,0.1-0.9,0.2-1.4c0.1-0.4,0.4-0.8,0.6-1.1c0.3-0.3,0.6-0.5,1-0.7s0.9-0.3,1.4-0.3c0.4,0,0.8,0.1,1.2,0.2
	c0.4,0.1,0.7,0.3,0.9,0.6c0.3,0.3,0.5,0.6,0.6,1s0.2,0.8,0.2,1.3c0,0.2,0,0.3-0.1,0.4c0,0.1-0.1,0.1-0.2,0.1h-4.6
	c0,0.4,0.1,0.8,0.2,1.1s0.3,0.6,0.4,0.8c0.2,0.2,0.4,0.4,0.7,0.5c0.3,0.1,0.6,0.2,0.9,0.2s0.6,0,0.8-0.1c0.2-0.1,0.4-0.1,0.6-0.2
	c0.2-0.1,0.3-0.2,0.4-0.2c0.1-0.1,0.2-0.1,0.3-0.1c0.1,0,0.2,0,0.2,0.1L509.6,670.4z M508.6,667.2c0-0.3,0-0.5-0.1-0.8
	c-0.1-0.2-0.2-0.4-0.3-0.6c-0.2-0.2-0.3-0.3-0.6-0.4c-0.2-0.1-0.5-0.1-0.7-0.1c-0.6,0-1,0.2-1.4,0.5c-0.3,0.3-0.6,0.8-0.6,1.4
	L508.6,667.2L508.6,667.2z M516.9,661.3v10.1h-0.7c-0.2,0-0.3-0.1-0.3-0.3l-0.1-0.8c-0.3,0.4-0.6,0.6-1,0.9
	c-0.4,0.2-0.8,0.3-1.3,0.3c-0.4,0-0.8-0.1-1.1-0.2c-0.3-0.2-0.6-0.4-0.8-0.7c-0.2-0.3-0.4-0.7-0.5-1.1c-0.1-0.4-0.2-1-0.2-1.5
	s0.1-1,0.2-1.4s0.3-0.8,0.6-1.1s0.6-0.6,0.9-0.8c0.4-0.2,0.8-0.3,1.3-0.3c0.4,0,0.8,0.1,1.1,0.2c0.3,0.1,0.6,0.3,0.8,0.6v-3.8h1.1
	V661.3z M515.7,666.1c-0.2-0.3-0.5-0.5-0.7-0.6c-0.3-0.1-0.6-0.2-0.9-0.2c-0.6,0-1.1,0.2-1.5,0.7c-0.3,0.5-0.5,1.1-0.5,2
	c0,0.5,0,0.8,0.1,1.2c0.1,0.3,0.2,0.6,0.3,0.8c0.2,0.2,0.3,0.4,0.6,0.5s0.5,0.1,0.7,0.1c0.4,0,0.8-0.1,1.1-0.3s0.6-0.4,0.8-0.8
	L515.7,666.1L515.7,666.1z M522.8,671.4v-5.9l-0.8-0.1c-0.1,0-0.2-0.1-0.2-0.1c-0.1,0-0.1-0.1-0.1-0.2v-0.5h1.1v-0.7
	c0-0.4,0.1-0.7,0.2-1.1c0.1-0.3,0.3-0.6,0.5-0.8s0.5-0.4,0.7-0.5c0.3-0.1,0.6-0.2,1-0.2c0.3,0,0.6,0,0.9,0.1v0.6
	c0,0.1-0.1,0.2-0.2,0.2c-0.1,0-0.3,0-0.4,0c-0.2,0-0.4,0-0.6,0.1c-0.2,0.1-0.3,0.1-0.4,0.3c-0.1,0.1-0.2,0.3-0.3,0.5
	s-0.1,0.4-0.1,0.7v0.6h2v0.9h-2v5.9h-1.3L522.8,671.4L522.8,671.4z M529.8,664.3c0.5,0,1,0.1,1.4,0.3s0.8,0.4,1,0.7
	c0.3,0.3,0.5,0.7,0.7,1.1c0.2,0.4,0.2,0.9,0.2,1.5c0,0.5-0.1,1-0.2,1.5c-0.2,0.4-0.4,0.8-0.7,1.1s-0.6,0.5-1,0.7s-0.9,0.2-1.4,0.2
	s-1-0.1-1.4-0.2c-0.4-0.2-0.8-0.4-1-0.7c-0.3-0.3-0.5-0.7-0.7-1.1c-0.2-0.4-0.2-0.9-0.2-1.5c0-0.5,0.1-1,0.2-1.5
	c0.2-0.4,0.4-0.8,0.7-1.1s0.6-0.5,1-0.7C528.9,664.4,529.3,664.3,529.8,664.3z M529.8,670.5c0.7,0,1.2-0.2,1.5-0.7s0.5-1.1,0.5-1.9
	c0-0.8-0.2-1.5-0.5-1.9c-0.3-0.5-0.8-0.7-1.5-0.7c-0.3,0-0.6,0.1-0.9,0.2c-0.3,0.1-0.5,0.3-0.6,0.5c-0.2,0.2-0.3,0.5-0.4,0.8
	c-0.1,0.3-0.1,0.7-0.1,1.1c0,0.8,0.2,1.5,0.5,1.9C528.6,670.3,529.1,670.5,529.8,670.5z M535.8,665.8c0.2-0.5,0.5-0.8,0.8-1.1
	s0.7-0.4,1.2-0.4c0.1,0,0.3,0,0.4,0c0.1,0,0.3,0.1,0.4,0.2l-0.1,0.9c0,0.1-0.1,0.2-0.2,0.2c-0.1,0-0.2,0-0.3,0s-0.3,0-0.4,0
	c-0.2,0-0.4,0-0.6,0.1c-0.2,0.1-0.3,0.2-0.5,0.3c-0.1,0.1-0.3,0.3-0.4,0.5c-0.1,0.2-0.2,0.4-0.3,0.6v4.4h-1.2v-6.9h0.7
	c0.1,0,0.2,0,0.3,0.1s0.1,0.1,0.1,0.3L535.8,665.8z M544.1,665.4c0.3-0.3,0.6-0.6,1-0.8s0.8-0.3,1.2-0.3s0.7,0.1,1,0.2
	c0.3,0.1,0.5,0.3,0.7,0.5s0.3,0.5,0.4,0.8c0.1,0.3,0.2,0.7,0.2,1.1v4.4h-1.2V667c0-0.5-0.1-0.9-0.4-1.2c-0.2-0.3-0.6-0.4-1.1-0.4
	c-0.4,0-0.7,0.1-1,0.3s-0.6,0.4-0.9,0.7v5.1h-1.2v-10.1h1.2L544.1,665.4L544.1,665.4z M556.1,670.4c-0.2,0.2-0.3,0.3-0.5,0.5
	c-0.2,0.1-0.4,0.2-0.7,0.3c-0.2,0.1-0.5,0.2-0.7,0.2c-0.3,0-0.5,0.1-0.8,0.1c-0.5,0-0.9-0.1-1.3-0.2s-0.8-0.4-1-0.7
	c-0.3-0.3-0.5-0.7-0.7-1.2s-0.2-1-0.2-1.6c0-0.5,0.1-0.9,0.2-1.4c0.1-0.4,0.4-0.8,0.6-1.1c0.3-0.3,0.6-0.5,1-0.7s0.9-0.3,1.4-0.3
	c0.4,0,0.8,0.1,1.2,0.2c0.4,0.1,0.7,0.3,0.9,0.6c0.3,0.3,0.5,0.6,0.6,1s0.2,0.8,0.2,1.3c0,0.2,0,0.3-0.1,0.4c0,0.1-0.1,0.1-0.2,0.1
	h-4.6c0,0.4,0.1,0.8,0.2,1.1c0.1,0.3,0.3,0.6,0.4,0.8c0.2,0.2,0.4,0.4,0.7,0.5s0.6,0.2,0.9,0.2c0.3,0,0.6,0,0.8-0.1s0.4-0.1,0.6-0.2
	c0.2-0.1,0.3-0.2,0.4-0.2c0.1-0.1,0.2-0.1,0.3-0.1s0.2,0,0.2,0.1L556.1,670.4z M555.1,667.2c0-0.3,0-0.5-0.1-0.8
	c-0.1-0.2-0.2-0.4-0.3-0.6c-0.2-0.2-0.3-0.3-0.6-0.4c-0.2-0.1-0.5-0.1-0.7-0.1c-0.6,0-1,0.2-1.4,0.5c-0.3,0.3-0.6,0.8-0.6,1.4
	L555.1,667.2L555.1,667.2z M558.9,665.8c0.2-0.5,0.5-0.8,0.8-1.1s0.7-0.4,1.2-0.4c0.1,0,0.3,0,0.4,0c0.1,0,0.3,0.1,0.4,0.2l-0.1,0.9
	c0,0.1-0.1,0.2-0.2,0.2c-0.1,0-0.2,0-0.3,0s-0.3,0-0.4,0c-0.2,0-0.4,0-0.6,0.1c-0.2,0.1-0.3,0.2-0.5,0.3c-0.1,0.1-0.3,0.3-0.4,0.5
	c-0.1,0.2-0.2,0.4-0.3,0.6v4.4h-1.2v-6.9h0.7c0.1,0,0.2,0,0.3,0.1s0.1,0.1,0.1,0.3L558.9,665.8z M570,665.6
	c-0.1,0.1-0.1,0.2-0.3,0.2c-0.1,0-0.1,0-0.2-0.1c-0.1-0.1-0.2-0.1-0.3-0.2c-0.1-0.1-0.3-0.1-0.4-0.2c-0.2-0.1-0.4-0.1-0.6-0.1
	c-0.2,0-0.4,0-0.6,0.1c-0.2,0.1-0.3,0.1-0.4,0.2c-0.1,0.1-0.2,0.2-0.3,0.3s-0.1,0.3-0.1,0.4c0,0.2,0.1,0.3,0.2,0.4
	c0.1,0.1,0.2,0.2,0.4,0.3s0.4,0.2,0.6,0.2c0.2,0.1,0.4,0.1,0.7,0.2c0.2,0.1,0.4,0.2,0.7,0.2c0.2,0.1,0.4,0.2,0.6,0.3
	c0.2,0.1,0.3,0.3,0.4,0.5c0.1,0.2,0.2,0.4,0.2,0.7s-0.1,0.6-0.2,0.9c-0.1,0.3-0.3,0.5-0.5,0.7s-0.5,0.4-0.8,0.5s-0.7,0.2-1.1,0.2
	c-0.5,0-0.9-0.1-1.3-0.2c-0.4-0.2-0.7-0.4-1-0.6l0.3-0.5c0-0.1,0.1-0.1,0.1-0.1c0.1,0,0.1,0,0.2,0c0.1,0,0.2,0,0.3,0.1
	s0.2,0.1,0.3,0.2c0.1,0.1,0.3,0.1,0.5,0.2c0.2,0.1,0.4,0.1,0.7,0.1c0.2,0,0.4,0,0.6-0.1c0.2-0.1,0.3-0.1,0.4-0.2
	c0.1-0.1,0.2-0.2,0.3-0.4c0.1-0.1,0.1-0.3,0.1-0.4c0-0.2-0.1-0.4-0.2-0.5c-0.1-0.1-0.2-0.2-0.4-0.3s-0.4-0.2-0.6-0.2
	c-0.2-0.1-0.4-0.1-0.7-0.2c-0.2-0.1-0.4-0.2-0.7-0.2c-0.2-0.1-0.4-0.2-0.6-0.4c-0.2-0.1-0.3-0.3-0.4-0.5c-0.1-0.2-0.2-0.5-0.2-0.8
	s0.1-0.5,0.2-0.8c0.1-0.2,0.3-0.5,0.5-0.6c0.2-0.2,0.5-0.3,0.8-0.4c0.3-0.1,0.7-0.2,1-0.2c0.5,0,0.9,0.1,1.2,0.2
	c0.4,0.1,0.7,0.3,0.9,0.6L570,665.6z M577.5,670.4c-0.2,0.2-0.3,0.3-0.5,0.5c-0.2,0.1-0.4,0.2-0.7,0.3c-0.2,0.1-0.5,0.2-0.7,0.2
	c-0.3,0-0.5,0.1-0.8,0.1c-0.5,0-0.9-0.1-1.3-0.2c-0.4-0.2-0.8-0.4-1-0.7c-0.3-0.3-0.5-0.7-0.7-1.2s-0.2-1-0.2-1.6
	c0-0.5,0.1-0.9,0.2-1.4c0.1-0.4,0.4-0.8,0.6-1.1c0.3-0.3,0.6-0.5,1-0.7s0.9-0.3,1.4-0.3c0.4,0,0.8,0.1,1.2,0.2
	c0.4,0.1,0.7,0.3,0.9,0.6c0.3,0.3,0.5,0.6,0.6,1s0.2,0.8,0.2,1.3c0,0.2,0,0.3-0.1,0.4c0,0.1-0.1,0.1-0.2,0.1h-4.6
	c0,0.4,0.1,0.8,0.2,1.1c0.1,0.3,0.3,0.6,0.4,0.8c0.2,0.2,0.4,0.4,0.7,0.5s0.6,0.2,0.9,0.2c0.3,0,0.6,0,0.8-0.1s0.4-0.1,0.6-0.2
	c0.2-0.1,0.3-0.2,0.4-0.2c0.1-0.1,0.2-0.1,0.3-0.1s0.2,0,0.2,0.1L577.5,670.4z M576.5,667.2c0-0.3,0-0.5-0.1-0.8
	c-0.1-0.2-0.2-0.4-0.3-0.6c-0.2-0.2-0.3-0.3-0.6-0.4c-0.2-0.1-0.5-0.1-0.7-0.1c-0.6,0-1,0.2-1.4,0.5c-0.3,0.3-0.6,0.8-0.6,1.4
	L576.5,667.2L576.5,667.2z M580.2,665.8c0.2-0.5,0.5-0.8,0.8-1.1s0.7-0.4,1.2-0.4c0.1,0,0.3,0,0.4,0c0.1,0,0.3,0.1,0.4,0.2l-0.1,0.9
	c0,0.1-0.1,0.2-0.2,0.2c-0.1,0-0.2,0-0.3,0s-0.3,0-0.4,0c-0.2,0-0.4,0-0.6,0.1c-0.2,0.1-0.3,0.2-0.5,0.3c-0.1,0.1-0.3,0.3-0.4,0.5
	c-0.1,0.2-0.2,0.4-0.3,0.6v4.4H579v-6.9h0.7c0.1,0,0.2,0,0.3,0.1s0.1,0.1,0.1,0.3L580.2,665.8z M590,664.5l-2.8,6.9h-1.1l-2.8-6.9h1
	c0.1,0,0.2,0,0.2,0.1c0.1,0.1,0.1,0.1,0.1,0.2l1.8,4.5c0.1,0.2,0.1,0.3,0.1,0.5s0.1,0.3,0.1,0.5c0-0.2,0.1-0.3,0.1-0.5
	s0.1-0.3,0.2-0.5l1.8-4.5c0-0.1,0.1-0.1,0.1-0.2c0.1,0,0.1-0.1,0.2-0.1H590z M592.7,662.3c0,0.1,0,0.2-0.1,0.3s-0.1,0.2-0.2,0.3
	c-0.1,0.1-0.2,0.1-0.3,0.2c-0.1,0-0.2,0.1-0.3,0.1s-0.2,0-0.3-0.1c-0.1,0-0.2-0.1-0.3-0.2c-0.1-0.1-0.1-0.2-0.2-0.3
	c0-0.1-0.1-0.2-0.1-0.3s0-0.2,0.1-0.3c0-0.1,0.1-0.2,0.2-0.3c0.1-0.1,0.2-0.1,0.3-0.2c0.1,0,0.2-0.1,0.3-0.1s0.2,0,0.3,0.1
	c0.1,0,0.2,0.1,0.3,0.2c0.1,0.1,0.1,0.2,0.2,0.3C592.7,662,592.7,662.2,592.7,662.3z M592.4,664.5v6.9h-1.2v-6.9H592.4z
	 M599.3,665.7C599.3,665.8,599.2,665.8,599.3,665.7c-0.1,0.1-0.2,0.1-0.3,0.1s-0.1,0-0.2-0.1c-0.1-0.1-0.2-0.1-0.3-0.2
	c-0.1-0.1-0.3-0.1-0.4-0.2c-0.2-0.1-0.4-0.1-0.6-0.1c-0.3,0-0.6,0.1-0.9,0.2c-0.3,0.1-0.5,0.3-0.7,0.5s-0.3,0.5-0.4,0.8
	c-0.1,0.3-0.1,0.7-0.1,1.1c0,0.4,0,0.8,0.1,1.1s0.2,0.6,0.4,0.8s0.4,0.4,0.6,0.5c0.2,0.1,0.5,0.2,0.8,0.2s0.5,0,0.7-0.1
	s0.4-0.1,0.5-0.2c0.1-0.1,0.2-0.2,0.3-0.2c0.1-0.1,0.2-0.1,0.2-0.1c0.1,0,0.2,0,0.2,0.1l0.3,0.4c-0.2,0.2-0.3,0.3-0.5,0.5
	c-0.2,0.1-0.4,0.2-0.6,0.3c-0.2,0.1-0.5,0.2-0.7,0.2s-0.5,0.1-0.7,0.1c-0.4,0-0.8-0.1-1.2-0.2c-0.4-0.2-0.7-0.4-1-0.7
	s-0.5-0.7-0.6-1.1c-0.2-0.4-0.2-0.9-0.2-1.5c0-0.5,0.1-1,0.2-1.4c0.1-0.4,0.4-0.8,0.6-1.1c0.3-0.3,0.6-0.6,1-0.7
	c0.4-0.2,0.9-0.3,1.4-0.3s0.9,0.1,1.3,0.2c0.4,0.2,0.7,0.4,1,0.7L599.3,665.7z M606.5,670.4c-0.2,0.2-0.3,0.3-0.5,0.5
	c-0.2,0.1-0.4,0.2-0.7,0.3c-0.2,0.1-0.5,0.2-0.7,0.2c-0.3,0-0.5,0.1-0.8,0.1c-0.5,0-0.9-0.1-1.3-0.2s-0.8-0.4-1-0.7
	c-0.3-0.3-0.5-0.7-0.7-1.2s-0.2-1-0.2-1.6c0-0.5,0.1-0.9,0.2-1.4c0.1-0.4,0.4-0.8,0.6-1.1c0.3-0.3,0.6-0.5,1-0.7s0.9-0.3,1.4-0.3
	c0.4,0,0.8,0.1,1.2,0.2c0.4,0.1,0.7,0.3,0.9,0.6c0.3,0.3,0.5,0.6,0.6,1s0.2,0.8,0.2,1.3c0,0.2,0,0.3-0.1,0.4c0,0.1-0.1,0.1-0.2,0.1
	h-4.6c0,0.4,0.1,0.8,0.2,1.1c0.1,0.3,0.3,0.6,0.4,0.8c0.2,0.2,0.4,0.4,0.7,0.5s0.6,0.2,0.9,0.2c0.3,0,0.6,0,0.8-0.1s0.4-0.1,0.6-0.2
	c0.2-0.1,0.3-0.2,0.4-0.2c0.1-0.1,0.2-0.1,0.3-0.1s0.2,0,0.2,0.1L606.5,670.4z M605.5,667.2c0-0.3,0-0.5-0.1-0.8
	c-0.1-0.2-0.2-0.4-0.3-0.6c-0.2-0.2-0.3-0.3-0.6-0.4c-0.2-0.1-0.5-0.1-0.7-0.1c-0.6,0-1,0.2-1.4,0.5c-0.3,0.3-0.6,0.8-0.6,1.4
	L605.5,667.2L605.5,667.2z M612.1,665.6c-0.1,0.1-0.1,0.2-0.3,0.2c-0.1,0-0.1,0-0.2-0.1c-0.1-0.1-0.2-0.1-0.3-0.2
	c-0.1-0.1-0.3-0.1-0.4-0.2c-0.2-0.1-0.4-0.1-0.6-0.1c-0.2,0-0.4,0-0.6,0.1c-0.2,0.1-0.3,0.1-0.4,0.2c-0.1,0.1-0.2,0.2-0.3,0.3
	s-0.1,0.3-0.1,0.4c0,0.2,0.1,0.3,0.2,0.4c0.1,0.1,0.2,0.2,0.4,0.3s0.4,0.2,0.6,0.2c0.2,0.1,0.4,0.1,0.7,0.2c0.2,0.1,0.4,0.2,0.7,0.2
	c0.2,0.1,0.4,0.2,0.6,0.3c0.2,0.1,0.3,0.3,0.4,0.5c0.1,0.2,0.2,0.4,0.2,0.7s-0.1,0.6-0.2,0.9c-0.1,0.3-0.3,0.5-0.5,0.7
	s-0.5,0.4-0.8,0.5s-0.7,0.2-1.1,0.2c-0.5,0-0.9-0.1-1.3-0.2c-0.4-0.2-0.7-0.4-1-0.6l0.3-0.5c0-0.1,0.1-0.1,0.1-0.1
	c0.1,0,0.1,0,0.2,0c0.1,0,0.2,0,0.3,0.1s0.2,0.1,0.3,0.2c0.1,0.1,0.3,0.1,0.5,0.2c0.2,0.1,0.4,0.1,0.7,0.1c0.2,0,0.4,0,0.6-0.1
	c0.2-0.1,0.3-0.1,0.4-0.2c0.1-0.1,0.2-0.2,0.3-0.4c0.1-0.1,0.1-0.3,0.1-0.4c0-0.2-0.1-0.4-0.2-0.5c-0.1-0.1-0.2-0.2-0.4-0.3
	s-0.4-0.2-0.6-0.2c-0.2-0.1-0.4-0.1-0.7-0.2c-0.2-0.1-0.4-0.2-0.7-0.2c-0.2-0.1-0.4-0.2-0.6-0.4c-0.2-0.1-0.3-0.3-0.4-0.5
	c-0.1-0.2-0.2-0.5-0.2-0.8s0.1-0.5,0.2-0.8c0.1-0.2,0.3-0.5,0.5-0.6c0.2-0.2,0.5-0.3,0.8-0.4c0.3-0.1,0.7-0.2,1-0.2
	c0.5,0,0.9,0.1,1.2,0.2s0.7,0.3,0.9,0.6L612.1,665.6z M617.3,665.4c0.4-0.4,0.8-0.6,1.2-0.8s0.9-0.3,1.5-0.3c0.4,0,0.7,0.1,1,0.2
	c0.3,0.1,0.6,0.3,0.8,0.5s0.4,0.5,0.5,0.8s0.2,0.7,0.2,1.1v4.4H622c-0.1,0-0.2,0-0.3-0.1c-0.1,0-0.1-0.1-0.2-0.2l-0.1-0.7
	c-0.2,0.2-0.4,0.3-0.5,0.4c-0.2,0.1-0.4,0.2-0.5,0.3s-0.4,0.2-0.6,0.2c-0.2,0-0.5,0.1-0.7,0.1c-0.3,0-0.5,0-0.8-0.1
	c-0.2-0.1-0.4-0.2-0.6-0.3c-0.2-0.2-0.3-0.3-0.4-0.6c-0.1-0.2-0.2-0.5-0.2-0.8s0.1-0.5,0.2-0.8c0.2-0.3,0.4-0.5,0.7-0.7
	s0.8-0.4,1.3-0.5s1.2-0.2,2-0.2V667c0-0.5-0.1-0.9-0.3-1.2s-0.6-0.4-1-0.4c-0.3,0-0.6,0-0.8,0.1s-0.4,0.2-0.5,0.3s-0.3,0.2-0.4,0.3
	c-0.1,0.1-0.2,0.1-0.3,0.1s-0.2,0-0.2-0.1c-0.1,0-0.1-0.1-0.2-0.2L617.3,665.4z M621.3,668.3c-0.6,0-1,0.1-1.4,0.1
	c-0.4,0.1-0.7,0.2-1,0.3c-0.2,0.1-0.4,0.2-0.5,0.4s-0.2,0.3-0.2,0.5s0,0.3,0.1,0.5c0.1,0.1,0.1,0.2,0.2,0.3c0.1,0.1,0.2,0.1,0.4,0.2
	c0.1,0,0.3,0.1,0.4,0.1c0.2,0,0.4,0,0.6-0.1c0.2,0,0.3-0.1,0.5-0.2c0.2-0.1,0.3-0.2,0.5-0.3c0.1-0.1,0.3-0.2,0.4-0.4V668.3z
	 M625.5,665.5c0.2-0.2,0.3-0.3,0.5-0.5c0.2-0.1,0.3-0.3,0.5-0.4c0.2-0.1,0.4-0.2,0.6-0.2c0.2-0.1,0.4-0.1,0.7-0.1
	c0.4,0,0.7,0.1,1,0.2c0.3,0.1,0.5,0.3,0.7,0.5s0.3,0.5,0.4,0.8c0.1,0.3,0.2,0.7,0.2,1.1v4.4h-1.2V667c0-0.5-0.1-0.9-0.4-1.2
	c-0.2-0.3-0.6-0.4-1.1-0.4c-0.4,0-0.7,0.1-1,0.3s-0.6,0.4-0.9,0.7v5.1h-1.2v-6.9h0.7c0.2,0,0.3,0.1,0.3,0.3L625.5,665.5z
	 M637.7,661.3v10.1H637c-0.2,0-0.3-0.1-0.3-0.3l-0.1-0.8c-0.3,0.4-0.6,0.6-1,0.9c-0.4,0.2-0.8,0.3-1.3,0.3c-0.4,0-0.8-0.1-1.1-0.2
	c-0.3-0.2-0.6-0.4-0.8-0.7s-0.4-0.7-0.5-1.1c-0.1-0.4-0.2-1-0.2-1.5s0.1-1,0.2-1.4c0.1-0.4,0.3-0.8,0.6-1.1s0.6-0.6,0.9-0.8
	s0.8-0.3,1.3-0.3c0.4,0,0.8,0.1,1.1,0.2c0.3,0.1,0.6,0.3,0.8,0.6v-3.8h1.1V661.3z M636.5,666.1c-0.2-0.3-0.5-0.5-0.7-0.6
	c-0.3-0.1-0.6-0.2-0.9-0.2c-0.6,0-1.1,0.2-1.5,0.7c-0.3,0.5-0.5,1.1-0.5,2c0,0.5,0,0.8,0.1,1.2s0.2,0.6,0.3,0.8
	c0.2,0.2,0.3,0.4,0.6,0.5c0.2,0.1,0.5,0.1,0.7,0.1c0.4,0,0.8-0.1,1.1-0.3s0.6-0.4,0.8-0.8L636.5,666.1L636.5,666.1z M649.5,671.4
	h-1.2v-5.9h-3.6v4.2c0,0.3,0.1,0.5,0.2,0.7c0.1,0.1,0.3,0.2,0.5,0.2c0.1,0,0.2,0,0.3-0.1c0.1,0,0.2-0.1,0.2-0.1
	c0.1,0,0.1-0.1,0.2-0.1l0.1-0.1c0.1,0,0.1,0,0.2,0.1l0.4,0.6c-0.2,0.2-0.5,0.4-0.8,0.5s-0.6,0.2-0.9,0.2c-0.5,0-1-0.2-1.3-0.5
	s-0.4-0.7-0.4-1.3v-4.2h-0.8c-0.1,0-0.1,0-0.2-0.1c-0.1,0-0.1-0.1-0.1-0.2v-0.5l1.1-0.2l0.3-2.1c0-0.1,0-0.1,0.1-0.2
	c0,0,0.1-0.1,0.2-0.1h0.6v2.4h4.8v6.8L649.5,671.4L649.5,671.4z M649.8,662.2c0,0.1,0,0.2-0.1,0.3c0,0.1-0.1,0.2-0.2,0.3
	c-0.1,0.1-0.2,0.1-0.3,0.2c-0.1,0-0.2,0.1-0.3,0.1s-0.2,0-0.3-0.1c-0.1,0-0.2-0.1-0.3-0.2c-0.1-0.1-0.1-0.2-0.2-0.3
	c0-0.1-0.1-0.2-0.1-0.3s0-0.2,0.1-0.3c0-0.1,0.1-0.2,0.2-0.3c0.1-0.1,0.2-0.1,0.3-0.2c0.1,0,0.2-0.1,0.3-0.1s0.2,0,0.3,0.1
	c0.1,0,0.2,0.1,0.3,0.2c0.1,0.1,0.1,0.2,0.2,0.3C649.8,662,649.8,662.1,649.8,662.2z M651.5,671.4v-6.9h0.7c0.2,0,0.3,0.1,0.3,0.3
	l0.1,0.7c0.3-0.3,0.5-0.6,0.9-0.8c0.3-0.2,0.7-0.3,1.1-0.3c0.5,0,0.8,0.1,1.1,0.4c0.3,0.3,0.5,0.6,0.6,1.1c0.1-0.3,0.2-0.5,0.4-0.7
	s0.3-0.3,0.5-0.5c0.2-0.1,0.4-0.2,0.6-0.3s0.4-0.1,0.7-0.1c0.4,0,0.7,0.1,1,0.2c0.3,0.1,0.5,0.3,0.7,0.5s0.4,0.5,0.5,0.8
	s0.2,0.7,0.2,1.1v4.4h-1.2V667c0-0.5-0.1-1-0.4-1.2c-0.2-0.3-0.6-0.4-1-0.4c-0.2,0-0.4,0-0.6,0.1c-0.2,0.1-0.3,0.2-0.5,0.3
	s-0.2,0.3-0.3,0.5s-0.1,0.4-0.1,0.7v4.4h-1.2V667c0-0.6-0.1-1-0.3-1.2c-0.2-0.3-0.5-0.4-1-0.4c-0.3,0-0.6,0.1-0.8,0.2
	c-0.3,0.2-0.5,0.4-0.7,0.7v5.2L651.5,671.4L651.5,671.4z M668.4,670.4c-0.2,0.2-0.3,0.3-0.5,0.5c-0.2,0.1-0.4,0.2-0.7,0.3
	c-0.2,0.1-0.5,0.2-0.7,0.2c-0.3,0-0.5,0.1-0.8,0.1c-0.5,0-0.9-0.1-1.3-0.2s-0.8-0.4-1-0.7c-0.3-0.3-0.5-0.7-0.7-1.2s-0.2-1-0.2-1.6
	c0-0.5,0.1-0.9,0.2-1.4c0.1-0.4,0.4-0.8,0.6-1.1c0.3-0.3,0.6-0.5,1-0.7s0.9-0.3,1.4-0.3c0.4,0,0.8,0.1,1.2,0.2
	c0.4,0.1,0.7,0.3,0.9,0.6c0.3,0.3,0.5,0.6,0.6,1s0.2,0.8,0.2,1.3c0,0.2,0,0.3-0.1,0.4c0,0.1-0.1,0.1-0.2,0.1h-4.6
	c0,0.4,0.1,0.8,0.2,1.1c0.1,0.3,0.3,0.6,0.4,0.8c0.2,0.2,0.4,0.4,0.7,0.5s0.6,0.2,0.9,0.2c0.3,0,0.6,0,0.8-0.1s0.4-0.1,0.6-0.2
	c0.2-0.1,0.3-0.2,0.4-0.2c0.1-0.1,0.2-0.1,0.3-0.1s0.2,0,0.2,0.1L668.4,670.4z M667.4,667.2c0-0.3,0-0.5-0.1-0.8
	c-0.1-0.2-0.2-0.4-0.3-0.6c-0.2-0.2-0.3-0.3-0.6-0.4c-0.2-0.1-0.5-0.1-0.7-0.1c-0.6,0-1,0.2-1.4,0.5c-0.3,0.3-0.6,0.8-0.6,1.4
	L667.4,667.2L667.4,667.2z M669.8,670.6c0-0.1,0-0.2,0.1-0.3c0-0.1,0.1-0.2,0.2-0.3c0.1-0.1,0.2-0.1,0.3-0.2c0.1,0,0.2-0.1,0.3-0.1
	s0.2,0,0.3,0.1c0.1,0,0.2,0.1,0.3,0.2c0.1,0.1,0.1,0.2,0.2,0.3c0,0.1,0.1,0.2,0.1,0.3s0,0.2-0.1,0.3c0,0.1-0.1,0.2-0.2,0.3
	c-0.1,0.1-0.2,0.1-0.3,0.2c-0.1,0-0.2,0.1-0.3,0.1s-0.2,0-0.3-0.1c-0.1,0-0.2-0.1-0.3-0.2c-0.1-0.1-0.1-0.2-0.2-0.3
	C669.8,670.9,669.8,670.8,669.8,670.6z M678.4,671.4h-1.3v-9.8h1.3V671.4z M681.6,665.5c0.2-0.2,0.3-0.3,0.5-0.5
	c0.2-0.1,0.3-0.3,0.5-0.4c0.2-0.1,0.4-0.2,0.6-0.2c0.2-0.1,0.4-0.1,0.7-0.1c0.4,0,0.7,0.1,1,0.2c0.3,0.1,0.5,0.3,0.7,0.5
	s0.3,0.5,0.4,0.8c0.1,0.3,0.2,0.7,0.2,1.1v4.4H685V667c0-0.5-0.1-0.9-0.4-1.2c-0.2-0.3-0.6-0.4-1.1-0.4c-0.4,0-0.7,0.1-1,0.3
	s-0.6,0.4-0.9,0.7v5.1h-1.2v-6.9h0.7c0.2,0,0.3,0.1,0.3,0.3L681.6,665.5z M693.9,661.3v10.1h-0.7c-0.2,0-0.3-0.1-0.3-0.3l-0.1-0.8
	c-0.3,0.4-0.6,0.6-1,0.9c-0.4,0.2-0.8,0.3-1.3,0.3c-0.4,0-0.8-0.1-1.1-0.2c-0.3-0.2-0.6-0.4-0.8-0.7s-0.4-0.7-0.5-1.1
	c-0.1-0.4-0.2-1-0.2-1.5s0.1-1,0.2-1.4c0.1-0.4,0.3-0.8,0.6-1.1s0.6-0.6,0.9-0.8s0.8-0.3,1.3-0.3c0.4,0,0.8,0.1,1.1,0.2
	c0.3,0.1,0.6,0.3,0.8,0.6v-3.8h1.1V661.3z M692.7,666.1c-0.2-0.3-0.5-0.5-0.7-0.6c-0.3-0.1-0.6-0.2-0.9-0.2c-0.6,0-1.1,0.2-1.5,0.7
	c-0.3,0.5-0.5,1.1-0.5,2c0,0.5,0,0.8,0.1,1.2s0.2,0.6,0.3,0.8c0.2,0.2,0.3,0.4,0.6,0.5c0.2,0.1,0.5,0.1,0.7,0.1
	c0.4,0,0.8-0.1,1.1-0.3s0.6-0.4,0.8-0.8L692.7,666.1L692.7,666.1z M697.3,662.3c0,0.1,0,0.2-0.1,0.3s-0.1,0.2-0.2,0.3
	c-0.1,0.1-0.2,0.1-0.3,0.2c-0.1,0-0.2,0.1-0.3,0.1s-0.2,0-0.3-0.1c-0.1,0-0.2-0.1-0.3-0.2c-0.1-0.1-0.1-0.2-0.2-0.3
	c0-0.1-0.1-0.2-0.1-0.3s0-0.2,0.1-0.3c0-0.1,0.1-0.2,0.2-0.3c0.1-0.1,0.2-0.1,0.3-0.2c0.1,0,0.2-0.1,0.3-0.1s0.2,0,0.3,0.1
	c0.1,0,0.2,0.1,0.3,0.2c0.1,0.1,0.1,0.2,0.2,0.3C697.3,662,697.3,662.2,697.3,662.3z M697.1,664.5v6.9h-1.2v-6.9H697.1z M705,664.5
	l-2.8,6.9h-1.1l-2.8-6.9h1c0.1,0,0.2,0,0.2,0.1c0.1,0.1,0.1,0.1,0.1,0.2l1.8,4.5c0.1,0.2,0.1,0.3,0.1,0.5s0.1,0.3,0.1,0.5
	c0-0.2,0.1-0.3,0.1-0.5s0.1-0.3,0.2-0.5l1.8-4.5c0-0.1,0.1-0.1,0.1-0.2c0.1,0,0.1-0.1,0.2-0.1H705z M707.7,662.3
	c0,0.1,0,0.2-0.1,0.3c0,0.1-0.1,0.2-0.2,0.3c-0.1,0.1-0.2,0.1-0.3,0.2c-0.1,0-0.2,0.1-0.3,0.1s-0.2,0-0.3-0.1
	c-0.1,0-0.2-0.1-0.3-0.2c-0.1-0.1-0.1-0.2-0.2-0.3c0-0.1-0.1-0.2-0.1-0.3s0-0.2,0.1-0.3c0-0.1,0.1-0.2,0.2-0.3
	c0.1-0.1,0.2-0.1,0.3-0.2c0.1,0,0.2-0.1,0.3-0.1s0.2,0,0.3,0.1c0.1,0,0.2,0.1,0.3,0.2c0.1,0.1,0.1,0.2,0.2,0.3
	C707.7,662,707.7,662.2,707.7,662.3z M707.4,664.5v6.9h-1.2v-6.9H707.4z M715.2,661.3v10.1h-0.7c-0.2,0-0.3-0.1-0.3-0.3l-0.1-0.8
	c-0.3,0.4-0.6,0.6-1,0.9c-0.4,0.2-0.8,0.3-1.3,0.3c-0.4,0-0.8-0.1-1.1-0.2c-0.3-0.2-0.6-0.4-0.8-0.7s-0.4-0.7-0.5-1.1
	c-0.1-0.4-0.2-1-0.2-1.5s0.1-1,0.2-1.4c0.1-0.4,0.3-0.8,0.6-1.1s0.6-0.6,0.9-0.8s0.8-0.3,1.3-0.3c0.4,0,0.8,0.1,1.1,0.2
	c0.3,0.1,0.6,0.3,0.8,0.6v-3.8h1.1V661.3z M714,666.1c-0.2-0.3-0.5-0.5-0.7-0.6c-0.3-0.1-0.6-0.2-0.9-0.2c-0.6,0-1.1,0.2-1.5,0.7
	c-0.3,0.5-0.5,1.1-0.5,2c0,0.5,0,0.8,0.1,1.2s0.2,0.6,0.3,0.8c0.2,0.2,0.3,0.4,0.6,0.5c0.2,0.1,0.5,0.1,0.7,0.1
	c0.4,0,0.8-0.1,1.1-0.3s0.6-0.4,0.8-0.8L714,666.1L714,666.1z M722.8,664.5v6.9h-0.7c-0.2,0-0.3-0.1-0.3-0.3l-0.1-0.7
	c-0.3,0.3-0.6,0.6-1,0.8s-0.8,0.3-1.3,0.3c-0.4,0-0.7-0.1-1-0.2c-0.3-0.1-0.5-0.3-0.7-0.5s-0.3-0.5-0.4-0.8
	c-0.1-0.3-0.1-0.7-0.1-1.1v-4.4h1.2v4.4c0,0.5,0.1,0.9,0.4,1.2c0.2,0.3,0.6,0.4,1.1,0.4c0.4,0,0.7-0.1,1-0.3s0.6-0.4,0.9-0.7v-5.1
	L722.8,664.5L722.8,664.5z M724.5,665.4c0.4-0.4,0.8-0.6,1.2-0.8s0.9-0.3,1.5-0.3c0.4,0,0.7,0.1,1,0.2c0.3,0.1,0.6,0.3,0.8,0.5
	s0.4,0.5,0.5,0.8s0.2,0.7,0.2,1.1v4.4h-0.5c-0.1,0-0.2,0-0.3-0.1c-0.1,0-0.1-0.1-0.2-0.2l-0.1-0.7c-0.2,0.2-0.4,0.3-0.5,0.4
	c-0.2,0.1-0.4,0.2-0.5,0.3s-0.4,0.2-0.6,0.2c-0.2,0-0.5,0.1-0.7,0.1c-0.3,0-0.5,0-0.8-0.1c-0.2-0.1-0.4-0.2-0.6-0.3
	c-0.2-0.2-0.3-0.3-0.4-0.6c-0.1-0.2-0.2-0.5-0.2-0.8s0.1-0.5,0.2-0.8c0.2-0.3,0.4-0.5,0.7-0.7s0.8-0.4,1.3-0.5s1.2-0.2,2-0.2V667
	c0-0.5-0.1-0.9-0.3-1.2s-0.6-0.4-1-0.4c-0.3,0-0.6,0-0.8,0.1s-0.4,0.2-0.5,0.3s-0.3,0.2-0.4,0.3c-0.1,0.1-0.2,0.1-0.3,0.1
	s-0.2,0-0.2-0.1c-0.1,0-0.1-0.1-0.2-0.2L724.5,665.4z M728.5,668.3c-0.6,0-1,0.1-1.4,0.1c-0.4,0.1-0.7,0.2-1,0.3
	c-0.2,0.1-0.4,0.2-0.5,0.4s-0.2,0.3-0.2,0.5s0,0.3,0.1,0.5c0.1,0.1,0.1,0.2,0.2,0.3c0.1,0.1,0.2,0.1,0.4,0.2c0.1,0,0.3,0.1,0.4,0.1
	c0.2,0,0.4,0,0.6-0.1c0.2,0,0.3-0.1,0.5-0.2s0.3-0.2,0.5-0.3c0.1-0.1,0.3-0.2,0.4-0.4V668.3z M732.8,661.3v10.1h-1.2v-10.1H732.8z
	 M739.4,665.8c0.2-0.5,0.5-0.8,0.8-1.1s0.7-0.4,1.2-0.4c0.1,0,0.3,0,0.4,0c0.1,0,0.3,0.1,0.4,0.2l-0.1,0.9c0,0.1-0.1,0.2-0.2,0.2
	c-0.1,0-0.2,0-0.3,0s-0.3,0-0.4,0c-0.2,0-0.4,0-0.6,0.1c-0.2,0.1-0.3,0.2-0.5,0.3c-0.1,0.1-0.3,0.3-0.4,0.5
	c-0.1,0.2-0.2,0.4-0.3,0.6v4.4h-1.2v-6.9h0.7c0.1,0,0.2,0,0.3,0.1s0.1,0.1,0.1,0.3L739.4,665.8z M748.6,670.4
	c-0.2,0.2-0.3,0.3-0.5,0.5c-0.2,0.1-0.4,0.2-0.7,0.3c-0.2,0.1-0.5,0.2-0.7,0.2c-0.3,0-0.5,0.1-0.8,0.1c-0.5,0-0.9-0.1-1.3-0.2
	s-0.8-0.4-1-0.7c-0.3-0.3-0.5-0.7-0.7-1.2s-0.2-1-0.2-1.6c0-0.5,0.1-0.9,0.2-1.4c0.1-0.4,0.4-0.8,0.6-1.1c0.3-0.3,0.6-0.5,1-0.7
	s0.9-0.3,1.4-0.3c0.4,0,0.8,0.1,1.2,0.2c0.4,0.1,0.7,0.3,0.9,0.6c0.3,0.3,0.5,0.6,0.6,1s0.2,0.8,0.2,1.3c0,0.2,0,0.3-0.1,0.4
	c0,0.1-0.1,0.1-0.2,0.1h-4.6c0,0.4,0.1,0.8,0.2,1.1c0.1,0.3,0.3,0.6,0.4,0.8c0.2,0.2,0.4,0.4,0.7,0.5s0.6,0.2,0.9,0.2
	c0.3,0,0.6,0,0.8-0.1s0.4-0.1,0.6-0.2c0.2-0.1,0.3-0.2,0.4-0.2c0.1-0.1,0.2-0.1,0.3-0.1s0.2,0,0.2,0.1L748.6,670.4z M747.6,667.2
	c0-0.3,0-0.5-0.1-0.8c-0.1-0.2-0.2-0.4-0.3-0.6c-0.2-0.2-0.3-0.3-0.6-0.4c-0.2-0.1-0.5-0.1-0.7-0.1c-0.6,0-1,0.2-1.4,0.5
	c-0.3,0.3-0.6,0.8-0.6,1.4L747.6,667.2L747.6,667.2z M754.2,665.6c-0.1,0.1-0.1,0.2-0.3,0.2c-0.1,0-0.1,0-0.2-0.1
	c-0.1-0.1-0.2-0.1-0.3-0.2c-0.1-0.1-0.3-0.1-0.4-0.2c-0.2-0.1-0.4-0.1-0.6-0.1c-0.2,0-0.4,0-0.6,0.1c-0.2,0.1-0.3,0.1-0.4,0.2
	c-0.1,0.1-0.2,0.2-0.3,0.3s-0.1,0.3-0.1,0.4c0,0.2,0.1,0.3,0.2,0.4c0.1,0.1,0.2,0.2,0.4,0.3s0.4,0.2,0.6,0.2
	c0.2,0.1,0.4,0.1,0.7,0.2c0.2,0.1,0.4,0.2,0.7,0.2c0.2,0.1,0.4,0.2,0.6,0.3c0.2,0.1,0.3,0.3,0.4,0.5c0.1,0.2,0.2,0.4,0.2,0.7
	s-0.1,0.6-0.2,0.9c-0.1,0.3-0.3,0.5-0.5,0.7s-0.5,0.4-0.8,0.5s-0.7,0.2-1.1,0.2c-0.5,0-0.9-0.1-1.3-0.2c-0.4-0.2-0.7-0.4-1-0.6
	l0.3-0.5c0-0.1,0.1-0.1,0.1-0.1c0.1,0,0.1,0,0.2,0c0.1,0,0.2,0,0.3,0.1s0.2,0.1,0.3,0.2c0.1,0.1,0.3,0.1,0.5,0.2
	c0.2,0.1,0.4,0.1,0.7,0.1c0.2,0,0.4,0,0.6-0.1s0.3-0.1,0.4-0.2c0.1-0.1,0.2-0.2,0.3-0.4c0.1-0.1,0.1-0.3,0.1-0.4
	c0-0.2-0.1-0.4-0.2-0.5c-0.1-0.1-0.2-0.2-0.4-0.3s-0.4-0.2-0.6-0.2c-0.2-0.1-0.4-0.1-0.7-0.2c-0.2-0.1-0.4-0.2-0.7-0.2
	c-0.2-0.1-0.4-0.2-0.6-0.4c-0.2-0.1-0.3-0.3-0.4-0.5c-0.1-0.2-0.2-0.5-0.2-0.8s0.1-0.5,0.2-0.8c0.1-0.2,0.3-0.5,0.5-0.6
	c0.2-0.2,0.5-0.3,0.8-0.4c0.3-0.1,0.7-0.2,1-0.2c0.5,0,0.9,0.1,1.2,0.2s0.7,0.3,0.9,0.6L754.2,665.6z M761.8,664.5v6.9h-0.7
	c-0.2,0-0.3-0.1-0.3-0.3l-0.1-0.7c-0.3,0.3-0.6,0.6-1,0.8s-0.8,0.3-1.3,0.3c-0.4,0-0.7-0.1-1-0.2c-0.3-0.1-0.5-0.3-0.7-0.5
	s-0.3-0.5-0.4-0.8c-0.1-0.3-0.1-0.7-0.1-1.1v-4.4h1.2v4.4c0,0.5,0.1,0.9,0.4,1.2c0.2,0.3,0.6,0.4,1.1,0.4c0.4,0,0.7-0.1,1-0.3
	s0.6-0.4,0.9-0.7v-5.1L761.8,664.5L761.8,664.5z M765,661.3v10.1h-1.2v-10.1H765z M769.1,671.5c-0.5,0-1-0.2-1.3-0.5
	s-0.4-0.7-0.4-1.3v-4.2h-0.8c-0.1,0-0.1,0-0.2-0.1c-0.1,0-0.1-0.1-0.1-0.2v-0.5l1.1-0.1l0.3-2.1c0-0.1,0-0.1,0.1-0.2
	c0,0,0.1-0.1,0.2-0.1h0.6v2.4h2v0.9h-2v4.2c0,0.3,0.1,0.5,0.2,0.7c0.1,0.1,0.3,0.2,0.5,0.2c0.1,0,0.2,0,0.3-0.1
	c0.1,0,0.2-0.1,0.2-0.1c0.1,0,0.1-0.1,0.2-0.1l0.1-0.1c0.1,0,0.1,0,0.2,0.1l0.4,0.6c-0.2,0.2-0.5,0.4-0.8,0.5
	C769.7,671.4,769.4,671.5,769.1,671.5z M775.9,665.6c-0.1,0.1-0.1,0.2-0.3,0.2c-0.1,0-0.1,0-0.2-0.1c-0.1-0.1-0.2-0.1-0.3-0.2
	c-0.1-0.1-0.3-0.1-0.4-0.2c-0.2-0.1-0.4-0.1-0.6-0.1c-0.2,0-0.4,0-0.6,0.1c-0.2,0.1-0.3,0.1-0.4,0.2c-0.1,0.1-0.2,0.2-0.3,0.3
	s-0.1,0.3-0.1,0.4c0,0.2,0.1,0.3,0.2,0.4c0.1,0.1,0.2,0.2,0.4,0.3s0.4,0.2,0.6,0.2c0.2,0.1,0.4,0.1,0.7,0.2c0.2,0.1,0.4,0.2,0.7,0.2
	c0.2,0.1,0.4,0.2,0.6,0.3c0.2,0.1,0.3,0.3,0.4,0.5c0.1,0.2,0.2,0.4,0.2,0.7s-0.1,0.6-0.2,0.9c-0.1,0.3-0.3,0.5-0.5,0.7
	s-0.5,0.4-0.8,0.5s-0.7,0.2-1.1,0.2c-0.5,0-0.9-0.1-1.3-0.2c-0.4-0.2-0.7-0.4-1-0.6l0.3-0.5c0-0.1,0.1-0.1,0.1-0.1
	c0.1,0,0.1,0,0.2,0c0.1,0,0.2,0,0.3,0.1s0.2,0.1,0.3,0.2c0.1,0.1,0.3,0.1,0.5,0.2c0.2,0.1,0.4,0.1,0.7,0.1c0.2,0,0.4,0,0.6-0.1
	s0.3-0.1,0.4-0.2c0.1-0.1,0.2-0.2,0.3-0.4c0.1-0.1,0.1-0.3,0.1-0.4c0-0.2-0.1-0.4-0.2-0.5c-0.1-0.1-0.2-0.2-0.4-0.3
	s-0.4-0.2-0.6-0.2c-0.2-0.1-0.4-0.1-0.7-0.2c-0.2-0.1-0.4-0.2-0.7-0.2c-0.2-0.1-0.4-0.2-0.6-0.4c-0.2-0.1-0.3-0.3-0.4-0.5
	c-0.1-0.2-0.2-0.5-0.2-0.8s0.1-0.5,0.2-0.8c0.1-0.2,0.3-0.5,0.5-0.6c0.2-0.2,0.5-0.3,0.8-0.4c0.3-0.1,0.7-0.2,1-0.2
	c0.5,0,0.9,0.1,1.2,0.2s0.7,0.3,0.9,0.6L775.9,665.6z M781.3,671.4v-6.9h0.7c0.2,0,0.3,0.1,0.3,0.3l0.1,0.7c0.3-0.3,0.5-0.6,0.9-0.8
	c0.3-0.2,0.7-0.3,1.1-0.3c0.5,0,0.8,0.1,1.1,0.4c0.3,0.3,0.5,0.6,0.6,1.1c0.1-0.3,0.2-0.5,0.4-0.7s0.3-0.3,0.5-0.5
	c0.2-0.1,0.4-0.2,0.6-0.3c0.2-0.1,0.4-0.1,0.7-0.1c0.4,0,0.7,0.1,1,0.2c0.3,0.1,0.5,0.3,0.7,0.5s0.4,0.5,0.5,0.8s0.2,0.7,0.2,1.1
	v4.4h-1.2V667c0-0.5-0.1-1-0.4-1.2s-0.6-0.4-1-0.4c-0.2,0-0.4,0-0.6,0.1c-0.2,0.1-0.3,0.2-0.5,0.3s-0.2,0.3-0.3,0.5
	s-0.1,0.4-0.1,0.7v4.4h-1.2V667c0-0.6-0.1-1-0.3-1.2c-0.2-0.3-0.5-0.4-1-0.4c-0.3,0-0.6,0.1-0.8,0.2c-0.3,0.2-0.5,0.4-0.7,0.7v5.2
	L781.3,671.4L781.3,671.4z M792.4,665.4c0.4-0.4,0.8-0.6,1.2-0.8s0.9-0.3,1.5-0.3c0.4,0,0.7,0.1,1,0.2c0.3,0.1,0.6,0.3,0.8,0.5
	s0.4,0.5,0.5,0.8s0.2,0.7,0.2,1.1v4.4H797c-0.1,0-0.2,0-0.3-0.1c-0.1,0-0.1-0.1-0.2-0.2l-0.1-0.7c-0.2,0.2-0.4,0.3-0.5,0.4
	c-0.2,0.1-0.4,0.2-0.5,0.3s-0.4,0.2-0.6,0.2c-0.2,0-0.5,0.1-0.7,0.1c-0.3,0-0.5,0-0.8-0.1c-0.2-0.1-0.4-0.2-0.6-0.3
	c-0.2-0.2-0.3-0.3-0.4-0.6c-0.1-0.2-0.2-0.5-0.2-0.8s0.1-0.5,0.2-0.8c0.2-0.3,0.4-0.5,0.7-0.7s0.8-0.4,1.3-0.5s1.2-0.2,2-0.2V667
	c0-0.5-0.1-0.9-0.3-1.2s-0.6-0.4-1-0.4c-0.3,0-0.6,0-0.8,0.1s-0.4,0.2-0.5,0.3s-0.3,0.2-0.4,0.3c-0.1,0.1-0.2,0.1-0.3,0.1
	s-0.2,0-0.2-0.1c-0.1,0-0.1-0.1-0.2-0.2L792.4,665.4z M796.3,668.3c-0.6,0-1,0.1-1.4,0.1c-0.4,0.1-0.7,0.2-1,0.3
	c-0.2,0.1-0.4,0.2-0.5,0.4s-0.2,0.3-0.2,0.5s0,0.3,0.1,0.5c0.1,0.1,0.1,0.2,0.2,0.3c0.1,0.1,0.2,0.1,0.4,0.2c0.1,0,0.3,0.1,0.4,0.1
	c0.2,0,0.4,0,0.6-0.1c0.2,0,0.3-0.1,0.5-0.2s0.3-0.2,0.5-0.3c0.1-0.1,0.3-0.2,0.4-0.4V668.3z M805.2,664.5l-3.9,9
	c0,0.1-0.1,0.2-0.2,0.2c-0.1,0.1-0.2,0.1-0.3,0.1H800l1.3-2.8l-2.9-6.5h1.1c0.1,0,0.2,0,0.2,0.1c0.1,0.1,0.1,0.1,0.1,0.2l1.9,4.4
	c0.1,0.2,0.1,0.4,0.2,0.6c0.1-0.2,0.1-0.4,0.2-0.6l1.8-4.4c0-0.1,0.1-0.1,0.1-0.2c0.1,0,0.1-0.1,0.2-0.1H805.2z M815.2,661.3v10.1
	h-0.7c-0.2,0-0.3-0.1-0.3-0.3l-0.1-0.8c-0.3,0.4-0.6,0.6-1,0.9c-0.4,0.2-0.8,0.3-1.3,0.3c-0.4,0-0.8-0.1-1.1-0.2
	c-0.3-0.2-0.6-0.4-0.8-0.7s-0.4-0.7-0.5-1.1c-0.1-0.4-0.2-1-0.2-1.5s0.1-1,0.2-1.4c0.1-0.4,0.3-0.8,0.6-1.1s0.6-0.6,0.9-0.8
	c0.4-0.2,0.8-0.3,1.3-0.3c0.4,0,0.8,0.1,1.1,0.2c0.3,0.1,0.6,0.3,0.8,0.6v-3.8h1.1V661.3z M814,666.1c-0.2-0.3-0.5-0.5-0.7-0.6
	c-0.3-0.1-0.6-0.2-0.9-0.2c-0.6,0-1.1,0.2-1.5,0.7c-0.3,0.5-0.5,1.1-0.5,2c0,0.5,0,0.8,0.1,1.2c0.1,0.3,0.2,0.6,0.3,0.8
	c0.2,0.2,0.3,0.4,0.6,0.5s0.5,0.1,0.7,0.1c0.4,0,0.8-0.1,1.1-0.3s0.6-0.4,0.8-0.8L814,666.1L814,666.1z M818.6,662.3
	c0,0.1,0,0.2-0.1,0.3s-0.1,0.2-0.2,0.3c-0.1,0.1-0.2,0.1-0.3,0.2c-0.1,0-0.2,0.1-0.3,0.1s-0.2,0-0.3-0.1c-0.1,0-0.2-0.1-0.3-0.2
	c-0.1-0.1-0.1-0.2-0.2-0.3c0-0.1-0.1-0.2-0.1-0.3s0-0.2,0.1-0.3c0-0.1,0.1-0.2,0.2-0.3c0.1-0.1,0.2-0.1,0.3-0.2
	c0.1,0,0.2-0.1,0.3-0.1s0.2,0,0.3,0.1c0.1,0,0.2,0.1,0.3,0.2c0.1,0.1,0.1,0.2,0.2,0.3C818.6,662,818.6,662.2,818.6,662.3z
	 M818.4,664.5v6.9h-1.2v-6.9H818.4z M820.8,671.4v-5.9l-0.8-0.1c-0.1,0-0.2-0.1-0.2-0.1c-0.1,0-0.1-0.1-0.1-0.2v-0.5h1.1V664
	c0-0.4,0.1-0.7,0.2-1.1c0.1-0.3,0.3-0.6,0.5-0.8s0.5-0.4,0.7-0.5c0.3-0.1,0.6-0.2,1-0.2c0.3,0,0.6,0,0.9,0.1v0.6
	c0,0.1-0.1,0.2-0.2,0.2c-0.1,0-0.3,0-0.4,0c-0.2,0-0.4,0-0.6,0.1c-0.2,0.1-0.3,0.1-0.4,0.3c-0.1,0.1-0.2,0.3-0.3,0.5
	s-0.1,0.5-0.1,0.7v0.5h3.1v-0.7c0-0.4,0.1-0.7,0.2-1.1c0.1-0.3,0.3-0.6,0.5-0.8s0.5-0.4,0.7-0.5c0.3-0.1,0.6-0.2,1-0.2
	c0.3,0,0.6,0,0.9,0.1v0.6c0,0.1-0.1,0.2-0.2,0.2c-0.1,0-0.3,0-0.4,0c-0.2,0-0.4,0-0.6,0.1c-0.2,0.1-0.3,0.1-0.4,0.3
	s-0.2,0.3-0.3,0.5s-0.1,0.4-0.1,0.7v0.7h2v0.9h-2v5.9h-1.2v-5.9h-3.1v5.9h-1.4L820.8,671.4L820.8,671.4z M834.9,670.4
	c-0.2,0.2-0.3,0.3-0.5,0.5c-0.2,0.1-0.4,0.2-0.7,0.3c-0.2,0.1-0.5,0.2-0.7,0.2c-0.3,0-0.5,0.1-0.8,0.1c-0.5,0-0.9-0.1-1.3-0.2
	s-0.8-0.4-1-0.7c-0.3-0.3-0.5-0.7-0.7-1.2s-0.2-1-0.2-1.6c0-0.5,0.1-0.9,0.2-1.4c0.1-0.4,0.4-0.8,0.6-1.1c0.3-0.3,0.6-0.5,1-0.7
	s0.9-0.3,1.4-0.3c0.4,0,0.8,0.1,1.2,0.2c0.4,0.1,0.7,0.3,0.9,0.6c0.3,0.3,0.5,0.6,0.6,1s0.2,0.8,0.2,1.3c0,0.2,0,0.3-0.1,0.4
	c0,0.1-0.1,0.1-0.2,0.1h-4.6c0,0.4,0.1,0.8,0.2,1.1c0.1,0.3,0.3,0.6,0.4,0.8c0.2,0.2,0.4,0.4,0.7,0.5s0.6,0.2,0.9,0.2
	c0.3,0,0.6,0,0.8-0.1s0.4-0.1,0.6-0.2c0.2-0.1,0.3-0.2,0.4-0.2c0.1-0.1,0.2-0.1,0.3-0.1s0.2,0,0.2,0.1L834.9,670.4z M833.9,667.2
	c0-0.3,0-0.5-0.1-0.8c-0.1-0.2-0.2-0.4-0.3-0.6c-0.2-0.2-0.3-0.3-0.6-0.4c-0.2-0.1-0.5-0.1-0.7-0.1c-0.6,0-1,0.2-1.4,0.5
	c-0.3,0.3-0.6,0.8-0.6,1.4L833.9,667.2L833.9,667.2z M837.7,665.8c0.2-0.5,0.5-0.8,0.8-1.1s0.7-0.4,1.2-0.4c0.1,0,0.3,0,0.4,0
	c0.1,0,0.3,0.1,0.4,0.2l-0.1,0.9c0,0.1-0.1,0.2-0.2,0.2c-0.1,0-0.2,0-0.3,0s-0.3,0-0.4,0c-0.2,0-0.4,0-0.6,0.1
	c-0.2,0.1-0.3,0.2-0.5,0.3c-0.1,0.1-0.3,0.3-0.4,0.5c-0.1,0.2-0.2,0.4-0.3,0.6v4.4h-1.2v-6.9h0.7c0.1,0,0.2,0,0.3,0.1
	s0.1,0.1,0.1,0.3L837.7,665.8z M840.7,670.6c0-0.1,0-0.2,0.1-0.3c0-0.1,0.1-0.2,0.2-0.3c0.1-0.1,0.2-0.1,0.3-0.2
	c0.1,0,0.2-0.1,0.3-0.1s0.2,0,0.3,0.1c0.1,0,0.2,0.1,0.3,0.2c0.1,0.1,0.1,0.2,0.2,0.3c0,0.1,0.1,0.2,0.1,0.3s0,0.2-0.1,0.3
	c0,0.1-0.1,0.2-0.2,0.3c-0.1,0.1-0.2,0.1-0.3,0.2c-0.1,0-0.2,0.1-0.3,0.1s-0.2,0-0.3-0.1c-0.1,0-0.2-0.1-0.3-0.2
	c-0.1-0.1-0.1-0.2-0.2-0.3C840.8,670.9,840.7,670.8,840.7,670.6z"/>
</svg>
