<?xml version="1.0" encoding="utf-8"?>
<!-- Generator: Adobe Illustrator 24.1.0, SVG Export Plug-In . SVG Version: 6.00 Build 0)  -->
<svg version="1.1" id="Layer_1" xmlns="http://www.w3.org/2000/svg" xmlns:xlink="http://www.w3.org/1999/xlink" x="0px" y="0px"
	 viewBox="0 0 1365.3 744.39" style="enable-background:new 0 0 1365.3 744.39;" xml:space="preserve">
<style type="text/css">
	.st0{clip-path:url(#SVGID_2_);fill:#D1E1E8;}
	.st1{fill:#0F3E6A;}
</style>
<g>
	<defs>
		<path id="SVGID_1_" d="M0,0v717.31c0,0,183.11-20.76,379.07-20.76c274.67,0,489.9,47.83,709.96,46.31
			c220.05-1.52,276.27-15.82,276.27-15.82V0H0z"/>
	</defs>
	<use xlink:href="#SVGID_1_"  style="overflow:visible;fill:#D1E1E8;"/>
	<clipPath id="SVGID_2_">
		<use xlink:href="#SVGID_1_"  style="overflow:visible;"/>
	</clipPath>
	<rect x="0" y="0" class="st0" width="1365.3" height="744.39"/>
</g>
<path class="st1" d="M135.08,112.59h-3.54c-0.71,0-1.22-0.28-1.55-0.84l-6.61-9.27c-0.21-0.31-0.44-0.53-0.69-0.66
	c-0.25-0.13-0.62-0.2-1.12-0.2h-2.59v10.97h-3.97V85.85h7.71c1.73,0,3.21,0.18,4.46,0.53s2.28,0.86,3.09,1.51
	c0.81,0.65,1.42,1.44,1.81,2.36c0.39,0.92,0.59,1.95,0.59,3.09c0,0.93-0.14,1.81-0.43,2.63c-0.29,0.82-0.7,1.56-1.26,2.21
	c-0.55,0.65-1.23,1.21-2.02,1.69c-0.79,0.47-1.69,0.83-2.7,1.08c0.5,0.3,0.92,0.71,1.29,1.25L135.08,112.59z M122.6,98.73
	c1.02,0,1.91-0.12,2.69-0.37c0.78-0.25,1.42-0.6,1.95-1.05c0.52-0.45,0.91-0.99,1.17-1.62c0.26-0.63,0.39-1.32,0.39-2.08
	c0-1.54-0.51-2.7-1.52-3.48c-1.01-0.78-2.53-1.17-4.55-1.17h-3.74v9.78H122.6z M151.32,109.89c-0.45,0.52-0.96,0.97-1.55,1.35
	c-0.58,0.38-1.2,0.69-1.86,0.92c-0.66,0.24-1.34,0.41-2.04,0.52c-0.7,0.11-1.39,0.17-2.08,0.17c-1.3,0-2.51-0.22-3.62-0.66
	c-1.11-0.44-2.07-1.09-2.89-1.94c-0.81-0.85-1.45-1.91-1.9-3.17c-0.45-1.26-0.68-2.71-0.68-4.35c0-1.32,0.2-2.54,0.61-3.68
	c0.41-1.14,1-2.13,1.76-2.97c0.76-0.84,1.7-1.51,2.8-1.99c1.1-0.48,2.35-0.73,3.72-0.73c1.15,0,2.22,0.19,3.19,0.57
	c0.97,0.38,1.82,0.93,2.52,1.65c0.71,0.72,1.26,1.61,1.67,2.66c0.4,1.06,0.61,2.26,0.61,3.61c0,0.56-0.06,0.93-0.19,1.13
	c-0.12,0.19-0.35,0.29-0.69,0.29h-12.4c0.04,1.13,0.2,2.11,0.48,2.95c0.29,0.84,0.68,1.54,1.18,2.1c0.5,0.56,1.1,0.97,1.8,1.25
	c0.7,0.27,1.47,0.41,2.33,0.41c0.81,0,1.51-0.09,2.1-0.28c0.59-0.19,1.1-0.39,1.53-0.61c0.43-0.22,0.79-0.42,1.08-0.61
	c0.29-0.19,0.55-0.28,0.77-0.28c0.3,0,0.53,0.11,0.69,0.34L151.32,109.89z M148.32,101.02c0-0.72-0.1-1.38-0.31-1.99
	c-0.2-0.61-0.51-1.14-0.9-1.58c-0.4-0.45-0.88-0.79-1.45-1.04c-0.57-0.25-1.23-0.37-1.97-0.37c-1.53,0-2.73,0.44-3.6,1.32
	c-0.88,0.88-1.43,2.1-1.67,3.67H148.32z M154.26,96.31c1.06-1.01,2.2-1.76,3.44-2.25c1.24-0.5,2.59-0.74,4.07-0.74
	c1.08,0,2.04,0.18,2.87,0.53c0.83,0.35,1.53,0.85,2.1,1.48c0.57,0.63,1,1.39,1.29,2.27c0.29,0.88,0.44,1.86,0.44,2.92v12.07h-1.62
	c-0.36,0-0.63-0.06-0.82-0.18c-0.19-0.12-0.34-0.34-0.45-0.66l-0.39-1.66c-0.48,0.45-0.96,0.84-1.43,1.18
	c-0.47,0.34-0.97,0.63-1.48,0.88c-0.52,0.24-1.06,0.43-1.65,0.55c-0.58,0.12-1.23,0.19-1.94,0.19c-0.74,0-1.44-0.1-2.1-0.31
	c-0.65-0.2-1.22-0.52-1.7-0.94c-0.48-0.42-0.87-0.95-1.15-1.58c-0.28-0.63-0.42-1.37-0.42-2.22c0-0.74,0.2-1.46,0.61-2.15
	c0.4-0.69,1.06-1.31,1.97-1.85c0.91-0.55,2.1-0.99,3.58-1.34c1.47-0.35,3.28-0.55,5.43-0.6v-1.38c0-1.43-0.3-2.5-0.91-3.2
	c-0.61-0.71-1.5-1.06-2.68-1.06c-0.79,0-1.46,0.1-2,0.3c-0.54,0.2-1.01,0.42-1.4,0.66s-0.73,0.46-1.02,0.66
	c-0.29,0.2-0.59,0.3-0.9,0.3c-0.25,0-0.46-0.07-0.64-0.2c-0.18-0.14-0.33-0.3-0.44-0.48L154.26,96.31z M164.92,104.19
	c-1.48,0.05-2.73,0.16-3.76,0.34c-1.03,0.18-1.87,0.42-2.51,0.72c-0.65,0.3-1.11,0.65-1.4,1.05c-0.29,0.4-0.43,0.85-0.43,1.35
	c0,0.47,0.08,0.88,0.23,1.22c0.16,0.34,0.37,0.62,0.63,0.84c0.27,0.22,0.58,0.38,0.94,0.47c0.36,0.1,0.75,0.15,1.17,0.15
	c0.56,0,1.07-0.06,1.54-0.17c0.47-0.11,0.9-0.27,1.31-0.47c0.41-0.2,0.8-0.46,1.17-0.75c0.37-0.3,0.74-0.64,1.1-1.02V104.19z
	 M176.31,85.1v27.49h-3.65V85.1H176.31z M203.97,90.2c-0.12,0.21-0.25,0.37-0.39,0.47c-0.14,0.1-0.31,0.15-0.52,0.15
	c-0.22,0-0.48-0.1-0.76-0.31c-0.29-0.2-0.64-0.43-1.07-0.69c-0.43-0.25-0.94-0.48-1.54-0.69c-0.6-0.2-1.31-0.31-2.14-0.31
	c-0.78,0-1.47,0.1-2.06,0.31c-0.59,0.2-1.08,0.48-1.48,0.84c-0.4,0.35-0.7,0.77-0.9,1.25c-0.2,0.48-0.31,1-0.31,1.56
	c0,0.72,0.18,1.32,0.55,1.79c0.37,0.47,0.85,0.88,1.44,1.21c0.6,0.34,1.27,0.63,2.03,0.88c0.76,0.25,1.53,0.51,2.33,0.77
	c0.79,0.27,1.57,0.57,2.33,0.92c0.76,0.35,1.43,0.79,2.03,1.31c0.6,0.53,1.08,1.17,1.44,1.94c0.37,0.76,0.55,1.7,0.55,2.8
	c0,1.18-0.2,2.28-0.61,3.31c-0.4,1.03-0.99,1.93-1.76,2.7c-0.77,0.77-1.72,1.38-2.84,1.82c-1.12,0.44-2.4,0.66-3.83,0.66
	c-0.86,0-1.69-0.08-2.5-0.25c-0.81-0.17-1.57-0.4-2.29-0.71c-0.72-0.3-1.39-0.67-2.02-1.1c-0.63-0.43-1.19-0.91-1.69-1.44l1.14-1.9
	c0.11-0.15,0.24-0.27,0.4-0.37c0.16-0.1,0.33-0.15,0.53-0.15c0.26,0,0.56,0.14,0.9,0.41c0.34,0.27,0.76,0.57,1.27,0.9
	c0.5,0.33,1.1,0.63,1.81,0.9c0.7,0.27,1.56,0.41,2.56,0.41c0.82,0,1.55-0.11,2.2-0.33c0.65-0.22,1.19-0.53,1.63-0.93
	c0.44-0.4,0.78-0.89,1.01-1.46c0.24-0.57,0.35-1.2,0.35-1.9c0-0.78-0.18-1.42-0.54-1.92c-0.36-0.5-0.84-0.91-1.43-1.25
	c-0.6-0.34-1.27-0.62-2.03-0.86c-0.76-0.24-1.53-0.48-2.33-0.74c-0.79-0.25-1.57-0.55-2.33-0.88c-0.76-0.34-1.43-0.77-2.03-1.31
	c-0.6-0.54-1.07-1.22-1.43-2.03c-0.36-0.81-0.54-1.82-0.54-3.01c0-0.96,0.19-1.88,0.56-2.77c0.37-0.89,0.92-1.69,1.63-2.37
	c0.71-0.69,1.59-1.24,2.64-1.66c1.04-0.42,2.23-0.62,3.58-0.62c1.5,0,2.88,0.24,4.14,0.72c1.26,0.48,2.36,1.16,3.29,2.06
	L203.97,90.2z M216.87,93.37c1.39,0,2.65,0.23,3.77,0.68c1.12,0.45,2.08,1.11,2.87,1.96c0.79,0.85,1.39,1.87,1.82,3.07
	c0.42,1.2,0.63,2.54,0.63,4.03c0,1.49-0.21,2.84-0.63,4.04c-0.42,1.2-1.03,2.23-1.82,3.07c-0.79,0.84-1.74,1.49-2.87,1.95
	c-1.12,0.45-2.38,0.68-3.77,0.68c-1.4,0-2.67-0.23-3.79-0.68c-1.12-0.45-2.08-1.1-2.88-1.95c-0.79-0.84-1.41-1.87-1.83-3.07
	c-0.43-1.2-0.64-2.55-0.64-4.04c0-1.49,0.21-2.83,0.64-4.03c0.43-1.2,1.04-2.22,1.83-3.07c0.79-0.85,1.75-1.5,2.88-1.96
	C214.21,93.6,215.47,93.37,216.87,93.37z M216.87,110.02c1.79,0,3.12-0.6,4-1.81c0.88-1.2,1.32-2.9,1.32-5.08
	c0-2.19-0.44-3.88-1.32-5.09c-0.88-1.21-2.22-1.82-4-1.82c-1.81,0-3.16,0.61-4.05,1.82c-0.89,1.21-1.33,2.91-1.33,5.09
	c0,2.19,0.44,3.88,1.33,5.08C213.71,109.42,215.06,110.02,216.87,110.02z M232.98,85.1v27.49h-3.65V85.1H232.98z M245.48,93.37
	c1.39,0,2.65,0.23,3.77,0.68c1.12,0.45,2.08,1.11,2.87,1.96c0.79,0.85,1.39,1.87,1.82,3.07c0.42,1.2,0.63,2.54,0.63,4.03
	c0,1.49-0.21,2.84-0.63,4.04c-0.42,1.2-1.03,2.23-1.82,3.07c-0.79,0.84-1.74,1.49-2.87,1.95c-1.12,0.45-2.38,0.68-3.77,0.68
	c-1.4,0-2.67-0.23-3.79-0.68c-1.12-0.45-2.08-1.1-2.88-1.95c-0.79-0.84-1.41-1.87-1.83-3.07c-0.43-1.2-0.64-2.55-0.64-4.04
	c0-1.49,0.21-2.83,0.64-4.03c0.43-1.2,1.04-2.22,1.83-3.07c0.79-0.85,1.75-1.5,2.88-1.96C242.81,93.6,244.08,93.37,245.48,93.37z
	 M245.48,110.02c1.79,0,3.12-0.6,4-1.81c0.88-1.2,1.32-2.9,1.32-5.08c0-2.19-0.44-3.88-1.32-5.09c-0.88-1.21-2.22-1.82-4-1.82
	c-1.81,0-3.16,0.61-4.05,1.82c-0.89,1.21-1.33,2.91-1.33,5.09c0,2.19,0.44,3.88,1.33,5.08
	C242.32,109.42,243.67,110.02,245.48,110.02z M269.02,96.93c-0.1,0.16-0.2,0.28-0.32,0.34c-0.11,0.07-0.25,0.1-0.43,0.1
	c-0.2,0-0.42-0.07-0.66-0.2c-0.24-0.14-0.53-0.29-0.88-0.45c-0.34-0.16-0.74-0.31-1.2-0.45c-0.46-0.14-1.01-0.2-1.64-0.2
	c-0.52,0-1,0.07-1.42,0.2c-0.43,0.13-0.79,0.31-1.09,0.54c-0.3,0.23-0.53,0.5-0.69,0.82c-0.16,0.32-0.24,0.66-0.24,1.01
	c0,0.47,0.14,0.86,0.42,1.17c0.28,0.31,0.65,0.58,1.1,0.8c0.45,0.22,0.97,0.43,1.55,0.61c0.58,0.18,1.17,0.37,1.77,0.57
	c0.6,0.2,1.19,0.43,1.77,0.68c0.58,0.25,1.09,0.57,1.55,0.95c0.45,0.38,0.82,0.84,1.1,1.37c0.28,0.53,0.42,1.19,0.42,1.96
	c0,0.88-0.16,1.7-0.47,2.45c-0.32,0.75-0.78,1.4-1.4,1.95c-0.61,0.55-1.38,0.97-2.28,1.28c-0.91,0.31-1.94,0.47-3.11,0.47
	c-1.3,0-2.51-0.22-3.61-0.65c-1.11-0.43-2.03-0.99-2.77-1.66l0.86-1.4c0.1-0.17,0.22-0.31,0.37-0.4c0.15-0.09,0.35-0.14,0.6-0.14
	c0.24,0,0.48,0.09,0.73,0.26c0.25,0.17,0.55,0.36,0.89,0.57c0.35,0.2,0.77,0.39,1.27,0.56c0.5,0.17,1.12,0.25,1.86,0.25
	c0.62,0,1.16-0.08,1.62-0.23c0.46-0.16,0.84-0.37,1.15-0.63c0.3-0.27,0.53-0.57,0.68-0.92c0.15-0.35,0.22-0.71,0.22-1.1
	c0-0.5-0.14-0.91-0.42-1.24c-0.28-0.33-0.65-0.61-1.1-0.85c-0.45-0.24-0.97-0.44-1.56-0.61c-0.58-0.17-1.18-0.36-1.79-0.56
	c-0.61-0.2-1.2-0.43-1.79-0.69c-0.58-0.26-1.1-0.59-1.56-0.99c-0.45-0.4-0.82-0.88-1.1-1.45c-0.28-0.57-0.42-1.27-0.42-2.09
	c0-0.73,0.15-1.43,0.46-2.1c0.3-0.67,0.74-1.26,1.32-1.77c0.58-0.51,1.29-0.92,2.14-1.22c0.85-0.3,1.82-0.46,2.91-0.46
	c1.25,0,2.39,0.2,3.4,0.6c1.01,0.4,1.88,0.94,2.6,1.64L269.02,96.93z M288.82,109.89c-0.45,0.52-0.96,0.97-1.55,1.35
	c-0.58,0.38-1.2,0.69-1.86,0.92c-0.66,0.24-1.34,0.41-2.04,0.52c-0.7,0.11-1.39,0.17-2.08,0.17c-1.3,0-2.51-0.22-3.62-0.66
	c-1.11-0.44-2.07-1.09-2.89-1.94c-0.81-0.85-1.45-1.91-1.9-3.17c-0.45-1.26-0.68-2.71-0.68-4.35c0-1.32,0.2-2.54,0.61-3.68
	c0.41-1.14,1-2.13,1.76-2.97c0.76-0.84,1.7-1.51,2.8-1.99c1.1-0.48,2.35-0.73,3.72-0.73c1.15,0,2.22,0.19,3.19,0.57
	c0.97,0.38,1.82,0.93,2.52,1.65c0.71,0.72,1.26,1.61,1.67,2.66c0.4,1.06,0.61,2.26,0.61,3.61c0,0.56-0.06,0.93-0.19,1.13
	c-0.12,0.19-0.35,0.29-0.69,0.29h-12.4c0.04,1.13,0.2,2.11,0.48,2.95c0.29,0.84,0.68,1.54,1.18,2.1c0.5,0.56,1.1,0.97,1.8,1.25
	c0.7,0.27,1.47,0.41,2.33,0.41c0.81,0,1.51-0.09,2.1-0.28c0.59-0.19,1.1-0.39,1.53-0.61c0.43-0.22,0.79-0.42,1.08-0.61
	c0.29-0.19,0.55-0.28,0.77-0.28c0.3,0,0.53,0.11,0.69,0.34L288.82,109.89z M285.82,101.02c0-0.72-0.1-1.38-0.31-1.99
	c-0.2-0.61-0.51-1.14-0.9-1.58c-0.4-0.45-0.88-0.79-1.45-1.04c-0.57-0.25-1.23-0.37-1.97-0.37c-1.53,0-2.73,0.44-3.6,1.32
	c-0.88,0.88-1.43,2.1-1.67,3.67H285.82z M305.5,97.21c-0.11,0.14-0.22,0.25-0.33,0.33c-0.11,0.08-0.26,0.12-0.46,0.12
	c-0.2,0-0.41-0.08-0.62-0.23c-0.22-0.16-0.49-0.32-0.82-0.5c-0.33-0.18-0.73-0.35-1.19-0.5c-0.47-0.16-1.04-0.23-1.72-0.23
	c-0.89,0-1.68,0.16-2.37,0.48c-0.68,0.32-1.25,0.78-1.7,1.38c-0.45,0.6-0.8,1.32-1.03,2.18c-0.24,0.86-0.35,1.82-0.35,2.89
	c0,1.11,0.12,2.09,0.37,2.95c0.25,0.86,0.6,1.59,1.06,2.18c0.46,0.59,1.02,1.04,1.68,1.34c0.66,0.3,1.39,0.46,2.2,0.46
	c0.78,0,1.43-0.1,1.94-0.29c0.51-0.19,0.93-0.4,1.27-0.62c0.34-0.22,0.61-0.43,0.84-0.62c0.22-0.19,0.45-0.29,0.69-0.29
	c0.3,0,0.53,0.11,0.69,0.34l1.04,1.34c-0.43,0.53-0.92,0.99-1.46,1.36c-0.54,0.37-1.11,0.68-1.72,0.91
	c-0.61,0.24-1.24,0.41-1.91,0.52c-0.66,0.11-1.34,0.17-2.02,0.17c-1.18,0-2.28-0.22-3.31-0.65c-1.02-0.43-1.91-1.07-2.66-1.9
	c-0.75-0.83-1.34-1.85-1.78-3.06c-0.43-1.21-0.65-2.59-0.65-4.13c0-1.4,0.2-2.7,0.59-3.89c0.39-1.19,0.97-2.22,1.73-3.08
	c0.76-0.86,1.7-1.54,2.82-2.03c1.12-0.49,2.4-0.74,3.84-0.74c1.35,0,2.55,0.22,3.58,0.65c1.03,0.43,1.95,1.05,2.76,1.84L305.5,97.21
	z M326.79,85.85c1.71,0,3.2,0.2,4.47,0.6c1.27,0.4,2.32,0.96,3.15,1.69c0.83,0.73,1.45,1.6,1.85,2.64c0.4,1.03,0.61,2.17,0.61,3.43
	c0,1.25-0.22,2.41-0.65,3.45c-0.43,1.05-1.07,1.95-1.92,2.71c-0.84,0.76-1.9,1.34-3.16,1.76c-1.26,0.42-2.71,0.62-4.35,0.62h-4.13
	v9.85h-3.97V85.85H326.79z M326.79,99.61c1.01,0,1.89-0.13,2.65-0.39c0.76-0.26,1.4-0.63,1.92-1.11c0.52-0.48,0.9-1.05,1.16-1.71
	c0.26-0.66,0.39-1.4,0.39-2.21c0-1.63-0.51-2.91-1.52-3.84c-1.01-0.93-2.55-1.4-4.61-1.4h-4.13v10.65H326.79z M338.65,96.31
	c1.06-1.01,2.2-1.76,3.44-2.25c1.24-0.5,2.59-0.74,4.07-0.74c1.08,0,2.04,0.18,2.87,0.53c0.83,0.35,1.53,0.85,2.1,1.48
	c0.57,0.63,1,1.39,1.29,2.27c0.29,0.88,0.44,1.86,0.44,2.92v12.07h-1.62c-0.36,0-0.63-0.06-0.82-0.18
	c-0.19-0.12-0.34-0.34-0.45-0.66l-0.39-1.66c-0.48,0.45-0.96,0.84-1.43,1.18c-0.47,0.34-0.97,0.63-1.48,0.88
	c-0.52,0.24-1.06,0.43-1.65,0.55c-0.58,0.12-1.23,0.19-1.94,0.19c-0.74,0-1.44-0.1-2.1-0.31c-0.65-0.2-1.22-0.52-1.7-0.94
	c-0.48-0.42-0.87-0.95-1.15-1.58c-0.28-0.63-0.42-1.37-0.42-2.22c0-0.74,0.2-1.46,0.61-2.15c0.4-0.69,1.06-1.31,1.97-1.85
	c0.91-0.55,2.1-0.99,3.58-1.34c1.47-0.35,3.28-0.55,5.43-0.6v-1.38c0-1.43-0.3-2.5-0.91-3.2c-0.61-0.71-1.5-1.06-2.68-1.06
	c-0.79,0-1.46,0.1-2,0.3c-0.54,0.2-1.01,0.42-1.4,0.66s-0.73,0.46-1.02,0.66c-0.29,0.2-0.59,0.3-0.9,0.3c-0.25,0-0.46-0.07-0.64-0.2
	c-0.18-0.14-0.33-0.3-0.44-0.48L338.65,96.31z M349.3,104.19c-1.48,0.05-2.73,0.16-3.76,0.34c-1.03,0.18-1.87,0.42-2.51,0.72
	c-0.65,0.3-1.11,0.65-1.4,1.05c-0.29,0.4-0.43,0.85-0.43,1.35c0,0.47,0.08,0.88,0.23,1.22c0.16,0.34,0.37,0.62,0.63,0.84
	c0.27,0.22,0.58,0.38,0.94,0.47c0.36,0.1,0.75,0.15,1.17,0.15c0.56,0,1.07-0.06,1.54-0.17c0.47-0.11,0.9-0.27,1.31-0.47
	c0.41-0.2,0.8-0.46,1.17-0.75c0.37-0.3,0.74-0.64,1.1-1.02V104.19z M374.69,112.59h-3.65V96.61h-9.5v11.08
	c0,0.74,0.18,1.3,0.55,1.67c0.37,0.37,0.83,0.55,1.41,0.55c0.34,0,0.62-0.04,0.87-0.13c0.24-0.09,0.45-0.18,0.62-0.29
	c0.17-0.11,0.32-0.2,0.45-0.29c0.12-0.09,0.24-0.13,0.34-0.13c0.12,0,0.22,0.03,0.29,0.08c0.07,0.06,0.14,0.15,0.21,0.27l1.08,1.75
	c-0.6,0.55-1.3,0.97-2.12,1.27c-0.82,0.3-1.67,0.45-2.55,0.45c-1.53,0-2.7-0.43-3.53-1.29c-0.83-0.86-1.24-2.08-1.24-3.67V96.61
	h-2.2c-0.21,0-0.39-0.07-0.53-0.2c-0.14-0.13-0.21-0.33-0.21-0.59v-1.47l3.09-0.43l0.8-5.64c0.05-0.21,0.15-0.38,0.29-0.49
	c0.14-0.12,0.33-0.18,0.55-0.18h1.84v6.35h13.15V112.59z M375.51,87.71c0,0.34-0.07,0.65-0.2,0.96c-0.14,0.3-0.32,0.57-0.55,0.8
	c-0.23,0.23-0.5,0.41-0.81,0.54c-0.31,0.13-0.63,0.2-0.97,0.2s-0.65-0.07-0.95-0.2c-0.3-0.13-0.56-0.31-0.79-0.54
	c-0.23-0.23-0.41-0.5-0.54-0.8c-0.13-0.3-0.2-0.62-0.2-0.96c0-0.35,0.07-0.68,0.2-0.99c0.13-0.31,0.31-0.58,0.54-0.81
	c0.23-0.23,0.49-0.41,0.79-0.54c0.3-0.13,0.61-0.2,0.95-0.2s0.66,0.07,0.97,0.2c0.31,0.13,0.58,0.31,0.81,0.54
	c0.23,0.23,0.41,0.5,0.55,0.81C375.44,87.03,375.51,87.36,375.51,87.71z M394.74,109.89c-0.45,0.52-0.96,0.97-1.55,1.35
	c-0.58,0.38-1.2,0.69-1.86,0.92c-0.66,0.24-1.34,0.41-2.04,0.52c-0.7,0.11-1.39,0.17-2.08,0.17c-1.3,0-2.51-0.22-3.62-0.66
	c-1.11-0.44-2.07-1.09-2.89-1.94c-0.81-0.85-1.45-1.91-1.9-3.17c-0.45-1.26-0.68-2.71-0.68-4.35c0-1.32,0.2-2.54,0.61-3.68
	c0.41-1.14,1-2.13,1.76-2.97c0.76-0.84,1.7-1.51,2.8-1.99c1.1-0.48,2.35-0.73,3.72-0.73c1.15,0,2.22,0.19,3.19,0.57
	c0.97,0.38,1.82,0.93,2.52,1.65c0.71,0.72,1.26,1.61,1.67,2.66c0.4,1.06,0.61,2.26,0.61,3.61c0,0.56-0.06,0.93-0.19,1.13
	c-0.12,0.19-0.35,0.29-0.69,0.29h-12.4c0.04,1.13,0.2,2.11,0.48,2.95c0.29,0.84,0.68,1.54,1.18,2.1c0.5,0.56,1.1,0.97,1.8,1.25
	c0.7,0.27,1.47,0.41,2.33,0.41c0.81,0,1.51-0.09,2.1-0.28c0.59-0.19,1.1-0.39,1.53-0.61c0.43-0.22,0.79-0.42,1.08-0.61
	c0.29-0.19,0.55-0.28,0.77-0.28c0.3,0,0.53,0.11,0.69,0.34L394.74,109.89z M391.75,101.02c0-0.72-0.1-1.38-0.31-1.99
	c-0.2-0.61-0.51-1.14-0.9-1.58c-0.4-0.45-0.88-0.79-1.45-1.04c-0.57-0.25-1.23-0.37-1.97-0.37c-1.53,0-2.73,0.44-3.6,1.32
	c-0.88,0.88-1.43,2.1-1.67,3.67H391.75z M401.58,96.29c0.41-0.43,0.84-0.83,1.29-1.19c0.45-0.36,0.92-0.67,1.42-0.92
	c0.5-0.25,1.04-0.45,1.62-0.6c0.58-0.14,1.19-0.21,1.85-0.21c1.04,0,1.96,0.17,2.75,0.52c0.79,0.35,1.45,0.84,1.98,1.46
	c0.53,0.63,0.94,1.38,1.21,2.26c0.27,0.88,0.41,1.86,0.41,2.92v12.05h-3.65v-12.05c0-1.35-0.31-2.41-0.93-3.16
	c-0.62-0.75-1.57-1.13-2.85-1.13c-0.93,0-1.8,0.22-2.62,0.66c-0.81,0.44-1.57,1.04-2.26,1.8v13.87h-3.63V93.67h2.18
	c0.51,0,0.83,0.24,0.95,0.73L401.58,96.29z M423.93,112.89c-1.53,0-2.7-0.43-3.53-1.29c-0.83-0.86-1.24-2.08-1.24-3.67V96.61h-2.2
	c-0.21,0-0.39-0.07-0.53-0.2c-0.14-0.13-0.21-0.33-0.21-0.59v-1.47l3.07-0.43l0.82-5.64c0.05-0.21,0.15-0.38,0.29-0.49
	c0.14-0.12,0.33-0.18,0.55-0.18h1.84v6.35h5.36v2.64h-5.36v11.08c0,0.74,0.18,1.3,0.55,1.67c0.37,0.37,0.83,0.55,1.41,0.55
	c0.34,0,0.62-0.04,0.87-0.13c0.24-0.09,0.45-0.18,0.62-0.29c0.17-0.11,0.32-0.2,0.45-0.29c0.12-0.09,0.24-0.13,0.34-0.13
	c0.12,0,0.22,0.03,0.29,0.08c0.07,0.06,0.14,0.15,0.21,0.27l1.08,1.75c-0.6,0.55-1.3,0.97-2.12,1.27
	C425.66,112.74,424.81,112.89,423.93,112.89z M430.15,110.41c0-0.34,0.06-0.65,0.19-0.95c0.12-0.3,0.29-0.56,0.51-0.78
	c0.22-0.22,0.47-0.4,0.77-0.53c0.3-0.13,0.62-0.2,0.97-0.2c0.34,0,0.65,0.07,0.95,0.2c0.3,0.13,0.56,0.31,0.78,0.53
	c0.22,0.22,0.4,0.48,0.53,0.78c0.13,0.3,0.2,0.61,0.2,0.95c0,0.35-0.07,0.67-0.2,0.97c-0.13,0.3-0.31,0.56-0.53,0.78
	c-0.22,0.22-0.48,0.4-0.78,0.52c-0.3,0.12-0.61,0.19-0.95,0.19c-0.35,0-0.67-0.06-0.97-0.19c-0.3-0.12-0.56-0.3-0.77-0.52
	c-0.22-0.22-0.39-0.48-0.51-0.78C430.21,111.08,430.15,110.76,430.15,110.41z M468.23,112.59h-3.54c-0.71,0-1.22-0.28-1.55-0.84
	l-6.61-9.27c-0.21-0.31-0.44-0.53-0.69-0.66c-0.25-0.13-0.62-0.2-1.12-0.2h-2.59v10.97h-3.97V85.85h7.71c1.73,0,3.21,0.18,4.46,0.53
	c1.25,0.35,2.28,0.86,3.09,1.51c0.81,0.65,1.42,1.44,1.81,2.36c0.39,0.92,0.59,1.95,0.59,3.09c0,0.93-0.14,1.81-0.43,2.63
	c-0.29,0.82-0.7,1.56-1.26,2.21c-0.55,0.65-1.23,1.21-2.02,1.69c-0.79,0.47-1.69,0.83-2.7,1.08c0.5,0.3,0.92,0.71,1.29,1.25
	L468.23,112.59z M455.75,98.73c1.02,0,1.91-0.12,2.69-0.37c0.78-0.25,1.42-0.6,1.95-1.05c0.52-0.45,0.91-0.99,1.17-1.62
	c0.26-0.63,0.39-1.32,0.39-2.08c0-1.54-0.51-2.7-1.52-3.48c-1.01-0.78-2.53-1.17-4.55-1.17h-3.74v9.78H455.75z M484.47,109.89
	c-0.45,0.52-0.96,0.97-1.55,1.35c-0.58,0.38-1.2,0.69-1.86,0.92c-0.66,0.24-1.34,0.41-2.04,0.52c-0.7,0.11-1.39,0.17-2.08,0.17
	c-1.3,0-2.51-0.22-3.62-0.66c-1.11-0.44-2.07-1.09-2.89-1.94c-0.81-0.85-1.45-1.91-1.9-3.17c-0.45-1.26-0.68-2.71-0.68-4.35
	c0-1.32,0.2-2.54,0.61-3.68s1-2.13,1.76-2.97c0.76-0.84,1.7-1.51,2.8-1.99c1.1-0.48,2.35-0.73,3.72-0.73c1.15,0,2.22,0.19,3.19,0.57
	c0.97,0.38,1.82,0.93,2.52,1.65c0.71,0.72,1.26,1.61,1.67,2.66c0.4,1.06,0.61,2.26,0.61,3.61c0,0.56-0.06,0.93-0.19,1.13
	c-0.12,0.19-0.35,0.29-0.69,0.29h-12.4c0.04,1.13,0.2,2.11,0.48,2.95c0.29,0.84,0.68,1.54,1.18,2.1c0.5,0.56,1.1,0.97,1.8,1.25
	c0.7,0.27,1.47,0.41,2.33,0.41c0.81,0,1.51-0.09,2.1-0.28c0.59-0.19,1.1-0.39,1.53-0.61c0.43-0.22,0.79-0.42,1.08-0.61
	c0.29-0.19,0.55-0.28,0.77-0.28c0.3,0,0.53,0.11,0.69,0.34L484.47,109.89z M481.47,101.02c0-0.72-0.1-1.38-0.31-1.99
	c-0.2-0.61-0.51-1.14-0.9-1.58c-0.4-0.45-0.88-0.79-1.45-1.04c-0.57-0.25-1.23-0.37-1.97-0.37c-1.53,0-2.73,0.44-3.6,1.32
	c-0.88,0.88-1.43,2.1-1.67,3.67H481.47z M487.41,96.31c1.06-1.01,2.2-1.76,3.44-2.25c1.24-0.5,2.59-0.74,4.07-0.74
	c1.08,0,2.04,0.18,2.87,0.53c0.83,0.35,1.53,0.85,2.1,1.48c0.57,0.63,1,1.39,1.29,2.27c0.29,0.88,0.44,1.86,0.44,2.92v12.07H500
	c-0.36,0-0.63-0.06-0.82-0.18c-0.19-0.12-0.34-0.34-0.45-0.66l-0.39-1.66c-0.48,0.45-0.96,0.84-1.43,1.18
	c-0.47,0.34-0.97,0.63-1.48,0.88c-0.52,0.24-1.06,0.43-1.65,0.55c-0.58,0.12-1.23,0.19-1.94,0.19c-0.74,0-1.44-0.1-2.1-0.31
	c-0.65-0.2-1.22-0.52-1.7-0.94c-0.48-0.42-0.87-0.95-1.15-1.58c-0.28-0.63-0.42-1.37-0.42-2.22c0-0.74,0.2-1.46,0.61-2.15
	c0.4-0.69,1.06-1.31,1.97-1.85c0.91-0.55,2.1-0.99,3.58-1.34c1.47-0.35,3.28-0.55,5.43-0.6v-1.38c0-1.43-0.3-2.5-0.91-3.2
	c-0.61-0.71-1.5-1.06-2.68-1.06c-0.79,0-1.46,0.1-2,0.3c-0.54,0.2-1.01,0.42-1.4,0.66s-0.73,0.46-1.02,0.66
	c-0.29,0.2-0.59,0.3-0.9,0.3c-0.25,0-0.46-0.07-0.64-0.2c-0.18-0.14-0.33-0.3-0.44-0.48L487.41,96.31z M498.06,104.19
	c-1.48,0.05-2.73,0.16-3.76,0.34c-1.03,0.18-1.87,0.42-2.51,0.72c-0.65,0.3-1.11,0.65-1.4,1.05c-0.29,0.4-0.43,0.85-0.43,1.35
	c0,0.47,0.08,0.88,0.23,1.22c0.16,0.34,0.37,0.62,0.63,0.84c0.27,0.22,0.58,0.38,0.94,0.47c0.36,0.1,0.75,0.15,1.17,0.15
	c0.56,0,1.07-0.06,1.54-0.17c0.47-0.11,0.9-0.27,1.31-0.47c0.41-0.2,0.8-0.46,1.17-0.75c0.37-0.3,0.74-0.64,1.1-1.02V104.19z
	 M509.46,85.1v27.49h-3.65V85.1H509.46z M537.12,90.2c-0.12,0.21-0.25,0.37-0.39,0.47c-0.14,0.1-0.31,0.15-0.52,0.15
	c-0.22,0-0.48-0.1-0.76-0.31c-0.29-0.2-0.64-0.43-1.07-0.69c-0.43-0.25-0.94-0.48-1.54-0.69c-0.6-0.2-1.31-0.31-2.14-0.31
	c-0.78,0-1.47,0.1-2.06,0.31c-0.59,0.2-1.08,0.48-1.48,0.84c-0.4,0.35-0.7,0.77-0.9,1.25c-0.2,0.48-0.31,1-0.31,1.56
	c0,0.72,0.18,1.32,0.55,1.79c0.37,0.47,0.85,0.88,1.44,1.21s1.27,0.63,2.03,0.88c0.76,0.25,1.53,0.51,2.33,0.77
	c0.79,0.27,1.57,0.57,2.33,0.92c0.76,0.35,1.43,0.79,2.03,1.31c0.6,0.53,1.08,1.17,1.44,1.94c0.37,0.76,0.55,1.7,0.55,2.8
	c0,1.18-0.2,2.28-0.61,3.31c-0.4,1.03-0.99,1.93-1.76,2.7c-0.77,0.77-1.72,1.38-2.84,1.82c-1.12,0.44-2.4,0.66-3.83,0.66
	c-0.86,0-1.69-0.08-2.5-0.25c-0.81-0.17-1.57-0.4-2.29-0.71c-0.72-0.3-1.39-0.67-2.02-1.1c-0.63-0.43-1.19-0.91-1.69-1.44l1.14-1.9
	c0.11-0.15,0.25-0.27,0.4-0.37c0.16-0.1,0.33-0.15,0.53-0.15c0.26,0,0.56,0.14,0.9,0.41c0.34,0.27,0.76,0.57,1.27,0.9
	c0.5,0.33,1.1,0.63,1.81,0.9c0.7,0.27,1.56,0.41,2.56,0.41c0.82,0,1.55-0.11,2.2-0.33c0.65-0.22,1.19-0.53,1.63-0.93
	c0.44-0.4,0.78-0.89,1.01-1.46c0.24-0.57,0.35-1.2,0.35-1.9c0-0.78-0.18-1.42-0.54-1.92c-0.36-0.5-0.84-0.91-1.43-1.25
	s-1.27-0.62-2.03-0.86c-0.76-0.24-1.53-0.48-2.33-0.74c-0.79-0.25-1.57-0.55-2.33-0.88c-0.76-0.34-1.43-0.77-2.03-1.31
	c-0.6-0.54-1.07-1.22-1.43-2.03c-0.36-0.81-0.54-1.82-0.54-3.01c0-0.96,0.19-1.88,0.56-2.77c0.37-0.89,0.92-1.69,1.63-2.37
	c0.71-0.69,1.59-1.24,2.64-1.66c1.04-0.42,2.23-0.62,3.58-0.62c1.5,0,2.88,0.24,4.14,0.72c1.26,0.48,2.36,1.16,3.29,2.06
	L537.12,90.2z M550.02,93.37c1.39,0,2.65,0.23,3.77,0.68c1.12,0.45,2.08,1.11,2.87,1.96c0.79,0.85,1.39,1.87,1.82,3.07
	c0.42,1.2,0.63,2.54,0.63,4.03c0,1.49-0.21,2.84-0.63,4.04c-0.42,1.2-1.03,2.23-1.82,3.07c-0.79,0.84-1.74,1.49-2.87,1.95
	c-1.12,0.45-2.38,0.68-3.77,0.68c-1.4,0-2.67-0.23-3.79-0.68c-1.12-0.45-2.08-1.1-2.88-1.95c-0.79-0.84-1.41-1.87-1.83-3.07
	c-0.43-1.2-0.64-2.55-0.64-4.04c0-1.49,0.21-2.83,0.64-4.03c0.43-1.2,1.04-2.22,1.83-3.07c0.79-0.85,1.75-1.5,2.88-1.96
	C547.36,93.6,548.62,93.37,550.02,93.37z M550.02,110.02c1.79,0,3.12-0.6,4-1.81c0.88-1.2,1.32-2.9,1.32-5.08
	c0-2.19-0.44-3.88-1.32-5.09c-0.88-1.21-2.22-1.82-4-1.82c-1.81,0-3.16,0.61-4.05,1.82c-0.89,1.21-1.33,2.91-1.33,5.09
	c0,2.19,0.44,3.88,1.33,5.08C546.86,109.42,548.21,110.02,550.02,110.02z M566.13,85.1v27.49h-3.65V85.1H566.13z M578.63,93.37
	c1.39,0,2.65,0.23,3.77,0.68c1.12,0.45,2.08,1.11,2.87,1.96c0.79,0.85,1.39,1.87,1.82,3.07c0.42,1.2,0.63,2.54,0.63,4.03
	c0,1.49-0.21,2.84-0.63,4.04c-0.42,1.2-1.03,2.23-1.82,3.07c-0.79,0.84-1.74,1.49-2.87,1.95c-1.12,0.45-2.38,0.68-3.77,0.68
	c-1.4,0-2.67-0.23-3.79-0.68c-1.12-0.45-2.08-1.1-2.88-1.95c-0.79-0.84-1.41-1.87-1.83-3.07c-0.43-1.2-0.64-2.55-0.64-4.04
	c0-1.49,0.21-2.83,0.64-4.03c0.43-1.2,1.04-2.22,1.83-3.07c0.79-0.85,1.75-1.5,2.88-1.96C575.96,93.6,577.22,93.37,578.63,93.37z
	 M578.63,110.02c1.79,0,3.12-0.6,4-1.81c0.88-1.2,1.32-2.9,1.32-5.08c0-2.19-0.44-3.88-1.32-5.09c-0.88-1.21-2.22-1.82-4-1.82
	c-1.81,0-3.16,0.61-4.05,1.82c-0.89,1.21-1.33,2.91-1.33,5.09c0,2.19,0.44,3.88,1.33,5.08
	C575.46,109.42,576.81,110.02,578.63,110.02z M602.17,96.93c-0.1,0.16-0.2,0.28-0.32,0.34c-0.11,0.07-0.25,0.1-0.43,0.1
	c-0.2,0-0.42-0.07-0.66-0.2c-0.24-0.14-0.53-0.29-0.88-0.45c-0.34-0.16-0.74-0.31-1.2-0.45c-0.46-0.14-1.01-0.2-1.64-0.2
	c-0.52,0-1,0.07-1.42,0.2c-0.43,0.13-0.79,0.31-1.09,0.54c-0.3,0.23-0.53,0.5-0.69,0.82c-0.16,0.32-0.24,0.66-0.24,1.01
	c0,0.47,0.14,0.86,0.42,1.17c0.28,0.31,0.65,0.58,1.1,0.8c0.45,0.22,0.97,0.43,1.55,0.61c0.58,0.18,1.17,0.37,1.77,0.57
	c0.6,0.2,1.19,0.43,1.77,0.68c0.58,0.25,1.09,0.57,1.55,0.95c0.45,0.38,0.82,0.84,1.1,1.37c0.28,0.53,0.42,1.19,0.42,1.96
	c0,0.88-0.16,1.7-0.47,2.45c-0.32,0.75-0.78,1.4-1.4,1.95c-0.61,0.55-1.38,0.97-2.28,1.28c-0.91,0.31-1.94,0.47-3.11,0.47
	c-1.3,0-2.51-0.22-3.61-0.65c-1.11-0.43-2.03-0.99-2.77-1.66l0.86-1.4c0.1-0.17,0.22-0.31,0.37-0.4c0.15-0.09,0.35-0.14,0.6-0.14
	c0.24,0,0.48,0.09,0.73,0.26c0.25,0.17,0.55,0.36,0.89,0.57c0.35,0.2,0.77,0.39,1.27,0.56c0.5,0.17,1.12,0.25,1.86,0.25
	c0.62,0,1.16-0.08,1.62-0.23c0.46-0.16,0.84-0.37,1.15-0.63c0.3-0.27,0.53-0.57,0.68-0.92c0.15-0.35,0.22-0.71,0.22-1.1
	c0-0.5-0.14-0.91-0.42-1.24c-0.28-0.33-0.65-0.61-1.1-0.85c-0.45-0.24-0.97-0.44-1.56-0.61c-0.58-0.17-1.18-0.36-1.79-0.56
	c-0.61-0.2-1.2-0.43-1.79-0.69c-0.58-0.26-1.1-0.59-1.56-0.99c-0.45-0.4-0.82-0.88-1.1-1.45c-0.28-0.57-0.42-1.27-0.42-2.09
	c0-0.73,0.15-1.43,0.46-2.1c0.3-0.67,0.74-1.26,1.32-1.77c0.58-0.51,1.29-0.92,2.14-1.22c0.85-0.3,1.82-0.46,2.91-0.46
	c1.25,0,2.39,0.2,3.4,0.6c1.01,0.4,1.88,0.94,2.6,1.64L602.17,96.93z M621.96,109.89c-0.45,0.52-0.96,0.97-1.55,1.35
	c-0.58,0.38-1.2,0.69-1.86,0.92c-0.66,0.24-1.34,0.41-2.04,0.52c-0.7,0.11-1.39,0.17-2.08,0.17c-1.3,0-2.51-0.22-3.62-0.66
	c-1.11-0.44-2.07-1.09-2.89-1.94c-0.81-0.85-1.45-1.91-1.9-3.17c-0.45-1.26-0.68-2.71-0.68-4.35c0-1.32,0.2-2.54,0.61-3.68
	s1-2.13,1.76-2.97c0.76-0.84,1.7-1.51,2.8-1.99c1.1-0.48,2.35-0.73,3.72-0.73c1.15,0,2.22,0.19,3.19,0.57
	c0.97,0.38,1.82,0.93,2.52,1.65c0.71,0.72,1.26,1.61,1.67,2.66c0.4,1.06,0.61,2.26,0.61,3.61c0,0.56-0.06,0.93-0.19,1.13
	c-0.12,0.19-0.35,0.29-0.69,0.29h-12.4c0.04,1.13,0.2,2.11,0.48,2.95c0.29,0.84,0.68,1.54,1.18,2.1c0.5,0.56,1.1,0.97,1.8,1.25
	c0.7,0.27,1.47,0.41,2.33,0.41c0.81,0,1.51-0.09,2.1-0.28c0.59-0.19,1.1-0.39,1.53-0.61c0.43-0.22,0.79-0.42,1.08-0.61
	c0.29-0.19,0.55-0.28,0.77-0.28c0.3,0,0.53,0.11,0.69,0.34L621.96,109.89z M618.97,101.02c0-0.72-0.1-1.38-0.31-1.99
	c-0.2-0.61-0.51-1.14-0.9-1.58c-0.4-0.45-0.88-0.79-1.45-1.04c-0.57-0.25-1.23-0.37-1.97-0.37c-1.53,0-2.73,0.44-3.6,1.32
	c-0.88,0.88-1.43,2.1-1.67,3.67H618.97z M638.65,97.21c-0.11,0.14-0.22,0.25-0.33,0.33c-0.11,0.08-0.26,0.12-0.46,0.12
	c-0.2,0-0.41-0.08-0.62-0.23c-0.22-0.16-0.49-0.32-0.82-0.5c-0.33-0.18-0.73-0.35-1.19-0.5c-0.47-0.16-1.04-0.23-1.72-0.23
	c-0.89,0-1.68,0.16-2.37,0.48c-0.68,0.32-1.25,0.78-1.7,1.38c-0.45,0.6-0.8,1.32-1.03,2.18c-0.24,0.86-0.35,1.82-0.35,2.89
	c0,1.11,0.12,2.09,0.37,2.95c0.25,0.86,0.6,1.59,1.06,2.18c0.46,0.59,1.02,1.04,1.68,1.34c0.66,0.3,1.39,0.46,2.2,0.46
	c0.78,0,1.43-0.1,1.94-0.29c0.51-0.19,0.93-0.4,1.27-0.62c0.34-0.22,0.61-0.43,0.84-0.62c0.22-0.19,0.45-0.29,0.69-0.29
	c0.3,0,0.53,0.11,0.69,0.34l1.04,1.34c-0.43,0.53-0.92,0.99-1.46,1.36c-0.54,0.37-1.11,0.68-1.72,0.91
	c-0.61,0.24-1.24,0.41-1.91,0.52c-0.66,0.11-1.34,0.17-2.02,0.17c-1.18,0-2.28-0.22-3.31-0.65c-1.02-0.43-1.91-1.07-2.66-1.9
	c-0.75-0.83-1.34-1.85-1.78-3.06c-0.43-1.21-0.65-2.59-0.65-4.13c0-1.4,0.2-2.7,0.59-3.89c0.39-1.19,0.97-2.22,1.73-3.08
	c0.76-0.86,1.7-1.54,2.82-2.03c1.12-0.49,2.4-0.74,3.84-0.74c1.35,0,2.54,0.22,3.58,0.65c1.03,0.43,1.95,1.05,2.76,1.84
	L638.65,97.21z M668.43,109.37l-0.02,3.22h-16.57V85.85h16.57v3.22h-12.59v8.47h10.13v3.11h-10.13v8.72H668.43z M687.7,112.59h-3.5
	c-0.29,0-0.51-0.08-0.68-0.23c-0.17-0.16-0.3-0.32-0.4-0.49l-4.56-7.21c-0.06,0.19-0.12,0.37-0.19,0.54
	c-0.06,0.17-0.14,0.34-0.24,0.48l-4.19,6.18c-0.12,0.17-0.27,0.34-0.43,0.49c-0.16,0.16-0.37,0.23-0.63,0.23h-3.24l6.59-9.74
	l-6.33-9.18h3.5c0.29,0,0.49,0.04,0.62,0.13c0.13,0.09,0.24,0.22,0.34,0.39l4.49,6.91c0.06-0.19,0.13-0.37,0.2-0.55
	c0.07-0.18,0.17-0.37,0.3-0.57l3.85-5.72c0.22-0.4,0.52-0.6,0.89-0.6h3.33l-6.33,9.01L687.7,112.59z M693.31,96.5
	c0.4-0.47,0.82-0.9,1.28-1.29c0.45-0.39,0.94-0.73,1.46-1.01c0.52-0.28,1.08-0.5,1.67-0.65c0.59-0.16,1.22-0.23,1.89-0.23
	c1.08,0,2.06,0.21,2.93,0.63c0.88,0.42,1.62,1.04,2.24,1.86c0.62,0.82,1.1,1.83,1.44,3.04c0.34,1.2,0.51,2.59,0.51,4.15
	c0,1.4-0.19,2.7-0.57,3.9c-0.38,1.2-0.92,2.24-1.62,3.12c-0.7,0.88-1.56,1.57-2.57,2.08c-1.01,0.5-2.15,0.75-3.42,0.75
	c-1.13,0-2.1-0.19-2.91-0.56c-0.81-0.37-1.53-0.89-2.16-1.56v8.21h-3.63V93.67h2.18c0.51,0,0.83,0.24,0.95,0.73L693.31,96.5z
	 M693.49,107.93c0.6,0.78,1.24,1.33,1.93,1.64c0.69,0.31,1.46,0.47,2.32,0.47c1.66,0,2.95-0.6,3.86-1.8
	c0.91-1.2,1.37-2.95,1.37-5.24c0-1.2-0.1-2.23-0.31-3.08c-0.2-0.85-0.5-1.55-0.89-2.09c-0.39-0.54-0.87-0.94-1.44-1.19
	c-0.57-0.25-1.22-0.38-1.94-0.38c-1.06,0-1.97,0.24-2.75,0.71c-0.78,0.47-1.49,1.14-2.15,2.01V107.93z M725.6,109.89
	c-0.45,0.52-0.96,0.97-1.55,1.35c-0.58,0.38-1.2,0.69-1.86,0.92c-0.66,0.24-1.34,0.41-2.04,0.52c-0.7,0.11-1.39,0.17-2.08,0.17
	c-1.3,0-2.51-0.22-3.62-0.66c-1.11-0.44-2.07-1.09-2.89-1.94c-0.81-0.85-1.45-1.91-1.9-3.17c-0.45-1.26-0.68-2.71-0.68-4.35
	c0-1.32,0.2-2.54,0.61-3.68s1-2.13,1.76-2.97c0.76-0.84,1.7-1.51,2.8-1.99c1.1-0.48,2.35-0.73,3.72-0.73c1.15,0,2.22,0.19,3.19,0.57
	c0.97,0.38,1.82,0.93,2.52,1.65c0.71,0.72,1.26,1.61,1.67,2.66c0.4,1.06,0.61,2.26,0.61,3.61c0,0.56-0.06,0.93-0.19,1.13
	c-0.12,0.19-0.35,0.29-0.69,0.29h-12.4c0.04,1.13,0.2,2.11,0.48,2.95c0.29,0.84,0.68,1.54,1.18,2.1c0.5,0.56,1.1,0.97,1.8,1.25
	c0.7,0.27,1.47,0.41,2.33,0.41c0.81,0,1.51-0.09,2.1-0.28c0.59-0.19,1.1-0.39,1.53-0.61c0.43-0.22,0.79-0.42,1.08-0.61
	c0.29-0.19,0.55-0.28,0.77-0.28c0.3,0,0.53,0.11,0.69,0.34L725.6,109.89z M722.6,101.02c0-0.72-0.1-1.38-0.31-1.99
	c-0.2-0.61-0.51-1.14-0.9-1.58c-0.4-0.45-0.88-0.79-1.45-1.04c-0.57-0.25-1.23-0.37-1.97-0.37c-1.53,0-2.73,0.44-3.6,1.32
	c-0.88,0.88-1.43,2.1-1.67,3.67H722.6z M732.45,97.3c0.61-1.24,1.34-2.22,2.2-2.92c0.86-0.71,1.89-1.06,3.09-1.06
	c0.41,0,0.8,0.05,1.16,0.14c0.37,0.09,0.69,0.23,0.96,0.42l-0.24,2.74c-0.09,0.34-0.29,0.5-0.61,0.5c-0.17,0-0.43-0.03-0.78-0.1
	c-0.35-0.07-0.72-0.1-1.12-0.1c-0.58,0-1.1,0.08-1.55,0.25s-0.85,0.42-1.2,0.74c-0.35,0.33-0.67,0.73-0.94,1.21
	c-0.27,0.48-0.53,1.02-0.76,1.63v11.84h-3.63V93.67h2.09c0.4,0,0.67,0.07,0.81,0.21c0.14,0.14,0.25,0.39,0.31,0.75L732.45,97.3z
	 M746.4,87.82c0,0.34-0.07,0.66-0.2,0.96c-0.14,0.3-0.32,0.57-0.55,0.8c-0.23,0.23-0.5,0.41-0.81,0.54c-0.31,0.13-0.63,0.2-0.97,0.2
	c-0.34,0-0.65-0.07-0.95-0.2c-0.3-0.13-0.56-0.31-0.79-0.54c-0.23-0.23-0.41-0.5-0.54-0.8c-0.13-0.3-0.2-0.62-0.2-0.96
	c0-0.35,0.07-0.67,0.2-0.98c0.13-0.3,0.31-0.57,0.54-0.8c0.23-0.23,0.49-0.41,0.79-0.54c0.3-0.13,0.61-0.2,0.95-0.2
	c0.34,0,0.66,0.07,0.97,0.2c0.31,0.13,0.58,0.31,0.81,0.54c0.23,0.23,0.41,0.5,0.55,0.8C746.33,87.15,746.4,87.47,746.4,87.82z
	 M745.71,93.67v18.92h-3.63V93.67H745.71z M765.75,109.89c-0.45,0.52-0.96,0.97-1.55,1.35c-0.58,0.38-1.2,0.69-1.86,0.92
	c-0.66,0.24-1.34,0.41-2.04,0.52c-0.7,0.11-1.39,0.17-2.08,0.17c-1.3,0-2.51-0.22-3.62-0.66c-1.11-0.44-2.07-1.09-2.89-1.94
	c-0.81-0.85-1.45-1.91-1.9-3.17c-0.45-1.26-0.68-2.71-0.68-4.35c0-1.32,0.2-2.54,0.61-3.68c0.41-1.14,1-2.13,1.76-2.97
	c0.76-0.84,1.7-1.51,2.8-1.99c1.1-0.48,2.35-0.73,3.72-0.73c1.15,0,2.22,0.19,3.19,0.57c0.97,0.38,1.82,0.93,2.52,1.65
	c0.71,0.72,1.26,1.61,1.67,2.66c0.4,1.06,0.61,2.26,0.61,3.61c0,0.56-0.06,0.93-0.19,1.13c-0.12,0.19-0.35,0.29-0.69,0.29h-12.4
	c0.04,1.13,0.2,2.11,0.48,2.95c0.29,0.84,0.68,1.54,1.18,2.1c0.5,0.56,1.1,0.97,1.8,1.25c0.7,0.27,1.47,0.41,2.33,0.41
	c0.81,0,1.51-0.09,2.1-0.28c0.59-0.19,1.1-0.39,1.53-0.61c0.43-0.22,0.79-0.42,1.08-0.61c0.29-0.19,0.55-0.28,0.77-0.28
	c0.3,0,0.53,0.11,0.69,0.34L765.75,109.89z M762.75,101.02c0-0.72-0.1-1.38-0.31-1.99c-0.2-0.61-0.51-1.14-0.9-1.58
	c-0.4-0.45-0.88-0.79-1.45-1.04c-0.57-0.25-1.23-0.37-1.97-0.37c-1.53,0-2.73,0.44-3.6,1.32c-0.88,0.88-1.43,2.1-1.67,3.67H762.75z
	 M772.61,96.29c0.41-0.43,0.84-0.83,1.29-1.19c0.45-0.36,0.92-0.67,1.42-0.92c0.5-0.25,1.04-0.45,1.62-0.6
	c0.58-0.14,1.19-0.21,1.85-0.21c1.04,0,1.96,0.17,2.75,0.52c0.79,0.35,1.45,0.84,1.98,1.46c0.53,0.63,0.94,1.38,1.21,2.26
	c0.27,0.88,0.41,1.86,0.41,2.92v12.05h-3.65v-12.05c0-1.35-0.31-2.41-0.93-3.16c-0.62-0.75-1.57-1.13-2.85-1.13
	c-0.93,0-1.8,0.22-2.62,0.66c-0.81,0.44-1.57,1.04-2.26,1.8v13.87h-3.63V93.67h2.18c0.51,0,0.83,0.24,0.95,0.73L772.61,96.29z
	 M802.54,97.21c-0.11,0.14-0.22,0.25-0.33,0.33c-0.11,0.08-0.26,0.12-0.46,0.12c-0.2,0-0.41-0.08-0.62-0.23
	c-0.22-0.16-0.49-0.32-0.82-0.5c-0.33-0.18-0.73-0.35-1.19-0.5c-0.47-0.16-1.04-0.23-1.72-0.23c-0.89,0-1.68,0.16-2.37,0.48
	c-0.68,0.32-1.25,0.78-1.7,1.38c-0.45,0.6-0.8,1.32-1.03,2.18c-0.24,0.86-0.35,1.82-0.35,2.89c0,1.11,0.12,2.09,0.37,2.95
	c0.25,0.86,0.6,1.59,1.06,2.18c0.46,0.59,1.02,1.04,1.68,1.34c0.66,0.3,1.39,0.46,2.2,0.46c0.78,0,1.43-0.1,1.94-0.29
	c0.51-0.19,0.93-0.4,1.27-0.62c0.34-0.22,0.61-0.43,0.84-0.62c0.22-0.19,0.45-0.29,0.69-0.29c0.3,0,0.53,0.11,0.69,0.34l1.04,1.34
	c-0.43,0.53-0.92,0.99-1.46,1.36c-0.54,0.37-1.11,0.68-1.72,0.91c-0.61,0.24-1.24,0.41-1.91,0.52c-0.66,0.11-1.34,0.17-2.02,0.17
	c-1.18,0-2.28-0.22-3.31-0.65c-1.02-0.43-1.91-1.07-2.66-1.9c-0.75-0.83-1.34-1.85-1.78-3.06c-0.43-1.21-0.65-2.59-0.65-4.13
	c0-1.4,0.2-2.7,0.59-3.89c0.39-1.19,0.97-2.22,1.73-3.08c0.76-0.86,1.7-1.54,2.82-2.03c1.12-0.49,2.4-0.74,3.84-0.74
	c1.35,0,2.54,0.22,3.58,0.65c1.03,0.43,1.95,1.05,2.76,1.84L802.54,97.21z M821.56,109.89c-0.45,0.52-0.96,0.97-1.55,1.35
	c-0.58,0.38-1.2,0.69-1.86,0.92c-0.66,0.24-1.34,0.41-2.04,0.52c-0.7,0.11-1.39,0.17-2.08,0.17c-1.3,0-2.51-0.22-3.62-0.66
	c-1.11-0.44-2.07-1.09-2.89-1.94c-0.81-0.85-1.45-1.91-1.9-3.17c-0.45-1.26-0.68-2.71-0.68-4.35c0-1.32,0.2-2.54,0.61-3.68
	s1-2.13,1.76-2.97c0.76-0.84,1.7-1.51,2.8-1.99c1.1-0.48,2.35-0.73,3.72-0.73c1.15,0,2.22,0.19,3.19,0.57
	c0.97,0.38,1.82,0.93,2.52,1.65c0.71,0.72,1.26,1.61,1.67,2.66c0.4,1.06,0.61,2.26,0.61,3.61c0,0.56-0.06,0.93-0.19,1.13
	c-0.12,0.19-0.35,0.29-0.69,0.29h-12.4c0.04,1.13,0.2,2.11,0.48,2.95c0.29,0.84,0.68,1.54,1.18,2.1c0.5,0.56,1.1,0.97,1.8,1.25
	c0.7,0.27,1.47,0.41,2.33,0.41c0.81,0,1.51-0.09,2.1-0.28c0.59-0.19,1.1-0.39,1.53-0.61c0.43-0.22,0.79-0.42,1.08-0.61
	c0.29-0.19,0.55-0.28,0.77-0.28c0.3,0,0.53,0.11,0.69,0.34L821.56,109.89z M818.56,101.02c0-0.72-0.1-1.38-0.31-1.99
	c-0.2-0.61-0.51-1.14-0.9-1.58c-0.4-0.45-0.88-0.79-1.45-1.04c-0.57-0.25-1.23-0.37-1.97-0.37c-1.53,0-2.73,0.44-3.6,1.32
	c-0.88,0.88-1.43,2.1-1.67,3.67H818.56z M824.39,110.41c0-0.34,0.06-0.65,0.19-0.95c0.12-0.3,0.29-0.56,0.51-0.78
	c0.22-0.22,0.47-0.4,0.77-0.53c0.3-0.13,0.62-0.2,0.97-0.2c0.34,0,0.65,0.07,0.95,0.2c0.3,0.13,0.56,0.31,0.78,0.53
	c0.22,0.22,0.4,0.48,0.53,0.78c0.13,0.3,0.2,0.61,0.2,0.95c0,0.35-0.07,0.67-0.2,0.97c-0.13,0.3-0.31,0.56-0.53,0.78
	c-0.22,0.22-0.48,0.4-0.78,0.52c-0.3,0.12-0.61,0.19-0.95,0.19c-0.35,0-0.67-0.06-0.97-0.19c-0.3-0.12-0.56-0.3-0.77-0.52
	c-0.22-0.22-0.39-0.48-0.51-0.78C824.45,111.08,824.39,110.76,824.39,110.41z M844.11,92.89l-0.88,1.53l-3.15-1.84
	c-0.22-0.14-0.43-0.28-0.61-0.42c-0.19-0.14-0.35-0.31-0.48-0.51c0.19,0.43,0.28,0.9,0.28,1.4v3.61h-1.77v-3.59
	c0-0.25,0.02-0.48,0.05-0.7c0.03-0.22,0.1-0.43,0.2-0.64c-0.14,0.17-0.29,0.33-0.47,0.47c-0.17,0.14-0.37,0.27-0.58,0.39l-3.13,1.83
	l-0.88-1.53l3.13-1.83c0.22-0.12,0.44-0.23,0.65-0.31c0.21-0.08,0.43-0.13,0.67-0.16c-0.47-0.06-0.91-0.22-1.32-0.48l-3.15-1.84
	l0.88-1.53l3.15,1.84c0.22,0.14,0.43,0.28,0.61,0.43c0.18,0.15,0.34,0.32,0.47,0.52c-0.1-0.21-0.17-0.43-0.21-0.67
	c-0.04-0.24-0.07-0.48-0.07-0.73v-3.63h1.77v3.59c0,0.25-0.02,0.49-0.05,0.72c-0.03,0.23-0.09,0.45-0.18,0.66
	c0.14-0.19,0.29-0.35,0.47-0.48c0.17-0.14,0.37-0.27,0.58-0.41l3.13-1.81l0.88,1.53l-3.13,1.81c-0.21,0.12-0.42,0.23-0.62,0.32
	c-0.2,0.09-0.42,0.14-0.64,0.17c0.42,0.05,0.84,0.2,1.27,0.47L844.11,92.89z"/>
<path class="st1" d="M139.21,664.54l-0.25,0.42l-0.98-0.56c-0.07-0.04-0.13-0.08-0.18-0.12c-0.05-0.04-0.1-0.09-0.14-0.16
	c0.06,0.12,0.09,0.26,0.09,0.41v1.12h-0.5v-1.11c0-0.08,0-0.14,0.01-0.21c0.01-0.06,0.03-0.13,0.06-0.19
	c-0.04,0.05-0.09,0.1-0.14,0.14c-0.05,0.04-0.11,0.08-0.17,0.12l-0.97,0.56l-0.25-0.42l0.97-0.56c0.14-0.09,0.29-0.13,0.43-0.14
	c-0.08-0.01-0.15-0.02-0.22-0.04c-0.07-0.02-0.14-0.05-0.21-0.1l-0.98-0.57l0.25-0.42l0.98,0.56c0.07,0.04,0.13,0.08,0.18,0.13
	c0.05,0.05,0.1,0.1,0.14,0.16c-0.06-0.13-0.09-0.27-0.09-0.42v-1.12h0.5v1.11c0,0.08,0,0.15-0.01,0.21
	c-0.01,0.07-0.03,0.13-0.06,0.19c0.04-0.05,0.09-0.1,0.14-0.14c0.05-0.04,0.11-0.08,0.17-0.12l0.97-0.56l0.25,0.42l-0.97,0.56
	c-0.06,0.04-0.13,0.07-0.19,0.1c-0.06,0.02-0.13,0.04-0.2,0.05c0.07,0.01,0.14,0.02,0.2,0.04c0.06,0.02,0.13,0.05,0.19,0.09
	L139.21,664.54z M147.52,662.42l-3.3,8.09h-0.98l-3.3-8.09h0.88c0.1,0,0.18,0.02,0.24,0.07c0.06,0.05,0.11,0.11,0.14,0.19l2.28,5.71
	c0.05,0.13,0.1,0.27,0.14,0.42c0.05,0.15,0.09,0.31,0.13,0.47c0.04-0.17,0.08-0.32,0.12-0.47c0.04-0.15,0.09-0.29,0.14-0.42
	l2.28-5.71c0.02-0.06,0.07-0.12,0.13-0.18c0.07-0.05,0.15-0.08,0.24-0.08H147.52z M149.62,663c0,0.1-0.02,0.19-0.06,0.27
	c-0.04,0.08-0.09,0.16-0.16,0.23c-0.07,0.07-0.14,0.12-0.23,0.16c-0.09,0.04-0.18,0.06-0.28,0.06c-0.1,0-0.19-0.02-0.27-0.06
	c-0.08-0.04-0.16-0.09-0.22-0.16c-0.06-0.07-0.11-0.14-0.15-0.23c-0.04-0.08-0.06-0.18-0.06-0.27c0-0.1,0.02-0.19,0.06-0.28
	c0.04-0.09,0.09-0.17,0.15-0.23c0.06-0.07,0.14-0.12,0.22-0.16c0.08-0.04,0.18-0.06,0.27-0.06c0.1,0,0.19,0.02,0.28,0.06
	c0.09,0.04,0.17,0.09,0.23,0.16c0.07,0.07,0.12,0.14,0.16,0.23C149.6,662.81,149.62,662.9,149.62,663z M149.41,664.8v5.72h-1.01
	v-5.72H149.41z M155.79,662.2v8.32h-0.6c-0.14,0-0.23-0.07-0.27-0.21l-0.09-0.69c-0.24,0.29-0.52,0.53-0.84,0.71
	c-0.31,0.18-0.67,0.27-1.08,0.27c-0.33,0-0.63-0.06-0.89-0.19c-0.27-0.13-0.5-0.31-0.68-0.56c-0.19-0.24-0.33-0.55-0.43-0.92
	c-0.1-0.37-0.15-0.79-0.15-1.26c0-0.42,0.06-0.81,0.17-1.18c0.11-0.36,0.27-0.68,0.49-0.95c0.21-0.27,0.47-0.48,0.78-0.63
	c0.31-0.15,0.65-0.23,1.04-0.23c0.35,0,0.65,0.06,0.9,0.18c0.25,0.12,0.47,0.28,0.67,0.49v-3.17H155.79z M154.79,666.16
	c-0.19-0.25-0.39-0.43-0.61-0.53c-0.22-0.1-0.46-0.15-0.73-0.15c-0.53,0-0.94,0.19-1.23,0.57c-0.29,0.38-0.43,0.92-0.43,1.63
	c0,0.37,0.03,0.69,0.1,0.96c0.06,0.27,0.16,0.48,0.28,0.66c0.12,0.17,0.28,0.3,0.46,0.38c0.18,0.08,0.39,0.12,0.62,0.12
	c0.33,0,0.62-0.08,0.87-0.23c0.25-0.15,0.47-0.36,0.68-0.64V666.16z M162.03,669.72c-0.12,0.15-0.27,0.28-0.45,0.39
	c-0.17,0.11-0.36,0.2-0.56,0.27c-0.2,0.07-0.4,0.13-0.61,0.16c-0.21,0.04-0.42,0.05-0.63,0.05c-0.4,0-0.76-0.07-1.09-0.2
	c-0.33-0.13-0.62-0.33-0.86-0.59c-0.24-0.26-0.43-0.58-0.57-0.96c-0.14-0.38-0.2-0.82-0.2-1.31c0-0.4,0.06-0.77,0.18-1.12
	c0.12-0.35,0.3-0.65,0.53-0.9c0.23-0.25,0.51-0.45,0.84-0.6c0.33-0.14,0.7-0.22,1.12-0.22c0.34,0,0.66,0.06,0.95,0.17
	c0.29,0.11,0.54,0.28,0.76,0.5c0.21,0.22,0.38,0.48,0.5,0.8c0.12,0.32,0.18,0.68,0.18,1.09c0,0.16-0.02,0.26-0.05,0.32
	c-0.03,0.05-0.1,0.08-0.19,0.08h-3.82c0.01,0.36,0.06,0.68,0.15,0.94c0.09,0.27,0.21,0.49,0.37,0.67c0.16,0.18,0.35,0.31,0.56,0.4
	c0.22,0.09,0.46,0.13,0.73,0.13c0.25,0,0.47-0.03,0.65-0.09c0.18-0.06,0.34-0.12,0.47-0.19c0.13-0.07,0.24-0.13,0.33-0.19
	c0.09-0.06,0.16-0.09,0.23-0.09c0.08,0,0.15,0.03,0.19,0.1L162.03,669.72z M161.21,667.03c0-0.23-0.03-0.45-0.1-0.64
	c-0.07-0.19-0.16-0.36-0.29-0.5c-0.13-0.14-0.28-0.25-0.46-0.33c-0.18-0.08-0.39-0.12-0.62-0.12c-0.48,0-0.86,0.14-1.14,0.42
	c-0.28,0.28-0.45,0.67-0.52,1.17H161.21z M165.76,664.71c0.42,0,0.79,0.07,1.13,0.21c0.34,0.14,0.62,0.34,0.86,0.59
	c0.24,0.26,0.42,0.57,0.55,0.93c0.13,0.36,0.19,0.77,0.19,1.22c0,0.45-0.06,0.86-0.19,1.22c-0.13,0.36-0.31,0.67-0.55,0.93
	c-0.24,0.26-0.52,0.45-0.86,0.59c-0.34,0.14-0.71,0.21-1.13,0.21c-0.42,0-0.8-0.07-1.14-0.21c-0.34-0.14-0.62-0.33-0.86-0.59
	c-0.24-0.26-0.42-0.56-0.55-0.93c-0.13-0.36-0.19-0.77-0.19-1.22c0-0.45,0.06-0.85,0.19-1.22c0.13-0.36,0.31-0.67,0.55-0.93
	c0.24-0.26,0.52-0.45,0.86-0.59C164.96,664.77,165.34,664.71,165.76,664.71z M165.76,669.81c0.56,0,0.99-0.19,1.27-0.57
	c0.28-0.38,0.42-0.91,0.42-1.58c0-0.68-0.14-1.21-0.42-1.59c-0.28-0.38-0.7-0.57-1.27-0.57c-0.29,0-0.54,0.05-0.75,0.15
	c-0.21,0.1-0.39,0.24-0.53,0.42c-0.14,0.18-0.25,0.41-0.32,0.68c-0.07,0.27-0.1,0.57-0.1,0.91c0,0.68,0.14,1.21,0.42,1.58
	C164.76,669.62,165.19,669.81,165.76,669.81z M173.02,670.52v-4.86l-0.63-0.07c-0.08-0.02-0.14-0.05-0.19-0.09
	c-0.05-0.04-0.08-0.1-0.08-0.17v-0.41h0.9v-0.55c0-0.33,0.05-0.62,0.14-0.87c0.09-0.25,0.22-0.47,0.4-0.64
	c0.17-0.18,0.38-0.31,0.62-0.4c0.24-0.09,0.51-0.14,0.81-0.14c0.26,0,0.49,0.04,0.71,0.11l-0.02,0.5c-0.01,0.09-0.06,0.14-0.15,0.15
	c-0.09,0.01-0.22,0.01-0.37,0.01c-0.17,0-0.33,0.02-0.47,0.07c-0.14,0.05-0.26,0.12-0.36,0.22c-0.1,0.1-0.18,0.24-0.23,0.4
	c-0.05,0.17-0.08,0.37-0.08,0.62v0.53h1.65v0.73h-1.62v4.88H173.02z M181.06,669.72c-0.12,0.15-0.27,0.28-0.45,0.39
	c-0.17,0.11-0.36,0.2-0.56,0.27c-0.2,0.07-0.4,0.13-0.61,0.16c-0.21,0.04-0.42,0.05-0.63,0.05c-0.4,0-0.76-0.07-1.09-0.2
	c-0.33-0.13-0.62-0.33-0.86-0.59c-0.24-0.26-0.43-0.58-0.57-0.96c-0.14-0.38-0.2-0.82-0.2-1.31c0-0.4,0.06-0.77,0.18-1.12
	c0.12-0.35,0.3-0.65,0.53-0.9c0.23-0.25,0.51-0.45,0.84-0.6c0.33-0.14,0.7-0.22,1.12-0.22c0.34,0,0.66,0.06,0.95,0.17
	c0.29,0.11,0.54,0.28,0.76,0.5c0.21,0.22,0.38,0.48,0.5,0.8c0.12,0.32,0.18,0.68,0.18,1.09c0,0.16-0.02,0.26-0.05,0.32
	c-0.03,0.05-0.1,0.08-0.19,0.08h-3.82c0.01,0.36,0.06,0.68,0.15,0.94c0.09,0.27,0.21,0.49,0.37,0.67c0.16,0.18,0.35,0.31,0.56,0.4
	c0.22,0.09,0.46,0.13,0.73,0.13c0.25,0,0.47-0.03,0.65-0.09c0.18-0.06,0.34-0.12,0.47-0.19c0.13-0.07,0.24-0.13,0.33-0.19
	c0.09-0.06,0.16-0.09,0.23-0.09c0.08,0,0.15,0.03,0.19,0.1L181.06,669.72z M180.25,667.03c0-0.23-0.03-0.45-0.1-0.64
	c-0.07-0.19-0.16-0.36-0.29-0.5c-0.13-0.14-0.28-0.25-0.46-0.33c-0.18-0.08-0.39-0.12-0.62-0.12c-0.48,0-0.86,0.14-1.14,0.42
	c-0.28,0.28-0.45,0.67-0.52,1.17H180.25z M182.24,665.6c0.32-0.3,0.66-0.53,1.02-0.68c0.37-0.15,0.77-0.23,1.21-0.23
	c0.32,0,0.6,0.05,0.85,0.16c0.25,0.11,0.46,0.25,0.63,0.44c0.17,0.19,0.3,0.42,0.38,0.68c0.09,0.27,0.13,0.56,0.13,0.88v3.66h-0.45
	c-0.1,0-0.17-0.02-0.23-0.05c-0.05-0.03-0.09-0.1-0.12-0.19l-0.11-0.54c-0.15,0.14-0.3,0.26-0.44,0.37
	c-0.14,0.11-0.29,0.2-0.45,0.27s-0.33,0.13-0.51,0.17c-0.18,0.04-0.38,0.06-0.6,0.06c-0.22,0-0.43-0.03-0.63-0.09
	c-0.2-0.06-0.37-0.16-0.51-0.28c-0.15-0.12-0.26-0.28-0.34-0.47c-0.08-0.19-0.13-0.42-0.13-0.67c0-0.23,0.06-0.44,0.19-0.65
	c0.12-0.21,0.33-0.39,0.6-0.56c0.28-0.16,0.64-0.29,1.09-0.4c0.45-0.1,1-0.16,1.65-0.18v-0.45c0-0.44-0.1-0.78-0.29-1.01
	c-0.19-0.23-0.47-0.34-0.84-0.34c-0.25,0-0.46,0.03-0.62,0.09c-0.17,0.06-0.31,0.13-0.43,0.21c-0.12,0.08-0.23,0.15-0.32,0.21
	c-0.09,0.06-0.18,0.09-0.26,0.09c-0.07,0-0.13-0.02-0.18-0.05c-0.05-0.04-0.09-0.08-0.12-0.13L182.24,665.6z M185.48,667.94
	c-0.46,0.02-0.86,0.05-1.18,0.11c-0.33,0.06-0.59,0.13-0.8,0.23c-0.21,0.09-0.35,0.21-0.45,0.33c-0.09,0.13-0.14,0.27-0.14,0.43
	c0,0.15,0.02,0.28,0.07,0.39c0.05,0.11,0.12,0.2,0.2,0.27c0.08,0.07,0.18,0.12,0.3,0.15c0.11,0.03,0.24,0.05,0.37,0.05
	c0.18,0,0.34-0.02,0.49-0.05c0.15-0.04,0.29-0.09,0.42-0.16c0.13-0.07,0.25-0.15,0.37-0.24c0.12-0.09,0.23-0.2,0.35-0.32V667.94z
	 M189.68,670.61c-0.45,0-0.8-0.13-1.04-0.38c-0.24-0.25-0.36-0.62-0.36-1.09v-3.5h-0.69c-0.06,0-0.11-0.02-0.15-0.05
	c-0.04-0.04-0.06-0.09-0.06-0.17v-0.4l0.94-0.12l0.23-1.77c0.01-0.06,0.04-0.1,0.08-0.14c0.04-0.04,0.09-0.05,0.16-0.05h0.51v1.97
	h1.65v0.73h-1.65v3.43c0,0.24,0.06,0.42,0.18,0.54c0.12,0.12,0.27,0.18,0.45,0.18c0.11,0,0.2-0.01,0.27-0.04
	c0.08-0.03,0.14-0.06,0.2-0.09c0.06-0.03,0.1-0.07,0.14-0.09c0.04-0.03,0.07-0.04,0.1-0.04c0.05,0,0.1,0.03,0.14,0.1l0.29,0.48
	c-0.17,0.16-0.38,0.29-0.63,0.38C190.19,670.56,189.94,670.61,189.68,670.61z M196.67,664.8v5.72h-0.6c-0.14,0-0.23-0.07-0.27-0.21
	l-0.08-0.62c-0.25,0.27-0.53,0.5-0.84,0.66c-0.31,0.17-0.66,0.25-1.06,0.25c-0.31,0-0.59-0.05-0.83-0.16
	c-0.24-0.1-0.44-0.25-0.6-0.44c-0.16-0.19-0.28-0.42-0.36-0.68c-0.08-0.27-0.12-0.56-0.12-0.89v-3.65h1.01v3.65
	c0,0.43,0.1,0.77,0.3,1.01s0.5,0.36,0.91,0.36c0.3,0,0.58-0.07,0.83-0.21c0.26-0.14,0.5-0.34,0.71-0.58v-4.21H196.67z
	 M199.22,665.94c0.18-0.39,0.4-0.7,0.67-0.92c0.26-0.22,0.59-0.33,0.97-0.33c0.12,0,0.24,0.01,0.35,0.04
	c0.11,0.03,0.21,0.07,0.3,0.12l-0.07,0.75c-0.02,0.09-0.08,0.14-0.17,0.14c-0.05,0-0.13-0.01-0.23-0.03
	c-0.1-0.02-0.22-0.03-0.34-0.03c-0.18,0-0.34,0.03-0.48,0.08c-0.14,0.05-0.27,0.13-0.38,0.23c-0.11,0.1-0.21,0.23-0.3,0.38
	c-0.09,0.15-0.17,0.33-0.24,0.52v3.61h-1.01v-5.72h0.58c0.11,0,0.18,0.02,0.23,0.06c0.04,0.04,0.07,0.11,0.08,0.21L199.22,665.94z
	 M206.79,669.72c-0.12,0.15-0.27,0.28-0.45,0.39c-0.17,0.11-0.36,0.2-0.56,0.27c-0.2,0.07-0.4,0.13-0.61,0.16
	c-0.21,0.04-0.42,0.05-0.63,0.05c-0.4,0-0.76-0.07-1.09-0.2c-0.33-0.13-0.62-0.33-0.86-0.59c-0.24-0.26-0.43-0.58-0.57-0.96
	c-0.14-0.38-0.2-0.82-0.2-1.31c0-0.4,0.06-0.77,0.18-1.12c0.12-0.35,0.3-0.65,0.53-0.9c0.23-0.25,0.51-0.45,0.84-0.6
	c0.33-0.14,0.7-0.22,1.12-0.22c0.34,0,0.66,0.06,0.95,0.17c0.29,0.11,0.54,0.28,0.76,0.5c0.21,0.22,0.38,0.48,0.5,0.8
	c0.12,0.32,0.18,0.68,0.18,1.09c0,0.16-0.02,0.26-0.05,0.32c-0.03,0.05-0.1,0.08-0.19,0.08h-3.82c0.01,0.36,0.06,0.68,0.15,0.94
	c0.09,0.27,0.21,0.49,0.37,0.67c0.16,0.18,0.35,0.31,0.56,0.4c0.22,0.09,0.46,0.13,0.73,0.13c0.25,0,0.47-0.03,0.65-0.09
	c0.18-0.06,0.34-0.12,0.47-0.19c0.13-0.07,0.24-0.13,0.33-0.19c0.09-0.06,0.16-0.09,0.23-0.09c0.08,0,0.15,0.03,0.19,0.1
	L206.79,669.72z M205.97,667.03c0-0.23-0.03-0.45-0.1-0.64c-0.07-0.19-0.16-0.36-0.29-0.5c-0.13-0.14-0.28-0.25-0.46-0.33
	c-0.18-0.08-0.39-0.12-0.62-0.12c-0.48,0-0.86,0.14-1.14,0.42c-0.28,0.28-0.45,0.67-0.52,1.17H205.97z M211.44,665.74
	c-0.05,0.08-0.11,0.12-0.21,0.12c-0.06,0-0.12-0.02-0.19-0.06c-0.07-0.04-0.16-0.09-0.26-0.14c-0.1-0.05-0.23-0.1-0.37-0.14
	c-0.14-0.04-0.31-0.06-0.51-0.06c-0.17,0-0.32,0.02-0.46,0.06c-0.14,0.04-0.25,0.1-0.35,0.18c-0.1,0.08-0.17,0.16-0.22,0.26
	c-0.05,0.1-0.08,0.21-0.08,0.32c0,0.15,0.04,0.27,0.13,0.37c0.08,0.1,0.2,0.18,0.34,0.25c0.14,0.07,0.3,0.13,0.47,0.19
	c0.18,0.05,0.36,0.11,0.55,0.18c0.19,0.06,0.37,0.13,0.55,0.21c0.18,0.08,0.34,0.17,0.47,0.28c0.14,0.11,0.25,0.25,0.34,0.42
	c0.08,0.16,0.13,0.36,0.13,0.59c0,0.26-0.05,0.51-0.14,0.73c-0.09,0.22-0.23,0.42-0.42,0.58c-0.18,0.16-0.41,0.29-0.68,0.39
	c-0.27,0.09-0.58,0.14-0.93,0.14c-0.4,0-0.76-0.06-1.08-0.19c-0.32-0.13-0.6-0.3-0.82-0.5l0.24-0.38c0.03-0.05,0.07-0.09,0.11-0.11
	c0.04-0.03,0.09-0.04,0.16-0.04c0.07,0,0.14,0.03,0.21,0.08c0.08,0.05,0.17,0.11,0.27,0.18c0.11,0.06,0.24,0.12,0.39,0.18
	c0.15,0.05,0.35,0.08,0.58,0.08c0.2,0,0.37-0.03,0.51-0.08s0.27-0.12,0.37-0.21c0.1-0.09,0.17-0.19,0.22-0.3
	c0.05-0.11,0.07-0.23,0.07-0.36c0-0.16-0.04-0.29-0.13-0.39c-0.08-0.1-0.2-0.19-0.34-0.27c-0.14-0.07-0.3-0.14-0.48-0.19
	c-0.18-0.05-0.36-0.11-0.55-0.17c-0.19-0.06-0.37-0.13-0.55-0.21c-0.18-0.08-0.34-0.17-0.48-0.29c-0.14-0.12-0.25-0.26-0.34-0.43
	c-0.08-0.17-0.13-0.38-0.13-0.62c0-0.22,0.05-0.43,0.14-0.63c0.09-0.2,0.22-0.38,0.4-0.53c0.17-0.15,0.39-0.27,0.64-0.36
	c0.25-0.09,0.54-0.14,0.86-0.14c0.38,0,0.71,0.06,1.01,0.18c0.3,0.12,0.56,0.28,0.78,0.49L211.44,665.74z M215.74,665.6
	c0.32-0.3,0.66-0.53,1.02-0.68c0.37-0.15,0.77-0.23,1.21-0.23c0.32,0,0.6,0.05,0.85,0.16c0.25,0.11,0.46,0.25,0.63,0.44
	c0.17,0.19,0.3,0.42,0.38,0.68c0.09,0.27,0.13,0.56,0.13,0.88v3.66h-0.45c-0.1,0-0.17-0.02-0.23-0.05c-0.05-0.03-0.09-0.1-0.12-0.19
	l-0.11-0.54c-0.15,0.14-0.3,0.26-0.44,0.37c-0.14,0.11-0.29,0.2-0.45,0.27s-0.33,0.13-0.51,0.17c-0.18,0.04-0.38,0.06-0.6,0.06
	c-0.22,0-0.43-0.03-0.63-0.09c-0.2-0.06-0.37-0.16-0.51-0.28c-0.15-0.12-0.26-0.28-0.34-0.47c-0.08-0.19-0.13-0.42-0.13-0.67
	c0-0.23,0.06-0.44,0.19-0.65c0.12-0.21,0.33-0.39,0.6-0.56c0.28-0.16,0.64-0.29,1.09-0.4c0.45-0.1,1-0.16,1.65-0.18v-0.45
	c0-0.44-0.1-0.78-0.29-1.01c-0.19-0.23-0.47-0.34-0.84-0.34c-0.25,0-0.46,0.03-0.62,0.09c-0.17,0.06-0.31,0.13-0.43,0.21
	c-0.12,0.08-0.23,0.15-0.32,0.21c-0.09,0.06-0.18,0.09-0.26,0.09c-0.07,0-0.13-0.02-0.18-0.05c-0.05-0.04-0.09-0.08-0.12-0.13
	L215.74,665.6z M218.99,667.94c-0.46,0.02-0.86,0.05-1.18,0.11c-0.33,0.06-0.59,0.13-0.8,0.23c-0.21,0.09-0.35,0.21-0.45,0.33
	c-0.09,0.13-0.14,0.27-0.14,0.43c0,0.15,0.02,0.28,0.07,0.39c0.05,0.11,0.12,0.2,0.2,0.27c0.08,0.07,0.18,0.12,0.3,0.15
	c0.11,0.03,0.24,0.05,0.37,0.05c0.18,0,0.34-0.02,0.49-0.05c0.15-0.04,0.29-0.09,0.42-0.16c0.13-0.07,0.25-0.15,0.37-0.24
	c0.12-0.09,0.23-0.2,0.35-0.32V667.94z M222.45,665.63c0.12-0.14,0.26-0.27,0.4-0.38c0.14-0.11,0.29-0.21,0.44-0.29
	c0.16-0.08,0.32-0.14,0.5-0.19c0.18-0.04,0.36-0.06,0.57-0.06c0.31,0,0.59,0.05,0.83,0.16c0.24,0.1,0.44,0.25,0.6,0.44
	c0.16,0.19,0.28,0.42,0.36,0.69c0.08,0.27,0.12,0.56,0.12,0.89v3.64h-1.01v-3.64c0-0.43-0.1-0.77-0.3-1.01
	c-0.2-0.24-0.5-0.36-0.9-0.36c-0.3,0-0.58,0.07-0.83,0.21c-0.26,0.14-0.5,0.34-0.71,0.58v4.21h-1.01v-5.72h0.6
	c0.14,0,0.23,0.07,0.27,0.21L222.45,665.63z M230.55,665.6c0.32-0.3,0.66-0.53,1.02-0.68c0.37-0.15,0.77-0.23,1.21-0.23
	c0.32,0,0.6,0.05,0.85,0.16c0.25,0.11,0.46,0.25,0.63,0.44c0.17,0.19,0.3,0.42,0.38,0.68c0.09,0.27,0.13,0.56,0.13,0.88v3.66h-0.45
	c-0.1,0-0.17-0.02-0.23-0.05c-0.05-0.03-0.09-0.1-0.12-0.19l-0.11-0.54c-0.15,0.14-0.3,0.26-0.44,0.37
	c-0.14,0.11-0.29,0.2-0.45,0.27c-0.16,0.07-0.33,0.13-0.51,0.17c-0.18,0.04-0.38,0.06-0.6,0.06c-0.22,0-0.43-0.03-0.63-0.09
	c-0.2-0.06-0.37-0.16-0.51-0.28c-0.15-0.12-0.26-0.28-0.34-0.47c-0.08-0.19-0.13-0.42-0.13-0.67c0-0.23,0.06-0.44,0.19-0.65
	c0.12-0.21,0.33-0.39,0.6-0.56c0.28-0.16,0.64-0.29,1.09-0.4c0.45-0.1,1-0.16,1.65-0.18v-0.45c0-0.44-0.1-0.78-0.29-1.01
	c-0.19-0.23-0.47-0.34-0.84-0.34c-0.25,0-0.46,0.03-0.62,0.09c-0.17,0.06-0.31,0.13-0.43,0.21c-0.12,0.08-0.23,0.15-0.32,0.21
	c-0.09,0.06-0.18,0.09-0.26,0.09c-0.07,0-0.13-0.02-0.18-0.05c-0.05-0.04-0.09-0.08-0.12-0.13L230.55,665.6z M233.8,667.94
	c-0.46,0.02-0.86,0.05-1.18,0.11c-0.33,0.06-0.59,0.13-0.8,0.23c-0.21,0.09-0.35,0.21-0.45,0.33c-0.09,0.13-0.14,0.27-0.14,0.43
	c0,0.15,0.02,0.28,0.07,0.39c0.05,0.11,0.12,0.2,0.2,0.27c0.08,0.07,0.18,0.12,0.3,0.15c0.11,0.03,0.24,0.05,0.37,0.05
	c0.18,0,0.34-0.02,0.49-0.05c0.15-0.04,0.29-0.09,0.42-0.16c0.13-0.07,0.25-0.15,0.37-0.24c0.12-0.09,0.23-0.2,0.35-0.32V667.94z
	 M240.3,665.81c-0.03,0.04-0.06,0.07-0.09,0.1c-0.03,0.02-0.07,0.03-0.12,0.03c-0.06,0-0.12-0.02-0.19-0.07
	c-0.07-0.05-0.15-0.1-0.25-0.16c-0.1-0.06-0.22-0.11-0.37-0.16c-0.15-0.05-0.32-0.07-0.53-0.07c-0.28,0-0.53,0.05-0.75,0.15
	c-0.21,0.1-0.39,0.24-0.54,0.43c-0.15,0.19-0.25,0.42-0.33,0.68c-0.07,0.27-0.11,0.57-0.11,0.9c0,0.35,0.04,0.65,0.12,0.92
	c0.08,0.27,0.19,0.5,0.34,0.68c0.14,0.18,0.32,0.32,0.53,0.42c0.21,0.1,0.44,0.14,0.69,0.14c0.24,0,0.45-0.03,0.6-0.09
	c0.16-0.06,0.29-0.12,0.39-0.19c0.1-0.07,0.19-0.14,0.26-0.19c0.07-0.06,0.14-0.09,0.21-0.09c0.08,0,0.15,0.03,0.19,0.1l0.28,0.37
	c-0.12,0.15-0.27,0.29-0.42,0.4c-0.16,0.11-0.33,0.2-0.51,0.27c-0.18,0.07-0.37,0.13-0.57,0.16c-0.2,0.03-0.4,0.05-0.61,0.05
	c-0.36,0-0.69-0.07-1-0.2c-0.31-0.13-0.57-0.32-0.8-0.57s-0.4-0.56-0.53-0.92c-0.13-0.37-0.19-0.78-0.19-1.25
	c0-0.43,0.06-0.82,0.18-1.18c0.12-0.36,0.29-0.67,0.52-0.93c0.23-0.26,0.51-0.47,0.84-0.61c0.33-0.15,0.72-0.22,1.15-0.22
	c0.4,0,0.76,0.06,1.06,0.19c0.31,0.13,0.58,0.31,0.82,0.55L240.3,665.81z M243.46,670.61c-0.45,0-0.8-0.13-1.04-0.38
	c-0.24-0.25-0.36-0.62-0.36-1.09v-3.5h-0.69c-0.06,0-0.11-0.02-0.15-0.05c-0.04-0.04-0.06-0.09-0.06-0.17v-0.4l0.94-0.12l0.23-1.77
	c0.01-0.06,0.04-0.1,0.08-0.14c0.04-0.04,0.09-0.05,0.16-0.05h0.51v1.97h1.65v0.73h-1.65v3.43c0,0.24,0.06,0.42,0.18,0.54
	c0.12,0.12,0.27,0.18,0.45,0.18c0.11,0,0.2-0.01,0.27-0.04c0.08-0.03,0.14-0.06,0.2-0.09c0.06-0.03,0.1-0.07,0.14-0.09
	c0.04-0.03,0.07-0.04,0.1-0.04c0.05,0,0.1,0.03,0.14,0.1l0.29,0.48c-0.17,0.16-0.38,0.29-0.63,0.38
	C243.97,670.56,243.72,670.61,243.46,670.61z M250.45,664.8v5.72h-0.6c-0.14,0-0.23-0.07-0.27-0.21l-0.08-0.62
	c-0.25,0.27-0.53,0.5-0.84,0.66c-0.31,0.17-0.66,0.25-1.06,0.25c-0.31,0-0.59-0.05-0.83-0.16c-0.24-0.1-0.44-0.25-0.6-0.44
	c-0.16-0.19-0.28-0.42-0.36-0.68c-0.08-0.27-0.12-0.56-0.12-0.89v-3.65h1.01v3.65c0,0.43,0.1,0.77,0.3,1.01
	c0.2,0.24,0.5,0.36,0.91,0.36c0.3,0,0.58-0.07,0.83-0.21c0.26-0.14,0.5-0.34,0.71-0.58v-4.21H250.45z M251.89,665.6
	c0.32-0.3,0.66-0.53,1.02-0.68c0.37-0.15,0.77-0.23,1.21-0.23c0.32,0,0.6,0.05,0.85,0.16c0.25,0.11,0.46,0.25,0.63,0.44
	c0.17,0.19,0.3,0.42,0.38,0.68c0.09,0.27,0.13,0.56,0.13,0.88v3.66h-0.45c-0.1,0-0.17-0.02-0.23-0.05c-0.05-0.03-0.09-0.1-0.12-0.19
	l-0.11-0.54c-0.15,0.14-0.3,0.26-0.44,0.37c-0.14,0.11-0.29,0.2-0.45,0.27c-0.16,0.07-0.33,0.13-0.51,0.17
	c-0.18,0.04-0.38,0.06-0.6,0.06c-0.22,0-0.43-0.03-0.63-0.09c-0.2-0.06-0.37-0.16-0.51-0.28c-0.15-0.12-0.26-0.28-0.34-0.47
	c-0.08-0.19-0.13-0.42-0.13-0.67c0-0.23,0.06-0.44,0.19-0.65c0.12-0.21,0.33-0.39,0.6-0.56c0.28-0.16,0.64-0.29,1.09-0.4
	c0.45-0.1,1-0.16,1.65-0.18v-0.45c0-0.44-0.1-0.78-0.29-1.01c-0.19-0.23-0.47-0.34-0.84-0.34c-0.25,0-0.46,0.03-0.62,0.09
	c-0.17,0.06-0.31,0.13-0.43,0.21c-0.12,0.08-0.23,0.15-0.32,0.21c-0.09,0.06-0.18,0.09-0.26,0.09c-0.07,0-0.13-0.02-0.18-0.05
	c-0.05-0.04-0.09-0.08-0.12-0.13L251.89,665.6z M255.14,667.94c-0.46,0.02-0.86,0.05-1.18,0.11c-0.33,0.06-0.59,0.13-0.8,0.23
	c-0.21,0.09-0.35,0.21-0.45,0.33c-0.09,0.13-0.14,0.27-0.14,0.43c0,0.15,0.02,0.28,0.07,0.39c0.05,0.11,0.12,0.2,0.2,0.27
	c0.08,0.07,0.18,0.12,0.3,0.15c0.11,0.03,0.24,0.05,0.37,0.05c0.18,0,0.34-0.02,0.49-0.05c0.15-0.04,0.29-0.09,0.42-0.16
	c0.13-0.07,0.25-0.15,0.37-0.24c0.12-0.09,0.23-0.2,0.35-0.32V667.94z M258.69,662.2v8.32h-1.01v-8.32H258.69z M267.59,663.69
	c-0.03,0.06-0.07,0.1-0.11,0.13c-0.04,0.03-0.09,0.04-0.14,0.04c-0.06,0-0.14-0.03-0.23-0.1c-0.09-0.06-0.19-0.13-0.32-0.21
	c-0.13-0.08-0.29-0.15-0.47-0.21c-0.18-0.06-0.4-0.1-0.66-0.1c-0.24,0-0.46,0.03-0.65,0.1c-0.19,0.07-0.34,0.16-0.47,0.27
	c-0.13,0.11-0.22,0.25-0.29,0.4c-0.06,0.15-0.1,0.32-0.1,0.49c0,0.23,0.06,0.41,0.17,0.56c0.11,0.15,0.26,0.28,0.44,0.38
	c0.18,0.11,0.39,0.2,0.62,0.27c0.23,0.08,0.47,0.16,0.71,0.24s0.48,0.18,0.71,0.28s0.44,0.23,0.62,0.39
	c0.18,0.16,0.33,0.35,0.44,0.58c0.11,0.23,0.17,0.51,0.17,0.85c0,0.35-0.06,0.69-0.18,1c-0.12,0.31-0.3,0.58-0.53,0.81
	c-0.23,0.23-0.52,0.41-0.85,0.54c-0.34,0.13-0.72,0.2-1.15,0.2c-0.53,0-1.01-0.1-1.43-0.29c-0.43-0.19-0.8-0.45-1.1-0.77l0.32-0.52
	c0.03-0.04,0.07-0.08,0.11-0.1c0.04-0.03,0.09-0.04,0.14-0.04c0.05,0,0.1,0.02,0.17,0.06c0.06,0.04,0.13,0.09,0.21,0.15
	c0.08,0.06,0.17,0.13,0.27,0.2c0.1,0.07,0.22,0.14,0.35,0.2c0.13,0.06,0.28,0.11,0.44,0.15c0.17,0.04,0.35,0.06,0.56,0.06
	c0.26,0,0.49-0.04,0.69-0.11c0.2-0.07,0.38-0.17,0.52-0.3c0.14-0.13,0.25-0.29,0.32-0.47c0.08-0.18,0.11-0.38,0.11-0.6
	c0-0.24-0.06-0.45-0.17-0.6c-0.11-0.16-0.26-0.29-0.44-0.39c-0.18-0.11-0.39-0.19-0.62-0.27c-0.23-0.07-0.47-0.15-0.71-0.23
	c-0.24-0.08-0.48-0.17-0.71-0.27c-0.23-0.1-0.44-0.23-0.62-0.4c-0.18-0.16-0.33-0.36-0.44-0.61c-0.11-0.24-0.17-0.54-0.17-0.9
	c0-0.29,0.06-0.56,0.17-0.83c0.11-0.27,0.27-0.5,0.49-0.71c0.21-0.21,0.47-0.37,0.79-0.5s0.67-0.19,1.07-0.19
	c0.45,0,0.86,0.07,1.23,0.21c0.37,0.14,0.7,0.35,0.98,0.62L267.59,663.69z M271.72,664.71c0.42,0,0.79,0.07,1.13,0.21
	c0.34,0.14,0.62,0.34,0.86,0.59c0.24,0.26,0.42,0.57,0.55,0.93c0.13,0.36,0.19,0.77,0.19,1.22c0,0.45-0.06,0.86-0.19,1.22
	c-0.13,0.36-0.31,0.67-0.55,0.93c-0.24,0.26-0.52,0.45-0.86,0.59c-0.34,0.14-0.71,0.21-1.13,0.21c-0.42,0-0.8-0.07-1.14-0.21
	c-0.34-0.14-0.62-0.33-0.86-0.59c-0.24-0.26-0.42-0.56-0.55-0.93c-0.13-0.36-0.19-0.77-0.19-1.22c0-0.45,0.06-0.85,0.19-1.22
	c0.13-0.36,0.31-0.67,0.55-0.93c0.24-0.26,0.52-0.45,0.86-0.59C270.92,664.77,271.3,664.71,271.72,664.71z M271.72,669.81
	c0.56,0,0.99-0.19,1.27-0.57c0.28-0.38,0.42-0.91,0.42-1.58c0-0.68-0.14-1.21-0.42-1.59c-0.28-0.38-0.7-0.57-1.27-0.57
	c-0.29,0-0.54,0.05-0.75,0.15c-0.21,0.1-0.39,0.24-0.53,0.42c-0.14,0.18-0.25,0.41-0.32,0.68c-0.07,0.27-0.1,0.57-0.1,0.91
	c0,0.68,0.14,1.21,0.42,1.58C270.72,669.62,271.15,669.81,271.72,669.81z M276.75,662.2v8.32h-1.01v-8.32H276.75z M280.79,664.71
	c0.42,0,0.79,0.07,1.13,0.21c0.34,0.14,0.62,0.34,0.86,0.59c0.24,0.26,0.42,0.57,0.55,0.93c0.13,0.36,0.19,0.77,0.19,1.22
	c0,0.45-0.06,0.86-0.19,1.22c-0.13,0.36-0.31,0.67-0.55,0.93c-0.24,0.26-0.52,0.45-0.86,0.59c-0.34,0.14-0.71,0.21-1.13,0.21
	c-0.42,0-0.8-0.07-1.14-0.21c-0.34-0.14-0.62-0.33-0.86-0.59c-0.24-0.26-0.42-0.56-0.55-0.93c-0.13-0.36-0.19-0.77-0.19-1.22
	c0-0.45,0.06-0.85,0.19-1.22c0.13-0.36,0.31-0.67,0.55-0.93c0.24-0.26,0.52-0.45,0.86-0.59
	C279.99,664.77,280.37,664.71,280.79,664.71z M280.79,669.81c0.56,0,0.99-0.19,1.27-0.57c0.28-0.38,0.42-0.91,0.42-1.58
	c0-0.68-0.14-1.21-0.42-1.59c-0.28-0.38-0.7-0.57-1.27-0.57c-0.29,0-0.54,0.05-0.75,0.15c-0.21,0.1-0.39,0.24-0.53,0.42
	c-0.14,0.18-0.25,0.41-0.32,0.68c-0.07,0.27-0.1,0.57-0.1,0.91c0,0.68,0.14,1.21,0.42,1.58
	C279.79,669.62,280.22,669.81,280.79,669.81z M288.12,665.74c-0.05,0.08-0.11,0.12-0.21,0.12c-0.06,0-0.12-0.02-0.19-0.06
	c-0.07-0.04-0.16-0.09-0.26-0.14c-0.1-0.05-0.23-0.1-0.37-0.14c-0.14-0.04-0.31-0.06-0.51-0.06c-0.17,0-0.32,0.02-0.46,0.06
	c-0.14,0.04-0.25,0.1-0.35,0.18c-0.1,0.08-0.17,0.16-0.22,0.26c-0.05,0.1-0.08,0.21-0.08,0.32c0,0.15,0.04,0.27,0.13,0.37
	c0.08,0.1,0.2,0.18,0.34,0.25c0.14,0.07,0.3,0.13,0.47,0.19c0.18,0.05,0.36,0.11,0.55,0.18c0.19,0.06,0.37,0.13,0.55,0.21
	c0.18,0.08,0.34,0.17,0.47,0.28c0.14,0.11,0.25,0.25,0.34,0.42c0.08,0.16,0.13,0.36,0.13,0.59c0,0.26-0.05,0.51-0.14,0.73
	c-0.09,0.22-0.23,0.42-0.42,0.58c-0.18,0.16-0.41,0.29-0.68,0.39c-0.27,0.09-0.58,0.14-0.93,0.14c-0.4,0-0.76-0.06-1.08-0.19
	c-0.32-0.13-0.6-0.3-0.82-0.5l0.24-0.38c0.03-0.05,0.07-0.09,0.11-0.11c0.04-0.03,0.09-0.04,0.16-0.04c0.07,0,0.14,0.03,0.21,0.08
	c0.08,0.05,0.17,0.11,0.27,0.18c0.11,0.06,0.24,0.12,0.39,0.18c0.15,0.05,0.35,0.08,0.58,0.08c0.2,0,0.37-0.03,0.51-0.08
	c0.15-0.05,0.27-0.12,0.37-0.21c0.1-0.09,0.17-0.19,0.22-0.3c0.05-0.11,0.07-0.23,0.07-0.36c0-0.16-0.04-0.29-0.13-0.39
	s-0.2-0.19-0.34-0.27c-0.14-0.07-0.3-0.14-0.48-0.19c-0.18-0.05-0.36-0.11-0.55-0.17c-0.19-0.06-0.37-0.13-0.55-0.21
	c-0.18-0.08-0.34-0.17-0.48-0.29c-0.14-0.12-0.25-0.26-0.34-0.43c-0.08-0.17-0.13-0.38-0.13-0.62c0-0.22,0.05-0.43,0.14-0.63
	c0.09-0.2,0.22-0.38,0.4-0.53c0.17-0.15,0.39-0.27,0.64-0.36c0.25-0.09,0.54-0.14,0.86-0.14c0.38,0,0.71,0.06,1.01,0.18
	c0.3,0.12,0.56,0.28,0.78,0.49L288.12,665.74z M294.32,669.72c-0.12,0.15-0.27,0.28-0.45,0.39c-0.17,0.11-0.36,0.2-0.56,0.27
	c-0.2,0.07-0.4,0.13-0.61,0.16c-0.21,0.04-0.42,0.05-0.63,0.05c-0.4,0-0.76-0.07-1.09-0.2c-0.33-0.13-0.62-0.33-0.86-0.59
	c-0.24-0.26-0.43-0.58-0.57-0.96c-0.14-0.38-0.2-0.82-0.2-1.31c0-0.4,0.06-0.77,0.18-1.12c0.12-0.35,0.3-0.65,0.53-0.9
	c0.23-0.25,0.51-0.45,0.84-0.6c0.33-0.14,0.7-0.22,1.12-0.22c0.34,0,0.66,0.06,0.95,0.17c0.29,0.11,0.54,0.28,0.76,0.5
	c0.21,0.22,0.38,0.48,0.5,0.8c0.12,0.32,0.18,0.68,0.18,1.09c0,0.16-0.02,0.26-0.05,0.32c-0.03,0.05-0.1,0.08-0.19,0.08h-3.82
	c0.01,0.36,0.06,0.68,0.15,0.94c0.09,0.27,0.21,0.49,0.37,0.67c0.16,0.18,0.35,0.31,0.56,0.4c0.22,0.09,0.46,0.13,0.73,0.13
	c0.25,0,0.47-0.03,0.65-0.09c0.18-0.06,0.34-0.12,0.47-0.19c0.13-0.07,0.24-0.13,0.33-0.19c0.09-0.06,0.16-0.09,0.23-0.09
	c0.08,0,0.15,0.03,0.19,0.1L294.32,669.72z M293.51,667.03c0-0.23-0.03-0.45-0.1-0.64c-0.07-0.19-0.16-0.36-0.29-0.5
	c-0.13-0.14-0.28-0.25-0.46-0.33c-0.18-0.08-0.39-0.12-0.62-0.12c-0.48,0-0.86,0.14-1.14,0.42c-0.28,0.28-0.45,0.67-0.52,1.17
	H293.51z M299.62,665.81c-0.03,0.04-0.06,0.07-0.09,0.1c-0.03,0.02-0.07,0.03-0.12,0.03c-0.06,0-0.12-0.02-0.19-0.07
	c-0.07-0.05-0.15-0.1-0.25-0.16c-0.1-0.06-0.22-0.11-0.37-0.16c-0.15-0.05-0.32-0.07-0.53-0.07c-0.28,0-0.53,0.05-0.75,0.15
	c-0.21,0.1-0.39,0.24-0.54,0.43c-0.15,0.19-0.25,0.42-0.33,0.68c-0.07,0.27-0.11,0.57-0.11,0.9c0,0.35,0.04,0.65,0.12,0.92
	c0.08,0.27,0.19,0.5,0.34,0.68c0.14,0.18,0.32,0.32,0.53,0.42c0.21,0.1,0.44,0.14,0.69,0.14c0.24,0,0.45-0.03,0.6-0.09
	c0.16-0.06,0.29-0.12,0.39-0.19c0.1-0.07,0.19-0.14,0.26-0.19c0.07-0.06,0.14-0.09,0.21-0.09c0.08,0,0.15,0.03,0.19,0.1l0.28,0.37
	c-0.12,0.15-0.27,0.29-0.42,0.4c-0.16,0.11-0.33,0.2-0.51,0.27c-0.18,0.07-0.37,0.13-0.57,0.16c-0.2,0.03-0.4,0.05-0.61,0.05
	c-0.36,0-0.69-0.07-1-0.2c-0.31-0.13-0.57-0.32-0.8-0.57c-0.23-0.25-0.4-0.56-0.53-0.92c-0.13-0.37-0.19-0.78-0.19-1.25
	c0-0.43,0.06-0.82,0.18-1.18c0.12-0.36,0.29-0.67,0.52-0.93c0.23-0.26,0.51-0.47,0.84-0.61s0.72-0.22,1.15-0.22
	c0.4,0,0.76,0.06,1.06,0.19c0.31,0.13,0.58,0.31,0.82,0.55L299.62,665.81z M304.88,665.68c0.24-0.3,0.52-0.54,0.84-0.72
	c0.32-0.18,0.68-0.27,1.08-0.27c0.33,0,0.63,0.06,0.9,0.19c0.27,0.13,0.5,0.31,0.68,0.56c0.19,0.25,0.33,0.55,0.43,0.92
	c0.1,0.37,0.15,0.79,0.15,1.26c0,0.42-0.06,0.81-0.17,1.18c-0.11,0.36-0.28,0.68-0.49,0.94c-0.21,0.27-0.47,0.47-0.78,0.63
	c-0.31,0.15-0.65,0.23-1.04,0.23c-0.35,0-0.65-0.06-0.9-0.18c-0.25-0.12-0.47-0.28-0.66-0.49v2.53h-1.01v-7.66h0.6
	c0.14,0,0.23,0.07,0.27,0.21L304.88,665.68z M304.93,669.14c0.18,0.25,0.39,0.42,0.6,0.53c0.22,0.1,0.46,0.15,0.73,0.15
	c0.53,0,0.95-0.19,1.23-0.57c0.29-0.38,0.43-0.92,0.43-1.63c0-0.37-0.03-0.69-0.1-0.96c-0.07-0.27-0.16-0.49-0.29-0.66
	c-0.12-0.17-0.28-0.3-0.46-0.38c-0.18-0.08-0.39-0.12-0.62-0.12c-0.33,0-0.61,0.08-0.86,0.23c-0.25,0.15-0.47,0.36-0.68,0.64V669.14
	z M310.1,665.6c0.32-0.3,0.66-0.53,1.02-0.68c0.37-0.15,0.77-0.23,1.21-0.23c0.32,0,0.6,0.05,0.85,0.16
	c0.25,0.11,0.46,0.25,0.63,0.44c0.17,0.19,0.3,0.42,0.38,0.68c0.09,0.27,0.13,0.56,0.13,0.88v3.66h-0.45c-0.1,0-0.17-0.02-0.23-0.05
	c-0.05-0.03-0.09-0.1-0.12-0.19l-0.11-0.54c-0.15,0.14-0.3,0.26-0.44,0.37c-0.14,0.11-0.29,0.2-0.45,0.27
	c-0.16,0.07-0.33,0.13-0.51,0.17c-0.18,0.04-0.38,0.06-0.6,0.06c-0.22,0-0.43-0.03-0.63-0.09c-0.2-0.06-0.37-0.16-0.51-0.28
	c-0.15-0.12-0.26-0.28-0.34-0.47c-0.08-0.19-0.13-0.42-0.13-0.67c0-0.23,0.06-0.44,0.19-0.65c0.12-0.21,0.33-0.39,0.6-0.56
	c0.28-0.16,0.64-0.29,1.09-0.4c0.45-0.1,1-0.16,1.65-0.18v-0.45c0-0.44-0.1-0.78-0.29-1.01c-0.19-0.23-0.47-0.34-0.84-0.34
	c-0.25,0-0.46,0.03-0.62,0.09c-0.17,0.06-0.31,0.13-0.43,0.21c-0.12,0.08-0.23,0.15-0.32,0.21c-0.09,0.06-0.18,0.09-0.26,0.09
	c-0.07,0-0.13-0.02-0.18-0.05c-0.05-0.04-0.09-0.08-0.12-0.13L310.1,665.6z M313.35,667.94c-0.46,0.02-0.86,0.05-1.18,0.11
	c-0.33,0.06-0.59,0.13-0.8,0.23c-0.21,0.09-0.35,0.21-0.45,0.33c-0.09,0.13-0.14,0.27-0.14,0.43c0,0.15,0.02,0.28,0.07,0.39
	c0.05,0.11,0.12,0.2,0.2,0.27c0.08,0.07,0.18,0.12,0.3,0.15c0.11,0.03,0.24,0.05,0.37,0.05c0.18,0,0.34-0.02,0.49-0.05
	c0.15-0.04,0.29-0.09,0.42-0.16c0.13-0.07,0.25-0.15,0.37-0.24c0.12-0.09,0.23-0.2,0.35-0.32V667.94z M321.1,670.52h-1.01v-4.88
	h-2.95v3.43c0,0.24,0.06,0.42,0.18,0.54c0.12,0.12,0.27,0.18,0.45,0.18c0.11,0,0.2-0.01,0.27-0.04c0.08-0.03,0.14-0.06,0.2-0.09
	c0.06-0.03,0.1-0.07,0.14-0.09c0.04-0.03,0.07-0.04,0.1-0.04c0.05,0,0.1,0.03,0.14,0.1l0.29,0.48c-0.17,0.16-0.38,0.29-0.63,0.38
	c-0.24,0.09-0.5,0.14-0.76,0.14c-0.45,0-0.8-0.13-1.04-0.38c-0.24-0.25-0.36-0.62-0.36-1.09v-3.5h-0.69c-0.06,0-0.11-0.02-0.15-0.05
	c-0.04-0.04-0.06-0.09-0.06-0.17v-0.4l0.94-0.12l0.23-1.76c0.01-0.06,0.04-0.1,0.08-0.14c0.04-0.04,0.09-0.05,0.16-0.05h0.51v1.97
	h3.95V670.52z M321.35,662.96c0,0.1-0.02,0.19-0.06,0.27s-0.09,0.16-0.16,0.22c-0.07,0.06-0.14,0.11-0.23,0.15
	c-0.09,0.04-0.18,0.06-0.28,0.06c-0.1,0-0.19-0.02-0.27-0.06c-0.08-0.04-0.16-0.09-0.22-0.15c-0.06-0.06-0.11-0.14-0.15-0.22
	c-0.04-0.08-0.06-0.18-0.06-0.27c0-0.1,0.02-0.19,0.06-0.28c0.04-0.09,0.09-0.17,0.15-0.23c0.06-0.07,0.14-0.12,0.22-0.16
	c0.08-0.04,0.18-0.06,0.27-0.06c0.1,0,0.19,0.02,0.28,0.06c0.09,0.04,0.16,0.09,0.23,0.16c0.07,0.07,0.12,0.14,0.16,0.23
	C321.33,662.77,321.35,662.86,321.35,662.96z M327.39,669.72c-0.12,0.15-0.27,0.28-0.45,0.39c-0.17,0.11-0.36,0.2-0.56,0.27
	c-0.2,0.07-0.4,0.13-0.61,0.16c-0.21,0.04-0.42,0.05-0.63,0.05c-0.4,0-0.76-0.07-1.09-0.2s-0.62-0.33-0.86-0.59
	c-0.24-0.26-0.43-0.58-0.57-0.96c-0.14-0.38-0.2-0.82-0.2-1.31c0-0.4,0.06-0.77,0.18-1.12c0.12-0.35,0.3-0.65,0.53-0.9
	c0.23-0.25,0.51-0.45,0.84-0.6c0.33-0.14,0.7-0.22,1.12-0.22c0.34,0,0.66,0.06,0.95,0.17c0.29,0.11,0.54,0.28,0.76,0.5
	c0.21,0.22,0.38,0.48,0.5,0.8c0.12,0.32,0.18,0.68,0.18,1.09c0,0.16-0.02,0.26-0.05,0.32c-0.03,0.05-0.1,0.08-0.19,0.08h-3.82
	c0.01,0.36,0.06,0.68,0.15,0.94c0.09,0.27,0.21,0.49,0.37,0.67c0.16,0.18,0.35,0.31,0.56,0.4c0.22,0.09,0.46,0.13,0.73,0.13
	c0.25,0,0.47-0.03,0.65-0.09c0.18-0.06,0.34-0.12,0.47-0.19c0.13-0.07,0.24-0.13,0.33-0.19c0.09-0.06,0.16-0.09,0.23-0.09
	c0.08,0,0.15,0.03,0.19,0.1L327.39,669.72z M326.58,667.03c0-0.23-0.03-0.45-0.1-0.64c-0.07-0.19-0.16-0.36-0.29-0.5
	c-0.13-0.14-0.28-0.25-0.46-0.33c-0.18-0.08-0.39-0.12-0.62-0.12c-0.48,0-0.86,0.14-1.14,0.42c-0.28,0.28-0.45,0.67-0.52,1.17
	H326.58z M329.66,665.63c0.12-0.14,0.26-0.27,0.4-0.38c0.14-0.11,0.29-0.21,0.44-0.29c0.16-0.08,0.32-0.14,0.5-0.19
	c0.18-0.04,0.36-0.06,0.57-0.06c0.31,0,0.59,0.05,0.83,0.16c0.24,0.1,0.44,0.25,0.6,0.44c0.16,0.19,0.28,0.42,0.36,0.69
	c0.08,0.27,0.12,0.56,0.12,0.89v3.64h-1.01v-3.64c0-0.43-0.1-0.77-0.3-1.01s-0.5-0.36-0.9-0.36c-0.3,0-0.58,0.07-0.83,0.21
	c-0.26,0.14-0.5,0.34-0.71,0.58v4.21h-1.01v-5.72h0.6c0.14,0,0.23,0.07,0.27,0.21L329.66,665.63z M336.69,670.61
	c-0.45,0-0.8-0.13-1.04-0.38c-0.24-0.25-0.36-0.62-0.36-1.09v-3.5h-0.69c-0.06,0-0.11-0.02-0.15-0.05
	c-0.04-0.04-0.06-0.09-0.06-0.17v-0.4l0.94-0.12l0.23-1.77c0.01-0.06,0.04-0.1,0.08-0.14c0.04-0.04,0.09-0.05,0.16-0.05h0.51v1.97
	h1.65v0.73h-1.65v3.43c0,0.24,0.06,0.42,0.18,0.54c0.12,0.12,0.27,0.18,0.45,0.18c0.11,0,0.2-0.01,0.27-0.04
	c0.08-0.03,0.14-0.06,0.2-0.09c0.06-0.03,0.1-0.07,0.14-0.09c0.04-0.03,0.07-0.04,0.1-0.04c0.05,0,0.1,0.03,0.14,0.1l0.29,0.48
	c-0.17,0.16-0.38,0.29-0.63,0.38C337.21,670.56,336.95,670.61,336.69,670.61z M349.53,664.8l-1.85,5.72h-0.8
	c-0.1,0-0.17-0.06-0.2-0.19l-1.27-3.88c-0.03-0.09-0.05-0.17-0.07-0.26c-0.02-0.09-0.04-0.18-0.06-0.26
	c-0.02,0.09-0.04,0.17-0.06,0.26c-0.02,0.09-0.04,0.18-0.07,0.27l-1.29,3.87c-0.03,0.13-0.11,0.19-0.23,0.19h-0.76l-1.85-5.72h0.79
	c0.08,0,0.15,0.02,0.2,0.06c0.05,0.04,0.09,0.09,0.11,0.15l1.1,3.68c0.06,0.27,0.11,0.53,0.15,0.77c0.03-0.12,0.07-0.25,0.1-0.38
	c0.04-0.13,0.07-0.26,0.12-0.39l1.21-3.71c0.02-0.06,0.05-0.1,0.1-0.14c0.05-0.04,0.1-0.06,0.17-0.06h0.44
	c0.08,0,0.14,0.02,0.19,0.06c0.05,0.04,0.08,0.08,0.1,0.14l1.18,3.71c0.04,0.13,0.08,0.26,0.11,0.39c0.03,0.13,0.07,0.25,0.1,0.38
	c0.02-0.12,0.04-0.25,0.07-0.38s0.06-0.26,0.09-0.39l1.12-3.68c0.02-0.06,0.05-0.11,0.11-0.15c0.05-0.04,0.11-0.06,0.19-0.06H349.53
	z M351.52,665.56c0.24-0.26,0.52-0.47,0.81-0.62c0.3-0.15,0.64-0.23,1.03-0.23c0.31,0,0.59,0.05,0.83,0.16
	c0.24,0.1,0.44,0.25,0.6,0.44c0.16,0.19,0.28,0.42,0.36,0.69c0.08,0.27,0.12,0.56,0.12,0.89v3.64h-1.01v-3.64
	c0-0.43-0.1-0.77-0.3-1.01c-0.2-0.24-0.5-0.36-0.9-0.36c-0.3,0-0.58,0.07-0.83,0.21c-0.26,0.14-0.5,0.34-0.71,0.58v4.21h-1.01v-8.32
	h1.01V665.56z M359.23,664.71c0.42,0,0.79,0.07,1.13,0.21c0.34,0.14,0.62,0.34,0.86,0.59c0.24,0.26,0.42,0.57,0.55,0.93
	c0.13,0.36,0.19,0.77,0.19,1.22c0,0.45-0.06,0.86-0.19,1.22c-0.13,0.36-0.31,0.67-0.55,0.93c-0.24,0.26-0.52,0.45-0.86,0.59
	c-0.34,0.14-0.71,0.21-1.13,0.21c-0.42,0-0.8-0.07-1.14-0.21c-0.34-0.14-0.62-0.33-0.86-0.59c-0.24-0.26-0.42-0.56-0.55-0.93
	c-0.13-0.36-0.19-0.77-0.19-1.22c0-0.45,0.06-0.85,0.19-1.22c0.13-0.36,0.31-0.67,0.55-0.93c0.24-0.26,0.52-0.45,0.86-0.59
	C358.43,664.77,358.8,664.71,359.23,664.71z M359.23,669.81c0.56,0,0.99-0.19,1.27-0.57c0.28-0.38,0.42-0.91,0.42-1.58
	c0-0.68-0.14-1.21-0.42-1.59c-0.28-0.38-0.7-0.57-1.27-0.57c-0.29,0-0.54,0.05-0.75,0.15c-0.21,0.1-0.39,0.24-0.53,0.42
	c-0.14,0.18-0.25,0.41-0.32,0.68c-0.07,0.27-0.1,0.57-0.1,0.91c0,0.68,0.14,1.21,0.42,1.58
	C358.23,669.62,358.65,669.81,359.23,669.81z M373.77,664.8l-1.85,5.72h-0.8c-0.1,0-0.17-0.06-0.2-0.19l-1.27-3.88
	c-0.03-0.09-0.05-0.17-0.07-0.26c-0.02-0.09-0.04-0.18-0.06-0.26c-0.02,0.09-0.04,0.17-0.06,0.26c-0.02,0.09-0.04,0.18-0.07,0.27
	l-1.29,3.87c-0.03,0.13-0.11,0.19-0.23,0.19h-0.76l-1.85-5.72h0.79c0.08,0,0.15,0.02,0.2,0.06c0.05,0.04,0.09,0.09,0.11,0.15
	l1.1,3.68c0.06,0.27,0.11,0.53,0.15,0.77c0.03-0.12,0.07-0.25,0.1-0.38c0.04-0.13,0.07-0.26,0.12-0.39l1.21-3.71
	c0.02-0.06,0.05-0.1,0.1-0.14c0.05-0.04,0.1-0.06,0.17-0.06h0.44c0.08,0,0.14,0.02,0.19,0.06c0.05,0.04,0.08,0.08,0.1,0.14
	l1.18,3.71c0.04,0.13,0.08,0.26,0.11,0.39c0.03,0.13,0.07,0.25,0.1,0.38c0.02-0.12,0.04-0.25,0.07-0.38
	c0.03-0.13,0.06-0.26,0.09-0.39l1.12-3.68c0.02-0.06,0.05-0.11,0.11-0.15c0.05-0.04,0.11-0.06,0.19-0.06H373.77z M374.54,665.6
	c0.32-0.3,0.66-0.53,1.02-0.68c0.37-0.15,0.77-0.23,1.21-0.23c0.32,0,0.6,0.05,0.85,0.16c0.25,0.11,0.46,0.25,0.63,0.44
	c0.17,0.19,0.3,0.42,0.38,0.68c0.09,0.27,0.13,0.56,0.13,0.88v3.66h-0.45c-0.1,0-0.17-0.02-0.23-0.05c-0.05-0.03-0.09-0.1-0.12-0.19
	l-0.11-0.54c-0.15,0.14-0.3,0.26-0.44,0.37c-0.14,0.11-0.29,0.2-0.45,0.27c-0.16,0.07-0.33,0.13-0.51,0.17
	c-0.18,0.04-0.38,0.06-0.6,0.06c-0.22,0-0.43-0.03-0.63-0.09c-0.2-0.06-0.37-0.16-0.51-0.28c-0.15-0.12-0.26-0.28-0.34-0.47
	c-0.08-0.19-0.13-0.42-0.13-0.67c0-0.23,0.06-0.44,0.19-0.65s0.33-0.39,0.6-0.56c0.28-0.16,0.64-0.29,1.09-0.4
	c0.45-0.1,1-0.16,1.65-0.18v-0.45c0-0.44-0.1-0.78-0.29-1.01c-0.19-0.23-0.47-0.34-0.84-0.34c-0.25,0-0.46,0.03-0.62,0.09
	c-0.17,0.06-0.31,0.13-0.43,0.21c-0.12,0.08-0.23,0.15-0.32,0.21c-0.09,0.06-0.18,0.09-0.26,0.09c-0.07,0-0.13-0.02-0.18-0.05
	c-0.05-0.04-0.09-0.08-0.12-0.13L374.54,665.6z M377.79,667.94c-0.46,0.02-0.86,0.05-1.18,0.11c-0.33,0.06-0.59,0.13-0.8,0.23
	c-0.21,0.09-0.35,0.21-0.45,0.33c-0.09,0.13-0.14,0.27-0.14,0.43c0,0.15,0.02,0.28,0.07,0.39c0.05,0.11,0.12,0.2,0.2,0.27
	c0.08,0.07,0.18,0.12,0.3,0.15c0.11,0.03,0.24,0.05,0.37,0.05c0.18,0,0.34-0.02,0.49-0.05c0.15-0.04,0.29-0.09,0.42-0.16
	c0.13-0.07,0.25-0.15,0.37-0.24c0.12-0.09,0.23-0.2,0.35-0.32V667.94z M383.63,665.74c-0.05,0.08-0.11,0.12-0.21,0.12
	c-0.06,0-0.12-0.02-0.19-0.06c-0.07-0.04-0.16-0.09-0.26-0.14c-0.1-0.05-0.23-0.1-0.37-0.14c-0.14-0.04-0.31-0.06-0.51-0.06
	c-0.17,0-0.32,0.02-0.46,0.06c-0.14,0.04-0.25,0.1-0.35,0.18c-0.1,0.08-0.17,0.16-0.22,0.26c-0.05,0.1-0.08,0.21-0.08,0.32
	c0,0.15,0.04,0.27,0.13,0.37c0.08,0.1,0.2,0.18,0.34,0.25c0.14,0.07,0.3,0.13,0.47,0.19c0.18,0.05,0.36,0.11,0.55,0.18
	c0.19,0.06,0.37,0.13,0.55,0.21c0.18,0.08,0.34,0.17,0.47,0.28c0.14,0.11,0.25,0.25,0.34,0.42c0.08,0.16,0.13,0.36,0.13,0.59
	c0,0.26-0.05,0.51-0.14,0.73c-0.09,0.22-0.23,0.42-0.42,0.58c-0.18,0.16-0.41,0.29-0.68,0.39c-0.27,0.09-0.58,0.14-0.93,0.14
	c-0.4,0-0.76-0.06-1.08-0.19c-0.32-0.13-0.6-0.3-0.82-0.5l0.24-0.38c0.03-0.05,0.07-0.09,0.11-0.11c0.04-0.03,0.09-0.04,0.16-0.04
	c0.07,0,0.14,0.03,0.21,0.08c0.08,0.05,0.17,0.11,0.27,0.18c0.11,0.06,0.24,0.12,0.39,0.18c0.15,0.05,0.35,0.08,0.58,0.08
	c0.2,0,0.37-0.03,0.51-0.08c0.15-0.05,0.27-0.12,0.37-0.21c0.1-0.09,0.17-0.19,0.22-0.3c0.05-0.11,0.07-0.23,0.07-0.36
	c0-0.16-0.04-0.29-0.13-0.39c-0.08-0.1-0.2-0.19-0.34-0.27c-0.14-0.07-0.3-0.14-0.48-0.19c-0.18-0.05-0.36-0.11-0.55-0.17
	c-0.19-0.06-0.37-0.13-0.55-0.21c-0.18-0.08-0.34-0.17-0.48-0.29c-0.14-0.12-0.25-0.26-0.34-0.43c-0.08-0.17-0.13-0.38-0.13-0.62
	c0-0.22,0.05-0.43,0.14-0.63c0.09-0.2,0.22-0.38,0.4-0.53c0.17-0.15,0.39-0.27,0.64-0.36c0.25-0.09,0.54-0.14,0.86-0.14
	c0.38,0,0.71,0.06,1.01,0.18c0.3,0.12,0.56,0.28,0.78,0.49L383.63,665.74z M392.07,665.81c-0.03,0.04-0.06,0.07-0.09,0.1
	c-0.03,0.02-0.07,0.03-0.12,0.03c-0.06,0-0.12-0.02-0.19-0.07c-0.07-0.05-0.15-0.1-0.25-0.16c-0.1-0.06-0.22-0.11-0.37-0.16
	c-0.14-0.05-0.32-0.07-0.53-0.07c-0.28,0-0.53,0.05-0.75,0.15c-0.21,0.1-0.39,0.24-0.54,0.43c-0.14,0.19-0.25,0.42-0.33,0.68
	c-0.07,0.27-0.11,0.57-0.11,0.9c0,0.35,0.04,0.65,0.12,0.92c0.08,0.27,0.19,0.5,0.34,0.68c0.14,0.18,0.32,0.32,0.53,0.42
	c0.21,0.1,0.44,0.14,0.69,0.14c0.24,0,0.45-0.03,0.6-0.09c0.16-0.06,0.29-0.12,0.39-0.19c0.1-0.07,0.19-0.14,0.26-0.19
	c0.07-0.06,0.14-0.09,0.21-0.09c0.08,0,0.15,0.03,0.19,0.1l0.28,0.37c-0.12,0.15-0.27,0.29-0.42,0.4c-0.16,0.11-0.33,0.2-0.51,0.27
	c-0.18,0.07-0.37,0.13-0.57,0.16c-0.2,0.03-0.4,0.05-0.61,0.05c-0.36,0-0.69-0.07-1-0.2c-0.31-0.13-0.57-0.32-0.8-0.57
	c-0.23-0.25-0.4-0.56-0.53-0.92c-0.13-0.37-0.19-0.78-0.19-1.25c0-0.43,0.06-0.82,0.18-1.18c0.12-0.36,0.29-0.67,0.52-0.93
	c0.23-0.26,0.51-0.47,0.84-0.61c0.33-0.15,0.72-0.22,1.15-0.22c0.4,0,0.76,0.06,1.06,0.19c0.31,0.13,0.58,0.31,0.82,0.55
	L392.07,665.81z M395.79,664.71c0.42,0,0.79,0.07,1.13,0.21c0.34,0.14,0.62,0.34,0.86,0.59c0.24,0.26,0.42,0.57,0.55,0.93
	c0.13,0.36,0.19,0.77,0.19,1.22c0,0.45-0.06,0.86-0.19,1.22c-0.13,0.36-0.31,0.67-0.55,0.93c-0.24,0.26-0.52,0.45-0.86,0.59
	c-0.34,0.14-0.71,0.21-1.13,0.21c-0.42,0-0.8-0.07-1.14-0.21c-0.34-0.14-0.62-0.33-0.86-0.59c-0.24-0.26-0.42-0.56-0.55-0.93
	c-0.13-0.36-0.19-0.77-0.19-1.22c0-0.45,0.06-0.85,0.19-1.22c0.13-0.36,0.31-0.67,0.55-0.93c0.24-0.26,0.52-0.45,0.86-0.59
	C394.99,664.77,395.37,664.71,395.79,664.71z M395.79,669.81c0.56,0,0.99-0.19,1.27-0.57c0.28-0.38,0.42-0.91,0.42-1.58
	c0-0.68-0.14-1.21-0.42-1.59c-0.28-0.38-0.7-0.57-1.27-0.57c-0.29,0-0.54,0.05-0.75,0.15c-0.21,0.1-0.39,0.24-0.53,0.42
	c-0.14,0.18-0.25,0.41-0.32,0.68c-0.07,0.27-0.1,0.57-0.1,0.91c0,0.68,0.14,1.21,0.42,1.58
	C394.79,669.62,395.22,669.81,395.79,669.81z M399.78,670.52v-5.72h0.6c0.14,0,0.23,0.07,0.27,0.21l0.07,0.59
	c0.21-0.26,0.45-0.47,0.71-0.64c0.26-0.17,0.57-0.25,0.92-0.25c0.38,0,0.7,0.11,0.93,0.32c0.24,0.21,0.41,0.5,0.52,0.87
	c0.08-0.21,0.19-0.39,0.32-0.54c0.13-0.15,0.28-0.27,0.44-0.37c0.16-0.1,0.33-0.17,0.52-0.21c0.18-0.05,0.37-0.07,0.56-0.07
	c0.3,0,0.57,0.05,0.8,0.14c0.24,0.1,0.43,0.24,0.6,0.42c0.16,0.18,0.29,0.41,0.38,0.68c0.09,0.27,0.13,0.58,0.13,0.92v3.64h-1.01
	v-3.64c0-0.45-0.1-0.79-0.29-1.02c-0.2-0.23-0.48-0.35-0.85-0.35c-0.17,0-0.32,0.03-0.47,0.09c-0.15,0.06-0.28,0.14-0.39,0.26
	c-0.11,0.11-0.2,0.26-0.27,0.43c-0.07,0.17-0.1,0.37-0.1,0.6v3.64h-1.01v-3.64c0-0.46-0.09-0.8-0.28-1.03
	c-0.18-0.23-0.45-0.34-0.81-0.34c-0.25,0-0.48,0.07-0.69,0.2c-0.21,0.13-0.4,0.32-0.58,0.55v4.26H399.78z M410.03,665.68
	c0.24-0.3,0.52-0.54,0.84-0.72c0.32-0.18,0.68-0.27,1.08-0.27c0.33,0,0.63,0.06,0.9,0.19c0.27,0.13,0.5,0.31,0.68,0.56
	c0.19,0.25,0.33,0.55,0.43,0.92c0.1,0.37,0.15,0.79,0.15,1.26c0,0.42-0.06,0.81-0.17,1.18c-0.11,0.36-0.28,0.68-0.49,0.94
	c-0.21,0.27-0.47,0.47-0.78,0.63c-0.31,0.15-0.65,0.23-1.04,0.23c-0.35,0-0.65-0.06-0.9-0.18c-0.25-0.12-0.47-0.28-0.66-0.49v2.53
	h-1.01v-7.66h0.6c0.14,0,0.23,0.07,0.27,0.21L410.03,665.68z M410.08,669.14c0.18,0.25,0.39,0.42,0.6,0.53
	c0.22,0.1,0.46,0.15,0.73,0.15c0.53,0,0.95-0.19,1.23-0.57c0.29-0.38,0.43-0.92,0.43-1.63c0-0.37-0.03-0.69-0.1-0.96
	c-0.07-0.27-0.16-0.49-0.29-0.66c-0.12-0.17-0.28-0.3-0.46-0.38c-0.18-0.08-0.39-0.12-0.62-0.12c-0.33,0-0.61,0.08-0.86,0.23
	c-0.25,0.15-0.47,0.36-0.68,0.64V669.14z M420.04,669.72c-0.12,0.15-0.27,0.28-0.45,0.39c-0.17,0.11-0.36,0.2-0.56,0.27
	c-0.2,0.07-0.4,0.13-0.61,0.16c-0.21,0.04-0.42,0.05-0.63,0.05c-0.4,0-0.76-0.07-1.09-0.2c-0.33-0.13-0.62-0.33-0.86-0.59
	c-0.24-0.26-0.43-0.58-0.57-0.96c-0.14-0.38-0.2-0.82-0.2-1.31c0-0.4,0.06-0.77,0.18-1.12c0.12-0.35,0.3-0.65,0.53-0.9
	c0.23-0.25,0.51-0.45,0.84-0.6c0.33-0.14,0.7-0.22,1.12-0.22c0.34,0,0.66,0.06,0.95,0.17c0.29,0.11,0.54,0.28,0.76,0.5
	c0.21,0.22,0.38,0.48,0.5,0.8c0.12,0.32,0.18,0.68,0.18,1.09c0,0.16-0.02,0.26-0.05,0.32c-0.03,0.05-0.1,0.08-0.19,0.08h-3.82
	c0.01,0.36,0.06,0.68,0.15,0.94c0.09,0.27,0.21,0.49,0.37,0.67c0.16,0.18,0.35,0.31,0.56,0.4c0.22,0.09,0.46,0.13,0.73,0.13
	c0.25,0,0.47-0.03,0.65-0.09c0.18-0.06,0.34-0.12,0.47-0.19c0.13-0.07,0.24-0.13,0.33-0.19c0.09-0.06,0.16-0.09,0.23-0.09
	c0.08,0,0.15,0.03,0.19,0.1L420.04,669.72z M419.23,667.03c0-0.23-0.03-0.45-0.1-0.64c-0.07-0.19-0.16-0.36-0.29-0.5
	c-0.13-0.14-0.28-0.25-0.46-0.33c-0.18-0.08-0.39-0.12-0.62-0.12c-0.48,0-0.86,0.14-1.14,0.42c-0.28,0.28-0.45,0.67-0.52,1.17
	H419.23z M422.31,665.63c0.12-0.14,0.26-0.27,0.4-0.38c0.14-0.11,0.29-0.21,0.44-0.29c0.16-0.08,0.32-0.14,0.5-0.19
	c0.18-0.04,0.36-0.06,0.57-0.06c0.31,0,0.59,0.05,0.83,0.16c0.24,0.1,0.44,0.25,0.6,0.44c0.16,0.19,0.28,0.42,0.36,0.69
	c0.08,0.27,0.12,0.56,0.12,0.89v3.64h-1.01v-3.64c0-0.43-0.1-0.77-0.3-1.01c-0.2-0.24-0.5-0.36-0.9-0.36c-0.3,0-0.58,0.07-0.83,0.21
	c-0.26,0.14-0.5,0.34-0.71,0.58v4.21h-1.01v-5.72h0.6c0.14,0,0.23,0.07,0.27,0.21L422.31,665.63z M431,665.74
	c-0.05,0.08-0.11,0.12-0.21,0.12c-0.06,0-0.12-0.02-0.19-0.06c-0.07-0.04-0.16-0.09-0.26-0.14c-0.1-0.05-0.23-0.1-0.37-0.14
	c-0.14-0.04-0.31-0.06-0.51-0.06c-0.17,0-0.32,0.02-0.46,0.06c-0.14,0.04-0.25,0.1-0.35,0.18s-0.17,0.16-0.22,0.26
	c-0.05,0.1-0.08,0.21-0.08,0.32c0,0.15,0.04,0.27,0.13,0.37c0.08,0.1,0.2,0.18,0.34,0.25c0.14,0.07,0.3,0.13,0.47,0.19
	c0.18,0.05,0.36,0.11,0.55,0.18c0.19,0.06,0.37,0.13,0.55,0.21c0.18,0.08,0.34,0.17,0.47,0.28c0.14,0.11,0.25,0.25,0.34,0.42
	c0.08,0.16,0.13,0.36,0.13,0.59c0,0.26-0.05,0.51-0.14,0.73c-0.09,0.22-0.23,0.42-0.42,0.58s-0.41,0.29-0.68,0.39
	c-0.27,0.09-0.58,0.14-0.93,0.14c-0.4,0-0.76-0.06-1.08-0.19c-0.32-0.13-0.6-0.3-0.82-0.5l0.24-0.38c0.03-0.05,0.07-0.09,0.11-0.11
	c0.04-0.03,0.09-0.04,0.16-0.04c0.07,0,0.14,0.03,0.21,0.08c0.08,0.05,0.17,0.11,0.27,0.18c0.11,0.06,0.24,0.12,0.39,0.18
	c0.15,0.05,0.35,0.08,0.58,0.08c0.2,0,0.37-0.03,0.51-0.08s0.27-0.12,0.37-0.21c0.1-0.09,0.17-0.19,0.22-0.3
	c0.05-0.11,0.07-0.23,0.07-0.36c0-0.16-0.04-0.29-0.13-0.39s-0.2-0.19-0.34-0.27c-0.14-0.07-0.3-0.14-0.48-0.19
	c-0.18-0.05-0.36-0.11-0.55-0.17c-0.19-0.06-0.37-0.13-0.55-0.21c-0.18-0.08-0.34-0.17-0.48-0.29c-0.14-0.12-0.25-0.26-0.34-0.43
	c-0.08-0.17-0.13-0.38-0.13-0.62c0-0.22,0.05-0.43,0.14-0.63c0.09-0.2,0.22-0.38,0.4-0.53c0.17-0.15,0.39-0.27,0.64-0.36
	c0.25-0.09,0.54-0.14,0.86-0.14c0.38,0,0.71,0.06,1.01,0.18c0.3,0.12,0.56,0.28,0.78,0.49L431,665.74z M432.41,665.6
	c0.32-0.3,0.66-0.53,1.02-0.68c0.37-0.15,0.77-0.23,1.21-0.23c0.32,0,0.6,0.05,0.85,0.16c0.25,0.11,0.46,0.25,0.63,0.44
	c0.17,0.19,0.3,0.42,0.38,0.68c0.09,0.27,0.13,0.56,0.13,0.88v3.66h-0.45c-0.1,0-0.17-0.02-0.23-0.05c-0.05-0.03-0.09-0.1-0.12-0.19
	l-0.11-0.54c-0.15,0.14-0.3,0.26-0.44,0.37c-0.14,0.11-0.29,0.2-0.45,0.27c-0.16,0.07-0.33,0.13-0.51,0.17
	c-0.18,0.04-0.38,0.06-0.6,0.06c-0.22,0-0.43-0.03-0.63-0.09c-0.2-0.06-0.37-0.16-0.51-0.28c-0.15-0.12-0.26-0.28-0.34-0.47
	c-0.08-0.19-0.13-0.42-0.13-0.67c0-0.23,0.06-0.44,0.19-0.65c0.12-0.21,0.33-0.39,0.6-0.56c0.28-0.16,0.64-0.29,1.09-0.4
	c0.45-0.1,1-0.16,1.65-0.18v-0.45c0-0.44-0.1-0.78-0.29-1.01c-0.19-0.23-0.47-0.34-0.84-0.34c-0.25,0-0.46,0.03-0.62,0.09
	c-0.17,0.06-0.31,0.13-0.43,0.21c-0.12,0.08-0.23,0.15-0.32,0.21c-0.09,0.06-0.18,0.09-0.26,0.09c-0.07,0-0.13-0.02-0.18-0.05
	c-0.05-0.04-0.09-0.08-0.12-0.13L432.41,665.6z M435.66,667.94c-0.46,0.02-0.86,0.05-1.18,0.11c-0.33,0.06-0.59,0.13-0.8,0.23
	c-0.21,0.09-0.35,0.21-0.45,0.33c-0.09,0.13-0.14,0.27-0.14,0.43c0,0.15,0.02,0.28,0.07,0.39c0.05,0.11,0.12,0.2,0.2,0.27
	c0.08,0.07,0.18,0.12,0.3,0.15c0.11,0.03,0.24,0.05,0.37,0.05c0.18,0,0.34-0.02,0.49-0.05c0.15-0.04,0.29-0.09,0.42-0.16
	c0.13-0.07,0.25-0.15,0.37-0.24c0.12-0.09,0.23-0.2,0.35-0.32V667.94z M439.85,670.61c-0.45,0-0.8-0.13-1.04-0.38
	c-0.24-0.25-0.36-0.62-0.36-1.09v-3.5h-0.69c-0.06,0-0.11-0.02-0.15-0.05c-0.04-0.04-0.06-0.09-0.06-0.17v-0.4l0.94-0.12l0.23-1.77
	c0.01-0.06,0.04-0.1,0.08-0.14c0.04-0.04,0.09-0.05,0.16-0.05h0.51v1.97h1.65v0.73h-1.65v3.43c0,0.24,0.06,0.42,0.18,0.54
	c0.12,0.12,0.27,0.18,0.45,0.18c0.11,0,0.2-0.01,0.27-0.04c0.08-0.03,0.14-0.06,0.2-0.09c0.06-0.03,0.1-0.07,0.14-0.09
	c0.04-0.03,0.07-0.04,0.1-0.04c0.05,0,0.1,0.03,0.14,0.1l0.29,0.48c-0.17,0.16-0.38,0.29-0.63,0.38
	C440.37,670.56,440.11,670.61,439.85,670.61z M446.76,669.72c-0.12,0.15-0.27,0.28-0.45,0.39c-0.17,0.11-0.36,0.2-0.56,0.27
	c-0.2,0.07-0.4,0.13-0.61,0.16c-0.21,0.04-0.42,0.05-0.63,0.05c-0.4,0-0.76-0.07-1.09-0.2c-0.33-0.13-0.62-0.33-0.86-0.59
	c-0.24-0.26-0.43-0.58-0.57-0.96c-0.14-0.38-0.2-0.82-0.2-1.31c0-0.4,0.06-0.77,0.18-1.12c0.12-0.35,0.3-0.65,0.53-0.9
	c0.23-0.25,0.51-0.45,0.84-0.6c0.33-0.14,0.7-0.22,1.12-0.22c0.34,0,0.66,0.06,0.95,0.17c0.29,0.11,0.54,0.28,0.76,0.5
	c0.21,0.22,0.38,0.48,0.5,0.8c0.12,0.32,0.18,0.68,0.18,1.09c0,0.16-0.02,0.26-0.05,0.32c-0.03,0.05-0.1,0.08-0.19,0.08h-3.82
	c0.01,0.36,0.06,0.68,0.15,0.94c0.09,0.27,0.21,0.49,0.37,0.67c0.16,0.18,0.35,0.31,0.56,0.4c0.22,0.09,0.46,0.13,0.73,0.13
	c0.25,0,0.47-0.03,0.65-0.09c0.18-0.06,0.34-0.12,0.47-0.19c0.13-0.07,0.24-0.13,0.33-0.19c0.09-0.06,0.16-0.09,0.23-0.09
	c0.08,0,0.15,0.03,0.19,0.1L446.76,669.72z M445.95,667.03c0-0.23-0.03-0.45-0.1-0.64c-0.07-0.19-0.16-0.36-0.29-0.5
	c-0.13-0.14-0.28-0.25-0.46-0.33c-0.18-0.08-0.39-0.12-0.62-0.12c-0.48,0-0.86,0.14-1.14,0.42c-0.28,0.28-0.45,0.67-0.52,1.17
	H445.95z M452.82,662.2v8.32h-0.6c-0.14,0-0.23-0.07-0.27-0.21l-0.09-0.69c-0.24,0.29-0.52,0.53-0.84,0.71
	c-0.31,0.18-0.67,0.27-1.08,0.27c-0.33,0-0.63-0.06-0.89-0.19c-0.27-0.13-0.5-0.31-0.68-0.56c-0.19-0.24-0.33-0.55-0.43-0.92
	c-0.1-0.37-0.15-0.79-0.15-1.26c0-0.42,0.06-0.81,0.17-1.18c0.11-0.36,0.27-0.68,0.49-0.95c0.21-0.27,0.47-0.48,0.78-0.63
	c0.31-0.15,0.65-0.23,1.04-0.23c0.35,0,0.65,0.06,0.9,0.18c0.25,0.12,0.47,0.28,0.67,0.49v-3.17H452.82z M451.81,666.16
	c-0.19-0.25-0.39-0.43-0.61-0.53c-0.22-0.1-0.46-0.15-0.73-0.15c-0.53,0-0.94,0.19-1.23,0.57c-0.29,0.38-0.43,0.92-0.43,1.63
	c0,0.37,0.03,0.69,0.1,0.96c0.06,0.27,0.16,0.48,0.28,0.66c0.12,0.17,0.28,0.3,0.46,0.38c0.18,0.08,0.39,0.12,0.62,0.12
	c0.33,0,0.62-0.08,0.87-0.23c0.25-0.15,0.47-0.36,0.68-0.64V666.16z M457.67,670.52v-4.86l-0.63-0.07
	c-0.08-0.02-0.14-0.05-0.19-0.09s-0.08-0.1-0.08-0.17v-0.41h0.9v-0.55c0-0.33,0.05-0.62,0.14-0.87c0.09-0.25,0.22-0.47,0.4-0.64
	c0.17-0.18,0.38-0.31,0.62-0.4s0.51-0.14,0.81-0.14c0.26,0,0.49,0.04,0.71,0.11l-0.02,0.5c-0.01,0.09-0.06,0.14-0.15,0.15
	c-0.09,0.01-0.22,0.01-0.37,0.01c-0.17,0-0.33,0.02-0.47,0.07c-0.14,0.05-0.26,0.12-0.36,0.22c-0.1,0.1-0.18,0.24-0.23,0.4
	c-0.05,0.17-0.08,0.37-0.08,0.62v0.53h1.65v0.73h-1.62v4.88H457.67z M463.49,664.71c0.42,0,0.79,0.07,1.13,0.21
	c0.34,0.14,0.62,0.34,0.86,0.59c0.24,0.26,0.42,0.57,0.55,0.93c0.13,0.36,0.19,0.77,0.19,1.22c0,0.45-0.06,0.86-0.19,1.22
	c-0.13,0.36-0.31,0.67-0.55,0.93c-0.24,0.26-0.52,0.45-0.86,0.59c-0.34,0.14-0.71,0.21-1.13,0.21c-0.42,0-0.8-0.07-1.14-0.21
	c-0.34-0.14-0.62-0.33-0.86-0.59c-0.24-0.26-0.42-0.56-0.55-0.93c-0.13-0.36-0.19-0.77-0.19-1.22c0-0.45,0.06-0.85,0.19-1.22
	c0.13-0.36,0.31-0.67,0.55-0.93c0.24-0.26,0.52-0.45,0.86-0.59C462.69,664.77,463.06,664.71,463.49,664.71z M463.49,669.81
	c0.56,0,0.99-0.19,1.27-0.57c0.28-0.38,0.42-0.91,0.42-1.58c0-0.68-0.14-1.21-0.42-1.59c-0.28-0.38-0.7-0.57-1.27-0.57
	c-0.29,0-0.54,0.05-0.75,0.15c-0.21,0.1-0.39,0.24-0.53,0.42c-0.14,0.18-0.25,0.41-0.32,0.68c-0.07,0.27-0.1,0.57-0.1,0.91
	c0,0.68,0.14,1.21,0.42,1.58C462.49,669.62,462.91,669.81,463.49,669.81z M468.43,665.94c0.18-0.39,0.4-0.7,0.67-0.92
	c0.26-0.22,0.59-0.33,0.97-0.33c0.12,0,0.24,0.01,0.35,0.04c0.11,0.03,0.21,0.07,0.3,0.12l-0.07,0.75
	c-0.02,0.09-0.08,0.14-0.17,0.14c-0.05,0-0.13-0.01-0.23-0.03c-0.1-0.02-0.22-0.03-0.34-0.03c-0.18,0-0.34,0.03-0.48,0.08
	c-0.14,0.05-0.27,0.13-0.38,0.23c-0.11,0.1-0.21,0.23-0.3,0.38c-0.09,0.15-0.17,0.33-0.24,0.52v3.61h-1.01v-5.72h0.58
	c0.11,0,0.18,0.02,0.23,0.06c0.04,0.04,0.07,0.11,0.08,0.21L468.43,665.94z M475.26,665.56c0.24-0.26,0.52-0.47,0.81-0.62
	c0.3-0.15,0.64-0.23,1.03-0.23c0.31,0,0.59,0.05,0.83,0.16c0.24,0.1,0.44,0.25,0.6,0.44c0.16,0.19,0.28,0.42,0.36,0.69
	c0.08,0.27,0.12,0.56,0.12,0.89v3.64H478v-3.64c0-0.43-0.1-0.77-0.3-1.01c-0.2-0.24-0.5-0.36-0.9-0.36c-0.3,0-0.58,0.07-0.83,0.21
	c-0.26,0.14-0.5,0.34-0.71,0.58v4.21h-1.01v-8.32h1.01V665.56z M485.19,669.72c-0.12,0.15-0.27,0.28-0.45,0.39
	c-0.17,0.11-0.36,0.2-0.56,0.27c-0.2,0.07-0.4,0.13-0.61,0.16c-0.21,0.04-0.42,0.05-0.63,0.05c-0.4,0-0.76-0.07-1.09-0.2
	c-0.33-0.13-0.62-0.33-0.86-0.59c-0.24-0.26-0.43-0.58-0.57-0.96c-0.14-0.38-0.2-0.82-0.2-1.31c0-0.4,0.06-0.77,0.18-1.12
	c0.12-0.35,0.3-0.65,0.53-0.9c0.23-0.25,0.51-0.45,0.84-0.6c0.33-0.14,0.7-0.22,1.12-0.22c0.34,0,0.66,0.06,0.95,0.17
	c0.29,0.11,0.54,0.28,0.76,0.5c0.21,0.22,0.38,0.48,0.5,0.8c0.12,0.32,0.18,0.68,0.18,1.09c0,0.16-0.02,0.26-0.05,0.32
	c-0.03,0.05-0.1,0.08-0.19,0.08h-3.82c0.01,0.36,0.06,0.68,0.15,0.94c0.09,0.27,0.21,0.49,0.37,0.67c0.16,0.18,0.35,0.31,0.56,0.4
	c0.22,0.09,0.46,0.13,0.73,0.13c0.25,0,0.47-0.03,0.65-0.09c0.18-0.06,0.34-0.12,0.47-0.19c0.13-0.07,0.24-0.13,0.33-0.19
	c0.09-0.06,0.16-0.09,0.23-0.09c0.08,0,0.15,0.03,0.19,0.1L485.19,669.72z M484.38,667.03c0-0.23-0.03-0.45-0.1-0.64
	c-0.07-0.19-0.16-0.36-0.29-0.5c-0.13-0.14-0.28-0.25-0.46-0.33c-0.18-0.08-0.39-0.12-0.62-0.12c-0.48,0-0.86,0.14-1.14,0.42
	c-0.28,0.28-0.45,0.67-0.52,1.17H484.38z M487.47,665.94c0.18-0.39,0.4-0.7,0.67-0.92c0.26-0.22,0.59-0.33,0.97-0.33
	c0.12,0,0.24,0.01,0.35,0.04c0.11,0.03,0.21,0.07,0.3,0.12l-0.07,0.75c-0.02,0.09-0.08,0.14-0.17,0.14c-0.05,0-0.13-0.01-0.23-0.03
	c-0.1-0.02-0.22-0.03-0.34-0.03c-0.18,0-0.34,0.03-0.48,0.08c-0.14,0.05-0.27,0.13-0.38,0.23c-0.11,0.1-0.21,0.23-0.3,0.38
	c-0.09,0.15-0.17,0.33-0.24,0.52v3.61h-1.01v-5.72h0.58c0.11,0,0.18,0.02,0.23,0.06c0.04,0.04,0.07,0.11,0.08,0.21L487.47,665.94z
	 M496.62,665.74c-0.05,0.08-0.11,0.12-0.21,0.12c-0.06,0-0.12-0.02-0.19-0.06c-0.07-0.04-0.16-0.09-0.26-0.14
	c-0.1-0.05-0.23-0.1-0.37-0.14c-0.14-0.04-0.31-0.06-0.51-0.06c-0.17,0-0.32,0.02-0.46,0.06c-0.14,0.04-0.25,0.1-0.35,0.18
	c-0.1,0.08-0.17,0.16-0.22,0.26c-0.05,0.1-0.08,0.21-0.08,0.32c0,0.15,0.04,0.27,0.13,0.37c0.08,0.1,0.2,0.18,0.34,0.25
	c0.14,0.07,0.3,0.13,0.47,0.19c0.18,0.05,0.36,0.11,0.55,0.18c0.19,0.06,0.37,0.13,0.55,0.21c0.18,0.08,0.34,0.17,0.47,0.28
	c0.14,0.11,0.25,0.25,0.34,0.42c0.08,0.16,0.13,0.36,0.13,0.59c0,0.26-0.05,0.51-0.14,0.73c-0.09,0.22-0.23,0.42-0.42,0.58
	c-0.18,0.16-0.41,0.29-0.68,0.39c-0.27,0.09-0.58,0.14-0.93,0.14c-0.4,0-0.76-0.06-1.08-0.19c-0.32-0.13-0.6-0.3-0.82-0.5l0.24-0.38
	c0.03-0.05,0.07-0.09,0.11-0.11c0.04-0.03,0.09-0.04,0.16-0.04c0.07,0,0.14,0.03,0.21,0.08c0.08,0.05,0.17,0.11,0.27,0.18
	c0.11,0.06,0.24,0.12,0.39,0.18c0.15,0.05,0.35,0.08,0.58,0.08c0.2,0,0.37-0.03,0.51-0.08s0.27-0.12,0.37-0.21
	c0.1-0.09,0.17-0.19,0.22-0.3c0.05-0.11,0.07-0.23,0.07-0.36c0-0.16-0.04-0.29-0.13-0.39s-0.2-0.19-0.34-0.27
	c-0.14-0.07-0.3-0.14-0.48-0.19c-0.18-0.05-0.36-0.11-0.55-0.17c-0.19-0.06-0.37-0.13-0.55-0.21c-0.18-0.08-0.34-0.17-0.48-0.29
	c-0.14-0.12-0.25-0.26-0.34-0.43c-0.08-0.17-0.13-0.38-0.13-0.62c0-0.22,0.05-0.43,0.14-0.63c0.09-0.2,0.22-0.38,0.4-0.53
	c0.17-0.15,0.39-0.27,0.64-0.36c0.25-0.09,0.54-0.14,0.86-0.14c0.38,0,0.71,0.06,1.01,0.18c0.3,0.12,0.56,0.28,0.78,0.49
	L496.62,665.74z M502.82,669.72c-0.12,0.15-0.27,0.28-0.45,0.39c-0.17,0.11-0.36,0.2-0.56,0.27c-0.2,0.07-0.4,0.13-0.61,0.16
	c-0.21,0.04-0.42,0.05-0.63,0.05c-0.4,0-0.76-0.07-1.09-0.2s-0.62-0.33-0.86-0.59c-0.24-0.26-0.43-0.58-0.57-0.96
	c-0.14-0.38-0.2-0.82-0.2-1.31c0-0.4,0.06-0.77,0.18-1.12c0.12-0.35,0.3-0.65,0.53-0.9c0.23-0.25,0.51-0.45,0.84-0.6
	c0.33-0.14,0.7-0.22,1.12-0.22c0.34,0,0.66,0.06,0.95,0.17c0.29,0.11,0.54,0.28,0.76,0.5c0.21,0.22,0.38,0.48,0.5,0.8
	c0.12,0.32,0.18,0.68,0.18,1.09c0,0.16-0.02,0.26-0.05,0.32c-0.03,0.05-0.1,0.08-0.19,0.08h-3.82c0.01,0.36,0.06,0.68,0.15,0.94
	c0.09,0.27,0.21,0.49,0.37,0.67c0.16,0.18,0.35,0.31,0.56,0.4c0.22,0.09,0.46,0.13,0.73,0.13c0.25,0,0.47-0.03,0.65-0.09
	c0.18-0.06,0.34-0.12,0.47-0.19c0.13-0.07,0.24-0.13,0.33-0.19c0.09-0.06,0.16-0.09,0.23-0.09c0.08,0,0.15,0.03,0.19,0.1
	L502.82,669.72z M502,667.03c0-0.23-0.03-0.45-0.1-0.64c-0.07-0.19-0.16-0.36-0.29-0.5c-0.13-0.14-0.28-0.25-0.46-0.33
	c-0.18-0.08-0.39-0.12-0.62-0.12c-0.48,0-0.86,0.14-1.14,0.42c-0.28,0.28-0.45,0.67-0.52,1.17H502z M505.09,665.94
	c0.18-0.39,0.4-0.7,0.67-0.92c0.26-0.22,0.59-0.33,0.97-0.33c0.12,0,0.24,0.01,0.35,0.04c0.11,0.03,0.21,0.07,0.3,0.12l-0.07,0.75
	c-0.02,0.09-0.08,0.14-0.17,0.14c-0.05,0-0.13-0.01-0.23-0.03c-0.1-0.02-0.22-0.03-0.34-0.03c-0.18,0-0.34,0.03-0.48,0.08
	c-0.14,0.05-0.27,0.13-0.38,0.23c-0.11,0.1-0.21,0.23-0.3,0.38c-0.09,0.15-0.17,0.33-0.24,0.52v3.61h-1.01v-5.72h0.58
	c0.11,0,0.18,0.02,0.23,0.06c0.04,0.04,0.07,0.11,0.08,0.21L505.09,665.94z M513.15,664.8l-2.33,5.72h-0.9l-2.33-5.72h0.82
	c0.08,0,0.15,0.02,0.2,0.06c0.05,0.04,0.09,0.09,0.11,0.15l1.45,3.68c0.05,0.14,0.08,0.27,0.12,0.41c0.03,0.13,0.07,0.26,0.1,0.4
	c0.03-0.13,0.06-0.26,0.1-0.4c0.03-0.13,0.08-0.27,0.12-0.41l1.47-3.68c0.02-0.06,0.06-0.11,0.11-0.15s0.11-0.06,0.19-0.06H513.15z
	 M515.36,663c0,0.1-0.02,0.19-0.06,0.27c-0.04,0.08-0.09,0.16-0.16,0.23c-0.07,0.07-0.14,0.12-0.23,0.16
	c-0.09,0.04-0.18,0.06-0.28,0.06c-0.1,0-0.19-0.02-0.27-0.06c-0.08-0.04-0.16-0.09-0.22-0.16c-0.06-0.07-0.11-0.14-0.15-0.23
	c-0.04-0.08-0.06-0.18-0.06-0.27c0-0.1,0.02-0.19,0.06-0.28c0.04-0.09,0.09-0.17,0.15-0.23c0.06-0.07,0.14-0.12,0.22-0.16
	c0.08-0.04,0.18-0.06,0.27-0.06c0.1,0,0.19,0.02,0.28,0.06c0.09,0.04,0.17,0.09,0.23,0.16c0.07,0.07,0.12,0.14,0.16,0.23
	C515.34,662.81,515.36,662.9,515.36,663z M515.14,664.8v5.72h-1.01v-5.72H515.14z M520.77,665.81c-0.03,0.04-0.06,0.07-0.09,0.1
	c-0.03,0.02-0.07,0.03-0.12,0.03c-0.06,0-0.12-0.02-0.19-0.07c-0.07-0.05-0.15-0.1-0.25-0.16c-0.1-0.06-0.22-0.11-0.37-0.16
	c-0.15-0.05-0.32-0.07-0.53-0.07c-0.28,0-0.53,0.05-0.75,0.15c-0.21,0.1-0.39,0.24-0.54,0.43c-0.14,0.19-0.25,0.42-0.33,0.68
	c-0.07,0.27-0.11,0.57-0.11,0.9c0,0.35,0.04,0.65,0.12,0.92c0.08,0.27,0.19,0.5,0.34,0.68c0.14,0.18,0.32,0.32,0.53,0.42
	c0.21,0.1,0.44,0.14,0.69,0.14c0.24,0,0.45-0.03,0.6-0.09c0.16-0.06,0.29-0.12,0.39-0.19c0.1-0.07,0.19-0.14,0.26-0.19
	c0.07-0.06,0.14-0.09,0.21-0.09c0.08,0,0.15,0.03,0.19,0.1l0.28,0.37c-0.12,0.15-0.27,0.29-0.42,0.4c-0.16,0.11-0.33,0.2-0.51,0.27
	c-0.18,0.07-0.37,0.13-0.57,0.16c-0.2,0.03-0.4,0.05-0.61,0.05c-0.36,0-0.69-0.07-1-0.2c-0.31-0.13-0.57-0.32-0.8-0.57
	s-0.4-0.56-0.53-0.92c-0.13-0.37-0.19-0.78-0.19-1.25c0-0.43,0.06-0.82,0.18-1.18c0.12-0.36,0.29-0.67,0.52-0.93
	c0.23-0.26,0.51-0.47,0.84-0.61s0.72-0.22,1.15-0.22c0.4,0,0.76,0.06,1.06,0.19c0.31,0.13,0.58,0.31,0.82,0.55L520.77,665.81z
	 M526.73,669.72c-0.12,0.15-0.27,0.28-0.45,0.39c-0.17,0.11-0.36,0.2-0.56,0.27c-0.2,0.07-0.4,0.13-0.61,0.16
	c-0.21,0.04-0.42,0.05-0.63,0.05c-0.4,0-0.76-0.07-1.09-0.2s-0.62-0.33-0.86-0.59c-0.24-0.26-0.43-0.58-0.57-0.96
	c-0.14-0.38-0.2-0.82-0.2-1.31c0-0.4,0.06-0.77,0.18-1.12c0.12-0.35,0.3-0.65,0.53-0.9c0.23-0.25,0.51-0.45,0.84-0.6
	c0.33-0.14,0.7-0.22,1.12-0.22c0.34,0,0.66,0.06,0.95,0.17c0.29,0.11,0.54,0.28,0.76,0.5c0.21,0.22,0.38,0.48,0.5,0.8
	c0.12,0.32,0.18,0.68,0.18,1.09c0,0.16-0.02,0.26-0.05,0.32c-0.03,0.05-0.1,0.08-0.19,0.08h-3.82c0.01,0.36,0.06,0.68,0.15,0.94
	c0.09,0.27,0.21,0.49,0.37,0.67c0.16,0.18,0.35,0.31,0.56,0.4c0.22,0.09,0.46,0.13,0.73,0.13c0.25,0,0.47-0.03,0.65-0.09
	c0.18-0.06,0.34-0.12,0.47-0.19c0.13-0.07,0.24-0.13,0.33-0.19c0.09-0.06,0.16-0.09,0.23-0.09c0.08,0,0.15,0.03,0.19,0.1
	L526.73,669.72z M525.91,667.03c0-0.23-0.03-0.45-0.1-0.64c-0.07-0.19-0.16-0.36-0.29-0.5c-0.13-0.14-0.28-0.25-0.46-0.33
	c-0.18-0.08-0.39-0.12-0.62-0.12c-0.48,0-0.86,0.14-1.14,0.42c-0.28,0.28-0.45,0.67-0.52,1.17H525.91z M531.38,665.74
	c-0.05,0.08-0.11,0.12-0.21,0.12c-0.06,0-0.12-0.02-0.19-0.06c-0.07-0.04-0.16-0.09-0.26-0.14c-0.1-0.05-0.23-0.1-0.37-0.14
	c-0.14-0.04-0.31-0.06-0.51-0.06c-0.17,0-0.32,0.02-0.46,0.06c-0.14,0.04-0.25,0.1-0.35,0.18c-0.1,0.08-0.17,0.16-0.22,0.26
	c-0.05,0.1-0.08,0.21-0.08,0.32c0,0.15,0.04,0.27,0.13,0.37c0.08,0.1,0.2,0.18,0.34,0.25c0.14,0.07,0.3,0.13,0.47,0.19
	c0.18,0.05,0.36,0.11,0.55,0.18s0.37,0.13,0.55,0.21c0.18,0.08,0.34,0.17,0.47,0.28c0.14,0.11,0.25,0.25,0.34,0.42
	c0.08,0.16,0.13,0.36,0.13,0.59c0,0.26-0.05,0.51-0.14,0.73c-0.09,0.22-0.23,0.42-0.42,0.58c-0.18,0.16-0.41,0.29-0.68,0.39
	c-0.27,0.09-0.58,0.14-0.93,0.14c-0.4,0-0.76-0.06-1.08-0.19c-0.32-0.13-0.6-0.3-0.82-0.5l0.24-0.38c0.03-0.05,0.07-0.09,0.11-0.11
	c0.04-0.03,0.09-0.04,0.16-0.04c0.07,0,0.14,0.03,0.21,0.08c0.08,0.05,0.17,0.11,0.27,0.18c0.11,0.06,0.24,0.12,0.39,0.18
	c0.15,0.05,0.35,0.08,0.58,0.08c0.2,0,0.37-0.03,0.51-0.08s0.27-0.12,0.37-0.21c0.1-0.09,0.17-0.19,0.22-0.3
	c0.05-0.11,0.07-0.23,0.07-0.36c0-0.16-0.04-0.29-0.13-0.39s-0.2-0.19-0.34-0.27c-0.14-0.07-0.3-0.14-0.48-0.19
	c-0.18-0.05-0.36-0.11-0.55-0.17c-0.19-0.06-0.37-0.13-0.55-0.21c-0.18-0.08-0.34-0.17-0.48-0.29c-0.14-0.12-0.25-0.26-0.34-0.43
	c-0.08-0.17-0.13-0.38-0.13-0.62c0-0.22,0.05-0.43,0.14-0.63c0.09-0.2,0.22-0.38,0.4-0.53c0.17-0.15,0.39-0.27,0.64-0.36
	c0.25-0.09,0.54-0.14,0.86-0.14c0.38,0,0.71,0.06,1.01,0.18c0.3,0.12,0.56,0.28,0.78,0.49L531.38,665.74z M535.69,665.6
	c0.32-0.3,0.66-0.53,1.02-0.68c0.37-0.15,0.77-0.23,1.21-0.23c0.32,0,0.6,0.05,0.85,0.16c0.25,0.11,0.46,0.25,0.63,0.44
	c0.17,0.19,0.3,0.42,0.38,0.68c0.09,0.27,0.13,0.56,0.13,0.88v3.66h-0.45c-0.1,0-0.17-0.02-0.23-0.05c-0.05-0.03-0.09-0.1-0.12-0.19
	l-0.11-0.54c-0.15,0.14-0.3,0.26-0.44,0.37c-0.14,0.11-0.29,0.2-0.45,0.27s-0.33,0.13-0.51,0.17c-0.18,0.04-0.38,0.06-0.6,0.06
	c-0.22,0-0.43-0.03-0.63-0.09c-0.2-0.06-0.37-0.16-0.51-0.28c-0.15-0.12-0.26-0.28-0.34-0.47c-0.08-0.19-0.13-0.42-0.13-0.67
	c0-0.23,0.06-0.44,0.19-0.65s0.33-0.39,0.6-0.56c0.28-0.16,0.64-0.29,1.09-0.4c0.45-0.1,1-0.16,1.65-0.18v-0.45
	c0-0.44-0.1-0.78-0.29-1.01c-0.19-0.23-0.47-0.34-0.84-0.34c-0.25,0-0.46,0.03-0.62,0.09c-0.17,0.06-0.31,0.13-0.43,0.21
	c-0.12,0.08-0.23,0.15-0.32,0.21c-0.09,0.06-0.18,0.09-0.26,0.09c-0.07,0-0.13-0.02-0.18-0.05c-0.05-0.04-0.09-0.08-0.12-0.13
	L535.69,665.6z M538.93,667.94c-0.46,0.02-0.86,0.05-1.18,0.11c-0.33,0.06-0.59,0.13-0.8,0.23c-0.21,0.09-0.35,0.21-0.45,0.33
	c-0.09,0.13-0.14,0.27-0.14,0.43c0,0.15,0.02,0.28,0.07,0.39c0.05,0.11,0.12,0.2,0.2,0.27c0.08,0.07,0.18,0.12,0.3,0.15
	c0.11,0.03,0.24,0.05,0.37,0.05c0.18,0,0.34-0.02,0.49-0.05c0.15-0.04,0.29-0.09,0.42-0.16c0.13-0.07,0.25-0.15,0.37-0.24
	c0.12-0.09,0.23-0.2,0.35-0.32V667.94z M542.4,665.63c0.12-0.14,0.26-0.27,0.4-0.38c0.14-0.11,0.29-0.21,0.44-0.29
	c0.16-0.08,0.32-0.14,0.5-0.19c0.18-0.04,0.36-0.06,0.57-0.06c0.31,0,0.59,0.05,0.83,0.16c0.24,0.1,0.44,0.25,0.6,0.44
	c0.16,0.19,0.28,0.42,0.36,0.69c0.08,0.27,0.12,0.56,0.12,0.89v3.64h-1.01v-3.64c0-0.43-0.1-0.77-0.3-1.01
	c-0.2-0.24-0.5-0.36-0.9-0.36c-0.3,0-0.58,0.07-0.83,0.21c-0.26,0.14-0.5,0.34-0.71,0.58v4.21h-1.01v-5.72h0.6
	c0.14,0,0.23,0.07,0.27,0.21L542.4,665.63z M552.48,662.2v8.32h-0.6c-0.14,0-0.23-0.07-0.27-0.21l-0.09-0.69
	c-0.24,0.29-0.52,0.53-0.84,0.71c-0.31,0.18-0.67,0.27-1.08,0.27c-0.33,0-0.63-0.06-0.89-0.19c-0.27-0.13-0.5-0.31-0.68-0.56
	c-0.19-0.24-0.33-0.55-0.43-0.92c-0.1-0.37-0.15-0.79-0.15-1.26c0-0.42,0.06-0.81,0.17-1.18c0.11-0.36,0.27-0.68,0.49-0.95
	c0.21-0.27,0.47-0.48,0.78-0.63c0.31-0.15,0.65-0.23,1.04-0.23c0.35,0,0.65,0.06,0.9,0.18c0.25,0.12,0.47,0.28,0.67,0.49v-3.17
	H552.48z M551.48,666.16c-0.19-0.25-0.39-0.43-0.61-0.53c-0.22-0.1-0.46-0.15-0.73-0.15c-0.53,0-0.94,0.19-1.23,0.57
	c-0.29,0.38-0.43,0.92-0.43,1.63c0,0.37,0.03,0.69,0.1,0.96c0.06,0.27,0.16,0.48,0.28,0.66c0.12,0.17,0.28,0.3,0.46,0.38
	c0.18,0.08,0.39,0.12,0.62,0.12c0.33,0,0.62-0.08,0.87-0.23c0.25-0.15,0.47-0.36,0.68-0.64V666.16z M562.28,670.52h-1.01v-4.88
	h-2.95v3.43c0,0.24,0.06,0.42,0.18,0.54c0.12,0.12,0.27,0.18,0.45,0.18c0.11,0,0.2-0.01,0.27-0.04c0.08-0.03,0.14-0.06,0.2-0.09
	c0.06-0.03,0.1-0.07,0.14-0.09c0.04-0.03,0.07-0.04,0.1-0.04c0.05,0,0.1,0.03,0.14,0.1l0.29,0.48c-0.17,0.16-0.38,0.29-0.63,0.38
	c-0.24,0.09-0.5,0.14-0.76,0.14c-0.45,0-0.8-0.13-1.04-0.38c-0.24-0.25-0.36-0.62-0.36-1.09v-3.5h-0.69c-0.06,0-0.11-0.02-0.15-0.05
	c-0.04-0.04-0.06-0.09-0.06-0.17v-0.4l0.94-0.12l0.23-1.76c0.01-0.06,0.04-0.1,0.08-0.14c0.04-0.04,0.09-0.05,0.16-0.05h0.51v1.97
	h3.95V670.52z M562.53,662.96c0,0.1-0.02,0.19-0.06,0.27c-0.04,0.08-0.09,0.16-0.16,0.22c-0.07,0.06-0.14,0.11-0.23,0.15
	c-0.09,0.04-0.18,0.06-0.28,0.06c-0.1,0-0.19-0.02-0.27-0.06c-0.08-0.04-0.16-0.09-0.22-0.15c-0.06-0.06-0.11-0.14-0.15-0.22
	c-0.04-0.08-0.06-0.18-0.06-0.27c0-0.1,0.02-0.19,0.06-0.28c0.04-0.09,0.09-0.17,0.15-0.23c0.06-0.07,0.14-0.12,0.22-0.16
	c0.08-0.04,0.18-0.06,0.27-0.06c0.1,0,0.19,0.02,0.28,0.06c0.09,0.04,0.16,0.09,0.23,0.16c0.07,0.07,0.12,0.14,0.16,0.23
	C562.51,662.77,562.53,662.86,562.53,662.96z M563.93,670.52v-5.72h0.6c0.14,0,0.23,0.07,0.27,0.21l0.07,0.59
	c0.21-0.26,0.45-0.47,0.71-0.64c0.26-0.17,0.57-0.25,0.92-0.25c0.38,0,0.7,0.11,0.93,0.32c0.24,0.21,0.41,0.5,0.52,0.87
	c0.08-0.21,0.19-0.39,0.32-0.54c0.13-0.15,0.28-0.27,0.44-0.37c0.16-0.1,0.33-0.17,0.52-0.21c0.18-0.05,0.37-0.07,0.56-0.07
	c0.3,0,0.57,0.05,0.8,0.14c0.24,0.1,0.43,0.24,0.6,0.42c0.16,0.18,0.29,0.41,0.38,0.68c0.09,0.27,0.13,0.58,0.13,0.92v3.64h-1.01
	v-3.64c0-0.45-0.1-0.79-0.29-1.02c-0.2-0.23-0.48-0.35-0.85-0.35c-0.17,0-0.32,0.03-0.47,0.09c-0.15,0.06-0.28,0.14-0.39,0.26
	c-0.11,0.11-0.2,0.26-0.27,0.43c-0.07,0.17-0.1,0.37-0.1,0.6v3.64h-1.01v-3.64c0-0.46-0.09-0.8-0.28-1.03
	c-0.18-0.23-0.45-0.34-0.81-0.34c-0.25,0-0.48,0.07-0.69,0.2c-0.21,0.13-0.4,0.32-0.58,0.55v4.26H563.93z M577.86,669.72
	c-0.12,0.15-0.27,0.28-0.45,0.39c-0.17,0.11-0.36,0.2-0.56,0.27c-0.2,0.07-0.4,0.13-0.61,0.16c-0.21,0.04-0.42,0.05-0.63,0.05
	c-0.4,0-0.76-0.07-1.09-0.2s-0.62-0.33-0.86-0.59c-0.24-0.26-0.43-0.58-0.57-0.96c-0.14-0.38-0.2-0.82-0.2-1.31
	c0-0.4,0.06-0.77,0.18-1.12c0.12-0.35,0.3-0.65,0.53-0.9c0.23-0.25,0.51-0.45,0.84-0.6c0.33-0.14,0.7-0.22,1.12-0.22
	c0.34,0,0.66,0.06,0.95,0.17c0.29,0.11,0.54,0.28,0.76,0.5c0.21,0.22,0.38,0.48,0.5,0.8c0.12,0.32,0.18,0.68,0.18,1.09
	c0,0.16-0.02,0.26-0.05,0.32c-0.03,0.05-0.1,0.08-0.19,0.08h-3.82c0.01,0.36,0.06,0.68,0.15,0.94c0.09,0.27,0.21,0.49,0.37,0.67
	c0.16,0.18,0.35,0.31,0.56,0.4c0.22,0.09,0.46,0.13,0.73,0.13c0.25,0,0.47-0.03,0.65-0.09c0.18-0.06,0.34-0.12,0.47-0.19
	c0.13-0.07,0.24-0.13,0.33-0.19c0.09-0.06,0.16-0.09,0.23-0.09c0.08,0,0.15,0.03,0.19,0.1L577.86,669.72z M577.04,667.03
	c0-0.23-0.03-0.45-0.1-0.64c-0.07-0.19-0.16-0.36-0.29-0.5c-0.13-0.14-0.28-0.25-0.46-0.33c-0.18-0.08-0.39-0.12-0.62-0.12
	c-0.48,0-0.86,0.14-1.14,0.42c-0.28,0.28-0.45,0.67-0.52,1.17H577.04z M579.01,669.9c0-0.1,0.02-0.19,0.05-0.28
	c0.04-0.09,0.08-0.16,0.15-0.23c0.06-0.06,0.14-0.11,0.22-0.15c0.09-0.04,0.18-0.06,0.28-0.06c0.1,0,0.19,0.02,0.28,0.06
	c0.09,0.04,0.16,0.09,0.23,0.15c0.06,0.06,0.11,0.14,0.15,0.23c0.04,0.09,0.06,0.18,0.06,0.28c0,0.1-0.02,0.19-0.06,0.28
	c-0.04,0.08-0.09,0.16-0.15,0.22c-0.06,0.06-0.14,0.11-0.23,0.15c-0.09,0.04-0.18,0.05-0.28,0.05c-0.1,0-0.19-0.02-0.28-0.05
	c-0.09-0.04-0.16-0.09-0.22-0.15c-0.06-0.06-0.11-0.14-0.15-0.22C579.03,670.09,579.01,670,579.01,669.9z"/>
</svg>
