<?xml version="1.0" encoding="utf-8"?>
<!-- Generator: Adobe Illustrator 24.1.2, SVG Export Plug-In . SVG Version: 6.00 Build 0)  -->
<svg version="1.1" id="Layer_1" xmlns="http://www.w3.org/2000/svg" xmlns:xlink="http://www.w3.org/1999/xlink" x="0px" y="0px"
	 viewBox="0 0 1365.3 744.4" style="enable-background:new 0 0 1365.3 744.4;" xml:space="preserve">
<style type="text/css">
	.st0{fill:#D1E1E8;}
	.st1{clip-path:url(#SVGID_3_);fill:#D1E1E8;}
	.st2{fill:#003E6A;}
</style>
<g>
	<g>
		<path id="SVGID_1_" class="st0" d="M0,0v717.3c0,0,183.1-20.8,379.1-20.8c274.7,0,489.9,47.8,710,46.3
			c220.1-1.5,276.3-15.8,276.3-15.8V0H0z"/>
	</g>
	<g>
		<g>
			<defs>
				<path id="SVGID_2_" d="M0,0v717.3c0,0,183.1-20.8,379.1-20.8c274.7,0,489.9,47.8,710,46.3c220.1-1.5,276.3-15.8,276.3-15.8V0H0z
					"/>
			</defs>
			<clipPath id="SVGID_3_">
				<use xlink:href="#SVGID_2_"  style="overflow:visible;"/>
			</clipPath>
			<rect class="st1" width="1365.3" height="744.4"/>
		</g>
	</g>
</g>
<g>
	<path class="st2" d="M70.2,34.2v19.2h-1.4v-9.2h-12v9.2h-1.4V34.2h1.4v8.9h12v-8.9H70.2z"/>
	<path class="st2" d="M80.2,39.6c1,0,1.8,0.2,2.6,0.5c0.8,0.3,1.4,0.8,1.9,1.4s0.9,1.3,1.2,2.2c0.3,0.9,0.4,1.8,0.4,2.9
		c0,1.1-0.1,2-0.4,2.9c-0.3,0.8-0.7,1.6-1.2,2.2s-1.2,1.1-1.9,1.4c-0.8,0.3-1.6,0.5-2.6,0.5c-1,0-1.8-0.2-2.6-0.5
		c-0.8-0.3-1.4-0.8-1.9-1.4c-0.5-0.6-0.9-1.3-1.2-2.2c-0.3-0.8-0.4-1.8-0.4-2.9c0-1.1,0.1-2,0.4-2.9c0.3-0.9,0.7-1.6,1.2-2.2
		c0.5-0.6,1.2-1.1,1.9-1.4C78.4,39.8,79.3,39.6,80.2,39.6z M80.2,52.5c0.8,0,1.5-0.1,2.1-0.4c0.6-0.3,1.1-0.7,1.5-1.2
		c0.4-0.5,0.7-1.1,0.9-1.9c0.2-0.7,0.3-1.5,0.3-2.4c0-0.9-0.1-1.7-0.3-2.4c-0.2-0.7-0.5-1.4-0.9-1.9c-0.4-0.5-0.9-0.9-1.5-1.2
		c-0.6-0.3-1.3-0.4-2.1-0.4s-1.5,0.1-2.1,0.4c-0.6,0.3-1.1,0.7-1.5,1.2c-0.4,0.5-0.7,1.1-0.9,1.9c-0.2,0.7-0.3,1.5-0.3,2.4
		c0,0.9,0.1,1.7,0.3,2.4c0.2,0.7,0.5,1.3,0.9,1.9c0.4,0.5,0.9,0.9,1.5,1.2C78.7,52.3,79.4,52.5,80.2,52.5z"/>
	<path class="st2" d="M90,53.3V39.8h0.7c0.2,0,0.4,0.1,0.4,0.3l0.1,2c0.5-0.7,1.1-1.4,1.8-1.8c0.7-0.5,1.4-0.7,2.3-0.7
		c1,0,1.8,0.3,2.4,0.9c0.6,0.6,1,1.4,1.2,2.4c0.2-0.6,0.4-1,0.7-1.4c0.3-0.4,0.6-0.7,1-1c0.4-0.3,0.8-0.5,1.2-0.6
		c0.4-0.1,0.9-0.2,1.4-0.2c0.7,0,1.3,0.1,1.8,0.3c0.5,0.2,1,0.5,1.4,1s0.7,1,0.9,1.6c0.2,0.6,0.3,1.4,0.3,2.2v8.6h-1.3v-8.6
		c0-1.3-0.3-2.3-0.9-3c-0.6-0.7-1.4-1-2.4-1c-0.5,0-0.9,0.1-1.3,0.3s-0.8,0.4-1.1,0.8c-0.3,0.3-0.6,0.8-0.8,1.3
		c-0.2,0.5-0.3,1.1-0.3,1.8v8.6h-1.3v-8.6c0-1.3-0.3-2.3-0.8-3c-0.5-0.7-1.3-1-2.3-1c-0.7,0-1.4,0.2-2,0.7c-0.6,0.4-1.2,1-1.7,1.8
		v10.2H90z"/>
	<path class="st2" d="M112.3,46v0.3c0,1,0.1,1.9,0.4,2.7c0.2,0.8,0.6,1.4,1,1.9c0.4,0.5,1,0.9,1.6,1.2c0.6,0.3,1.3,0.4,2.1,0.4
		c0.7,0,1.3-0.1,1.8-0.2c0.5-0.1,0.9-0.3,1.3-0.5c0.3-0.2,0.6-0.4,0.8-0.5c0.2-0.1,0.3-0.2,0.4-0.2c0.1,0,0.2,0,0.3,0.1l0.4,0.4
		c-0.2,0.3-0.5,0.5-0.9,0.8c-0.4,0.2-0.8,0.4-1.2,0.6c-0.4,0.2-0.9,0.3-1.4,0.4c-0.5,0.1-1,0.1-1.5,0.1c-0.9,0-1.8-0.2-2.5-0.5
		c-0.8-0.3-1.4-0.8-2-1.4c-0.5-0.6-1-1.4-1.3-2.3c-0.3-0.9-0.4-1.9-0.4-3.1c0-1,0.1-1.9,0.4-2.7c0.3-0.8,0.7-1.5,1.2-2.1
		c0.5-0.6,1.2-1.1,1.9-1.4c0.8-0.3,1.6-0.5,2.6-0.5c0.8,0,1.5,0.1,2.1,0.4c0.6,0.3,1.2,0.6,1.7,1.1c0.5,0.5,0.9,1.1,1.1,1.8
		c0.3,0.7,0.4,1.6,0.4,2.5c0,0.2,0,0.3-0.1,0.4c-0.1,0.1-0.1,0.1-0.3,0.1H112.3z M121.2,45.2c0-0.7-0.1-1.4-0.3-1.9
		c-0.2-0.6-0.5-1.1-0.9-1.5s-0.8-0.7-1.3-0.9c-0.5-0.2-1.1-0.3-1.7-0.3c-0.7,0-1.3,0.1-1.9,0.3c-0.6,0.2-1,0.5-1.4,0.9
		s-0.7,0.9-1,1.5c-0.2,0.6-0.4,1.2-0.5,1.9H121.2z"/>
	<path class="st2" d="M144.4,43.9v0.6l-10.2,5.2v-0.9c0-0.1,0-0.2,0.1-0.3c0.1-0.1,0.1-0.1,0.3-0.2l7.5-3.8c0.1-0.1,0.3-0.1,0.5-0.2
		c0.2-0.1,0.3-0.1,0.5-0.1c-0.3-0.1-0.7-0.2-1-0.4l-7.5-3.8c-0.2-0.1-0.4-0.3-0.4-0.5v-0.9L144.4,43.9z"/>
</g>
<g>
	<path class="st2" d="M175.9,57.1h-3c-0.4,0-0.8-0.1-1.2-0.2s-0.7-0.3-1-0.6l-2.9-3.2c-0.5,0.1-0.9,0.2-1.4,0.3
		c-0.5,0.1-1,0.1-1.5,0.1c-1.5,0-2.8-0.3-4-0.8c-1.2-0.5-2.3-1.2-3.1-2.1c-0.9-0.9-1.5-2-2-3.2c-0.5-1.2-0.7-2.6-0.7-4
		c0-1.4,0.2-2.8,0.7-4c0.5-1.2,1.2-2.3,2-3.2c0.9-0.9,1.9-1.6,3.1-2.1c1.2-0.5,2.6-0.8,4-0.8c1,0,1.9,0.1,2.8,0.3s1.7,0.6,2.4,1
		c0.7,0.4,1.4,0.9,2,1.5c0.6,0.6,1.1,1.3,1.5,2c0.4,0.7,0.7,1.5,0.9,2.4c0.2,0.9,0.3,1.8,0.3,2.7c0,0.9-0.1,1.7-0.3,2.5
		c-0.2,0.8-0.4,1.5-0.8,2.2c-0.3,0.7-0.8,1.3-1.2,1.9c-0.5,0.6-1,1.1-1.7,1.5L175.9,57.1z M158.8,43.5c0,1.1,0.1,2,0.4,2.9
		c0.3,0.9,0.7,1.6,1.2,2.2c0.5,0.6,1.2,1,2,1.4c0.8,0.3,1.6,0.5,2.6,0.5c1,0,1.8-0.2,2.6-0.5c0.8-0.3,1.4-0.8,1.9-1.4
		c0.5-0.6,0.9-1.3,1.2-2.2c0.3-0.9,0.4-1.8,0.4-2.9s-0.1-2-0.4-2.9c-0.3-0.9-0.7-1.6-1.2-2.2c-0.5-0.6-1.2-1.1-1.9-1.4
		c-0.8-0.3-1.6-0.5-2.6-0.5c-1,0-1.8,0.2-2.6,0.5c-0.8,0.3-1.4,0.8-2,1.4c-0.5,0.6-0.9,1.3-1.2,2.2
		C158.9,41.5,158.8,42.4,158.8,43.5z"/>
	<path class="st2" d="M195.4,53.3h-3.3c-0.3,0-0.6,0-0.8-0.1c-0.2-0.1-0.4-0.3-0.7-0.5l-1.4-1.4c-0.9,0.7-1.8,1.3-2.9,1.7
		c-1.1,0.4-2.2,0.6-3.5,0.6c-0.7,0-1.5-0.1-2.2-0.4c-0.7-0.3-1.4-0.6-1.9-1.1c-0.6-0.5-1-1.1-1.4-1.8c-0.3-0.7-0.5-1.5-0.5-2.3
		c0-0.6,0.1-1.2,0.3-1.7c0.2-0.5,0.5-1.1,0.8-1.5c0.4-0.5,0.8-0.9,1.3-1.3c0.5-0.4,1-0.7,1.6-1c-0.5-0.7-0.8-1.3-1.1-2
		c-0.2-0.6-0.3-1.3-0.3-1.9c0-0.7,0.1-1.3,0.4-1.9c0.2-0.6,0.6-1.1,1.1-1.6c0.5-0.5,1-0.8,1.7-1.1c0.7-0.3,1.5-0.4,2.3-0.4
		c0.8,0,1.5,0.1,2.1,0.4c0.6,0.2,1.2,0.6,1.6,1c0.4,0.4,0.8,0.9,1.1,1.4c0.3,0.5,0.4,1.1,0.5,1.6l-2.1,0.4c-0.4,0.1-0.7-0.1-0.9-0.5
		c-0.1-0.2-0.2-0.5-0.3-0.7c-0.1-0.2-0.3-0.4-0.5-0.6c-0.2-0.2-0.4-0.3-0.6-0.4c-0.2-0.1-0.5-0.1-0.8-0.1c-0.4,0-0.7,0.1-1,0.2
		c-0.3,0.1-0.5,0.3-0.8,0.5c-0.2,0.2-0.4,0.5-0.5,0.8c-0.1,0.3-0.2,0.6-0.2,0.9c0,0.3,0,0.5,0.1,0.8c0.1,0.3,0.1,0.5,0.3,0.8
		c0.1,0.3,0.3,0.5,0.5,0.8c0.2,0.3,0.5,0.6,0.8,0.9l5.2,5.4c0.3-0.6,0.5-1.2,0.7-1.8c0.2-0.6,0.3-1.3,0.4-1.9c0-0.2,0.1-0.4,0.2-0.5
		s0.3-0.2,0.5-0.2h2.1c0,1.2-0.2,2.3-0.5,3.4c-0.3,1.1-0.8,2.1-1.4,3L195.4,53.3z M182.4,44.2c-0.7,0.5-1.2,1-1.6,1.6
		c-0.3,0.6-0.5,1.2-0.5,1.9c0,0.5,0.1,0.9,0.3,1.3c0.2,0.4,0.4,0.7,0.7,1c0.3,0.3,0.6,0.5,1,0.6c0.4,0.1,0.8,0.2,1.3,0.2
		c0.8,0,1.5-0.1,2.2-0.4c0.7-0.2,1.3-0.6,1.8-1L182.4,44.2z"/>
	<path class="st2" d="M215.3,53.3h-2.8c-0.3,0-0.6-0.1-0.8-0.2c-0.2-0.2-0.3-0.4-0.4-0.6l-1.5-4h-8.1l-1.5,4
		c-0.1,0.2-0.2,0.4-0.4,0.6c-0.2,0.2-0.5,0.3-0.8,0.3h-2.8l7.7-19.6h3.7L215.3,53.3z M208.9,45.9l-2.4-6.5c-0.1-0.3-0.2-0.6-0.4-1
		c-0.1-0.4-0.3-0.8-0.4-1.3c-0.1,0.5-0.2,0.9-0.4,1.3c-0.1,0.4-0.2,0.8-0.4,1l-2.4,6.5H208.9z"/>
</g>
</svg>
