<svg height="99" viewBox="0 0 210 99" width="210" xmlns="http://www.w3.org/2000/svg" xmlns:xlink="http://www.w3.org/1999/xlink"><mask id="a" fill="#fff"><path d="m0 164.191176h314.500373v-163.97279365h-314.500373z" fill="#fff" fill-rule="evenodd"/></mask><g fill="#fefefe" fill-rule="evenodd" transform="translate(0 -66)"><path d="m184.700076 66.9774524c-1.9454 1.54652-2.269087 4.3781188-.722764 6.3237672 1.547142 1.9440093 4.378379 2.2677377 6.323779.7212176 1.943761-1.5473396 2.268268-4.3764796.721126-6.3245868-.286812-.3597892-.617054-.663848-.978436-.9113568-1.585657-1.0875634-3.758048-1.0687134-5.343705.1909588"/><path d="m80.4061388 143.717588.9563368-1.346691c1.3733676 1.028015 2.8933033 1.616029 4.3905655 1.616029 1.5199358 0 2.6236504-.78375 2.6236504-2.0075v-.050147c0-1.273897-1.4964524-1.764044-3.1637661-2.229117-1.9863624-.562941-4.1937917-1.249633-4.1937917-3.576618v-.048529c0-2.180589 1.8146915-3.625956 4.3160668-3.625956 1.5450386 0 3.2617481.538676 4.5614267 1.396838l-.8575449 1.421103c-1.1774036-.759485-2.5264782-1.225368-3.7524679-1.225368-1.4964524 0-2.4527892.78375-2.4527892 1.837647v.04853c0 1.201103 1.5693316 1.666176 3.2617481 2.180588 1.9620694.587206 4.0715167 1.346691 4.0715167 3.625147v.04853c0 2.401397-1.9863625 3.798235-4.5128406 3.798235-1.8146916 0-3.8261569-.710956-5.2481106-1.862721"/><path d="m100.517877 138.254875c-.220257-2.302721-1.545039-4.2625-4.0464143-4.2625-2.1823265 0-3.8504498 1.813382-4.1201028 4.2625zm-3.7030724 5.732132c1.7418124 0 2.9669923-.710147 3.9970184-1.788308l1.177403 1.053897c-1.275385 1.421103-2.8204239 2.375514-5.2238173 2.375514-3.4828149 0-6.3267223-2.669926-6.3267223-6.614559 0-3.673676 2.5742545-6.612941 6.0813624-6.612941 3.7524682 0 5.9105012 2.988603 5.9105012 6.712427 0 .169853 0 .367206-.024293.660809h-10.0548971c.269653 2.670735 2.2309126 4.213161 4.4634447 4.213161z"/><path d="m102.506749 139.063699v-.050148c0-3.575 2.795322-6.612941 6.498394-6.612941 2.403393 0 3.899845 1.004559 5.077249 2.253383l-1.250283 1.323235c-1.005732-1.053897-2.13374-1.91125-3.851259-1.91125-2.575065 0-4.536324 2.180588-4.536324 4.899853v.04772c0 2.744339 2.010655 4.924118 4.658599 4.924118 1.619537 0 2.86982-.808015 3.875552-1.886176l1.201697 1.1275c-1.275386 1.421103-2.795321 2.449117-5.175231 2.449117-3.703072 0-6.498394-3.012059-6.498394-6.564411"/><path d="m114.844627 132.670515h1.887571v2.204853c.834062-1.372574 2.158843-2.475 4.34117-2.475 3.066593 0 4.856182 2.057647 4.856182 5.071323v7.862574h-1.88919v-7.3975c0-2.35125-1.274576-3.821691-3.507108-3.821691-2.181517 0-3.801054 1.592573-3.801054 3.968088v7.251103h-1.887571z"/><path d="m127.674602 145.334265h1.88757v-12.66375h-1.88757zm-.123895-15.432353h2.158843v-2.081912h-2.158843z" mask="url(#a)"/><path d="m141.752024 139.013875v-.048529c0-2.915-2.231722-4.87478-4.586529-4.87478-2.45198 0-4.463445 1.812574-4.463445 4.87478v.048529c0 2.988603 2.060052 4.900662 4.463445 4.900662 2.354807 0 4.586529-1.985662 4.586529-4.900662m-10.98694.025074v-.049339c0-4.139559 3.016388-6.589485 6.056259-6.589485 2.354807 0 3.874743 1.273897 4.856183 2.695v-7.643382h1.88919v17.882279h-1.88919v-2.547794c-1.029216 1.519779-2.525669 2.817132-4.856183 2.817132-3.039871 0-6.056259-2.399779-6.056259-6.564411" mask="url(#a)"/><path d="m153.696922 140.680537v-1.17603c-.931234-.269338-2.157224-.538676-3.702263-.538676-2.353997 0-3.703881 1.028015-3.703881 2.546985v.049338c0 1.592574 1.471349 2.522721 3.188869 2.522721 2.329704 0 4.217275-1.396838 4.217275-3.404338m-9.319628.979485v-.049338c0-2.719265 2.208239-4.139559 5.421401-4.139559 1.618728 0 2.745926.220809 3.874743.539485v-.392279c0-2.253382-1.374177-3.429412-3.752468-3.429412-1.496452 0-2.673046.367206-3.850449.906691l-.563599-1.543235c1.39685-.638162 2.745115-1.078162 4.610012-1.078162 1.790399 0 3.18806.490147 4.09581 1.39603.883458.881617 1.323162 2.106985 1.323162 3.723823v7.740441h-1.862468v-1.886176c-.882648 1.126691-2.329704 2.155515-4.561426 2.155515-2.37991 0-4.734718-1.3475-4.734718-3.943824" mask="url(#a)"/><path d="m156.347699 144.133809 8.411877-9.871691h-8.117931v-1.591765h10.692995v1.200294l-8.43617 9.871691h8.43617v1.591765h-10.986941z" mask="url(#a)"/><path d="m178.398023 139.063699v-.050148c0-2.718455-2.036568-4.947573-4.708804-4.947573-2.746736 0-4.635926 2.229118-4.635926 4.899853v.04772c0 2.720074 2.010656 4.924118 4.684512 4.924118 2.747545 0 4.660218-2.204044 4.660218-4.87397m-11.282506 0v-.050148c0-3.575 2.796941-6.612941 6.622288-6.612941 3.801054 0 6.597994 2.988603 6.597994 6.565221v.04772c0 3.576618-2.821233 6.614559-6.64658 6.614559-3.802674 0-6.573702-2.987794-6.573702-6.564411" mask="url(#a)"/><path d="m181.465913 145.334265h1.88838v-17.88228h-1.88838z" mask="url(#a)"/><path d="m194.587889 138.254875c-.221066-2.302721-1.545038-4.2625-4.046413-4.2625-2.183137 0-3.85126 1.813382-4.120913 4.2625zm-3.703881 5.732132c1.741002 0 2.967802-.710147 3.997827-1.788308l1.176594 1.053897c-1.274576 1.421103-2.819614 2.375514-5.223007 2.375514-3.483625 0-6.327533-2.669926-6.327533-6.614559 0-3.673676 2.574255-6.612941 6.082173-6.612941 3.751658 0 5.909691 2.988603 5.909691 6.712427 0 .169853 0 .367206-.024293.660809h-10.054897c.269653 2.670735 2.231722 4.213161 4.463445 4.213161z" mask="url(#a)"/><path d="m2.01243702 118.083221 2.42849614-3.420515c3.48686376 2.6125 7.34703084 4.105588 11.14484574 4.105588 3.8601671 0 6.6619666-1.990515 6.6619666-5.100441v-.12375c0-3.234485-3.7978149-4.477647-8.0312853-5.659338-5.04404889-1.430809-10.64764786-3.172206-10.64764786-9.0806621v-.1245588c0-5.5347794 4.60758355-9.2036029 10.95859896-9.2036029 3.9225193 0 8.2806941 1.3677206 11.5805013 3.5450735l-2.1790874 3.6073529c-2.988856-1.9290441-6.4125578-3.1107352-9.5261183-3.1107352-3.7978149 0-6.22631101 1.9905147-6.22631101 4.6652941v.12375c0 3.0468385 3.98487151 4.2293385 8.28069411 5.5355885 4.9816966 1.49147 10.3358869 3.419706 10.3358869 9.203603v.124558c0 6.095295-5.0432391 9.640368-11.455797 9.640368-4.6075835 0-9.71317476-1.804485-13.32474288-4.727573" mask="url(#a)"/><path d="m57.361338 106.267199v-.124559c0-6.9025003-5.1679434-12.5626474-11.9546143-12.5626474-6.9737276 0-11.7667481 5.6601471-11.7667481 12.4380884v.124559c0 6.903309 5.1047815 12.500367 11.8914524 12.500367 6.9729178 0 11.82991-5.597058 11.82991-12.375808m-28.6407069 0v-.124559c0-9.0790444 7.0976221-16.7911768 16.8107969-16.7911768 9.6508226 0 16.7484448 7.5867647 16.7484448 16.6666178v.124559c0 9.079853-7.1599743 16.791176-16.8731491 16.791176-9.6508227 0-16.6860926-7.586765-16.6860926-16.666617" mask="url(#a)"/><path d="m66.3864524 122.188162h4.7946401v-45.3992649h-4.7946401z" mask="url(#a)"/><path d="m103.991055 106.267199v-.124559c0-6.9025003-5.1671334-12.5626474-11.9538044-12.5626474-6.9737275 0-11.7675578 5.6601471-11.7675578 12.4380884v.124559c0 6.903309 5.1055913 12.500367 11.8922622 12.500367 6.9729178 0 11.8291-5.597058 11.8291-12.375808m-28.6398969 0v-.124559c0-9.0790444 7.0976221-16.7911768 16.8107969-16.7911768 9.650823 0 16.748445 7.5867647 16.748445 16.6666178v.124559c0 9.079853-7.159975 16.791176-16.8731494 16.791176-9.6508226 0-16.6860925-7.586765-16.6860925-16.666617" mask="url(#a)"/><path d="m109.903014 118.083221 2.428496-3.420515c3.487674 2.6125 7.347841 4.105588 11.145656 4.105588 3.859357 0 6.661966-1.990515 6.661966-5.100441v-.12375c0-3.234485-3.797815-4.477647-8.032095-5.659338-5.042429-1.430809-10.646838-3.172206-10.646838-9.0806621v-.1245588c0-5.5347794 4.606774-9.2036029 10.958599-9.2036029 3.922519 0 8.280694 1.3677206 11.580501 3.5450735l-2.179087 3.6073529c-2.988856-1.9290441-6.413368-3.1107352-9.526118-3.1107352-3.798625 0-6.227121 1.9905147-6.227121 4.6652941v.12375c0 3.0468385 3.984871 4.2293385 8.282314 5.5355885 4.980077 1.49147 10.335077 3.419706 10.335077 9.203603v.124558c0 6.095295-5.043239 9.640368-11.456607 9.640368-4.606774 0-9.712365-1.804485-13.324743-4.727573" mask="url(#a)"/><path d="m163.447346 104.214728c-.56036-5.8461765-3.923329-10.8212501-10.274345-10.8212501-5.540437 0-9.774717 4.6022059-10.458971 10.8212501zm-9.402224 14.553162c4.420527 0 7.533278-1.803677 10.14883-4.539927l2.988856 2.673971c-3.238264 3.607353-7.159974 6.032206-13.26239 6.032206-8.841054 0-16.06419-6.777941-16.06419-16.791177 0-9.3289704 6.538881-16.7911762 15.442287-16.7911762 9.525309 0 15.005013 7.5867647 15.005013 17.0394852 0 .435147 0 .933382-.062352 1.679927h-25.527146c.684254 6.77875 5.665951 10.696691 11.331092 10.696691z" mask="url(#a)"/><path d="m170.978032 106.267199v-.124559c0-9.0790444 7.098432-16.7911768 16.500656-16.7911768 6.100797 0 9.899421 2.5502206 12.887468 5.7216177l-3.175103 3.3582353c-2.552391-2.6739706-5.416543-4.8513236-9.775527-4.8513236-6.536453 0-11.518959 5.5355883-11.518959 12.4380884v.124559c0 6.965588 5.105591 12.500367 11.83072 12.500367 4.108766 0 7.284678-2.051985 9.837069-4.789044l3.051208 2.860809c-3.237455 3.607353-7.097622 6.219044-13.136876 6.219044-9.402224 0-16.500656-7.648235-16.500656-16.666617" mask="url(#a)"/><path d="m106.229742 90.0694559c.816246.7918382 1.246234 1.1558088 1.396041 1.3191912 31.101594-25.5369853 64.481876 16.3172059 96.566529-21.3213971-34.47509 30.411765-66.632622-7.0497059-97.96257 20.0022059" mask="url(#a)"/><path d="m102.942486 87.5671176c.638907.5952942 2.745116 2.1555148 2.873059 2.2954412 10.505938-10.2744853 25.583021-11.7416912 39.492416-10.087647 13.482648 1.2366911 31.985862 7.1443382 51.635707-4.8618383-18.26757 9.2901471-33.657223 3.2409559-50.912583 1.2552941-17.440797-2.0471323-31.823098-.3461764-43.088599 11.39875" mask="url(#a)"/><path d="m78.8107326 123.718941c-.6567223-.791838-1.0024935-1.155809-1.1231491-1.319191-25.0210411 25.536985-51.8762082-16.317206-77.6875835 21.321397 26.407365-31.593456 51.7806555 5.881765 78.8107326-20.002206" mask="url(#a)"/><path d="m81.6065398 125.608272c-.514203-.595294-1.5563753-.609853-2.2940745-1.752721-8.452365 10.274486-21.6524036 11.037206-32.8434062 9.383971-10.8460411-1.2375-25.0348072-7.537426-41.07227504 5.364927 14.69649104-9.289339 27.07785344-3.239339 40.95971724-1.254486 14.0308612 2.047133 26.1879177.003236 35.2500385-11.741691" mask="url(#a)"/><path d="m80.6999229 161.584338h7.7025193v-.804779h-6.3817867l3.4496144-3.122868c1.9815039-1.802867 2.8196144-2.8325 2.8196144-4.37897v-.031545c0-1.755147-1.4341002-3.090514-3.3524421-3.090514-1.9815039 0-3.0293445.917206-4.0115939 2.414338l.6283805.418971c.9336632-1.352353 1.868946-2.093236 3.3030463-2.093236 1.3539331 0 2.5467223.949559 2.5467223 2.415147 0 1.190589-.6453856 2.157133-2.4981362 3.846765l-4.2059383 3.799044zm12.8753213 2.606838c1.2089846 0 2.2730206-.386617 2.9823779-1.094338.6599614-.659191 1.0462211-1.594191 1.0462211-2.78397v-6.93728h-.7887147v1.641103c-.6777763-.965735-1.7887789-1.83522-3.4326092-1.83522-1.9823136 0-3.9484319 1.529485-3.9484319 3.896103v.032352c0 2.349633 1.9661183 3.862942 3.9484319 3.862942 1.6276349 0 2.7232519-.886471 3.4326092-1.899927v1.191397c0 2.108603-1.336928 3.186765-3.2228791 3.186765-1.2089846 0-2.3369923-.401985-3.3200515-1.159044l-.4672365.643823c1.1280078.837133 2.4001543 1.255294 3.7702828 1.255294zm-.1125578-3.975367c-1.6924165 0-3.1742931-1.287647-3.1742931-3.138235v-.032353c0-1.916103 1.4502956-3.106692 3.1742931-3.106692 1.7086118 0 3.4002185 1.22375 3.4002185 3.122059v.032353c0 1.867574-1.6916067 3.122868-3.4002185 3.122868zm15.2123136 1.561029c3.416414 0 5.688625-2.751617 5.688625-5.825956v-.033161c0-3.074339-2.239011-5.794412-5.656234-5.794412-3.416414 0-5.688625 2.751617-5.688625 5.827573v.031544c0 3.074339 2.23982 5.794412 5.656234 5.794412zm.032391-.755441c-2.787224 0-4.818124-2.286544-4.818124-5.070515v-.033161c0-2.78478 1.9977-5.038162 4.785733-5.038162s4.818123 2.286544 4.818123 5.071323v.031544c0 2.785589-1.998509 5.038971-4.785732 5.038971zm7.364846.562941h.788714v-3.364706c0-2.671544 1.660026-4.10397 3.562172-4.10397h.079358v-.869486c-1.626016-.064705-2.996144.998089-3.64153 2.462059v-2.332647h-.788714zm7.573766.1925c1.562853 0 2.579113-.772426 3.142712-1.561029v1.368529h.773329v-5.118235c0-1.015074-.290707-1.772132-.838111-2.318088-.59599-.596103-1.482686-.901839-2.594499-.901839-1.128007 0-2.014704.289559-2.917596.70853l.290707.692353c.757134-.386618 1.579049-.660809 2.578303-.660809 1.692417 0 2.707867.853309 2.707867 2.511397v.354265c-.790335-.208677-1.579859-.354265-2.724062-.354265-2.127262 0-3.593753.965735-3.593753 2.672353v.031544c0 1.706618 1.64383 2.575294 3.175103 2.575294zm.048586-.740073c-1.257571 0-2.385579-.692353-2.385579-1.882941v-.033162c0-1.142059.967674-1.914486 2.707867-1.914486 1.175784 0 2.094061.1925 2.788033.369633v.933382c0 1.497941-1.43491 2.527574-3.110321 2.527574zm5.848959.547573h.790334v-11.749779h-.790334zm12.310912.1925c1.838175 0 3.417224-.788603 4.432674-1.690441v-4.345809h-4.576003v.773236h3.770283v3.235294c-.821915.692353-2.158843 1.287647-3.592944 1.287647-3.013958 0-4.835128-2.173309-4.835128-5.085883v-.033161c0-2.720074 1.917532-5.038162 4.657789-5.038162 1.706992 0 2.739447.579117 3.624525 1.352353l.548213-.627647c-1.128008-.933383-2.288406-1.480956-4.124962-1.480956-3.368637 0-5.576066 2.784779-5.576066 5.827573v.031544c0 3.171398 2.111066 5.794412 5.671619 5.794412zm6.317815-.1925h.790334v-3.364706c0-2.671544 1.659216-4.10397 3.560553-4.10397h.080977v-.869486c-1.627635-.064705-2.996954.998089-3.64153 2.462059v-2.332647h-.790334zm7.574576.1925c1.562044 0 2.578303-.772426 3.142712-1.561029v1.368529h.773329v-5.118235c0-1.015074-.290707-1.772132-.838111-2.318088-.596799-.596103-1.483496-.901839-2.595308-.901839-1.127198 0-2.014704.289559-2.916787.70853l.290707.692353c.757134-.386618 1.578239-.660809 2.578304-.660809 1.692416 0 2.707866.853309 2.707866 2.511397v.354265c-.790334-.208677-1.580668-.354265-2.724062-.354265-2.127262 0-3.593753.965735-3.593753 2.672353v.031544c0 1.706618 1.643021 2.575294 3.175103 2.575294zm.047776-.740073c-1.256761 0-2.384768-.692353-2.384768-1.882941v-.033162c0-1.142059.966863-1.914486 2.707866-1.914486 1.176594 0 2.094062.1925 2.787224.369633v.933382c0 1.497941-1.434101 2.527574-3.110322 2.527574zm5.737211.547573h.789524v-4.748603c0-1.706617 1.240566-2.929559 2.852006-2.929559 1.660025 0 2.611503 1.110515 2.611503 2.800956v4.877206h.789525v-5.022794c0-1.963015-1.209794-3.380073-3.288471-3.380073-1.498072 0-2.416349.757058-2.964563 1.722794v-1.528677h-.789524zm12.038021.1925c1.498072 0 2.417159-.755441 2.965372-1.721985v1.529485h.788715v-8.20875h-.788715v4.747794c0 1.705809-1.241375 2.929559-2.852815 2.929559-1.660025 0-2.610694-1.110515-2.610694-2.800956v-4.876397h-.789524v5.021986c0 1.963014 1.208175 3.379264 3.287661 3.379264zm5.897545-.1925h.790334v-11.749779h-.790334zm6.397172.1925c1.579858 0 2.562918-.643823 3.401028-1.544853l-.548213-.482867c-.676157.723897-1.547468 1.287647-2.820424 1.287647-1.61144 0-3.077931-1.190589-3.22207-3.235294h6.815823c.016195-.128603.016195-.177133.016195-.321912 0-2.430515-1.465681-4.298088-3.771092-4.298088-2.223625 0-3.899036 1.899926-3.899036 4.281911v.032353c0 2.559118 1.868946 4.281103 4.027789 4.281103zm-3.189679-4.683897c.144139-1.819044 1.4009-3.186765 3.029345-3.186765 1.885141 0 2.835809 1.528677 2.948367 3.186765zm10.829036 4.652353c1.579049 0 2.83662-.934191 2.83662-2.39897v-.032353c0-1.448603-1.387134-1.931471-2.707867-2.301103-1.176593-.338089-2.288406-.675368-2.288406-1.593383v-.033161c0-.820956.741748-1.431618 1.868946-1.431618.871311 0 1.773394.321912 2.529717.820956l.42027-.66c-.822725-.547574-1.934537-.901838-2.917596-.901838-1.594434 0-2.707057.949558-2.707057 2.269558v.032353c0 1.465589 1.482687 1.866765 2.819615 2.253383 1.144203.321911 2.175848.676176 2.175848 1.641911v.032353c0 .949559-.870501 1.56103-1.982313 1.56103-1.047841 0-2.046286-.385809-2.948368-1.078162l-.467237.627647c.870502.708529 2.174229 1.191397 3.367828 1.191397z" mask="url(#a)"/><path d="m205.387693 91.6875074h.347391c.404884 0 .73284-.1350736.73284-.4618383 0-.2895588-.212159-.4820588-.675347-.4820588-.192725 0-.327956.0194118-.404884.0388235zm-.018625 1.7907352h-.73365v-3.157647c.289087-.0582353.693971-.0970588 1.215462-.0970588.598419 0 .866453.0970588 1.098857.2313235.17329.1350735.307712.385.307712.6931618 0 .3469853-.269653.6163235-.655103.7327941v.0380147c.308522.1156617.482622.3461765.578175.77.097172.48125.153856.6745588.232403.7894117h-.791954c-.095552-.1148529-.153046-.4036029-.250218-.77-.056684-.3461764-.250219-.5006617-.655103-.5006617h-.346581zm-1.949113-1.6556617c0 1.4057353 1.042982 2.5227206 2.468175 2.5227206 1.389563 0 2.410681-1.1169853 2.410681-2.5033089 0-1.4065441-1.021118-2.5429411-2.429306-2.5429411-1.406568 0-2.44955 1.136397-2.44955 2.5235294zm5.688625 0c0 1.7907353-1.407378 3.1964706-3.239075 3.1964706-1.812262 0-3.257699-1.4057353-3.257699-3.1964706 0-1.7527206 1.445437-3.1584559 3.257699-3.1584559 1.831697 0 3.239075 1.4057353 3.239075 3.1584559z" mask="url(#a)"/></g></svg>