<svg enable-background="new 0 0 650 325" viewBox="0 0 650 325" xmlns="http://www.w3.org/2000/svg" xmlns:xlink="http://www.w3.org/1999/xlink"><radialGradient id="a" cx="541.4656" cy="43.5243" gradientUnits="userSpaceOnUse" r="24.0944"><stop offset="0" stop-color="#78c58c"/><stop offset=".4363" stop-color="#00ab4e"/></radialGradient><linearGradient id="b" gradientUnits="userSpaceOnUse" x1="72.7486" x2="270.9643" y1="204.7481" y2="204.7481"><stop offset="0" stop-color="#003e6a"/><stop offset=".8462" stop-color="#003e6a" stop-opacity="0"/></linearGradient><linearGradient id="c" gradientUnits="userSpaceOnUse" x1="58.1455" x2="262.5296" y1="207.379" y2="207.379"><stop offset="0" stop-color="#00ab4e"/><stop offset="1" stop-color="#00ab4e" stop-opacity="0"/></linearGradient><linearGradient id="d" gradientUnits="userSpaceOnUse" x1="82.1543" x2="294.7708" y1="197.0542" y2="197.0542"><stop offset="0" stop-color="#003e6a"/><stop offset=".7628" stop-color="#003e6a" stop-opacity="0"/></linearGradient><linearGradient id="e" gradientUnits="userSpaceOnUse" x1="77.605" x2="267.1112" y1="201.4078" y2="201.4078"><stop offset="0" stop-color="#003e6a"/><stop offset=".4375" stop-color="#003e6a"/><stop offset=".4431" stop-color="#003e6a"/><stop offset="1" stop-color="#003e6a" stop-opacity="0"/></linearGradient><linearGradient id="f" gradientUnits="userSpaceOnUse" x1="323.4648" x2="566.4636" y1="70.5013" y2="70.5013"><stop offset="0" stop-color="#003e6a" stop-opacity="0"/><stop offset=".7377" stop-color="#003e6a"/><stop offset="1" stop-color="#003e6a"/></linearGradient><linearGradient id="g" gradientUnits="userSpaceOnUse" x1="329.917" x2="530.6893" y1="78.1987" y2="78.1987"><stop offset="0" stop-color="#003e6a" stop-opacity="0"/><stop offset=".8804" stop-color="#003e6a"/><stop offset="1" stop-color="#003e6a"/></linearGradient><linearGradient id="h" gradientUnits="userSpaceOnUse" x1="329.9068" x2="583.9149" y1="67.8801" y2="67.8801"><stop offset="0" stop-color="#00ab4e" stop-opacity="0"/><stop offset=".7906" stop-color="#00ab4e"/><stop offset="1" stop-color="#00ab4e"/></linearGradient><linearGradient id="i" gradientUnits="userSpaceOnUse" x1="324.8681" x2="560.428" y1="73.8404" y2="73.8404"><stop offset="0" stop-color="#003e6a" stop-opacity="0"/><stop offset=".6107" stop-color="#003e6a" stop-opacity=".9989"/><stop offset=".6351" stop-color="#003e6a" stop-opacity=".999"/><stop offset="1" stop-color="#003e6a"/></linearGradient><g fill="#00ab4e"><path d="m265.58 232.53 2.47-3.49c3.55 2.66 7.48 4.18 11.35 4.18 3.93 0 6.79-2.03 6.79-5.2v-.13c0-3.3-3.87-4.57-8.18-5.77-5.14-1.46-10.84-3.24-10.84-9.26v-.13c0-5.64 4.69-9.39 11.16-9.39 3.99 0 8.43 1.4 11.79 3.61l-2.22 3.68c-3.04-1.97-6.53-3.17-9.7-3.17-3.87 0-6.34 2.03-6.34 4.75v.13c0 3.11 4.06 4.31 8.43 5.64 5.07 1.52 10.53 3.49 10.53 9.38v.13c0 6.22-5.14 9.83-11.67 9.83-4.7.03-9.9-1.81-13.57-4.79z"/><path d="m308 233.22c4.5 0 7.67-1.84 10.34-4.63l3.04 2.73c-3.3 3.68-7.29 6.15-13.51 6.15-9.01 0-16.36-6.91-16.36-17.12 0-9.51 6.66-17.12 15.73-17.12 9.7 0 15.28 7.74 15.28 17.38 0 .44 0 .95-.06 1.71h-26c.7 6.91 5.77 10.9 11.54 10.9zm9.58-14.83c-.57-5.96-3.99-11.03-10.46-11.03-5.64 0-9.96 4.69-10.65 11.03z"/><path d="m322.72 220.48v-.13c0-9.26 7.23-17.12 16.8-17.12 6.21 0 10.08 2.6 13.13 5.83l-3.23 3.43c-2.6-2.73-5.52-4.95-9.96-4.95-6.66 0-11.73 5.64-11.73 12.68v.13c0 7.1 5.2 12.75 12.05 12.75 4.19 0 7.42-2.09 10.02-4.88l3.11 2.92c-3.3 3.68-7.23 6.34-13.38 6.34-9.58-.01-16.81-7.8-16.81-17z"/><path d="m354.63 203.93h4.88v5.71c2.16-3.55 5.58-6.41 11.22-6.41 7.93 0 12.56 5.33 12.56 13.13v20.36h-4.88v-19.15c0-6.09-3.3-9.89-9.07-9.89-5.64 0-9.83 4.12-9.83 10.27v18.77h-4.88z"/><path d="m387.48 191.37h5.58v5.39h-5.58zm.32 12.56h4.88v32.79h-4.88z"/><path d="m395.79 220.42v-.13c0-10.72 7.8-17.06 15.66-17.06 6.09 0 10.02 3.3 12.56 6.98v-19.79h4.88v46.29h-4.88v-6.6c-2.66 3.93-6.53 7.29-12.56 7.29-7.86.01-15.66-6.2-15.66-16.98zm28.41-.07v-.13c0-7.55-5.77-12.62-11.86-12.62-6.34 0-11.54 4.69-11.54 12.62v.13c0 7.74 5.33 12.68 11.54 12.68 6.09.01 11.86-5.13 11.86-12.68z"/><path d="m430.99 227.2v-.13c0-7.04 5.71-10.72 14.02-10.72 4.19 0 7.1.57 10.02 1.4v-1.02c0-5.83-3.55-8.88-9.7-8.88-3.87 0-6.91.95-9.96 2.35l-1.46-4c3.61-1.65 7.1-2.79 11.92-2.79 4.63 0 8.24 1.27 10.59 3.61 2.28 2.28 3.42 5.45 3.42 9.64v20.04h-4.82v-4.88c-2.28 2.92-6.02 5.58-11.79 5.58-6.15.01-12.24-3.48-12.24-10.2zm24.1-2.53v-3.04c-2.41-.7-5.58-1.4-9.58-1.4-6.09 0-9.58 2.66-9.58 6.6v.13c0 4.12 3.81 6.53 8.24 6.53 6.04-.01 10.92-3.63 10.92-8.82z"/><path d="m461.94 233.61 21.75-25.56h-20.99v-4.12h27.65v3.11l-21.81 25.56h21.81v4.12h-28.41z"/><path d="m489.79 220.48v-.13c0-9.26 7.23-17.12 17.12-17.12 9.83 0 17.06 7.74 17.06 17v.13c0 9.26-7.29 17.12-17.19 17.12-9.83-.01-16.99-7.74-16.99-17zm29.17 0v-.13c0-7.04-5.27-12.81-12.18-12.81-7.1 0-11.99 5.77-11.99 12.68v.13c0 7.04 5.2 12.75 12.11 12.75 7.11 0 12.06-5.71 12.06-12.62z"/><path d="m526.9 190.42h4.88v46.29h-4.88z"/><path d="m551.25 233.22c4.5 0 7.67-1.84 10.34-4.63l3.04 2.73c-3.3 3.68-7.29 6.15-13.51 6.15-9.01 0-16.36-6.91-16.36-17.12 0-9.51 6.66-17.12 15.73-17.12 9.7 0 15.28 7.74 15.28 17.38 0 .44 0 .95-.06 1.71h-26c.69 6.91 5.77 10.9 11.54 10.9zm9.57-14.83c-.57-5.96-4-11.03-10.46-11.03-5.64 0-9.96 4.69-10.65 11.03z"/></g><g fill="#003e6a"><path d="m58.33 168.61 6.28-8.86c9.02 6.76 19 10.63 28.82 10.63 9.98 0 17.23-5.15 17.23-13.2v-.32c0-8.37-9.82-11.59-20.77-14.65-13.04-3.7-27.53-8.21-27.53-23.51v-.32c0-14.33 11.91-23.83 28.34-23.83 10.14 0 21.41 3.54 29.95 9.18l-5.64 9.34c-7.73-4.99-16.58-8.05-24.63-8.05-9.82 0-16.1 5.15-16.1 12.07v.32c0 7.89 10.3 10.95 21.41 14.33 12.88 3.86 26.73 8.85 26.73 23.83v.32c0 15.78-13.04 24.96-29.62 24.96-11.93 0-25.13-4.67-34.47-12.24z"/><path d="m127.39 138.02v-.32c0-23.51 18.35-43.47 43.47-43.47 24.95 0 43.31 19.64 43.31 43.15v.32c0 23.51-18.51 43.47-43.63 43.47-24.96 0-43.15-19.65-43.15-43.15zm74.06 0v-.32c0-17.87-13.36-32.52-30.91-32.52-18.03 0-30.43 14.65-30.43 32.2v.32c0 17.87 13.2 32.36 30.75 32.36 18.03 0 30.59-14.49 30.59-32.04z"/><path d="m224.79 61.71h12.4v117.53h-12.4z"/><path d="m247.97 138.02v-.32c0-23.51 18.35-43.47 43.47-43.47 24.95 0 43.31 19.64 43.31 43.15v.32c0 23.51-18.51 43.47-43.63 43.47-24.96 0-43.15-19.65-43.15-43.15zm74.06 0v-.32c0-17.87-13.36-32.52-30.91-32.52-18.03 0-30.43 14.65-30.43 32.2v.32c0 17.87 13.2 32.36 30.75 32.36 18.03 0 30.59-14.49 30.59-32.04z"/><path d="m337.31 168.61 6.28-8.86c9.02 6.76 19 10.63 28.82 10.63 9.98 0 17.23-5.15 17.23-13.2v-.32c0-8.37-9.82-11.59-20.77-14.65-13.04-3.7-27.53-8.21-27.53-23.51v-.32c0-14.33 11.91-23.83 28.34-23.83 10.14 0 21.41 3.54 29.95 9.18l-5.64 9.34c-7.73-4.99-16.58-8.05-24.63-8.05-9.82 0-16.1 5.15-16.1 12.07v.32c0 7.89 10.3 10.95 21.41 14.33 12.88 3.86 26.73 8.85 26.73 23.83v.32c0 15.78-13.04 24.96-29.62 24.96-11.93 0-25.13-4.67-34.47-12.24z"/><path d="m451.45 170.38c11.43 0 19.48-4.67 26.24-11.75l7.73 6.92c-8.37 9.34-18.51 15.62-34.29 15.62-22.86 0-41.54-17.55-41.54-43.47 0-24.15 16.91-43.47 39.93-43.47 24.63 0 38.8 19.64 38.8 44.11 0 1.13 0 2.41-.16 4.35h-66.01c1.77 17.55 14.65 27.69 29.3 27.69zm24.32-37.67c-1.45-15.13-10.14-28.01-26.57-28.01-14.33 0-25.28 11.91-27.05 28.01z"/><path d="m495.24 138.02v-.32c0-23.51 18.35-43.47 42.67-43.47 15.78 0 25.6 6.6 33.33 14.81l-8.21 8.69c-6.6-6.92-14.01-12.56-25.28-12.56-16.9 0-29.78 14.33-29.78 32.2v.32c0 18.03 13.2 32.36 30.59 32.36 10.63 0 18.84-5.31 25.44-12.4l7.89 7.41c-8.37 9.34-18.35 16.1-33.97 16.1-24.33.01-42.68-19.8-42.68-43.14z"/></g><circle cx="541.47" cy="43.52" fill="url(#a)" r="11.57"/><path d="m555.2 277.21c4.06 0 7.29-2.4 7.29-6.17v-.08c0-3.73-3.56-4.97-6.96-5.92-3.02-.87-5.88-1.74-5.88-4.1v-.08c0-2.11 1.91-3.68 4.8-3.68 2.24 0 4.56.83 6.5 2.11l1.08-1.7c-2.11-1.41-4.97-2.32-7.5-2.32-4.1 0-6.96 2.44-6.96 5.84v.08c0 3.77 3.81 4.8 7.25 5.8 2.94.83 5.59 1.74 5.59 4.23v.08c0 2.45-2.24 4.02-5.09 4.02-2.69 0-5.26-.99-7.58-2.77l-1.2 1.61c2.24 1.8 5.59 3.05 8.66 3.05m-27.84-11.97c.37-4.68 3.6-8.2 7.79-8.2 4.85 0 7.29 3.94 7.58 8.2zm8.2 12.05c4.06 0 6.59-1.66 8.74-3.98l-1.41-1.24c-1.74 1.86-3.98 3.31-7.25 3.31-4.14 0-7.91-3.07-8.28-8.33h17.52c.04-.33.04-.46.04-.83 0-6.25-3.77-11.06-9.69-11.06-5.71 0-10.02 4.89-10.02 11.02v.08c0 6.6 4.8 11.03 10.35 11.03m-16.44-.5h2.03v-30.24h-2.03zm-15.16.5c3.85 0 6.21-1.95 7.62-4.43v3.93h2.03v-21.12h-2.03v12.22c0 4.39-3.19 7.54-7.33 7.54-4.27 0-6.71-2.86-6.71-7.21v-12.55h-2.03v12.92c0 5.05 3.11 8.7 8.45 8.7m-30.94-.5h2.03v-12.22c0-4.39 3.19-7.54 7.33-7.54 4.27 0 6.71 2.86 6.71 7.21v12.55h2.03v-12.92c0-5.05-3.11-8.7-8.45-8.7-3.85 0-6.21 1.95-7.62 4.43v-3.93h-2.03zm-14.74-1.41c-3.23 0-6.13-1.78-6.13-4.85v-.08c0-2.94 2.49-4.93 6.96-4.93 3.02 0 5.38.5 7.17.95v2.4c-.01 3.86-3.7 6.51-8 6.51m-.13 1.91c4.02 0 6.63-1.99 8.08-4.02v3.52h1.99v-13.17c0-2.61-.75-4.56-2.15-5.96-1.53-1.53-3.81-2.32-6.67-2.32-2.9 0-5.18.74-7.5 1.82l.75 1.78c1.95-.99 4.06-1.7 6.63-1.7 4.35 0 6.96 2.2 6.96 6.46v.91c-2.03-.54-4.06-.91-7-.91-5.47 0-9.24 2.49-9.24 6.88v.08c-.01 4.39 4.22 6.63 8.15 6.63m-19.47-.5h2.03v-8.66c0-6.87 4.27-10.56 9.15-10.56h.21v-2.24c-4.18-.17-7.7 2.57-9.36 6.34v-6h-2.03zm-16.23.5c4.72 0 8.78-2.03 11.39-4.35v-11.18h-11.76v1.99h9.69v8.33c-2.11 1.78-5.55 3.31-9.24 3.31-7.74 0-12.43-5.59-12.43-13.09v-.08c0-7 4.93-12.96 11.97-12.96 4.39 0 7.04 1.49 9.32 3.48l1.41-1.61c-2.9-2.4-5.88-3.81-10.6-3.81-8.66 0-14.33 7.17-14.33 14.99v.08c0 8.15 5.43 14.9 14.58 14.9m-31.64-.5h2.03v-30.24h-2.03zm-15.04-1.41c-3.23 0-6.13-1.78-6.13-4.85v-.08c0-2.94 2.49-4.93 6.96-4.93 3.02 0 5.38.5 7.17.95v2.4c0 3.86-3.69 6.51-8 6.51m-.12 1.91c4.02 0 6.63-1.99 8.08-4.02v3.52h1.99v-13.17c0-2.61-.75-4.56-2.15-5.96-1.53-1.53-3.81-2.32-6.67-2.32-2.9 0-5.18.74-7.5 1.82l.75 1.78c1.95-.99 4.06-1.7 6.63-1.7 4.35 0 6.96 2.2 6.96 6.46v.91c-2.03-.54-4.06-.91-7-.91-5.47 0-9.24 2.49-9.24 6.88v.08c-.01 4.39 4.21 6.63 8.15 6.63m-19.47-.5h2.03v-8.66c0-6.87 4.27-10.56 9.15-10.56h.21v-2.24c-4.18-.17-7.7 2.57-9.36 6.34v-6h-2.03zm-18.93-1.45c-7.17 0-12.38-5.88-12.38-13.05v-.08c0-7.17 5.13-12.96 12.3-12.96s12.38 5.88 12.38 13.05v.08c0 7.16-5.13 12.96-12.3 12.96m-.08 1.95c8.78 0 14.62-7.08 14.62-14.99v-.08c0-7.91-5.76-14.91-14.54-14.91s-14.62 7.08-14.62 14.99v.08c0 7.91 5.76 14.91 14.54 14.91m-39.1-4.02c-4.35 0-8.16-3.31-8.16-8.08v-.08c0-4.93 3.73-7.99 8.16-7.99 4.39 0 8.74 3.15 8.74 8.03v.08c0 4.81-4.35 8.04-8.74 8.04m.29 10.23c3.11 0 5.84-.99 7.66-2.82 1.7-1.7 2.69-4.1 2.69-7.16v-17.85h-2.03v4.22c-1.74-2.49-4.6-4.72-8.82-4.72-5.09 0-10.15 3.93-10.15 10.02v.08c0 6.05 5.05 9.94 10.15 9.94 4.18 0 7-2.28 8.82-4.89v3.07c0 5.43-3.44 8.2-8.28 8.2-3.11 0-6.01-1.04-8.53-2.98l-1.2 1.66c2.9 2.15 6.17 3.23 9.69 3.23m-33.09-6.71h19.8v-2.07h-16.4l8.86-8.04c5.09-4.64 7.25-7.29 7.25-11.27v-.08c0-4.52-3.69-7.95-8.62-7.95-5.09 0-7.79 2.36-10.31 6.21l1.61 1.08c2.4-3.48 4.8-5.39 8.49-5.39 3.48 0 6.55 2.44 6.55 6.21 0 3.06-1.66 5.55-6.42 9.9l-10.81 9.77z" fill="#00ab4e"/><path d="m259.13 180.24c-49.62 50.05-102.01-1.88-153.83 15.49 47.97-14.41 107.05 36.67 153.83-15.49z" fill="#00ab4e"/><path d="m268.18 189.02c-.43-.5-.66-.77-.78-.91-.09-.09-.19-.2-.29-.3-24.51 34.25-58.7 32.97-88.86 29.44-26.61-3.04-66.37-19.79-100.48.64-.65.46-1.3.92-1.94 1.4-.3.23-1.64 1.26-2 1.54s-.73.56-1.09.85c6.21-3.92 12.25-6.77 18.18-8.79 30.36-9.86 57.31 1.24 87.23 5.53.07.01.14.02.21.03l.21.03c2.88.42 5.71.77 8.51 1.06.46.05.93.1 1.39.15.19.02.37.03.56.05 31.48 2.98 58.04-2.68 79.2-30.65-.01-.03-.03-.04-.05-.07z" fill="url(#b)"/><path d="m262.5 183.18c-1.2-1.44-1.98-2.32-2.45-2.86-.15-.18-.29-.35-.45-.55-.15.17-.3.32-.44.48-46.78 52.17-105.86 1.08-153.83 15.49-5.24 1.76-10.47 4.22-15.69 7.57-10.34 6.63-20.65 16.73-30.9 31.68 4.7-5.16 9.38-9.55 14.04-13.3-.03.02-.06.03-.08.05.39-.32.78-.6 1.17-.9.34-.27.68-.54 1.02-.8l2.75-2.04c8.18-5.88 16.17-9.9 23.92-12.53 29.65-10.06 56-.06 77.34 2.38 22.33 3.3 46.82 2.56 66.88-10.16 4.16-2.79 8.31-6.15 12.45-10.14 1.41-1.36 2.83-2.77 4.24-4.29.02-.02.04-.04.06-.06-.01 0-.02-.01-.03-.02z" fill="url(#c)"/><path d="m262.47 183.17c.01.01.02.02.03.03-.02.02-.04.04-.06.06-1.41 1.51-2.82 2.92-4.24 4.29-4.14 3.99-8.3 7.35-12.45 10.14-20.06 12.72-44.55 13.47-66.88 10.16-21.34-2.44-47.69-12.44-77.34-2.38 8.34-2.42 16.42-3.32 24.42-3.3 17.18.04 34 4.3 52.21 6.91 34.12 4.98 62.08 1.1 84.89-25.22 0 0 0 0 0-.01-.21-.26-.39-.46-.58-.68z" fill="url(#d)"/><path d="m263.05 183.85c-22.81 26.32-50.76 30.21-84.89 25.22-18.21-2.61-35.02-6.87-52.21-6.91-8-.02-16.08.89-24.42 3.3-7.76 2.63-15.74 6.65-23.92 12.53.06-.03.12-.07.17-.11 34.11-20.43 73.87-3.68 100.48-.64 30.15 3.54 64.35 4.81 88.86-29.44-1.28-1.28-3.04-2.95-4.07-3.95z" fill="url(#e)"/><path d="m334.79 95.01c61.68-50.05 126.81 1.88 191.22-15.49-59.63 14.41-133.07-36.67-191.22 15.49z" fill="#00ab4e"/><path d="m543.86 62.35c-37.73 9.85-71.23-1.24-108.42-5.53-.09-.01-.17-.02-.26-.03s-.17-.02-.26-.03c-3.72-.45-7.37-.83-10.57-1.06-.58-.04-1.16-.1-1.73-.15-.23-.02-.46-.03-.69-.05-39.13-2.98-72.14 2.68-98.45 30.65.03.03.05.05.08.07.55.52.84.79.98.93.11.09.22.18.34.28 30.45-34.24 72.96-32.97 110.44-29.43 33.07 3.04 82.49 19.79 124.89-.64.81-.46 1.61-.92 2.42-1.4.38-.23.76-.47 1.13-.7.45-.28.9-.55 1.35-.84.45-.28.9-.56 1.35-.85-7.71 3.91-15.23 6.76-22.6 8.78z" fill="url(#f)"/><path d="m500.34 73.09c-21.36-.04-42.27-4.3-64.9-6.91-42.41-4.98-77.16-1.1-105.51 25.22 0 0 0 0-.01.01.27.25.49.47.73.69-.02-.02-.03-.03-.04-.04.02-.02.05-.04.07-.06 1.75-1.51 3.51-2.92 5.26-4.28 4.84-4.01 10.03-7.36 15.48-10.14 24.94-12.72 55.38-13.47 83.13-10.16 26.53 2.44 59.28 12.44 96.13 2.38-10.35 2.4-20.4 3.3-30.34 3.29z" fill="url(#g)"/><path d="m566.46 53.56c.03-.02.07-.03.1-.05-.49.32-.97.6-1.46.9-.42.27-.84.54-1.26.8-.41.25-.81.5-1.22.74-.74.44-1.47.87-2.2 1.29-10.17 5.88-20.09 9.9-29.74 12.53-36.85 10.06-69.61.06-96.13-2.38-27.75-3.3-58.19-2.56-83.13 10.16-5.45 2.78-10.64 6.13-15.48 10.14-1.71 1.42-5.31 4.37-5.29 4.38 1.12 1.06 2.02 1.87 3.03 2.85.19.18.36.35.56.55.18-.17.37-.32.55-.48 58.15-52.17 131.59-1.08 191.22-15.49 6.51-1.76 13.01-4.22 19.5-7.57 12.86-6.63 25.67-16.73 38.41-31.68-5.85 5.18-11.66 9.57-17.46 13.31z" fill="url(#h)"/><path d="m560.21 57.36c-42.4 20.43-91.82 3.68-124.89.64-37.48-3.54-79.99-4.81-110.45 29.44 1.58 1.28 3.78 2.96 5.06 3.96 28.35-26.32 63.1-30.21 105.51-25.22 22.63 2.61 43.54 6.88 64.9 6.91 9.94.02 19.99-.89 30.35-3.3 9.64-2.63 19.57-6.65 29.74-12.53-.07.03-.15.06-.22.1z" fill="url(#i)"/><path d="m581.99 91.14c.78 0 1.51.15 2.19.44s1.27.7 1.78 1.2.9 1.1 1.2 1.78c.29.68.44 1.41.44 2.19s-.15 1.51-.44 2.19c-.3.68-.7 1.27-1.2 1.78s-1.1.91-1.78 1.2-1.41.44-2.19.44-1.51-.15-2.19-.44-1.27-.69-1.78-1.2c-.5-.5-.91-1.1-1.2-1.78s-.44-1.41-.44-2.19.15-1.51.44-2.19.7-1.27 1.2-1.78 1.1-.91 1.78-1.2 1.41-.44 2.19-.44zm.02.5c-.72 0-1.39.13-2.01.39s-1.16.62-1.6 1.08c-.45.46-.8 1-1.06 1.63s-.38 1.3-.38 2.02c0 .71.13 1.38.39 2s.62 1.16 1.07 1.63.98.83 1.6 1.09c.62.27 1.28.4 2 .4s1.39-.13 2-.4 1.14-.64 1.59-1.1.8-1.01 1.06-1.63.38-1.28.38-2-.13-1.39-.38-2.01-.6-1.16-1.05-1.61-.97-.81-1.59-1.08c-.64-.28-1.3-.41-2.02-.41zm-2.06 1.8h2.49c.75 0 1.3.16 1.64.46.34.31.52.77.52 1.37 0 .27-.04.51-.14.71-.09.21-.21.38-.37.52s-.33.25-.54.34-.43.15-.67.18l1.98 3.04h-.63l-2-3.06h-1.72v3.06h-.57v-6.62zm.57 3.07h1.41c.25 0 .5-.01.75-.04.25-.02.47-.08.67-.17.2-.08.36-.21.49-.38s.19-.39.19-.68c0-.25-.05-.46-.15-.63s-.23-.31-.39-.41-.34-.18-.54-.22-.4-.06-.6-.06h-1.83z" fill="#003e6a"/></svg>